%TF.GenerationSoftware,KiCad,Pcbnew,7.0.8-7.0.8~ubuntu22.04.1*%
%TF.CreationDate,2023-11-12T23:56:43-08:00*%
%TF.ProjectId,driver-tmc2160,64726976-6572-42d7-946d-63323136302e,rev?*%
%TF.SameCoordinates,Original*%
%TF.FileFunction,Copper,L2,Inr*%
%TF.FilePolarity,Positive*%
%FSLAX46Y46*%
G04 Gerber Fmt 4.6, Leading zero omitted, Abs format (unit mm)*
G04 Created by KiCad (PCBNEW 7.0.8-7.0.8~ubuntu22.04.1) date 2023-11-12 23:56:43*
%MOMM*%
%LPD*%
G01*
G04 APERTURE LIST*
G04 Aperture macros list*
%AMFreePoly0*
4,1,31,3.000000,0.000000,2.979715,-0.348279,2.919135,-0.691848,2.819078,-1.026060,2.680898,-1.346398,2.506463,-1.648527,2.298133,-1.928363,2.058725,-2.182121,1.791476,-2.406370,1.500000,-2.598076,1.188239,-2.754648,0.860410,-2.873969,0.520945,-2.954423,0.174434,-2.994924,-0.174434,-2.994924,-0.520945,-2.954423,-0.860410,-2.873969,-1.188239,-2.754648,-1.500000,-2.598076,-1.791476,-2.406370,
-2.058725,-2.182121,-2.298133,-1.928363,-2.506463,-1.648527,-2.680898,-1.346398,-2.819078,-1.026060,-2.919135,-0.691848,-2.979715,-0.348279,-3.000000,0.000000,-3.000000,3.000000,3.000000,3.000000,3.000000,0.000000,3.000000,0.000000,$1*%
G04 Aperture macros list end*
%TA.AperFunction,ComponentPad*%
%ADD10C,0.800000*%
%TD*%
%TA.AperFunction,ComponentPad*%
%ADD11FreePoly0,270.000000*%
%TD*%
%TA.AperFunction,ComponentPad*%
%ADD12FreePoly0,90.000000*%
%TD*%
%TA.AperFunction,ComponentPad*%
%ADD13C,0.500000*%
%TD*%
%TA.AperFunction,ViaPad*%
%ADD14C,0.500000*%
%TD*%
%TA.AperFunction,ViaPad*%
%ADD15C,0.600000*%
%TD*%
%TA.AperFunction,Conductor*%
%ADD16C,0.100000*%
%TD*%
%TA.AperFunction,Conductor*%
%ADD17C,0.150000*%
%TD*%
G04 APERTURE END LIST*
D10*
%TO.N,GND*%
%TO.C,H2*%
X147000000Y-62100000D03*
X148697056Y-62802944D03*
X145302944Y-62802944D03*
X149400000Y-64500000D03*
D11*
X147000000Y-64500000D03*
D10*
X144600000Y-64500000D03*
X148697056Y-66197056D03*
X145302944Y-66197056D03*
X147000000Y-66900000D03*
%TD*%
%TO.N,+48V*%
%TO.C,H1*%
X123000000Y-66900000D03*
X121302944Y-66197056D03*
X124697056Y-66197056D03*
X120600000Y-64500000D03*
D12*
X123000000Y-64500000D03*
D10*
X125400000Y-64500000D03*
X121302944Y-62802944D03*
X124697056Y-62802944D03*
X123000000Y-62100000D03*
%TD*%
D13*
%TO.N,GND*%
%TO.C,U1*%
X130750000Y-78000000D03*
X130750000Y-79125000D03*
X130750000Y-80250000D03*
X130750000Y-81375000D03*
X131875000Y-78000000D03*
X131875000Y-79125000D03*
X131875000Y-80250000D03*
X131875000Y-81375000D03*
X133000000Y-78000000D03*
X133000000Y-79125000D03*
X133000000Y-80250000D03*
X133000000Y-81375000D03*
X134125000Y-78000000D03*
X134125000Y-79125000D03*
X134125000Y-80250000D03*
X134125000Y-81375000D03*
X135250000Y-78000000D03*
X135250000Y-79125000D03*
X135250000Y-80250000D03*
X135250000Y-81375000D03*
%TD*%
D14*
%TO.N,GND*%
X143200000Y-80500000D03*
%TO.N,/Diag0*%
X143750000Y-76750000D03*
%TO.N,/Dir*%
X143200000Y-79000000D03*
%TO.N,/Step*%
X143200000Y-82000000D03*
%TO.N,/Diag1*%
X143750000Y-78250000D03*
%TO.N,VCC*%
X139850000Y-83000000D03*
%TO.N,/Clk*%
X127800000Y-82750000D03*
%TO.N,/SRBL*%
X127000000Y-77450000D03*
%TO.N,GND*%
X138150000Y-84550000D03*
%TO.N,/~{En}*%
X140700000Y-78300000D03*
%TO.N,/~{CS}*%
X129950000Y-82700000D03*
D15*
%TO.N,GND*%
X149300000Y-72500000D03*
D14*
X139800000Y-79000000D03*
X129500000Y-79975000D03*
D15*
X149300000Y-68300000D03*
X120700000Y-72500000D03*
X120700000Y-68300000D03*
X120700000Y-69500000D03*
X120700000Y-70700000D03*
X149300000Y-73700000D03*
X149300000Y-70700000D03*
X149300000Y-69500000D03*
X120700000Y-68900000D03*
X120700000Y-70100000D03*
X120700000Y-73700000D03*
X149300000Y-68900000D03*
D14*
X129725000Y-81250000D03*
D15*
X149300000Y-74900000D03*
D14*
X139025000Y-80650000D03*
D15*
X149300000Y-71300000D03*
X120700000Y-71300000D03*
X120700000Y-71900000D03*
X149300000Y-70100000D03*
X149300000Y-71900000D03*
X149300000Y-74300000D03*
X120700000Y-74900000D03*
X120700000Y-73100000D03*
X149300000Y-73100000D03*
X120700000Y-74300000D03*
D14*
%TO.N,+12V*%
X129500000Y-79000000D03*
D15*
%TO.N,+48V*%
X140100000Y-73300000D03*
X133900000Y-72700000D03*
X129300000Y-73900000D03*
X137900000Y-73300000D03*
X129300000Y-72700000D03*
X137900000Y-73900000D03*
X132100000Y-73900000D03*
X128700000Y-73300000D03*
X128100000Y-73300000D03*
X128700000Y-72700000D03*
X137900000Y-72700000D03*
X137300000Y-73300000D03*
X136700000Y-72700000D03*
X141300000Y-73300000D03*
X129300000Y-73300000D03*
X136100000Y-72700000D03*
X133300000Y-73300000D03*
X129900000Y-73900000D03*
X129900000Y-72700000D03*
X128700000Y-73900000D03*
X137300000Y-72700000D03*
X141300000Y-72700000D03*
X133300000Y-73900000D03*
X141900000Y-72700000D03*
X136100000Y-73300000D03*
X132700000Y-73900000D03*
X132700000Y-72700000D03*
X140700000Y-73900000D03*
X129900000Y-73300000D03*
X136100000Y-73900000D03*
X133900000Y-73900000D03*
X128100000Y-73900000D03*
X140100000Y-72700000D03*
X137300000Y-73900000D03*
X140100000Y-73900000D03*
X132700000Y-73300000D03*
X132100000Y-73300000D03*
X141900000Y-73300000D03*
X133300000Y-72700000D03*
X132100000Y-72700000D03*
X136700000Y-73900000D03*
X140700000Y-73300000D03*
X140700000Y-72700000D03*
X141900000Y-73900000D03*
X141300000Y-73900000D03*
X136700000Y-73300000D03*
X128100000Y-72700000D03*
X133900000Y-73300000D03*
D14*
%TO.N,/SCK*%
X130750000Y-83825000D03*
%TO.N,/SDI*%
X132500000Y-83125000D03*
%TO.N,/SDO*%
X135850000Y-82675000D03*
%TO.N,VCC*%
X136850000Y-84550000D03*
D15*
%TO.N,Net-(Q2-S-Pad1)*%
X127600500Y-68600000D03*
X127600000Y-69200000D03*
X131600500Y-68600000D03*
X131600000Y-69800000D03*
X127600000Y-68000000D03*
X131600000Y-68000000D03*
X131600000Y-69200000D03*
X127600000Y-69800000D03*
D14*
%TO.N,/LB1*%
X129650000Y-75150000D03*
X126950000Y-75150000D03*
D15*
%TO.N,Net-(Q6-S-Pad1)*%
X135600500Y-68600000D03*
X139600000Y-68000000D03*
X143200000Y-68600000D03*
X139600000Y-69800000D03*
X143200000Y-69800000D03*
X135600000Y-69200000D03*
X135600000Y-68000000D03*
X139600500Y-68600000D03*
X143200000Y-69200000D03*
X143200000Y-70400000D03*
X139600000Y-69200000D03*
X135600000Y-69800000D03*
D14*
%TO.N,/LA1*%
X135400000Y-74800000D03*
X134650000Y-73900000D03*
%TO.N,/SRBL*%
X128075000Y-82000000D03*
%TO.N,/SRAH*%
X136250000Y-78100000D03*
X139200000Y-76600000D03*
%TO.N,/SRAL*%
X136250000Y-77400000D03*
X139200000Y-77300000D03*
%TD*%
D16*
%TO.N,/SRBL*%
X127000000Y-77450000D02*
X127050000Y-77500000D01*
X128050000Y-81975000D02*
X128075000Y-82000000D01*
X127050000Y-77500000D02*
X127050000Y-80500000D01*
X127050000Y-80500000D02*
X128050000Y-81500000D01*
X128050000Y-81500000D02*
X128050000Y-81975000D01*
D17*
%TO.N,/LB1*%
X129650000Y-75150000D02*
X126950000Y-75150000D01*
%TD*%
%TA.AperFunction,Conductor*%
%TO.N,GND*%
G36*
X143502424Y-56300739D02*
G01*
X143568798Y-56307276D01*
X143626764Y-56312985D01*
X143645794Y-56316770D01*
X143719273Y-56339059D01*
X143758354Y-56350915D01*
X143776285Y-56358342D01*
X143880022Y-56413791D01*
X143896158Y-56424573D01*
X143992735Y-56503831D01*
X143996335Y-56507094D01*
X144027833Y-56538590D01*
X149490023Y-62000781D01*
X149492904Y-62003663D01*
X149496168Y-62007265D01*
X149575426Y-62103841D01*
X149586208Y-62119977D01*
X149641657Y-62223714D01*
X149649084Y-62241645D01*
X149683228Y-62354203D01*
X149687014Y-62373237D01*
X149699261Y-62497575D01*
X149699500Y-62502430D01*
X149699500Y-81997571D01*
X149699262Y-82002417D01*
X149687059Y-82126539D01*
X149683286Y-82145541D01*
X149649260Y-82257920D01*
X149641859Y-82275823D01*
X149589282Y-82374394D01*
X149579197Y-82389696D01*
X149533712Y-82446476D01*
X149533709Y-82446481D01*
X149424691Y-82619215D01*
X149424685Y-82619225D01*
X149335776Y-82803092D01*
X149268083Y-82995807D01*
X149268079Y-82995820D01*
X149222471Y-83194903D01*
X149222470Y-83194910D01*
X149199521Y-83397866D01*
X149199512Y-83435057D01*
X149199500Y-83435205D01*
X149199500Y-84497569D01*
X149199261Y-84502424D01*
X149187014Y-84626762D01*
X149183228Y-84645796D01*
X149149084Y-84758354D01*
X149141657Y-84776285D01*
X149086208Y-84880022D01*
X149075426Y-84896158D01*
X149000806Y-84987083D01*
X148987083Y-85000806D01*
X148896159Y-85075426D01*
X148880023Y-85086208D01*
X148776286Y-85141657D01*
X148758355Y-85149084D01*
X148645796Y-85183228D01*
X148626763Y-85187014D01*
X148502426Y-85199261D01*
X148497571Y-85199500D01*
X121502430Y-85199500D01*
X121497575Y-85199261D01*
X121373237Y-85187014D01*
X121354203Y-85183228D01*
X121241645Y-85149084D01*
X121223714Y-85141657D01*
X121119977Y-85086208D01*
X121103841Y-85075426D01*
X121012916Y-85000806D01*
X120999193Y-84987083D01*
X120924573Y-84896158D01*
X120913791Y-84880022D01*
X120858342Y-84776285D01*
X120850915Y-84758354D01*
X120816771Y-84645796D01*
X120812985Y-84626762D01*
X120810581Y-84602351D01*
X120805425Y-84550000D01*
X136469819Y-84550000D01*
X136478110Y-84602351D01*
X136488426Y-84667481D01*
X136488428Y-84667488D01*
X136542425Y-84773462D01*
X136542427Y-84773465D01*
X136626535Y-84857573D01*
X136626537Y-84857574D01*
X136732511Y-84911571D01*
X136732513Y-84911571D01*
X136732518Y-84911574D01*
X136850000Y-84930181D01*
X136967482Y-84911574D01*
X137073465Y-84857573D01*
X137157573Y-84773465D01*
X137211574Y-84667482D01*
X137230181Y-84550000D01*
X137211574Y-84432518D01*
X137211571Y-84432513D01*
X137211571Y-84432511D01*
X137157574Y-84326537D01*
X137157573Y-84326535D01*
X137073465Y-84242427D01*
X137073462Y-84242425D01*
X136967488Y-84188428D01*
X136967483Y-84188426D01*
X136967482Y-84188426D01*
X136850000Y-84169819D01*
X136732518Y-84188426D01*
X136732511Y-84188428D01*
X136626537Y-84242425D01*
X136542425Y-84326537D01*
X136488428Y-84432511D01*
X136488426Y-84432518D01*
X136469819Y-84550000D01*
X120805425Y-84550000D01*
X120800737Y-84502409D01*
X120800500Y-84497568D01*
X120800500Y-83825000D01*
X130369819Y-83825000D01*
X130388426Y-83942481D01*
X130388428Y-83942488D01*
X130442425Y-84048462D01*
X130442427Y-84048465D01*
X130526535Y-84132573D01*
X130526537Y-84132574D01*
X130632511Y-84186571D01*
X130632513Y-84186571D01*
X130632518Y-84186574D01*
X130750000Y-84205181D01*
X130867482Y-84186574D01*
X130973465Y-84132573D01*
X131057573Y-84048465D01*
X131111574Y-83942482D01*
X131130181Y-83825000D01*
X131111574Y-83707518D01*
X131111571Y-83707513D01*
X131111571Y-83707511D01*
X131057574Y-83601537D01*
X131057573Y-83601535D01*
X130973465Y-83517427D01*
X130973462Y-83517425D01*
X130867488Y-83463428D01*
X130867483Y-83463426D01*
X130867482Y-83463426D01*
X130750000Y-83444819D01*
X130632518Y-83463426D01*
X130632511Y-83463428D01*
X130526537Y-83517425D01*
X130442425Y-83601537D01*
X130388428Y-83707511D01*
X130388426Y-83707518D01*
X130369819Y-83824999D01*
X130369819Y-83825000D01*
X120800500Y-83825000D01*
X120800500Y-83469918D01*
X120800491Y-83469738D01*
X120800477Y-83397872D01*
X120777527Y-83194911D01*
X120777527Y-83194910D01*
X120777526Y-83194904D01*
X120731918Y-82995821D01*
X120731915Y-82995812D01*
X120664224Y-82803101D01*
X120630011Y-82732346D01*
X120575308Y-82619216D01*
X120485256Y-82476535D01*
X120466290Y-82446485D01*
X120420805Y-82389704D01*
X120410730Y-82374417D01*
X120358140Y-82275820D01*
X120350740Y-82257920D01*
X120316714Y-82145541D01*
X120312942Y-82126543D01*
X120306024Y-82056173D01*
X120300738Y-82002406D01*
X120300500Y-81997560D01*
X120300500Y-77450000D01*
X126619819Y-77450000D01*
X126638426Y-77567481D01*
X126638428Y-77567488D01*
X126686368Y-77661574D01*
X126692427Y-77673465D01*
X126776535Y-77757573D01*
X126845447Y-77792685D01*
X126888709Y-77835947D01*
X126899500Y-77880893D01*
X126899500Y-80540329D01*
X126903237Y-80546800D01*
X126913129Y-80570680D01*
X126915064Y-80577903D01*
X126915064Y-80577904D01*
X126986006Y-80648847D01*
X126986020Y-80648859D01*
X127870504Y-81533343D01*
X127898281Y-81587860D01*
X127899500Y-81603347D01*
X127899500Y-81607320D01*
X127880593Y-81665511D01*
X127856540Y-81686060D01*
X127857839Y-81687847D01*
X127851537Y-81692425D01*
X127767425Y-81776537D01*
X127713428Y-81882511D01*
X127713426Y-81882518D01*
X127694819Y-81999999D01*
X127694819Y-82000000D01*
X127713426Y-82117481D01*
X127713428Y-82117488D01*
X127767425Y-82223462D01*
X127771190Y-82228644D01*
X127790096Y-82286835D01*
X127771187Y-82345026D01*
X127721686Y-82380988D01*
X127706585Y-82384614D01*
X127682517Y-82388426D01*
X127682511Y-82388428D01*
X127576537Y-82442425D01*
X127492425Y-82526537D01*
X127438428Y-82632511D01*
X127438426Y-82632518D01*
X127419819Y-82749999D01*
X127419819Y-82750000D01*
X127438426Y-82867481D01*
X127438428Y-82867488D01*
X127492425Y-82973462D01*
X127492427Y-82973465D01*
X127576535Y-83057573D01*
X127576537Y-83057574D01*
X127682511Y-83111571D01*
X127682513Y-83111571D01*
X127682518Y-83111574D01*
X127800000Y-83130181D01*
X127832712Y-83125000D01*
X132119819Y-83125000D01*
X132130891Y-83194910D01*
X132138426Y-83242481D01*
X132138428Y-83242488D01*
X132192425Y-83348462D01*
X132192427Y-83348465D01*
X132276535Y-83432573D01*
X132276537Y-83432574D01*
X132382511Y-83486571D01*
X132382513Y-83486571D01*
X132382518Y-83486574D01*
X132500000Y-83505181D01*
X132617482Y-83486574D01*
X132723465Y-83432573D01*
X132807573Y-83348465D01*
X132861574Y-83242482D01*
X132880181Y-83125000D01*
X132861574Y-83007518D01*
X132861571Y-83007513D01*
X132861571Y-83007511D01*
X132807574Y-82901537D01*
X132807573Y-82901535D01*
X132723465Y-82817427D01*
X132723462Y-82817425D01*
X132617488Y-82763428D01*
X132617483Y-82763426D01*
X132617482Y-82763426D01*
X132500000Y-82744819D01*
X132382518Y-82763426D01*
X132382511Y-82763428D01*
X132276537Y-82817425D01*
X132192425Y-82901537D01*
X132138428Y-83007511D01*
X132138426Y-83007518D01*
X132121946Y-83111573D01*
X132119819Y-83125000D01*
X127832712Y-83125000D01*
X127917482Y-83111574D01*
X128023465Y-83057573D01*
X128107573Y-82973465D01*
X128161574Y-82867482D01*
X128180181Y-82750000D01*
X128179360Y-82744819D01*
X128172262Y-82700000D01*
X129569819Y-82700000D01*
X129584467Y-82792488D01*
X129588426Y-82817481D01*
X129588428Y-82817488D01*
X129631253Y-82901535D01*
X129642427Y-82923465D01*
X129726535Y-83007573D01*
X129726537Y-83007574D01*
X129832511Y-83061571D01*
X129832513Y-83061571D01*
X129832518Y-83061574D01*
X129950000Y-83080181D01*
X130067482Y-83061574D01*
X130173465Y-83007573D01*
X130257573Y-82923465D01*
X130311574Y-82817482D01*
X130330181Y-82700000D01*
X130326221Y-82675000D01*
X135469819Y-82675000D01*
X135483973Y-82764369D01*
X135488426Y-82792481D01*
X135488428Y-82792488D01*
X135542425Y-82898462D01*
X135542427Y-82898465D01*
X135626535Y-82982573D01*
X135626537Y-82982574D01*
X135732511Y-83036571D01*
X135732513Y-83036571D01*
X135732518Y-83036574D01*
X135850000Y-83055181D01*
X135967482Y-83036574D01*
X136039263Y-83000000D01*
X139469819Y-83000000D01*
X139475611Y-83036573D01*
X139488426Y-83117481D01*
X139488428Y-83117488D01*
X139542425Y-83223462D01*
X139542427Y-83223465D01*
X139626535Y-83307573D01*
X139626537Y-83307574D01*
X139732511Y-83361571D01*
X139732513Y-83361571D01*
X139732518Y-83361574D01*
X139850000Y-83380181D01*
X139967482Y-83361574D01*
X140073465Y-83307573D01*
X140157573Y-83223465D01*
X140211574Y-83117482D01*
X140230181Y-83000000D01*
X140211574Y-82882518D01*
X140211571Y-82882513D01*
X140211571Y-82882511D01*
X140157574Y-82776537D01*
X140157573Y-82776535D01*
X140073465Y-82692427D01*
X140073462Y-82692425D01*
X139967488Y-82638428D01*
X139967483Y-82638426D01*
X139967482Y-82638426D01*
X139850000Y-82619819D01*
X139732518Y-82638426D01*
X139732511Y-82638428D01*
X139626537Y-82692425D01*
X139542425Y-82776537D01*
X139488428Y-82882511D01*
X139488426Y-82882518D01*
X139469819Y-83000000D01*
X136039263Y-83000000D01*
X136073465Y-82982573D01*
X136157573Y-82898465D01*
X136211574Y-82792482D01*
X136230181Y-82675000D01*
X136211574Y-82557518D01*
X136211571Y-82557513D01*
X136211571Y-82557511D01*
X136157574Y-82451537D01*
X136157573Y-82451535D01*
X136073465Y-82367427D01*
X136073462Y-82367425D01*
X135967488Y-82313428D01*
X135967483Y-82313426D01*
X135967482Y-82313426D01*
X135850000Y-82294819D01*
X135732518Y-82313426D01*
X135732511Y-82313428D01*
X135626537Y-82367425D01*
X135542425Y-82451537D01*
X135488428Y-82557511D01*
X135488426Y-82557518D01*
X135469819Y-82675000D01*
X130326221Y-82675000D01*
X130311574Y-82582518D01*
X130311571Y-82582513D01*
X130311571Y-82582511D01*
X130257574Y-82476537D01*
X130257573Y-82476535D01*
X130173465Y-82392427D01*
X130173462Y-82392425D01*
X130067488Y-82338428D01*
X130067483Y-82338426D01*
X130067482Y-82338426D01*
X129950000Y-82319819D01*
X129832518Y-82338426D01*
X129832511Y-82338428D01*
X129726537Y-82392425D01*
X129642425Y-82476537D01*
X129588428Y-82582511D01*
X129588426Y-82582518D01*
X129573779Y-82675000D01*
X129569819Y-82700000D01*
X128172262Y-82700000D01*
X128161574Y-82632518D01*
X128161571Y-82632513D01*
X128161571Y-82632511D01*
X128107574Y-82526537D01*
X128103810Y-82521356D01*
X128084903Y-82463165D01*
X128103811Y-82404975D01*
X128153311Y-82369011D01*
X128168411Y-82365386D01*
X128192482Y-82361574D01*
X128298465Y-82307573D01*
X128382573Y-82223465D01*
X128436574Y-82117482D01*
X128455181Y-82000000D01*
X142819819Y-82000000D01*
X142838426Y-82117481D01*
X142838428Y-82117488D01*
X142892425Y-82223462D01*
X142892427Y-82223465D01*
X142976535Y-82307573D01*
X142976537Y-82307574D01*
X143082511Y-82361571D01*
X143082513Y-82361571D01*
X143082518Y-82361574D01*
X143200000Y-82380181D01*
X143317482Y-82361574D01*
X143423465Y-82307573D01*
X143507573Y-82223465D01*
X143561574Y-82117482D01*
X143580181Y-82000000D01*
X143561574Y-81882518D01*
X143561571Y-81882513D01*
X143561571Y-81882511D01*
X143507574Y-81776537D01*
X143507573Y-81776535D01*
X143423465Y-81692427D01*
X143423462Y-81692425D01*
X143317488Y-81638428D01*
X143317483Y-81638426D01*
X143317482Y-81638426D01*
X143200000Y-81619819D01*
X143082518Y-81638426D01*
X143082511Y-81638428D01*
X142976537Y-81692425D01*
X142892425Y-81776537D01*
X142838428Y-81882511D01*
X142838426Y-81882518D01*
X142819819Y-81999999D01*
X142819819Y-82000000D01*
X128455181Y-82000000D01*
X128436574Y-81882518D01*
X128436571Y-81882513D01*
X128436571Y-81882511D01*
X128382574Y-81776537D01*
X128382573Y-81776535D01*
X128298465Y-81692427D01*
X128254554Y-81670053D01*
X128211290Y-81626788D01*
X128200500Y-81581844D01*
X128200500Y-81459675D01*
X128200500Y-81459673D01*
X128196762Y-81453199D01*
X128186869Y-81429314D01*
X128184935Y-81422096D01*
X128122262Y-81359422D01*
X127229496Y-80466657D01*
X127201719Y-80412140D01*
X127200500Y-80396653D01*
X127200500Y-79000000D01*
X129119819Y-79000000D01*
X129138426Y-79117481D01*
X129138428Y-79117488D01*
X129192425Y-79223462D01*
X129192427Y-79223465D01*
X129276535Y-79307573D01*
X129276537Y-79307574D01*
X129382511Y-79361571D01*
X129382513Y-79361571D01*
X129382518Y-79361574D01*
X129500000Y-79380181D01*
X129617482Y-79361574D01*
X129723465Y-79307573D01*
X129807573Y-79223465D01*
X129861574Y-79117482D01*
X129880181Y-79000000D01*
X142819819Y-79000000D01*
X142838426Y-79117481D01*
X142838428Y-79117488D01*
X142892425Y-79223462D01*
X142892427Y-79223465D01*
X142976535Y-79307573D01*
X142976537Y-79307574D01*
X143082511Y-79361571D01*
X143082513Y-79361571D01*
X143082518Y-79361574D01*
X143200000Y-79380181D01*
X143317482Y-79361574D01*
X143423465Y-79307573D01*
X143507573Y-79223465D01*
X143561574Y-79117482D01*
X143580181Y-79000000D01*
X143561574Y-78882518D01*
X143561571Y-78882513D01*
X143561571Y-78882511D01*
X143507574Y-78776537D01*
X143507573Y-78776535D01*
X143483427Y-78752389D01*
X143455652Y-78697875D01*
X143465223Y-78637443D01*
X143508488Y-78594178D01*
X143568920Y-78584607D01*
X143598377Y-78594178D01*
X143632518Y-78611574D01*
X143750000Y-78630181D01*
X143867482Y-78611574D01*
X143973465Y-78557573D01*
X144057573Y-78473465D01*
X144111574Y-78367482D01*
X144130181Y-78250000D01*
X144111574Y-78132518D01*
X144111571Y-78132513D01*
X144111571Y-78132511D01*
X144057574Y-78026537D01*
X144057573Y-78026535D01*
X143973465Y-77942427D01*
X143973462Y-77942425D01*
X143867488Y-77888428D01*
X143867483Y-77888426D01*
X143867482Y-77888426D01*
X143750000Y-77869819D01*
X143632518Y-77888426D01*
X143632511Y-77888428D01*
X143526537Y-77942425D01*
X143442425Y-78026537D01*
X143388428Y-78132511D01*
X143388426Y-78132518D01*
X143369819Y-78249999D01*
X143369819Y-78250000D01*
X143388426Y-78367481D01*
X143388428Y-78367488D01*
X143436368Y-78461574D01*
X143442427Y-78473465D01*
X143466571Y-78497609D01*
X143494347Y-78552124D01*
X143484776Y-78612556D01*
X143441511Y-78655821D01*
X143381079Y-78665392D01*
X143351621Y-78655820D01*
X143317488Y-78638428D01*
X143317483Y-78638426D01*
X143317482Y-78638426D01*
X143200000Y-78619819D01*
X143082518Y-78638426D01*
X143082511Y-78638428D01*
X142976537Y-78692425D01*
X142892425Y-78776537D01*
X142838428Y-78882511D01*
X142838426Y-78882518D01*
X142819819Y-78999999D01*
X142819819Y-79000000D01*
X129880181Y-79000000D01*
X129861574Y-78882518D01*
X129861571Y-78882513D01*
X129861571Y-78882511D01*
X129807574Y-78776537D01*
X129807573Y-78776535D01*
X129723465Y-78692427D01*
X129723462Y-78692425D01*
X129617488Y-78638428D01*
X129617483Y-78638426D01*
X129617482Y-78638426D01*
X129500000Y-78619819D01*
X129382518Y-78638426D01*
X129382511Y-78638428D01*
X129276537Y-78692425D01*
X129192425Y-78776537D01*
X129138428Y-78882511D01*
X129138426Y-78882518D01*
X129119819Y-78999999D01*
X129119819Y-79000000D01*
X127200500Y-79000000D01*
X127200500Y-78100000D01*
X135869819Y-78100000D01*
X135888426Y-78217481D01*
X135888428Y-78217488D01*
X135942425Y-78323462D01*
X135942427Y-78323465D01*
X136026535Y-78407573D01*
X136026537Y-78407574D01*
X136132511Y-78461571D01*
X136132513Y-78461571D01*
X136132518Y-78461574D01*
X136250000Y-78480181D01*
X136367482Y-78461574D01*
X136473465Y-78407573D01*
X136557573Y-78323465D01*
X136569529Y-78300000D01*
X140319819Y-78300000D01*
X140338426Y-78417481D01*
X140338428Y-78417488D01*
X140392425Y-78523462D01*
X140392427Y-78523465D01*
X140476535Y-78607573D01*
X140476537Y-78607574D01*
X140582511Y-78661571D01*
X140582513Y-78661571D01*
X140582518Y-78661574D01*
X140700000Y-78680181D01*
X140817482Y-78661574D01*
X140923465Y-78607573D01*
X141007573Y-78523465D01*
X141061574Y-78417482D01*
X141080181Y-78300000D01*
X141061574Y-78182518D01*
X141061571Y-78182513D01*
X141061571Y-78182511D01*
X141007574Y-78076537D01*
X141007573Y-78076535D01*
X140923465Y-77992427D01*
X140923462Y-77992425D01*
X140817488Y-77938428D01*
X140817483Y-77938426D01*
X140817482Y-77938426D01*
X140700000Y-77919819D01*
X140582518Y-77938426D01*
X140582511Y-77938428D01*
X140476537Y-77992425D01*
X140392425Y-78076537D01*
X140338428Y-78182511D01*
X140338426Y-78182518D01*
X140319819Y-78299999D01*
X140319819Y-78300000D01*
X136569529Y-78300000D01*
X136611574Y-78217482D01*
X136630181Y-78100000D01*
X136611574Y-77982518D01*
X136611571Y-77982513D01*
X136611571Y-77982511D01*
X136557574Y-77876537D01*
X136557573Y-77876535D01*
X136501039Y-77820001D01*
X136473264Y-77765487D01*
X136482835Y-77705055D01*
X136501038Y-77679999D01*
X136557573Y-77623465D01*
X136611574Y-77517482D01*
X136630181Y-77400000D01*
X136614343Y-77300000D01*
X138819819Y-77300000D01*
X138838426Y-77417481D01*
X138838428Y-77417488D01*
X138892425Y-77523462D01*
X138892427Y-77523465D01*
X138976535Y-77607573D01*
X138976537Y-77607574D01*
X139082511Y-77661571D01*
X139082513Y-77661571D01*
X139082518Y-77661574D01*
X139200000Y-77680181D01*
X139317482Y-77661574D01*
X139423465Y-77607573D01*
X139507573Y-77523465D01*
X139561574Y-77417482D01*
X139580181Y-77300000D01*
X139561574Y-77182518D01*
X139561571Y-77182513D01*
X139561571Y-77182511D01*
X139507574Y-77076537D01*
X139507573Y-77076535D01*
X139451039Y-77020001D01*
X139423264Y-76965487D01*
X139432835Y-76905055D01*
X139451038Y-76879999D01*
X139507573Y-76823465D01*
X139545005Y-76750000D01*
X143369819Y-76750000D01*
X143388426Y-76867481D01*
X143388428Y-76867488D01*
X143442425Y-76973462D01*
X143442427Y-76973465D01*
X143526535Y-77057573D01*
X143526537Y-77057574D01*
X143632511Y-77111571D01*
X143632513Y-77111571D01*
X143632518Y-77111574D01*
X143750000Y-77130181D01*
X143867482Y-77111574D01*
X143973465Y-77057573D01*
X144057573Y-76973465D01*
X144111574Y-76867482D01*
X144130181Y-76750000D01*
X144111574Y-76632518D01*
X144111571Y-76632513D01*
X144111571Y-76632511D01*
X144057574Y-76526537D01*
X144057573Y-76526535D01*
X143973465Y-76442427D01*
X143973462Y-76442425D01*
X143867488Y-76388428D01*
X143867483Y-76388426D01*
X143867482Y-76388426D01*
X143750000Y-76369819D01*
X143632518Y-76388426D01*
X143632511Y-76388428D01*
X143526537Y-76442425D01*
X143442425Y-76526537D01*
X143388428Y-76632511D01*
X143388426Y-76632518D01*
X143369819Y-76749999D01*
X143369819Y-76750000D01*
X139545005Y-76750000D01*
X139561574Y-76717482D01*
X139580181Y-76600000D01*
X139561574Y-76482518D01*
X139561571Y-76482513D01*
X139561571Y-76482511D01*
X139507574Y-76376537D01*
X139507573Y-76376535D01*
X139423465Y-76292427D01*
X139423462Y-76292425D01*
X139317488Y-76238428D01*
X139317483Y-76238426D01*
X139317482Y-76238426D01*
X139200000Y-76219819D01*
X139082518Y-76238426D01*
X139082511Y-76238428D01*
X138976537Y-76292425D01*
X138892425Y-76376537D01*
X138838428Y-76482511D01*
X138838426Y-76482518D01*
X138819819Y-76599999D01*
X138819819Y-76600000D01*
X138838426Y-76717481D01*
X138838428Y-76717488D01*
X138892425Y-76823462D01*
X138892427Y-76823465D01*
X138948960Y-76879998D01*
X138976736Y-76934513D01*
X138967165Y-76994945D01*
X138948961Y-77020000D01*
X138911389Y-77057573D01*
X138892425Y-77076537D01*
X138838428Y-77182511D01*
X138838426Y-77182518D01*
X138819819Y-77299999D01*
X138819819Y-77300000D01*
X136614343Y-77300000D01*
X136611574Y-77282518D01*
X136611571Y-77282513D01*
X136611571Y-77282511D01*
X136557574Y-77176537D01*
X136557573Y-77176535D01*
X136473465Y-77092427D01*
X136473462Y-77092425D01*
X136367488Y-77038428D01*
X136367483Y-77038426D01*
X136367482Y-77038426D01*
X136250000Y-77019819D01*
X136132518Y-77038426D01*
X136132511Y-77038428D01*
X136026537Y-77092425D01*
X135942425Y-77176537D01*
X135888428Y-77282511D01*
X135888426Y-77282518D01*
X135869819Y-77399999D01*
X135869819Y-77400000D01*
X135888426Y-77517481D01*
X135888428Y-77517488D01*
X135934330Y-77607574D01*
X135942427Y-77623465D01*
X135998960Y-77679998D01*
X136026736Y-77734513D01*
X136017165Y-77794945D01*
X135998961Y-77820000D01*
X135949143Y-77869819D01*
X135942425Y-77876537D01*
X135888428Y-77982511D01*
X135888426Y-77982518D01*
X135869819Y-78099999D01*
X135869819Y-78100000D01*
X127200500Y-78100000D01*
X127200500Y-77821545D01*
X127219407Y-77763354D01*
X127229490Y-77751547D01*
X127307573Y-77673465D01*
X127361574Y-77567482D01*
X127380181Y-77450000D01*
X127361574Y-77332518D01*
X127361571Y-77332513D01*
X127361571Y-77332511D01*
X127307574Y-77226537D01*
X127307573Y-77226535D01*
X127223465Y-77142427D01*
X127223462Y-77142425D01*
X127117488Y-77088428D01*
X127117483Y-77088426D01*
X127117482Y-77088426D01*
X127000000Y-77069819D01*
X126882518Y-77088426D01*
X126882511Y-77088428D01*
X126776537Y-77142425D01*
X126692425Y-77226537D01*
X126638428Y-77332511D01*
X126638426Y-77332518D01*
X126619819Y-77449999D01*
X126619819Y-77450000D01*
X120300500Y-77450000D01*
X120300500Y-75150000D01*
X126569819Y-75150000D01*
X126588426Y-75267481D01*
X126588428Y-75267488D01*
X126639877Y-75368461D01*
X126642427Y-75373465D01*
X126726535Y-75457573D01*
X126726537Y-75457574D01*
X126832511Y-75511571D01*
X126832513Y-75511571D01*
X126832518Y-75511574D01*
X126950000Y-75530181D01*
X127067482Y-75511574D01*
X127173465Y-75457573D01*
X127257573Y-75373465D01*
X127257576Y-75373460D01*
X127262155Y-75367159D01*
X127264885Y-75369142D01*
X127297725Y-75336295D01*
X127342680Y-75325500D01*
X129257320Y-75325500D01*
X129315511Y-75344407D01*
X129336052Y-75368461D01*
X129337845Y-75367159D01*
X129342423Y-75373460D01*
X129342425Y-75373462D01*
X129342427Y-75373465D01*
X129426535Y-75457573D01*
X129426537Y-75457574D01*
X129532511Y-75511571D01*
X129532513Y-75511571D01*
X129532518Y-75511574D01*
X129650000Y-75530181D01*
X129767482Y-75511574D01*
X129873465Y-75457573D01*
X129957573Y-75373465D01*
X130011574Y-75267482D01*
X130030181Y-75150000D01*
X130011574Y-75032518D01*
X130011571Y-75032513D01*
X130011571Y-75032511D01*
X129957574Y-74926537D01*
X129957573Y-74926535D01*
X129873465Y-74842427D01*
X129873462Y-74842425D01*
X129790199Y-74800000D01*
X135019819Y-74800000D01*
X135038426Y-74917481D01*
X135038428Y-74917488D01*
X135092425Y-75023462D01*
X135092427Y-75023465D01*
X135176535Y-75107573D01*
X135176537Y-75107574D01*
X135282511Y-75161571D01*
X135282513Y-75161571D01*
X135282518Y-75161574D01*
X135400000Y-75180181D01*
X135517482Y-75161574D01*
X135623465Y-75107573D01*
X135707573Y-75023465D01*
X135761574Y-74917482D01*
X135780181Y-74800000D01*
X135761574Y-74682518D01*
X135761571Y-74682513D01*
X135761571Y-74682511D01*
X135707574Y-74576537D01*
X135707573Y-74576535D01*
X135623465Y-74492427D01*
X135623462Y-74492425D01*
X135517488Y-74438428D01*
X135517483Y-74438426D01*
X135517482Y-74438426D01*
X135400000Y-74419819D01*
X135282518Y-74438426D01*
X135282511Y-74438428D01*
X135176537Y-74492425D01*
X135092425Y-74576537D01*
X135038428Y-74682511D01*
X135038426Y-74682518D01*
X135019819Y-74799999D01*
X135019819Y-74800000D01*
X129790199Y-74800000D01*
X129767488Y-74788428D01*
X129767483Y-74788426D01*
X129767482Y-74788426D01*
X129650000Y-74769819D01*
X129532518Y-74788426D01*
X129532511Y-74788428D01*
X129426537Y-74842425D01*
X129342423Y-74926539D01*
X129337845Y-74932841D01*
X129335114Y-74930857D01*
X129302275Y-74963705D01*
X129257320Y-74974500D01*
X127342680Y-74974500D01*
X127284489Y-74955593D01*
X127263947Y-74931538D01*
X127262155Y-74932841D01*
X127257576Y-74926539D01*
X127257574Y-74926537D01*
X127257573Y-74926535D01*
X127173465Y-74842427D01*
X127173462Y-74842425D01*
X127067488Y-74788428D01*
X127067483Y-74788426D01*
X127067482Y-74788426D01*
X126950000Y-74769819D01*
X126832518Y-74788426D01*
X126832511Y-74788428D01*
X126726537Y-74842425D01*
X126642425Y-74926537D01*
X126588428Y-75032511D01*
X126588426Y-75032518D01*
X126569819Y-75149999D01*
X126569819Y-75150000D01*
X120300500Y-75150000D01*
X120300500Y-73900000D01*
X127694508Y-73900000D01*
X127712344Y-74012616D01*
X127714354Y-74025303D01*
X127714355Y-74025307D01*
X127760536Y-74115941D01*
X127771950Y-74138342D01*
X127861658Y-74228050D01*
X127974696Y-74285646D01*
X128100000Y-74305492D01*
X128225304Y-74285646D01*
X128338342Y-74228050D01*
X128338348Y-74228043D01*
X128341810Y-74225530D01*
X128400000Y-74206623D01*
X128458190Y-74225530D01*
X128461654Y-74228046D01*
X128461658Y-74228050D01*
X128574696Y-74285646D01*
X128700000Y-74305492D01*
X128825304Y-74285646D01*
X128938342Y-74228050D01*
X128938348Y-74228043D01*
X128941810Y-74225530D01*
X129000000Y-74206623D01*
X129058190Y-74225530D01*
X129061654Y-74228046D01*
X129061658Y-74228050D01*
X129174696Y-74285646D01*
X129300000Y-74305492D01*
X129425304Y-74285646D01*
X129538342Y-74228050D01*
X129538348Y-74228043D01*
X129541810Y-74225530D01*
X129600000Y-74206623D01*
X129658190Y-74225530D01*
X129661654Y-74228046D01*
X129661658Y-74228050D01*
X129774696Y-74285646D01*
X129900000Y-74305492D01*
X130025304Y-74285646D01*
X130138342Y-74228050D01*
X130228050Y-74138342D01*
X130285646Y-74025304D01*
X130305492Y-73900000D01*
X131694508Y-73900000D01*
X131712344Y-74012616D01*
X131714354Y-74025303D01*
X131714355Y-74025307D01*
X131760536Y-74115941D01*
X131771950Y-74138342D01*
X131861658Y-74228050D01*
X131974696Y-74285646D01*
X132100000Y-74305492D01*
X132225304Y-74285646D01*
X132338342Y-74228050D01*
X132338348Y-74228043D01*
X132341810Y-74225530D01*
X132400000Y-74206623D01*
X132458190Y-74225530D01*
X132461654Y-74228046D01*
X132461658Y-74228050D01*
X132574696Y-74285646D01*
X132700000Y-74305492D01*
X132825304Y-74285646D01*
X132938342Y-74228050D01*
X132938348Y-74228043D01*
X132941810Y-74225530D01*
X133000000Y-74206623D01*
X133058190Y-74225530D01*
X133061654Y-74228046D01*
X133061658Y-74228050D01*
X133174696Y-74285646D01*
X133300000Y-74305492D01*
X133425304Y-74285646D01*
X133538342Y-74228050D01*
X133538348Y-74228043D01*
X133541810Y-74225530D01*
X133600000Y-74206623D01*
X133658190Y-74225530D01*
X133661654Y-74228046D01*
X133661658Y-74228050D01*
X133774696Y-74285646D01*
X133900000Y-74305492D01*
X134025304Y-74285646D01*
X134138342Y-74228050D01*
X134222675Y-74143716D01*
X134277190Y-74115941D01*
X134337622Y-74125512D01*
X134362677Y-74143715D01*
X134426535Y-74207573D01*
X134426537Y-74207574D01*
X134532511Y-74261571D01*
X134532513Y-74261571D01*
X134532518Y-74261574D01*
X134650000Y-74280181D01*
X134767482Y-74261574D01*
X134873465Y-74207573D01*
X134957573Y-74123465D01*
X135007587Y-74025307D01*
X135011571Y-74017488D01*
X135011571Y-74017487D01*
X135011574Y-74017482D01*
X135030181Y-73900000D01*
X135694508Y-73900000D01*
X135712344Y-74012616D01*
X135714354Y-74025303D01*
X135714355Y-74025307D01*
X135760536Y-74115941D01*
X135771950Y-74138342D01*
X135861658Y-74228050D01*
X135974696Y-74285646D01*
X136100000Y-74305492D01*
X136225304Y-74285646D01*
X136338342Y-74228050D01*
X136338348Y-74228043D01*
X136341810Y-74225530D01*
X136400000Y-74206623D01*
X136458190Y-74225530D01*
X136461654Y-74228046D01*
X136461658Y-74228050D01*
X136574696Y-74285646D01*
X136700000Y-74305492D01*
X136825304Y-74285646D01*
X136938342Y-74228050D01*
X136938348Y-74228043D01*
X136941810Y-74225530D01*
X137000000Y-74206623D01*
X137058190Y-74225530D01*
X137061654Y-74228046D01*
X137061658Y-74228050D01*
X137174696Y-74285646D01*
X137300000Y-74305492D01*
X137425304Y-74285646D01*
X137538342Y-74228050D01*
X137538348Y-74228043D01*
X137541810Y-74225530D01*
X137600000Y-74206623D01*
X137658190Y-74225530D01*
X137661654Y-74228046D01*
X137661658Y-74228050D01*
X137774696Y-74285646D01*
X137900000Y-74305492D01*
X138025304Y-74285646D01*
X138138342Y-74228050D01*
X138228050Y-74138342D01*
X138285646Y-74025304D01*
X138305492Y-73900000D01*
X139694508Y-73900000D01*
X139712344Y-74012616D01*
X139714354Y-74025303D01*
X139714355Y-74025307D01*
X139760536Y-74115941D01*
X139771950Y-74138342D01*
X139861658Y-74228050D01*
X139974696Y-74285646D01*
X140100000Y-74305492D01*
X140225304Y-74285646D01*
X140338342Y-74228050D01*
X140338348Y-74228043D01*
X140341810Y-74225530D01*
X140400000Y-74206623D01*
X140458190Y-74225530D01*
X140461654Y-74228046D01*
X140461658Y-74228050D01*
X140574696Y-74285646D01*
X140700000Y-74305492D01*
X140825304Y-74285646D01*
X140938342Y-74228050D01*
X140938348Y-74228043D01*
X140941810Y-74225530D01*
X141000000Y-74206623D01*
X141058190Y-74225530D01*
X141061654Y-74228046D01*
X141061658Y-74228050D01*
X141174696Y-74285646D01*
X141300000Y-74305492D01*
X141425304Y-74285646D01*
X141538342Y-74228050D01*
X141538348Y-74228043D01*
X141541810Y-74225530D01*
X141600000Y-74206623D01*
X141658190Y-74225530D01*
X141661654Y-74228046D01*
X141661658Y-74228050D01*
X141774696Y-74285646D01*
X141900000Y-74305492D01*
X142025304Y-74285646D01*
X142138342Y-74228050D01*
X142228050Y-74138342D01*
X142285646Y-74025304D01*
X142305492Y-73900000D01*
X142285646Y-73774696D01*
X142228050Y-73661658D01*
X142228046Y-73661654D01*
X142225530Y-73658190D01*
X142206623Y-73600000D01*
X142225530Y-73541810D01*
X142228043Y-73538348D01*
X142228050Y-73538342D01*
X142285646Y-73425304D01*
X142305492Y-73300000D01*
X142285646Y-73174696D01*
X142228050Y-73061658D01*
X142228046Y-73061654D01*
X142225530Y-73058190D01*
X142206623Y-73000000D01*
X142225530Y-72941810D01*
X142228043Y-72938348D01*
X142228050Y-72938342D01*
X142285646Y-72825304D01*
X142305492Y-72700000D01*
X142285646Y-72574696D01*
X142228050Y-72461658D01*
X142138342Y-72371950D01*
X142134406Y-72369944D01*
X142025307Y-72314355D01*
X142025304Y-72314354D01*
X141900000Y-72294508D01*
X141774696Y-72314354D01*
X141774692Y-72314355D01*
X141661656Y-72371950D01*
X141658185Y-72374473D01*
X141599993Y-72393376D01*
X141541815Y-72374473D01*
X141538343Y-72371950D01*
X141425307Y-72314355D01*
X141425304Y-72314354D01*
X141300000Y-72294508D01*
X141174696Y-72314354D01*
X141174692Y-72314355D01*
X141061656Y-72371950D01*
X141058185Y-72374473D01*
X140999993Y-72393376D01*
X140941815Y-72374473D01*
X140938343Y-72371950D01*
X140825307Y-72314355D01*
X140825304Y-72314354D01*
X140700000Y-72294508D01*
X140574696Y-72314354D01*
X140574692Y-72314355D01*
X140461656Y-72371950D01*
X140458185Y-72374473D01*
X140399993Y-72393376D01*
X140341815Y-72374473D01*
X140338343Y-72371950D01*
X140225307Y-72314355D01*
X140225304Y-72314354D01*
X140100000Y-72294508D01*
X139974696Y-72314354D01*
X139974692Y-72314355D01*
X139861659Y-72371949D01*
X139771949Y-72461659D01*
X139714355Y-72574692D01*
X139714354Y-72574696D01*
X139694508Y-72699999D01*
X139694508Y-72700000D01*
X139714354Y-72825303D01*
X139714355Y-72825307D01*
X139771950Y-72938343D01*
X139774473Y-72941815D01*
X139793376Y-73000007D01*
X139774473Y-73058185D01*
X139771950Y-73061656D01*
X139714355Y-73174692D01*
X139714354Y-73174696D01*
X139694508Y-73299999D01*
X139694508Y-73300000D01*
X139714354Y-73425303D01*
X139714355Y-73425307D01*
X139771950Y-73538343D01*
X139774473Y-73541815D01*
X139793376Y-73600007D01*
X139774473Y-73658185D01*
X139771950Y-73661656D01*
X139714355Y-73774692D01*
X139714354Y-73774696D01*
X139694508Y-73900000D01*
X138305492Y-73900000D01*
X138285646Y-73774696D01*
X138228050Y-73661658D01*
X138228046Y-73661654D01*
X138225530Y-73658190D01*
X138206623Y-73600000D01*
X138225530Y-73541810D01*
X138228043Y-73538348D01*
X138228050Y-73538342D01*
X138285646Y-73425304D01*
X138305492Y-73300000D01*
X138285646Y-73174696D01*
X138228050Y-73061658D01*
X138228046Y-73061654D01*
X138225530Y-73058190D01*
X138206623Y-73000000D01*
X138225530Y-72941810D01*
X138228043Y-72938348D01*
X138228050Y-72938342D01*
X138285646Y-72825304D01*
X138305492Y-72700000D01*
X138285646Y-72574696D01*
X138228050Y-72461658D01*
X138138342Y-72371950D01*
X138134406Y-72369944D01*
X138025307Y-72314355D01*
X138025304Y-72314354D01*
X137900000Y-72294508D01*
X137774696Y-72314354D01*
X137774692Y-72314355D01*
X137661656Y-72371950D01*
X137658185Y-72374473D01*
X137599993Y-72393376D01*
X137541815Y-72374473D01*
X137538343Y-72371950D01*
X137425307Y-72314355D01*
X137425304Y-72314354D01*
X137300000Y-72294508D01*
X137174696Y-72314354D01*
X137174692Y-72314355D01*
X137061656Y-72371950D01*
X137058185Y-72374473D01*
X136999993Y-72393376D01*
X136941815Y-72374473D01*
X136938343Y-72371950D01*
X136825307Y-72314355D01*
X136825304Y-72314354D01*
X136700000Y-72294508D01*
X136574696Y-72314354D01*
X136574692Y-72314355D01*
X136461656Y-72371950D01*
X136458185Y-72374473D01*
X136399993Y-72393376D01*
X136341815Y-72374473D01*
X136338343Y-72371950D01*
X136225307Y-72314355D01*
X136225304Y-72314354D01*
X136100000Y-72294508D01*
X135974696Y-72314354D01*
X135974692Y-72314355D01*
X135861659Y-72371949D01*
X135771949Y-72461659D01*
X135714355Y-72574692D01*
X135714354Y-72574696D01*
X135694508Y-72699999D01*
X135694508Y-72700000D01*
X135714354Y-72825303D01*
X135714355Y-72825307D01*
X135771950Y-72938343D01*
X135774473Y-72941815D01*
X135793376Y-73000007D01*
X135774473Y-73058185D01*
X135771950Y-73061656D01*
X135714355Y-73174692D01*
X135714354Y-73174696D01*
X135694508Y-73299999D01*
X135694508Y-73300000D01*
X135714354Y-73425303D01*
X135714355Y-73425307D01*
X135771950Y-73538343D01*
X135774473Y-73541815D01*
X135793376Y-73600007D01*
X135774473Y-73658185D01*
X135771950Y-73661656D01*
X135714355Y-73774692D01*
X135714354Y-73774696D01*
X135694508Y-73900000D01*
X135030181Y-73900000D01*
X135011574Y-73782518D01*
X135011571Y-73782513D01*
X135011571Y-73782511D01*
X134957574Y-73676537D01*
X134957573Y-73676535D01*
X134873465Y-73592427D01*
X134873462Y-73592425D01*
X134767488Y-73538428D01*
X134767483Y-73538426D01*
X134767482Y-73538426D01*
X134650000Y-73519819D01*
X134532518Y-73538426D01*
X134532511Y-73538428D01*
X134426537Y-73592425D01*
X134426532Y-73592429D01*
X134407652Y-73611309D01*
X134353135Y-73639085D01*
X134292703Y-73629513D01*
X134249439Y-73586247D01*
X134239869Y-73525815D01*
X134249439Y-73496363D01*
X134285646Y-73425304D01*
X134305492Y-73300000D01*
X134285646Y-73174696D01*
X134228050Y-73061658D01*
X134228046Y-73061654D01*
X134225530Y-73058190D01*
X134206623Y-73000000D01*
X134225530Y-72941810D01*
X134228043Y-72938348D01*
X134228050Y-72938342D01*
X134285646Y-72825304D01*
X134305492Y-72700000D01*
X134285646Y-72574696D01*
X134228050Y-72461658D01*
X134138342Y-72371950D01*
X134134406Y-72369944D01*
X134025307Y-72314355D01*
X134025304Y-72314354D01*
X133900000Y-72294508D01*
X133774696Y-72314354D01*
X133774692Y-72314355D01*
X133661656Y-72371950D01*
X133658185Y-72374473D01*
X133599993Y-72393376D01*
X133541815Y-72374473D01*
X133538343Y-72371950D01*
X133425307Y-72314355D01*
X133425304Y-72314354D01*
X133300000Y-72294508D01*
X133174696Y-72314354D01*
X133174692Y-72314355D01*
X133061656Y-72371950D01*
X133058185Y-72374473D01*
X132999993Y-72393376D01*
X132941815Y-72374473D01*
X132938343Y-72371950D01*
X132825307Y-72314355D01*
X132825304Y-72314354D01*
X132700000Y-72294508D01*
X132574696Y-72314354D01*
X132574692Y-72314355D01*
X132461656Y-72371950D01*
X132458185Y-72374473D01*
X132399993Y-72393376D01*
X132341815Y-72374473D01*
X132338343Y-72371950D01*
X132225307Y-72314355D01*
X132225304Y-72314354D01*
X132100000Y-72294508D01*
X131974696Y-72314354D01*
X131974692Y-72314355D01*
X131861659Y-72371949D01*
X131771949Y-72461659D01*
X131714355Y-72574692D01*
X131714354Y-72574696D01*
X131694508Y-72699999D01*
X131694508Y-72700000D01*
X131714354Y-72825303D01*
X131714355Y-72825307D01*
X131771950Y-72938343D01*
X131774473Y-72941815D01*
X131793376Y-73000007D01*
X131774473Y-73058185D01*
X131771950Y-73061656D01*
X131714355Y-73174692D01*
X131714354Y-73174696D01*
X131694508Y-73299999D01*
X131694508Y-73300000D01*
X131714354Y-73425303D01*
X131714355Y-73425307D01*
X131771950Y-73538343D01*
X131774473Y-73541815D01*
X131793376Y-73600007D01*
X131774473Y-73658185D01*
X131771950Y-73661656D01*
X131714355Y-73774692D01*
X131714354Y-73774696D01*
X131694508Y-73900000D01*
X130305492Y-73900000D01*
X130285646Y-73774696D01*
X130228050Y-73661658D01*
X130228046Y-73661654D01*
X130225530Y-73658190D01*
X130206623Y-73600000D01*
X130225530Y-73541810D01*
X130228043Y-73538348D01*
X130228050Y-73538342D01*
X130285646Y-73425304D01*
X130305492Y-73300000D01*
X130285646Y-73174696D01*
X130228050Y-73061658D01*
X130228046Y-73061654D01*
X130225530Y-73058190D01*
X130206623Y-73000000D01*
X130225530Y-72941810D01*
X130228043Y-72938348D01*
X130228050Y-72938342D01*
X130285646Y-72825304D01*
X130305492Y-72700000D01*
X130285646Y-72574696D01*
X130228050Y-72461658D01*
X130138342Y-72371950D01*
X130134406Y-72369944D01*
X130025307Y-72314355D01*
X130025304Y-72314354D01*
X129900000Y-72294508D01*
X129774696Y-72314354D01*
X129774692Y-72314355D01*
X129661656Y-72371950D01*
X129658185Y-72374473D01*
X129599993Y-72393376D01*
X129541815Y-72374473D01*
X129538343Y-72371950D01*
X129425307Y-72314355D01*
X129425304Y-72314354D01*
X129300000Y-72294508D01*
X129174696Y-72314354D01*
X129174692Y-72314355D01*
X129061656Y-72371950D01*
X129058185Y-72374473D01*
X128999993Y-72393376D01*
X128941815Y-72374473D01*
X128938343Y-72371950D01*
X128825307Y-72314355D01*
X128825304Y-72314354D01*
X128700000Y-72294508D01*
X128574696Y-72314354D01*
X128574692Y-72314355D01*
X128461656Y-72371950D01*
X128458185Y-72374473D01*
X128399993Y-72393376D01*
X128341815Y-72374473D01*
X128338343Y-72371950D01*
X128225307Y-72314355D01*
X128225304Y-72314354D01*
X128100000Y-72294508D01*
X127974696Y-72314354D01*
X127974692Y-72314355D01*
X127861659Y-72371949D01*
X127771949Y-72461659D01*
X127714355Y-72574692D01*
X127714354Y-72574696D01*
X127694508Y-72699999D01*
X127694508Y-72700000D01*
X127714354Y-72825303D01*
X127714355Y-72825307D01*
X127771950Y-72938343D01*
X127774473Y-72941815D01*
X127793376Y-73000007D01*
X127774473Y-73058185D01*
X127771950Y-73061656D01*
X127714355Y-73174692D01*
X127714354Y-73174696D01*
X127694508Y-73299999D01*
X127694508Y-73300000D01*
X127714354Y-73425303D01*
X127714355Y-73425307D01*
X127771950Y-73538343D01*
X127774473Y-73541815D01*
X127793376Y-73600007D01*
X127774473Y-73658185D01*
X127771950Y-73661656D01*
X127714355Y-73774692D01*
X127714354Y-73774696D01*
X127694508Y-73900000D01*
X120300500Y-73900000D01*
X120300500Y-70400000D01*
X142794508Y-70400000D01*
X142814354Y-70525303D01*
X142814355Y-70525307D01*
X142869944Y-70634406D01*
X142871950Y-70638342D01*
X142961658Y-70728050D01*
X143074696Y-70785646D01*
X143200000Y-70805492D01*
X143325304Y-70785646D01*
X143438342Y-70728050D01*
X143528050Y-70638342D01*
X143585646Y-70525304D01*
X143605492Y-70400000D01*
X143585646Y-70274696D01*
X143528050Y-70161658D01*
X143528046Y-70161654D01*
X143525530Y-70158190D01*
X143506623Y-70100000D01*
X143525530Y-70041810D01*
X143528043Y-70038348D01*
X143528050Y-70038342D01*
X143585646Y-69925304D01*
X143605492Y-69800000D01*
X143585646Y-69674696D01*
X143528050Y-69561658D01*
X143528046Y-69561654D01*
X143525530Y-69558190D01*
X143506623Y-69500000D01*
X143525530Y-69441810D01*
X143528043Y-69438348D01*
X143528050Y-69438342D01*
X143585646Y-69325304D01*
X143605492Y-69200000D01*
X143585646Y-69074696D01*
X143528050Y-68961658D01*
X143528046Y-68961654D01*
X143525530Y-68958190D01*
X143506623Y-68900000D01*
X143525530Y-68841810D01*
X143528043Y-68838348D01*
X143528050Y-68838342D01*
X143585646Y-68725304D01*
X143605492Y-68600000D01*
X143585646Y-68474696D01*
X143528050Y-68361658D01*
X143438342Y-68271950D01*
X143386029Y-68245295D01*
X143325307Y-68214355D01*
X143325304Y-68214354D01*
X143200000Y-68194508D01*
X143074696Y-68214354D01*
X143074692Y-68214355D01*
X142961659Y-68271949D01*
X142871949Y-68361659D01*
X142814355Y-68474692D01*
X142814354Y-68474696D01*
X142794508Y-68599999D01*
X142794508Y-68600000D01*
X142814354Y-68725303D01*
X142814355Y-68725307D01*
X142871950Y-68838343D01*
X142874473Y-68841815D01*
X142893376Y-68900007D01*
X142874473Y-68958185D01*
X142871950Y-68961656D01*
X142814355Y-69074692D01*
X142814354Y-69074696D01*
X142794508Y-69199999D01*
X142794508Y-69200000D01*
X142814354Y-69325303D01*
X142814355Y-69325307D01*
X142871950Y-69438343D01*
X142874473Y-69441815D01*
X142893376Y-69500007D01*
X142874473Y-69558185D01*
X142871950Y-69561656D01*
X142814355Y-69674692D01*
X142814354Y-69674696D01*
X142794508Y-69799999D01*
X142794508Y-69800000D01*
X142814354Y-69925303D01*
X142814355Y-69925307D01*
X142871950Y-70038343D01*
X142874473Y-70041815D01*
X142893376Y-70100007D01*
X142874473Y-70158185D01*
X142871950Y-70161656D01*
X142814355Y-70274692D01*
X142814354Y-70274696D01*
X142794508Y-70399999D01*
X142794508Y-70400000D01*
X120300500Y-70400000D01*
X120300500Y-69800000D01*
X127194508Y-69800000D01*
X127214354Y-69925303D01*
X127214355Y-69925307D01*
X127269944Y-70034406D01*
X127271950Y-70038342D01*
X127361658Y-70128050D01*
X127474696Y-70185646D01*
X127600000Y-70205492D01*
X127725304Y-70185646D01*
X127838342Y-70128050D01*
X127928050Y-70038342D01*
X127985646Y-69925304D01*
X128005492Y-69800000D01*
X131194508Y-69800000D01*
X131214354Y-69925303D01*
X131214355Y-69925307D01*
X131269944Y-70034406D01*
X131271950Y-70038342D01*
X131361658Y-70128050D01*
X131474696Y-70185646D01*
X131600000Y-70205492D01*
X131725304Y-70185646D01*
X131838342Y-70128050D01*
X131928050Y-70038342D01*
X131985646Y-69925304D01*
X132005492Y-69800000D01*
X135194508Y-69800000D01*
X135214354Y-69925303D01*
X135214355Y-69925307D01*
X135269944Y-70034406D01*
X135271950Y-70038342D01*
X135361658Y-70128050D01*
X135474696Y-70185646D01*
X135600000Y-70205492D01*
X135725304Y-70185646D01*
X135838342Y-70128050D01*
X135928050Y-70038342D01*
X135985646Y-69925304D01*
X136005492Y-69800000D01*
X139194508Y-69800000D01*
X139214354Y-69925303D01*
X139214355Y-69925307D01*
X139269944Y-70034406D01*
X139271950Y-70038342D01*
X139361658Y-70128050D01*
X139474696Y-70185646D01*
X139600000Y-70205492D01*
X139725304Y-70185646D01*
X139838342Y-70128050D01*
X139928050Y-70038342D01*
X139985646Y-69925304D01*
X140005492Y-69800000D01*
X139985646Y-69674696D01*
X139928050Y-69561658D01*
X139928046Y-69561654D01*
X139925530Y-69558190D01*
X139906623Y-69500000D01*
X139925530Y-69441810D01*
X139928043Y-69438348D01*
X139928050Y-69438342D01*
X139985646Y-69325304D01*
X140005492Y-69200000D01*
X139985646Y-69074696D01*
X139928050Y-68961658D01*
X139928048Y-68961656D01*
X139925780Y-68958534D01*
X139924586Y-68954862D01*
X139924513Y-68954717D01*
X139924536Y-68954705D01*
X139906873Y-68900343D01*
X139925780Y-68842153D01*
X139928543Y-68838348D01*
X139928550Y-68838342D01*
X139986146Y-68725304D01*
X140005992Y-68600000D01*
X139986146Y-68474696D01*
X139928550Y-68361658D01*
X139928549Y-68361657D01*
X139928548Y-68361655D01*
X139925778Y-68357842D01*
X139906873Y-68299650D01*
X139924536Y-68245295D01*
X139924513Y-68245283D01*
X139924590Y-68245131D01*
X139925783Y-68241461D01*
X139928044Y-68238347D01*
X139928050Y-68238342D01*
X139985646Y-68125304D01*
X140005492Y-68000000D01*
X139985646Y-67874696D01*
X139928050Y-67761658D01*
X139838342Y-67671950D01*
X139834406Y-67669944D01*
X139725307Y-67614355D01*
X139725304Y-67614354D01*
X139600000Y-67594508D01*
X139474696Y-67614354D01*
X139474692Y-67614355D01*
X139361659Y-67671949D01*
X139271949Y-67761659D01*
X139214355Y-67874692D01*
X139214354Y-67874696D01*
X139194508Y-67999999D01*
X139194508Y-68000000D01*
X139214354Y-68125303D01*
X139214355Y-68125307D01*
X139271951Y-68238344D01*
X139274722Y-68242158D01*
X139293626Y-68300350D01*
X139275965Y-68354705D01*
X139275987Y-68354717D01*
X139275916Y-68354854D01*
X139274723Y-68358529D01*
X139272451Y-68361656D01*
X139214855Y-68474692D01*
X139214854Y-68474696D01*
X139195008Y-68599999D01*
X139195008Y-68600000D01*
X139214854Y-68725303D01*
X139214855Y-68725307D01*
X139244181Y-68782861D01*
X139272450Y-68838342D01*
X139272451Y-68838343D01*
X139274720Y-68841466D01*
X139275912Y-68845137D01*
X139275987Y-68845283D01*
X139275963Y-68845294D01*
X139293626Y-68899658D01*
X139274725Y-68957837D01*
X139271952Y-68961654D01*
X139214355Y-69074692D01*
X139214354Y-69074696D01*
X139194508Y-69199999D01*
X139194508Y-69200000D01*
X139214354Y-69325303D01*
X139214355Y-69325307D01*
X139271950Y-69438343D01*
X139274473Y-69441815D01*
X139293376Y-69500007D01*
X139274473Y-69558185D01*
X139271950Y-69561656D01*
X139214355Y-69674692D01*
X139214354Y-69674696D01*
X139194508Y-69799999D01*
X139194508Y-69800000D01*
X136005492Y-69800000D01*
X135985646Y-69674696D01*
X135928050Y-69561658D01*
X135928046Y-69561654D01*
X135925530Y-69558190D01*
X135906623Y-69500000D01*
X135925530Y-69441810D01*
X135928043Y-69438348D01*
X135928050Y-69438342D01*
X135985646Y-69325304D01*
X136005492Y-69200000D01*
X135985646Y-69074696D01*
X135928050Y-68961658D01*
X135928048Y-68961656D01*
X135925780Y-68958534D01*
X135924586Y-68954862D01*
X135924513Y-68954717D01*
X135924536Y-68954705D01*
X135906873Y-68900343D01*
X135925780Y-68842153D01*
X135928543Y-68838348D01*
X135928550Y-68838342D01*
X135986146Y-68725304D01*
X136005992Y-68600000D01*
X135986146Y-68474696D01*
X135928550Y-68361658D01*
X135928549Y-68361657D01*
X135928548Y-68361655D01*
X135925778Y-68357842D01*
X135906873Y-68299650D01*
X135924536Y-68245295D01*
X135924513Y-68245283D01*
X135924590Y-68245131D01*
X135925783Y-68241461D01*
X135928044Y-68238347D01*
X135928050Y-68238342D01*
X135985646Y-68125304D01*
X136005492Y-68000000D01*
X135985646Y-67874696D01*
X135928050Y-67761658D01*
X135838342Y-67671950D01*
X135834406Y-67669944D01*
X135725307Y-67614355D01*
X135725304Y-67614354D01*
X135600000Y-67594508D01*
X135474696Y-67614354D01*
X135474692Y-67614355D01*
X135361659Y-67671949D01*
X135271949Y-67761659D01*
X135214355Y-67874692D01*
X135214354Y-67874696D01*
X135194508Y-67999999D01*
X135194508Y-68000000D01*
X135214354Y-68125303D01*
X135214355Y-68125307D01*
X135271951Y-68238344D01*
X135274722Y-68242158D01*
X135293626Y-68300350D01*
X135275965Y-68354705D01*
X135275987Y-68354717D01*
X135275916Y-68354854D01*
X135274723Y-68358529D01*
X135272451Y-68361656D01*
X135214855Y-68474692D01*
X135214854Y-68474696D01*
X135195008Y-68599999D01*
X135195008Y-68600000D01*
X135214854Y-68725303D01*
X135214855Y-68725307D01*
X135244181Y-68782861D01*
X135272450Y-68838342D01*
X135272451Y-68838343D01*
X135274720Y-68841466D01*
X135275912Y-68845137D01*
X135275987Y-68845283D01*
X135275963Y-68845294D01*
X135293626Y-68899658D01*
X135274725Y-68957837D01*
X135271952Y-68961654D01*
X135214355Y-69074692D01*
X135214354Y-69074696D01*
X135194508Y-69199999D01*
X135194508Y-69200000D01*
X135214354Y-69325303D01*
X135214355Y-69325307D01*
X135271950Y-69438343D01*
X135274473Y-69441815D01*
X135293376Y-69500007D01*
X135274473Y-69558185D01*
X135271950Y-69561656D01*
X135214355Y-69674692D01*
X135214354Y-69674696D01*
X135194508Y-69799999D01*
X135194508Y-69800000D01*
X132005492Y-69800000D01*
X131985646Y-69674696D01*
X131928050Y-69561658D01*
X131928046Y-69561654D01*
X131925530Y-69558190D01*
X131906623Y-69500000D01*
X131925530Y-69441810D01*
X131928043Y-69438348D01*
X131928050Y-69438342D01*
X131985646Y-69325304D01*
X132005492Y-69200000D01*
X131985646Y-69074696D01*
X131928050Y-68961658D01*
X131928048Y-68961656D01*
X131925780Y-68958534D01*
X131924586Y-68954862D01*
X131924513Y-68954717D01*
X131924536Y-68954705D01*
X131906873Y-68900343D01*
X131925780Y-68842153D01*
X131928543Y-68838348D01*
X131928550Y-68838342D01*
X131986146Y-68725304D01*
X132005992Y-68600000D01*
X131986146Y-68474696D01*
X131928550Y-68361658D01*
X131928549Y-68361657D01*
X131928548Y-68361655D01*
X131925778Y-68357842D01*
X131906873Y-68299650D01*
X131924536Y-68245295D01*
X131924513Y-68245283D01*
X131924590Y-68245131D01*
X131925783Y-68241461D01*
X131928044Y-68238347D01*
X131928050Y-68238342D01*
X131985646Y-68125304D01*
X132005492Y-68000000D01*
X131985646Y-67874696D01*
X131928050Y-67761658D01*
X131838342Y-67671950D01*
X131834406Y-67669944D01*
X131725307Y-67614355D01*
X131725304Y-67614354D01*
X131600000Y-67594508D01*
X131474696Y-67614354D01*
X131474692Y-67614355D01*
X131361659Y-67671949D01*
X131271949Y-67761659D01*
X131214355Y-67874692D01*
X131214354Y-67874696D01*
X131194508Y-67999999D01*
X131194508Y-68000000D01*
X131214354Y-68125303D01*
X131214355Y-68125307D01*
X131271951Y-68238344D01*
X131274722Y-68242158D01*
X131293626Y-68300350D01*
X131275965Y-68354705D01*
X131275987Y-68354717D01*
X131275916Y-68354854D01*
X131274723Y-68358529D01*
X131272451Y-68361656D01*
X131214855Y-68474692D01*
X131214854Y-68474696D01*
X131195008Y-68599999D01*
X131195008Y-68600000D01*
X131214854Y-68725303D01*
X131214855Y-68725307D01*
X131244181Y-68782861D01*
X131272450Y-68838342D01*
X131272451Y-68838343D01*
X131274720Y-68841466D01*
X131275912Y-68845137D01*
X131275987Y-68845283D01*
X131275963Y-68845294D01*
X131293626Y-68899658D01*
X131274725Y-68957837D01*
X131271952Y-68961654D01*
X131214355Y-69074692D01*
X131214354Y-69074696D01*
X131194508Y-69199999D01*
X131194508Y-69200000D01*
X131214354Y-69325303D01*
X131214355Y-69325307D01*
X131271950Y-69438343D01*
X131274473Y-69441815D01*
X131293376Y-69500007D01*
X131274473Y-69558185D01*
X131271950Y-69561656D01*
X131214355Y-69674692D01*
X131214354Y-69674696D01*
X131194508Y-69799999D01*
X131194508Y-69800000D01*
X128005492Y-69800000D01*
X127985646Y-69674696D01*
X127928050Y-69561658D01*
X127928046Y-69561654D01*
X127925530Y-69558190D01*
X127906623Y-69500000D01*
X127925530Y-69441810D01*
X127928043Y-69438348D01*
X127928050Y-69438342D01*
X127985646Y-69325304D01*
X128005492Y-69200000D01*
X127985646Y-69074696D01*
X127928050Y-68961658D01*
X127928048Y-68961656D01*
X127925780Y-68958534D01*
X127924586Y-68954862D01*
X127924513Y-68954717D01*
X127924536Y-68954705D01*
X127906873Y-68900343D01*
X127925780Y-68842153D01*
X127928543Y-68838348D01*
X127928550Y-68838342D01*
X127986146Y-68725304D01*
X128005992Y-68600000D01*
X127986146Y-68474696D01*
X127928550Y-68361658D01*
X127928549Y-68361657D01*
X127928548Y-68361655D01*
X127925778Y-68357842D01*
X127906873Y-68299650D01*
X127924536Y-68245295D01*
X127924513Y-68245283D01*
X127924590Y-68245131D01*
X127925783Y-68241461D01*
X127928044Y-68238347D01*
X127928050Y-68238342D01*
X127985646Y-68125304D01*
X128005492Y-68000000D01*
X127985646Y-67874696D01*
X127928050Y-67761658D01*
X127838342Y-67671950D01*
X127834406Y-67669944D01*
X127725307Y-67614355D01*
X127725304Y-67614354D01*
X127600000Y-67594508D01*
X127474696Y-67614354D01*
X127474692Y-67614355D01*
X127361659Y-67671949D01*
X127271949Y-67761659D01*
X127214355Y-67874692D01*
X127214354Y-67874696D01*
X127194508Y-67999999D01*
X127194508Y-68000000D01*
X127214354Y-68125303D01*
X127214355Y-68125307D01*
X127271951Y-68238344D01*
X127274722Y-68242158D01*
X127293626Y-68300350D01*
X127275965Y-68354705D01*
X127275987Y-68354717D01*
X127275916Y-68354854D01*
X127274723Y-68358529D01*
X127272451Y-68361656D01*
X127214855Y-68474692D01*
X127214854Y-68474696D01*
X127195008Y-68599999D01*
X127195008Y-68600000D01*
X127214854Y-68725303D01*
X127214855Y-68725307D01*
X127244181Y-68782861D01*
X127272450Y-68838342D01*
X127272451Y-68838343D01*
X127274720Y-68841466D01*
X127275912Y-68845137D01*
X127275987Y-68845283D01*
X127275963Y-68845294D01*
X127293626Y-68899658D01*
X127274725Y-68957837D01*
X127271952Y-68961654D01*
X127214355Y-69074692D01*
X127214354Y-69074696D01*
X127194508Y-69199999D01*
X127194508Y-69200000D01*
X127214354Y-69325303D01*
X127214355Y-69325307D01*
X127271950Y-69438343D01*
X127274473Y-69441815D01*
X127293376Y-69500007D01*
X127274473Y-69558185D01*
X127271950Y-69561656D01*
X127214355Y-69674692D01*
X127214354Y-69674696D01*
X127194508Y-69799999D01*
X127194508Y-69800000D01*
X120300500Y-69800000D01*
X120300500Y-67701469D01*
X120319407Y-67643278D01*
X120368907Y-67607314D01*
X120399500Y-67602469D01*
X122908275Y-67602469D01*
X122911153Y-67602553D01*
X122972240Y-67606109D01*
X122997018Y-67607553D01*
X122997023Y-67607553D01*
X123002977Y-67607553D01*
X123002981Y-67607553D01*
X123357803Y-67586887D01*
X123363721Y-67586195D01*
X123363721Y-67586196D01*
X123504319Y-67561404D01*
X123713750Y-67524477D01*
X123719552Y-67523101D01*
X124060044Y-67421164D01*
X124065647Y-67419125D01*
X124201594Y-67360483D01*
X124391997Y-67278352D01*
X124391996Y-67278352D01*
X124392003Y-67278349D01*
X124397331Y-67275673D01*
X124705138Y-67097961D01*
X124710120Y-67094684D01*
X124995213Y-66882440D01*
X124999781Y-66878607D01*
X124999782Y-66878606D01*
X124999783Y-66878606D01*
X125258306Y-66634701D01*
X125262396Y-66630366D01*
X125490857Y-66358098D01*
X125494425Y-66353305D01*
X125494425Y-66353306D01*
X125689727Y-66056362D01*
X125692711Y-66051192D01*
X125852225Y-65733577D01*
X125852228Y-65733570D01*
X125852227Y-65733574D01*
X125854587Y-65728100D01*
X125854589Y-65728097D01*
X125976145Y-65394121D01*
X125976146Y-65394120D01*
X125977860Y-65388392D01*
X126059825Y-65042557D01*
X126060860Y-65036684D01*
X126060861Y-65036677D01*
X126102123Y-64683663D01*
X126102122Y-64683666D01*
X126102469Y-64677713D01*
X126102469Y-64322287D01*
X126102122Y-64316334D01*
X126102123Y-64316337D01*
X126060861Y-63963323D01*
X126060861Y-63963324D01*
X126060860Y-63963316D01*
X126059825Y-63957443D01*
X125977858Y-63611600D01*
X125976148Y-63605887D01*
X125976146Y-63605880D01*
X125976145Y-63605879D01*
X125854589Y-63271903D01*
X125854587Y-63271900D01*
X125852227Y-63266426D01*
X125852228Y-63266430D01*
X125852225Y-63266423D01*
X125692710Y-62948806D01*
X125689729Y-62943641D01*
X125682618Y-62932830D01*
X125494425Y-62646694D01*
X125494425Y-62646695D01*
X125494421Y-62646689D01*
X125490860Y-62641906D01*
X125262398Y-62369636D01*
X125258306Y-62365299D01*
X125127241Y-62241645D01*
X124999783Y-62121394D01*
X124999782Y-62121394D01*
X124999781Y-62121393D01*
X124995213Y-62117560D01*
X124710120Y-61905316D01*
X124705138Y-61902039D01*
X124397331Y-61724327D01*
X124392003Y-61721651D01*
X124391996Y-61721648D01*
X124391997Y-61721648D01*
X124156646Y-61620128D01*
X124065647Y-61580875D01*
X124060044Y-61578836D01*
X123719552Y-61476899D01*
X123719553Y-61476899D01*
X123719549Y-61476898D01*
X123716651Y-61476211D01*
X123713750Y-61475523D01*
X123441639Y-61427543D01*
X123363721Y-61413804D01*
X123357803Y-61413113D01*
X123002981Y-61392447D01*
X122997018Y-61392447D01*
X122972240Y-61393890D01*
X122911153Y-61397447D01*
X122908275Y-61397531D01*
X121352234Y-61397531D01*
X121294043Y-61378624D01*
X121258079Y-61329124D01*
X121258079Y-61267938D01*
X121282230Y-61228527D01*
X126003663Y-56507095D01*
X126007265Y-56503831D01*
X126103841Y-56424573D01*
X126119977Y-56413791D01*
X126223716Y-56358340D01*
X126241643Y-56350915D01*
X126354207Y-56316770D01*
X126373233Y-56312985D01*
X126497591Y-56300737D01*
X126502431Y-56300500D01*
X126547595Y-56300500D01*
X143452405Y-56300500D01*
X143497569Y-56300500D01*
X143502424Y-56300739D01*
G37*
%TD.AperFunction*%
%TD*%
M02*
