%TF.GenerationSoftware,KiCad,Pcbnew,7.0.8-7.0.8~ubuntu22.04.1*%
%TF.CreationDate,2023-11-12T23:56:44-08:00*%
%TF.ProjectId,driver-tmc2160,64726976-6572-42d7-946d-63323136302e,rev?*%
%TF.SameCoordinates,Original*%
%TF.FileFunction,AssemblyDrawing,Top*%
%FSLAX46Y46*%
G04 Gerber Fmt 4.6, Leading zero omitted, Abs format (unit mm)*
G04 Created by KiCad (PCBNEW 7.0.8-7.0.8~ubuntu22.04.1) date 2023-11-12 23:56:44*
%MOMM*%
%LPD*%
G01*
G04 APERTURE LIST*
%ADD10C,0.150000*%
%ADD11C,0.025000*%
%ADD12C,0.075000*%
%ADD13C,0.100000*%
%ADD14C,0.050000*%
%ADD15C,0.120000*%
G04 APERTURE END LIST*
D10*
X130095238Y-57304819D02*
X130095238Y-56304819D01*
X130095238Y-56304819D02*
X130428571Y-57019104D01*
X130428571Y-57019104D02*
X130761904Y-56304819D01*
X130761904Y-56304819D02*
X130761904Y-57304819D01*
X131238095Y-57304819D02*
X131238095Y-56638152D01*
X131238095Y-56304819D02*
X131190476Y-56352438D01*
X131190476Y-56352438D02*
X131238095Y-56400057D01*
X131238095Y-56400057D02*
X131285714Y-56352438D01*
X131285714Y-56352438D02*
X131238095Y-56304819D01*
X131238095Y-56304819D02*
X131238095Y-56400057D01*
X132142856Y-57257200D02*
X132047618Y-57304819D01*
X132047618Y-57304819D02*
X131857142Y-57304819D01*
X131857142Y-57304819D02*
X131761904Y-57257200D01*
X131761904Y-57257200D02*
X131714285Y-57209580D01*
X131714285Y-57209580D02*
X131666666Y-57114342D01*
X131666666Y-57114342D02*
X131666666Y-56828628D01*
X131666666Y-56828628D02*
X131714285Y-56733390D01*
X131714285Y-56733390D02*
X131761904Y-56685771D01*
X131761904Y-56685771D02*
X131857142Y-56638152D01*
X131857142Y-56638152D02*
X132047618Y-56638152D01*
X132047618Y-56638152D02*
X132142856Y-56685771D01*
X132571428Y-57304819D02*
X132571428Y-56638152D01*
X132571428Y-56828628D02*
X132619047Y-56733390D01*
X132619047Y-56733390D02*
X132666666Y-56685771D01*
X132666666Y-56685771D02*
X132761904Y-56638152D01*
X132761904Y-56638152D02*
X132857142Y-56638152D01*
X133333333Y-57304819D02*
X133238095Y-57257200D01*
X133238095Y-57257200D02*
X133190476Y-57209580D01*
X133190476Y-57209580D02*
X133142857Y-57114342D01*
X133142857Y-57114342D02*
X133142857Y-56828628D01*
X133142857Y-56828628D02*
X133190476Y-56733390D01*
X133190476Y-56733390D02*
X133238095Y-56685771D01*
X133238095Y-56685771D02*
X133333333Y-56638152D01*
X133333333Y-56638152D02*
X133476190Y-56638152D01*
X133476190Y-56638152D02*
X133571428Y-56685771D01*
X133571428Y-56685771D02*
X133619047Y-56733390D01*
X133619047Y-56733390D02*
X133666666Y-56828628D01*
X133666666Y-56828628D02*
X133666666Y-57114342D01*
X133666666Y-57114342D02*
X133619047Y-57209580D01*
X133619047Y-57209580D02*
X133571428Y-57257200D01*
X133571428Y-57257200D02*
X133476190Y-57304819D01*
X133476190Y-57304819D02*
X133333333Y-57304819D01*
X134095238Y-56923866D02*
X134857143Y-56923866D01*
X135666666Y-56781009D02*
X135333333Y-56781009D01*
X135333333Y-57304819D02*
X135333333Y-56304819D01*
X135333333Y-56304819D02*
X135809523Y-56304819D01*
X136190476Y-57304819D02*
X136190476Y-56638152D01*
X136190476Y-56304819D02*
X136142857Y-56352438D01*
X136142857Y-56352438D02*
X136190476Y-56400057D01*
X136190476Y-56400057D02*
X136238095Y-56352438D01*
X136238095Y-56352438D02*
X136190476Y-56304819D01*
X136190476Y-56304819D02*
X136190476Y-56400057D01*
X136523809Y-56638152D02*
X136904761Y-56638152D01*
X136666666Y-56304819D02*
X136666666Y-57161961D01*
X136666666Y-57161961D02*
X136714285Y-57257200D01*
X136714285Y-57257200D02*
X136809523Y-57304819D01*
X136809523Y-57304819D02*
X136904761Y-57304819D01*
X137904762Y-56304819D02*
X138523809Y-56304819D01*
X138523809Y-56304819D02*
X138190476Y-56685771D01*
X138190476Y-56685771D02*
X138333333Y-56685771D01*
X138333333Y-56685771D02*
X138428571Y-56733390D01*
X138428571Y-56733390D02*
X138476190Y-56781009D01*
X138476190Y-56781009D02*
X138523809Y-56876247D01*
X138523809Y-56876247D02*
X138523809Y-57114342D01*
X138523809Y-57114342D02*
X138476190Y-57209580D01*
X138476190Y-57209580D02*
X138428571Y-57257200D01*
X138428571Y-57257200D02*
X138333333Y-57304819D01*
X138333333Y-57304819D02*
X138047619Y-57304819D01*
X138047619Y-57304819D02*
X137952381Y-57257200D01*
X137952381Y-57257200D02*
X137904762Y-57209580D01*
X138952381Y-57209580D02*
X139000000Y-57257200D01*
X139000000Y-57257200D02*
X138952381Y-57304819D01*
X138952381Y-57304819D02*
X138904762Y-57257200D01*
X138904762Y-57257200D02*
X138952381Y-57209580D01*
X138952381Y-57209580D02*
X138952381Y-57304819D01*
X139619047Y-56304819D02*
X139714285Y-56304819D01*
X139714285Y-56304819D02*
X139809523Y-56352438D01*
X139809523Y-56352438D02*
X139857142Y-56400057D01*
X139857142Y-56400057D02*
X139904761Y-56495295D01*
X139904761Y-56495295D02*
X139952380Y-56685771D01*
X139952380Y-56685771D02*
X139952380Y-56923866D01*
X139952380Y-56923866D02*
X139904761Y-57114342D01*
X139904761Y-57114342D02*
X139857142Y-57209580D01*
X139857142Y-57209580D02*
X139809523Y-57257200D01*
X139809523Y-57257200D02*
X139714285Y-57304819D01*
X139714285Y-57304819D02*
X139619047Y-57304819D01*
X139619047Y-57304819D02*
X139523809Y-57257200D01*
X139523809Y-57257200D02*
X139476190Y-57209580D01*
X139476190Y-57209580D02*
X139428571Y-57114342D01*
X139428571Y-57114342D02*
X139380952Y-56923866D01*
X139380952Y-56923866D02*
X139380952Y-56685771D01*
X139380952Y-56685771D02*
X139428571Y-56495295D01*
X139428571Y-56495295D02*
X139476190Y-56400057D01*
X139476190Y-56400057D02*
X139523809Y-56352438D01*
X139523809Y-56352438D02*
X139619047Y-56304819D01*
X134190476Y-62204819D02*
X134190476Y-61204819D01*
X134190476Y-61204819D02*
X134523809Y-61919104D01*
X134523809Y-61919104D02*
X134857142Y-61204819D01*
X134857142Y-61204819D02*
X134857142Y-62204819D01*
X135857142Y-62204819D02*
X135285714Y-62204819D01*
X135571428Y-62204819D02*
X135571428Y-61204819D01*
X135571428Y-61204819D02*
X135476190Y-61347676D01*
X135476190Y-61347676D02*
X135380952Y-61442914D01*
X135380952Y-61442914D02*
X135285714Y-61490533D01*
D11*
X138332143Y-79214354D02*
X138246429Y-79214354D01*
X138289286Y-79214354D02*
X138289286Y-78964354D01*
X138289286Y-78964354D02*
X138275000Y-79000069D01*
X138275000Y-79000069D02*
X138260715Y-79023878D01*
X138260715Y-79023878D02*
X138246429Y-79035783D01*
X138425000Y-78964354D02*
X138439286Y-78964354D01*
X138439286Y-78964354D02*
X138453572Y-78976259D01*
X138453572Y-78976259D02*
X138460715Y-78988164D01*
X138460715Y-78988164D02*
X138467857Y-79011973D01*
X138467857Y-79011973D02*
X138475000Y-79059592D01*
X138475000Y-79059592D02*
X138475000Y-79119116D01*
X138475000Y-79119116D02*
X138467857Y-79166735D01*
X138467857Y-79166735D02*
X138460715Y-79190545D01*
X138460715Y-79190545D02*
X138453572Y-79202450D01*
X138453572Y-79202450D02*
X138439286Y-79214354D01*
X138439286Y-79214354D02*
X138425000Y-79214354D01*
X138425000Y-79214354D02*
X138410715Y-79202450D01*
X138410715Y-79202450D02*
X138403572Y-79190545D01*
X138403572Y-79190545D02*
X138396429Y-79166735D01*
X138396429Y-79166735D02*
X138389286Y-79119116D01*
X138389286Y-79119116D02*
X138389286Y-79059592D01*
X138389286Y-79059592D02*
X138396429Y-79011973D01*
X138396429Y-79011973D02*
X138403572Y-78988164D01*
X138403572Y-78988164D02*
X138410715Y-78976259D01*
X138410715Y-78976259D02*
X138425000Y-78964354D01*
X138567857Y-78964354D02*
X138582143Y-78964354D01*
X138582143Y-78964354D02*
X138596429Y-78976259D01*
X138596429Y-78976259D02*
X138603572Y-78988164D01*
X138603572Y-78988164D02*
X138610714Y-79011973D01*
X138610714Y-79011973D02*
X138617857Y-79059592D01*
X138617857Y-79059592D02*
X138617857Y-79119116D01*
X138617857Y-79119116D02*
X138610714Y-79166735D01*
X138610714Y-79166735D02*
X138603572Y-79190545D01*
X138603572Y-79190545D02*
X138596429Y-79202450D01*
X138596429Y-79202450D02*
X138582143Y-79214354D01*
X138582143Y-79214354D02*
X138567857Y-79214354D01*
X138567857Y-79214354D02*
X138553572Y-79202450D01*
X138553572Y-79202450D02*
X138546429Y-79190545D01*
X138546429Y-79190545D02*
X138539286Y-79166735D01*
X138539286Y-79166735D02*
X138532143Y-79119116D01*
X138532143Y-79119116D02*
X138532143Y-79059592D01*
X138532143Y-79059592D02*
X138539286Y-79011973D01*
X138539286Y-79011973D02*
X138546429Y-78988164D01*
X138546429Y-78988164D02*
X138553572Y-78976259D01*
X138553572Y-78976259D02*
X138567857Y-78964354D01*
X138682143Y-79047688D02*
X138682143Y-79214354D01*
X138682143Y-79071497D02*
X138689286Y-79059592D01*
X138689286Y-79059592D02*
X138703571Y-79047688D01*
X138703571Y-79047688D02*
X138725000Y-79047688D01*
X138725000Y-79047688D02*
X138739286Y-79059592D01*
X138739286Y-79059592D02*
X138746429Y-79083402D01*
X138746429Y-79083402D02*
X138746429Y-79214354D01*
X138867857Y-79083402D02*
X138817857Y-79083402D01*
X138817857Y-79214354D02*
X138817857Y-78964354D01*
X138817857Y-78964354D02*
X138889285Y-78964354D01*
X139139285Y-79214354D02*
X139053571Y-79214354D01*
X139096428Y-79214354D02*
X139096428Y-78964354D01*
X139096428Y-78964354D02*
X139082142Y-79000069D01*
X139082142Y-79000069D02*
X139067857Y-79023878D01*
X139067857Y-79023878D02*
X139053571Y-79035783D01*
X139232142Y-78964354D02*
X139246428Y-78964354D01*
X139246428Y-78964354D02*
X139260714Y-78976259D01*
X139260714Y-78976259D02*
X139267857Y-78988164D01*
X139267857Y-78988164D02*
X139274999Y-79011973D01*
X139274999Y-79011973D02*
X139282142Y-79059592D01*
X139282142Y-79059592D02*
X139282142Y-79119116D01*
X139282142Y-79119116D02*
X139274999Y-79166735D01*
X139274999Y-79166735D02*
X139267857Y-79190545D01*
X139267857Y-79190545D02*
X139260714Y-79202450D01*
X139260714Y-79202450D02*
X139246428Y-79214354D01*
X139246428Y-79214354D02*
X139232142Y-79214354D01*
X139232142Y-79214354D02*
X139217857Y-79202450D01*
X139217857Y-79202450D02*
X139210714Y-79190545D01*
X139210714Y-79190545D02*
X139203571Y-79166735D01*
X139203571Y-79166735D02*
X139196428Y-79119116D01*
X139196428Y-79119116D02*
X139196428Y-79059592D01*
X139196428Y-79059592D02*
X139203571Y-79011973D01*
X139203571Y-79011973D02*
X139210714Y-78988164D01*
X139210714Y-78988164D02*
X139217857Y-78976259D01*
X139217857Y-78976259D02*
X139232142Y-78964354D01*
X139374999Y-78964354D02*
X139389285Y-78964354D01*
X139389285Y-78964354D02*
X139403571Y-78976259D01*
X139403571Y-78976259D02*
X139410714Y-78988164D01*
X139410714Y-78988164D02*
X139417856Y-79011973D01*
X139417856Y-79011973D02*
X139424999Y-79059592D01*
X139424999Y-79059592D02*
X139424999Y-79119116D01*
X139424999Y-79119116D02*
X139417856Y-79166735D01*
X139417856Y-79166735D02*
X139410714Y-79190545D01*
X139410714Y-79190545D02*
X139403571Y-79202450D01*
X139403571Y-79202450D02*
X139389285Y-79214354D01*
X139389285Y-79214354D02*
X139374999Y-79214354D01*
X139374999Y-79214354D02*
X139360714Y-79202450D01*
X139360714Y-79202450D02*
X139353571Y-79190545D01*
X139353571Y-79190545D02*
X139346428Y-79166735D01*
X139346428Y-79166735D02*
X139339285Y-79119116D01*
X139339285Y-79119116D02*
X139339285Y-79059592D01*
X139339285Y-79059592D02*
X139346428Y-79011973D01*
X139346428Y-79011973D02*
X139353571Y-78988164D01*
X139353571Y-78988164D02*
X139360714Y-78976259D01*
X139360714Y-78976259D02*
X139374999Y-78964354D01*
X139467856Y-78964354D02*
X139517856Y-79214354D01*
X139517856Y-79214354D02*
X139567856Y-78964354D01*
X138883333Y-78885438D02*
X138878571Y-78890200D01*
X138878571Y-78890200D02*
X138864285Y-78894961D01*
X138864285Y-78894961D02*
X138854761Y-78894961D01*
X138854761Y-78894961D02*
X138840476Y-78890200D01*
X138840476Y-78890200D02*
X138830952Y-78880676D01*
X138830952Y-78880676D02*
X138826190Y-78871152D01*
X138826190Y-78871152D02*
X138821428Y-78852104D01*
X138821428Y-78852104D02*
X138821428Y-78837819D01*
X138821428Y-78837819D02*
X138826190Y-78818771D01*
X138826190Y-78818771D02*
X138830952Y-78809247D01*
X138830952Y-78809247D02*
X138840476Y-78799723D01*
X138840476Y-78799723D02*
X138854761Y-78794961D01*
X138854761Y-78794961D02*
X138864285Y-78794961D01*
X138864285Y-78794961D02*
X138878571Y-78799723D01*
X138878571Y-78799723D02*
X138883333Y-78804485D01*
X138916666Y-78794961D02*
X138983333Y-78794961D01*
X138983333Y-78794961D02*
X138940476Y-78894961D01*
D12*
X140127409Y-70185713D02*
X140127409Y-69999999D01*
X140127409Y-69999999D02*
X140317885Y-70099999D01*
X140317885Y-70099999D02*
X140317885Y-70057142D01*
X140317885Y-70057142D02*
X140341695Y-70028571D01*
X140341695Y-70028571D02*
X140365504Y-70014285D01*
X140365504Y-70014285D02*
X140413123Y-69999999D01*
X140413123Y-69999999D02*
X140532171Y-69999999D01*
X140532171Y-69999999D02*
X140579790Y-70014285D01*
X140579790Y-70014285D02*
X140603600Y-70028571D01*
X140603600Y-70028571D02*
X140627409Y-70057142D01*
X140627409Y-70057142D02*
X140627409Y-70142856D01*
X140627409Y-70142856D02*
X140603600Y-70171428D01*
X140603600Y-70171428D02*
X140579790Y-70185713D01*
X140127409Y-69814285D02*
X140127409Y-69785714D01*
X140127409Y-69785714D02*
X140151219Y-69757142D01*
X140151219Y-69757142D02*
X140175028Y-69742857D01*
X140175028Y-69742857D02*
X140222647Y-69728571D01*
X140222647Y-69728571D02*
X140317885Y-69714285D01*
X140317885Y-69714285D02*
X140436933Y-69714285D01*
X140436933Y-69714285D02*
X140532171Y-69728571D01*
X140532171Y-69728571D02*
X140579790Y-69742857D01*
X140579790Y-69742857D02*
X140603600Y-69757142D01*
X140603600Y-69757142D02*
X140627409Y-69785714D01*
X140627409Y-69785714D02*
X140627409Y-69814285D01*
X140627409Y-69814285D02*
X140603600Y-69842857D01*
X140603600Y-69842857D02*
X140579790Y-69857142D01*
X140579790Y-69857142D02*
X140532171Y-69871428D01*
X140532171Y-69871428D02*
X140436933Y-69885714D01*
X140436933Y-69885714D02*
X140317885Y-69885714D01*
X140317885Y-69885714D02*
X140222647Y-69871428D01*
X140222647Y-69871428D02*
X140175028Y-69857142D01*
X140175028Y-69857142D02*
X140151219Y-69842857D01*
X140151219Y-69842857D02*
X140127409Y-69814285D01*
X140627409Y-69585714D02*
X140127409Y-69585714D01*
X140127409Y-69585714D02*
X140627409Y-69414285D01*
X140627409Y-69414285D02*
X140127409Y-69414285D01*
X140127409Y-69214285D02*
X140127409Y-69185714D01*
X140127409Y-69185714D02*
X140151219Y-69157142D01*
X140151219Y-69157142D02*
X140175028Y-69142857D01*
X140175028Y-69142857D02*
X140222647Y-69128571D01*
X140222647Y-69128571D02*
X140317885Y-69114285D01*
X140317885Y-69114285D02*
X140436933Y-69114285D01*
X140436933Y-69114285D02*
X140532171Y-69128571D01*
X140532171Y-69128571D02*
X140579790Y-69142857D01*
X140579790Y-69142857D02*
X140603600Y-69157142D01*
X140603600Y-69157142D02*
X140627409Y-69185714D01*
X140627409Y-69185714D02*
X140627409Y-69214285D01*
X140627409Y-69214285D02*
X140603600Y-69242857D01*
X140603600Y-69242857D02*
X140579790Y-69257142D01*
X140579790Y-69257142D02*
X140532171Y-69271428D01*
X140532171Y-69271428D02*
X140436933Y-69285714D01*
X140436933Y-69285714D02*
X140317885Y-69285714D01*
X140317885Y-69285714D02*
X140222647Y-69271428D01*
X140222647Y-69271428D02*
X140175028Y-69257142D01*
X140175028Y-69257142D02*
X140151219Y-69242857D01*
X140151219Y-69242857D02*
X140127409Y-69214285D01*
X140127409Y-68857143D02*
X140127409Y-68914285D01*
X140127409Y-68914285D02*
X140151219Y-68942857D01*
X140151219Y-68942857D02*
X140175028Y-68957143D01*
X140175028Y-68957143D02*
X140246457Y-68985714D01*
X140246457Y-68985714D02*
X140341695Y-69000000D01*
X140341695Y-69000000D02*
X140532171Y-69000000D01*
X140532171Y-69000000D02*
X140579790Y-68985714D01*
X140579790Y-68985714D02*
X140603600Y-68971428D01*
X140603600Y-68971428D02*
X140627409Y-68942857D01*
X140627409Y-68942857D02*
X140627409Y-68885714D01*
X140627409Y-68885714D02*
X140603600Y-68857143D01*
X140603600Y-68857143D02*
X140579790Y-68842857D01*
X140579790Y-68842857D02*
X140532171Y-68828571D01*
X140532171Y-68828571D02*
X140413123Y-68828571D01*
X140413123Y-68828571D02*
X140365504Y-68842857D01*
X140365504Y-68842857D02*
X140341695Y-68857143D01*
X140341695Y-68857143D02*
X140317885Y-68885714D01*
X140317885Y-68885714D02*
X140317885Y-68942857D01*
X140317885Y-68942857D02*
X140341695Y-68971428D01*
X140341695Y-68971428D02*
X140365504Y-68985714D01*
X140365504Y-68985714D02*
X140413123Y-69000000D01*
D10*
X141950057Y-69595238D02*
X141902438Y-69690476D01*
X141902438Y-69690476D02*
X141807200Y-69785714D01*
X141807200Y-69785714D02*
X141664342Y-69928571D01*
X141664342Y-69928571D02*
X141616723Y-70023809D01*
X141616723Y-70023809D02*
X141616723Y-70119047D01*
X141854819Y-70071428D02*
X141807200Y-70166666D01*
X141807200Y-70166666D02*
X141711961Y-70261904D01*
X141711961Y-70261904D02*
X141521485Y-70309523D01*
X141521485Y-70309523D02*
X141188152Y-70309523D01*
X141188152Y-70309523D02*
X140997676Y-70261904D01*
X140997676Y-70261904D02*
X140902438Y-70166666D01*
X140902438Y-70166666D02*
X140854819Y-70071428D01*
X140854819Y-70071428D02*
X140854819Y-69880952D01*
X140854819Y-69880952D02*
X140902438Y-69785714D01*
X140902438Y-69785714D02*
X140997676Y-69690476D01*
X140997676Y-69690476D02*
X141188152Y-69642857D01*
X141188152Y-69642857D02*
X141521485Y-69642857D01*
X141521485Y-69642857D02*
X141711961Y-69690476D01*
X141711961Y-69690476D02*
X141807200Y-69785714D01*
X141807200Y-69785714D02*
X141854819Y-69880952D01*
X141854819Y-69880952D02*
X141854819Y-70071428D01*
X141283390Y-69071428D02*
X141235771Y-69166666D01*
X141235771Y-69166666D02*
X141188152Y-69214285D01*
X141188152Y-69214285D02*
X141092914Y-69261904D01*
X141092914Y-69261904D02*
X141045295Y-69261904D01*
X141045295Y-69261904D02*
X140950057Y-69214285D01*
X140950057Y-69214285D02*
X140902438Y-69166666D01*
X140902438Y-69166666D02*
X140854819Y-69071428D01*
X140854819Y-69071428D02*
X140854819Y-68880952D01*
X140854819Y-68880952D02*
X140902438Y-68785714D01*
X140902438Y-68785714D02*
X140950057Y-68738095D01*
X140950057Y-68738095D02*
X141045295Y-68690476D01*
X141045295Y-68690476D02*
X141092914Y-68690476D01*
X141092914Y-68690476D02*
X141188152Y-68738095D01*
X141188152Y-68738095D02*
X141235771Y-68785714D01*
X141235771Y-68785714D02*
X141283390Y-68880952D01*
X141283390Y-68880952D02*
X141283390Y-69071428D01*
X141283390Y-69071428D02*
X141331009Y-69166666D01*
X141331009Y-69166666D02*
X141378628Y-69214285D01*
X141378628Y-69214285D02*
X141473866Y-69261904D01*
X141473866Y-69261904D02*
X141664342Y-69261904D01*
X141664342Y-69261904D02*
X141759580Y-69214285D01*
X141759580Y-69214285D02*
X141807200Y-69166666D01*
X141807200Y-69166666D02*
X141854819Y-69071428D01*
X141854819Y-69071428D02*
X141854819Y-68880952D01*
X141854819Y-68880952D02*
X141807200Y-68785714D01*
X141807200Y-68785714D02*
X141759580Y-68738095D01*
X141759580Y-68738095D02*
X141664342Y-68690476D01*
X141664342Y-68690476D02*
X141473866Y-68690476D01*
X141473866Y-68690476D02*
X141378628Y-68738095D01*
X141378628Y-68738095D02*
X141331009Y-68785714D01*
X141331009Y-68785714D02*
X141283390Y-68880952D01*
D12*
X132127409Y-70185713D02*
X132127409Y-69999999D01*
X132127409Y-69999999D02*
X132317885Y-70099999D01*
X132317885Y-70099999D02*
X132317885Y-70057142D01*
X132317885Y-70057142D02*
X132341695Y-70028571D01*
X132341695Y-70028571D02*
X132365504Y-70014285D01*
X132365504Y-70014285D02*
X132413123Y-69999999D01*
X132413123Y-69999999D02*
X132532171Y-69999999D01*
X132532171Y-69999999D02*
X132579790Y-70014285D01*
X132579790Y-70014285D02*
X132603600Y-70028571D01*
X132603600Y-70028571D02*
X132627409Y-70057142D01*
X132627409Y-70057142D02*
X132627409Y-70142856D01*
X132627409Y-70142856D02*
X132603600Y-70171428D01*
X132603600Y-70171428D02*
X132579790Y-70185713D01*
X132127409Y-69814285D02*
X132127409Y-69785714D01*
X132127409Y-69785714D02*
X132151219Y-69757142D01*
X132151219Y-69757142D02*
X132175028Y-69742857D01*
X132175028Y-69742857D02*
X132222647Y-69728571D01*
X132222647Y-69728571D02*
X132317885Y-69714285D01*
X132317885Y-69714285D02*
X132436933Y-69714285D01*
X132436933Y-69714285D02*
X132532171Y-69728571D01*
X132532171Y-69728571D02*
X132579790Y-69742857D01*
X132579790Y-69742857D02*
X132603600Y-69757142D01*
X132603600Y-69757142D02*
X132627409Y-69785714D01*
X132627409Y-69785714D02*
X132627409Y-69814285D01*
X132627409Y-69814285D02*
X132603600Y-69842857D01*
X132603600Y-69842857D02*
X132579790Y-69857142D01*
X132579790Y-69857142D02*
X132532171Y-69871428D01*
X132532171Y-69871428D02*
X132436933Y-69885714D01*
X132436933Y-69885714D02*
X132317885Y-69885714D01*
X132317885Y-69885714D02*
X132222647Y-69871428D01*
X132222647Y-69871428D02*
X132175028Y-69857142D01*
X132175028Y-69857142D02*
X132151219Y-69842857D01*
X132151219Y-69842857D02*
X132127409Y-69814285D01*
X132627409Y-69585714D02*
X132127409Y-69585714D01*
X132127409Y-69585714D02*
X132627409Y-69414285D01*
X132627409Y-69414285D02*
X132127409Y-69414285D01*
X132127409Y-69214285D02*
X132127409Y-69185714D01*
X132127409Y-69185714D02*
X132151219Y-69157142D01*
X132151219Y-69157142D02*
X132175028Y-69142857D01*
X132175028Y-69142857D02*
X132222647Y-69128571D01*
X132222647Y-69128571D02*
X132317885Y-69114285D01*
X132317885Y-69114285D02*
X132436933Y-69114285D01*
X132436933Y-69114285D02*
X132532171Y-69128571D01*
X132532171Y-69128571D02*
X132579790Y-69142857D01*
X132579790Y-69142857D02*
X132603600Y-69157142D01*
X132603600Y-69157142D02*
X132627409Y-69185714D01*
X132627409Y-69185714D02*
X132627409Y-69214285D01*
X132627409Y-69214285D02*
X132603600Y-69242857D01*
X132603600Y-69242857D02*
X132579790Y-69257142D01*
X132579790Y-69257142D02*
X132532171Y-69271428D01*
X132532171Y-69271428D02*
X132436933Y-69285714D01*
X132436933Y-69285714D02*
X132317885Y-69285714D01*
X132317885Y-69285714D02*
X132222647Y-69271428D01*
X132222647Y-69271428D02*
X132175028Y-69257142D01*
X132175028Y-69257142D02*
X132151219Y-69242857D01*
X132151219Y-69242857D02*
X132127409Y-69214285D01*
X132127409Y-68857143D02*
X132127409Y-68914285D01*
X132127409Y-68914285D02*
X132151219Y-68942857D01*
X132151219Y-68942857D02*
X132175028Y-68957143D01*
X132175028Y-68957143D02*
X132246457Y-68985714D01*
X132246457Y-68985714D02*
X132341695Y-69000000D01*
X132341695Y-69000000D02*
X132532171Y-69000000D01*
X132532171Y-69000000D02*
X132579790Y-68985714D01*
X132579790Y-68985714D02*
X132603600Y-68971428D01*
X132603600Y-68971428D02*
X132627409Y-68942857D01*
X132627409Y-68942857D02*
X132627409Y-68885714D01*
X132627409Y-68885714D02*
X132603600Y-68857143D01*
X132603600Y-68857143D02*
X132579790Y-68842857D01*
X132579790Y-68842857D02*
X132532171Y-68828571D01*
X132532171Y-68828571D02*
X132413123Y-68828571D01*
X132413123Y-68828571D02*
X132365504Y-68842857D01*
X132365504Y-68842857D02*
X132341695Y-68857143D01*
X132341695Y-68857143D02*
X132317885Y-68885714D01*
X132317885Y-68885714D02*
X132317885Y-68942857D01*
X132317885Y-68942857D02*
X132341695Y-68971428D01*
X132341695Y-68971428D02*
X132365504Y-68985714D01*
X132365504Y-68985714D02*
X132413123Y-69000000D01*
D10*
X133950057Y-69595238D02*
X133902438Y-69690476D01*
X133902438Y-69690476D02*
X133807200Y-69785714D01*
X133807200Y-69785714D02*
X133664342Y-69928571D01*
X133664342Y-69928571D02*
X133616723Y-70023809D01*
X133616723Y-70023809D02*
X133616723Y-70119047D01*
X133854819Y-70071428D02*
X133807200Y-70166666D01*
X133807200Y-70166666D02*
X133711961Y-70261904D01*
X133711961Y-70261904D02*
X133521485Y-70309523D01*
X133521485Y-70309523D02*
X133188152Y-70309523D01*
X133188152Y-70309523D02*
X132997676Y-70261904D01*
X132997676Y-70261904D02*
X132902438Y-70166666D01*
X132902438Y-70166666D02*
X132854819Y-70071428D01*
X132854819Y-70071428D02*
X132854819Y-69880952D01*
X132854819Y-69880952D02*
X132902438Y-69785714D01*
X132902438Y-69785714D02*
X132997676Y-69690476D01*
X132997676Y-69690476D02*
X133188152Y-69642857D01*
X133188152Y-69642857D02*
X133521485Y-69642857D01*
X133521485Y-69642857D02*
X133711961Y-69690476D01*
X133711961Y-69690476D02*
X133807200Y-69785714D01*
X133807200Y-69785714D02*
X133854819Y-69880952D01*
X133854819Y-69880952D02*
X133854819Y-70071428D01*
X133188152Y-68785714D02*
X133854819Y-68785714D01*
X132807200Y-69023809D02*
X133521485Y-69261904D01*
X133521485Y-69261904D02*
X133521485Y-68642857D01*
D13*
X147602990Y-64821428D02*
X147564895Y-64869047D01*
X147564895Y-64869047D02*
X147564895Y-64940476D01*
X147564895Y-64940476D02*
X147602990Y-65011904D01*
X147602990Y-65011904D02*
X147679180Y-65059523D01*
X147679180Y-65059523D02*
X147755371Y-65083333D01*
X147755371Y-65083333D02*
X147907752Y-65107142D01*
X147907752Y-65107142D02*
X148022038Y-65107142D01*
X148022038Y-65107142D02*
X148174419Y-65083333D01*
X148174419Y-65083333D02*
X148250609Y-65059523D01*
X148250609Y-65059523D02*
X148326800Y-65011904D01*
X148326800Y-65011904D02*
X148364895Y-64940476D01*
X148364895Y-64940476D02*
X148364895Y-64892857D01*
X148364895Y-64892857D02*
X148326800Y-64821428D01*
X148326800Y-64821428D02*
X148288704Y-64797619D01*
X148288704Y-64797619D02*
X148022038Y-64797619D01*
X148022038Y-64797619D02*
X148022038Y-64892857D01*
X147831561Y-64583333D02*
X148364895Y-64583333D01*
X147907752Y-64583333D02*
X147869657Y-64559523D01*
X147869657Y-64559523D02*
X147831561Y-64511904D01*
X147831561Y-64511904D02*
X147831561Y-64440476D01*
X147831561Y-64440476D02*
X147869657Y-64392857D01*
X147869657Y-64392857D02*
X147945847Y-64369047D01*
X147945847Y-64369047D02*
X148364895Y-64369047D01*
X148364895Y-63916666D02*
X147564895Y-63916666D01*
X148326800Y-63916666D02*
X148364895Y-63964285D01*
X148364895Y-63964285D02*
X148364895Y-64059523D01*
X148364895Y-64059523D02*
X148326800Y-64107142D01*
X148326800Y-64107142D02*
X148288704Y-64130952D01*
X148288704Y-64130952D02*
X148212514Y-64154761D01*
X148212514Y-64154761D02*
X147983942Y-64154761D01*
X147983942Y-64154761D02*
X147907752Y-64130952D01*
X147907752Y-64130952D02*
X147869657Y-64107142D01*
X147869657Y-64107142D02*
X147831561Y-64059523D01*
X147831561Y-64059523D02*
X147831561Y-63964285D01*
X147831561Y-63964285D02*
X147869657Y-63916666D01*
D10*
X146454819Y-65261904D02*
X145454819Y-65261904D01*
X145931009Y-65261904D02*
X145931009Y-64690476D01*
X146454819Y-64690476D02*
X145454819Y-64690476D01*
X145550057Y-64261904D02*
X145502438Y-64214285D01*
X145502438Y-64214285D02*
X145454819Y-64119047D01*
X145454819Y-64119047D02*
X145454819Y-63880952D01*
X145454819Y-63880952D02*
X145502438Y-63785714D01*
X145502438Y-63785714D02*
X145550057Y-63738095D01*
X145550057Y-63738095D02*
X145645295Y-63690476D01*
X145645295Y-63690476D02*
X145740533Y-63690476D01*
X145740533Y-63690476D02*
X145883390Y-63738095D01*
X145883390Y-63738095D02*
X146454819Y-64309523D01*
X146454819Y-64309523D02*
X146454819Y-63690476D01*
D14*
X140201495Y-82047619D02*
X140182447Y-82066666D01*
X140182447Y-82066666D02*
X140182447Y-82095238D01*
X140182447Y-82095238D02*
X140201495Y-82123809D01*
X140201495Y-82123809D02*
X140239590Y-82142857D01*
X140239590Y-82142857D02*
X140277685Y-82152380D01*
X140277685Y-82152380D02*
X140353876Y-82161904D01*
X140353876Y-82161904D02*
X140411019Y-82161904D01*
X140411019Y-82161904D02*
X140487209Y-82152380D01*
X140487209Y-82152380D02*
X140525304Y-82142857D01*
X140525304Y-82142857D02*
X140563400Y-82123809D01*
X140563400Y-82123809D02*
X140582447Y-82095238D01*
X140582447Y-82095238D02*
X140582447Y-82076190D01*
X140582447Y-82076190D02*
X140563400Y-82047619D01*
X140563400Y-82047619D02*
X140544352Y-82038095D01*
X140544352Y-82038095D02*
X140411019Y-82038095D01*
X140411019Y-82038095D02*
X140411019Y-82076190D01*
D11*
X140819961Y-82173809D02*
X140719961Y-82173809D01*
X140719961Y-82173809D02*
X140719961Y-82149999D01*
X140719961Y-82149999D02*
X140724723Y-82135714D01*
X140724723Y-82135714D02*
X140734247Y-82126190D01*
X140734247Y-82126190D02*
X140743771Y-82121428D01*
X140743771Y-82121428D02*
X140762819Y-82116666D01*
X140762819Y-82116666D02*
X140777104Y-82116666D01*
X140777104Y-82116666D02*
X140796152Y-82121428D01*
X140796152Y-82121428D02*
X140805676Y-82126190D01*
X140805676Y-82126190D02*
X140815200Y-82135714D01*
X140815200Y-82135714D02*
X140819961Y-82149999D01*
X140819961Y-82149999D02*
X140819961Y-82173809D01*
X140819961Y-82021428D02*
X140819961Y-82078571D01*
X140819961Y-82049999D02*
X140719961Y-82049999D01*
X140719961Y-82049999D02*
X140734247Y-82059523D01*
X140734247Y-82059523D02*
X140743771Y-82069047D01*
X140743771Y-82069047D02*
X140748533Y-82078571D01*
X144347688Y-74128571D02*
X144514354Y-74128571D01*
X144252450Y-74164285D02*
X144431021Y-74199999D01*
X144431021Y-74199999D02*
X144431021Y-74107142D01*
X144264354Y-74064285D02*
X144264354Y-73964285D01*
X144264354Y-73964285D02*
X144514354Y-74028571D01*
X144514354Y-73914285D02*
X144514354Y-73878571D01*
X144514354Y-73878571D02*
X144466735Y-73878571D01*
X144466735Y-73878571D02*
X144454830Y-73892857D01*
X144454830Y-73892857D02*
X144431021Y-73907142D01*
X144431021Y-73907142D02*
X144395307Y-73914285D01*
X144395307Y-73914285D02*
X144335783Y-73914285D01*
X144335783Y-73914285D02*
X144300069Y-73907142D01*
X144300069Y-73907142D02*
X144276259Y-73892857D01*
X144276259Y-73892857D02*
X144264354Y-73871428D01*
X144264354Y-73871428D02*
X144264354Y-73842857D01*
X144264354Y-73842857D02*
X144276259Y-73821428D01*
X144276259Y-73821428D02*
X144300069Y-73807142D01*
X144300069Y-73807142D02*
X144335783Y-73799999D01*
X144335783Y-73799999D02*
X144395307Y-73799999D01*
X144395307Y-73799999D02*
X144431021Y-73807142D01*
X144431021Y-73807142D02*
X144454830Y-73821428D01*
X144454830Y-73821428D02*
X144466735Y-73835714D01*
X144466735Y-73835714D02*
X144514354Y-73835714D01*
X144514354Y-73835714D02*
X144514354Y-73799999D01*
X144694961Y-74064285D02*
X144647342Y-74097618D01*
X144694961Y-74121428D02*
X144594961Y-74121428D01*
X144594961Y-74121428D02*
X144594961Y-74083333D01*
X144594961Y-74083333D02*
X144599723Y-74073809D01*
X144599723Y-74073809D02*
X144604485Y-74069047D01*
X144604485Y-74069047D02*
X144614009Y-74064285D01*
X144614009Y-74064285D02*
X144628295Y-74064285D01*
X144628295Y-74064285D02*
X144637819Y-74069047D01*
X144637819Y-74069047D02*
X144642580Y-74073809D01*
X144642580Y-74073809D02*
X144647342Y-74083333D01*
X144647342Y-74083333D02*
X144647342Y-74121428D01*
X144694961Y-73969047D02*
X144694961Y-74026190D01*
X144694961Y-73997618D02*
X144594961Y-73997618D01*
X144594961Y-73997618D02*
X144609247Y-74007142D01*
X144609247Y-74007142D02*
X144618771Y-74016666D01*
X144618771Y-74016666D02*
X144623533Y-74026190D01*
X144604485Y-73930952D02*
X144599723Y-73926190D01*
X144599723Y-73926190D02*
X144594961Y-73916666D01*
X144594961Y-73916666D02*
X144594961Y-73892857D01*
X144594961Y-73892857D02*
X144599723Y-73883333D01*
X144599723Y-73883333D02*
X144604485Y-73878571D01*
X144604485Y-73878571D02*
X144614009Y-73873809D01*
X144614009Y-73873809D02*
X144623533Y-73873809D01*
X144623533Y-73873809D02*
X144637819Y-73878571D01*
X144637819Y-73878571D02*
X144694961Y-73935714D01*
X144694961Y-73935714D02*
X144694961Y-73873809D01*
X138800000Y-81014354D02*
X138714286Y-81014354D01*
X138757143Y-81014354D02*
X138757143Y-80764354D01*
X138757143Y-80764354D02*
X138742857Y-80800069D01*
X138742857Y-80800069D02*
X138728572Y-80823878D01*
X138728572Y-80823878D02*
X138714286Y-80835783D01*
X138864286Y-80847688D02*
X138864286Y-81097688D01*
X138935714Y-80978640D02*
X138942857Y-81002450D01*
X138942857Y-81002450D02*
X138957143Y-81014354D01*
X138864286Y-80978640D02*
X138871429Y-81002450D01*
X138871429Y-81002450D02*
X138885714Y-81014354D01*
X138885714Y-81014354D02*
X138914286Y-81014354D01*
X138914286Y-81014354D02*
X138928572Y-81002450D01*
X138928572Y-81002450D02*
X138935714Y-80978640D01*
X138935714Y-80978640D02*
X138935714Y-80847688D01*
X139071429Y-80883402D02*
X139021429Y-80883402D01*
X139021429Y-81014354D02*
X139021429Y-80764354D01*
X139021429Y-80764354D02*
X139092857Y-80764354D01*
X138883333Y-81185438D02*
X138878571Y-81190200D01*
X138878571Y-81190200D02*
X138864285Y-81194961D01*
X138864285Y-81194961D02*
X138854761Y-81194961D01*
X138854761Y-81194961D02*
X138840476Y-81190200D01*
X138840476Y-81190200D02*
X138830952Y-81180676D01*
X138830952Y-81180676D02*
X138826190Y-81171152D01*
X138826190Y-81171152D02*
X138821428Y-81152104D01*
X138821428Y-81152104D02*
X138821428Y-81137819D01*
X138821428Y-81137819D02*
X138826190Y-81118771D01*
X138826190Y-81118771D02*
X138830952Y-81109247D01*
X138830952Y-81109247D02*
X138840476Y-81099723D01*
X138840476Y-81099723D02*
X138854761Y-81094961D01*
X138854761Y-81094961D02*
X138864285Y-81094961D01*
X138864285Y-81094961D02*
X138878571Y-81099723D01*
X138878571Y-81099723D02*
X138883333Y-81104485D01*
X138973809Y-81094961D02*
X138926190Y-81094961D01*
X138926190Y-81094961D02*
X138921428Y-81142580D01*
X138921428Y-81142580D02*
X138926190Y-81137819D01*
X138926190Y-81137819D02*
X138935714Y-81133057D01*
X138935714Y-81133057D02*
X138959523Y-81133057D01*
X138959523Y-81133057D02*
X138969047Y-81137819D01*
X138969047Y-81137819D02*
X138973809Y-81142580D01*
X138973809Y-81142580D02*
X138978571Y-81152104D01*
X138978571Y-81152104D02*
X138978571Y-81175914D01*
X138978571Y-81175914D02*
X138973809Y-81185438D01*
X138973809Y-81185438D02*
X138969047Y-81190200D01*
X138969047Y-81190200D02*
X138959523Y-81194961D01*
X138959523Y-81194961D02*
X138935714Y-81194961D01*
X138935714Y-81194961D02*
X138926190Y-81190200D01*
X138926190Y-81190200D02*
X138921428Y-81185438D01*
X126347688Y-74128571D02*
X126514354Y-74128571D01*
X126252450Y-74164285D02*
X126431021Y-74199999D01*
X126431021Y-74199999D02*
X126431021Y-74107142D01*
X126264354Y-74064285D02*
X126264354Y-73964285D01*
X126264354Y-73964285D02*
X126514354Y-74028571D01*
X126514354Y-73914285D02*
X126514354Y-73878571D01*
X126514354Y-73878571D02*
X126466735Y-73878571D01*
X126466735Y-73878571D02*
X126454830Y-73892857D01*
X126454830Y-73892857D02*
X126431021Y-73907142D01*
X126431021Y-73907142D02*
X126395307Y-73914285D01*
X126395307Y-73914285D02*
X126335783Y-73914285D01*
X126335783Y-73914285D02*
X126300069Y-73907142D01*
X126300069Y-73907142D02*
X126276259Y-73892857D01*
X126276259Y-73892857D02*
X126264354Y-73871428D01*
X126264354Y-73871428D02*
X126264354Y-73842857D01*
X126264354Y-73842857D02*
X126276259Y-73821428D01*
X126276259Y-73821428D02*
X126300069Y-73807142D01*
X126300069Y-73807142D02*
X126335783Y-73799999D01*
X126335783Y-73799999D02*
X126395307Y-73799999D01*
X126395307Y-73799999D02*
X126431021Y-73807142D01*
X126431021Y-73807142D02*
X126454830Y-73821428D01*
X126454830Y-73821428D02*
X126466735Y-73835714D01*
X126466735Y-73835714D02*
X126514354Y-73835714D01*
X126514354Y-73835714D02*
X126514354Y-73799999D01*
X126694961Y-74016666D02*
X126647342Y-74049999D01*
X126694961Y-74073809D02*
X126594961Y-74073809D01*
X126594961Y-74073809D02*
X126594961Y-74035714D01*
X126594961Y-74035714D02*
X126599723Y-74026190D01*
X126599723Y-74026190D02*
X126604485Y-74021428D01*
X126604485Y-74021428D02*
X126614009Y-74016666D01*
X126614009Y-74016666D02*
X126628295Y-74016666D01*
X126628295Y-74016666D02*
X126637819Y-74021428D01*
X126637819Y-74021428D02*
X126642580Y-74026190D01*
X126642580Y-74026190D02*
X126647342Y-74035714D01*
X126647342Y-74035714D02*
X126647342Y-74073809D01*
X126637819Y-73959523D02*
X126633057Y-73969047D01*
X126633057Y-73969047D02*
X126628295Y-73973809D01*
X126628295Y-73973809D02*
X126618771Y-73978571D01*
X126618771Y-73978571D02*
X126614009Y-73978571D01*
X126614009Y-73978571D02*
X126604485Y-73973809D01*
X126604485Y-73973809D02*
X126599723Y-73969047D01*
X126599723Y-73969047D02*
X126594961Y-73959523D01*
X126594961Y-73959523D02*
X126594961Y-73940476D01*
X126594961Y-73940476D02*
X126599723Y-73930952D01*
X126599723Y-73930952D02*
X126604485Y-73926190D01*
X126604485Y-73926190D02*
X126614009Y-73921428D01*
X126614009Y-73921428D02*
X126618771Y-73921428D01*
X126618771Y-73921428D02*
X126628295Y-73926190D01*
X126628295Y-73926190D02*
X126633057Y-73930952D01*
X126633057Y-73930952D02*
X126637819Y-73940476D01*
X126637819Y-73940476D02*
X126637819Y-73959523D01*
X126637819Y-73959523D02*
X126642580Y-73969047D01*
X126642580Y-73969047D02*
X126647342Y-73973809D01*
X126647342Y-73973809D02*
X126656866Y-73978571D01*
X126656866Y-73978571D02*
X126675914Y-73978571D01*
X126675914Y-73978571D02*
X126685438Y-73973809D01*
X126685438Y-73973809D02*
X126690200Y-73969047D01*
X126690200Y-73969047D02*
X126694961Y-73959523D01*
X126694961Y-73959523D02*
X126694961Y-73940476D01*
X126694961Y-73940476D02*
X126690200Y-73930952D01*
X126690200Y-73930952D02*
X126685438Y-73926190D01*
X126685438Y-73926190D02*
X126675914Y-73921428D01*
X126675914Y-73921428D02*
X126656866Y-73921428D01*
X126656866Y-73921428D02*
X126647342Y-73926190D01*
X126647342Y-73926190D02*
X126642580Y-73930952D01*
X126642580Y-73930952D02*
X126637819Y-73940476D01*
X127964354Y-76349999D02*
X127964354Y-76435713D01*
X127964354Y-76392856D02*
X127714354Y-76392856D01*
X127714354Y-76392856D02*
X127750069Y-76407142D01*
X127750069Y-76407142D02*
X127773878Y-76421427D01*
X127773878Y-76421427D02*
X127785783Y-76435713D01*
X127797688Y-76285713D02*
X128047688Y-76285713D01*
X127928640Y-76214285D02*
X127952450Y-76207142D01*
X127952450Y-76207142D02*
X127964354Y-76192856D01*
X127928640Y-76285713D02*
X127952450Y-76278570D01*
X127952450Y-76278570D02*
X127964354Y-76264285D01*
X127964354Y-76264285D02*
X127964354Y-76235713D01*
X127964354Y-76235713D02*
X127952450Y-76221428D01*
X127952450Y-76221428D02*
X127928640Y-76214285D01*
X127928640Y-76214285D02*
X127797688Y-76214285D01*
X127833402Y-76078570D02*
X127833402Y-76128570D01*
X127964354Y-76128570D02*
X127714354Y-76128570D01*
X127714354Y-76128570D02*
X127714354Y-76057142D01*
X127635438Y-76266666D02*
X127640200Y-76271428D01*
X127640200Y-76271428D02*
X127644961Y-76285714D01*
X127644961Y-76285714D02*
X127644961Y-76295238D01*
X127644961Y-76295238D02*
X127640200Y-76309523D01*
X127640200Y-76309523D02*
X127630676Y-76319047D01*
X127630676Y-76319047D02*
X127621152Y-76323809D01*
X127621152Y-76323809D02*
X127602104Y-76328571D01*
X127602104Y-76328571D02*
X127587819Y-76328571D01*
X127587819Y-76328571D02*
X127568771Y-76323809D01*
X127568771Y-76323809D02*
X127559247Y-76319047D01*
X127559247Y-76319047D02*
X127549723Y-76309523D01*
X127549723Y-76309523D02*
X127544961Y-76295238D01*
X127544961Y-76295238D02*
X127544961Y-76285714D01*
X127544961Y-76285714D02*
X127549723Y-76271428D01*
X127549723Y-76271428D02*
X127554485Y-76266666D01*
X127587819Y-76209523D02*
X127583057Y-76219047D01*
X127583057Y-76219047D02*
X127578295Y-76223809D01*
X127578295Y-76223809D02*
X127568771Y-76228571D01*
X127568771Y-76228571D02*
X127564009Y-76228571D01*
X127564009Y-76228571D02*
X127554485Y-76223809D01*
X127554485Y-76223809D02*
X127549723Y-76219047D01*
X127549723Y-76219047D02*
X127544961Y-76209523D01*
X127544961Y-76209523D02*
X127544961Y-76190476D01*
X127544961Y-76190476D02*
X127549723Y-76180952D01*
X127549723Y-76180952D02*
X127554485Y-76176190D01*
X127554485Y-76176190D02*
X127564009Y-76171428D01*
X127564009Y-76171428D02*
X127568771Y-76171428D01*
X127568771Y-76171428D02*
X127578295Y-76176190D01*
X127578295Y-76176190D02*
X127583057Y-76180952D01*
X127583057Y-76180952D02*
X127587819Y-76190476D01*
X127587819Y-76190476D02*
X127587819Y-76209523D01*
X127587819Y-76209523D02*
X127592580Y-76219047D01*
X127592580Y-76219047D02*
X127597342Y-76223809D01*
X127597342Y-76223809D02*
X127606866Y-76228571D01*
X127606866Y-76228571D02*
X127625914Y-76228571D01*
X127625914Y-76228571D02*
X127635438Y-76223809D01*
X127635438Y-76223809D02*
X127640200Y-76219047D01*
X127640200Y-76219047D02*
X127644961Y-76209523D01*
X127644961Y-76209523D02*
X127644961Y-76190476D01*
X127644961Y-76190476D02*
X127640200Y-76180952D01*
X127640200Y-76180952D02*
X127635438Y-76176190D01*
X127635438Y-76176190D02*
X127625914Y-76171428D01*
X127625914Y-76171428D02*
X127606866Y-76171428D01*
X127606866Y-76171428D02*
X127597342Y-76176190D01*
X127597342Y-76176190D02*
X127592580Y-76180952D01*
X127592580Y-76180952D02*
X127587819Y-76190476D01*
D12*
X136314286Y-72127409D02*
X136500000Y-72127409D01*
X136500000Y-72127409D02*
X136400000Y-72317885D01*
X136400000Y-72317885D02*
X136442857Y-72317885D01*
X136442857Y-72317885D02*
X136471429Y-72341695D01*
X136471429Y-72341695D02*
X136485714Y-72365504D01*
X136485714Y-72365504D02*
X136500000Y-72413123D01*
X136500000Y-72413123D02*
X136500000Y-72532171D01*
X136500000Y-72532171D02*
X136485714Y-72579790D01*
X136485714Y-72579790D02*
X136471429Y-72603600D01*
X136471429Y-72603600D02*
X136442857Y-72627409D01*
X136442857Y-72627409D02*
X136357143Y-72627409D01*
X136357143Y-72627409D02*
X136328571Y-72603600D01*
X136328571Y-72603600D02*
X136314286Y-72579790D01*
X136685714Y-72127409D02*
X136714285Y-72127409D01*
X136714285Y-72127409D02*
X136742857Y-72151219D01*
X136742857Y-72151219D02*
X136757143Y-72175028D01*
X136757143Y-72175028D02*
X136771428Y-72222647D01*
X136771428Y-72222647D02*
X136785714Y-72317885D01*
X136785714Y-72317885D02*
X136785714Y-72436933D01*
X136785714Y-72436933D02*
X136771428Y-72532171D01*
X136771428Y-72532171D02*
X136757143Y-72579790D01*
X136757143Y-72579790D02*
X136742857Y-72603600D01*
X136742857Y-72603600D02*
X136714285Y-72627409D01*
X136714285Y-72627409D02*
X136685714Y-72627409D01*
X136685714Y-72627409D02*
X136657143Y-72603600D01*
X136657143Y-72603600D02*
X136642857Y-72579790D01*
X136642857Y-72579790D02*
X136628571Y-72532171D01*
X136628571Y-72532171D02*
X136614285Y-72436933D01*
X136614285Y-72436933D02*
X136614285Y-72317885D01*
X136614285Y-72317885D02*
X136628571Y-72222647D01*
X136628571Y-72222647D02*
X136642857Y-72175028D01*
X136642857Y-72175028D02*
X136657143Y-72151219D01*
X136657143Y-72151219D02*
X136685714Y-72127409D01*
X136914285Y-72627409D02*
X136914285Y-72127409D01*
X136914285Y-72127409D02*
X137085714Y-72627409D01*
X137085714Y-72627409D02*
X137085714Y-72127409D01*
X137285714Y-72127409D02*
X137314285Y-72127409D01*
X137314285Y-72127409D02*
X137342857Y-72151219D01*
X137342857Y-72151219D02*
X137357143Y-72175028D01*
X137357143Y-72175028D02*
X137371428Y-72222647D01*
X137371428Y-72222647D02*
X137385714Y-72317885D01*
X137385714Y-72317885D02*
X137385714Y-72436933D01*
X137385714Y-72436933D02*
X137371428Y-72532171D01*
X137371428Y-72532171D02*
X137357143Y-72579790D01*
X137357143Y-72579790D02*
X137342857Y-72603600D01*
X137342857Y-72603600D02*
X137314285Y-72627409D01*
X137314285Y-72627409D02*
X137285714Y-72627409D01*
X137285714Y-72627409D02*
X137257143Y-72603600D01*
X137257143Y-72603600D02*
X137242857Y-72579790D01*
X137242857Y-72579790D02*
X137228571Y-72532171D01*
X137228571Y-72532171D02*
X137214285Y-72436933D01*
X137214285Y-72436933D02*
X137214285Y-72317885D01*
X137214285Y-72317885D02*
X137228571Y-72222647D01*
X137228571Y-72222647D02*
X137242857Y-72175028D01*
X137242857Y-72175028D02*
X137257143Y-72151219D01*
X137257143Y-72151219D02*
X137285714Y-72127409D01*
X137642857Y-72127409D02*
X137585714Y-72127409D01*
X137585714Y-72127409D02*
X137557142Y-72151219D01*
X137557142Y-72151219D02*
X137542857Y-72175028D01*
X137542857Y-72175028D02*
X137514285Y-72246457D01*
X137514285Y-72246457D02*
X137499999Y-72341695D01*
X137499999Y-72341695D02*
X137499999Y-72532171D01*
X137499999Y-72532171D02*
X137514285Y-72579790D01*
X137514285Y-72579790D02*
X137528571Y-72603600D01*
X137528571Y-72603600D02*
X137557142Y-72627409D01*
X137557142Y-72627409D02*
X137614285Y-72627409D01*
X137614285Y-72627409D02*
X137642857Y-72603600D01*
X137642857Y-72603600D02*
X137657142Y-72579790D01*
X137657142Y-72579790D02*
X137671428Y-72532171D01*
X137671428Y-72532171D02*
X137671428Y-72413123D01*
X137671428Y-72413123D02*
X137657142Y-72365504D01*
X137657142Y-72365504D02*
X137642857Y-72341695D01*
X137642857Y-72341695D02*
X137614285Y-72317885D01*
X137614285Y-72317885D02*
X137557142Y-72317885D01*
X137557142Y-72317885D02*
X137528571Y-72341695D01*
X137528571Y-72341695D02*
X137514285Y-72365504D01*
X137514285Y-72365504D02*
X137499999Y-72413123D01*
D10*
X136904761Y-73950057D02*
X136809523Y-73902438D01*
X136809523Y-73902438D02*
X136714285Y-73807200D01*
X136714285Y-73807200D02*
X136571428Y-73664342D01*
X136571428Y-73664342D02*
X136476190Y-73616723D01*
X136476190Y-73616723D02*
X136380952Y-73616723D01*
X136428571Y-73854819D02*
X136333333Y-73807200D01*
X136333333Y-73807200D02*
X136238095Y-73711961D01*
X136238095Y-73711961D02*
X136190476Y-73521485D01*
X136190476Y-73521485D02*
X136190476Y-73188152D01*
X136190476Y-73188152D02*
X136238095Y-72997676D01*
X136238095Y-72997676D02*
X136333333Y-72902438D01*
X136333333Y-72902438D02*
X136428571Y-72854819D01*
X136428571Y-72854819D02*
X136619047Y-72854819D01*
X136619047Y-72854819D02*
X136714285Y-72902438D01*
X136714285Y-72902438D02*
X136809523Y-72997676D01*
X136809523Y-72997676D02*
X136857142Y-73188152D01*
X136857142Y-73188152D02*
X136857142Y-73521485D01*
X136857142Y-73521485D02*
X136809523Y-73711961D01*
X136809523Y-73711961D02*
X136714285Y-73807200D01*
X136714285Y-73807200D02*
X136619047Y-73854819D01*
X136619047Y-73854819D02*
X136428571Y-73854819D01*
X137761904Y-72854819D02*
X137285714Y-72854819D01*
X137285714Y-72854819D02*
X137238095Y-73331009D01*
X137238095Y-73331009D02*
X137285714Y-73283390D01*
X137285714Y-73283390D02*
X137380952Y-73235771D01*
X137380952Y-73235771D02*
X137619047Y-73235771D01*
X137619047Y-73235771D02*
X137714285Y-73283390D01*
X137714285Y-73283390D02*
X137761904Y-73331009D01*
X137761904Y-73331009D02*
X137809523Y-73426247D01*
X137809523Y-73426247D02*
X137809523Y-73664342D01*
X137809523Y-73664342D02*
X137761904Y-73759580D01*
X137761904Y-73759580D02*
X137714285Y-73807200D01*
X137714285Y-73807200D02*
X137619047Y-73854819D01*
X137619047Y-73854819D02*
X137380952Y-73854819D01*
X137380952Y-73854819D02*
X137285714Y-73807200D01*
X137285714Y-73807200D02*
X137238095Y-73759580D01*
D12*
X128314286Y-72127409D02*
X128500000Y-72127409D01*
X128500000Y-72127409D02*
X128400000Y-72317885D01*
X128400000Y-72317885D02*
X128442857Y-72317885D01*
X128442857Y-72317885D02*
X128471429Y-72341695D01*
X128471429Y-72341695D02*
X128485714Y-72365504D01*
X128485714Y-72365504D02*
X128500000Y-72413123D01*
X128500000Y-72413123D02*
X128500000Y-72532171D01*
X128500000Y-72532171D02*
X128485714Y-72579790D01*
X128485714Y-72579790D02*
X128471429Y-72603600D01*
X128471429Y-72603600D02*
X128442857Y-72627409D01*
X128442857Y-72627409D02*
X128357143Y-72627409D01*
X128357143Y-72627409D02*
X128328571Y-72603600D01*
X128328571Y-72603600D02*
X128314286Y-72579790D01*
X128685714Y-72127409D02*
X128714285Y-72127409D01*
X128714285Y-72127409D02*
X128742857Y-72151219D01*
X128742857Y-72151219D02*
X128757143Y-72175028D01*
X128757143Y-72175028D02*
X128771428Y-72222647D01*
X128771428Y-72222647D02*
X128785714Y-72317885D01*
X128785714Y-72317885D02*
X128785714Y-72436933D01*
X128785714Y-72436933D02*
X128771428Y-72532171D01*
X128771428Y-72532171D02*
X128757143Y-72579790D01*
X128757143Y-72579790D02*
X128742857Y-72603600D01*
X128742857Y-72603600D02*
X128714285Y-72627409D01*
X128714285Y-72627409D02*
X128685714Y-72627409D01*
X128685714Y-72627409D02*
X128657143Y-72603600D01*
X128657143Y-72603600D02*
X128642857Y-72579790D01*
X128642857Y-72579790D02*
X128628571Y-72532171D01*
X128628571Y-72532171D02*
X128614285Y-72436933D01*
X128614285Y-72436933D02*
X128614285Y-72317885D01*
X128614285Y-72317885D02*
X128628571Y-72222647D01*
X128628571Y-72222647D02*
X128642857Y-72175028D01*
X128642857Y-72175028D02*
X128657143Y-72151219D01*
X128657143Y-72151219D02*
X128685714Y-72127409D01*
X128914285Y-72627409D02*
X128914285Y-72127409D01*
X128914285Y-72127409D02*
X129085714Y-72627409D01*
X129085714Y-72627409D02*
X129085714Y-72127409D01*
X129285714Y-72127409D02*
X129314285Y-72127409D01*
X129314285Y-72127409D02*
X129342857Y-72151219D01*
X129342857Y-72151219D02*
X129357143Y-72175028D01*
X129357143Y-72175028D02*
X129371428Y-72222647D01*
X129371428Y-72222647D02*
X129385714Y-72317885D01*
X129385714Y-72317885D02*
X129385714Y-72436933D01*
X129385714Y-72436933D02*
X129371428Y-72532171D01*
X129371428Y-72532171D02*
X129357143Y-72579790D01*
X129357143Y-72579790D02*
X129342857Y-72603600D01*
X129342857Y-72603600D02*
X129314285Y-72627409D01*
X129314285Y-72627409D02*
X129285714Y-72627409D01*
X129285714Y-72627409D02*
X129257143Y-72603600D01*
X129257143Y-72603600D02*
X129242857Y-72579790D01*
X129242857Y-72579790D02*
X129228571Y-72532171D01*
X129228571Y-72532171D02*
X129214285Y-72436933D01*
X129214285Y-72436933D02*
X129214285Y-72317885D01*
X129214285Y-72317885D02*
X129228571Y-72222647D01*
X129228571Y-72222647D02*
X129242857Y-72175028D01*
X129242857Y-72175028D02*
X129257143Y-72151219D01*
X129257143Y-72151219D02*
X129285714Y-72127409D01*
X129642857Y-72127409D02*
X129585714Y-72127409D01*
X129585714Y-72127409D02*
X129557142Y-72151219D01*
X129557142Y-72151219D02*
X129542857Y-72175028D01*
X129542857Y-72175028D02*
X129514285Y-72246457D01*
X129514285Y-72246457D02*
X129499999Y-72341695D01*
X129499999Y-72341695D02*
X129499999Y-72532171D01*
X129499999Y-72532171D02*
X129514285Y-72579790D01*
X129514285Y-72579790D02*
X129528571Y-72603600D01*
X129528571Y-72603600D02*
X129557142Y-72627409D01*
X129557142Y-72627409D02*
X129614285Y-72627409D01*
X129614285Y-72627409D02*
X129642857Y-72603600D01*
X129642857Y-72603600D02*
X129657142Y-72579790D01*
X129657142Y-72579790D02*
X129671428Y-72532171D01*
X129671428Y-72532171D02*
X129671428Y-72413123D01*
X129671428Y-72413123D02*
X129657142Y-72365504D01*
X129657142Y-72365504D02*
X129642857Y-72341695D01*
X129642857Y-72341695D02*
X129614285Y-72317885D01*
X129614285Y-72317885D02*
X129557142Y-72317885D01*
X129557142Y-72317885D02*
X129528571Y-72341695D01*
X129528571Y-72341695D02*
X129514285Y-72365504D01*
X129514285Y-72365504D02*
X129499999Y-72413123D01*
D10*
X128904761Y-73950057D02*
X128809523Y-73902438D01*
X128809523Y-73902438D02*
X128714285Y-73807200D01*
X128714285Y-73807200D02*
X128571428Y-73664342D01*
X128571428Y-73664342D02*
X128476190Y-73616723D01*
X128476190Y-73616723D02*
X128380952Y-73616723D01*
X128428571Y-73854819D02*
X128333333Y-73807200D01*
X128333333Y-73807200D02*
X128238095Y-73711961D01*
X128238095Y-73711961D02*
X128190476Y-73521485D01*
X128190476Y-73521485D02*
X128190476Y-73188152D01*
X128190476Y-73188152D02*
X128238095Y-72997676D01*
X128238095Y-72997676D02*
X128333333Y-72902438D01*
X128333333Y-72902438D02*
X128428571Y-72854819D01*
X128428571Y-72854819D02*
X128619047Y-72854819D01*
X128619047Y-72854819D02*
X128714285Y-72902438D01*
X128714285Y-72902438D02*
X128809523Y-72997676D01*
X128809523Y-72997676D02*
X128857142Y-73188152D01*
X128857142Y-73188152D02*
X128857142Y-73521485D01*
X128857142Y-73521485D02*
X128809523Y-73711961D01*
X128809523Y-73711961D02*
X128714285Y-73807200D01*
X128714285Y-73807200D02*
X128619047Y-73854819D01*
X128619047Y-73854819D02*
X128428571Y-73854819D01*
X129809523Y-73854819D02*
X129238095Y-73854819D01*
X129523809Y-73854819D02*
X129523809Y-72854819D01*
X129523809Y-72854819D02*
X129428571Y-72997676D01*
X129428571Y-72997676D02*
X129333333Y-73092914D01*
X129333333Y-73092914D02*
X129238095Y-73140533D01*
D11*
X125347688Y-74128571D02*
X125514354Y-74128571D01*
X125252450Y-74164285D02*
X125431021Y-74199999D01*
X125431021Y-74199999D02*
X125431021Y-74107142D01*
X125264354Y-74064285D02*
X125264354Y-73964285D01*
X125264354Y-73964285D02*
X125514354Y-74028571D01*
X125514354Y-73914285D02*
X125514354Y-73878571D01*
X125514354Y-73878571D02*
X125466735Y-73878571D01*
X125466735Y-73878571D02*
X125454830Y-73892857D01*
X125454830Y-73892857D02*
X125431021Y-73907142D01*
X125431021Y-73907142D02*
X125395307Y-73914285D01*
X125395307Y-73914285D02*
X125335783Y-73914285D01*
X125335783Y-73914285D02*
X125300069Y-73907142D01*
X125300069Y-73907142D02*
X125276259Y-73892857D01*
X125276259Y-73892857D02*
X125264354Y-73871428D01*
X125264354Y-73871428D02*
X125264354Y-73842857D01*
X125264354Y-73842857D02*
X125276259Y-73821428D01*
X125276259Y-73821428D02*
X125300069Y-73807142D01*
X125300069Y-73807142D02*
X125335783Y-73799999D01*
X125335783Y-73799999D02*
X125395307Y-73799999D01*
X125395307Y-73799999D02*
X125431021Y-73807142D01*
X125431021Y-73807142D02*
X125454830Y-73821428D01*
X125454830Y-73821428D02*
X125466735Y-73835714D01*
X125466735Y-73835714D02*
X125514354Y-73835714D01*
X125514354Y-73835714D02*
X125514354Y-73799999D01*
X125694961Y-74016666D02*
X125647342Y-74049999D01*
X125694961Y-74073809D02*
X125594961Y-74073809D01*
X125594961Y-74073809D02*
X125594961Y-74035714D01*
X125594961Y-74035714D02*
X125599723Y-74026190D01*
X125599723Y-74026190D02*
X125604485Y-74021428D01*
X125604485Y-74021428D02*
X125614009Y-74016666D01*
X125614009Y-74016666D02*
X125628295Y-74016666D01*
X125628295Y-74016666D02*
X125637819Y-74021428D01*
X125637819Y-74021428D02*
X125642580Y-74026190D01*
X125642580Y-74026190D02*
X125647342Y-74035714D01*
X125647342Y-74035714D02*
X125647342Y-74073809D01*
X125694961Y-73969047D02*
X125694961Y-73949999D01*
X125694961Y-73949999D02*
X125690200Y-73940476D01*
X125690200Y-73940476D02*
X125685438Y-73935714D01*
X125685438Y-73935714D02*
X125671152Y-73926190D01*
X125671152Y-73926190D02*
X125652104Y-73921428D01*
X125652104Y-73921428D02*
X125614009Y-73921428D01*
X125614009Y-73921428D02*
X125604485Y-73926190D01*
X125604485Y-73926190D02*
X125599723Y-73930952D01*
X125599723Y-73930952D02*
X125594961Y-73940476D01*
X125594961Y-73940476D02*
X125594961Y-73959523D01*
X125594961Y-73959523D02*
X125599723Y-73969047D01*
X125599723Y-73969047D02*
X125604485Y-73973809D01*
X125604485Y-73973809D02*
X125614009Y-73978571D01*
X125614009Y-73978571D02*
X125637819Y-73978571D01*
X125637819Y-73978571D02*
X125647342Y-73973809D01*
X125647342Y-73973809D02*
X125652104Y-73969047D01*
X125652104Y-73969047D02*
X125656866Y-73959523D01*
X125656866Y-73959523D02*
X125656866Y-73940476D01*
X125656866Y-73940476D02*
X125652104Y-73930952D01*
X125652104Y-73930952D02*
X125647342Y-73926190D01*
X125647342Y-73926190D02*
X125637819Y-73921428D01*
X138332143Y-80214354D02*
X138246429Y-80214354D01*
X138289286Y-80214354D02*
X138289286Y-79964354D01*
X138289286Y-79964354D02*
X138275000Y-80000069D01*
X138275000Y-80000069D02*
X138260715Y-80023878D01*
X138260715Y-80023878D02*
X138246429Y-80035783D01*
X138425000Y-79964354D02*
X138439286Y-79964354D01*
X138439286Y-79964354D02*
X138453572Y-79976259D01*
X138453572Y-79976259D02*
X138460715Y-79988164D01*
X138460715Y-79988164D02*
X138467857Y-80011973D01*
X138467857Y-80011973D02*
X138475000Y-80059592D01*
X138475000Y-80059592D02*
X138475000Y-80119116D01*
X138475000Y-80119116D02*
X138467857Y-80166735D01*
X138467857Y-80166735D02*
X138460715Y-80190545D01*
X138460715Y-80190545D02*
X138453572Y-80202450D01*
X138453572Y-80202450D02*
X138439286Y-80214354D01*
X138439286Y-80214354D02*
X138425000Y-80214354D01*
X138425000Y-80214354D02*
X138410715Y-80202450D01*
X138410715Y-80202450D02*
X138403572Y-80190545D01*
X138403572Y-80190545D02*
X138396429Y-80166735D01*
X138396429Y-80166735D02*
X138389286Y-80119116D01*
X138389286Y-80119116D02*
X138389286Y-80059592D01*
X138389286Y-80059592D02*
X138396429Y-80011973D01*
X138396429Y-80011973D02*
X138403572Y-79988164D01*
X138403572Y-79988164D02*
X138410715Y-79976259D01*
X138410715Y-79976259D02*
X138425000Y-79964354D01*
X138567857Y-79964354D02*
X138582143Y-79964354D01*
X138582143Y-79964354D02*
X138596429Y-79976259D01*
X138596429Y-79976259D02*
X138603572Y-79988164D01*
X138603572Y-79988164D02*
X138610714Y-80011973D01*
X138610714Y-80011973D02*
X138617857Y-80059592D01*
X138617857Y-80059592D02*
X138617857Y-80119116D01*
X138617857Y-80119116D02*
X138610714Y-80166735D01*
X138610714Y-80166735D02*
X138603572Y-80190545D01*
X138603572Y-80190545D02*
X138596429Y-80202450D01*
X138596429Y-80202450D02*
X138582143Y-80214354D01*
X138582143Y-80214354D02*
X138567857Y-80214354D01*
X138567857Y-80214354D02*
X138553572Y-80202450D01*
X138553572Y-80202450D02*
X138546429Y-80190545D01*
X138546429Y-80190545D02*
X138539286Y-80166735D01*
X138539286Y-80166735D02*
X138532143Y-80119116D01*
X138532143Y-80119116D02*
X138532143Y-80059592D01*
X138532143Y-80059592D02*
X138539286Y-80011973D01*
X138539286Y-80011973D02*
X138546429Y-79988164D01*
X138546429Y-79988164D02*
X138553572Y-79976259D01*
X138553572Y-79976259D02*
X138567857Y-79964354D01*
X138682143Y-80047688D02*
X138682143Y-80214354D01*
X138682143Y-80071497D02*
X138689286Y-80059592D01*
X138689286Y-80059592D02*
X138703571Y-80047688D01*
X138703571Y-80047688D02*
X138725000Y-80047688D01*
X138725000Y-80047688D02*
X138739286Y-80059592D01*
X138739286Y-80059592D02*
X138746429Y-80083402D01*
X138746429Y-80083402D02*
X138746429Y-80214354D01*
X138867857Y-80083402D02*
X138817857Y-80083402D01*
X138817857Y-80214354D02*
X138817857Y-79964354D01*
X138817857Y-79964354D02*
X138889285Y-79964354D01*
X139139285Y-80214354D02*
X139053571Y-80214354D01*
X139096428Y-80214354D02*
X139096428Y-79964354D01*
X139096428Y-79964354D02*
X139082142Y-80000069D01*
X139082142Y-80000069D02*
X139067857Y-80023878D01*
X139067857Y-80023878D02*
X139053571Y-80035783D01*
X139232142Y-79964354D02*
X139246428Y-79964354D01*
X139246428Y-79964354D02*
X139260714Y-79976259D01*
X139260714Y-79976259D02*
X139267857Y-79988164D01*
X139267857Y-79988164D02*
X139274999Y-80011973D01*
X139274999Y-80011973D02*
X139282142Y-80059592D01*
X139282142Y-80059592D02*
X139282142Y-80119116D01*
X139282142Y-80119116D02*
X139274999Y-80166735D01*
X139274999Y-80166735D02*
X139267857Y-80190545D01*
X139267857Y-80190545D02*
X139260714Y-80202450D01*
X139260714Y-80202450D02*
X139246428Y-80214354D01*
X139246428Y-80214354D02*
X139232142Y-80214354D01*
X139232142Y-80214354D02*
X139217857Y-80202450D01*
X139217857Y-80202450D02*
X139210714Y-80190545D01*
X139210714Y-80190545D02*
X139203571Y-80166735D01*
X139203571Y-80166735D02*
X139196428Y-80119116D01*
X139196428Y-80119116D02*
X139196428Y-80059592D01*
X139196428Y-80059592D02*
X139203571Y-80011973D01*
X139203571Y-80011973D02*
X139210714Y-79988164D01*
X139210714Y-79988164D02*
X139217857Y-79976259D01*
X139217857Y-79976259D02*
X139232142Y-79964354D01*
X139374999Y-79964354D02*
X139389285Y-79964354D01*
X139389285Y-79964354D02*
X139403571Y-79976259D01*
X139403571Y-79976259D02*
X139410714Y-79988164D01*
X139410714Y-79988164D02*
X139417856Y-80011973D01*
X139417856Y-80011973D02*
X139424999Y-80059592D01*
X139424999Y-80059592D02*
X139424999Y-80119116D01*
X139424999Y-80119116D02*
X139417856Y-80166735D01*
X139417856Y-80166735D02*
X139410714Y-80190545D01*
X139410714Y-80190545D02*
X139403571Y-80202450D01*
X139403571Y-80202450D02*
X139389285Y-80214354D01*
X139389285Y-80214354D02*
X139374999Y-80214354D01*
X139374999Y-80214354D02*
X139360714Y-80202450D01*
X139360714Y-80202450D02*
X139353571Y-80190545D01*
X139353571Y-80190545D02*
X139346428Y-80166735D01*
X139346428Y-80166735D02*
X139339285Y-80119116D01*
X139339285Y-80119116D02*
X139339285Y-80059592D01*
X139339285Y-80059592D02*
X139346428Y-80011973D01*
X139346428Y-80011973D02*
X139353571Y-79988164D01*
X139353571Y-79988164D02*
X139360714Y-79976259D01*
X139360714Y-79976259D02*
X139374999Y-79964354D01*
X139467856Y-79964354D02*
X139517856Y-80214354D01*
X139517856Y-80214354D02*
X139567856Y-79964354D01*
X138883333Y-79885438D02*
X138878571Y-79890200D01*
X138878571Y-79890200D02*
X138864285Y-79894961D01*
X138864285Y-79894961D02*
X138854761Y-79894961D01*
X138854761Y-79894961D02*
X138840476Y-79890200D01*
X138840476Y-79890200D02*
X138830952Y-79880676D01*
X138830952Y-79880676D02*
X138826190Y-79871152D01*
X138826190Y-79871152D02*
X138821428Y-79852104D01*
X138821428Y-79852104D02*
X138821428Y-79837819D01*
X138821428Y-79837819D02*
X138826190Y-79818771D01*
X138826190Y-79818771D02*
X138830952Y-79809247D01*
X138830952Y-79809247D02*
X138840476Y-79799723D01*
X138840476Y-79799723D02*
X138854761Y-79794961D01*
X138854761Y-79794961D02*
X138864285Y-79794961D01*
X138864285Y-79794961D02*
X138878571Y-79799723D01*
X138878571Y-79799723D02*
X138883333Y-79804485D01*
X138921428Y-79804485D02*
X138926190Y-79799723D01*
X138926190Y-79799723D02*
X138935714Y-79794961D01*
X138935714Y-79794961D02*
X138959523Y-79794961D01*
X138959523Y-79794961D02*
X138969047Y-79799723D01*
X138969047Y-79799723D02*
X138973809Y-79804485D01*
X138973809Y-79804485D02*
X138978571Y-79814009D01*
X138978571Y-79814009D02*
X138978571Y-79823533D01*
X138978571Y-79823533D02*
X138973809Y-79837819D01*
X138973809Y-79837819D02*
X138916666Y-79894961D01*
X138916666Y-79894961D02*
X138978571Y-79894961D01*
X126814285Y-80038164D02*
X126821428Y-80026259D01*
X126821428Y-80026259D02*
X126835714Y-80014354D01*
X126835714Y-80014354D02*
X126871428Y-80014354D01*
X126871428Y-80014354D02*
X126885714Y-80026259D01*
X126885714Y-80026259D02*
X126892856Y-80038164D01*
X126892856Y-80038164D02*
X126899999Y-80061973D01*
X126899999Y-80061973D02*
X126899999Y-80085783D01*
X126899999Y-80085783D02*
X126892856Y-80121497D01*
X126892856Y-80121497D02*
X126807142Y-80264354D01*
X126807142Y-80264354D02*
X126899999Y-80264354D01*
X126964285Y-80240545D02*
X126971428Y-80252450D01*
X126971428Y-80252450D02*
X126964285Y-80264354D01*
X126964285Y-80264354D02*
X126957142Y-80252450D01*
X126957142Y-80252450D02*
X126964285Y-80240545D01*
X126964285Y-80240545D02*
X126964285Y-80264354D01*
X127028571Y-80038164D02*
X127035714Y-80026259D01*
X127035714Y-80026259D02*
X127050000Y-80014354D01*
X127050000Y-80014354D02*
X127085714Y-80014354D01*
X127085714Y-80014354D02*
X127100000Y-80026259D01*
X127100000Y-80026259D02*
X127107142Y-80038164D01*
X127107142Y-80038164D02*
X127114285Y-80061973D01*
X127114285Y-80061973D02*
X127114285Y-80085783D01*
X127114285Y-80085783D02*
X127107142Y-80121497D01*
X127107142Y-80121497D02*
X127021428Y-80264354D01*
X127021428Y-80264354D02*
X127114285Y-80264354D01*
X127171428Y-80264354D02*
X127207142Y-80264354D01*
X127207142Y-80264354D02*
X127207142Y-80216735D01*
X127207142Y-80216735D02*
X127192857Y-80204830D01*
X127192857Y-80204830D02*
X127178571Y-80181021D01*
X127178571Y-80181021D02*
X127171428Y-80145307D01*
X127171428Y-80145307D02*
X127171428Y-80085783D01*
X127171428Y-80085783D02*
X127178571Y-80050069D01*
X127178571Y-80050069D02*
X127192857Y-80026259D01*
X127192857Y-80026259D02*
X127214285Y-80014354D01*
X127214285Y-80014354D02*
X127242857Y-80014354D01*
X127242857Y-80014354D02*
X127264285Y-80026259D01*
X127264285Y-80026259D02*
X127278571Y-80050069D01*
X127278571Y-80050069D02*
X127285714Y-80085783D01*
X127285714Y-80085783D02*
X127285714Y-80145307D01*
X127285714Y-80145307D02*
X127278571Y-80181021D01*
X127278571Y-80181021D02*
X127264285Y-80204830D01*
X127264285Y-80204830D02*
X127249999Y-80216735D01*
X127249999Y-80216735D02*
X127249999Y-80264354D01*
X127249999Y-80264354D02*
X127285714Y-80264354D01*
X127033333Y-80444961D02*
X127000000Y-80397342D01*
X126976190Y-80444961D02*
X126976190Y-80344961D01*
X126976190Y-80344961D02*
X127014285Y-80344961D01*
X127014285Y-80344961D02*
X127023809Y-80349723D01*
X127023809Y-80349723D02*
X127028571Y-80354485D01*
X127028571Y-80354485D02*
X127033333Y-80364009D01*
X127033333Y-80364009D02*
X127033333Y-80378295D01*
X127033333Y-80378295D02*
X127028571Y-80387819D01*
X127028571Y-80387819D02*
X127023809Y-80392580D01*
X127023809Y-80392580D02*
X127014285Y-80397342D01*
X127014285Y-80397342D02*
X126976190Y-80397342D01*
X127119047Y-80378295D02*
X127119047Y-80444961D01*
X127095238Y-80340200D02*
X127071428Y-80411628D01*
X127071428Y-80411628D02*
X127133333Y-80411628D01*
X126950000Y-78264354D02*
X126864286Y-78264354D01*
X126907143Y-78264354D02*
X126907143Y-78014354D01*
X126907143Y-78014354D02*
X126892857Y-78050069D01*
X126892857Y-78050069D02*
X126878572Y-78073878D01*
X126878572Y-78073878D02*
X126864286Y-78085783D01*
X127014286Y-78097688D02*
X127014286Y-78347688D01*
X127085714Y-78228640D02*
X127092857Y-78252450D01*
X127092857Y-78252450D02*
X127107143Y-78264354D01*
X127014286Y-78228640D02*
X127021429Y-78252450D01*
X127021429Y-78252450D02*
X127035714Y-78264354D01*
X127035714Y-78264354D02*
X127064286Y-78264354D01*
X127064286Y-78264354D02*
X127078572Y-78252450D01*
X127078572Y-78252450D02*
X127085714Y-78228640D01*
X127085714Y-78228640D02*
X127085714Y-78097688D01*
X127221429Y-78133402D02*
X127171429Y-78133402D01*
X127171429Y-78264354D02*
X127171429Y-78014354D01*
X127171429Y-78014354D02*
X127242857Y-78014354D01*
X127033333Y-78435438D02*
X127028571Y-78440200D01*
X127028571Y-78440200D02*
X127014285Y-78444961D01*
X127014285Y-78444961D02*
X127004761Y-78444961D01*
X127004761Y-78444961D02*
X126990476Y-78440200D01*
X126990476Y-78440200D02*
X126980952Y-78430676D01*
X126980952Y-78430676D02*
X126976190Y-78421152D01*
X126976190Y-78421152D02*
X126971428Y-78402104D01*
X126971428Y-78402104D02*
X126971428Y-78387819D01*
X126971428Y-78387819D02*
X126976190Y-78368771D01*
X126976190Y-78368771D02*
X126980952Y-78359247D01*
X126980952Y-78359247D02*
X126990476Y-78349723D01*
X126990476Y-78349723D02*
X127004761Y-78344961D01*
X127004761Y-78344961D02*
X127014285Y-78344961D01*
X127014285Y-78344961D02*
X127028571Y-78349723D01*
X127028571Y-78349723D02*
X127033333Y-78354485D01*
X127119047Y-78344961D02*
X127100000Y-78344961D01*
X127100000Y-78344961D02*
X127090476Y-78349723D01*
X127090476Y-78349723D02*
X127085714Y-78354485D01*
X127085714Y-78354485D02*
X127076190Y-78368771D01*
X127076190Y-78368771D02*
X127071428Y-78387819D01*
X127071428Y-78387819D02*
X127071428Y-78425914D01*
X127071428Y-78425914D02*
X127076190Y-78435438D01*
X127076190Y-78435438D02*
X127080952Y-78440200D01*
X127080952Y-78440200D02*
X127090476Y-78444961D01*
X127090476Y-78444961D02*
X127109523Y-78444961D01*
X127109523Y-78444961D02*
X127119047Y-78440200D01*
X127119047Y-78440200D02*
X127123809Y-78435438D01*
X127123809Y-78435438D02*
X127128571Y-78425914D01*
X127128571Y-78425914D02*
X127128571Y-78402104D01*
X127128571Y-78402104D02*
X127123809Y-78392580D01*
X127123809Y-78392580D02*
X127119047Y-78387819D01*
X127119047Y-78387819D02*
X127109523Y-78383057D01*
X127109523Y-78383057D02*
X127090476Y-78383057D01*
X127090476Y-78383057D02*
X127080952Y-78387819D01*
X127080952Y-78387819D02*
X127076190Y-78392580D01*
X127076190Y-78392580D02*
X127071428Y-78402104D01*
X126874999Y-81264354D02*
X126789285Y-81264354D01*
X126832142Y-81264354D02*
X126832142Y-81014354D01*
X126832142Y-81014354D02*
X126817856Y-81050069D01*
X126817856Y-81050069D02*
X126803571Y-81073878D01*
X126803571Y-81073878D02*
X126789285Y-81085783D01*
X126967856Y-81014354D02*
X126982142Y-81014354D01*
X126982142Y-81014354D02*
X126996428Y-81026259D01*
X126996428Y-81026259D02*
X127003571Y-81038164D01*
X127003571Y-81038164D02*
X127010713Y-81061973D01*
X127010713Y-81061973D02*
X127017856Y-81109592D01*
X127017856Y-81109592D02*
X127017856Y-81169116D01*
X127017856Y-81169116D02*
X127010713Y-81216735D01*
X127010713Y-81216735D02*
X127003571Y-81240545D01*
X127003571Y-81240545D02*
X126996428Y-81252450D01*
X126996428Y-81252450D02*
X126982142Y-81264354D01*
X126982142Y-81264354D02*
X126967856Y-81264354D01*
X126967856Y-81264354D02*
X126953571Y-81252450D01*
X126953571Y-81252450D02*
X126946428Y-81240545D01*
X126946428Y-81240545D02*
X126939285Y-81216735D01*
X126939285Y-81216735D02*
X126932142Y-81169116D01*
X126932142Y-81169116D02*
X126932142Y-81109592D01*
X126932142Y-81109592D02*
X126939285Y-81061973D01*
X126939285Y-81061973D02*
X126946428Y-81038164D01*
X126946428Y-81038164D02*
X126953571Y-81026259D01*
X126953571Y-81026259D02*
X126967856Y-81014354D01*
X127082142Y-81264354D02*
X127082142Y-81014354D01*
X127096428Y-81169116D02*
X127139285Y-81264354D01*
X127139285Y-81097688D02*
X127082142Y-81192926D01*
X127196428Y-81264354D02*
X127232142Y-81264354D01*
X127232142Y-81264354D02*
X127232142Y-81216735D01*
X127232142Y-81216735D02*
X127217857Y-81204830D01*
X127217857Y-81204830D02*
X127203571Y-81181021D01*
X127203571Y-81181021D02*
X127196428Y-81145307D01*
X127196428Y-81145307D02*
X127196428Y-81085783D01*
X127196428Y-81085783D02*
X127203571Y-81050069D01*
X127203571Y-81050069D02*
X127217857Y-81026259D01*
X127217857Y-81026259D02*
X127239285Y-81014354D01*
X127239285Y-81014354D02*
X127267857Y-81014354D01*
X127267857Y-81014354D02*
X127289285Y-81026259D01*
X127289285Y-81026259D02*
X127303571Y-81050069D01*
X127303571Y-81050069D02*
X127310714Y-81085783D01*
X127310714Y-81085783D02*
X127310714Y-81145307D01*
X127310714Y-81145307D02*
X127303571Y-81181021D01*
X127303571Y-81181021D02*
X127289285Y-81204830D01*
X127289285Y-81204830D02*
X127274999Y-81216735D01*
X127274999Y-81216735D02*
X127274999Y-81264354D01*
X127274999Y-81264354D02*
X127310714Y-81264354D01*
X127033333Y-81444961D02*
X127000000Y-81397342D01*
X126976190Y-81444961D02*
X126976190Y-81344961D01*
X126976190Y-81344961D02*
X127014285Y-81344961D01*
X127014285Y-81344961D02*
X127023809Y-81349723D01*
X127023809Y-81349723D02*
X127028571Y-81354485D01*
X127028571Y-81354485D02*
X127033333Y-81364009D01*
X127033333Y-81364009D02*
X127033333Y-81378295D01*
X127033333Y-81378295D02*
X127028571Y-81387819D01*
X127028571Y-81387819D02*
X127023809Y-81392580D01*
X127023809Y-81392580D02*
X127014285Y-81397342D01*
X127014285Y-81397342D02*
X126976190Y-81397342D01*
X127066666Y-81344961D02*
X127128571Y-81344961D01*
X127128571Y-81344961D02*
X127095238Y-81383057D01*
X127095238Y-81383057D02*
X127109523Y-81383057D01*
X127109523Y-81383057D02*
X127119047Y-81387819D01*
X127119047Y-81387819D02*
X127123809Y-81392580D01*
X127123809Y-81392580D02*
X127128571Y-81402104D01*
X127128571Y-81402104D02*
X127128571Y-81425914D01*
X127128571Y-81425914D02*
X127123809Y-81435438D01*
X127123809Y-81435438D02*
X127119047Y-81440200D01*
X127119047Y-81440200D02*
X127109523Y-81444961D01*
X127109523Y-81444961D02*
X127080952Y-81444961D01*
X127080952Y-81444961D02*
X127071428Y-81440200D01*
X127071428Y-81440200D02*
X127066666Y-81435438D01*
X126950000Y-79464354D02*
X126864286Y-79464354D01*
X126907143Y-79464354D02*
X126907143Y-79214354D01*
X126907143Y-79214354D02*
X126892857Y-79250069D01*
X126892857Y-79250069D02*
X126878572Y-79273878D01*
X126878572Y-79273878D02*
X126864286Y-79285783D01*
X127014286Y-79297688D02*
X127014286Y-79547688D01*
X127085714Y-79428640D02*
X127092857Y-79452450D01*
X127092857Y-79452450D02*
X127107143Y-79464354D01*
X127014286Y-79428640D02*
X127021429Y-79452450D01*
X127021429Y-79452450D02*
X127035714Y-79464354D01*
X127035714Y-79464354D02*
X127064286Y-79464354D01*
X127064286Y-79464354D02*
X127078572Y-79452450D01*
X127078572Y-79452450D02*
X127085714Y-79428640D01*
X127085714Y-79428640D02*
X127085714Y-79297688D01*
X127221429Y-79333402D02*
X127171429Y-79333402D01*
X127171429Y-79464354D02*
X127171429Y-79214354D01*
X127171429Y-79214354D02*
X127242857Y-79214354D01*
X127033333Y-79135438D02*
X127028571Y-79140200D01*
X127028571Y-79140200D02*
X127014285Y-79144961D01*
X127014285Y-79144961D02*
X127004761Y-79144961D01*
X127004761Y-79144961D02*
X126990476Y-79140200D01*
X126990476Y-79140200D02*
X126980952Y-79130676D01*
X126980952Y-79130676D02*
X126976190Y-79121152D01*
X126976190Y-79121152D02*
X126971428Y-79102104D01*
X126971428Y-79102104D02*
X126971428Y-79087819D01*
X126971428Y-79087819D02*
X126976190Y-79068771D01*
X126976190Y-79068771D02*
X126980952Y-79059247D01*
X126980952Y-79059247D02*
X126990476Y-79049723D01*
X126990476Y-79049723D02*
X127004761Y-79044961D01*
X127004761Y-79044961D02*
X127014285Y-79044961D01*
X127014285Y-79044961D02*
X127028571Y-79049723D01*
X127028571Y-79049723D02*
X127033333Y-79054485D01*
X127119047Y-79078295D02*
X127119047Y-79144961D01*
X127095238Y-79040200D02*
X127071428Y-79111628D01*
X127071428Y-79111628D02*
X127133333Y-79111628D01*
D13*
X121564895Y-64952380D02*
X122364895Y-64785714D01*
X122364895Y-64785714D02*
X121564895Y-64619047D01*
X122364895Y-64452381D02*
X121564895Y-64452381D01*
X121564895Y-64452381D02*
X122136323Y-64285714D01*
X122136323Y-64285714D02*
X121564895Y-64119048D01*
X121564895Y-64119048D02*
X122364895Y-64119048D01*
D10*
X124454819Y-65261904D02*
X123454819Y-65261904D01*
X123931009Y-65261904D02*
X123931009Y-64690476D01*
X124454819Y-64690476D02*
X123454819Y-64690476D01*
X124454819Y-63690476D02*
X124454819Y-64261904D01*
X124454819Y-63976190D02*
X123454819Y-63976190D01*
X123454819Y-63976190D02*
X123597676Y-64071428D01*
X123597676Y-64071428D02*
X123692914Y-64166666D01*
X123692914Y-64166666D02*
X123740533Y-64261904D01*
D11*
X138464354Y-76349999D02*
X138464354Y-76435713D01*
X138464354Y-76392856D02*
X138214354Y-76392856D01*
X138214354Y-76392856D02*
X138250069Y-76407142D01*
X138250069Y-76407142D02*
X138273878Y-76421427D01*
X138273878Y-76421427D02*
X138285783Y-76435713D01*
X138297688Y-76285713D02*
X138547688Y-76285713D01*
X138428640Y-76214285D02*
X138452450Y-76207142D01*
X138452450Y-76207142D02*
X138464354Y-76192856D01*
X138428640Y-76285713D02*
X138452450Y-76278570D01*
X138452450Y-76278570D02*
X138464354Y-76264285D01*
X138464354Y-76264285D02*
X138464354Y-76235713D01*
X138464354Y-76235713D02*
X138452450Y-76221428D01*
X138452450Y-76221428D02*
X138428640Y-76214285D01*
X138428640Y-76214285D02*
X138297688Y-76214285D01*
X138333402Y-76078570D02*
X138333402Y-76128570D01*
X138464354Y-76128570D02*
X138214354Y-76128570D01*
X138214354Y-76128570D02*
X138214354Y-76057142D01*
X138135438Y-76314285D02*
X138140200Y-76319047D01*
X138140200Y-76319047D02*
X138144961Y-76333333D01*
X138144961Y-76333333D02*
X138144961Y-76342857D01*
X138144961Y-76342857D02*
X138140200Y-76357142D01*
X138140200Y-76357142D02*
X138130676Y-76366666D01*
X138130676Y-76366666D02*
X138121152Y-76371428D01*
X138121152Y-76371428D02*
X138102104Y-76376190D01*
X138102104Y-76376190D02*
X138087819Y-76376190D01*
X138087819Y-76376190D02*
X138068771Y-76371428D01*
X138068771Y-76371428D02*
X138059247Y-76366666D01*
X138059247Y-76366666D02*
X138049723Y-76357142D01*
X138049723Y-76357142D02*
X138044961Y-76342857D01*
X138044961Y-76342857D02*
X138044961Y-76333333D01*
X138044961Y-76333333D02*
X138049723Y-76319047D01*
X138049723Y-76319047D02*
X138054485Y-76314285D01*
X138144961Y-76219047D02*
X138144961Y-76276190D01*
X138144961Y-76247618D02*
X138044961Y-76247618D01*
X138044961Y-76247618D02*
X138059247Y-76257142D01*
X138059247Y-76257142D02*
X138068771Y-76266666D01*
X138068771Y-76266666D02*
X138073533Y-76276190D01*
X138144961Y-76123809D02*
X138144961Y-76180952D01*
X138144961Y-76152380D02*
X138044961Y-76152380D01*
X138044961Y-76152380D02*
X138059247Y-76161904D01*
X138059247Y-76161904D02*
X138068771Y-76171428D01*
X138068771Y-76171428D02*
X138073533Y-76180952D01*
D12*
X128127409Y-70185713D02*
X128127409Y-69999999D01*
X128127409Y-69999999D02*
X128317885Y-70099999D01*
X128317885Y-70099999D02*
X128317885Y-70057142D01*
X128317885Y-70057142D02*
X128341695Y-70028571D01*
X128341695Y-70028571D02*
X128365504Y-70014285D01*
X128365504Y-70014285D02*
X128413123Y-69999999D01*
X128413123Y-69999999D02*
X128532171Y-69999999D01*
X128532171Y-69999999D02*
X128579790Y-70014285D01*
X128579790Y-70014285D02*
X128603600Y-70028571D01*
X128603600Y-70028571D02*
X128627409Y-70057142D01*
X128627409Y-70057142D02*
X128627409Y-70142856D01*
X128627409Y-70142856D02*
X128603600Y-70171428D01*
X128603600Y-70171428D02*
X128579790Y-70185713D01*
X128127409Y-69814285D02*
X128127409Y-69785714D01*
X128127409Y-69785714D02*
X128151219Y-69757142D01*
X128151219Y-69757142D02*
X128175028Y-69742857D01*
X128175028Y-69742857D02*
X128222647Y-69728571D01*
X128222647Y-69728571D02*
X128317885Y-69714285D01*
X128317885Y-69714285D02*
X128436933Y-69714285D01*
X128436933Y-69714285D02*
X128532171Y-69728571D01*
X128532171Y-69728571D02*
X128579790Y-69742857D01*
X128579790Y-69742857D02*
X128603600Y-69757142D01*
X128603600Y-69757142D02*
X128627409Y-69785714D01*
X128627409Y-69785714D02*
X128627409Y-69814285D01*
X128627409Y-69814285D02*
X128603600Y-69842857D01*
X128603600Y-69842857D02*
X128579790Y-69857142D01*
X128579790Y-69857142D02*
X128532171Y-69871428D01*
X128532171Y-69871428D02*
X128436933Y-69885714D01*
X128436933Y-69885714D02*
X128317885Y-69885714D01*
X128317885Y-69885714D02*
X128222647Y-69871428D01*
X128222647Y-69871428D02*
X128175028Y-69857142D01*
X128175028Y-69857142D02*
X128151219Y-69842857D01*
X128151219Y-69842857D02*
X128127409Y-69814285D01*
X128627409Y-69585714D02*
X128127409Y-69585714D01*
X128127409Y-69585714D02*
X128627409Y-69414285D01*
X128627409Y-69414285D02*
X128127409Y-69414285D01*
X128127409Y-69214285D02*
X128127409Y-69185714D01*
X128127409Y-69185714D02*
X128151219Y-69157142D01*
X128151219Y-69157142D02*
X128175028Y-69142857D01*
X128175028Y-69142857D02*
X128222647Y-69128571D01*
X128222647Y-69128571D02*
X128317885Y-69114285D01*
X128317885Y-69114285D02*
X128436933Y-69114285D01*
X128436933Y-69114285D02*
X128532171Y-69128571D01*
X128532171Y-69128571D02*
X128579790Y-69142857D01*
X128579790Y-69142857D02*
X128603600Y-69157142D01*
X128603600Y-69157142D02*
X128627409Y-69185714D01*
X128627409Y-69185714D02*
X128627409Y-69214285D01*
X128627409Y-69214285D02*
X128603600Y-69242857D01*
X128603600Y-69242857D02*
X128579790Y-69257142D01*
X128579790Y-69257142D02*
X128532171Y-69271428D01*
X128532171Y-69271428D02*
X128436933Y-69285714D01*
X128436933Y-69285714D02*
X128317885Y-69285714D01*
X128317885Y-69285714D02*
X128222647Y-69271428D01*
X128222647Y-69271428D02*
X128175028Y-69257142D01*
X128175028Y-69257142D02*
X128151219Y-69242857D01*
X128151219Y-69242857D02*
X128127409Y-69214285D01*
X128127409Y-68857143D02*
X128127409Y-68914285D01*
X128127409Y-68914285D02*
X128151219Y-68942857D01*
X128151219Y-68942857D02*
X128175028Y-68957143D01*
X128175028Y-68957143D02*
X128246457Y-68985714D01*
X128246457Y-68985714D02*
X128341695Y-69000000D01*
X128341695Y-69000000D02*
X128532171Y-69000000D01*
X128532171Y-69000000D02*
X128579790Y-68985714D01*
X128579790Y-68985714D02*
X128603600Y-68971428D01*
X128603600Y-68971428D02*
X128627409Y-68942857D01*
X128627409Y-68942857D02*
X128627409Y-68885714D01*
X128627409Y-68885714D02*
X128603600Y-68857143D01*
X128603600Y-68857143D02*
X128579790Y-68842857D01*
X128579790Y-68842857D02*
X128532171Y-68828571D01*
X128532171Y-68828571D02*
X128413123Y-68828571D01*
X128413123Y-68828571D02*
X128365504Y-68842857D01*
X128365504Y-68842857D02*
X128341695Y-68857143D01*
X128341695Y-68857143D02*
X128317885Y-68885714D01*
X128317885Y-68885714D02*
X128317885Y-68942857D01*
X128317885Y-68942857D02*
X128341695Y-68971428D01*
X128341695Y-68971428D02*
X128365504Y-68985714D01*
X128365504Y-68985714D02*
X128413123Y-69000000D01*
D10*
X129950057Y-69595238D02*
X129902438Y-69690476D01*
X129902438Y-69690476D02*
X129807200Y-69785714D01*
X129807200Y-69785714D02*
X129664342Y-69928571D01*
X129664342Y-69928571D02*
X129616723Y-70023809D01*
X129616723Y-70023809D02*
X129616723Y-70119047D01*
X129854819Y-70071428D02*
X129807200Y-70166666D01*
X129807200Y-70166666D02*
X129711961Y-70261904D01*
X129711961Y-70261904D02*
X129521485Y-70309523D01*
X129521485Y-70309523D02*
X129188152Y-70309523D01*
X129188152Y-70309523D02*
X128997676Y-70261904D01*
X128997676Y-70261904D02*
X128902438Y-70166666D01*
X128902438Y-70166666D02*
X128854819Y-70071428D01*
X128854819Y-70071428D02*
X128854819Y-69880952D01*
X128854819Y-69880952D02*
X128902438Y-69785714D01*
X128902438Y-69785714D02*
X128997676Y-69690476D01*
X128997676Y-69690476D02*
X129188152Y-69642857D01*
X129188152Y-69642857D02*
X129521485Y-69642857D01*
X129521485Y-69642857D02*
X129711961Y-69690476D01*
X129711961Y-69690476D02*
X129807200Y-69785714D01*
X129807200Y-69785714D02*
X129854819Y-69880952D01*
X129854819Y-69880952D02*
X129854819Y-70071428D01*
X128950057Y-69261904D02*
X128902438Y-69214285D01*
X128902438Y-69214285D02*
X128854819Y-69119047D01*
X128854819Y-69119047D02*
X128854819Y-68880952D01*
X128854819Y-68880952D02*
X128902438Y-68785714D01*
X128902438Y-68785714D02*
X128950057Y-68738095D01*
X128950057Y-68738095D02*
X129045295Y-68690476D01*
X129045295Y-68690476D02*
X129140533Y-68690476D01*
X129140533Y-68690476D02*
X129283390Y-68738095D01*
X129283390Y-68738095D02*
X129854819Y-69309523D01*
X129854819Y-69309523D02*
X129854819Y-68690476D01*
D14*
X141791971Y-82099999D02*
X141982447Y-82099999D01*
X141582447Y-82166666D02*
X141791971Y-82099999D01*
X141791971Y-82099999D02*
X141582447Y-82033333D01*
D11*
X142219961Y-82173809D02*
X142119961Y-82173809D01*
X142119961Y-82173809D02*
X142119961Y-82149999D01*
X142119961Y-82149999D02*
X142124723Y-82135714D01*
X142124723Y-82135714D02*
X142134247Y-82126190D01*
X142134247Y-82126190D02*
X142143771Y-82121428D01*
X142143771Y-82121428D02*
X142162819Y-82116666D01*
X142162819Y-82116666D02*
X142177104Y-82116666D01*
X142177104Y-82116666D02*
X142196152Y-82121428D01*
X142196152Y-82121428D02*
X142205676Y-82126190D01*
X142205676Y-82126190D02*
X142215200Y-82135714D01*
X142215200Y-82135714D02*
X142219961Y-82149999D01*
X142219961Y-82149999D02*
X142219961Y-82173809D01*
X142129485Y-82078571D02*
X142124723Y-82073809D01*
X142124723Y-82073809D02*
X142119961Y-82064285D01*
X142119961Y-82064285D02*
X142119961Y-82040476D01*
X142119961Y-82040476D02*
X142124723Y-82030952D01*
X142124723Y-82030952D02*
X142129485Y-82026190D01*
X142129485Y-82026190D02*
X142139009Y-82021428D01*
X142139009Y-82021428D02*
X142148533Y-82021428D01*
X142148533Y-82021428D02*
X142162819Y-82026190D01*
X142162819Y-82026190D02*
X142219961Y-82083333D01*
X142219961Y-82083333D02*
X142219961Y-82021428D01*
X141747688Y-80025000D02*
X141914354Y-80025000D01*
X141652450Y-80060714D02*
X141831021Y-80096428D01*
X141831021Y-80096428D02*
X141831021Y-80003571D01*
X141890545Y-79946428D02*
X141902450Y-79939285D01*
X141902450Y-79939285D02*
X141914354Y-79946428D01*
X141914354Y-79946428D02*
X141902450Y-79953571D01*
X141902450Y-79953571D02*
X141890545Y-79946428D01*
X141890545Y-79946428D02*
X141914354Y-79946428D01*
X141664354Y-79889285D02*
X141664354Y-79789285D01*
X141664354Y-79789285D02*
X141914354Y-79853571D01*
X141914354Y-79732142D02*
X141664354Y-79732142D01*
X141819116Y-79717857D02*
X141914354Y-79674999D01*
X141747688Y-79674999D02*
X141842926Y-79732142D01*
X141914354Y-79617856D02*
X141914354Y-79582142D01*
X141914354Y-79582142D02*
X141866735Y-79582142D01*
X141866735Y-79582142D02*
X141854830Y-79596428D01*
X141854830Y-79596428D02*
X141831021Y-79610713D01*
X141831021Y-79610713D02*
X141795307Y-79617856D01*
X141795307Y-79617856D02*
X141735783Y-79617856D01*
X141735783Y-79617856D02*
X141700069Y-79610713D01*
X141700069Y-79610713D02*
X141676259Y-79596428D01*
X141676259Y-79596428D02*
X141664354Y-79574999D01*
X141664354Y-79574999D02*
X141664354Y-79546428D01*
X141664354Y-79546428D02*
X141676259Y-79524999D01*
X141676259Y-79524999D02*
X141700069Y-79510713D01*
X141700069Y-79510713D02*
X141735783Y-79503570D01*
X141735783Y-79503570D02*
X141795307Y-79503570D01*
X141795307Y-79503570D02*
X141831021Y-79510713D01*
X141831021Y-79510713D02*
X141854830Y-79524999D01*
X141854830Y-79524999D02*
X141866735Y-79539285D01*
X141866735Y-79539285D02*
X141914354Y-79539285D01*
X141914354Y-79539285D02*
X141914354Y-79503570D01*
X141594961Y-79864285D02*
X141547342Y-79897618D01*
X141594961Y-79921428D02*
X141494961Y-79921428D01*
X141494961Y-79921428D02*
X141494961Y-79883333D01*
X141494961Y-79883333D02*
X141499723Y-79873809D01*
X141499723Y-79873809D02*
X141504485Y-79869047D01*
X141504485Y-79869047D02*
X141514009Y-79864285D01*
X141514009Y-79864285D02*
X141528295Y-79864285D01*
X141528295Y-79864285D02*
X141537819Y-79869047D01*
X141537819Y-79869047D02*
X141542580Y-79873809D01*
X141542580Y-79873809D02*
X141547342Y-79883333D01*
X141547342Y-79883333D02*
X141547342Y-79921428D01*
X141594961Y-79769047D02*
X141594961Y-79826190D01*
X141594961Y-79797618D02*
X141494961Y-79797618D01*
X141494961Y-79797618D02*
X141509247Y-79807142D01*
X141509247Y-79807142D02*
X141518771Y-79816666D01*
X141518771Y-79816666D02*
X141523533Y-79826190D01*
X141494961Y-79683333D02*
X141494961Y-79702380D01*
X141494961Y-79702380D02*
X141499723Y-79711904D01*
X141499723Y-79711904D02*
X141504485Y-79716666D01*
X141504485Y-79716666D02*
X141518771Y-79726190D01*
X141518771Y-79726190D02*
X141537819Y-79730952D01*
X141537819Y-79730952D02*
X141575914Y-79730952D01*
X141575914Y-79730952D02*
X141585438Y-79726190D01*
X141585438Y-79726190D02*
X141590200Y-79721428D01*
X141590200Y-79721428D02*
X141594961Y-79711904D01*
X141594961Y-79711904D02*
X141594961Y-79692857D01*
X141594961Y-79692857D02*
X141590200Y-79683333D01*
X141590200Y-79683333D02*
X141585438Y-79678571D01*
X141585438Y-79678571D02*
X141575914Y-79673809D01*
X141575914Y-79673809D02*
X141552104Y-79673809D01*
X141552104Y-79673809D02*
X141542580Y-79678571D01*
X141542580Y-79678571D02*
X141537819Y-79683333D01*
X141537819Y-79683333D02*
X141533057Y-79692857D01*
X141533057Y-79692857D02*
X141533057Y-79711904D01*
X141533057Y-79711904D02*
X141537819Y-79721428D01*
X141537819Y-79721428D02*
X141542580Y-79726190D01*
X141542580Y-79726190D02*
X141552104Y-79730952D01*
D10*
X129788095Y-82354819D02*
X130359523Y-82354819D01*
X130073809Y-83354819D02*
X130073809Y-82354819D01*
X130692857Y-83354819D02*
X130692857Y-82354819D01*
X130692857Y-82354819D02*
X131026190Y-83069104D01*
X131026190Y-83069104D02*
X131359523Y-82354819D01*
X131359523Y-82354819D02*
X131359523Y-83354819D01*
X132407142Y-83259580D02*
X132359523Y-83307200D01*
X132359523Y-83307200D02*
X132216666Y-83354819D01*
X132216666Y-83354819D02*
X132121428Y-83354819D01*
X132121428Y-83354819D02*
X131978571Y-83307200D01*
X131978571Y-83307200D02*
X131883333Y-83211961D01*
X131883333Y-83211961D02*
X131835714Y-83116723D01*
X131835714Y-83116723D02*
X131788095Y-82926247D01*
X131788095Y-82926247D02*
X131788095Y-82783390D01*
X131788095Y-82783390D02*
X131835714Y-82592914D01*
X131835714Y-82592914D02*
X131883333Y-82497676D01*
X131883333Y-82497676D02*
X131978571Y-82402438D01*
X131978571Y-82402438D02*
X132121428Y-82354819D01*
X132121428Y-82354819D02*
X132216666Y-82354819D01*
X132216666Y-82354819D02*
X132359523Y-82402438D01*
X132359523Y-82402438D02*
X132407142Y-82450057D01*
X132788095Y-82450057D02*
X132835714Y-82402438D01*
X132835714Y-82402438D02*
X132930952Y-82354819D01*
X132930952Y-82354819D02*
X133169047Y-82354819D01*
X133169047Y-82354819D02*
X133264285Y-82402438D01*
X133264285Y-82402438D02*
X133311904Y-82450057D01*
X133311904Y-82450057D02*
X133359523Y-82545295D01*
X133359523Y-82545295D02*
X133359523Y-82640533D01*
X133359523Y-82640533D02*
X133311904Y-82783390D01*
X133311904Y-82783390D02*
X132740476Y-83354819D01*
X132740476Y-83354819D02*
X133359523Y-83354819D01*
X134311904Y-83354819D02*
X133740476Y-83354819D01*
X134026190Y-83354819D02*
X134026190Y-82354819D01*
X134026190Y-82354819D02*
X133930952Y-82497676D01*
X133930952Y-82497676D02*
X133835714Y-82592914D01*
X133835714Y-82592914D02*
X133740476Y-82640533D01*
X135169047Y-82354819D02*
X134978571Y-82354819D01*
X134978571Y-82354819D02*
X134883333Y-82402438D01*
X134883333Y-82402438D02*
X134835714Y-82450057D01*
X134835714Y-82450057D02*
X134740476Y-82592914D01*
X134740476Y-82592914D02*
X134692857Y-82783390D01*
X134692857Y-82783390D02*
X134692857Y-83164342D01*
X134692857Y-83164342D02*
X134740476Y-83259580D01*
X134740476Y-83259580D02*
X134788095Y-83307200D01*
X134788095Y-83307200D02*
X134883333Y-83354819D01*
X134883333Y-83354819D02*
X135073809Y-83354819D01*
X135073809Y-83354819D02*
X135169047Y-83307200D01*
X135169047Y-83307200D02*
X135216666Y-83259580D01*
X135216666Y-83259580D02*
X135264285Y-83164342D01*
X135264285Y-83164342D02*
X135264285Y-82926247D01*
X135264285Y-82926247D02*
X135216666Y-82831009D01*
X135216666Y-82831009D02*
X135169047Y-82783390D01*
X135169047Y-82783390D02*
X135073809Y-82735771D01*
X135073809Y-82735771D02*
X134883333Y-82735771D01*
X134883333Y-82735771D02*
X134788095Y-82783390D01*
X134788095Y-82783390D02*
X134740476Y-82831009D01*
X134740476Y-82831009D02*
X134692857Y-82926247D01*
X135883333Y-82354819D02*
X135978571Y-82354819D01*
X135978571Y-82354819D02*
X136073809Y-82402438D01*
X136073809Y-82402438D02*
X136121428Y-82450057D01*
X136121428Y-82450057D02*
X136169047Y-82545295D01*
X136169047Y-82545295D02*
X136216666Y-82735771D01*
X136216666Y-82735771D02*
X136216666Y-82973866D01*
X136216666Y-82973866D02*
X136169047Y-83164342D01*
X136169047Y-83164342D02*
X136121428Y-83259580D01*
X136121428Y-83259580D02*
X136073809Y-83307200D01*
X136073809Y-83307200D02*
X135978571Y-83354819D01*
X135978571Y-83354819D02*
X135883333Y-83354819D01*
X135883333Y-83354819D02*
X135788095Y-83307200D01*
X135788095Y-83307200D02*
X135740476Y-83259580D01*
X135740476Y-83259580D02*
X135692857Y-83164342D01*
X135692857Y-83164342D02*
X135645238Y-82973866D01*
X135645238Y-82973866D02*
X135645238Y-82735771D01*
X135645238Y-82735771D02*
X135692857Y-82545295D01*
X135692857Y-82545295D02*
X135740476Y-82450057D01*
X135740476Y-82450057D02*
X135788095Y-82402438D01*
X135788095Y-82402438D02*
X135883333Y-82354819D01*
X131857142Y-79436128D02*
X131857142Y-80650414D01*
X131857142Y-80650414D02*
X131928571Y-80793271D01*
X131928571Y-80793271D02*
X132000000Y-80864700D01*
X132000000Y-80864700D02*
X132142857Y-80936128D01*
X132142857Y-80936128D02*
X132428571Y-80936128D01*
X132428571Y-80936128D02*
X132571428Y-80864700D01*
X132571428Y-80864700D02*
X132642857Y-80793271D01*
X132642857Y-80793271D02*
X132714285Y-80650414D01*
X132714285Y-80650414D02*
X132714285Y-79436128D01*
X134214286Y-80936128D02*
X133357143Y-80936128D01*
X133785714Y-80936128D02*
X133785714Y-79436128D01*
X133785714Y-79436128D02*
X133642857Y-79650414D01*
X133642857Y-79650414D02*
X133500000Y-79793271D01*
X133500000Y-79793271D02*
X133357143Y-79864700D01*
D11*
X128964354Y-76349999D02*
X128964354Y-76435713D01*
X128964354Y-76392856D02*
X128714354Y-76392856D01*
X128714354Y-76392856D02*
X128750069Y-76407142D01*
X128750069Y-76407142D02*
X128773878Y-76421427D01*
X128773878Y-76421427D02*
X128785783Y-76435713D01*
X128797688Y-76285713D02*
X129047688Y-76285713D01*
X128928640Y-76214285D02*
X128952450Y-76207142D01*
X128952450Y-76207142D02*
X128964354Y-76192856D01*
X128928640Y-76285713D02*
X128952450Y-76278570D01*
X128952450Y-76278570D02*
X128964354Y-76264285D01*
X128964354Y-76264285D02*
X128964354Y-76235713D01*
X128964354Y-76235713D02*
X128952450Y-76221428D01*
X128952450Y-76221428D02*
X128928640Y-76214285D01*
X128928640Y-76214285D02*
X128797688Y-76214285D01*
X128833402Y-76078570D02*
X128833402Y-76128570D01*
X128964354Y-76128570D02*
X128714354Y-76128570D01*
X128714354Y-76128570D02*
X128714354Y-76057142D01*
X128635438Y-76266666D02*
X128640200Y-76271428D01*
X128640200Y-76271428D02*
X128644961Y-76285714D01*
X128644961Y-76285714D02*
X128644961Y-76295238D01*
X128644961Y-76295238D02*
X128640200Y-76309523D01*
X128640200Y-76309523D02*
X128630676Y-76319047D01*
X128630676Y-76319047D02*
X128621152Y-76323809D01*
X128621152Y-76323809D02*
X128602104Y-76328571D01*
X128602104Y-76328571D02*
X128587819Y-76328571D01*
X128587819Y-76328571D02*
X128568771Y-76323809D01*
X128568771Y-76323809D02*
X128559247Y-76319047D01*
X128559247Y-76319047D02*
X128549723Y-76309523D01*
X128549723Y-76309523D02*
X128544961Y-76295238D01*
X128544961Y-76295238D02*
X128544961Y-76285714D01*
X128544961Y-76285714D02*
X128549723Y-76271428D01*
X128549723Y-76271428D02*
X128554485Y-76266666D01*
X128644961Y-76219047D02*
X128644961Y-76199999D01*
X128644961Y-76199999D02*
X128640200Y-76190476D01*
X128640200Y-76190476D02*
X128635438Y-76185714D01*
X128635438Y-76185714D02*
X128621152Y-76176190D01*
X128621152Y-76176190D02*
X128602104Y-76171428D01*
X128602104Y-76171428D02*
X128564009Y-76171428D01*
X128564009Y-76171428D02*
X128554485Y-76176190D01*
X128554485Y-76176190D02*
X128549723Y-76180952D01*
X128549723Y-76180952D02*
X128544961Y-76190476D01*
X128544961Y-76190476D02*
X128544961Y-76209523D01*
X128544961Y-76209523D02*
X128549723Y-76219047D01*
X128549723Y-76219047D02*
X128554485Y-76223809D01*
X128554485Y-76223809D02*
X128564009Y-76228571D01*
X128564009Y-76228571D02*
X128587819Y-76228571D01*
X128587819Y-76228571D02*
X128597342Y-76223809D01*
X128597342Y-76223809D02*
X128602104Y-76219047D01*
X128602104Y-76219047D02*
X128606866Y-76209523D01*
X128606866Y-76209523D02*
X128606866Y-76190476D01*
X128606866Y-76190476D02*
X128602104Y-76180952D01*
X128602104Y-76180952D02*
X128597342Y-76176190D01*
X128597342Y-76176190D02*
X128587819Y-76171428D01*
D12*
X132314286Y-72127409D02*
X132500000Y-72127409D01*
X132500000Y-72127409D02*
X132400000Y-72317885D01*
X132400000Y-72317885D02*
X132442857Y-72317885D01*
X132442857Y-72317885D02*
X132471429Y-72341695D01*
X132471429Y-72341695D02*
X132485714Y-72365504D01*
X132485714Y-72365504D02*
X132500000Y-72413123D01*
X132500000Y-72413123D02*
X132500000Y-72532171D01*
X132500000Y-72532171D02*
X132485714Y-72579790D01*
X132485714Y-72579790D02*
X132471429Y-72603600D01*
X132471429Y-72603600D02*
X132442857Y-72627409D01*
X132442857Y-72627409D02*
X132357143Y-72627409D01*
X132357143Y-72627409D02*
X132328571Y-72603600D01*
X132328571Y-72603600D02*
X132314286Y-72579790D01*
X132685714Y-72127409D02*
X132714285Y-72127409D01*
X132714285Y-72127409D02*
X132742857Y-72151219D01*
X132742857Y-72151219D02*
X132757143Y-72175028D01*
X132757143Y-72175028D02*
X132771428Y-72222647D01*
X132771428Y-72222647D02*
X132785714Y-72317885D01*
X132785714Y-72317885D02*
X132785714Y-72436933D01*
X132785714Y-72436933D02*
X132771428Y-72532171D01*
X132771428Y-72532171D02*
X132757143Y-72579790D01*
X132757143Y-72579790D02*
X132742857Y-72603600D01*
X132742857Y-72603600D02*
X132714285Y-72627409D01*
X132714285Y-72627409D02*
X132685714Y-72627409D01*
X132685714Y-72627409D02*
X132657143Y-72603600D01*
X132657143Y-72603600D02*
X132642857Y-72579790D01*
X132642857Y-72579790D02*
X132628571Y-72532171D01*
X132628571Y-72532171D02*
X132614285Y-72436933D01*
X132614285Y-72436933D02*
X132614285Y-72317885D01*
X132614285Y-72317885D02*
X132628571Y-72222647D01*
X132628571Y-72222647D02*
X132642857Y-72175028D01*
X132642857Y-72175028D02*
X132657143Y-72151219D01*
X132657143Y-72151219D02*
X132685714Y-72127409D01*
X132914285Y-72627409D02*
X132914285Y-72127409D01*
X132914285Y-72127409D02*
X133085714Y-72627409D01*
X133085714Y-72627409D02*
X133085714Y-72127409D01*
X133285714Y-72127409D02*
X133314285Y-72127409D01*
X133314285Y-72127409D02*
X133342857Y-72151219D01*
X133342857Y-72151219D02*
X133357143Y-72175028D01*
X133357143Y-72175028D02*
X133371428Y-72222647D01*
X133371428Y-72222647D02*
X133385714Y-72317885D01*
X133385714Y-72317885D02*
X133385714Y-72436933D01*
X133385714Y-72436933D02*
X133371428Y-72532171D01*
X133371428Y-72532171D02*
X133357143Y-72579790D01*
X133357143Y-72579790D02*
X133342857Y-72603600D01*
X133342857Y-72603600D02*
X133314285Y-72627409D01*
X133314285Y-72627409D02*
X133285714Y-72627409D01*
X133285714Y-72627409D02*
X133257143Y-72603600D01*
X133257143Y-72603600D02*
X133242857Y-72579790D01*
X133242857Y-72579790D02*
X133228571Y-72532171D01*
X133228571Y-72532171D02*
X133214285Y-72436933D01*
X133214285Y-72436933D02*
X133214285Y-72317885D01*
X133214285Y-72317885D02*
X133228571Y-72222647D01*
X133228571Y-72222647D02*
X133242857Y-72175028D01*
X133242857Y-72175028D02*
X133257143Y-72151219D01*
X133257143Y-72151219D02*
X133285714Y-72127409D01*
X133642857Y-72127409D02*
X133585714Y-72127409D01*
X133585714Y-72127409D02*
X133557142Y-72151219D01*
X133557142Y-72151219D02*
X133542857Y-72175028D01*
X133542857Y-72175028D02*
X133514285Y-72246457D01*
X133514285Y-72246457D02*
X133499999Y-72341695D01*
X133499999Y-72341695D02*
X133499999Y-72532171D01*
X133499999Y-72532171D02*
X133514285Y-72579790D01*
X133514285Y-72579790D02*
X133528571Y-72603600D01*
X133528571Y-72603600D02*
X133557142Y-72627409D01*
X133557142Y-72627409D02*
X133614285Y-72627409D01*
X133614285Y-72627409D02*
X133642857Y-72603600D01*
X133642857Y-72603600D02*
X133657142Y-72579790D01*
X133657142Y-72579790D02*
X133671428Y-72532171D01*
X133671428Y-72532171D02*
X133671428Y-72413123D01*
X133671428Y-72413123D02*
X133657142Y-72365504D01*
X133657142Y-72365504D02*
X133642857Y-72341695D01*
X133642857Y-72341695D02*
X133614285Y-72317885D01*
X133614285Y-72317885D02*
X133557142Y-72317885D01*
X133557142Y-72317885D02*
X133528571Y-72341695D01*
X133528571Y-72341695D02*
X133514285Y-72365504D01*
X133514285Y-72365504D02*
X133499999Y-72413123D01*
D10*
X132904761Y-73950057D02*
X132809523Y-73902438D01*
X132809523Y-73902438D02*
X132714285Y-73807200D01*
X132714285Y-73807200D02*
X132571428Y-73664342D01*
X132571428Y-73664342D02*
X132476190Y-73616723D01*
X132476190Y-73616723D02*
X132380952Y-73616723D01*
X132428571Y-73854819D02*
X132333333Y-73807200D01*
X132333333Y-73807200D02*
X132238095Y-73711961D01*
X132238095Y-73711961D02*
X132190476Y-73521485D01*
X132190476Y-73521485D02*
X132190476Y-73188152D01*
X132190476Y-73188152D02*
X132238095Y-72997676D01*
X132238095Y-72997676D02*
X132333333Y-72902438D01*
X132333333Y-72902438D02*
X132428571Y-72854819D01*
X132428571Y-72854819D02*
X132619047Y-72854819D01*
X132619047Y-72854819D02*
X132714285Y-72902438D01*
X132714285Y-72902438D02*
X132809523Y-72997676D01*
X132809523Y-72997676D02*
X132857142Y-73188152D01*
X132857142Y-73188152D02*
X132857142Y-73521485D01*
X132857142Y-73521485D02*
X132809523Y-73711961D01*
X132809523Y-73711961D02*
X132714285Y-73807200D01*
X132714285Y-73807200D02*
X132619047Y-73854819D01*
X132619047Y-73854819D02*
X132428571Y-73854819D01*
X133190476Y-72854819D02*
X133809523Y-72854819D01*
X133809523Y-72854819D02*
X133476190Y-73235771D01*
X133476190Y-73235771D02*
X133619047Y-73235771D01*
X133619047Y-73235771D02*
X133714285Y-73283390D01*
X133714285Y-73283390D02*
X133761904Y-73331009D01*
X133761904Y-73331009D02*
X133809523Y-73426247D01*
X133809523Y-73426247D02*
X133809523Y-73664342D01*
X133809523Y-73664342D02*
X133761904Y-73759580D01*
X133761904Y-73759580D02*
X133714285Y-73807200D01*
X133714285Y-73807200D02*
X133619047Y-73854819D01*
X133619047Y-73854819D02*
X133333333Y-73854819D01*
X133333333Y-73854819D02*
X133238095Y-73807200D01*
X133238095Y-73807200D02*
X133190476Y-73759580D01*
D11*
X143347688Y-74128571D02*
X143514354Y-74128571D01*
X143252450Y-74164285D02*
X143431021Y-74199999D01*
X143431021Y-74199999D02*
X143431021Y-74107142D01*
X143264354Y-74064285D02*
X143264354Y-73964285D01*
X143264354Y-73964285D02*
X143514354Y-74028571D01*
X143514354Y-73914285D02*
X143514354Y-73878571D01*
X143514354Y-73878571D02*
X143466735Y-73878571D01*
X143466735Y-73878571D02*
X143454830Y-73892857D01*
X143454830Y-73892857D02*
X143431021Y-73907142D01*
X143431021Y-73907142D02*
X143395307Y-73914285D01*
X143395307Y-73914285D02*
X143335783Y-73914285D01*
X143335783Y-73914285D02*
X143300069Y-73907142D01*
X143300069Y-73907142D02*
X143276259Y-73892857D01*
X143276259Y-73892857D02*
X143264354Y-73871428D01*
X143264354Y-73871428D02*
X143264354Y-73842857D01*
X143264354Y-73842857D02*
X143276259Y-73821428D01*
X143276259Y-73821428D02*
X143300069Y-73807142D01*
X143300069Y-73807142D02*
X143335783Y-73799999D01*
X143335783Y-73799999D02*
X143395307Y-73799999D01*
X143395307Y-73799999D02*
X143431021Y-73807142D01*
X143431021Y-73807142D02*
X143454830Y-73821428D01*
X143454830Y-73821428D02*
X143466735Y-73835714D01*
X143466735Y-73835714D02*
X143514354Y-73835714D01*
X143514354Y-73835714D02*
X143514354Y-73799999D01*
X143694961Y-74064285D02*
X143647342Y-74097618D01*
X143694961Y-74121428D02*
X143594961Y-74121428D01*
X143594961Y-74121428D02*
X143594961Y-74083333D01*
X143594961Y-74083333D02*
X143599723Y-74073809D01*
X143599723Y-74073809D02*
X143604485Y-74069047D01*
X143604485Y-74069047D02*
X143614009Y-74064285D01*
X143614009Y-74064285D02*
X143628295Y-74064285D01*
X143628295Y-74064285D02*
X143637819Y-74069047D01*
X143637819Y-74069047D02*
X143642580Y-74073809D01*
X143642580Y-74073809D02*
X143647342Y-74083333D01*
X143647342Y-74083333D02*
X143647342Y-74121428D01*
X143694961Y-73969047D02*
X143694961Y-74026190D01*
X143694961Y-73997618D02*
X143594961Y-73997618D01*
X143594961Y-73997618D02*
X143609247Y-74007142D01*
X143609247Y-74007142D02*
X143618771Y-74016666D01*
X143618771Y-74016666D02*
X143623533Y-74026190D01*
X143694961Y-73873809D02*
X143694961Y-73930952D01*
X143694961Y-73902380D02*
X143594961Y-73902380D01*
X143594961Y-73902380D02*
X143609247Y-73911904D01*
X143609247Y-73911904D02*
X143618771Y-73921428D01*
X143618771Y-73921428D02*
X143623533Y-73930952D01*
D12*
X140314286Y-72127409D02*
X140500000Y-72127409D01*
X140500000Y-72127409D02*
X140400000Y-72317885D01*
X140400000Y-72317885D02*
X140442857Y-72317885D01*
X140442857Y-72317885D02*
X140471429Y-72341695D01*
X140471429Y-72341695D02*
X140485714Y-72365504D01*
X140485714Y-72365504D02*
X140500000Y-72413123D01*
X140500000Y-72413123D02*
X140500000Y-72532171D01*
X140500000Y-72532171D02*
X140485714Y-72579790D01*
X140485714Y-72579790D02*
X140471429Y-72603600D01*
X140471429Y-72603600D02*
X140442857Y-72627409D01*
X140442857Y-72627409D02*
X140357143Y-72627409D01*
X140357143Y-72627409D02*
X140328571Y-72603600D01*
X140328571Y-72603600D02*
X140314286Y-72579790D01*
X140685714Y-72127409D02*
X140714285Y-72127409D01*
X140714285Y-72127409D02*
X140742857Y-72151219D01*
X140742857Y-72151219D02*
X140757143Y-72175028D01*
X140757143Y-72175028D02*
X140771428Y-72222647D01*
X140771428Y-72222647D02*
X140785714Y-72317885D01*
X140785714Y-72317885D02*
X140785714Y-72436933D01*
X140785714Y-72436933D02*
X140771428Y-72532171D01*
X140771428Y-72532171D02*
X140757143Y-72579790D01*
X140757143Y-72579790D02*
X140742857Y-72603600D01*
X140742857Y-72603600D02*
X140714285Y-72627409D01*
X140714285Y-72627409D02*
X140685714Y-72627409D01*
X140685714Y-72627409D02*
X140657143Y-72603600D01*
X140657143Y-72603600D02*
X140642857Y-72579790D01*
X140642857Y-72579790D02*
X140628571Y-72532171D01*
X140628571Y-72532171D02*
X140614285Y-72436933D01*
X140614285Y-72436933D02*
X140614285Y-72317885D01*
X140614285Y-72317885D02*
X140628571Y-72222647D01*
X140628571Y-72222647D02*
X140642857Y-72175028D01*
X140642857Y-72175028D02*
X140657143Y-72151219D01*
X140657143Y-72151219D02*
X140685714Y-72127409D01*
X140914285Y-72627409D02*
X140914285Y-72127409D01*
X140914285Y-72127409D02*
X141085714Y-72627409D01*
X141085714Y-72627409D02*
X141085714Y-72127409D01*
X141285714Y-72127409D02*
X141314285Y-72127409D01*
X141314285Y-72127409D02*
X141342857Y-72151219D01*
X141342857Y-72151219D02*
X141357143Y-72175028D01*
X141357143Y-72175028D02*
X141371428Y-72222647D01*
X141371428Y-72222647D02*
X141385714Y-72317885D01*
X141385714Y-72317885D02*
X141385714Y-72436933D01*
X141385714Y-72436933D02*
X141371428Y-72532171D01*
X141371428Y-72532171D02*
X141357143Y-72579790D01*
X141357143Y-72579790D02*
X141342857Y-72603600D01*
X141342857Y-72603600D02*
X141314285Y-72627409D01*
X141314285Y-72627409D02*
X141285714Y-72627409D01*
X141285714Y-72627409D02*
X141257143Y-72603600D01*
X141257143Y-72603600D02*
X141242857Y-72579790D01*
X141242857Y-72579790D02*
X141228571Y-72532171D01*
X141228571Y-72532171D02*
X141214285Y-72436933D01*
X141214285Y-72436933D02*
X141214285Y-72317885D01*
X141214285Y-72317885D02*
X141228571Y-72222647D01*
X141228571Y-72222647D02*
X141242857Y-72175028D01*
X141242857Y-72175028D02*
X141257143Y-72151219D01*
X141257143Y-72151219D02*
X141285714Y-72127409D01*
X141642857Y-72127409D02*
X141585714Y-72127409D01*
X141585714Y-72127409D02*
X141557142Y-72151219D01*
X141557142Y-72151219D02*
X141542857Y-72175028D01*
X141542857Y-72175028D02*
X141514285Y-72246457D01*
X141514285Y-72246457D02*
X141499999Y-72341695D01*
X141499999Y-72341695D02*
X141499999Y-72532171D01*
X141499999Y-72532171D02*
X141514285Y-72579790D01*
X141514285Y-72579790D02*
X141528571Y-72603600D01*
X141528571Y-72603600D02*
X141557142Y-72627409D01*
X141557142Y-72627409D02*
X141614285Y-72627409D01*
X141614285Y-72627409D02*
X141642857Y-72603600D01*
X141642857Y-72603600D02*
X141657142Y-72579790D01*
X141657142Y-72579790D02*
X141671428Y-72532171D01*
X141671428Y-72532171D02*
X141671428Y-72413123D01*
X141671428Y-72413123D02*
X141657142Y-72365504D01*
X141657142Y-72365504D02*
X141642857Y-72341695D01*
X141642857Y-72341695D02*
X141614285Y-72317885D01*
X141614285Y-72317885D02*
X141557142Y-72317885D01*
X141557142Y-72317885D02*
X141528571Y-72341695D01*
X141528571Y-72341695D02*
X141514285Y-72365504D01*
X141514285Y-72365504D02*
X141499999Y-72413123D01*
D10*
X140904761Y-73950057D02*
X140809523Y-73902438D01*
X140809523Y-73902438D02*
X140714285Y-73807200D01*
X140714285Y-73807200D02*
X140571428Y-73664342D01*
X140571428Y-73664342D02*
X140476190Y-73616723D01*
X140476190Y-73616723D02*
X140380952Y-73616723D01*
X140428571Y-73854819D02*
X140333333Y-73807200D01*
X140333333Y-73807200D02*
X140238095Y-73711961D01*
X140238095Y-73711961D02*
X140190476Y-73521485D01*
X140190476Y-73521485D02*
X140190476Y-73188152D01*
X140190476Y-73188152D02*
X140238095Y-72997676D01*
X140238095Y-72997676D02*
X140333333Y-72902438D01*
X140333333Y-72902438D02*
X140428571Y-72854819D01*
X140428571Y-72854819D02*
X140619047Y-72854819D01*
X140619047Y-72854819D02*
X140714285Y-72902438D01*
X140714285Y-72902438D02*
X140809523Y-72997676D01*
X140809523Y-72997676D02*
X140857142Y-73188152D01*
X140857142Y-73188152D02*
X140857142Y-73521485D01*
X140857142Y-73521485D02*
X140809523Y-73711961D01*
X140809523Y-73711961D02*
X140714285Y-73807200D01*
X140714285Y-73807200D02*
X140619047Y-73854819D01*
X140619047Y-73854819D02*
X140428571Y-73854819D01*
X141190476Y-72854819D02*
X141857142Y-72854819D01*
X141857142Y-72854819D02*
X141428571Y-73854819D01*
X141884819Y-73047618D02*
X141884819Y-72428571D01*
X141884819Y-72428571D02*
X142265771Y-72761904D01*
X142265771Y-72761904D02*
X142265771Y-72619047D01*
X142265771Y-72619047D02*
X142313390Y-72523809D01*
X142313390Y-72523809D02*
X142361009Y-72476190D01*
X142361009Y-72476190D02*
X142456247Y-72428571D01*
X142456247Y-72428571D02*
X142694342Y-72428571D01*
X142694342Y-72428571D02*
X142789580Y-72476190D01*
X142789580Y-72476190D02*
X142837200Y-72523809D01*
X142837200Y-72523809D02*
X142884819Y-72619047D01*
X142884819Y-72619047D02*
X142884819Y-72904761D01*
X142884819Y-72904761D02*
X142837200Y-72999999D01*
X142837200Y-72999999D02*
X142789580Y-73047618D01*
X141884819Y-71809523D02*
X141884819Y-71714285D01*
X141884819Y-71714285D02*
X141932438Y-71619047D01*
X141932438Y-71619047D02*
X141980057Y-71571428D01*
X141980057Y-71571428D02*
X142075295Y-71523809D01*
X142075295Y-71523809D02*
X142265771Y-71476190D01*
X142265771Y-71476190D02*
X142503866Y-71476190D01*
X142503866Y-71476190D02*
X142694342Y-71523809D01*
X142694342Y-71523809D02*
X142789580Y-71571428D01*
X142789580Y-71571428D02*
X142837200Y-71619047D01*
X142837200Y-71619047D02*
X142884819Y-71714285D01*
X142884819Y-71714285D02*
X142884819Y-71809523D01*
X142884819Y-71809523D02*
X142837200Y-71904761D01*
X142837200Y-71904761D02*
X142789580Y-71952380D01*
X142789580Y-71952380D02*
X142694342Y-71999999D01*
X142694342Y-71999999D02*
X142503866Y-72047618D01*
X142503866Y-72047618D02*
X142265771Y-72047618D01*
X142265771Y-72047618D02*
X142075295Y-71999999D01*
X142075295Y-71999999D02*
X141980057Y-71952380D01*
X141980057Y-71952380D02*
X141932438Y-71904761D01*
X141932438Y-71904761D02*
X141884819Y-71809523D01*
X142884819Y-71047618D02*
X142218152Y-71047618D01*
X142313390Y-71047618D02*
X142265771Y-70999999D01*
X142265771Y-70999999D02*
X142218152Y-70904761D01*
X142218152Y-70904761D02*
X142218152Y-70761904D01*
X142218152Y-70761904D02*
X142265771Y-70666666D01*
X142265771Y-70666666D02*
X142361009Y-70619047D01*
X142361009Y-70619047D02*
X142884819Y-70619047D01*
X142361009Y-70619047D02*
X142265771Y-70571428D01*
X142265771Y-70571428D02*
X142218152Y-70476190D01*
X142218152Y-70476190D02*
X142218152Y-70333333D01*
X142218152Y-70333333D02*
X142265771Y-70238094D01*
X142265771Y-70238094D02*
X142361009Y-70190475D01*
X142361009Y-70190475D02*
X142884819Y-70190475D01*
X142884819Y-69761904D02*
X142884819Y-69523809D01*
X142884819Y-69523809D02*
X142694342Y-69523809D01*
X142694342Y-69523809D02*
X142646723Y-69619047D01*
X142646723Y-69619047D02*
X142551485Y-69714285D01*
X142551485Y-69714285D02*
X142408628Y-69761904D01*
X142408628Y-69761904D02*
X142170533Y-69761904D01*
X142170533Y-69761904D02*
X142027676Y-69714285D01*
X142027676Y-69714285D02*
X141932438Y-69619047D01*
X141932438Y-69619047D02*
X141884819Y-69476190D01*
X141884819Y-69476190D02*
X141884819Y-69285714D01*
X141884819Y-69285714D02*
X141932438Y-69142857D01*
X141932438Y-69142857D02*
X142027676Y-69047619D01*
X142027676Y-69047619D02*
X142170533Y-69000000D01*
X142170533Y-69000000D02*
X142408628Y-69000000D01*
X142408628Y-69000000D02*
X142551485Y-69047619D01*
X142551485Y-69047619D02*
X142646723Y-69142857D01*
X142646723Y-69142857D02*
X142694342Y-69238095D01*
X142694342Y-69238095D02*
X142884819Y-69238095D01*
X142884819Y-69238095D02*
X142884819Y-69000000D01*
D15*
X144613855Y-71514285D02*
X144232902Y-71780952D01*
X144613855Y-71971428D02*
X143813855Y-71971428D01*
X143813855Y-71971428D02*
X143813855Y-71666666D01*
X143813855Y-71666666D02*
X143851950Y-71590476D01*
X143851950Y-71590476D02*
X143890045Y-71552381D01*
X143890045Y-71552381D02*
X143966236Y-71514285D01*
X143966236Y-71514285D02*
X144080521Y-71514285D01*
X144080521Y-71514285D02*
X144156712Y-71552381D01*
X144156712Y-71552381D02*
X144194807Y-71590476D01*
X144194807Y-71590476D02*
X144232902Y-71666666D01*
X144232902Y-71666666D02*
X144232902Y-71971428D01*
X144613855Y-70752381D02*
X144613855Y-71209524D01*
X144613855Y-70980952D02*
X143813855Y-70980952D01*
X143813855Y-70980952D02*
X143928140Y-71057143D01*
X143928140Y-71057143D02*
X144004331Y-71133333D01*
X144004331Y-71133333D02*
X144042426Y-71209524D01*
X143813855Y-70485714D02*
X143813855Y-69990476D01*
X143813855Y-69990476D02*
X144118617Y-70257142D01*
X144118617Y-70257142D02*
X144118617Y-70142857D01*
X144118617Y-70142857D02*
X144156712Y-70066666D01*
X144156712Y-70066666D02*
X144194807Y-70028571D01*
X144194807Y-70028571D02*
X144270998Y-69990476D01*
X144270998Y-69990476D02*
X144461474Y-69990476D01*
X144461474Y-69990476D02*
X144537664Y-70028571D01*
X144537664Y-70028571D02*
X144575760Y-70066666D01*
X144575760Y-70066666D02*
X144613855Y-70142857D01*
X144613855Y-70142857D02*
X144613855Y-70371428D01*
X144613855Y-70371428D02*
X144575760Y-70447619D01*
X144575760Y-70447619D02*
X144537664Y-70485714D01*
D12*
X136127409Y-70185713D02*
X136127409Y-69999999D01*
X136127409Y-69999999D02*
X136317885Y-70099999D01*
X136317885Y-70099999D02*
X136317885Y-70057142D01*
X136317885Y-70057142D02*
X136341695Y-70028571D01*
X136341695Y-70028571D02*
X136365504Y-70014285D01*
X136365504Y-70014285D02*
X136413123Y-69999999D01*
X136413123Y-69999999D02*
X136532171Y-69999999D01*
X136532171Y-69999999D02*
X136579790Y-70014285D01*
X136579790Y-70014285D02*
X136603600Y-70028571D01*
X136603600Y-70028571D02*
X136627409Y-70057142D01*
X136627409Y-70057142D02*
X136627409Y-70142856D01*
X136627409Y-70142856D02*
X136603600Y-70171428D01*
X136603600Y-70171428D02*
X136579790Y-70185713D01*
X136127409Y-69814285D02*
X136127409Y-69785714D01*
X136127409Y-69785714D02*
X136151219Y-69757142D01*
X136151219Y-69757142D02*
X136175028Y-69742857D01*
X136175028Y-69742857D02*
X136222647Y-69728571D01*
X136222647Y-69728571D02*
X136317885Y-69714285D01*
X136317885Y-69714285D02*
X136436933Y-69714285D01*
X136436933Y-69714285D02*
X136532171Y-69728571D01*
X136532171Y-69728571D02*
X136579790Y-69742857D01*
X136579790Y-69742857D02*
X136603600Y-69757142D01*
X136603600Y-69757142D02*
X136627409Y-69785714D01*
X136627409Y-69785714D02*
X136627409Y-69814285D01*
X136627409Y-69814285D02*
X136603600Y-69842857D01*
X136603600Y-69842857D02*
X136579790Y-69857142D01*
X136579790Y-69857142D02*
X136532171Y-69871428D01*
X136532171Y-69871428D02*
X136436933Y-69885714D01*
X136436933Y-69885714D02*
X136317885Y-69885714D01*
X136317885Y-69885714D02*
X136222647Y-69871428D01*
X136222647Y-69871428D02*
X136175028Y-69857142D01*
X136175028Y-69857142D02*
X136151219Y-69842857D01*
X136151219Y-69842857D02*
X136127409Y-69814285D01*
X136627409Y-69585714D02*
X136127409Y-69585714D01*
X136127409Y-69585714D02*
X136627409Y-69414285D01*
X136627409Y-69414285D02*
X136127409Y-69414285D01*
X136127409Y-69214285D02*
X136127409Y-69185714D01*
X136127409Y-69185714D02*
X136151219Y-69157142D01*
X136151219Y-69157142D02*
X136175028Y-69142857D01*
X136175028Y-69142857D02*
X136222647Y-69128571D01*
X136222647Y-69128571D02*
X136317885Y-69114285D01*
X136317885Y-69114285D02*
X136436933Y-69114285D01*
X136436933Y-69114285D02*
X136532171Y-69128571D01*
X136532171Y-69128571D02*
X136579790Y-69142857D01*
X136579790Y-69142857D02*
X136603600Y-69157142D01*
X136603600Y-69157142D02*
X136627409Y-69185714D01*
X136627409Y-69185714D02*
X136627409Y-69214285D01*
X136627409Y-69214285D02*
X136603600Y-69242857D01*
X136603600Y-69242857D02*
X136579790Y-69257142D01*
X136579790Y-69257142D02*
X136532171Y-69271428D01*
X136532171Y-69271428D02*
X136436933Y-69285714D01*
X136436933Y-69285714D02*
X136317885Y-69285714D01*
X136317885Y-69285714D02*
X136222647Y-69271428D01*
X136222647Y-69271428D02*
X136175028Y-69257142D01*
X136175028Y-69257142D02*
X136151219Y-69242857D01*
X136151219Y-69242857D02*
X136127409Y-69214285D01*
X136127409Y-68857143D02*
X136127409Y-68914285D01*
X136127409Y-68914285D02*
X136151219Y-68942857D01*
X136151219Y-68942857D02*
X136175028Y-68957143D01*
X136175028Y-68957143D02*
X136246457Y-68985714D01*
X136246457Y-68985714D02*
X136341695Y-69000000D01*
X136341695Y-69000000D02*
X136532171Y-69000000D01*
X136532171Y-69000000D02*
X136579790Y-68985714D01*
X136579790Y-68985714D02*
X136603600Y-68971428D01*
X136603600Y-68971428D02*
X136627409Y-68942857D01*
X136627409Y-68942857D02*
X136627409Y-68885714D01*
X136627409Y-68885714D02*
X136603600Y-68857143D01*
X136603600Y-68857143D02*
X136579790Y-68842857D01*
X136579790Y-68842857D02*
X136532171Y-68828571D01*
X136532171Y-68828571D02*
X136413123Y-68828571D01*
X136413123Y-68828571D02*
X136365504Y-68842857D01*
X136365504Y-68842857D02*
X136341695Y-68857143D01*
X136341695Y-68857143D02*
X136317885Y-68885714D01*
X136317885Y-68885714D02*
X136317885Y-68942857D01*
X136317885Y-68942857D02*
X136341695Y-68971428D01*
X136341695Y-68971428D02*
X136365504Y-68985714D01*
X136365504Y-68985714D02*
X136413123Y-69000000D01*
D10*
X137950057Y-69595238D02*
X137902438Y-69690476D01*
X137902438Y-69690476D02*
X137807200Y-69785714D01*
X137807200Y-69785714D02*
X137664342Y-69928571D01*
X137664342Y-69928571D02*
X137616723Y-70023809D01*
X137616723Y-70023809D02*
X137616723Y-70119047D01*
X137854819Y-70071428D02*
X137807200Y-70166666D01*
X137807200Y-70166666D02*
X137711961Y-70261904D01*
X137711961Y-70261904D02*
X137521485Y-70309523D01*
X137521485Y-70309523D02*
X137188152Y-70309523D01*
X137188152Y-70309523D02*
X136997676Y-70261904D01*
X136997676Y-70261904D02*
X136902438Y-70166666D01*
X136902438Y-70166666D02*
X136854819Y-70071428D01*
X136854819Y-70071428D02*
X136854819Y-69880952D01*
X136854819Y-69880952D02*
X136902438Y-69785714D01*
X136902438Y-69785714D02*
X136997676Y-69690476D01*
X136997676Y-69690476D02*
X137188152Y-69642857D01*
X137188152Y-69642857D02*
X137521485Y-69642857D01*
X137521485Y-69642857D02*
X137711961Y-69690476D01*
X137711961Y-69690476D02*
X137807200Y-69785714D01*
X137807200Y-69785714D02*
X137854819Y-69880952D01*
X137854819Y-69880952D02*
X137854819Y-70071428D01*
X136854819Y-68785714D02*
X136854819Y-68976190D01*
X136854819Y-68976190D02*
X136902438Y-69071428D01*
X136902438Y-69071428D02*
X136950057Y-69119047D01*
X136950057Y-69119047D02*
X137092914Y-69214285D01*
X137092914Y-69214285D02*
X137283390Y-69261904D01*
X137283390Y-69261904D02*
X137664342Y-69261904D01*
X137664342Y-69261904D02*
X137759580Y-69214285D01*
X137759580Y-69214285D02*
X137807200Y-69166666D01*
X137807200Y-69166666D02*
X137854819Y-69071428D01*
X137854819Y-69071428D02*
X137854819Y-68880952D01*
X137854819Y-68880952D02*
X137807200Y-68785714D01*
X137807200Y-68785714D02*
X137759580Y-68738095D01*
X137759580Y-68738095D02*
X137664342Y-68690476D01*
X137664342Y-68690476D02*
X137426247Y-68690476D01*
X137426247Y-68690476D02*
X137331009Y-68738095D01*
X137331009Y-68738095D02*
X137283390Y-68785714D01*
X137283390Y-68785714D02*
X137235771Y-68880952D01*
X137235771Y-68880952D02*
X137235771Y-69071428D01*
X137235771Y-69071428D02*
X137283390Y-69166666D01*
X137283390Y-69166666D02*
X137331009Y-69214285D01*
X137331009Y-69214285D02*
X137426247Y-69261904D01*
D11*
X136900000Y-84564354D02*
X136814286Y-84564354D01*
X136857143Y-84564354D02*
X136857143Y-84314354D01*
X136857143Y-84314354D02*
X136842857Y-84350069D01*
X136842857Y-84350069D02*
X136828572Y-84373878D01*
X136828572Y-84373878D02*
X136814286Y-84385783D01*
X136964286Y-84397688D02*
X136964286Y-84647688D01*
X137035714Y-84528640D02*
X137042857Y-84552450D01*
X137042857Y-84552450D02*
X137057143Y-84564354D01*
X136964286Y-84528640D02*
X136971429Y-84552450D01*
X136971429Y-84552450D02*
X136985714Y-84564354D01*
X136985714Y-84564354D02*
X137014286Y-84564354D01*
X137014286Y-84564354D02*
X137028572Y-84552450D01*
X137028572Y-84552450D02*
X137035714Y-84528640D01*
X137035714Y-84528640D02*
X137035714Y-84397688D01*
X137171429Y-84433402D02*
X137121429Y-84433402D01*
X137121429Y-84564354D02*
X137121429Y-84314354D01*
X137121429Y-84314354D02*
X137192857Y-84314354D01*
X136983333Y-84735438D02*
X136978571Y-84740200D01*
X136978571Y-84740200D02*
X136964285Y-84744961D01*
X136964285Y-84744961D02*
X136954761Y-84744961D01*
X136954761Y-84744961D02*
X136940476Y-84740200D01*
X136940476Y-84740200D02*
X136930952Y-84730676D01*
X136930952Y-84730676D02*
X136926190Y-84721152D01*
X136926190Y-84721152D02*
X136921428Y-84702104D01*
X136921428Y-84702104D02*
X136921428Y-84687819D01*
X136921428Y-84687819D02*
X136926190Y-84668771D01*
X136926190Y-84668771D02*
X136930952Y-84659247D01*
X136930952Y-84659247D02*
X136940476Y-84649723D01*
X136940476Y-84649723D02*
X136954761Y-84644961D01*
X136954761Y-84644961D02*
X136964285Y-84644961D01*
X136964285Y-84644961D02*
X136978571Y-84649723D01*
X136978571Y-84649723D02*
X136983333Y-84654485D01*
X137016666Y-84644961D02*
X137078571Y-84644961D01*
X137078571Y-84644961D02*
X137045238Y-84683057D01*
X137045238Y-84683057D02*
X137059523Y-84683057D01*
X137059523Y-84683057D02*
X137069047Y-84687819D01*
X137069047Y-84687819D02*
X137073809Y-84692580D01*
X137073809Y-84692580D02*
X137078571Y-84702104D01*
X137078571Y-84702104D02*
X137078571Y-84725914D01*
X137078571Y-84725914D02*
X137073809Y-84735438D01*
X137073809Y-84735438D02*
X137069047Y-84740200D01*
X137069047Y-84740200D02*
X137059523Y-84744961D01*
X137059523Y-84744961D02*
X137030952Y-84744961D01*
X137030952Y-84744961D02*
X137021428Y-84740200D01*
X137021428Y-84740200D02*
X137016666Y-84735438D01*
X138675000Y-81847688D02*
X138675000Y-82014354D01*
X138639285Y-81752450D02*
X138603571Y-81931021D01*
X138603571Y-81931021D02*
X138696428Y-81931021D01*
X138753571Y-81990545D02*
X138760714Y-82002450D01*
X138760714Y-82002450D02*
X138753571Y-82014354D01*
X138753571Y-82014354D02*
X138746428Y-82002450D01*
X138746428Y-82002450D02*
X138753571Y-81990545D01*
X138753571Y-81990545D02*
X138753571Y-82014354D01*
X138810714Y-81764354D02*
X138910714Y-81764354D01*
X138910714Y-81764354D02*
X138846428Y-82014354D01*
X138967857Y-82014354D02*
X138967857Y-81764354D01*
X138982143Y-81919116D02*
X139025000Y-82014354D01*
X139025000Y-81847688D02*
X138967857Y-81942926D01*
X139082143Y-82014354D02*
X139117857Y-82014354D01*
X139117857Y-82014354D02*
X139117857Y-81966735D01*
X139117857Y-81966735D02*
X139103572Y-81954830D01*
X139103572Y-81954830D02*
X139089286Y-81931021D01*
X139089286Y-81931021D02*
X139082143Y-81895307D01*
X139082143Y-81895307D02*
X139082143Y-81835783D01*
X139082143Y-81835783D02*
X139089286Y-81800069D01*
X139089286Y-81800069D02*
X139103572Y-81776259D01*
X139103572Y-81776259D02*
X139125000Y-81764354D01*
X139125000Y-81764354D02*
X139153572Y-81764354D01*
X139153572Y-81764354D02*
X139175000Y-81776259D01*
X139175000Y-81776259D02*
X139189286Y-81800069D01*
X139189286Y-81800069D02*
X139196429Y-81835783D01*
X139196429Y-81835783D02*
X139196429Y-81895307D01*
X139196429Y-81895307D02*
X139189286Y-81931021D01*
X139189286Y-81931021D02*
X139175000Y-81954830D01*
X139175000Y-81954830D02*
X139160714Y-81966735D01*
X139160714Y-81966735D02*
X139160714Y-82014354D01*
X139160714Y-82014354D02*
X139196429Y-82014354D01*
X138883333Y-82194961D02*
X138850000Y-82147342D01*
X138826190Y-82194961D02*
X138826190Y-82094961D01*
X138826190Y-82094961D02*
X138864285Y-82094961D01*
X138864285Y-82094961D02*
X138873809Y-82099723D01*
X138873809Y-82099723D02*
X138878571Y-82104485D01*
X138878571Y-82104485D02*
X138883333Y-82114009D01*
X138883333Y-82114009D02*
X138883333Y-82128295D01*
X138883333Y-82128295D02*
X138878571Y-82137819D01*
X138878571Y-82137819D02*
X138873809Y-82142580D01*
X138873809Y-82142580D02*
X138864285Y-82147342D01*
X138864285Y-82147342D02*
X138826190Y-82147342D01*
X138978571Y-82194961D02*
X138921428Y-82194961D01*
X138950000Y-82194961D02*
X138950000Y-82094961D01*
X138950000Y-82094961D02*
X138940476Y-82109247D01*
X138940476Y-82109247D02*
X138930952Y-82118771D01*
X138930952Y-82118771D02*
X138921428Y-82123533D01*
X137464354Y-76349999D02*
X137464354Y-76435713D01*
X137464354Y-76392856D02*
X137214354Y-76392856D01*
X137214354Y-76392856D02*
X137250069Y-76407142D01*
X137250069Y-76407142D02*
X137273878Y-76421427D01*
X137273878Y-76421427D02*
X137285783Y-76435713D01*
X137297688Y-76285713D02*
X137547688Y-76285713D01*
X137428640Y-76214285D02*
X137452450Y-76207142D01*
X137452450Y-76207142D02*
X137464354Y-76192856D01*
X137428640Y-76285713D02*
X137452450Y-76278570D01*
X137452450Y-76278570D02*
X137464354Y-76264285D01*
X137464354Y-76264285D02*
X137464354Y-76235713D01*
X137464354Y-76235713D02*
X137452450Y-76221428D01*
X137452450Y-76221428D02*
X137428640Y-76214285D01*
X137428640Y-76214285D02*
X137297688Y-76214285D01*
X137333402Y-76078570D02*
X137333402Y-76128570D01*
X137464354Y-76128570D02*
X137214354Y-76128570D01*
X137214354Y-76128570D02*
X137214354Y-76057142D01*
X138724999Y-83014354D02*
X138639285Y-83014354D01*
X138682142Y-83014354D02*
X138682142Y-82764354D01*
X138682142Y-82764354D02*
X138667856Y-82800069D01*
X138667856Y-82800069D02*
X138653571Y-82823878D01*
X138653571Y-82823878D02*
X138639285Y-82835783D01*
X138817856Y-82764354D02*
X138832142Y-82764354D01*
X138832142Y-82764354D02*
X138846428Y-82776259D01*
X138846428Y-82776259D02*
X138853571Y-82788164D01*
X138853571Y-82788164D02*
X138860713Y-82811973D01*
X138860713Y-82811973D02*
X138867856Y-82859592D01*
X138867856Y-82859592D02*
X138867856Y-82919116D01*
X138867856Y-82919116D02*
X138860713Y-82966735D01*
X138860713Y-82966735D02*
X138853571Y-82990545D01*
X138853571Y-82990545D02*
X138846428Y-83002450D01*
X138846428Y-83002450D02*
X138832142Y-83014354D01*
X138832142Y-83014354D02*
X138817856Y-83014354D01*
X138817856Y-83014354D02*
X138803571Y-83002450D01*
X138803571Y-83002450D02*
X138796428Y-82990545D01*
X138796428Y-82990545D02*
X138789285Y-82966735D01*
X138789285Y-82966735D02*
X138782142Y-82919116D01*
X138782142Y-82919116D02*
X138782142Y-82859592D01*
X138782142Y-82859592D02*
X138789285Y-82811973D01*
X138789285Y-82811973D02*
X138796428Y-82788164D01*
X138796428Y-82788164D02*
X138803571Y-82776259D01*
X138803571Y-82776259D02*
X138817856Y-82764354D01*
X138932142Y-83014354D02*
X138932142Y-82764354D01*
X138946428Y-82919116D02*
X138989285Y-83014354D01*
X138989285Y-82847688D02*
X138932142Y-82942926D01*
X139046428Y-83014354D02*
X139082142Y-83014354D01*
X139082142Y-83014354D02*
X139082142Y-82966735D01*
X139082142Y-82966735D02*
X139067857Y-82954830D01*
X139067857Y-82954830D02*
X139053571Y-82931021D01*
X139053571Y-82931021D02*
X139046428Y-82895307D01*
X139046428Y-82895307D02*
X139046428Y-82835783D01*
X139046428Y-82835783D02*
X139053571Y-82800069D01*
X139053571Y-82800069D02*
X139067857Y-82776259D01*
X139067857Y-82776259D02*
X139089285Y-82764354D01*
X139089285Y-82764354D02*
X139117857Y-82764354D01*
X139117857Y-82764354D02*
X139139285Y-82776259D01*
X139139285Y-82776259D02*
X139153571Y-82800069D01*
X139153571Y-82800069D02*
X139160714Y-82835783D01*
X139160714Y-82835783D02*
X139160714Y-82895307D01*
X139160714Y-82895307D02*
X139153571Y-82931021D01*
X139153571Y-82931021D02*
X139139285Y-82954830D01*
X139139285Y-82954830D02*
X139124999Y-82966735D01*
X139124999Y-82966735D02*
X139124999Y-83014354D01*
X139124999Y-83014354D02*
X139160714Y-83014354D01*
X138883333Y-83194961D02*
X138850000Y-83147342D01*
X138826190Y-83194961D02*
X138826190Y-83094961D01*
X138826190Y-83094961D02*
X138864285Y-83094961D01*
X138864285Y-83094961D02*
X138873809Y-83099723D01*
X138873809Y-83099723D02*
X138878571Y-83104485D01*
X138878571Y-83104485D02*
X138883333Y-83114009D01*
X138883333Y-83114009D02*
X138883333Y-83128295D01*
X138883333Y-83128295D02*
X138878571Y-83137819D01*
X138878571Y-83137819D02*
X138873809Y-83142580D01*
X138873809Y-83142580D02*
X138864285Y-83147342D01*
X138864285Y-83147342D02*
X138826190Y-83147342D01*
X138921428Y-83104485D02*
X138926190Y-83099723D01*
X138926190Y-83099723D02*
X138935714Y-83094961D01*
X138935714Y-83094961D02*
X138959523Y-83094961D01*
X138959523Y-83094961D02*
X138969047Y-83099723D01*
X138969047Y-83099723D02*
X138973809Y-83104485D01*
X138973809Y-83104485D02*
X138978571Y-83114009D01*
X138978571Y-83114009D02*
X138978571Y-83123533D01*
X138978571Y-83123533D02*
X138973809Y-83137819D01*
X138973809Y-83137819D02*
X138916666Y-83194961D01*
X138916666Y-83194961D02*
X138978571Y-83194961D01*
D10*
X123384819Y-73047618D02*
X123384819Y-72428571D01*
X123384819Y-72428571D02*
X123765771Y-72761904D01*
X123765771Y-72761904D02*
X123765771Y-72619047D01*
X123765771Y-72619047D02*
X123813390Y-72523809D01*
X123813390Y-72523809D02*
X123861009Y-72476190D01*
X123861009Y-72476190D02*
X123956247Y-72428571D01*
X123956247Y-72428571D02*
X124194342Y-72428571D01*
X124194342Y-72428571D02*
X124289580Y-72476190D01*
X124289580Y-72476190D02*
X124337200Y-72523809D01*
X124337200Y-72523809D02*
X124384819Y-72619047D01*
X124384819Y-72619047D02*
X124384819Y-72904761D01*
X124384819Y-72904761D02*
X124337200Y-72999999D01*
X124337200Y-72999999D02*
X124289580Y-73047618D01*
X123384819Y-71809523D02*
X123384819Y-71714285D01*
X123384819Y-71714285D02*
X123432438Y-71619047D01*
X123432438Y-71619047D02*
X123480057Y-71571428D01*
X123480057Y-71571428D02*
X123575295Y-71523809D01*
X123575295Y-71523809D02*
X123765771Y-71476190D01*
X123765771Y-71476190D02*
X124003866Y-71476190D01*
X124003866Y-71476190D02*
X124194342Y-71523809D01*
X124194342Y-71523809D02*
X124289580Y-71571428D01*
X124289580Y-71571428D02*
X124337200Y-71619047D01*
X124337200Y-71619047D02*
X124384819Y-71714285D01*
X124384819Y-71714285D02*
X124384819Y-71809523D01*
X124384819Y-71809523D02*
X124337200Y-71904761D01*
X124337200Y-71904761D02*
X124289580Y-71952380D01*
X124289580Y-71952380D02*
X124194342Y-71999999D01*
X124194342Y-71999999D02*
X124003866Y-72047618D01*
X124003866Y-72047618D02*
X123765771Y-72047618D01*
X123765771Y-72047618D02*
X123575295Y-71999999D01*
X123575295Y-71999999D02*
X123480057Y-71952380D01*
X123480057Y-71952380D02*
X123432438Y-71904761D01*
X123432438Y-71904761D02*
X123384819Y-71809523D01*
X124384819Y-71047618D02*
X123718152Y-71047618D01*
X123813390Y-71047618D02*
X123765771Y-70999999D01*
X123765771Y-70999999D02*
X123718152Y-70904761D01*
X123718152Y-70904761D02*
X123718152Y-70761904D01*
X123718152Y-70761904D02*
X123765771Y-70666666D01*
X123765771Y-70666666D02*
X123861009Y-70619047D01*
X123861009Y-70619047D02*
X124384819Y-70619047D01*
X123861009Y-70619047D02*
X123765771Y-70571428D01*
X123765771Y-70571428D02*
X123718152Y-70476190D01*
X123718152Y-70476190D02*
X123718152Y-70333333D01*
X123718152Y-70333333D02*
X123765771Y-70238094D01*
X123765771Y-70238094D02*
X123861009Y-70190475D01*
X123861009Y-70190475D02*
X124384819Y-70190475D01*
X124384819Y-69761904D02*
X124384819Y-69523809D01*
X124384819Y-69523809D02*
X124194342Y-69523809D01*
X124194342Y-69523809D02*
X124146723Y-69619047D01*
X124146723Y-69619047D02*
X124051485Y-69714285D01*
X124051485Y-69714285D02*
X123908628Y-69761904D01*
X123908628Y-69761904D02*
X123670533Y-69761904D01*
X123670533Y-69761904D02*
X123527676Y-69714285D01*
X123527676Y-69714285D02*
X123432438Y-69619047D01*
X123432438Y-69619047D02*
X123384819Y-69476190D01*
X123384819Y-69476190D02*
X123384819Y-69285714D01*
X123384819Y-69285714D02*
X123432438Y-69142857D01*
X123432438Y-69142857D02*
X123527676Y-69047619D01*
X123527676Y-69047619D02*
X123670533Y-69000000D01*
X123670533Y-69000000D02*
X123908628Y-69000000D01*
X123908628Y-69000000D02*
X124051485Y-69047619D01*
X124051485Y-69047619D02*
X124146723Y-69142857D01*
X124146723Y-69142857D02*
X124194342Y-69238095D01*
X124194342Y-69238095D02*
X124384819Y-69238095D01*
X124384819Y-69238095D02*
X124384819Y-69000000D01*
D15*
X126113855Y-71514285D02*
X125732902Y-71780952D01*
X126113855Y-71971428D02*
X125313855Y-71971428D01*
X125313855Y-71971428D02*
X125313855Y-71666666D01*
X125313855Y-71666666D02*
X125351950Y-71590476D01*
X125351950Y-71590476D02*
X125390045Y-71552381D01*
X125390045Y-71552381D02*
X125466236Y-71514285D01*
X125466236Y-71514285D02*
X125580521Y-71514285D01*
X125580521Y-71514285D02*
X125656712Y-71552381D01*
X125656712Y-71552381D02*
X125694807Y-71590476D01*
X125694807Y-71590476D02*
X125732902Y-71666666D01*
X125732902Y-71666666D02*
X125732902Y-71971428D01*
X126113855Y-70752381D02*
X126113855Y-71209524D01*
X126113855Y-70980952D02*
X125313855Y-70980952D01*
X125313855Y-70980952D02*
X125428140Y-71057143D01*
X125428140Y-71057143D02*
X125504331Y-71133333D01*
X125504331Y-71133333D02*
X125542426Y-71209524D01*
X125313855Y-70257142D02*
X125313855Y-70180952D01*
X125313855Y-70180952D02*
X125351950Y-70104761D01*
X125351950Y-70104761D02*
X125390045Y-70066666D01*
X125390045Y-70066666D02*
X125466236Y-70028571D01*
X125466236Y-70028571D02*
X125618617Y-69990476D01*
X125618617Y-69990476D02*
X125809093Y-69990476D01*
X125809093Y-69990476D02*
X125961474Y-70028571D01*
X125961474Y-70028571D02*
X126037664Y-70066666D01*
X126037664Y-70066666D02*
X126075760Y-70104761D01*
X126075760Y-70104761D02*
X126113855Y-70180952D01*
X126113855Y-70180952D02*
X126113855Y-70257142D01*
X126113855Y-70257142D02*
X126075760Y-70333333D01*
X126075760Y-70333333D02*
X126037664Y-70371428D01*
X126037664Y-70371428D02*
X125961474Y-70409523D01*
X125961474Y-70409523D02*
X125809093Y-70447619D01*
X125809093Y-70447619D02*
X125618617Y-70447619D01*
X125618617Y-70447619D02*
X125466236Y-70409523D01*
X125466236Y-70409523D02*
X125390045Y-70371428D01*
X125390045Y-70371428D02*
X125351950Y-70333333D01*
X125351950Y-70333333D02*
X125313855Y-70257142D01*
D11*
X138403572Y-78214354D02*
X138317858Y-78214354D01*
X138360715Y-78214354D02*
X138360715Y-77964354D01*
X138360715Y-77964354D02*
X138346429Y-78000069D01*
X138346429Y-78000069D02*
X138332144Y-78023878D01*
X138332144Y-78023878D02*
X138317858Y-78035783D01*
X138496429Y-77964354D02*
X138510715Y-77964354D01*
X138510715Y-77964354D02*
X138525001Y-77976259D01*
X138525001Y-77976259D02*
X138532144Y-77988164D01*
X138532144Y-77988164D02*
X138539286Y-78011973D01*
X138539286Y-78011973D02*
X138546429Y-78059592D01*
X138546429Y-78059592D02*
X138546429Y-78119116D01*
X138546429Y-78119116D02*
X138539286Y-78166735D01*
X138539286Y-78166735D02*
X138532144Y-78190545D01*
X138532144Y-78190545D02*
X138525001Y-78202450D01*
X138525001Y-78202450D02*
X138510715Y-78214354D01*
X138510715Y-78214354D02*
X138496429Y-78214354D01*
X138496429Y-78214354D02*
X138482144Y-78202450D01*
X138482144Y-78202450D02*
X138475001Y-78190545D01*
X138475001Y-78190545D02*
X138467858Y-78166735D01*
X138467858Y-78166735D02*
X138460715Y-78119116D01*
X138460715Y-78119116D02*
X138460715Y-78059592D01*
X138460715Y-78059592D02*
X138467858Y-78011973D01*
X138467858Y-78011973D02*
X138475001Y-77988164D01*
X138475001Y-77988164D02*
X138482144Y-77976259D01*
X138482144Y-77976259D02*
X138496429Y-77964354D01*
X138639286Y-77964354D02*
X138653572Y-77964354D01*
X138653572Y-77964354D02*
X138667858Y-77976259D01*
X138667858Y-77976259D02*
X138675001Y-77988164D01*
X138675001Y-77988164D02*
X138682143Y-78011973D01*
X138682143Y-78011973D02*
X138689286Y-78059592D01*
X138689286Y-78059592D02*
X138689286Y-78119116D01*
X138689286Y-78119116D02*
X138682143Y-78166735D01*
X138682143Y-78166735D02*
X138675001Y-78190545D01*
X138675001Y-78190545D02*
X138667858Y-78202450D01*
X138667858Y-78202450D02*
X138653572Y-78214354D01*
X138653572Y-78214354D02*
X138639286Y-78214354D01*
X138639286Y-78214354D02*
X138625001Y-78202450D01*
X138625001Y-78202450D02*
X138617858Y-78190545D01*
X138617858Y-78190545D02*
X138610715Y-78166735D01*
X138610715Y-78166735D02*
X138603572Y-78119116D01*
X138603572Y-78119116D02*
X138603572Y-78059592D01*
X138603572Y-78059592D02*
X138610715Y-78011973D01*
X138610715Y-78011973D02*
X138617858Y-77988164D01*
X138617858Y-77988164D02*
X138625001Y-77976259D01*
X138625001Y-77976259D02*
X138639286Y-77964354D01*
X138753572Y-78047688D02*
X138753572Y-78214354D01*
X138753572Y-78071497D02*
X138760715Y-78059592D01*
X138760715Y-78059592D02*
X138775000Y-78047688D01*
X138775000Y-78047688D02*
X138796429Y-78047688D01*
X138796429Y-78047688D02*
X138810715Y-78059592D01*
X138810715Y-78059592D02*
X138817858Y-78083402D01*
X138817858Y-78083402D02*
X138817858Y-78214354D01*
X138939286Y-78083402D02*
X138889286Y-78083402D01*
X138889286Y-78214354D02*
X138889286Y-77964354D01*
X138889286Y-77964354D02*
X138960714Y-77964354D01*
X139210714Y-78214354D02*
X139125000Y-78214354D01*
X139167857Y-78214354D02*
X139167857Y-77964354D01*
X139167857Y-77964354D02*
X139153571Y-78000069D01*
X139153571Y-78000069D02*
X139139286Y-78023878D01*
X139139286Y-78023878D02*
X139125000Y-78035783D01*
X139339286Y-77964354D02*
X139310714Y-77964354D01*
X139310714Y-77964354D02*
X139296428Y-77976259D01*
X139296428Y-77976259D02*
X139289286Y-77988164D01*
X139289286Y-77988164D02*
X139275000Y-78023878D01*
X139275000Y-78023878D02*
X139267857Y-78071497D01*
X139267857Y-78071497D02*
X139267857Y-78166735D01*
X139267857Y-78166735D02*
X139275000Y-78190545D01*
X139275000Y-78190545D02*
X139282143Y-78202450D01*
X139282143Y-78202450D02*
X139296428Y-78214354D01*
X139296428Y-78214354D02*
X139325000Y-78214354D01*
X139325000Y-78214354D02*
X139339286Y-78202450D01*
X139339286Y-78202450D02*
X139346428Y-78190545D01*
X139346428Y-78190545D02*
X139353571Y-78166735D01*
X139353571Y-78166735D02*
X139353571Y-78107211D01*
X139353571Y-78107211D02*
X139346428Y-78083402D01*
X139346428Y-78083402D02*
X139339286Y-78071497D01*
X139339286Y-78071497D02*
X139325000Y-78059592D01*
X139325000Y-78059592D02*
X139296428Y-78059592D01*
X139296428Y-78059592D02*
X139282143Y-78071497D01*
X139282143Y-78071497D02*
X139275000Y-78083402D01*
X139275000Y-78083402D02*
X139267857Y-78107211D01*
X139396428Y-77964354D02*
X139446428Y-78214354D01*
X139446428Y-78214354D02*
X139496428Y-77964354D01*
X138883333Y-77885438D02*
X138878571Y-77890200D01*
X138878571Y-77890200D02*
X138864285Y-77894961D01*
X138864285Y-77894961D02*
X138854761Y-77894961D01*
X138854761Y-77894961D02*
X138840476Y-77890200D01*
X138840476Y-77890200D02*
X138830952Y-77880676D01*
X138830952Y-77880676D02*
X138826190Y-77871152D01*
X138826190Y-77871152D02*
X138821428Y-77852104D01*
X138821428Y-77852104D02*
X138821428Y-77837819D01*
X138821428Y-77837819D02*
X138826190Y-77818771D01*
X138826190Y-77818771D02*
X138830952Y-77809247D01*
X138830952Y-77809247D02*
X138840476Y-77799723D01*
X138840476Y-77799723D02*
X138854761Y-77794961D01*
X138854761Y-77794961D02*
X138864285Y-77794961D01*
X138864285Y-77794961D02*
X138878571Y-77799723D01*
X138878571Y-77799723D02*
X138883333Y-77804485D01*
X138978571Y-77894961D02*
X138921428Y-77894961D01*
X138950000Y-77894961D02*
X138950000Y-77794961D01*
X138950000Y-77794961D02*
X138940476Y-77809247D01*
X138940476Y-77809247D02*
X138930952Y-77818771D01*
X138930952Y-77818771D02*
X138921428Y-77823533D01*
D13*
%TO.C,M1*%
X142500000Y-64050000D02*
X127500000Y-64050000D01*
X127500000Y-64050000D02*
X127500000Y-56150000D01*
X127500000Y-56150000D02*
X142500000Y-56150000D01*
X142500000Y-56150000D02*
X142500000Y-64050000D01*
D14*
%TO.C,C7*%
X139425000Y-78730000D02*
X138375000Y-78730000D01*
X138375000Y-78730000D02*
X138375000Y-79270000D01*
X138375000Y-79270000D02*
X139425000Y-79270000D01*
X139425000Y-79270000D02*
X139425000Y-78730000D01*
%TO.C,Q8*%
X142600000Y-67900000D02*
X139400000Y-67900000D01*
X139400000Y-67900000D02*
X139400000Y-71100000D01*
X139400000Y-71100000D02*
X142600000Y-71100000D01*
X142600000Y-71100000D02*
X142600000Y-67900000D01*
X139740000Y-68375000D02*
X139340000Y-68375000D01*
X139340000Y-68375000D02*
X139340000Y-68675000D01*
X139340000Y-68675000D02*
X139740000Y-68675000D01*
X139740000Y-68675000D02*
X139740000Y-68375000D01*
X142260000Y-68675000D02*
X142660000Y-68675000D01*
X142660000Y-68675000D02*
X142660000Y-68375000D01*
X142660000Y-68375000D02*
X142260000Y-68375000D01*
X142260000Y-68375000D02*
X142260000Y-68675000D01*
X139740000Y-69025000D02*
X139340000Y-69025000D01*
X139340000Y-69025000D02*
X139340000Y-69325000D01*
X139340000Y-69325000D02*
X139740000Y-69325000D01*
X139740000Y-69325000D02*
X139740000Y-69025000D01*
X142260000Y-69325000D02*
X142660000Y-69325000D01*
X142660000Y-69325000D02*
X142660000Y-69025000D01*
X142660000Y-69025000D02*
X142260000Y-69025000D01*
X142260000Y-69025000D02*
X142260000Y-69325000D01*
X139740000Y-69675000D02*
X139340000Y-69675000D01*
X139340000Y-69675000D02*
X139340000Y-69975000D01*
X139340000Y-69975000D02*
X139740000Y-69975000D01*
X139740000Y-69975000D02*
X139740000Y-69675000D01*
X142260000Y-69975000D02*
X142660000Y-69975000D01*
X142660000Y-69975000D02*
X142660000Y-69675000D01*
X142660000Y-69675000D02*
X142260000Y-69675000D01*
X142260000Y-69675000D02*
X142260000Y-69975000D01*
X139740000Y-70325000D02*
X139340000Y-70325000D01*
X139340000Y-70325000D02*
X139340000Y-70625000D01*
X139340000Y-70625000D02*
X139740000Y-70625000D01*
X139740000Y-70625000D02*
X139740000Y-70325000D01*
X142260000Y-70625000D02*
X142660000Y-70625000D01*
X142660000Y-70625000D02*
X142660000Y-70325000D01*
X142660000Y-70325000D02*
X142260000Y-70325000D01*
X142260000Y-70325000D02*
X142260000Y-70625000D01*
%TO.C,Q4*%
X134600000Y-67900000D02*
X131400000Y-67900000D01*
X131400000Y-67900000D02*
X131400000Y-71100000D01*
X131400000Y-71100000D02*
X134600000Y-71100000D01*
X134600000Y-71100000D02*
X134600000Y-67900000D01*
X131740000Y-68375000D02*
X131340000Y-68375000D01*
X131340000Y-68375000D02*
X131340000Y-68675000D01*
X131340000Y-68675000D02*
X131740000Y-68675000D01*
X131740000Y-68675000D02*
X131740000Y-68375000D01*
X134260000Y-68675000D02*
X134660000Y-68675000D01*
X134660000Y-68675000D02*
X134660000Y-68375000D01*
X134660000Y-68375000D02*
X134260000Y-68375000D01*
X134260000Y-68375000D02*
X134260000Y-68675000D01*
X131740000Y-69025000D02*
X131340000Y-69025000D01*
X131340000Y-69025000D02*
X131340000Y-69325000D01*
X131340000Y-69325000D02*
X131740000Y-69325000D01*
X131740000Y-69325000D02*
X131740000Y-69025000D01*
X134260000Y-69325000D02*
X134660000Y-69325000D01*
X134660000Y-69325000D02*
X134660000Y-69025000D01*
X134660000Y-69025000D02*
X134260000Y-69025000D01*
X134260000Y-69025000D02*
X134260000Y-69325000D01*
X131740000Y-69675000D02*
X131340000Y-69675000D01*
X131340000Y-69675000D02*
X131340000Y-69975000D01*
X131340000Y-69975000D02*
X131740000Y-69975000D01*
X131740000Y-69975000D02*
X131740000Y-69675000D01*
X134260000Y-69975000D02*
X134660000Y-69975000D01*
X134660000Y-69975000D02*
X134660000Y-69675000D01*
X134660000Y-69675000D02*
X134260000Y-69675000D01*
X134260000Y-69675000D02*
X134260000Y-69975000D01*
X131740000Y-70325000D02*
X131340000Y-70325000D01*
X131340000Y-70325000D02*
X131340000Y-70625000D01*
X131340000Y-70625000D02*
X131740000Y-70625000D01*
X131740000Y-70625000D02*
X131740000Y-70325000D01*
X134260000Y-70625000D02*
X134660000Y-70625000D01*
X134660000Y-70625000D02*
X134660000Y-70325000D01*
X134660000Y-70325000D02*
X134260000Y-70325000D01*
X134260000Y-70325000D02*
X134260000Y-70625000D01*
%TO.C,D1*%
X140900000Y-82900000D02*
X140100000Y-82900000D01*
X140100000Y-82900000D02*
X140100000Y-81300000D01*
X140100000Y-81300000D02*
X140900000Y-81300000D01*
X140900000Y-81300000D02*
X140900000Y-82900000D01*
X140900000Y-81550000D02*
X140650000Y-81300000D01*
%TO.C,R12*%
X144770000Y-74525000D02*
X144230000Y-74525000D01*
X144230000Y-74525000D02*
X144230000Y-73475000D01*
X144230000Y-73475000D02*
X144770000Y-73475000D01*
X144770000Y-73475000D02*
X144770000Y-74525000D01*
%TO.C,C5*%
X138375000Y-81270000D02*
X139425000Y-81270000D01*
X139425000Y-81270000D02*
X139425000Y-80730000D01*
X139425000Y-80730000D02*
X138375000Y-80730000D01*
X138375000Y-80730000D02*
X138375000Y-81270000D01*
%TO.C,R8*%
X126770000Y-74525000D02*
X126230000Y-74525000D01*
X126230000Y-74525000D02*
X126230000Y-73475000D01*
X126230000Y-73475000D02*
X126770000Y-73475000D01*
X126770000Y-73475000D02*
X126770000Y-74525000D01*
%TO.C,C8*%
X127480000Y-75725000D02*
X128020000Y-75725000D01*
X128020000Y-75725000D02*
X128020000Y-76775000D01*
X128020000Y-76775000D02*
X127480000Y-76775000D01*
X127480000Y-76775000D02*
X127480000Y-75725000D01*
%TO.C,Q5*%
X138600000Y-74600000D02*
X135400000Y-74600000D01*
X135400000Y-74600000D02*
X135400000Y-71400000D01*
X135400000Y-71400000D02*
X138600000Y-71400000D01*
X138600000Y-71400000D02*
X138600000Y-74600000D01*
X138125000Y-71740000D02*
X137825000Y-71740000D01*
X137825000Y-71740000D02*
X137825000Y-71340000D01*
X137825000Y-71340000D02*
X138125000Y-71340000D01*
X138125000Y-71340000D02*
X138125000Y-71740000D01*
X137825000Y-74260000D02*
X138125000Y-74260000D01*
X138125000Y-74260000D02*
X138125000Y-74660000D01*
X138125000Y-74660000D02*
X137825000Y-74660000D01*
X137825000Y-74660000D02*
X137825000Y-74260000D01*
X137475000Y-71740000D02*
X137175000Y-71740000D01*
X137175000Y-71740000D02*
X137175000Y-71340000D01*
X137175000Y-71340000D02*
X137475000Y-71340000D01*
X137475000Y-71340000D02*
X137475000Y-71740000D01*
X137175000Y-74260000D02*
X137475000Y-74260000D01*
X137475000Y-74260000D02*
X137475000Y-74660000D01*
X137475000Y-74660000D02*
X137175000Y-74660000D01*
X137175000Y-74660000D02*
X137175000Y-74260000D01*
X136825000Y-71740000D02*
X136525000Y-71740000D01*
X136525000Y-71740000D02*
X136525000Y-71340000D01*
X136525000Y-71340000D02*
X136825000Y-71340000D01*
X136825000Y-71340000D02*
X136825000Y-71740000D01*
X136525000Y-74260000D02*
X136825000Y-74260000D01*
X136825000Y-74260000D02*
X136825000Y-74660000D01*
X136825000Y-74660000D02*
X136525000Y-74660000D01*
X136525000Y-74660000D02*
X136525000Y-74260000D01*
X136175000Y-71740000D02*
X135875000Y-71740000D01*
X135875000Y-71740000D02*
X135875000Y-71340000D01*
X135875000Y-71340000D02*
X136175000Y-71340000D01*
X136175000Y-71340000D02*
X136175000Y-71740000D01*
X135875000Y-74260000D02*
X136175000Y-74260000D01*
X136175000Y-74260000D02*
X136175000Y-74660000D01*
X136175000Y-74660000D02*
X135875000Y-74660000D01*
X135875000Y-74660000D02*
X135875000Y-74260000D01*
%TO.C,Q1*%
X130600000Y-74600000D02*
X127400000Y-74600000D01*
X127400000Y-74600000D02*
X127400000Y-71400000D01*
X127400000Y-71400000D02*
X130600000Y-71400000D01*
X130600000Y-71400000D02*
X130600000Y-74600000D01*
X130125000Y-71740000D02*
X129825000Y-71740000D01*
X129825000Y-71740000D02*
X129825000Y-71340000D01*
X129825000Y-71340000D02*
X130125000Y-71340000D01*
X130125000Y-71340000D02*
X130125000Y-71740000D01*
X129825000Y-74260000D02*
X130125000Y-74260000D01*
X130125000Y-74260000D02*
X130125000Y-74660000D01*
X130125000Y-74660000D02*
X129825000Y-74660000D01*
X129825000Y-74660000D02*
X129825000Y-74260000D01*
X129475000Y-71740000D02*
X129175000Y-71740000D01*
X129175000Y-71740000D02*
X129175000Y-71340000D01*
X129175000Y-71340000D02*
X129475000Y-71340000D01*
X129475000Y-71340000D02*
X129475000Y-71740000D01*
X129175000Y-74260000D02*
X129475000Y-74260000D01*
X129475000Y-74260000D02*
X129475000Y-74660000D01*
X129475000Y-74660000D02*
X129175000Y-74660000D01*
X129175000Y-74660000D02*
X129175000Y-74260000D01*
X128825000Y-71740000D02*
X128525000Y-71740000D01*
X128525000Y-71740000D02*
X128525000Y-71340000D01*
X128525000Y-71340000D02*
X128825000Y-71340000D01*
X128825000Y-71340000D02*
X128825000Y-71740000D01*
X128525000Y-74260000D02*
X128825000Y-74260000D01*
X128825000Y-74260000D02*
X128825000Y-74660000D01*
X128825000Y-74660000D02*
X128525000Y-74660000D01*
X128525000Y-74660000D02*
X128525000Y-74260000D01*
X128175000Y-71740000D02*
X127875000Y-71740000D01*
X127875000Y-71740000D02*
X127875000Y-71340000D01*
X127875000Y-71340000D02*
X128175000Y-71340000D01*
X128175000Y-71340000D02*
X128175000Y-71740000D01*
X127875000Y-74260000D02*
X128175000Y-74260000D01*
X128175000Y-74260000D02*
X128175000Y-74660000D01*
X128175000Y-74660000D02*
X127875000Y-74660000D01*
X127875000Y-74660000D02*
X127875000Y-74260000D01*
%TO.C,R9*%
X125770000Y-74525000D02*
X125230000Y-74525000D01*
X125230000Y-74525000D02*
X125230000Y-73475000D01*
X125230000Y-73475000D02*
X125770000Y-73475000D01*
X125770000Y-73475000D02*
X125770000Y-74525000D01*
%TO.C,C2*%
X139425000Y-79730000D02*
X138375000Y-79730000D01*
X138375000Y-79730000D02*
X138375000Y-80270000D01*
X138375000Y-80270000D02*
X139425000Y-80270000D01*
X139425000Y-80270000D02*
X139425000Y-79730000D01*
%TO.C,R4*%
X126525000Y-80520000D02*
X127575000Y-80520000D01*
X127575000Y-80520000D02*
X127575000Y-79980000D01*
X127575000Y-79980000D02*
X126525000Y-79980000D01*
X126525000Y-79980000D02*
X126525000Y-80520000D01*
%TO.C,C6*%
X126525000Y-78520000D02*
X127575000Y-78520000D01*
X127575000Y-78520000D02*
X127575000Y-77980000D01*
X127575000Y-77980000D02*
X126525000Y-77980000D01*
X126525000Y-77980000D02*
X126525000Y-78520000D01*
%TO.C,R3*%
X126525000Y-81520000D02*
X127575000Y-81520000D01*
X127575000Y-81520000D02*
X127575000Y-80980000D01*
X127575000Y-80980000D02*
X126525000Y-80980000D01*
X126525000Y-80980000D02*
X126525000Y-81520000D01*
%TO.C,C4*%
X127575000Y-78980000D02*
X126525000Y-78980000D01*
X126525000Y-78980000D02*
X126525000Y-79520000D01*
X126525000Y-79520000D02*
X127575000Y-79520000D01*
X127575000Y-79520000D02*
X127575000Y-78980000D01*
%TO.C,C11*%
X137980000Y-75725000D02*
X138520000Y-75725000D01*
X138520000Y-75725000D02*
X138520000Y-76775000D01*
X138520000Y-76775000D02*
X137980000Y-76775000D01*
X137980000Y-76775000D02*
X137980000Y-75725000D01*
%TO.C,Q2*%
X130600000Y-67900000D02*
X127400000Y-67900000D01*
X127400000Y-67900000D02*
X127400000Y-71100000D01*
X127400000Y-71100000D02*
X130600000Y-71100000D01*
X130600000Y-71100000D02*
X130600000Y-67900000D01*
X127740000Y-68375000D02*
X127340000Y-68375000D01*
X127340000Y-68375000D02*
X127340000Y-68675000D01*
X127340000Y-68675000D02*
X127740000Y-68675000D01*
X127740000Y-68675000D02*
X127740000Y-68375000D01*
X130260000Y-68675000D02*
X130660000Y-68675000D01*
X130660000Y-68675000D02*
X130660000Y-68375000D01*
X130660000Y-68375000D02*
X130260000Y-68375000D01*
X130260000Y-68375000D02*
X130260000Y-68675000D01*
X127740000Y-69025000D02*
X127340000Y-69025000D01*
X127340000Y-69025000D02*
X127340000Y-69325000D01*
X127340000Y-69325000D02*
X127740000Y-69325000D01*
X127740000Y-69325000D02*
X127740000Y-69025000D01*
X130260000Y-69325000D02*
X130660000Y-69325000D01*
X130660000Y-69325000D02*
X130660000Y-69025000D01*
X130660000Y-69025000D02*
X130260000Y-69025000D01*
X130260000Y-69025000D02*
X130260000Y-69325000D01*
X127740000Y-69675000D02*
X127340000Y-69675000D01*
X127340000Y-69675000D02*
X127340000Y-69975000D01*
X127340000Y-69975000D02*
X127740000Y-69975000D01*
X127740000Y-69975000D02*
X127740000Y-69675000D01*
X130260000Y-69975000D02*
X130660000Y-69975000D01*
X130660000Y-69975000D02*
X130660000Y-69675000D01*
X130660000Y-69675000D02*
X130260000Y-69675000D01*
X130260000Y-69675000D02*
X130260000Y-69975000D01*
X127740000Y-70325000D02*
X127340000Y-70325000D01*
X127340000Y-70325000D02*
X127340000Y-70625000D01*
X127340000Y-70625000D02*
X127740000Y-70625000D01*
X127740000Y-70625000D02*
X127740000Y-70325000D01*
X130260000Y-70625000D02*
X130660000Y-70625000D01*
X130660000Y-70625000D02*
X130660000Y-70325000D01*
X130660000Y-70325000D02*
X130260000Y-70325000D01*
X130260000Y-70325000D02*
X130260000Y-70625000D01*
%TO.C,D2*%
X142300000Y-81550000D02*
X142050000Y-81300000D01*
X142300000Y-82900000D02*
X141500000Y-82900000D01*
X141500000Y-82900000D02*
X141500000Y-81300000D01*
X141500000Y-81300000D02*
X142300000Y-81300000D01*
X142300000Y-81300000D02*
X142300000Y-82900000D01*
%TO.C,R16*%
X141430000Y-79275000D02*
X141970000Y-79275000D01*
X141970000Y-79275000D02*
X141970000Y-80325000D01*
X141970000Y-80325000D02*
X141430000Y-80325000D01*
X141430000Y-80325000D02*
X141430000Y-79275000D01*
D13*
%TO.C,U1*%
X129500000Y-77750000D02*
X130500000Y-76750000D01*
X129500000Y-83750000D02*
X129500000Y-77750000D01*
X130500000Y-76750000D02*
X136500000Y-76750000D01*
X136500000Y-76750000D02*
X136500000Y-83750000D01*
X136500000Y-83750000D02*
X129500000Y-83750000D01*
D14*
%TO.C,C9*%
X128480000Y-75725000D02*
X129020000Y-75725000D01*
X129020000Y-75725000D02*
X129020000Y-76775000D01*
X129020000Y-76775000D02*
X128480000Y-76775000D01*
X128480000Y-76775000D02*
X128480000Y-75725000D01*
%TO.C,Q3*%
X134600000Y-74600000D02*
X131400000Y-74600000D01*
X131400000Y-74600000D02*
X131400000Y-71400000D01*
X131400000Y-71400000D02*
X134600000Y-71400000D01*
X134600000Y-71400000D02*
X134600000Y-74600000D01*
X134125000Y-71740000D02*
X133825000Y-71740000D01*
X133825000Y-71740000D02*
X133825000Y-71340000D01*
X133825000Y-71340000D02*
X134125000Y-71340000D01*
X134125000Y-71340000D02*
X134125000Y-71740000D01*
X133825000Y-74260000D02*
X134125000Y-74260000D01*
X134125000Y-74260000D02*
X134125000Y-74660000D01*
X134125000Y-74660000D02*
X133825000Y-74660000D01*
X133825000Y-74660000D02*
X133825000Y-74260000D01*
X133475000Y-71740000D02*
X133175000Y-71740000D01*
X133175000Y-71740000D02*
X133175000Y-71340000D01*
X133175000Y-71340000D02*
X133475000Y-71340000D01*
X133475000Y-71340000D02*
X133475000Y-71740000D01*
X133175000Y-74260000D02*
X133475000Y-74260000D01*
X133475000Y-74260000D02*
X133475000Y-74660000D01*
X133475000Y-74660000D02*
X133175000Y-74660000D01*
X133175000Y-74660000D02*
X133175000Y-74260000D01*
X132825000Y-71740000D02*
X132525000Y-71740000D01*
X132525000Y-71740000D02*
X132525000Y-71340000D01*
X132525000Y-71340000D02*
X132825000Y-71340000D01*
X132825000Y-71340000D02*
X132825000Y-71740000D01*
X132525000Y-74260000D02*
X132825000Y-74260000D01*
X132825000Y-74260000D02*
X132825000Y-74660000D01*
X132825000Y-74660000D02*
X132525000Y-74660000D01*
X132525000Y-74660000D02*
X132525000Y-74260000D01*
X132175000Y-71740000D02*
X131875000Y-71740000D01*
X131875000Y-71740000D02*
X131875000Y-71340000D01*
X131875000Y-71340000D02*
X132175000Y-71340000D01*
X132175000Y-71340000D02*
X132175000Y-71740000D01*
X131875000Y-74260000D02*
X132175000Y-74260000D01*
X132175000Y-74260000D02*
X132175000Y-74660000D01*
X132175000Y-74660000D02*
X131875000Y-74660000D01*
X131875000Y-74660000D02*
X131875000Y-74260000D01*
%TO.C,R11*%
X143770000Y-74525000D02*
X143230000Y-74525000D01*
X143230000Y-74525000D02*
X143230000Y-73475000D01*
X143230000Y-73475000D02*
X143770000Y-73475000D01*
X143770000Y-73475000D02*
X143770000Y-74525000D01*
%TO.C,Q7*%
X142600000Y-74600000D02*
X139400000Y-74600000D01*
X139400000Y-74600000D02*
X139400000Y-71400000D01*
X139400000Y-71400000D02*
X142600000Y-71400000D01*
X142600000Y-71400000D02*
X142600000Y-74600000D01*
X142125000Y-71740000D02*
X141825000Y-71740000D01*
X141825000Y-71740000D02*
X141825000Y-71340000D01*
X141825000Y-71340000D02*
X142125000Y-71340000D01*
X142125000Y-71340000D02*
X142125000Y-71740000D01*
X141825000Y-74260000D02*
X142125000Y-74260000D01*
X142125000Y-74260000D02*
X142125000Y-74660000D01*
X142125000Y-74660000D02*
X141825000Y-74660000D01*
X141825000Y-74660000D02*
X141825000Y-74260000D01*
X141475000Y-71740000D02*
X141175000Y-71740000D01*
X141175000Y-71740000D02*
X141175000Y-71340000D01*
X141175000Y-71340000D02*
X141475000Y-71340000D01*
X141475000Y-71340000D02*
X141475000Y-71740000D01*
X141175000Y-74260000D02*
X141475000Y-74260000D01*
X141475000Y-74260000D02*
X141475000Y-74660000D01*
X141475000Y-74660000D02*
X141175000Y-74660000D01*
X141175000Y-74660000D02*
X141175000Y-74260000D01*
X140825000Y-71740000D02*
X140525000Y-71740000D01*
X140525000Y-71740000D02*
X140525000Y-71340000D01*
X140525000Y-71340000D02*
X140825000Y-71340000D01*
X140825000Y-71340000D02*
X140825000Y-71740000D01*
X140525000Y-74260000D02*
X140825000Y-74260000D01*
X140825000Y-74260000D02*
X140825000Y-74660000D01*
X140825000Y-74660000D02*
X140525000Y-74660000D01*
X140525000Y-74660000D02*
X140525000Y-74260000D01*
X140175000Y-71740000D02*
X139875000Y-71740000D01*
X139875000Y-71740000D02*
X139875000Y-71340000D01*
X139875000Y-71340000D02*
X140175000Y-71340000D01*
X140175000Y-71340000D02*
X140175000Y-71740000D01*
X139875000Y-74260000D02*
X140175000Y-74260000D01*
X140175000Y-74260000D02*
X140175000Y-74660000D01*
X140175000Y-74660000D02*
X139875000Y-74660000D01*
X139875000Y-74660000D02*
X139875000Y-74260000D01*
D13*
%TO.C,R13*%
X145050000Y-69400000D02*
X145050000Y-72600000D01*
X143450000Y-69400000D02*
X145050000Y-69400000D01*
X145050000Y-72600000D02*
X143450000Y-72600000D01*
X143450000Y-72600000D02*
X143450000Y-69400000D01*
D14*
%TO.C,Q6*%
X138600000Y-67900000D02*
X135400000Y-67900000D01*
X135400000Y-67900000D02*
X135400000Y-71100000D01*
X135400000Y-71100000D02*
X138600000Y-71100000D01*
X138600000Y-71100000D02*
X138600000Y-67900000D01*
X135740000Y-68375000D02*
X135340000Y-68375000D01*
X135340000Y-68375000D02*
X135340000Y-68675000D01*
X135340000Y-68675000D02*
X135740000Y-68675000D01*
X135740000Y-68675000D02*
X135740000Y-68375000D01*
X138260000Y-68675000D02*
X138660000Y-68675000D01*
X138660000Y-68675000D02*
X138660000Y-68375000D01*
X138660000Y-68375000D02*
X138260000Y-68375000D01*
X138260000Y-68375000D02*
X138260000Y-68675000D01*
X135740000Y-69025000D02*
X135340000Y-69025000D01*
X135340000Y-69025000D02*
X135340000Y-69325000D01*
X135340000Y-69325000D02*
X135740000Y-69325000D01*
X135740000Y-69325000D02*
X135740000Y-69025000D01*
X138260000Y-69325000D02*
X138660000Y-69325000D01*
X138660000Y-69325000D02*
X138660000Y-69025000D01*
X138660000Y-69025000D02*
X138260000Y-69025000D01*
X138260000Y-69025000D02*
X138260000Y-69325000D01*
X135740000Y-69675000D02*
X135340000Y-69675000D01*
X135340000Y-69675000D02*
X135340000Y-69975000D01*
X135340000Y-69975000D02*
X135740000Y-69975000D01*
X135740000Y-69975000D02*
X135740000Y-69675000D01*
X138260000Y-69975000D02*
X138660000Y-69975000D01*
X138660000Y-69975000D02*
X138660000Y-69675000D01*
X138660000Y-69675000D02*
X138260000Y-69675000D01*
X138260000Y-69675000D02*
X138260000Y-69975000D01*
X135740000Y-70325000D02*
X135340000Y-70325000D01*
X135340000Y-70325000D02*
X135340000Y-70625000D01*
X135340000Y-70625000D02*
X135740000Y-70625000D01*
X135740000Y-70625000D02*
X135740000Y-70325000D01*
X138260000Y-70625000D02*
X138660000Y-70625000D01*
X138660000Y-70625000D02*
X138660000Y-70325000D01*
X138660000Y-70325000D02*
X138260000Y-70325000D01*
X138260000Y-70325000D02*
X138260000Y-70625000D01*
%TO.C,C3*%
X136475000Y-84820000D02*
X137525000Y-84820000D01*
X137525000Y-84820000D02*
X137525000Y-84280000D01*
X137525000Y-84280000D02*
X136475000Y-84280000D01*
X136475000Y-84280000D02*
X136475000Y-84820000D01*
%TO.C,R1*%
X138375000Y-82270000D02*
X139425000Y-82270000D01*
X139425000Y-82270000D02*
X139425000Y-81730000D01*
X139425000Y-81730000D02*
X138375000Y-81730000D01*
X138375000Y-81730000D02*
X138375000Y-82270000D01*
%TO.C,C10*%
X136980000Y-75725000D02*
X137520000Y-75725000D01*
X137520000Y-75725000D02*
X137520000Y-76775000D01*
X137520000Y-76775000D02*
X136980000Y-76775000D01*
X136980000Y-76775000D02*
X136980000Y-75725000D01*
%TO.C,R2*%
X138375000Y-83270000D02*
X139425000Y-83270000D01*
X139425000Y-83270000D02*
X139425000Y-82730000D01*
X139425000Y-82730000D02*
X138375000Y-82730000D01*
X138375000Y-82730000D02*
X138375000Y-83270000D01*
D13*
%TO.C,R10*%
X126550000Y-69400000D02*
X126550000Y-72600000D01*
X124950000Y-69400000D02*
X126550000Y-69400000D01*
X126550000Y-72600000D02*
X124950000Y-72600000D01*
X124950000Y-72600000D02*
X124950000Y-69400000D01*
D14*
%TO.C,C1*%
X139425000Y-77730000D02*
X138375000Y-77730000D01*
X138375000Y-77730000D02*
X138375000Y-78270000D01*
X138375000Y-78270000D02*
X139425000Y-78270000D01*
X139425000Y-78270000D02*
X139425000Y-77730000D01*
%TD*%
M02*
