M48
; DRILL file {KiCad 7.0.8-7.0.8~ubuntu22.04.1} date Sun 12 Nov 2023 11:56:00 PM PST
; FORMAT={-:-/ absolute / metric / decimal}
; #@! TF.CreationDate,2023-11-12T23:56:00-08:00
; #@! TF.GenerationSoftware,Kicad,Pcbnew,7.0.8-7.0.8~ubuntu22.04.1
; #@! TF.FileFunction,Plated,1,4,PTH
FMAT,2
METRIC
; #@! TA.AperFunction,Plated,PTH,ViaDrill
T1C0.250
; #@! TA.AperFunction,Plated,PTH,ComponentDrill
T2C0.250
; #@! TA.AperFunction,Plated,PTH,ViaDrill
T3C0.300
; #@! TA.AperFunction,Plated,PTH,ComponentDrill
T4C0.500
; #@! TA.AperFunction,Plated,PTH,ComponentDrill
T5C3.200
%
G90
G05
T1
X126.95Y-75.15
X127.0Y-77.45
X127.8Y-82.75
X128.075Y-82.0
X129.5Y-79.0
X129.5Y-79.975
X129.65Y-75.15
X129.725Y-81.25
X129.95Y-82.7
X130.75Y-83.825
X132.5Y-83.125
X134.65Y-73.9
X135.4Y-74.8
X135.85Y-82.675
X136.25Y-77.4
X136.25Y-78.1
X136.85Y-84.55
X138.15Y-84.55
X139.025Y-80.65
X139.2Y-76.6
X139.2Y-77.3
X139.8Y-79.0
X139.85Y-83.0
X140.7Y-78.3
X143.2Y-79.0
X143.2Y-80.5
X143.2Y-82.0
X143.75Y-76.75
X143.75Y-78.25
T2
X130.75Y-78.0
X130.75Y-79.125
X130.75Y-80.25
X130.75Y-81.375
X131.875Y-78.0
X131.875Y-79.125
X131.875Y-80.25
X131.875Y-81.375
X133.0Y-78.0
X133.0Y-79.125
X133.0Y-80.25
X133.0Y-81.375
X134.125Y-78.0
X134.125Y-79.125
X134.125Y-80.25
X134.125Y-81.375
X135.25Y-78.0
X135.25Y-79.125
X135.25Y-80.25
X135.25Y-81.375
T3
X120.7Y-68.3
X120.7Y-68.9
X120.7Y-69.5
X120.7Y-70.1
X120.7Y-70.7
X120.7Y-71.3
X120.7Y-71.9
X120.7Y-72.5
X120.7Y-73.1
X120.7Y-73.7
X120.7Y-74.3
X120.7Y-74.9
X127.6Y-68.0
X127.6Y-69.2
X127.6Y-69.8
X127.6Y-68.6
X128.1Y-72.7
X128.1Y-73.3
X128.1Y-73.9
X128.7Y-72.7
X128.7Y-73.3
X128.7Y-73.9
X129.3Y-72.7
X129.3Y-73.3
X129.3Y-73.9
X129.9Y-72.7
X129.9Y-73.3
X129.9Y-73.9
X131.6Y-68.0
X131.6Y-69.2
X131.6Y-69.8
X131.6Y-68.6
X132.1Y-72.7
X132.1Y-73.3
X132.1Y-73.9
X132.7Y-72.7
X132.7Y-73.3
X132.7Y-73.9
X133.3Y-72.7
X133.3Y-73.3
X133.3Y-73.9
X133.9Y-72.7
X133.9Y-73.3
X133.9Y-73.9
X135.6Y-68.0
X135.6Y-69.2
X135.6Y-69.8
X135.6Y-68.6
X136.1Y-72.7
X136.1Y-73.3
X136.1Y-73.9
X136.7Y-72.7
X136.7Y-73.3
X136.7Y-73.9
X137.3Y-72.7
X137.3Y-73.3
X137.3Y-73.9
X137.9Y-72.7
X137.9Y-73.3
X137.9Y-73.9
X139.6Y-68.0
X139.6Y-69.2
X139.6Y-69.8
X139.6Y-68.6
X140.1Y-72.7
X140.1Y-73.3
X140.1Y-73.9
X140.7Y-72.7
X140.7Y-73.3
X140.7Y-73.9
X141.3Y-72.7
X141.3Y-73.3
X141.3Y-73.9
X141.9Y-72.7
X141.9Y-73.3
X141.9Y-73.9
X143.2Y-68.6
X143.2Y-69.2
X143.2Y-69.8
X143.2Y-70.4
X149.3Y-68.3
X149.3Y-68.9
X149.3Y-69.5
X149.3Y-70.1
X149.3Y-70.7
X149.3Y-71.3
X149.3Y-71.9
X149.3Y-72.5
X149.3Y-73.1
X149.3Y-73.7
X149.3Y-74.3
X149.3Y-74.9
T4
X120.6Y-64.5
X121.303Y-62.803
X121.303Y-66.197
X123.0Y-62.1
X123.0Y-66.9
X124.697Y-62.803
X124.697Y-66.197
X125.4Y-64.5
X144.6Y-64.5
X145.303Y-62.803
X145.303Y-66.197
X147.0Y-62.1
X147.0Y-66.9
X148.697Y-62.803
X148.697Y-66.197
X149.4Y-64.5
T5
X123.0Y-64.5
X147.0Y-64.5
T0
M30
