%TF.GenerationSoftware,KiCad,Pcbnew,7.0.8-7.0.8~ubuntu22.04.1*%
%TF.CreationDate,2023-11-12T23:56:43-08:00*%
%TF.ProjectId,driver-tmc2160,64726976-6572-42d7-946d-63323136302e,rev?*%
%TF.SameCoordinates,Original*%
%TF.FileFunction,Copper,L1,Top*%
%TF.FilePolarity,Positive*%
%FSLAX46Y46*%
G04 Gerber Fmt 4.6, Leading zero omitted, Abs format (unit mm)*
G04 Created by KiCad (PCBNEW 7.0.8-7.0.8~ubuntu22.04.1) date 2023-11-12 23:56:43*
%MOMM*%
%LPD*%
G01*
G04 APERTURE LIST*
G04 Aperture macros list*
%AMRoundRect*
0 Rectangle with rounded corners*
0 $1 Rounding radius*
0 $2 $3 $4 $5 $6 $7 $8 $9 X,Y pos of 4 corners*
0 Add a 4 corners polygon primitive as box body*
4,1,4,$2,$3,$4,$5,$6,$7,$8,$9,$2,$3,0*
0 Add four circle primitives for the rounded corners*
1,1,$1+$1,$2,$3*
1,1,$1+$1,$4,$5*
1,1,$1+$1,$6,$7*
1,1,$1+$1,$8,$9*
0 Add four rect primitives between the rounded corners*
20,1,$1+$1,$2,$3,$4,$5,0*
20,1,$1+$1,$4,$5,$6,$7,0*
20,1,$1+$1,$6,$7,$8,$9,0*
20,1,$1+$1,$8,$9,$2,$3,0*%
%AMFreePoly0*
4,1,31,3.000000,0.000000,2.979715,-0.348279,2.919135,-0.691848,2.819078,-1.026060,2.680898,-1.346398,2.506463,-1.648527,2.298133,-1.928363,2.058725,-2.182121,1.791476,-2.406370,1.500000,-2.598076,1.188239,-2.754648,0.860410,-2.873969,0.520945,-2.954423,0.174434,-2.994924,-0.174434,-2.994924,-0.520945,-2.954423,-0.860410,-2.873969,-1.188239,-2.754648,-1.500000,-2.598076,-1.791476,-2.406370,
-2.058725,-2.182121,-2.298133,-1.928363,-2.506463,-1.648527,-2.680898,-1.346398,-2.819078,-1.026060,-2.919135,-0.691848,-2.979715,-0.348279,-3.000000,0.000000,-3.000000,3.000000,3.000000,3.000000,3.000000,0.000000,3.000000,0.000000,$1*%
%AMFreePoly1*
4,1,18,-0.150000,0.475000,-0.144291,0.503701,-0.128033,0.528033,-0.103701,0.544291,-0.075000,0.550000,0.075000,0.550000,0.150000,0.475000,0.150000,-0.475000,0.144291,-0.503701,0.128033,-0.528033,0.103701,-0.544291,0.075000,-0.550000,-0.075000,-0.550000,-0.103701,-0.544291,-0.128033,-0.528033,-0.144291,-0.503701,-0.150000,-0.475000,-0.150000,0.475000,-0.150000,0.475000,$1*%
%AMFreePoly2*
4,1,18,-0.550000,0.075000,-0.544291,0.103701,-0.528033,0.128033,-0.503701,0.144291,-0.475000,0.150000,0.475000,0.150000,0.503701,0.144291,0.528033,0.128033,0.544291,0.103701,0.550000,0.075000,0.550000,-0.075000,0.544291,-0.103701,0.528033,-0.128033,0.503701,-0.144291,0.475000,-0.150000,-0.475000,-0.150000,-0.550000,-0.075000,-0.550000,0.075000,-0.550000,0.075000,$1*%
G04 Aperture macros list end*
%TA.AperFunction,SMDPad,CuDef*%
%ADD10RoundRect,0.500000X0.125000X1.500000X-0.125000X1.500000X-0.125000X-1.500000X0.125000X-1.500000X0*%
%TD*%
%TA.AperFunction,SMDPad,CuDef*%
%ADD11RoundRect,0.500000X0.400000X1.500000X-0.400000X1.500000X-0.400000X-1.500000X0.400000X-1.500000X0*%
%TD*%
%TA.AperFunction,SMDPad,CuDef*%
%ADD12RoundRect,0.450000X0.450000X1.500000X-0.450000X1.500000X-0.450000X-1.500000X0.450000X-1.500000X0*%
%TD*%
%TA.AperFunction,SMDPad,CuDef*%
%ADD13RoundRect,0.100000X-0.175000X-0.200000X0.175000X-0.200000X0.175000X0.200000X-0.175000X0.200000X0*%
%TD*%
%TA.AperFunction,SMDPad,CuDef*%
%ADD14RoundRect,0.100000X-0.250000X0.150000X-0.250000X-0.150000X0.250000X-0.150000X0.250000X0.150000X0*%
%TD*%
%TA.AperFunction,SMDPad,CuDef*%
%ADD15RoundRect,0.105714X-0.819286X1.169286X-0.819286X-1.169286X0.819286X-1.169286X0.819286X1.169286X0*%
%TD*%
%TA.AperFunction,ComponentPad*%
%ADD16C,0.800000*%
%TD*%
%TA.AperFunction,ComponentPad*%
%ADD17FreePoly0,270.000000*%
%TD*%
%TA.AperFunction,SMDPad,CuDef*%
%ADD18RoundRect,0.100000X-0.400000X0.350000X-0.400000X-0.350000X0.400000X-0.350000X0.400000X0.350000X0*%
%TD*%
%TA.AperFunction,SMDPad,CuDef*%
%ADD19RoundRect,0.100000X-0.200000X0.175000X-0.200000X-0.175000X0.200000X-0.175000X0.200000X0.175000X0*%
%TD*%
%TA.AperFunction,SMDPad,CuDef*%
%ADD20RoundRect,0.100000X0.175000X0.200000X-0.175000X0.200000X-0.175000X-0.200000X0.175000X-0.200000X0*%
%TD*%
%TA.AperFunction,SMDPad,CuDef*%
%ADD21RoundRect,0.100000X0.200000X-0.175000X0.200000X0.175000X-0.200000X0.175000X-0.200000X-0.175000X0*%
%TD*%
%TA.AperFunction,SMDPad,CuDef*%
%ADD22RoundRect,0.100000X0.150000X0.250000X-0.150000X0.250000X-0.150000X-0.250000X0.150000X-0.250000X0*%
%TD*%
%TA.AperFunction,SMDPad,CuDef*%
%ADD23RoundRect,0.105714X1.169286X0.819286X-1.169286X0.819286X-1.169286X-0.819286X1.169286X-0.819286X0*%
%TD*%
%TA.AperFunction,ComponentPad*%
%ADD24FreePoly0,90.000000*%
%TD*%
%TA.AperFunction,SMDPad,CuDef*%
%ADD25RoundRect,0.075000X-0.525000X-0.075000X0.525000X-0.075000X0.525000X0.075000X-0.525000X0.075000X0*%
%TD*%
%TA.AperFunction,SMDPad,CuDef*%
%ADD26RoundRect,0.075000X-0.075000X-0.525000X0.075000X-0.525000X0.075000X0.525000X-0.075000X0.525000X0*%
%TD*%
%TA.AperFunction,SMDPad,CuDef*%
%ADD27FreePoly1,0.000000*%
%TD*%
%TA.AperFunction,SMDPad,CuDef*%
%ADD28FreePoly2,0.000000*%
%TD*%
%TA.AperFunction,ComponentPad*%
%ADD29C,0.500000*%
%TD*%
%TA.AperFunction,SMDPad,CuDef*%
%ADD30RoundRect,0.250000X-2.250000X-2.250000X2.250000X-2.250000X2.250000X2.250000X-2.250000X2.250000X0*%
%TD*%
%TA.AperFunction,SMDPad,CuDef*%
%ADD31RoundRect,0.250000X-0.625000X0.312500X-0.625000X-0.312500X0.625000X-0.312500X0.625000X0.312500X0*%
%TD*%
%TA.AperFunction,ViaPad*%
%ADD32C,0.500000*%
%TD*%
%TA.AperFunction,ViaPad*%
%ADD33C,0.600000*%
%TD*%
%TA.AperFunction,Conductor*%
%ADD34C,0.100000*%
%TD*%
%TA.AperFunction,Conductor*%
%ADD35C,0.250000*%
%TD*%
%TA.AperFunction,Conductor*%
%ADD36C,0.300000*%
%TD*%
%TA.AperFunction,Conductor*%
%ADD37C,0.150000*%
%TD*%
%TA.AperFunction,Conductor*%
%ADD38C,0.200000*%
%TD*%
G04 APERTURE END LIST*
D10*
%TO.P,M1,1*%
%TO.N,/A2*%
X138750000Y-65250000D03*
%TO.P,M1,2,-*%
%TO.N,/A1*%
X136250000Y-65250000D03*
%TO.P,M1,3*%
%TO.N,/B2*%
X133750000Y-65250000D03*
%TO.P,M1,4*%
%TO.N,/B1*%
X131250000Y-65250000D03*
D11*
%TO.P,M1,5*%
%TO.N,GND*%
X128500000Y-58250000D03*
D12*
%TO.P,M1,6*%
X141500000Y-58250000D03*
%TD*%
D13*
%TO.P,C7,1*%
%TO.N,+48V*%
X138400000Y-79000000D03*
%TO.P,C7,2*%
%TO.N,GND*%
X139400000Y-79000000D03*
%TD*%
D14*
%TO.P,Q8,1,S*%
%TO.N,Net-(Q6-S-Pad1)*%
X139550000Y-68525000D03*
%TO.P,Q8,2,S*%
X139550000Y-69175000D03*
%TO.P,Q8,3,S*%
X139550000Y-69825000D03*
%TO.P,Q8,4,G*%
%TO.N,/LA2*%
X139550000Y-70475000D03*
%TO.P,Q8,5,D*%
%TO.N,/A2*%
X142450000Y-70475000D03*
%TO.P,Q8,6,D*%
X142450000Y-69825000D03*
%TO.P,Q8,7,D*%
X142450000Y-69175000D03*
%TO.P,Q8,8,D*%
X142450000Y-68525000D03*
D15*
X141300000Y-69500000D03*
%TD*%
D14*
%TO.P,Q4,1,S*%
%TO.N,Net-(Q2-S-Pad1)*%
X131550000Y-68525000D03*
%TO.P,Q4,2,S*%
X131550000Y-69175000D03*
%TO.P,Q4,3,S*%
X131550000Y-69825000D03*
%TO.P,Q4,4,G*%
%TO.N,/LB2*%
X131550000Y-70475000D03*
%TO.P,Q4,5,D*%
%TO.N,/B2*%
X134450000Y-70475000D03*
%TO.P,Q4,6,D*%
X134450000Y-69825000D03*
%TO.P,Q4,7,D*%
X134450000Y-69175000D03*
%TO.P,Q4,8,D*%
X134450000Y-68525000D03*
D15*
X133300000Y-69500000D03*
%TD*%
D16*
%TO.P,H2,1,1*%
%TO.N,GND*%
X147000000Y-62100000D03*
X148697056Y-62802944D03*
X145302944Y-62802944D03*
X149400000Y-64500000D03*
D17*
X147000000Y-64500000D03*
D16*
X144600000Y-64500000D03*
X148697056Y-66197056D03*
X145302944Y-66197056D03*
X147000000Y-66900000D03*
%TD*%
D18*
%TO.P,D1,2,A*%
%TO.N,VCC*%
X140500000Y-82850000D03*
%TO.P,D1,1,K*%
%TO.N,Net-(D1-K)*%
X140500000Y-81350000D03*
%TD*%
D19*
%TO.P,R12,1*%
%TO.N,GND*%
X144500000Y-73500000D03*
%TO.P,R12,2*%
%TO.N,/SRAL*%
X144500000Y-74500000D03*
%TD*%
D20*
%TO.P,C5,1*%
%TO.N,GND*%
X139400000Y-81000000D03*
%TO.P,C5,2*%
%TO.N,Net-(U1-VCC)*%
X138400000Y-81000000D03*
%TD*%
D19*
%TO.P,R8,1*%
%TO.N,Net-(Q2-S-Pad1)*%
X126500000Y-73500000D03*
%TO.P,R8,2*%
%TO.N,/SRBH*%
X126500000Y-74500000D03*
%TD*%
D21*
%TO.P,C8,1*%
%TO.N,Net-(U1-CB1)*%
X127750000Y-76750000D03*
%TO.P,C8,2*%
%TO.N,/B1*%
X127750000Y-75750000D03*
%TD*%
D22*
%TO.P,Q5,1,S*%
%TO.N,/A1*%
X137975000Y-71550000D03*
%TO.P,Q5,2,S*%
X137325000Y-71550000D03*
%TO.P,Q5,3,S*%
X136675000Y-71550000D03*
%TO.P,Q5,4,G*%
%TO.N,/HA1*%
X136025000Y-71550000D03*
%TO.P,Q5,5,D*%
%TO.N,+48V*%
X136025000Y-74450000D03*
%TO.P,Q5,6,D*%
X136675000Y-74450000D03*
%TO.P,Q5,7,D*%
X137325000Y-74450000D03*
%TO.P,Q5,8,D*%
X137975000Y-74450000D03*
D23*
X137000000Y-73300000D03*
%TD*%
D22*
%TO.P,Q1,1,S*%
%TO.N,/B1*%
X129975000Y-71550000D03*
%TO.P,Q1,2,S*%
X129325000Y-71550000D03*
%TO.P,Q1,3,S*%
X128675000Y-71550000D03*
%TO.P,Q1,4,G*%
%TO.N,/HB1*%
X128025000Y-71550000D03*
%TO.P,Q1,5,D*%
%TO.N,+48V*%
X128025000Y-74450000D03*
%TO.P,Q1,6,D*%
X128675000Y-74450000D03*
%TO.P,Q1,7,D*%
X129325000Y-74450000D03*
%TO.P,Q1,8,D*%
X129975000Y-74450000D03*
D23*
X129000000Y-73300000D03*
%TD*%
D19*
%TO.P,R9,1*%
%TO.N,GND*%
X125500000Y-73500000D03*
%TO.P,R9,2*%
%TO.N,/SRBL*%
X125500000Y-74500000D03*
%TD*%
D13*
%TO.P,C2,1*%
%TO.N,Net-(U1-CPO)*%
X138400000Y-80000000D03*
%TO.P,C2,2*%
%TO.N,Net-(U1-CPI)*%
X139400000Y-80000000D03*
%TD*%
D20*
%TO.P,R4,1*%
%TO.N,Net-(U1-5VOUT)*%
X127550000Y-80250000D03*
%TO.P,R4,2*%
%TO.N,Net-(U1-VCC)*%
X126550000Y-80250000D03*
%TD*%
%TO.P,C6,1*%
%TO.N,+12V*%
X127550000Y-78250000D03*
%TO.P,C6,2*%
%TO.N,GND*%
X126550000Y-78250000D03*
%TD*%
%TO.P,R3,1*%
%TO.N,/Clk*%
X127550000Y-81250000D03*
%TO.P,R3,2*%
%TO.N,GND*%
X126550000Y-81250000D03*
%TD*%
D13*
%TO.P,C4,1*%
%TO.N,GND*%
X126550000Y-79250000D03*
%TO.P,C4,2*%
%TO.N,Net-(U1-5VOUT)*%
X127550000Y-79250000D03*
%TD*%
D16*
%TO.P,H1,1,1*%
%TO.N,+48V*%
X123000000Y-66900000D03*
X121302944Y-66197056D03*
X124697056Y-66197056D03*
X120600000Y-64500000D03*
D24*
X123000000Y-64500000D03*
D16*
X125400000Y-64500000D03*
X121302944Y-62802944D03*
X124697056Y-62802944D03*
X123000000Y-62100000D03*
%TD*%
D21*
%TO.P,C11,1*%
%TO.N,Net-(U1-CA2)*%
X138250000Y-76750000D03*
%TO.P,C11,2*%
%TO.N,/A2*%
X138250000Y-75750000D03*
%TD*%
D14*
%TO.P,Q2,1,S*%
%TO.N,Net-(Q2-S-Pad1)*%
X127550000Y-68525000D03*
%TO.P,Q2,2,S*%
X127550000Y-69175000D03*
%TO.P,Q2,3,S*%
X127550000Y-69825000D03*
%TO.P,Q2,4,G*%
%TO.N,/LB1*%
X127550000Y-70475000D03*
%TO.P,Q2,5,D*%
%TO.N,/B1*%
X130450000Y-70475000D03*
%TO.P,Q2,6,D*%
X130450000Y-69825000D03*
%TO.P,Q2,7,D*%
X130450000Y-69175000D03*
%TO.P,Q2,8,D*%
X130450000Y-68525000D03*
D15*
X129300000Y-69500000D03*
%TD*%
D18*
%TO.P,D2,1,K*%
%TO.N,Net-(D2-K)*%
X141900000Y-81350000D03*
%TO.P,D2,2,A*%
%TO.N,VCC*%
X141900000Y-82850000D03*
%TD*%
D21*
%TO.P,R16,1*%
%TO.N,Net-(D2-K)*%
X141700000Y-80300000D03*
%TO.P,R16,2*%
%TO.N,/Diag1*%
X141700000Y-79300000D03*
%TD*%
D25*
%TO.P,U1,1,HB1*%
%TO.N,/HB1*%
X128750000Y-77500000D03*
%TO.P,U1,2,CB1*%
%TO.N,Net-(U1-CB1)*%
X128750000Y-78000000D03*
%TO.P,U1,3,12VOUT*%
%TO.N,+12V*%
X128750000Y-78500000D03*
%TO.P,U1,4,VSA*%
X128750000Y-79000000D03*
%TO.P,U1,5,5VOUT*%
%TO.N,Net-(U1-5VOUT)*%
X128750000Y-79500000D03*
%TO.P,U1,6,GNDA*%
%TO.N,GND*%
X128750000Y-80000000D03*
%TO.P,U1,7,SRAL*%
%TO.N,/SRAL*%
X128750000Y-80500000D03*
%TO.P,U1,8,SRAH*%
%TO.N,/SRAH*%
X128750000Y-81000000D03*
%TO.P,U1,9,SRBH*%
%TO.N,/SRBH*%
X128750000Y-81500000D03*
%TO.P,U1,10,SRBL*%
%TO.N,/SRBL*%
X128750000Y-82000000D03*
%TO.P,U1,11,TST_MODE*%
%TO.N,GND*%
X128750000Y-82500000D03*
%TO.P,U1,12,CLK*%
%TO.N,/Clk*%
X128750000Y-83000000D03*
D26*
%TO.P,U1,13,~{CS}/CFG3*%
%TO.N,/~{CS}*%
X130250000Y-84500000D03*
%TO.P,U1,14,SCK/CFG2*%
%TO.N,/SCK*%
X130750000Y-84500000D03*
%TO.P,U1,15,SDI/CFG1*%
%TO.N,/SDI*%
X131250000Y-84500000D03*
%TO.P,U1,16,SDO/CFG0*%
%TO.N,/SDO*%
X131750000Y-84500000D03*
%TO.P,U1,17,STEP*%
%TO.N,/Step*%
X132250000Y-84500000D03*
%TO.P,U1,18,DIR*%
%TO.N,/Dir*%
X132750000Y-84500000D03*
%TO.P,U1,19,GNDD*%
%TO.N,GND*%
X133250000Y-84500000D03*
%TO.P,U1,20,VCC_IO*%
%TO.N,VCC*%
X133750000Y-84500000D03*
%TO.P,U1,21,VCC_IO*%
X134250000Y-84500000D03*
%TO.P,U1,22,SPI_MODE*%
X134750000Y-84500000D03*
%TO.P,U1,23,DCEN_CFG4*%
%TO.N,unconnected-(U1-DCEN_CFG4-Pad23)*%
X135250000Y-84500000D03*
D27*
%TO.P,U1,24,DCIN_CFG5*%
%TO.N,unconnected-(U1-DCIN_CFG5-Pad24)*%
X135750000Y-84550000D03*
D28*
%TO.P,U1,25,DCO_CFG6*%
%TO.N,unconnected-(U1-DCO_CFG6-Pad25)*%
X137300000Y-83000000D03*
D25*
%TO.P,U1,26,DIAG0*%
%TO.N,/Diag0*%
X137250000Y-82500000D03*
%TO.P,U1,27,DIAG1*%
%TO.N,/Diag1*%
X137250000Y-82000000D03*
%TO.P,U1,28,~{DRV_EN}*%
%TO.N,/~{En}*%
X137250000Y-81500000D03*
%TO.P,U1,29,VCC*%
%TO.N,Net-(U1-VCC)*%
X137250000Y-81000000D03*
%TO.P,U1,30,GNDD*%
%TO.N,GND*%
X137250000Y-80500000D03*
%TO.P,U1,31,CPO*%
%TO.N,Net-(U1-CPO)*%
X137250000Y-80000000D03*
%TO.P,U1,32,CPI*%
%TO.N,Net-(U1-CPI)*%
X137250000Y-79500000D03*
%TO.P,U1,33,VS*%
%TO.N,+48V*%
X137250000Y-79000000D03*
%TO.P,U1,34,VCP*%
%TO.N,Net-(U1-VCP)*%
X137250000Y-78500000D03*
%TO.P,U1,35,CA2*%
%TO.N,Net-(U1-CA2)*%
X137250000Y-78000000D03*
%TO.P,U1,36,HA2*%
%TO.N,/HA2*%
X137250000Y-77500000D03*
D26*
%TO.P,U1,37,BMA2*%
%TO.N,/A2*%
X135750000Y-76000000D03*
%TO.P,U1,38,LA2*%
%TO.N,/LA2*%
X135250000Y-76000000D03*
%TO.P,U1,39,LA1*%
%TO.N,/LA1*%
X134750000Y-76000000D03*
%TO.P,U1,40,BMA1*%
%TO.N,/A1*%
X134250000Y-76000000D03*
%TO.P,U1,41,HA1*%
%TO.N,/HA1*%
X133750000Y-76000000D03*
%TO.P,U1,42,CA1*%
%TO.N,Net-(U1-CA1)*%
X133250000Y-76000000D03*
%TO.P,U1,43,CB2*%
%TO.N,Net-(U1-CB2)*%
X132750000Y-76000000D03*
%TO.P,U1,44,HB2*%
%TO.N,/HB2*%
X132250000Y-76000000D03*
%TO.P,U1,45,BMB2*%
%TO.N,/B2*%
X131750000Y-76000000D03*
%TO.P,U1,46,LB2*%
%TO.N,/LB2*%
X131250000Y-76000000D03*
%TO.P,U1,47,LB1*%
%TO.N,/LB1*%
X130750000Y-76000000D03*
%TO.P,U1,48,BMB1*%
%TO.N,/B1*%
X130250000Y-76000000D03*
D29*
%TO.P,U1,49,EP*%
%TO.N,GND*%
X130750000Y-78000000D03*
X130750000Y-79125000D03*
X130750000Y-80250000D03*
X130750000Y-81375000D03*
X131875000Y-78000000D03*
X131875000Y-79125000D03*
X131875000Y-80250000D03*
X131875000Y-81375000D03*
X133000000Y-78000000D03*
X133000000Y-79125000D03*
X133000000Y-80250000D03*
D30*
X133000000Y-80250000D03*
D29*
X133000000Y-81375000D03*
X134125000Y-78000000D03*
X134125000Y-79125000D03*
X134125000Y-80250000D03*
X134125000Y-81375000D03*
X135250000Y-78000000D03*
X135250000Y-79125000D03*
X135250000Y-80250000D03*
X135250000Y-81375000D03*
%TD*%
D21*
%TO.P,C9,1*%
%TO.N,Net-(U1-CB2)*%
X128750000Y-76750000D03*
%TO.P,C9,2*%
%TO.N,/B2*%
X128750000Y-75750000D03*
%TD*%
D22*
%TO.P,Q3,1,S*%
%TO.N,/B2*%
X133975000Y-71550000D03*
%TO.P,Q3,2,S*%
X133325000Y-71550000D03*
%TO.P,Q3,3,S*%
X132675000Y-71550000D03*
%TO.P,Q3,4,G*%
%TO.N,/HB2*%
X132025000Y-71550000D03*
%TO.P,Q3,5,D*%
%TO.N,+48V*%
X132025000Y-74450000D03*
%TO.P,Q3,6,D*%
X132675000Y-74450000D03*
%TO.P,Q3,7,D*%
X133325000Y-74450000D03*
%TO.P,Q3,8,D*%
X133975000Y-74450000D03*
D23*
X133000000Y-73300000D03*
%TD*%
D19*
%TO.P,R11,1*%
%TO.N,Net-(Q6-S-Pad1)*%
X143500000Y-73500000D03*
%TO.P,R11,2*%
%TO.N,/SRAH*%
X143500000Y-74500000D03*
%TD*%
D22*
%TO.P,Q7,1,S*%
%TO.N,/A2*%
X141975000Y-71550000D03*
%TO.P,Q7,2,S*%
X141325000Y-71550000D03*
%TO.P,Q7,3,S*%
X140675000Y-71550000D03*
%TO.P,Q7,4,G*%
%TO.N,/HA2*%
X140025000Y-71550000D03*
%TO.P,Q7,5,D*%
%TO.N,+48V*%
X140025000Y-74450000D03*
%TO.P,Q7,6,D*%
X140675000Y-74450000D03*
%TO.P,Q7,7,D*%
X141325000Y-74450000D03*
%TO.P,Q7,8,D*%
X141975000Y-74450000D03*
D23*
X141000000Y-73300000D03*
%TD*%
D31*
%TO.P,R13,1*%
%TO.N,Net-(Q6-S-Pad1)*%
X144250000Y-69537500D03*
%TO.P,R13,2*%
%TO.N,GND*%
X144250000Y-72462500D03*
%TD*%
D14*
%TO.P,Q6,1,S*%
%TO.N,Net-(Q6-S-Pad1)*%
X135550000Y-68525000D03*
%TO.P,Q6,2,S*%
X135550000Y-69175000D03*
%TO.P,Q6,3,S*%
X135550000Y-69825000D03*
%TO.P,Q6,4,G*%
%TO.N,/LA1*%
X135550000Y-70475000D03*
%TO.P,Q6,5,D*%
%TO.N,/A1*%
X138450000Y-70475000D03*
%TO.P,Q6,6,D*%
X138450000Y-69825000D03*
%TO.P,Q6,7,D*%
X138450000Y-69175000D03*
%TO.P,Q6,8,D*%
X138450000Y-68525000D03*
D15*
X137300000Y-69500000D03*
%TD*%
D20*
%TO.P,C3,1*%
%TO.N,GND*%
X137500000Y-84550000D03*
%TO.P,C3,2*%
%TO.N,VCC*%
X136500000Y-84550000D03*
%TD*%
%TO.P,R1,1*%
%TO.N,Net-(D1-K)*%
X139400000Y-82000000D03*
%TO.P,R1,2*%
%TO.N,/~{En}*%
X138400000Y-82000000D03*
%TD*%
D21*
%TO.P,C10,1*%
%TO.N,Net-(U1-CA1)*%
X137250000Y-76750000D03*
%TO.P,C10,2*%
%TO.N,/A1*%
X137250000Y-75750000D03*
%TD*%
D20*
%TO.P,R2,1*%
%TO.N,VCC*%
X139400000Y-83000000D03*
%TO.P,R2,2*%
%TO.N,/~{En}*%
X138400000Y-83000000D03*
%TD*%
D31*
%TO.P,R10,1*%
%TO.N,Net-(Q2-S-Pad1)*%
X125750000Y-69537500D03*
%TO.P,R10,2*%
%TO.N,GND*%
X125750000Y-72462500D03*
%TD*%
D13*
%TO.P,C1,1*%
%TO.N,Net-(U1-VCP)*%
X138400000Y-78000000D03*
%TO.P,C1,2*%
%TO.N,+48V*%
X139400000Y-78000000D03*
%TD*%
D32*
%TO.N,GND*%
X143200000Y-80500000D03*
%TO.N,/Diag0*%
X143750000Y-76750000D03*
%TO.N,/Dir*%
X143200000Y-79000000D03*
%TO.N,/Step*%
X143200000Y-82000000D03*
%TO.N,/Diag1*%
X143750000Y-78250000D03*
%TO.N,VCC*%
X139850000Y-83000000D03*
%TO.N,/Clk*%
X127800000Y-82750000D03*
%TO.N,/SRBL*%
X127000000Y-77450000D03*
%TO.N,GND*%
X138150000Y-84550000D03*
%TO.N,/~{En}*%
X140700000Y-78300000D03*
%TO.N,/~{CS}*%
X129950000Y-82700000D03*
D33*
%TO.N,GND*%
X149300000Y-72500000D03*
D32*
X139800000Y-79000000D03*
X129500000Y-79975000D03*
D33*
X149300000Y-68300000D03*
X120700000Y-72500000D03*
X120700000Y-68300000D03*
X120700000Y-69500000D03*
X120700000Y-70700000D03*
X149300000Y-73700000D03*
X149300000Y-70700000D03*
X149300000Y-69500000D03*
X120700000Y-68900000D03*
X120700000Y-70100000D03*
X120700000Y-73700000D03*
X149300000Y-68900000D03*
D32*
X129725000Y-81250000D03*
D33*
X149300000Y-74900000D03*
D32*
X139025000Y-80650000D03*
D33*
X149300000Y-71300000D03*
X120700000Y-71300000D03*
X120700000Y-71900000D03*
X149300000Y-70100000D03*
X149300000Y-71900000D03*
X149300000Y-74300000D03*
X120700000Y-74900000D03*
X120700000Y-73100000D03*
X149300000Y-73100000D03*
X120700000Y-74300000D03*
D32*
%TO.N,+12V*%
X129500000Y-79000000D03*
D33*
%TO.N,+48V*%
X140100000Y-73300000D03*
X133900000Y-72700000D03*
X129300000Y-73900000D03*
X137900000Y-73300000D03*
X129300000Y-72700000D03*
X137900000Y-73900000D03*
X132100000Y-73900000D03*
X128700000Y-73300000D03*
X128100000Y-73300000D03*
X128700000Y-72700000D03*
X137900000Y-72700000D03*
X137300000Y-73300000D03*
X136700000Y-72700000D03*
X141300000Y-73300000D03*
X129300000Y-73300000D03*
X136100000Y-72700000D03*
X133300000Y-73300000D03*
X129900000Y-73900000D03*
X129900000Y-72700000D03*
X128700000Y-73900000D03*
X137300000Y-72700000D03*
X141300000Y-72700000D03*
X133300000Y-73900000D03*
X141900000Y-72700000D03*
X136100000Y-73300000D03*
X132700000Y-73900000D03*
X132700000Y-72700000D03*
X140700000Y-73900000D03*
X129900000Y-73300000D03*
X136100000Y-73900000D03*
X133900000Y-73900000D03*
X128100000Y-73900000D03*
X140100000Y-72700000D03*
X137300000Y-73900000D03*
X140100000Y-73900000D03*
X132700000Y-73300000D03*
X132100000Y-73300000D03*
X141900000Y-73300000D03*
X133300000Y-72700000D03*
X132100000Y-72700000D03*
X136700000Y-73900000D03*
X140700000Y-73300000D03*
X140700000Y-72700000D03*
X141900000Y-73900000D03*
X141300000Y-73900000D03*
X136700000Y-73300000D03*
X128100000Y-72700000D03*
X133900000Y-73300000D03*
D32*
%TO.N,/SCK*%
X130750000Y-83825000D03*
%TO.N,/SDI*%
X132500000Y-83125000D03*
%TO.N,/SDO*%
X135850000Y-82675000D03*
%TO.N,VCC*%
X136850000Y-84550000D03*
D33*
%TO.N,Net-(Q2-S-Pad1)*%
X127600500Y-68600000D03*
X127600000Y-69200000D03*
X131600500Y-68600000D03*
X131600000Y-69800000D03*
X127600000Y-68000000D03*
X131600000Y-68000000D03*
X131600000Y-69200000D03*
X127600000Y-69800000D03*
D32*
%TO.N,/LB1*%
X129650000Y-75150000D03*
X126950000Y-75150000D03*
D33*
%TO.N,Net-(Q6-S-Pad1)*%
X135600500Y-68600000D03*
X139600000Y-68000000D03*
X143200000Y-68600000D03*
X139600000Y-69800000D03*
X143200000Y-69800000D03*
X135600000Y-69200000D03*
X135600000Y-68000000D03*
X139600500Y-68600000D03*
X143200000Y-69200000D03*
X143200000Y-70400000D03*
X139600000Y-69200000D03*
X135600000Y-69800000D03*
D32*
%TO.N,/LA1*%
X135400000Y-74800000D03*
X134650000Y-73900000D03*
%TO.N,/SRBL*%
X128075000Y-82000000D03*
%TO.N,/SRAH*%
X136250000Y-78100000D03*
X139200000Y-76600000D03*
%TO.N,/SRAL*%
X136250000Y-77400000D03*
X139200000Y-77300000D03*
%TD*%
D34*
%TO.N,/Diag1*%
X143750000Y-78250000D02*
X142800000Y-78250000D01*
X142800000Y-78250000D02*
X141750000Y-79300000D01*
%TO.N,/Diag0*%
X136762868Y-83300000D02*
X136600000Y-83137132D01*
X142403556Y-83450000D02*
X138121444Y-83450000D01*
X142550000Y-80400000D02*
X142550000Y-83303556D01*
X137971444Y-83300000D02*
X136762868Y-83300000D01*
X136831802Y-82500000D02*
X137250000Y-82500000D01*
X141950000Y-79800000D02*
X142550000Y-80400000D01*
X138121444Y-83450000D02*
X137971444Y-83300000D01*
X136600000Y-83137132D02*
X136600000Y-82731802D01*
X141471444Y-79800000D02*
X141950000Y-79800000D01*
X141250000Y-79578556D02*
X141471444Y-79800000D01*
X142550000Y-83303556D02*
X142403556Y-83450000D01*
X143750000Y-76750000D02*
X141625000Y-78875000D01*
X141250000Y-79021444D02*
X141250000Y-79578556D01*
X141396444Y-78875000D02*
X141250000Y-79021444D01*
X141625000Y-78875000D02*
X141396444Y-78875000D01*
X136600000Y-82731802D02*
X136831802Y-82500000D01*
%TO.N,/Dir*%
X137722918Y-83900000D02*
X136514342Y-83900000D01*
X137872915Y-84050000D02*
X137722918Y-83900000D01*
X143150000Y-83552084D02*
X142652084Y-84050000D01*
X136514342Y-83900000D02*
X135914342Y-83300000D01*
X142652084Y-84050000D02*
X137872915Y-84050000D01*
X143150000Y-82701041D02*
X143150000Y-83552084D01*
X143675000Y-79475000D02*
X143675000Y-82176041D01*
X135914342Y-83300000D02*
X133531802Y-83300000D01*
X133531802Y-83300000D02*
X132750000Y-84081802D01*
X143675000Y-82176041D02*
X143150000Y-82701041D01*
X132750000Y-84081802D02*
X132750000Y-84500000D01*
X143200000Y-79000000D02*
X143675000Y-79475000D01*
%TO.N,/Step*%
X132798960Y-83750000D02*
X132581802Y-83750000D01*
X142950000Y-83469242D02*
X142569241Y-83850000D01*
X133448960Y-83100000D02*
X132798960Y-83750000D01*
X143200000Y-82000000D02*
X142950000Y-82250000D01*
X132581802Y-83750000D02*
X132250000Y-84081802D01*
X137805759Y-83700000D02*
X136597184Y-83700000D01*
X137955758Y-83850000D02*
X137805759Y-83700000D01*
X135997183Y-83100000D02*
X133448960Y-83100000D01*
X142950000Y-82250000D02*
X142950000Y-83469242D01*
X136597184Y-83700000D02*
X135997183Y-83100000D01*
X142569241Y-83850000D02*
X137955758Y-83850000D01*
X132250000Y-84081802D02*
X132250000Y-84500000D01*
%TO.N,/~{En}*%
X140700000Y-78300000D02*
X140700000Y-80350000D01*
X140100000Y-82100000D02*
X139700000Y-82500000D01*
X140700000Y-80350000D02*
X141200000Y-80850000D01*
X141200000Y-80850000D02*
X141200000Y-81753556D01*
X141200000Y-81753556D02*
X140853556Y-82100000D01*
X140853556Y-82100000D02*
X140100000Y-82100000D01*
X139700000Y-82500000D02*
X138900000Y-82500000D01*
%TO.N,/Diag1*%
X137250000Y-82000000D02*
X136800000Y-82000000D01*
X136800000Y-82000000D02*
X136400000Y-82400000D01*
X136400000Y-82400000D02*
X136400000Y-83219974D01*
X141750000Y-79300000D02*
X141700000Y-79300000D01*
X136400000Y-83219974D02*
X136680026Y-83500000D01*
X136680026Y-83500000D02*
X137888602Y-83500000D01*
X137888602Y-83500000D02*
X138038601Y-83650000D01*
X142486398Y-83650000D02*
X142750000Y-83386399D01*
X138038601Y-83650000D02*
X142486398Y-83650000D01*
X142750000Y-83386399D02*
X142750000Y-80300000D01*
X142750000Y-80300000D02*
X141750000Y-79300000D01*
%TO.N,Net-(D2-K)*%
X141700000Y-80300000D02*
X141700000Y-81150000D01*
X141700000Y-81150000D02*
X141900000Y-81350000D01*
%TO.N,VCC*%
X141900000Y-82850000D02*
X140500000Y-82850000D01*
X139400000Y-83000000D02*
X139850000Y-83000000D01*
%TO.N,Net-(U1-VCC)*%
X130573960Y-77575000D02*
X135426041Y-77575000D01*
X129500000Y-83168198D02*
X129500000Y-82451040D01*
X130325000Y-77823959D02*
X130573960Y-77575000D01*
X130325000Y-81251041D02*
X130325000Y-77823959D01*
X127050000Y-82601041D02*
X127748959Y-83300000D01*
X129700000Y-81876041D02*
X130325000Y-81251041D01*
X129700000Y-82251040D02*
X129700000Y-81876041D01*
X129500000Y-82451040D02*
X129700000Y-82251040D01*
X127050000Y-80761398D02*
X127050000Y-82601041D01*
X126550000Y-80261398D02*
X127050000Y-80761398D01*
X129368198Y-83300000D02*
X129500000Y-83168198D01*
X127748959Y-83300000D02*
X129368198Y-83300000D01*
X126550000Y-80250000D02*
X126550000Y-80261398D01*
X135426041Y-77575000D02*
X135825000Y-77973959D01*
X135825000Y-77973959D02*
X135825000Y-78276041D01*
X135825000Y-78276041D02*
X136500000Y-78951041D01*
X136500000Y-78951041D02*
X136500000Y-80700000D01*
X136500000Y-80700000D02*
X136700000Y-80900000D01*
%TO.N,/Clk*%
X127800000Y-82750000D02*
X127950000Y-82900000D01*
X127950000Y-82900000D02*
X128650000Y-82900000D01*
X128650000Y-82900000D02*
X128750000Y-83000000D01*
X127550000Y-82500000D02*
X127550000Y-81250000D01*
X127800000Y-82750000D02*
X127550000Y-82500000D01*
%TO.N,/SRBH*%
X128750000Y-81500000D02*
X128331802Y-81500000D01*
X128331802Y-81500000D02*
X127975000Y-81143198D01*
X127975000Y-81143198D02*
X127975000Y-80946444D01*
X127300000Y-77148959D02*
X127300000Y-76382108D01*
X127975000Y-80946444D02*
X127778556Y-80750000D01*
X127778556Y-80750000D02*
X127321444Y-80750000D01*
X127050000Y-78021444D02*
X127425000Y-77646444D01*
X127321444Y-80750000D02*
X127050000Y-80478556D01*
X127050000Y-80478556D02*
X127050000Y-78021444D01*
X127425000Y-77646444D02*
X127425000Y-77273959D01*
X127425000Y-77273959D02*
X127300000Y-77148959D01*
X127300000Y-76382108D02*
X126500000Y-75582108D01*
X126500000Y-75582108D02*
X126500000Y-74500000D01*
%TO.N,/SRBL*%
X127000000Y-77450000D02*
X127100000Y-77350000D01*
X127100000Y-77350000D02*
X127100000Y-76464950D01*
X127100000Y-76464950D02*
X126300000Y-75664950D01*
X126300000Y-75664950D02*
X126300000Y-75300000D01*
X126300000Y-75300000D02*
X125500000Y-74500000D01*
%TO.N,VCC*%
X136500000Y-84550000D02*
X136300000Y-84350000D01*
X134750000Y-84081802D02*
X134750000Y-84500000D01*
X136300000Y-84350000D02*
X136300000Y-84251343D01*
X135131802Y-83700000D02*
X134750000Y-84081802D01*
X136300000Y-84251343D02*
X135748658Y-83700000D01*
X135748658Y-83700000D02*
X135131802Y-83700000D01*
X136850000Y-84550000D02*
X136500000Y-84550000D01*
D35*
%TO.N,GND*%
X138150000Y-84550000D02*
X137500000Y-84550000D01*
D34*
X133250000Y-84500000D02*
X133250000Y-84050000D01*
X133250000Y-84050000D02*
X133800000Y-83500000D01*
X133800000Y-83500000D02*
X135831500Y-83500000D01*
X136431500Y-84100000D02*
X137050000Y-84100000D01*
X137050000Y-84100000D02*
X137500000Y-84550000D01*
X135831500Y-83500000D02*
X136431500Y-84100000D01*
%TO.N,VCC*%
X139400000Y-83000000D02*
X140350000Y-83000000D01*
X140350000Y-83000000D02*
X140500000Y-82850000D01*
%TO.N,/~{En}*%
X138400000Y-83000000D02*
X138900000Y-82500000D01*
X138400000Y-82000000D02*
X138900000Y-82500000D01*
%TO.N,/~{CS}*%
X130250000Y-84500000D02*
X130250000Y-83000000D01*
X130250000Y-83000000D02*
X129950000Y-82700000D01*
%TO.N,/SDO*%
X135850000Y-82675000D02*
X135625000Y-82900000D01*
X132716117Y-83550000D02*
X132281802Y-83550000D01*
X135625000Y-82900000D02*
X133366117Y-82900000D01*
X133366117Y-82900000D02*
X132716117Y-83550000D01*
X131750000Y-84081802D02*
X131750000Y-84500000D01*
X132281802Y-83550000D02*
X131750000Y-84081802D01*
%TO.N,GND*%
X129500000Y-81793199D02*
X129500000Y-82168198D01*
X129725000Y-81250000D02*
X129725000Y-81568199D01*
X129725000Y-81568199D02*
X129500000Y-81793199D01*
X129500000Y-82168198D02*
X129168198Y-82500000D01*
X129168198Y-82500000D02*
X128750000Y-82500000D01*
D36*
%TO.N,+12V*%
X128750000Y-78500000D02*
X128750000Y-79000000D01*
X129500000Y-79000000D02*
X128750000Y-79000000D01*
D34*
%TO.N,/SRAH*%
X136250000Y-78100000D02*
X135525000Y-77375000D01*
X135525000Y-77375000D02*
X130491116Y-77375000D01*
X130491116Y-77375000D02*
X130125000Y-77741116D01*
X130125000Y-77741116D02*
X130125000Y-80233883D01*
X130125000Y-80233883D02*
X129358883Y-81000000D01*
X129358883Y-81000000D02*
X128750000Y-81000000D01*
%TO.N,/SRAL*%
X136250000Y-77400000D02*
X135832842Y-77400000D01*
X135832842Y-77400000D02*
X135607843Y-77175000D01*
X135607843Y-77175000D02*
X130408273Y-77175000D01*
X130408273Y-77175000D02*
X129925000Y-77658273D01*
X129925000Y-77658273D02*
X129925000Y-80151041D01*
X129925000Y-80151041D02*
X129576041Y-80500000D01*
X129576041Y-80500000D02*
X128750000Y-80500000D01*
D37*
%TO.N,Net-(U1-VCP)*%
X137250000Y-78500000D02*
X137900000Y-78500000D01*
X137900000Y-78500000D02*
X138400000Y-78000000D01*
%TO.N,Net-(U1-CPO)*%
X137250000Y-80000000D02*
X138400000Y-80000000D01*
%TO.N,Net-(U1-CPI)*%
X137250000Y-79500000D02*
X138900000Y-79500000D01*
X138900000Y-79500000D02*
X139400000Y-80000000D01*
D34*
%TO.N,GND*%
X126125000Y-79675000D02*
X126550000Y-79250000D01*
X139400000Y-79000000D02*
X139800000Y-79000000D01*
X129475000Y-80000000D02*
X129500000Y-79975000D01*
X126550000Y-81250000D02*
X126125000Y-80825000D01*
X126125000Y-80825000D02*
X126125000Y-79675000D01*
X128750000Y-80000000D02*
X129475000Y-80000000D01*
D36*
%TO.N,Net-(U1-5VOUT)*%
X127550000Y-80250000D02*
X127550000Y-79250000D01*
X128750000Y-79500000D02*
X127550000Y-79500000D01*
%TO.N,+12V*%
X128750000Y-78500000D02*
X127800000Y-78500000D01*
X127800000Y-78500000D02*
X127550000Y-78250000D01*
D34*
%TO.N,/~{En}*%
X137250000Y-81500000D02*
X137350000Y-81600000D01*
X138000000Y-81600000D02*
X138400000Y-82000000D01*
X137350000Y-81600000D02*
X138000000Y-81600000D01*
D37*
%TO.N,+48V*%
X138850000Y-78000000D02*
X138850000Y-78550000D01*
X139400000Y-78000000D02*
X138850000Y-78000000D01*
X137250000Y-79000000D02*
X138400000Y-79000000D01*
X138975000Y-75595404D02*
X138975000Y-76142464D01*
X138725000Y-77561090D02*
X138850000Y-77686090D01*
X140025000Y-74450000D02*
X140025000Y-74545404D01*
X138975000Y-76142464D02*
X138725000Y-76392464D01*
X138850000Y-77686090D02*
X138850000Y-78000000D01*
X138725000Y-76392464D02*
X138725000Y-77561090D01*
X140025000Y-74545404D02*
X138975000Y-75595404D01*
X138850000Y-78550000D02*
X138400000Y-79000000D01*
%TO.N,Net-(U1-CB1)*%
X127975000Y-77678554D02*
X127975000Y-76975000D01*
X127975000Y-76975000D02*
X127750000Y-76750000D01*
X128296446Y-78000000D02*
X127975000Y-77678554D01*
D34*
%TO.N,Net-(U1-CB2)*%
X132750000Y-76450000D02*
X132250000Y-76950000D01*
X132750000Y-76000000D02*
X132750000Y-76450000D01*
X128950000Y-76950000D02*
X128750000Y-76750000D01*
X132250000Y-76950000D02*
X128950000Y-76950000D01*
D36*
%TO.N,/SCK*%
X130750000Y-84500000D02*
X130750000Y-83825000D01*
D34*
%TO.N,/SDI*%
X131581802Y-83750000D02*
X131250000Y-84081802D01*
X132423960Y-83125000D02*
X131798960Y-83750000D01*
X132500000Y-83125000D02*
X132423960Y-83125000D01*
X131250000Y-84081802D02*
X131250000Y-84500000D01*
X131798960Y-83750000D02*
X131581802Y-83750000D01*
%TO.N,VCC*%
X134750000Y-84500000D02*
X134250000Y-84500000D01*
X134250000Y-84500000D02*
X133750000Y-84500000D01*
%TO.N,Net-(D2-K)*%
X141850000Y-81450000D02*
X141900000Y-81450000D01*
D38*
%TO.N,VCC*%
X134750000Y-84500000D02*
X134750000Y-84011090D01*
D34*
%TO.N,Net-(U1-CA1)*%
X133750000Y-76950000D02*
X137050000Y-76950000D01*
X137050000Y-76950000D02*
X137250000Y-76750000D01*
X133250000Y-76450000D02*
X133750000Y-76950000D01*
X133250000Y-76000000D02*
X133250000Y-76450000D01*
%TO.N,Net-(D1-K)*%
X139400000Y-82000000D02*
X139850000Y-82000000D01*
X139850000Y-82000000D02*
X140500000Y-81350000D01*
%TO.N,Net-(U1-CA2)*%
X138000000Y-77700000D02*
X138000000Y-76800000D01*
X137700000Y-78000000D02*
X138000000Y-77700000D01*
X137250000Y-78000000D02*
X137700000Y-78000000D01*
D37*
%TO.N,/B1*%
X128086090Y-75300000D02*
X128200000Y-75300000D01*
X129063910Y-75300000D02*
X129363910Y-75600000D01*
X128200000Y-75300000D02*
X129063910Y-75300000D01*
X128675000Y-71550000D02*
X128675000Y-71688910D01*
X127750000Y-75700000D02*
X128150000Y-75300000D01*
X127550000Y-74763910D02*
X128086090Y-75300000D01*
X127550000Y-72364438D02*
X127550000Y-74763910D01*
X127839438Y-72075000D02*
X127550000Y-72364438D01*
X128675000Y-71688910D02*
X128288910Y-72075000D01*
X128150000Y-75300000D02*
X128200000Y-75300000D01*
X128288910Y-72075000D02*
X127839438Y-72075000D01*
X129363910Y-75600000D02*
X130250000Y-75600000D01*
X127750000Y-75750000D02*
X127750000Y-75700000D01*
%TO.N,/B2*%
X131428554Y-75225000D02*
X131750000Y-75546446D01*
X131761090Y-71025000D02*
X131600000Y-71186090D01*
X131600000Y-71696446D02*
X131300000Y-71996446D01*
X132250000Y-71025000D02*
X131761090Y-71025000D01*
X131300000Y-75100000D02*
X131425000Y-75225000D01*
D34*
X131750000Y-76450000D02*
X131450000Y-76750000D01*
X131450000Y-76750000D02*
X129750000Y-76750000D01*
D37*
X131300000Y-71996446D02*
X131300000Y-75100000D01*
D34*
X129750000Y-76750000D02*
X128750000Y-75750000D01*
D37*
X131425000Y-75225000D02*
X131428554Y-75225000D01*
D34*
X131750000Y-76000000D02*
X131750000Y-76450000D01*
D37*
X131750000Y-75546446D02*
X131750000Y-76000000D01*
X131600000Y-71186090D02*
X131600000Y-71696446D01*
D34*
%TO.N,/A1*%
X134250000Y-76450000D02*
X134550000Y-76750000D01*
X134550000Y-76750000D02*
X136250000Y-76750000D01*
D37*
X135550000Y-72364438D02*
X135550000Y-74013604D01*
X136288910Y-72075000D02*
X135839438Y-72075000D01*
X136675000Y-71550000D02*
X136675000Y-71688910D01*
D34*
X136250000Y-76750000D02*
X137250000Y-75750000D01*
D37*
X136675000Y-71688910D02*
X136288910Y-72075000D01*
X134950000Y-74613603D02*
X134950000Y-74617464D01*
X135839438Y-72075000D02*
X135550000Y-72364438D01*
D34*
X134250000Y-76000000D02*
X134250000Y-76450000D01*
D37*
X135550000Y-74013604D02*
X134950000Y-74613603D01*
X134250000Y-75317464D02*
X134250000Y-76000000D01*
X134950000Y-74617464D02*
X134250000Y-75317464D01*
%TO.N,/A2*%
X136028554Y-75300000D02*
X137800000Y-75300000D01*
X139250000Y-71971446D02*
X139600000Y-71621446D01*
X139600000Y-71621446D02*
X139600000Y-70900000D01*
X135750000Y-75578554D02*
X136028554Y-75300000D01*
X139250000Y-74613296D02*
X139250000Y-71971446D01*
X137800000Y-75300000D02*
X138250000Y-75750000D01*
X135750000Y-76000000D02*
X135750000Y-75578554D01*
X138475000Y-75525000D02*
X138475000Y-75388298D01*
X138250000Y-75750000D02*
X138475000Y-75525000D01*
X138475000Y-75388298D02*
X139250000Y-74613296D01*
%TO.N,/HB1*%
X127275000Y-76038910D02*
X127275000Y-75461397D01*
X128013910Y-76250000D02*
X127486090Y-76250000D01*
X127400000Y-74967464D02*
X127300000Y-74867463D01*
X127486090Y-76250000D02*
X127275000Y-76038910D01*
X127300000Y-74867463D02*
X127300000Y-72260885D01*
X127400000Y-75336397D02*
X127400000Y-74967464D01*
X128250000Y-77500000D02*
X128250000Y-76486090D01*
X128250000Y-76486090D02*
X128013910Y-76250000D01*
X127300000Y-72260885D02*
X128010884Y-71550000D01*
X128010884Y-71550000D02*
X128025000Y-71550000D01*
X127275000Y-75461397D02*
X127400000Y-75336397D01*
D34*
%TO.N,Net-(Q2-S-Pad1)*%
X127050000Y-71839132D02*
X127050000Y-69950000D01*
X126500000Y-73500000D02*
X126825000Y-73175000D01*
X126825000Y-73175000D02*
X126825000Y-72064132D01*
X126825000Y-72064132D02*
X127050000Y-71839132D01*
X127050000Y-69950000D02*
X127100000Y-69900000D01*
D37*
%TO.N,/LB1*%
X127050000Y-75050000D02*
X127050000Y-72157330D01*
X126950000Y-75150000D02*
X127050000Y-75050000D01*
X129650000Y-75150000D02*
X130353554Y-75150000D01*
X127550000Y-71657330D02*
X127550000Y-70475000D01*
X127050000Y-72157330D02*
X127550000Y-71657330D01*
X130353554Y-75150000D02*
X130750000Y-75546446D01*
X130750000Y-75546446D02*
X130750000Y-76000000D01*
%TO.N,/HB2*%
X132250000Y-75546446D02*
X131550000Y-74846446D01*
X132250000Y-76000000D02*
X132250000Y-75546446D01*
X131550000Y-74846446D02*
X131550000Y-72100000D01*
X131550000Y-72100000D02*
X132000000Y-71650000D01*
%TO.N,/LB2*%
X131250000Y-75550000D02*
X131050000Y-75350000D01*
X131350000Y-71592892D02*
X131350000Y-70675000D01*
X131350000Y-70675000D02*
X131550000Y-70475000D01*
X131050000Y-75350000D02*
X131050000Y-71892892D01*
X131050000Y-71892892D02*
X131350000Y-71592892D01*
X131250000Y-76000000D02*
X131250000Y-75550000D01*
%TO.N,/HA1*%
X135300000Y-72260884D02*
X135735885Y-71825000D01*
X133750000Y-75463910D02*
X134700000Y-74513910D01*
X135735885Y-71825000D02*
X135942992Y-71825000D01*
X133750000Y-76000000D02*
X133750000Y-75463910D01*
X135300000Y-73910050D02*
X135300000Y-72260884D01*
X134700000Y-74513910D02*
X134700000Y-74510049D01*
X134700000Y-74510049D02*
X135300000Y-73910050D01*
D34*
%TO.N,Net-(Q6-S-Pad1)*%
X142600000Y-72600000D02*
X142600000Y-71078556D01*
X143500000Y-73500000D02*
X142600000Y-72600000D01*
X143200000Y-70478556D02*
X143200000Y-70400000D01*
X142600000Y-71078556D02*
X143200000Y-70478556D01*
D37*
%TO.N,/LA1*%
X135050000Y-73500000D02*
X135050001Y-72157330D01*
D34*
X135400000Y-74800000D02*
X134750000Y-75450000D01*
X134750000Y-75450000D02*
X134750000Y-76000000D01*
D37*
X134650000Y-73900000D02*
X135050000Y-73500000D01*
X135050001Y-72157330D02*
X135550000Y-71657332D01*
X135550000Y-71657332D02*
X135550000Y-70475000D01*
%TO.N,/HA2*%
X139500000Y-72075000D02*
X139500000Y-74716850D01*
X140025000Y-71550000D02*
X139500000Y-72075000D01*
X138513910Y-76250000D02*
X137986090Y-76250000D01*
X137986090Y-76250000D02*
X137750000Y-76486090D01*
X137750000Y-76486090D02*
X137750000Y-77500000D01*
X138725000Y-75491851D02*
X138725000Y-76038910D01*
X139500000Y-74716850D02*
X138725000Y-75491851D01*
D34*
X137250000Y-77500000D02*
X137750000Y-77500000D01*
D37*
X138725000Y-76038910D02*
X138513910Y-76250000D01*
%TO.N,/LA2*%
X139000000Y-71867892D02*
X139350000Y-71517892D01*
X139350000Y-71517892D02*
X139350000Y-70675000D01*
X135250000Y-75546446D02*
X135571446Y-75225000D01*
X135250000Y-76000000D02*
X135250000Y-75546446D01*
X139000000Y-74509743D02*
X139000000Y-71867892D01*
X138459743Y-75050000D02*
X139000000Y-74509743D01*
X139350000Y-70675000D02*
X139550000Y-70475000D01*
X135571446Y-75225000D02*
X135750000Y-75225000D01*
X135750000Y-75225000D02*
X135925000Y-75050000D01*
X135925000Y-75050000D02*
X138459743Y-75050000D01*
D36*
%TO.N,/SRBL*%
X128075000Y-82000000D02*
X128750000Y-82000000D01*
D34*
%TO.N,/SRAH*%
X139350000Y-76450000D02*
X139350000Y-75538602D01*
X139938602Y-74950000D02*
X143050000Y-74950000D01*
X139350000Y-75538602D02*
X139938602Y-74950000D01*
X143050000Y-74950000D02*
X143500000Y-74500000D01*
X139200000Y-76600000D02*
X139350000Y-76450000D01*
%TO.N,/SRAL*%
X139625000Y-75546443D02*
X140021444Y-75149999D01*
X139200000Y-77300000D02*
X139625000Y-76875000D01*
X140021444Y-75149999D02*
X143850000Y-75150000D01*
X139625000Y-76875000D02*
X139625000Y-75546443D01*
X143850000Y-75150000D02*
X144500000Y-74500000D01*
D37*
%TO.N,Net-(U1-VCC)*%
X137250000Y-81000000D02*
X138400000Y-81000000D01*
%TD*%
%TA.AperFunction,Conductor*%
%TO.N,GND*%
G36*
X145350000Y-73300000D02*
G01*
X143899455Y-73300000D01*
X143888867Y-73246769D01*
X143844552Y-73180448D01*
X143844548Y-73180445D01*
X143778233Y-73136134D01*
X143778231Y-73136133D01*
X143778228Y-73136132D01*
X143778227Y-73136132D01*
X143719758Y-73124501D01*
X143719748Y-73124500D01*
X143719747Y-73124500D01*
X143378347Y-73124500D01*
X143320156Y-73105593D01*
X143308343Y-73095504D01*
X143100000Y-72887161D01*
X143100000Y-71700000D01*
X145350000Y-71700000D01*
X145350000Y-73300000D01*
G37*
%TD.AperFunction*%
%TD*%
%TA.AperFunction,Conductor*%
%TO.N,/B2*%
G36*
X135037539Y-63219685D02*
G01*
X135083294Y-63272489D01*
X135094500Y-63324000D01*
X135094500Y-67470502D01*
X135096910Y-67492926D01*
X135108117Y-67544438D01*
X135132476Y-67593101D01*
X135144882Y-67661861D01*
X135125910Y-67715642D01*
X135118461Y-67727233D01*
X135118459Y-67727236D01*
X135098775Y-67794270D01*
X135098774Y-67794275D01*
X135098774Y-67794276D01*
X135094501Y-67823997D01*
X135094500Y-67824003D01*
X135094500Y-69976002D01*
X135096910Y-69998426D01*
X135100421Y-70014562D01*
X135108117Y-70049938D01*
X135127860Y-70089380D01*
X135133471Y-70100588D01*
X135145877Y-70169347D01*
X135125689Y-70224984D01*
X135111132Y-70246769D01*
X135111131Y-70246770D01*
X135099500Y-70305247D01*
X135099500Y-70644752D01*
X135111131Y-70703229D01*
X135111132Y-70703230D01*
X135155448Y-70769553D01*
X135163681Y-70777786D01*
X135197166Y-70839109D01*
X135200000Y-70865467D01*
X135200000Y-71707774D01*
X135180315Y-71774813D01*
X135163681Y-71795455D01*
X135095455Y-71863681D01*
X135034132Y-71897166D01*
X135007774Y-71900000D01*
X132499500Y-71900000D01*
X132432461Y-71880315D01*
X132386706Y-71827511D01*
X132375500Y-71776000D01*
X132375500Y-71280249D01*
X132375499Y-71280247D01*
X132363868Y-71221770D01*
X132363867Y-71221769D01*
X132319552Y-71155447D01*
X132253230Y-71111132D01*
X132253229Y-71111131D01*
X132194752Y-71099500D01*
X132194748Y-71099500D01*
X132024000Y-71099500D01*
X131956961Y-71079815D01*
X131911206Y-71027011D01*
X131900000Y-70975500D01*
X131900000Y-70865467D01*
X131919685Y-70798428D01*
X131936319Y-70777786D01*
X131944551Y-70769553D01*
X131944552Y-70769552D01*
X131988867Y-70703231D01*
X131988867Y-70703229D01*
X131988868Y-70703229D01*
X132000499Y-70644752D01*
X132000500Y-70644750D01*
X132000500Y-70305249D01*
X132000499Y-70305247D01*
X131988868Y-70246770D01*
X131988867Y-70246769D01*
X131973278Y-70223438D01*
X131952400Y-70156760D01*
X131970885Y-70089380D01*
X131972037Y-70087550D01*
X131981541Y-70072763D01*
X131982469Y-70069600D01*
X131984676Y-70063346D01*
X131988866Y-70053232D01*
X131988865Y-70053232D01*
X131988867Y-70053231D01*
X131991671Y-70039129D01*
X131992984Y-70033789D01*
X132001226Y-70005724D01*
X132005500Y-69976000D01*
X132005500Y-68612867D01*
X132005992Y-68606618D01*
X132005992Y-68593391D01*
X132005500Y-68587136D01*
X132005500Y-67824000D01*
X132003089Y-67801573D01*
X131991883Y-67750062D01*
X131991882Y-67750060D01*
X131991882Y-67750059D01*
X131967524Y-67701399D01*
X131955117Y-67632639D01*
X131974091Y-67578854D01*
X131981541Y-67567263D01*
X132001226Y-67500224D01*
X132005500Y-67470500D01*
X132005500Y-63324000D01*
X132025185Y-63256961D01*
X132077989Y-63211206D01*
X132129500Y-63200000D01*
X134970500Y-63200000D01*
X135037539Y-63219685D01*
G37*
%TD.AperFunction*%
%TD*%
%TA.AperFunction,Conductor*%
%TO.N,/B1*%
G36*
X131843039Y-63219685D02*
G01*
X131888794Y-63272489D01*
X131900000Y-63324000D01*
X131900000Y-67470500D01*
X131880315Y-67537539D01*
X131827511Y-67583294D01*
X131776000Y-67594500D01*
X131323997Y-67594500D01*
X131301573Y-67596910D01*
X131250061Y-67608117D01*
X131203399Y-67631474D01*
X131150596Y-67677229D01*
X131118460Y-67727235D01*
X131118459Y-67727236D01*
X131098775Y-67794270D01*
X131098774Y-67794275D01*
X131098774Y-67794276D01*
X131094501Y-67823997D01*
X131094500Y-67824003D01*
X131094500Y-69976002D01*
X131096910Y-69998426D01*
X131098498Y-70005724D01*
X131108117Y-70049938D01*
X131119542Y-70072763D01*
X131133471Y-70100588D01*
X131145877Y-70169347D01*
X131125689Y-70224984D01*
X131111132Y-70246769D01*
X131111131Y-70246770D01*
X131099500Y-70305247D01*
X131099500Y-70644752D01*
X131111131Y-70703229D01*
X131111132Y-70703231D01*
X131153601Y-70766788D01*
X131174480Y-70833465D01*
X131174500Y-70835680D01*
X131174500Y-71468835D01*
X131154815Y-71535874D01*
X131138181Y-71556516D01*
X130945148Y-71749548D01*
X130927914Y-71763912D01*
X130914705Y-71773030D01*
X130914702Y-71773033D01*
X130897935Y-71804979D01*
X130896099Y-71808235D01*
X130885280Y-71826134D01*
X130877432Y-71839118D01*
X130877431Y-71839119D01*
X130876814Y-71840142D01*
X130825290Y-71887333D01*
X130770692Y-71900000D01*
X128499500Y-71900000D01*
X128432461Y-71880315D01*
X128386706Y-71827511D01*
X128375500Y-71776000D01*
X128375500Y-71280249D01*
X128375499Y-71280247D01*
X128363868Y-71221770D01*
X128363867Y-71221769D01*
X128319552Y-71155447D01*
X128253230Y-71111132D01*
X128253229Y-71111131D01*
X128194752Y-71099500D01*
X128194748Y-71099500D01*
X128024000Y-71099500D01*
X127956961Y-71079815D01*
X127911206Y-71027011D01*
X127900000Y-70975500D01*
X127900000Y-70865467D01*
X127919685Y-70798428D01*
X127936319Y-70777786D01*
X127944551Y-70769553D01*
X127946399Y-70766788D01*
X127988867Y-70703231D01*
X127988867Y-70703229D01*
X127988868Y-70703229D01*
X128000499Y-70644752D01*
X128000500Y-70644750D01*
X128000500Y-70305249D01*
X128000499Y-70305247D01*
X127988868Y-70246770D01*
X127988867Y-70246769D01*
X127981304Y-70235450D01*
X127960426Y-70168773D01*
X127978910Y-70101393D01*
X127980092Y-70099518D01*
X127981538Y-70097267D01*
X127981541Y-70097263D01*
X128001226Y-70030224D01*
X128005500Y-70000500D01*
X128005500Y-68612867D01*
X128005992Y-68606618D01*
X128005992Y-68593391D01*
X128005500Y-68587136D01*
X128005500Y-67824000D01*
X128003089Y-67801573D01*
X127991883Y-67750062D01*
X127968526Y-67703401D01*
X127968524Y-67703397D01*
X127968523Y-67703396D01*
X127930288Y-67659271D01*
X127901262Y-67595716D01*
X127900000Y-67578068D01*
X127900000Y-65851362D01*
X127919685Y-65784323D01*
X127936319Y-65763681D01*
X130463681Y-63236319D01*
X130525004Y-63202834D01*
X130551362Y-63200000D01*
X131776000Y-63200000D01*
X131843039Y-63219685D01*
G37*
%TD.AperFunction*%
%TD*%
%TA.AperFunction,Conductor*%
%TO.N,Net-(Q6-S-Pad1)*%
G36*
X144315677Y-68319685D02*
G01*
X144336319Y-68336319D01*
X145063681Y-69063681D01*
X145097166Y-69125004D01*
X145100000Y-69151362D01*
X145100000Y-69848638D01*
X145080315Y-69915677D01*
X145063681Y-69936319D01*
X144336319Y-70663681D01*
X144274996Y-70697166D01*
X144248638Y-70700000D01*
X143024500Y-70700000D01*
X142957461Y-70680315D01*
X142911706Y-70627511D01*
X142900500Y-70576000D01*
X142900500Y-70305249D01*
X142900299Y-70303208D01*
X142900000Y-70297128D01*
X142900000Y-70002869D01*
X142900299Y-69996786D01*
X142900500Y-69994747D01*
X142900500Y-69655249D01*
X142900299Y-69653208D01*
X142900000Y-69647128D01*
X142900000Y-69352869D01*
X142900299Y-69346786D01*
X142900500Y-69344747D01*
X142900500Y-69005249D01*
X142900299Y-69003208D01*
X142900000Y-68997128D01*
X142900000Y-68702869D01*
X142900299Y-68696786D01*
X142900500Y-68694747D01*
X142900500Y-68424000D01*
X142920185Y-68356961D01*
X142972989Y-68311206D01*
X143024500Y-68300000D01*
X144248638Y-68300000D01*
X144315677Y-68319685D01*
G37*
%TD.AperFunction*%
%TD*%
%TA.AperFunction,Conductor*%
%TO.N,GND*%
G36*
X135380885Y-77744407D02*
G01*
X135392698Y-77754496D01*
X135645504Y-78007302D01*
X135673281Y-78061819D01*
X135674500Y-78077306D01*
X135674500Y-78316370D01*
X135678237Y-78322841D01*
X135688129Y-78346721D01*
X135690064Y-78353944D01*
X135690064Y-78353945D01*
X135761006Y-78424888D01*
X135761020Y-78424900D01*
X135800000Y-78463880D01*
X135800000Y-82302738D01*
X135732518Y-82313426D01*
X135732511Y-82313428D01*
X135626537Y-82367425D01*
X135542425Y-82451537D01*
X135488428Y-82557511D01*
X135488426Y-82557518D01*
X135471246Y-82665987D01*
X135443468Y-82720504D01*
X135388952Y-82748281D01*
X135373465Y-82749500D01*
X133325790Y-82749500D01*
X133319310Y-82753241D01*
X133295441Y-82763128D01*
X133288214Y-82765064D01*
X133288211Y-82765066D01*
X133231182Y-82822095D01*
X133231178Y-82822097D01*
X133020094Y-83033181D01*
X132965578Y-83060958D01*
X132905146Y-83051387D01*
X132861881Y-83008122D01*
X132861574Y-83007520D01*
X132861574Y-83007518D01*
X132807573Y-82901535D01*
X132723465Y-82817427D01*
X132723462Y-82817425D01*
X132617488Y-82763428D01*
X132617483Y-82763426D01*
X132617482Y-82763426D01*
X132500000Y-82744819D01*
X132382518Y-82763426D01*
X132382511Y-82763428D01*
X132276537Y-82817425D01*
X132192425Y-82901537D01*
X132138428Y-83007511D01*
X132138426Y-83007518D01*
X132123778Y-83100000D01*
X130400500Y-83100000D01*
X130400500Y-82959675D01*
X130400500Y-82959673D01*
X130396762Y-82953199D01*
X130386869Y-82929314D01*
X130384935Y-82922097D01*
X130384935Y-82922096D01*
X130342966Y-82880126D01*
X130315191Y-82825613D01*
X130315191Y-82794644D01*
X130330181Y-82700000D01*
X130311574Y-82582518D01*
X130311571Y-82582513D01*
X130311571Y-82582511D01*
X130257574Y-82476537D01*
X130257573Y-82476535D01*
X130200000Y-82418962D01*
X130200000Y-81588880D01*
X130445430Y-81343451D01*
X130452681Y-81336198D01*
X130459935Y-81328945D01*
X130461869Y-81321724D01*
X130471761Y-81297841D01*
X130475500Y-81291368D01*
X130475500Y-81210715D01*
X130475500Y-77927305D01*
X130494407Y-77869114D01*
X130504497Y-77857301D01*
X130607303Y-77754496D01*
X130661819Y-77726719D01*
X130677306Y-77725500D01*
X135322694Y-77725500D01*
X135380885Y-77744407D01*
G37*
%TD.AperFunction*%
%TD*%
%TA.AperFunction,Conductor*%
%TO.N,Net-(Q2-S-Pad1)*%
G36*
X127843039Y-67719685D02*
G01*
X127888794Y-67772489D01*
X127900000Y-67824000D01*
X127900000Y-70000500D01*
X127880315Y-70067539D01*
X127827511Y-70113294D01*
X127776000Y-70124500D01*
X127280247Y-70124500D01*
X127221770Y-70136131D01*
X127221769Y-70136132D01*
X127155447Y-70180447D01*
X127111132Y-70246769D01*
X127111131Y-70246770D01*
X127099500Y-70305247D01*
X127099500Y-70644749D01*
X127100904Y-70651807D01*
X127094677Y-70721399D01*
X127051815Y-70776577D01*
X126985926Y-70799822D01*
X126979287Y-70800000D01*
X125751362Y-70800000D01*
X125684323Y-70780315D01*
X125663681Y-70763681D01*
X124936319Y-70036319D01*
X124902834Y-69974996D01*
X124900000Y-69948638D01*
X124900000Y-69151362D01*
X124919685Y-69084323D01*
X124936319Y-69063681D01*
X126263681Y-67736319D01*
X126325004Y-67702834D01*
X126351362Y-67700000D01*
X127776000Y-67700000D01*
X127843039Y-67719685D01*
G37*
%TD.AperFunction*%
%TD*%
%TA.AperFunction,Conductor*%
%TO.N,GND*%
G36*
X149492904Y-62003663D02*
G01*
X149496168Y-62007265D01*
X149575426Y-62103841D01*
X149586208Y-62119977D01*
X149641657Y-62223714D01*
X149649084Y-62241645D01*
X149683228Y-62354203D01*
X149687014Y-62373237D01*
X149699261Y-62497575D01*
X149699500Y-62502430D01*
X149699500Y-68000000D01*
X143500000Y-68000000D01*
X143500000Y-61000000D01*
X148489242Y-61000000D01*
X149492904Y-62003663D01*
G37*
%TD.AperFunction*%
%TD*%
%TA.AperFunction,Conductor*%
%TO.N,/A2*%
G36*
X139915677Y-63219685D02*
G01*
X139936319Y-63236319D01*
X142763681Y-66063681D01*
X142797166Y-66125004D01*
X142800000Y-66151362D01*
X142800000Y-68380355D01*
X142798738Y-68398002D01*
X142795000Y-68424000D01*
X142795000Y-68587136D01*
X142794508Y-68593391D01*
X142794508Y-68606618D01*
X142795000Y-68612867D01*
X142795000Y-68688579D01*
X142794925Y-68691621D01*
X142794564Y-68698980D01*
X142794500Y-68701572D01*
X142794500Y-68998426D01*
X142794564Y-69001016D01*
X142794925Y-69008365D01*
X142795000Y-69011410D01*
X142795000Y-69187136D01*
X142794508Y-69193391D01*
X142794508Y-69206618D01*
X142795000Y-69212867D01*
X142795000Y-69338579D01*
X142794925Y-69341621D01*
X142794564Y-69348980D01*
X142794500Y-69351572D01*
X142794500Y-69648426D01*
X142794564Y-69651016D01*
X142794925Y-69658365D01*
X142795000Y-69661410D01*
X142795000Y-69787136D01*
X142794508Y-69793391D01*
X142794508Y-69806618D01*
X142795000Y-69812867D01*
X142795000Y-69988579D01*
X142794925Y-69991621D01*
X142794564Y-69998980D01*
X142794500Y-70001572D01*
X142794500Y-70298426D01*
X142794564Y-70301016D01*
X142794925Y-70308365D01*
X142795000Y-70311410D01*
X142795000Y-70387136D01*
X142794508Y-70393391D01*
X142794508Y-70406618D01*
X142795000Y-70412867D01*
X142795000Y-70576002D01*
X142797766Y-70601730D01*
X142796276Y-70601890D01*
X142788257Y-70665331D01*
X142762282Y-70703434D01*
X142522096Y-70943621D01*
X142465065Y-71000651D01*
X142463980Y-71004701D01*
X142451596Y-71034598D01*
X142449500Y-71038227D01*
X142449499Y-71038230D01*
X142449499Y-71143543D01*
X142449500Y-71143548D01*
X142449500Y-71699138D01*
X142429815Y-71766177D01*
X142413181Y-71786819D01*
X142336319Y-71863681D01*
X142274996Y-71897166D01*
X142248638Y-71900000D01*
X140499500Y-71900000D01*
X140432461Y-71880315D01*
X140386706Y-71827511D01*
X140375500Y-71776000D01*
X140375500Y-71280249D01*
X140375499Y-71280247D01*
X140363868Y-71221770D01*
X140363867Y-71221769D01*
X140319552Y-71155447D01*
X140253230Y-71111132D01*
X140253229Y-71111131D01*
X140194752Y-71099500D01*
X140194748Y-71099500D01*
X139855252Y-71099500D01*
X139855247Y-71099500D01*
X139796770Y-71111131D01*
X139796769Y-71111132D01*
X139770102Y-71128951D01*
X139703424Y-71149829D01*
X139636044Y-71131344D01*
X139613530Y-71113530D01*
X139561819Y-71061819D01*
X139528334Y-71000496D01*
X139525500Y-70974138D01*
X139525500Y-70949500D01*
X139545185Y-70882461D01*
X139597989Y-70836706D01*
X139649500Y-70825500D01*
X139819750Y-70825500D01*
X139819751Y-70825499D01*
X139834568Y-70822552D01*
X139878229Y-70813868D01*
X139878229Y-70813867D01*
X139878231Y-70813867D01*
X139944552Y-70769552D01*
X139988867Y-70703231D01*
X139988867Y-70703229D01*
X139988868Y-70703229D01*
X140000499Y-70644752D01*
X140000500Y-70644750D01*
X140000500Y-70305249D01*
X140000499Y-70305247D01*
X139988868Y-70246770D01*
X139988867Y-70246769D01*
X139973278Y-70223438D01*
X139952400Y-70156760D01*
X139970885Y-70089380D01*
X139972037Y-70087550D01*
X139981541Y-70072763D01*
X139982469Y-70069600D01*
X139984676Y-70063346D01*
X139988866Y-70053232D01*
X139988865Y-70053232D01*
X139988867Y-70053231D01*
X139991671Y-70039129D01*
X139992984Y-70033789D01*
X140001226Y-70005724D01*
X140005500Y-69976000D01*
X140005500Y-68612867D01*
X140005992Y-68606618D01*
X140005992Y-68593391D01*
X140005500Y-68587136D01*
X140005500Y-67824000D01*
X140003089Y-67801573D01*
X139991883Y-67750062D01*
X139968526Y-67703401D01*
X139968525Y-67703399D01*
X139922770Y-67650596D01*
X139893015Y-67631474D01*
X139872763Y-67618459D01*
X139862492Y-67615443D01*
X139805729Y-67598775D01*
X139805725Y-67598774D01*
X139805724Y-67598774D01*
X139776000Y-67594500D01*
X139324000Y-67594500D01*
X139323997Y-67594500D01*
X139301573Y-67596910D01*
X139250060Y-67608117D01*
X139250059Y-67608117D01*
X139235425Y-67615443D01*
X139166665Y-67627848D01*
X139102114Y-67601110D01*
X139092240Y-67592240D01*
X138136319Y-66636319D01*
X138102834Y-66574996D01*
X138100000Y-66548638D01*
X138100000Y-63324000D01*
X138119685Y-63256961D01*
X138172489Y-63211206D01*
X138224000Y-63200000D01*
X139848638Y-63200000D01*
X139915677Y-63219685D01*
G37*
%TD.AperFunction*%
%TD*%
%TA.AperFunction,Conductor*%
%TO.N,Net-(Q2-S-Pad1)*%
G36*
X131843039Y-67719685D02*
G01*
X131888794Y-67772489D01*
X131900000Y-67824000D01*
X131900000Y-69976000D01*
X131880315Y-70043039D01*
X131827511Y-70088794D01*
X131776000Y-70100000D01*
X131324000Y-70100000D01*
X131256961Y-70080315D01*
X131211206Y-70027511D01*
X131200000Y-69976000D01*
X131200000Y-67824000D01*
X131219685Y-67756961D01*
X131272489Y-67711206D01*
X131324000Y-67700000D01*
X131776000Y-67700000D01*
X131843039Y-67719685D01*
G37*
%TD.AperFunction*%
%TD*%
%TA.AperFunction,Conductor*%
%TO.N,Net-(Q6-S-Pad1)*%
G36*
X135843039Y-67719685D02*
G01*
X135888794Y-67772489D01*
X135900000Y-67824000D01*
X135900000Y-69976000D01*
X135880315Y-70043039D01*
X135827511Y-70088794D01*
X135776000Y-70100000D01*
X135324000Y-70100000D01*
X135256961Y-70080315D01*
X135211206Y-70027511D01*
X135200000Y-69976000D01*
X135200000Y-67824000D01*
X135219685Y-67756961D01*
X135272489Y-67711206D01*
X135324000Y-67700000D01*
X135776000Y-67700000D01*
X135843039Y-67719685D01*
G37*
%TD.AperFunction*%
%TD*%
%TA.AperFunction,Conductor*%
%TO.N,+48V*%
G36*
X130817539Y-72069685D02*
G01*
X130863294Y-72122489D01*
X130874500Y-72174000D01*
X130874500Y-74676000D01*
X130854815Y-74743039D01*
X130802011Y-74788794D01*
X130750500Y-74800000D01*
X129819967Y-74800000D01*
X129777307Y-74789758D01*
X129776761Y-74791441D01*
X129767478Y-74788424D01*
X129650003Y-74769819D01*
X129649997Y-74769819D01*
X129532521Y-74788424D01*
X129523239Y-74791441D01*
X129522692Y-74789758D01*
X129480033Y-74800000D01*
X127885647Y-74800000D01*
X127818608Y-74780315D01*
X127797966Y-74763681D01*
X127761819Y-74727534D01*
X127728334Y-74666211D01*
X127725500Y-74639853D01*
X127725500Y-72488494D01*
X127745185Y-72421455D01*
X127761819Y-72400813D01*
X127875813Y-72286819D01*
X127937136Y-72253334D01*
X127963494Y-72250500D01*
X128261691Y-72250500D01*
X128284041Y-72252530D01*
X128299823Y-72255423D01*
X128334298Y-72244679D01*
X128337858Y-72243686D01*
X128372910Y-72235048D01*
X128372914Y-72235044D01*
X128374173Y-72234384D01*
X128375671Y-72233763D01*
X128376144Y-72233478D01*
X128379423Y-72231628D01*
X128379899Y-72231378D01*
X128381198Y-72230422D01*
X128382412Y-72229687D01*
X128382420Y-72229685D01*
X128407935Y-72204168D01*
X128410665Y-72201599D01*
X128437666Y-72177679D01*
X128437668Y-72177672D01*
X128438481Y-72176497D01*
X128452847Y-72159256D01*
X128525787Y-72086316D01*
X128587109Y-72052834D01*
X128613466Y-72050000D01*
X130750500Y-72050000D01*
X130817539Y-72069685D01*
G37*
%TD.AperFunction*%
%TA.AperFunction,Conductor*%
G36*
X134815985Y-72069685D02*
G01*
X134861740Y-72122489D01*
X134872719Y-72181481D01*
X134872210Y-72189911D01*
X134872210Y-72189912D01*
X134872470Y-72191330D01*
X134874500Y-72213675D01*
X134874500Y-73375943D01*
X134854815Y-73442982D01*
X134838184Y-73463620D01*
X134808614Y-73493191D01*
X134747290Y-73526675D01*
X134701536Y-73527981D01*
X134650002Y-73519819D01*
X134649997Y-73519819D01*
X134532522Y-73538424D01*
X134532521Y-73538424D01*
X134426533Y-73592428D01*
X134426529Y-73592431D01*
X134342431Y-73676529D01*
X134342428Y-73676533D01*
X134288424Y-73782521D01*
X134288424Y-73782522D01*
X134269819Y-73899996D01*
X134269819Y-73900003D01*
X134288424Y-74017477D01*
X134288424Y-74017478D01*
X134288425Y-74017481D01*
X134288426Y-74017482D01*
X134329582Y-74098256D01*
X134342428Y-74123466D01*
X134342431Y-74123470D01*
X134426529Y-74207568D01*
X134426535Y-74207573D01*
X134494143Y-74242021D01*
X134544937Y-74289993D01*
X134561733Y-74357813D01*
X134539196Y-74423949D01*
X134525528Y-74440185D01*
X134202032Y-74763682D01*
X134140711Y-74797166D01*
X134114353Y-74800000D01*
X131849500Y-74800000D01*
X131782461Y-74780315D01*
X131736706Y-74727511D01*
X131725500Y-74676000D01*
X131725500Y-72224056D01*
X131745185Y-72157017D01*
X131761819Y-72136375D01*
X131811875Y-72086319D01*
X131873198Y-72052834D01*
X131899556Y-72050000D01*
X134748946Y-72050000D01*
X134815985Y-72069685D01*
G37*
%TD.AperFunction*%
%TA.AperFunction,Conductor*%
G36*
X138767539Y-72069685D02*
G01*
X138813294Y-72122489D01*
X138824500Y-72174000D01*
X138824500Y-74385686D01*
X138804815Y-74452725D01*
X138788180Y-74473367D01*
X138621696Y-74639853D01*
X138497868Y-74763681D01*
X138436545Y-74797166D01*
X138410187Y-74800000D01*
X135886087Y-74800000D01*
X135819048Y-74780315D01*
X135773293Y-74727511D01*
X135763613Y-74695395D01*
X135761574Y-74682519D01*
X135761574Y-74682518D01*
X135707573Y-74576535D01*
X135707571Y-74576533D01*
X135707568Y-74576529D01*
X135623470Y-74492431D01*
X135623467Y-74492429D01*
X135623465Y-74492427D01*
X135574082Y-74467265D01*
X135523287Y-74419291D01*
X135506492Y-74351470D01*
X135529030Y-74285335D01*
X135542691Y-74269106D01*
X135654857Y-74156940D01*
X135672087Y-74142580D01*
X135685295Y-74133465D01*
X135702062Y-74101515D01*
X135703901Y-74098256D01*
X135722568Y-74067379D01*
X135722568Y-74067372D01*
X135722995Y-74066006D01*
X135723612Y-74064515D01*
X135723742Y-74063990D01*
X135724753Y-74060364D01*
X135724913Y-74059848D01*
X135725155Y-74058263D01*
X135725500Y-74056863D01*
X135725500Y-74020777D01*
X135725613Y-74017033D01*
X135727791Y-73981021D01*
X135727531Y-73979602D01*
X135725500Y-73957252D01*
X135725500Y-72488494D01*
X135745185Y-72421455D01*
X135761819Y-72400813D01*
X135875813Y-72286819D01*
X135937136Y-72253334D01*
X135963494Y-72250500D01*
X136261691Y-72250500D01*
X136284041Y-72252530D01*
X136299823Y-72255423D01*
X136334298Y-72244679D01*
X136337858Y-72243686D01*
X136372910Y-72235048D01*
X136372914Y-72235044D01*
X136374173Y-72234384D01*
X136375671Y-72233763D01*
X136376144Y-72233478D01*
X136379423Y-72231628D01*
X136379899Y-72231378D01*
X136381198Y-72230422D01*
X136382412Y-72229687D01*
X136382420Y-72229685D01*
X136407935Y-72204168D01*
X136410665Y-72201599D01*
X136437666Y-72177679D01*
X136437668Y-72177672D01*
X136438481Y-72176497D01*
X136452847Y-72159256D01*
X136525787Y-72086316D01*
X136587109Y-72052834D01*
X136613466Y-72050000D01*
X138700500Y-72050000D01*
X138767539Y-72069685D01*
G37*
%TD.AperFunction*%
%TA.AperFunction,Conductor*%
G36*
X142243039Y-72069685D02*
G01*
X142288794Y-72122489D01*
X142300000Y-72174000D01*
X142300000Y-74675500D01*
X142280315Y-74742539D01*
X142227511Y-74788294D01*
X142176000Y-74799500D01*
X139883882Y-74799500D01*
X139880084Y-74800000D01*
X139802341Y-74800000D01*
X139735302Y-74780315D01*
X139689547Y-74727511D01*
X139680372Y-74698353D01*
X139677531Y-74682851D01*
X139675500Y-74660498D01*
X139675500Y-72199056D01*
X139695185Y-72132017D01*
X139711819Y-72111375D01*
X139736875Y-72086319D01*
X139798198Y-72052834D01*
X139824556Y-72050000D01*
X142176000Y-72050000D01*
X142243039Y-72069685D01*
G37*
%TD.AperFunction*%
%TD*%
%TA.AperFunction,Conductor*%
%TO.N,Net-(Q6-S-Pad1)*%
G36*
X139843039Y-67719685D02*
G01*
X139888794Y-67772489D01*
X139900000Y-67824000D01*
X139900000Y-69976000D01*
X139880315Y-70043039D01*
X139827511Y-70088794D01*
X139776000Y-70100000D01*
X139324000Y-70100000D01*
X139256961Y-70080315D01*
X139211206Y-70027511D01*
X139200000Y-69976000D01*
X139200000Y-67824000D01*
X139219685Y-67756961D01*
X139272489Y-67711206D01*
X139324000Y-67700000D01*
X139776000Y-67700000D01*
X139843039Y-67719685D01*
G37*
%TD.AperFunction*%
%TD*%
%TA.AperFunction,Conductor*%
%TO.N,GND*%
G36*
X126899500Y-71735785D02*
G01*
X126880593Y-71793976D01*
X126870504Y-71805789D01*
X126690065Y-71986227D01*
X126690063Y-71986230D01*
X126688127Y-71993456D01*
X126678241Y-72017324D01*
X126674499Y-72023804D01*
X126674499Y-72124146D01*
X126674500Y-72124151D01*
X126674500Y-73025500D01*
X126655593Y-73083691D01*
X126606093Y-73119655D01*
X126575500Y-73124500D01*
X126280252Y-73124500D01*
X126280251Y-73124500D01*
X126280241Y-73124501D01*
X126221772Y-73136132D01*
X126221766Y-73136134D01*
X126155451Y-73180445D01*
X126155445Y-73180451D01*
X126111134Y-73246766D01*
X126111132Y-73246772D01*
X126100544Y-73300000D01*
X124750000Y-73300000D01*
X124750000Y-71700000D01*
X126899500Y-71700000D01*
X126899500Y-71735785D01*
G37*
%TD.AperFunction*%
%TD*%
%TA.AperFunction,Conductor*%
%TO.N,/A1*%
G36*
X137937539Y-63219685D02*
G01*
X137983294Y-63272489D01*
X137994500Y-63324000D01*
X137994500Y-66551468D01*
X137994803Y-66557110D01*
X137997939Y-66586273D01*
X138010238Y-66625554D01*
X138012619Y-66631160D01*
X138011327Y-66631708D01*
X138024500Y-66683322D01*
X138024500Y-66789362D01*
X138039953Y-66906753D01*
X138039956Y-66906762D01*
X138100464Y-67052841D01*
X138196718Y-67178282D01*
X138322159Y-67274536D01*
X138468238Y-67335044D01*
X138585639Y-67350500D01*
X138649936Y-67350499D01*
X138716975Y-67370183D01*
X138737618Y-67386818D01*
X139018638Y-67667838D01*
X139020687Y-67669780D01*
X139031611Y-67679593D01*
X139040229Y-67685023D01*
X139086453Y-67737416D01*
X139097014Y-67806483D01*
X139096861Y-67807578D01*
X139094500Y-67823998D01*
X139094500Y-69976002D01*
X139096910Y-69998426D01*
X139098498Y-70005724D01*
X139108117Y-70049938D01*
X139127860Y-70089380D01*
X139133471Y-70100588D01*
X139145877Y-70169347D01*
X139125689Y-70224984D01*
X139111132Y-70246769D01*
X139111131Y-70246770D01*
X139099500Y-70305247D01*
X139099500Y-70644752D01*
X139111131Y-70703229D01*
X139111132Y-70703231D01*
X139153601Y-70766788D01*
X139174480Y-70833465D01*
X139174500Y-70835680D01*
X139174500Y-71393835D01*
X139154815Y-71460874D01*
X139138181Y-71481516D01*
X138895148Y-71724548D01*
X138877914Y-71738912D01*
X138864705Y-71748030D01*
X138864702Y-71748033D01*
X138847935Y-71779979D01*
X138846098Y-71783236D01*
X138819649Y-71826995D01*
X138818773Y-71826465D01*
X138789066Y-71871047D01*
X138725038Y-71899014D01*
X138709429Y-71900000D01*
X136499500Y-71900000D01*
X136432461Y-71880315D01*
X136386706Y-71827511D01*
X136375500Y-71776000D01*
X136375500Y-71280249D01*
X136375499Y-71280247D01*
X136363868Y-71221770D01*
X136363867Y-71221769D01*
X136319552Y-71155447D01*
X136253230Y-71111132D01*
X136253229Y-71111131D01*
X136194752Y-71099500D01*
X136194748Y-71099500D01*
X135855252Y-71099500D01*
X135849500Y-71099500D01*
X135782461Y-71079815D01*
X135736706Y-71027011D01*
X135725500Y-70975500D01*
X135725500Y-70946011D01*
X135745185Y-70878972D01*
X135797989Y-70833217D01*
X135825304Y-70824394D01*
X135878231Y-70813867D01*
X135944552Y-70769552D01*
X135988867Y-70703231D01*
X135988867Y-70703229D01*
X135988868Y-70703229D01*
X136000499Y-70644752D01*
X136000500Y-70644750D01*
X136000500Y-70305249D01*
X136000499Y-70305247D01*
X135988868Y-70246770D01*
X135988867Y-70246769D01*
X135973278Y-70223438D01*
X135952400Y-70156760D01*
X135970885Y-70089380D01*
X135972037Y-70087550D01*
X135981541Y-70072763D01*
X135982469Y-70069600D01*
X135984676Y-70063346D01*
X135988866Y-70053232D01*
X135988865Y-70053232D01*
X135988867Y-70053231D01*
X135991671Y-70039129D01*
X135992984Y-70033789D01*
X136001226Y-70005724D01*
X136005500Y-69976000D01*
X136005500Y-68612867D01*
X136005992Y-68606618D01*
X136005992Y-68593391D01*
X136005500Y-68587136D01*
X136005500Y-67824000D01*
X136003089Y-67801573D01*
X135991883Y-67750062D01*
X135968526Y-67703401D01*
X135968525Y-67703399D01*
X135922770Y-67650596D01*
X135893015Y-67631474D01*
X135872763Y-67618459D01*
X135805729Y-67598775D01*
X135805725Y-67598774D01*
X135805724Y-67598774D01*
X135776000Y-67594500D01*
X135324000Y-67594500D01*
X135256961Y-67574815D01*
X135211206Y-67522011D01*
X135200000Y-67470500D01*
X135200000Y-63324000D01*
X135219685Y-63256961D01*
X135272489Y-63211206D01*
X135324000Y-63200000D01*
X137870500Y-63200000D01*
X137937539Y-63219685D01*
G37*
%TD.AperFunction*%
%TD*%
%TA.AperFunction,Conductor*%
%TO.N,GND*%
G36*
X143502424Y-56300739D02*
G01*
X143555760Y-56305992D01*
X143626764Y-56312985D01*
X143645794Y-56316770D01*
X143700127Y-56333252D01*
X143758354Y-56350915D01*
X143776285Y-56358342D01*
X143880022Y-56413791D01*
X143896158Y-56424573D01*
X143992735Y-56503831D01*
X143996335Y-56507094D01*
X144027833Y-56538590D01*
X148489242Y-61000000D01*
X143500000Y-61000000D01*
X143500000Y-68000000D01*
X149699500Y-68000000D01*
X149699500Y-81997571D01*
X149699262Y-82002417D01*
X149687059Y-82126539D01*
X149683286Y-82145541D01*
X149649260Y-82257920D01*
X149641859Y-82275823D01*
X149589282Y-82374394D01*
X149579197Y-82389696D01*
X149533712Y-82446476D01*
X149533709Y-82446481D01*
X149424691Y-82619215D01*
X149424685Y-82619225D01*
X149335776Y-82803092D01*
X149268083Y-82995807D01*
X149268079Y-82995820D01*
X149222471Y-83194903D01*
X149222470Y-83194910D01*
X149199521Y-83397866D01*
X149199512Y-83435057D01*
X149199500Y-83435205D01*
X149199500Y-84497569D01*
X149199261Y-84502424D01*
X149187014Y-84626762D01*
X149183228Y-84645796D01*
X149149084Y-84758354D01*
X149141657Y-84776285D01*
X149086208Y-84880022D01*
X149075426Y-84896158D01*
X149000806Y-84987083D01*
X148987083Y-85000806D01*
X148896159Y-85075426D01*
X148880023Y-85086208D01*
X148776286Y-85141657D01*
X148758355Y-85149084D01*
X148645796Y-85183228D01*
X148626763Y-85187014D01*
X148502426Y-85199261D01*
X148497571Y-85199500D01*
X136089860Y-85199500D01*
X136031669Y-85180593D01*
X135995705Y-85131093D01*
X135992762Y-85081186D01*
X136000000Y-85044797D01*
X136000500Y-85042284D01*
X136000500Y-84951599D01*
X136019407Y-84893408D01*
X136068907Y-84857444D01*
X136130093Y-84857444D01*
X136172764Y-84888446D01*
X136173554Y-84887657D01*
X136178539Y-84892642D01*
X136179593Y-84893408D01*
X136180255Y-84894358D01*
X136180445Y-84894548D01*
X136180448Y-84894552D01*
X136246769Y-84938867D01*
X136291231Y-84947711D01*
X136305241Y-84950498D01*
X136305246Y-84950498D01*
X136305252Y-84950500D01*
X136305253Y-84950500D01*
X136694747Y-84950500D01*
X136694748Y-84950500D01*
X136753231Y-84938867D01*
X136753235Y-84938863D01*
X136762243Y-84935134D01*
X136763139Y-84937297D01*
X136808941Y-84924374D01*
X136820553Y-84925516D01*
X136850000Y-84930181D01*
X136967482Y-84911574D01*
X137056907Y-84866009D01*
X137117336Y-84856438D01*
X137171853Y-84884215D01*
X137176529Y-84889912D01*
X137180810Y-84894193D01*
X137246963Y-84938396D01*
X137305299Y-84949999D01*
X137305303Y-84950000D01*
X137399999Y-84950000D01*
X137400000Y-84949999D01*
X137600000Y-84949999D01*
X137600001Y-84950000D01*
X137694697Y-84950000D01*
X137694700Y-84949999D01*
X137753036Y-84938396D01*
X137819189Y-84894193D01*
X137819193Y-84894189D01*
X137863396Y-84828036D01*
X137874999Y-84769700D01*
X137875000Y-84769697D01*
X137875000Y-84650001D01*
X137874999Y-84650000D01*
X137600001Y-84650000D01*
X137600000Y-84650001D01*
X137600000Y-84949999D01*
X137400000Y-84949999D01*
X137400000Y-84549000D01*
X137418907Y-84490809D01*
X137468407Y-84454845D01*
X137499000Y-84450000D01*
X137874999Y-84450000D01*
X137875000Y-84449999D01*
X137875000Y-84330302D01*
X137874999Y-84330299D01*
X137872715Y-84318814D01*
X137879907Y-84258053D01*
X137921439Y-84213123D01*
X137969813Y-84200500D01*
X142692410Y-84200500D01*
X142692411Y-84200500D01*
X142698884Y-84196761D01*
X142722767Y-84186869D01*
X142729988Y-84184935D01*
X142787019Y-84127905D01*
X142787019Y-84127904D01*
X142800939Y-84113985D01*
X142800943Y-84113978D01*
X143183830Y-83731093D01*
X143270430Y-83644494D01*
X143277681Y-83637241D01*
X143284935Y-83629988D01*
X143286869Y-83622767D01*
X143296761Y-83598884D01*
X143300500Y-83592411D01*
X143300501Y-83511757D01*
X143300500Y-83511755D01*
X143300500Y-82804388D01*
X143319407Y-82746197D01*
X143329496Y-82734384D01*
X143795430Y-82268451D01*
X143805960Y-82257920D01*
X143809935Y-82253945D01*
X143811869Y-82246724D01*
X143821761Y-82222841D01*
X143825500Y-82216368D01*
X143825501Y-82135715D01*
X143825500Y-82135713D01*
X143825500Y-79455186D01*
X143825500Y-79434673D01*
X143821762Y-79428199D01*
X143811869Y-79404314D01*
X143809935Y-79397096D01*
X143747262Y-79334422D01*
X143592968Y-79180129D01*
X143565191Y-79125612D01*
X143565191Y-79094644D01*
X143580181Y-79000000D01*
X143561574Y-78882518D01*
X143561571Y-78882513D01*
X143561571Y-78882511D01*
X143507574Y-78776537D01*
X143507573Y-78776535D01*
X143483427Y-78752389D01*
X143455652Y-78697875D01*
X143465223Y-78637443D01*
X143508488Y-78594178D01*
X143568920Y-78584607D01*
X143598377Y-78594178D01*
X143632518Y-78611574D01*
X143750000Y-78630181D01*
X143867482Y-78611574D01*
X143875331Y-78607575D01*
X143890197Y-78600000D01*
X143973465Y-78557573D01*
X144057573Y-78473465D01*
X144111574Y-78367482D01*
X144130181Y-78250000D01*
X144111574Y-78132518D01*
X144111571Y-78132513D01*
X144111571Y-78132511D01*
X144057574Y-78026537D01*
X144057573Y-78026535D01*
X143973465Y-77942427D01*
X143973462Y-77942425D01*
X143867488Y-77888428D01*
X143867483Y-77888426D01*
X143867482Y-77888426D01*
X143750000Y-77869819D01*
X143632518Y-77888426D01*
X143632511Y-77888428D01*
X143526537Y-77942425D01*
X143442424Y-78026538D01*
X143432792Y-78045444D01*
X143389528Y-78088709D01*
X143344582Y-78099500D01*
X142852346Y-78099500D01*
X142794155Y-78080593D01*
X142758191Y-78031093D01*
X142758191Y-77969907D01*
X142782342Y-77930496D01*
X143167698Y-77545140D01*
X143569871Y-77142966D01*
X143624386Y-77115191D01*
X143655355Y-77115191D01*
X143750000Y-77130181D01*
X143867482Y-77111574D01*
X143973465Y-77057573D01*
X144057573Y-76973465D01*
X144111574Y-76867482D01*
X144130181Y-76750000D01*
X144111574Y-76632518D01*
X144111571Y-76632513D01*
X144111571Y-76632511D01*
X144057574Y-76526537D01*
X144057573Y-76526535D01*
X143973465Y-76442427D01*
X143973462Y-76442425D01*
X143867488Y-76388428D01*
X143867483Y-76388426D01*
X143867482Y-76388426D01*
X143750000Y-76369819D01*
X143632518Y-76388426D01*
X143632511Y-76388428D01*
X143526537Y-76442425D01*
X143442425Y-76526537D01*
X143388428Y-76632511D01*
X143388426Y-76632518D01*
X143369819Y-76749999D01*
X143369819Y-76750001D01*
X143384807Y-76844639D01*
X143375235Y-76905071D01*
X143357030Y-76930129D01*
X141591657Y-78695504D01*
X141537140Y-78723281D01*
X141521653Y-78724500D01*
X141356117Y-78724500D01*
X141349637Y-78728241D01*
X141325768Y-78738128D01*
X141318541Y-78740064D01*
X141318538Y-78740066D01*
X141284614Y-78773990D01*
X141261509Y-78797095D01*
X141261508Y-78797096D01*
X141172096Y-78886509D01*
X141153157Y-78905448D01*
X141115066Y-78943538D01*
X141115063Y-78943542D01*
X141113127Y-78950768D01*
X141103241Y-78974636D01*
X141099499Y-78981116D01*
X141099499Y-79081458D01*
X141099500Y-79081463D01*
X141099500Y-79618885D01*
X141103237Y-79625356D01*
X141113129Y-79649236D01*
X141115064Y-79656459D01*
X141115064Y-79656460D01*
X141186006Y-79727403D01*
X141186020Y-79727415D01*
X141331485Y-79872880D01*
X141359262Y-79927397D01*
X141349691Y-79987829D01*
X141343796Y-79997886D01*
X141311134Y-80046766D01*
X141311132Y-80046772D01*
X141299501Y-80105241D01*
X141299500Y-80105253D01*
X141299500Y-80497653D01*
X141280593Y-80555844D01*
X141231093Y-80591808D01*
X141169907Y-80591808D01*
X141130496Y-80567657D01*
X140879496Y-80316657D01*
X140851719Y-80262140D01*
X140850500Y-80246653D01*
X140850500Y-78705418D01*
X140869407Y-78647227D01*
X140904556Y-78617208D01*
X140923461Y-78607575D01*
X140923460Y-78607575D01*
X140923465Y-78607573D01*
X141007573Y-78523465D01*
X141061574Y-78417482D01*
X141080181Y-78300000D01*
X141061574Y-78182518D01*
X141061571Y-78182513D01*
X141061571Y-78182511D01*
X141007574Y-78076537D01*
X141007573Y-78076535D01*
X140923465Y-77992427D01*
X140923462Y-77992425D01*
X140817488Y-77938428D01*
X140817483Y-77938426D01*
X140817482Y-77938426D01*
X140700000Y-77919819D01*
X140582518Y-77938426D01*
X140582511Y-77938428D01*
X140476537Y-77992425D01*
X140392425Y-78076537D01*
X140338428Y-78182511D01*
X140338426Y-78182518D01*
X140323119Y-78279167D01*
X140319819Y-78300000D01*
X140336879Y-78407717D01*
X140338426Y-78417481D01*
X140338428Y-78417488D01*
X140389346Y-78517419D01*
X140392427Y-78523465D01*
X140476535Y-78607573D01*
X140476537Y-78607574D01*
X140476538Y-78607575D01*
X140495444Y-78617208D01*
X140538709Y-78660472D01*
X140549500Y-78705418D01*
X140549500Y-80390329D01*
X140553237Y-80396800D01*
X140563129Y-80420680D01*
X140565064Y-80427903D01*
X140565064Y-80427904D01*
X140636006Y-80498847D01*
X140636020Y-80498859D01*
X140767657Y-80630496D01*
X140795434Y-80685013D01*
X140785863Y-80745445D01*
X140742598Y-80788710D01*
X140697653Y-80799500D01*
X140080252Y-80799500D01*
X140080251Y-80799500D01*
X140080241Y-80799501D01*
X140021772Y-80811132D01*
X140021766Y-80811134D01*
X139955451Y-80855445D01*
X139948554Y-80862343D01*
X139947394Y-80861183D01*
X139908262Y-80892030D01*
X139847124Y-80894430D01*
X139796251Y-80860435D01*
X139775076Y-80803031D01*
X139775000Y-80799148D01*
X139775000Y-80780302D01*
X139774999Y-80780299D01*
X139763396Y-80721963D01*
X139719193Y-80655810D01*
X139719189Y-80655806D01*
X139653036Y-80611603D01*
X139594700Y-80600000D01*
X139500001Y-80600000D01*
X139500000Y-80600001D01*
X139500000Y-81399999D01*
X139500001Y-81400000D01*
X139594697Y-81400000D01*
X139594700Y-81399999D01*
X139653036Y-81388396D01*
X139719189Y-81344193D01*
X139726086Y-81337297D01*
X139727301Y-81338512D01*
X139766235Y-81307820D01*
X139827373Y-81305418D01*
X139878247Y-81339411D01*
X139899424Y-81396814D01*
X139899500Y-81400701D01*
X139899500Y-81598400D01*
X139880593Y-81656591D01*
X139831093Y-81692555D01*
X139769907Y-81692555D01*
X139727236Y-81661552D01*
X139726446Y-81662343D01*
X139721456Y-81657353D01*
X139720407Y-81656591D01*
X139719747Y-81655644D01*
X139719554Y-81655451D01*
X139719552Y-81655448D01*
X139711399Y-81650000D01*
X139653233Y-81611134D01*
X139653231Y-81611133D01*
X139653228Y-81611132D01*
X139653227Y-81611132D01*
X139594758Y-81599501D01*
X139594748Y-81599500D01*
X139205252Y-81599500D01*
X139205251Y-81599500D01*
X139205241Y-81599501D01*
X139146772Y-81611132D01*
X139146766Y-81611134D01*
X139080451Y-81655445D01*
X139080445Y-81655451D01*
X139036134Y-81721766D01*
X139036132Y-81721772D01*
X139024501Y-81780241D01*
X139024500Y-81780253D01*
X139024500Y-82172653D01*
X139005593Y-82230844D01*
X138956093Y-82266808D01*
X138894907Y-82266808D01*
X138855496Y-82242657D01*
X138804496Y-82191657D01*
X138776719Y-82137140D01*
X138775500Y-82121653D01*
X138775500Y-81780253D01*
X138775498Y-81780241D01*
X138772711Y-81766231D01*
X138763867Y-81721769D01*
X138719552Y-81655448D01*
X138711399Y-81650000D01*
X138653233Y-81611134D01*
X138653231Y-81611133D01*
X138653228Y-81611132D01*
X138653227Y-81611132D01*
X138594758Y-81599501D01*
X138594748Y-81599500D01*
X138594747Y-81599500D01*
X138253347Y-81599500D01*
X138195156Y-81580593D01*
X138183343Y-81570504D01*
X138182343Y-81569504D01*
X138154566Y-81514987D01*
X138164137Y-81454555D01*
X138207402Y-81411290D01*
X138252347Y-81400500D01*
X138594747Y-81400500D01*
X138594748Y-81400500D01*
X138653231Y-81388867D01*
X138719552Y-81344552D01*
X138763867Y-81278231D01*
X138775500Y-81219748D01*
X138775500Y-81219700D01*
X139025000Y-81219700D01*
X139036603Y-81278036D01*
X139080806Y-81344189D01*
X139080810Y-81344193D01*
X139146963Y-81388396D01*
X139205299Y-81399999D01*
X139205303Y-81400000D01*
X139299999Y-81400000D01*
X139300000Y-81399999D01*
X139300000Y-81100001D01*
X139299999Y-81100000D01*
X139025001Y-81100000D01*
X139025000Y-81100001D01*
X139025000Y-81219700D01*
X138775500Y-81219700D01*
X138775500Y-80899999D01*
X139025000Y-80899999D01*
X139025001Y-80900000D01*
X139299999Y-80900000D01*
X139300000Y-80899999D01*
X139300000Y-80600001D01*
X139299999Y-80600000D01*
X139205299Y-80600000D01*
X139146963Y-80611603D01*
X139080810Y-80655806D01*
X139080806Y-80655810D01*
X139036603Y-80721963D01*
X139025000Y-80780299D01*
X139025000Y-80899999D01*
X138775500Y-80899999D01*
X138775500Y-80780252D01*
X138763867Y-80721769D01*
X138719552Y-80655448D01*
X138712144Y-80650498D01*
X138653233Y-80611134D01*
X138653231Y-80611133D01*
X138653228Y-80611132D01*
X138653227Y-80611132D01*
X138594758Y-80599501D01*
X138594748Y-80599500D01*
X138205252Y-80599500D01*
X138205251Y-80599500D01*
X138205241Y-80599501D01*
X138146772Y-80611132D01*
X138146767Y-80611134D01*
X138099195Y-80642921D01*
X138040307Y-80659529D01*
X137982904Y-80638351D01*
X137967666Y-80623410D01*
X137948454Y-80600000D01*
X137249000Y-80600000D01*
X137190809Y-80581093D01*
X137154845Y-80531593D01*
X137150000Y-80501000D01*
X137150000Y-80499000D01*
X137168907Y-80440809D01*
X137218407Y-80404845D01*
X137249000Y-80400000D01*
X137948453Y-80400000D01*
X137967665Y-80376590D01*
X138019196Y-80343602D01*
X138080275Y-80347203D01*
X138099194Y-80357078D01*
X138146769Y-80388867D01*
X138191231Y-80397711D01*
X138205241Y-80400498D01*
X138205246Y-80400498D01*
X138205252Y-80400500D01*
X138205253Y-80400500D01*
X138594747Y-80400500D01*
X138594748Y-80400500D01*
X138653231Y-80388867D01*
X138719552Y-80344552D01*
X138763867Y-80278231D01*
X138775500Y-80219748D01*
X138775500Y-79862701D01*
X138794407Y-79804510D01*
X138843907Y-79768546D01*
X138905093Y-79768546D01*
X138944500Y-79792694D01*
X138995505Y-79843699D01*
X139023281Y-79898214D01*
X139024500Y-79913701D01*
X139024500Y-80219746D01*
X139024501Y-80219758D01*
X139036132Y-80278227D01*
X139036134Y-80278233D01*
X139079813Y-80343602D01*
X139080448Y-80344552D01*
X139146769Y-80388867D01*
X139191231Y-80397711D01*
X139205241Y-80400498D01*
X139205246Y-80400498D01*
X139205252Y-80400500D01*
X139205253Y-80400500D01*
X139594747Y-80400500D01*
X139594748Y-80400500D01*
X139653231Y-80388867D01*
X139719552Y-80344552D01*
X139763867Y-80278231D01*
X139775500Y-80219748D01*
X139775500Y-79780252D01*
X139763867Y-79721769D01*
X139719552Y-79655448D01*
X139711399Y-79650000D01*
X139653233Y-79611134D01*
X139653231Y-79611133D01*
X139653228Y-79611132D01*
X139653227Y-79611132D01*
X139594758Y-79599501D01*
X139594748Y-79599500D01*
X139594747Y-79599500D01*
X139288702Y-79599500D01*
X139230511Y-79580593D01*
X139218698Y-79570504D01*
X139217198Y-79569004D01*
X139189421Y-79514487D01*
X139198992Y-79454055D01*
X139242257Y-79410790D01*
X139287202Y-79400000D01*
X139299999Y-79400000D01*
X139300000Y-79399999D01*
X139500000Y-79399999D01*
X139500001Y-79400000D01*
X139594697Y-79400000D01*
X139594700Y-79399999D01*
X139653036Y-79388396D01*
X139719189Y-79344193D01*
X139719193Y-79344189D01*
X139763396Y-79278036D01*
X139774999Y-79219700D01*
X139775000Y-79219697D01*
X139775000Y-79100001D01*
X139774999Y-79100000D01*
X139500001Y-79100000D01*
X139500000Y-79100001D01*
X139500000Y-79399999D01*
X139300000Y-79399999D01*
X139300000Y-79100001D01*
X139299999Y-79100000D01*
X139025001Y-79100000D01*
X139025000Y-79100001D01*
X139025000Y-79224561D01*
X139022703Y-79224561D01*
X139011477Y-79275604D01*
X138965720Y-79316223D01*
X138926092Y-79324500D01*
X138906786Y-79324500D01*
X138903821Y-79324410D01*
X138884528Y-79323243D01*
X138868521Y-79322275D01*
X138811578Y-79299888D01*
X138778670Y-79248306D01*
X138775500Y-79223456D01*
X138775500Y-78913700D01*
X138794407Y-78855509D01*
X138804485Y-78843708D01*
X138855999Y-78792194D01*
X138910513Y-78764419D01*
X138970945Y-78773990D01*
X139014210Y-78817255D01*
X139025000Y-78862200D01*
X139025000Y-78899999D01*
X139025001Y-78900000D01*
X139299999Y-78900000D01*
X139300000Y-78899999D01*
X139500000Y-78899999D01*
X139500001Y-78900000D01*
X139774999Y-78900000D01*
X139775000Y-78899999D01*
X139775000Y-78780302D01*
X139774999Y-78780299D01*
X139763396Y-78721963D01*
X139719193Y-78655810D01*
X139719189Y-78655806D01*
X139653036Y-78611603D01*
X139594700Y-78600000D01*
X139500001Y-78600000D01*
X139500000Y-78600001D01*
X139500000Y-78899999D01*
X139300000Y-78899999D01*
X139300000Y-78600001D01*
X139299999Y-78600000D01*
X139205294Y-78600000D01*
X139146453Y-78611704D01*
X139085692Y-78604511D01*
X139040763Y-78562978D01*
X139032921Y-78528699D01*
X139029958Y-78529243D01*
X139027122Y-78513767D01*
X139025500Y-78495922D01*
X139025500Y-78485376D01*
X139044407Y-78427185D01*
X139093907Y-78391221D01*
X139143816Y-78388279D01*
X139146767Y-78388866D01*
X139146769Y-78388867D01*
X139175042Y-78394490D01*
X139205244Y-78400499D01*
X139205250Y-78400499D01*
X139205252Y-78400500D01*
X139205253Y-78400500D01*
X139594747Y-78400500D01*
X139594748Y-78400500D01*
X139653231Y-78388867D01*
X139719552Y-78344552D01*
X139763867Y-78278231D01*
X139775500Y-78219748D01*
X139775500Y-77780252D01*
X139763867Y-77721769D01*
X139719552Y-77655448D01*
X139719548Y-77655445D01*
X139653233Y-77611134D01*
X139653228Y-77611132D01*
X139608685Y-77602271D01*
X139555302Y-77572373D01*
X139529688Y-77516807D01*
X139539792Y-77460231D01*
X139561574Y-77417482D01*
X139580181Y-77300000D01*
X139579939Y-77298475D01*
X139575351Y-77269504D01*
X139565191Y-77205357D01*
X139574762Y-77144927D01*
X139592965Y-77119872D01*
X139745430Y-76967409D01*
X139759935Y-76952904D01*
X139761869Y-76945683D01*
X139771761Y-76921800D01*
X139775500Y-76915327D01*
X139775501Y-76834674D01*
X139775500Y-76834672D01*
X139775500Y-75649788D01*
X139794407Y-75591597D01*
X139804484Y-75579797D01*
X140054787Y-75329493D01*
X140109302Y-75301718D01*
X140124789Y-75300499D01*
X143789979Y-75300499D01*
X143789983Y-75300500D01*
X143809673Y-75300500D01*
X143890326Y-75300500D01*
X143890327Y-75300500D01*
X143896800Y-75296761D01*
X143920683Y-75286869D01*
X143927904Y-75284935D01*
X143984935Y-75227905D01*
X143984935Y-75227904D01*
X143998855Y-75213985D01*
X143998859Y-75213978D01*
X144308343Y-74904496D01*
X144362859Y-74876719D01*
X144378346Y-74875500D01*
X144719747Y-74875500D01*
X144719748Y-74875500D01*
X144778231Y-74863867D01*
X144844552Y-74819552D01*
X144888867Y-74753231D01*
X144900500Y-74694748D01*
X144900500Y-74305252D01*
X144900372Y-74304611D01*
X144894327Y-74274220D01*
X144888867Y-74246769D01*
X144844552Y-74180448D01*
X144844548Y-74180445D01*
X144778233Y-74136134D01*
X144778231Y-74136133D01*
X144778228Y-74136132D01*
X144778227Y-74136132D01*
X144719758Y-74124501D01*
X144719748Y-74124500D01*
X144280252Y-74124500D01*
X144280251Y-74124500D01*
X144280241Y-74124501D01*
X144221772Y-74136132D01*
X144221766Y-74136134D01*
X144155451Y-74180445D01*
X144155445Y-74180451D01*
X144111134Y-74246766D01*
X144111132Y-74246772D01*
X144099501Y-74305241D01*
X144099500Y-74305253D01*
X144099500Y-74646653D01*
X144080593Y-74704844D01*
X144070504Y-74716657D01*
X144069504Y-74717657D01*
X144014987Y-74745434D01*
X143954555Y-74735863D01*
X143911290Y-74692598D01*
X143900500Y-74647653D01*
X143900500Y-74305253D01*
X143900498Y-74305241D01*
X143894327Y-74274220D01*
X143888867Y-74246769D01*
X143844552Y-74180448D01*
X143844548Y-74180445D01*
X143778233Y-74136134D01*
X143778231Y-74136133D01*
X143778228Y-74136132D01*
X143778227Y-74136132D01*
X143719758Y-74124501D01*
X143719748Y-74124500D01*
X143280252Y-74124500D01*
X143280251Y-74124500D01*
X143280241Y-74124501D01*
X143221772Y-74136132D01*
X143221766Y-74136134D01*
X143155451Y-74180445D01*
X143155445Y-74180451D01*
X143111134Y-74246766D01*
X143111132Y-74246772D01*
X143099501Y-74305241D01*
X143099500Y-74305253D01*
X143099500Y-74646653D01*
X143080593Y-74704844D01*
X143070504Y-74716657D01*
X143016657Y-74770504D01*
X142962140Y-74798281D01*
X142946653Y-74799500D01*
X142501923Y-74799500D01*
X142443732Y-74780593D01*
X142407768Y-74731093D01*
X142403931Y-74686410D01*
X142405500Y-74675498D01*
X142405500Y-72857347D01*
X142424407Y-72799156D01*
X142473907Y-72763192D01*
X142535093Y-72763192D01*
X142574504Y-72787343D01*
X143070504Y-73283343D01*
X143098281Y-73337860D01*
X143099500Y-73353347D01*
X143099500Y-73694746D01*
X143099501Y-73694758D01*
X143111132Y-73753227D01*
X143111134Y-73753233D01*
X143133069Y-73786060D01*
X143155448Y-73819552D01*
X143221769Y-73863867D01*
X143266231Y-73872711D01*
X143280241Y-73875498D01*
X143280246Y-73875498D01*
X143280252Y-73875500D01*
X143280253Y-73875500D01*
X143719747Y-73875500D01*
X143719748Y-73875500D01*
X143778231Y-73863867D01*
X143844552Y-73819552D01*
X143888867Y-73753231D01*
X143900500Y-73694748D01*
X143900500Y-73694700D01*
X144100000Y-73694700D01*
X144111603Y-73753036D01*
X144155806Y-73819189D01*
X144155810Y-73819193D01*
X144221963Y-73863396D01*
X144280299Y-73874999D01*
X144280303Y-73875000D01*
X144399999Y-73875000D01*
X144400000Y-73874999D01*
X144600000Y-73874999D01*
X144600001Y-73875000D01*
X144719697Y-73875000D01*
X144719700Y-73874999D01*
X144778036Y-73863396D01*
X144844189Y-73819193D01*
X144844193Y-73819189D01*
X144888396Y-73753036D01*
X144899999Y-73694700D01*
X144900000Y-73694697D01*
X144900000Y-73600001D01*
X144899999Y-73600000D01*
X144600001Y-73600000D01*
X144600000Y-73600001D01*
X144600000Y-73874999D01*
X144400000Y-73874999D01*
X144400000Y-73600001D01*
X144399999Y-73600000D01*
X144100001Y-73600000D01*
X144100000Y-73600001D01*
X144100000Y-73694700D01*
X143900500Y-73694700D01*
X143900500Y-73305252D01*
X143899455Y-73300000D01*
X144101054Y-73300000D01*
X144100000Y-73305299D01*
X144100000Y-73399999D01*
X144100001Y-73400000D01*
X144899999Y-73400000D01*
X144900000Y-73399999D01*
X144900000Y-73305302D01*
X144899999Y-73305299D01*
X144898945Y-73300000D01*
X145350000Y-73300000D01*
X145350000Y-71700000D01*
X143100000Y-71700000D01*
X143100000Y-72887161D01*
X142779496Y-72566657D01*
X142751719Y-72512140D01*
X142750500Y-72496653D01*
X142750500Y-71181903D01*
X142769407Y-71123712D01*
X142779496Y-71111899D01*
X143056899Y-70834496D01*
X143111416Y-70806719D01*
X143126903Y-70805500D01*
X144251469Y-70805500D01*
X144257099Y-70805198D01*
X144257098Y-70805198D01*
X144259137Y-70804978D01*
X144286274Y-70802061D01*
X144325557Y-70789761D01*
X144386880Y-70756276D01*
X144410919Y-70738281D01*
X144933341Y-70215857D01*
X144969530Y-70194042D01*
X144969485Y-70193950D01*
X144970535Y-70193436D01*
X144974126Y-70191272D01*
X144976379Y-70190574D01*
X144976393Y-70190573D01*
X145081483Y-70139198D01*
X145164198Y-70056483D01*
X145215573Y-69951393D01*
X145225500Y-69883260D01*
X145225500Y-69191740D01*
X145215573Y-69123607D01*
X145164198Y-69018517D01*
X145164195Y-69018514D01*
X145153758Y-69008076D01*
X145144515Y-68997409D01*
X145138281Y-68989081D01*
X144408921Y-68259721D01*
X144404716Y-68255945D01*
X144381874Y-68237538D01*
X144381867Y-68237534D01*
X144381865Y-68237533D01*
X144345402Y-68218459D01*
X144345397Y-68218457D01*
X144278368Y-68198775D01*
X144278359Y-68198773D01*
X144248638Y-68194500D01*
X143024500Y-68194500D01*
X143018346Y-68195161D01*
X143015075Y-68195513D01*
X142955198Y-68182929D01*
X142914152Y-68137554D01*
X142905500Y-68097079D01*
X142905500Y-66148531D01*
X142905198Y-66142901D01*
X142905198Y-66142902D01*
X142902061Y-66113729D01*
X142902061Y-66113726D01*
X142889761Y-66074443D01*
X142879888Y-66056362D01*
X142856280Y-66013126D01*
X142856279Y-66013125D01*
X142856278Y-66013123D01*
X142856276Y-66013120D01*
X142838281Y-65989081D01*
X140008921Y-63159721D01*
X140004716Y-63155945D01*
X139981874Y-63137538D01*
X139981867Y-63137534D01*
X139981865Y-63137533D01*
X139945402Y-63118459D01*
X139945397Y-63118457D01*
X139878368Y-63098775D01*
X139878359Y-63098773D01*
X139848638Y-63094500D01*
X138224000Y-63094500D01*
X138201573Y-63096911D01*
X138201564Y-63096912D01*
X138201557Y-63096914D01*
X138150064Y-63108116D01*
X138150063Y-63108116D01*
X138103399Y-63131474D01*
X138100525Y-63133395D01*
X138098322Y-63134016D01*
X138097863Y-63134246D01*
X138097818Y-63134157D01*
X138041636Y-63149999D01*
X137992006Y-63134360D01*
X137967264Y-63118459D01*
X137900221Y-63098773D01*
X137870500Y-63094500D01*
X135324000Y-63094500D01*
X135301573Y-63096911D01*
X135301564Y-63096912D01*
X135301557Y-63096914D01*
X135250064Y-63108116D01*
X135250063Y-63108116D01*
X135203399Y-63131474D01*
X135200525Y-63133395D01*
X135198322Y-63134016D01*
X135197863Y-63134246D01*
X135197818Y-63134157D01*
X135141636Y-63149999D01*
X135092006Y-63134360D01*
X135067264Y-63118459D01*
X135000221Y-63098773D01*
X134970500Y-63094500D01*
X132129500Y-63094500D01*
X132107073Y-63096911D01*
X132107064Y-63096912D01*
X132107057Y-63096914D01*
X132055564Y-63108116D01*
X132055563Y-63108116D01*
X132008899Y-63131474D01*
X132006025Y-63133395D01*
X132003822Y-63134016D01*
X132003363Y-63134246D01*
X132003318Y-63134157D01*
X131947136Y-63149999D01*
X131897506Y-63134360D01*
X131872764Y-63118459D01*
X131805721Y-63098773D01*
X131776000Y-63094500D01*
X130548536Y-63094500D01*
X130548531Y-63094500D01*
X130542901Y-63094802D01*
X130542902Y-63094802D01*
X130513729Y-63097938D01*
X130513721Y-63097940D01*
X130474450Y-63110236D01*
X130474435Y-63110242D01*
X130413126Y-63143719D01*
X130413125Y-63143720D01*
X130389082Y-63161718D01*
X130389081Y-63161719D01*
X127859721Y-65691079D01*
X127855951Y-65695277D01*
X127837538Y-65718126D01*
X127837533Y-65718134D01*
X127818459Y-65754597D01*
X127818457Y-65754602D01*
X127798775Y-65821631D01*
X127798773Y-65821640D01*
X127794500Y-65851362D01*
X127794500Y-67495500D01*
X127775593Y-67553691D01*
X127726093Y-67589655D01*
X127695500Y-67594500D01*
X126348531Y-67594500D01*
X126342901Y-67594802D01*
X126342902Y-67594802D01*
X126313729Y-67597938D01*
X126313721Y-67597940D01*
X126274450Y-67610236D01*
X126274435Y-67610242D01*
X126213126Y-67643719D01*
X126213125Y-67643720D01*
X126189082Y-67661718D01*
X124859721Y-68991079D01*
X124855944Y-68995285D01*
X124844785Y-69009132D01*
X124841246Y-69013072D01*
X124835800Y-69018518D01*
X124784427Y-69123604D01*
X124784427Y-69123607D01*
X124774500Y-69191740D01*
X124774500Y-69883260D01*
X124784427Y-69951393D01*
X124784428Y-69951397D01*
X124789863Y-69962516D01*
X124796419Y-69981654D01*
X124796486Y-69981634D01*
X124797266Y-69984128D01*
X124797838Y-69985795D01*
X124797935Y-69986263D01*
X124810238Y-70025555D01*
X124810242Y-70025564D01*
X124843719Y-70086873D01*
X124843720Y-70086874D01*
X124843722Y-70086877D01*
X124843724Y-70086880D01*
X124861719Y-70110919D01*
X125591079Y-70840279D01*
X125595284Y-70844055D01*
X125618126Y-70862462D01*
X125654599Y-70881541D01*
X125654600Y-70881541D01*
X125654602Y-70881542D01*
X125721631Y-70901224D01*
X125721638Y-70901226D01*
X125751362Y-70905500D01*
X126800500Y-70905500D01*
X126858691Y-70924407D01*
X126894655Y-70973907D01*
X126899500Y-71004500D01*
X126899500Y-71700000D01*
X124750000Y-71700000D01*
X124750000Y-73300000D01*
X125101054Y-73300000D01*
X125100000Y-73305299D01*
X125100000Y-73399999D01*
X125100001Y-73400000D01*
X125899999Y-73400000D01*
X125900000Y-73399999D01*
X125900000Y-73305302D01*
X125899999Y-73305299D01*
X125898945Y-73300000D01*
X126100545Y-73300000D01*
X126099500Y-73305251D01*
X126099500Y-73694746D01*
X126099501Y-73694758D01*
X126111132Y-73753227D01*
X126111134Y-73753233D01*
X126133069Y-73786060D01*
X126155448Y-73819552D01*
X126221769Y-73863867D01*
X126266231Y-73872711D01*
X126280241Y-73875498D01*
X126280246Y-73875498D01*
X126280252Y-73875500D01*
X126280253Y-73875500D01*
X126719747Y-73875500D01*
X126719748Y-73875500D01*
X126756184Y-73868252D01*
X126816945Y-73875442D01*
X126861876Y-73916973D01*
X126874500Y-73965349D01*
X126874500Y-74034650D01*
X126855593Y-74092841D01*
X126806093Y-74128805D01*
X126756186Y-74131748D01*
X126719750Y-74124500D01*
X126719748Y-74124500D01*
X126280252Y-74124500D01*
X126280251Y-74124500D01*
X126280241Y-74124501D01*
X126221772Y-74136132D01*
X126221766Y-74136134D01*
X126155451Y-74180445D01*
X126155445Y-74180451D01*
X126111134Y-74246766D01*
X126111132Y-74246772D01*
X126099501Y-74305241D01*
X126099500Y-74305253D01*
X126099500Y-74647653D01*
X126080593Y-74705844D01*
X126031093Y-74741808D01*
X125969907Y-74741808D01*
X125930496Y-74717657D01*
X125929496Y-74716657D01*
X125901719Y-74662140D01*
X125900500Y-74646653D01*
X125900500Y-74305253D01*
X125900498Y-74305241D01*
X125894327Y-74274220D01*
X125888867Y-74246769D01*
X125844552Y-74180448D01*
X125844548Y-74180445D01*
X125778233Y-74136134D01*
X125778231Y-74136133D01*
X125778228Y-74136132D01*
X125778227Y-74136132D01*
X125719758Y-74124501D01*
X125719748Y-74124500D01*
X125280252Y-74124500D01*
X125280251Y-74124500D01*
X125280241Y-74124501D01*
X125221772Y-74136132D01*
X125221766Y-74136134D01*
X125155451Y-74180445D01*
X125155445Y-74180451D01*
X125111134Y-74246766D01*
X125111132Y-74246772D01*
X125099501Y-74305241D01*
X125099500Y-74305253D01*
X125099500Y-74694746D01*
X125099501Y-74694758D01*
X125111132Y-74753227D01*
X125111134Y-74753233D01*
X125155445Y-74819548D01*
X125155448Y-74819552D01*
X125221769Y-74863867D01*
X125266231Y-74872711D01*
X125280241Y-74875498D01*
X125280246Y-74875498D01*
X125280252Y-74875500D01*
X125621653Y-74875500D01*
X125679844Y-74894407D01*
X125691657Y-74904496D01*
X126120504Y-75333343D01*
X126148281Y-75387860D01*
X126149500Y-75403347D01*
X126149500Y-75705279D01*
X126153237Y-75711750D01*
X126163129Y-75735630D01*
X126165064Y-75742853D01*
X126165064Y-75742854D01*
X126236006Y-75813797D01*
X126236020Y-75813809D01*
X126920504Y-76498293D01*
X126948281Y-76552810D01*
X126949500Y-76568297D01*
X126949500Y-76994734D01*
X126930593Y-77052925D01*
X126888687Y-77083372D01*
X126889460Y-77084888D01*
X126776537Y-77142425D01*
X126692425Y-77226537D01*
X126638428Y-77332511D01*
X126638426Y-77332518D01*
X126619819Y-77450000D01*
X126634887Y-77545140D01*
X126638426Y-77567481D01*
X126638428Y-77567488D01*
X126683248Y-77655451D01*
X126692427Y-77673465D01*
X126699960Y-77680998D01*
X126727736Y-77735513D01*
X126718165Y-77795945D01*
X126674900Y-77839210D01*
X126656333Y-77843667D01*
X126650000Y-77850001D01*
X126650000Y-78649999D01*
X126650001Y-78650000D01*
X126744697Y-78650000D01*
X126744698Y-78649999D01*
X126781185Y-78642742D01*
X126841947Y-78649934D01*
X126886877Y-78691466D01*
X126899500Y-78739840D01*
X126899500Y-78760159D01*
X126880593Y-78818350D01*
X126831093Y-78854314D01*
X126781188Y-78857257D01*
X126744705Y-78850000D01*
X126650001Y-78850000D01*
X126650000Y-78850001D01*
X126650000Y-79649999D01*
X126650001Y-79650000D01*
X126744697Y-79650000D01*
X126744698Y-79649999D01*
X126781185Y-79642742D01*
X126841947Y-79649934D01*
X126886877Y-79691466D01*
X126899500Y-79739840D01*
X126899500Y-79759650D01*
X126880593Y-79817841D01*
X126831093Y-79853805D01*
X126781186Y-79856748D01*
X126744750Y-79849500D01*
X126744748Y-79849500D01*
X126355252Y-79849500D01*
X126355251Y-79849500D01*
X126355241Y-79849501D01*
X126296772Y-79861132D01*
X126296766Y-79861134D01*
X126230451Y-79905445D01*
X126230445Y-79905451D01*
X126186134Y-79971766D01*
X126186132Y-79971772D01*
X126174501Y-80030241D01*
X126174500Y-80030253D01*
X126174500Y-80469746D01*
X126174501Y-80469758D01*
X126186132Y-80528227D01*
X126186134Y-80528233D01*
X126230445Y-80594548D01*
X126230448Y-80594552D01*
X126296769Y-80638867D01*
X126341231Y-80647711D01*
X126355241Y-80650498D01*
X126355246Y-80650498D01*
X126355252Y-80650500D01*
X126685255Y-80650500D01*
X126743446Y-80669407D01*
X126755259Y-80679496D01*
X126756759Y-80680996D01*
X126784536Y-80735513D01*
X126774965Y-80795945D01*
X126731700Y-80839210D01*
X126686755Y-80850000D01*
X126650001Y-80850000D01*
X126650000Y-80850001D01*
X126650000Y-81649999D01*
X126650001Y-81650000D01*
X126744697Y-81650000D01*
X126744698Y-81649999D01*
X126781185Y-81642742D01*
X126841947Y-81649934D01*
X126886877Y-81691466D01*
X126899500Y-81739840D01*
X126899500Y-82641370D01*
X126903237Y-82647841D01*
X126913129Y-82671721D01*
X126915064Y-82678944D01*
X126915064Y-82678945D01*
X126986006Y-82749888D01*
X126986020Y-82749900D01*
X127614023Y-83377904D01*
X127671055Y-83434935D01*
X127678273Y-83436869D01*
X127702158Y-83446762D01*
X127708632Y-83450500D01*
X127708634Y-83450500D01*
X129408524Y-83450500D01*
X129408525Y-83450500D01*
X129414998Y-83446761D01*
X129438881Y-83436869D01*
X129446102Y-83434935D01*
X129503133Y-83377905D01*
X129503133Y-83377904D01*
X129517054Y-83363984D01*
X129517060Y-83363976D01*
X129620430Y-83260607D01*
X129622346Y-83258691D01*
X129634935Y-83246102D01*
X129636869Y-83238881D01*
X129646761Y-83214998D01*
X129650500Y-83208525D01*
X129650500Y-83130384D01*
X129669407Y-83072193D01*
X129718907Y-83036229D01*
X129780093Y-83036229D01*
X129794442Y-83042173D01*
X129832518Y-83061574D01*
X129950000Y-83080181D01*
X129985014Y-83074635D01*
X130045444Y-83084206D01*
X130088709Y-83127470D01*
X130099500Y-83172416D01*
X130099500Y-83761458D01*
X130080593Y-83819649D01*
X130055506Y-83843771D01*
X130048472Y-83848471D01*
X130009683Y-83906521D01*
X130009682Y-83906525D01*
X129999501Y-83957705D01*
X129999500Y-83957717D01*
X129999500Y-85042286D01*
X130007238Y-85081186D01*
X130000046Y-85141947D01*
X129958514Y-85186877D01*
X129910140Y-85199500D01*
X121502430Y-85199500D01*
X121497575Y-85199261D01*
X121373237Y-85187014D01*
X121354203Y-85183228D01*
X121241645Y-85149084D01*
X121223714Y-85141657D01*
X121119977Y-85086208D01*
X121103841Y-85075426D01*
X121012916Y-85000806D01*
X120999193Y-84987083D01*
X120924573Y-84896158D01*
X120913791Y-84880022D01*
X120858342Y-84776285D01*
X120850915Y-84758354D01*
X120816771Y-84645796D01*
X120812985Y-84626762D01*
X120810581Y-84602351D01*
X120800737Y-84502409D01*
X120800500Y-84497568D01*
X120800500Y-83469918D01*
X120800491Y-83469738D01*
X120800477Y-83397872D01*
X120777527Y-83194911D01*
X120777527Y-83194910D01*
X120777526Y-83194904D01*
X120731918Y-82995821D01*
X120731915Y-82995812D01*
X120664224Y-82803101D01*
X120654170Y-82782310D01*
X120575308Y-82619216D01*
X120508385Y-82513181D01*
X120466290Y-82446485D01*
X120420805Y-82389704D01*
X120410730Y-82374417D01*
X120358140Y-82275820D01*
X120350740Y-82257920D01*
X120349537Y-82253946D01*
X120316713Y-82145537D01*
X120312942Y-82126543D01*
X120304204Y-82037661D01*
X120300738Y-82002406D01*
X120300500Y-81997560D01*
X120300500Y-81469700D01*
X126175000Y-81469700D01*
X126186603Y-81528036D01*
X126230806Y-81594189D01*
X126230810Y-81594193D01*
X126296963Y-81638396D01*
X126355299Y-81649999D01*
X126355303Y-81650000D01*
X126449999Y-81650000D01*
X126450000Y-81649999D01*
X126450000Y-81350001D01*
X126449999Y-81350000D01*
X126175001Y-81350000D01*
X126175000Y-81350001D01*
X126175000Y-81469700D01*
X120300500Y-81469700D01*
X120300500Y-81149999D01*
X126175000Y-81149999D01*
X126175001Y-81150000D01*
X126449999Y-81150000D01*
X126450000Y-81149999D01*
X126450000Y-80850001D01*
X126449999Y-80850000D01*
X126355299Y-80850000D01*
X126296963Y-80861603D01*
X126230810Y-80905806D01*
X126230806Y-80905810D01*
X126186603Y-80971963D01*
X126175000Y-81030299D01*
X126175000Y-81149999D01*
X120300500Y-81149999D01*
X120300500Y-79469700D01*
X126175000Y-79469700D01*
X126186603Y-79528036D01*
X126230806Y-79594189D01*
X126230810Y-79594193D01*
X126296963Y-79638396D01*
X126355299Y-79649999D01*
X126355303Y-79650000D01*
X126449999Y-79650000D01*
X126450000Y-79649999D01*
X126450000Y-79350001D01*
X126449999Y-79350000D01*
X126175001Y-79350000D01*
X126175000Y-79350001D01*
X126175000Y-79469700D01*
X120300500Y-79469700D01*
X120300500Y-79149999D01*
X126175000Y-79149999D01*
X126175001Y-79150000D01*
X126449999Y-79150000D01*
X126450000Y-79149999D01*
X126450000Y-78850001D01*
X126449999Y-78850000D01*
X126355299Y-78850000D01*
X126296963Y-78861603D01*
X126230810Y-78905806D01*
X126230806Y-78905810D01*
X126186603Y-78971963D01*
X126175000Y-79030299D01*
X126175000Y-79149999D01*
X120300500Y-79149999D01*
X120300500Y-78469700D01*
X126175000Y-78469700D01*
X126186603Y-78528036D01*
X126230806Y-78594189D01*
X126230810Y-78594193D01*
X126296963Y-78638396D01*
X126355299Y-78649999D01*
X126355303Y-78650000D01*
X126449999Y-78650000D01*
X126450000Y-78649999D01*
X126450000Y-78350001D01*
X126449999Y-78350000D01*
X126175001Y-78350000D01*
X126175000Y-78350001D01*
X126175000Y-78469700D01*
X120300500Y-78469700D01*
X120300500Y-78149999D01*
X126175000Y-78149999D01*
X126175001Y-78150000D01*
X126449999Y-78150000D01*
X126450000Y-78149999D01*
X126450000Y-77850001D01*
X126449999Y-77850000D01*
X126355299Y-77850000D01*
X126296963Y-77861603D01*
X126230810Y-77905806D01*
X126230806Y-77905810D01*
X126186603Y-77971963D01*
X126175000Y-78030299D01*
X126175000Y-78149999D01*
X120300500Y-78149999D01*
X120300500Y-73694700D01*
X125100000Y-73694700D01*
X125111603Y-73753036D01*
X125155806Y-73819189D01*
X125155810Y-73819193D01*
X125221963Y-73863396D01*
X125280299Y-73874999D01*
X125280303Y-73875000D01*
X125399999Y-73875000D01*
X125400000Y-73874999D01*
X125600000Y-73874999D01*
X125600001Y-73875000D01*
X125719697Y-73875000D01*
X125719700Y-73874999D01*
X125778036Y-73863396D01*
X125844189Y-73819193D01*
X125844193Y-73819189D01*
X125888396Y-73753036D01*
X125899999Y-73694700D01*
X125900000Y-73694697D01*
X125900000Y-73600001D01*
X125899999Y-73600000D01*
X125600001Y-73600000D01*
X125600000Y-73600001D01*
X125600000Y-73874999D01*
X125400000Y-73874999D01*
X125400000Y-73600001D01*
X125399999Y-73600000D01*
X125100001Y-73600000D01*
X125100000Y-73600001D01*
X125100000Y-73694700D01*
X120300500Y-73694700D01*
X120300500Y-67701469D01*
X120319407Y-67643278D01*
X120368907Y-67607314D01*
X120399500Y-67602469D01*
X122908275Y-67602469D01*
X122911153Y-67602553D01*
X122972240Y-67606109D01*
X122997018Y-67607553D01*
X122997023Y-67607553D01*
X123002977Y-67607553D01*
X123002981Y-67607553D01*
X123357803Y-67586887D01*
X123363721Y-67586195D01*
X123363721Y-67586196D01*
X123548067Y-67553691D01*
X123713750Y-67524477D01*
X123719552Y-67523101D01*
X124060044Y-67421164D01*
X124065647Y-67419125D01*
X124201594Y-67360483D01*
X124391997Y-67278352D01*
X124391996Y-67278352D01*
X124392003Y-67278349D01*
X124397331Y-67275673D01*
X124705138Y-67097961D01*
X124710120Y-67094684D01*
X124995213Y-66882440D01*
X124999781Y-66878607D01*
X124999782Y-66878606D01*
X124999783Y-66878606D01*
X125258306Y-66634701D01*
X125262396Y-66630366D01*
X125490857Y-66358098D01*
X125490860Y-66358094D01*
X125494421Y-66353311D01*
X125494425Y-66353305D01*
X125494425Y-66353306D01*
X125689727Y-66056362D01*
X125692711Y-66051192D01*
X125737726Y-65961561D01*
X125852225Y-65733577D01*
X125852228Y-65733570D01*
X125852227Y-65733574D01*
X125854587Y-65728100D01*
X125854589Y-65728097D01*
X125976145Y-65394121D01*
X125976146Y-65394120D01*
X125977860Y-65388392D01*
X126059825Y-65042557D01*
X126060860Y-65036684D01*
X126060861Y-65036677D01*
X126102123Y-64683663D01*
X126102122Y-64683666D01*
X126102469Y-64677713D01*
X126102469Y-64322287D01*
X126102122Y-64316334D01*
X126102123Y-64316337D01*
X126060861Y-63963323D01*
X126060861Y-63963324D01*
X126060860Y-63963316D01*
X126059825Y-63957443D01*
X125977858Y-63611600D01*
X125976148Y-63605887D01*
X125976146Y-63605880D01*
X125976145Y-63605879D01*
X125854589Y-63271903D01*
X125854587Y-63271900D01*
X125852227Y-63266426D01*
X125852228Y-63266430D01*
X125852225Y-63266423D01*
X125692710Y-62948806D01*
X125689729Y-62943641D01*
X125661026Y-62900000D01*
X125494425Y-62646694D01*
X125494425Y-62646695D01*
X125494421Y-62646689D01*
X125490860Y-62641906D01*
X125262398Y-62369636D01*
X125258306Y-62365299D01*
X125168149Y-62280240D01*
X124999783Y-62121394D01*
X124999782Y-62121394D01*
X124999781Y-62121393D01*
X124995213Y-62117560D01*
X124710120Y-61905316D01*
X124705138Y-61902039D01*
X124397331Y-61724327D01*
X124392003Y-61721651D01*
X124391996Y-61721648D01*
X124391997Y-61721648D01*
X124156646Y-61620128D01*
X124065647Y-61580875D01*
X124060044Y-61578836D01*
X123721199Y-61477392D01*
X123719549Y-61476898D01*
X123715871Y-61476026D01*
X123713750Y-61475523D01*
X123366596Y-61414311D01*
X123363721Y-61413804D01*
X123357803Y-61413113D01*
X123002981Y-61392447D01*
X122997018Y-61392447D01*
X122972240Y-61393890D01*
X122911153Y-61397447D01*
X122908275Y-61397531D01*
X121352234Y-61397531D01*
X121294043Y-61378624D01*
X121258079Y-61329124D01*
X121258079Y-61267938D01*
X121282230Y-61228527D01*
X126003663Y-56507095D01*
X126007265Y-56503831D01*
X126103841Y-56424573D01*
X126119977Y-56413791D01*
X126223716Y-56358340D01*
X126241643Y-56350915D01*
X126354207Y-56316770D01*
X126373233Y-56312985D01*
X126497591Y-56300737D01*
X126500000Y-56300619D01*
X126500000Y-61000000D01*
X143500000Y-61000000D01*
X143500000Y-56300619D01*
X143502424Y-56300739D01*
G37*
%TD.AperFunction*%
%TA.AperFunction,Conductor*%
G36*
X134987646Y-83469407D02*
G01*
X135023610Y-83518907D01*
X135023610Y-83580093D01*
X134999460Y-83619501D01*
X134996867Y-83622095D01*
X134996866Y-83622096D01*
X134911444Y-83707519D01*
X134848460Y-83770503D01*
X134793943Y-83798281D01*
X134778456Y-83799500D01*
X134657716Y-83799500D01*
X134657715Y-83799500D01*
X134657705Y-83799501D01*
X134606525Y-83809682D01*
X134606522Y-83809683D01*
X134555001Y-83844109D01*
X134496113Y-83860717D01*
X134444999Y-83844109D01*
X134393477Y-83809683D01*
X134393474Y-83809682D01*
X134342294Y-83799501D01*
X134342284Y-83799500D01*
X134157716Y-83799500D01*
X134157715Y-83799500D01*
X134157705Y-83799501D01*
X134106525Y-83809682D01*
X134106522Y-83809683D01*
X134055001Y-83844109D01*
X133996113Y-83860717D01*
X133944999Y-83844109D01*
X133893477Y-83809683D01*
X133893474Y-83809682D01*
X133842294Y-83799501D01*
X133842284Y-83799500D01*
X133657716Y-83799500D01*
X133657715Y-83799500D01*
X133657705Y-83799501D01*
X133606525Y-83809682D01*
X133606521Y-83809683D01*
X133554552Y-83844409D01*
X133495663Y-83861018D01*
X133444549Y-83844410D01*
X133398393Y-83813570D01*
X133360513Y-83765520D01*
X133358111Y-83704382D01*
X133383391Y-83661250D01*
X133565146Y-83479496D01*
X133619662Y-83451719D01*
X133635149Y-83450500D01*
X134929455Y-83450500D01*
X134987646Y-83469407D01*
G37*
%TD.AperFunction*%
%TA.AperFunction,Conductor*%
G36*
X132119819Y-83124999D02*
G01*
X132119819Y-83125001D01*
X132124411Y-83153996D01*
X132114839Y-83214428D01*
X132096634Y-83239485D01*
X131765618Y-83570503D01*
X131711101Y-83598281D01*
X131695614Y-83599500D01*
X131541475Y-83599500D01*
X131534995Y-83603241D01*
X131511126Y-83613128D01*
X131503899Y-83615064D01*
X131503896Y-83615066D01*
X131474469Y-83644493D01*
X131446867Y-83672095D01*
X131446866Y-83672096D01*
X131387870Y-83731093D01*
X131348460Y-83770503D01*
X131293944Y-83798281D01*
X131278456Y-83799500D01*
X131210696Y-83799500D01*
X131152505Y-83780593D01*
X131116541Y-83731093D01*
X131112915Y-83715986D01*
X131111574Y-83707519D01*
X131111571Y-83707511D01*
X131057574Y-83601537D01*
X131057573Y-83601535D01*
X130973465Y-83517427D01*
X130973462Y-83517425D01*
X130867488Y-83463428D01*
X130867483Y-83463426D01*
X130867482Y-83463426D01*
X130750000Y-83444819D01*
X130632518Y-83463426D01*
X130632511Y-83463428D01*
X130544445Y-83508301D01*
X130484013Y-83517873D01*
X130429497Y-83490096D01*
X130401719Y-83435579D01*
X130400500Y-83420092D01*
X130400500Y-83100000D01*
X132123778Y-83100000D01*
X132119819Y-83124999D01*
G37*
%TD.AperFunction*%
%TA.AperFunction,Conductor*%
G36*
X130200000Y-82418962D02*
G01*
X130173465Y-82392427D01*
X130173462Y-82392425D01*
X130067488Y-82338428D01*
X130067483Y-82338426D01*
X130067482Y-82338426D01*
X129950000Y-82319819D01*
X129949501Y-82319819D01*
X129949025Y-82319664D01*
X129942304Y-82318600D01*
X129942472Y-82317535D01*
X129891310Y-82300912D01*
X129855346Y-82251412D01*
X129850501Y-82220819D01*
X129850501Y-82199192D01*
X129850500Y-82199182D01*
X129850500Y-81979387D01*
X129869407Y-81921196D01*
X129879490Y-81909389D01*
X130200000Y-81588879D01*
X130200000Y-82418962D01*
G37*
%TD.AperFunction*%
%TA.AperFunction,Conductor*%
G36*
X136320504Y-78984384D02*
G01*
X136348281Y-79038901D01*
X136349500Y-79054388D01*
X136349500Y-80740329D01*
X136353237Y-80746800D01*
X136363129Y-80770680D01*
X136365064Y-80777903D01*
X136365064Y-80777904D01*
X136436006Y-80848847D01*
X136436020Y-80848859D01*
X136520504Y-80933343D01*
X136548281Y-80987860D01*
X136549500Y-81003347D01*
X136549500Y-81092282D01*
X136549501Y-81092294D01*
X136559682Y-81143474D01*
X136559683Y-81143477D01*
X136594109Y-81194999D01*
X136610717Y-81253887D01*
X136594109Y-81305001D01*
X136559683Y-81356522D01*
X136559682Y-81356525D01*
X136549501Y-81407705D01*
X136549500Y-81407717D01*
X136549500Y-81592282D01*
X136549501Y-81592294D01*
X136559682Y-81643474D01*
X136559683Y-81643477D01*
X136594109Y-81694999D01*
X136610717Y-81753887D01*
X136594109Y-81805001D01*
X136559683Y-81856522D01*
X136559682Y-81856525D01*
X136549501Y-81907705D01*
X136549500Y-81907717D01*
X136549500Y-81996653D01*
X136530593Y-82054844D01*
X136520504Y-82066657D01*
X136265065Y-82322095D01*
X136265063Y-82322098D01*
X136263127Y-82329324D01*
X136253238Y-82353196D01*
X136246737Y-82364456D01*
X136201268Y-82405397D01*
X136140418Y-82411793D01*
X136090999Y-82384961D01*
X136073465Y-82367427D01*
X136073462Y-82367425D01*
X135967488Y-82313428D01*
X135967483Y-82313426D01*
X135967482Y-82313426D01*
X135850000Y-82294819D01*
X135800000Y-82302737D01*
X135800000Y-78463880D01*
X136320504Y-78984384D01*
G37*
%TD.AperFunction*%
%TA.AperFunction,Conductor*%
G36*
X130120445Y-80548019D02*
G01*
X130163710Y-80591284D01*
X130174500Y-80636229D01*
X130174500Y-81147694D01*
X130155593Y-81205885D01*
X130145504Y-81217698D01*
X129622095Y-81741106D01*
X129588440Y-81774761D01*
X129533923Y-81802537D01*
X129473491Y-81792965D01*
X129430227Y-81749700D01*
X129420656Y-81689268D01*
X129436122Y-81649753D01*
X129440317Y-81643477D01*
X129450500Y-81592284D01*
X129450500Y-81407716D01*
X129448331Y-81396814D01*
X129440317Y-81356525D01*
X129440317Y-81356523D01*
X129405890Y-81305001D01*
X129389282Y-81246114D01*
X129405890Y-81194999D01*
X129440317Y-81143477D01*
X129440317Y-81143472D01*
X129441314Y-81141068D01*
X129462777Y-81108944D01*
X129493818Y-81077905D01*
X129493818Y-81077903D01*
X129507723Y-81063999D01*
X129507731Y-81063989D01*
X130005497Y-80566224D01*
X130060013Y-80538448D01*
X130120445Y-80548019D01*
G37*
%TD.AperFunction*%
%TA.AperFunction,Conductor*%
G36*
X143402773Y-78419407D02*
G01*
X143432792Y-78454556D01*
X143442424Y-78473461D01*
X143442425Y-78473462D01*
X143442427Y-78473465D01*
X143466571Y-78497609D01*
X143494347Y-78552124D01*
X143484776Y-78612556D01*
X143441511Y-78655821D01*
X143381079Y-78665392D01*
X143351621Y-78655820D01*
X143317488Y-78638428D01*
X143317483Y-78638426D01*
X143317482Y-78638426D01*
X143200000Y-78619819D01*
X143082518Y-78638426D01*
X143082511Y-78638428D01*
X142976537Y-78692425D01*
X142892425Y-78776537D01*
X142838428Y-78882511D01*
X142838426Y-78882518D01*
X142824260Y-78971963D01*
X142819819Y-79000000D01*
X142832720Y-79081458D01*
X142838426Y-79117481D01*
X142838428Y-79117488D01*
X142890533Y-79219748D01*
X142892427Y-79223465D01*
X142976535Y-79307573D01*
X142976537Y-79307574D01*
X143082511Y-79361571D01*
X143082513Y-79361571D01*
X143082518Y-79361574D01*
X143200000Y-79380181D01*
X143294640Y-79365191D01*
X143355069Y-79374762D01*
X143380129Y-79392968D01*
X143495504Y-79508343D01*
X143523281Y-79562860D01*
X143524500Y-79578347D01*
X143524500Y-81582353D01*
X143505593Y-81640544D01*
X143456093Y-81676508D01*
X143394907Y-81676508D01*
X143380555Y-81670563D01*
X143317482Y-81638426D01*
X143200000Y-81619819D01*
X143082518Y-81638426D01*
X143082516Y-81638426D01*
X143044445Y-81657825D01*
X142984012Y-81667396D01*
X142929496Y-81639618D01*
X142901719Y-81585102D01*
X142900500Y-81569615D01*
X142900500Y-80259675D01*
X142900500Y-80259673D01*
X142896762Y-80253199D01*
X142886869Y-80229314D01*
X142884935Y-80222096D01*
X142858720Y-80195881D01*
X142827905Y-80165065D01*
X142827904Y-80165064D01*
X142822262Y-80159422D01*
X142129496Y-79466657D01*
X142101719Y-79412140D01*
X142100500Y-79396653D01*
X142100500Y-79203347D01*
X142119407Y-79145156D01*
X142129496Y-79133343D01*
X142833343Y-78429496D01*
X142887860Y-78401719D01*
X142903347Y-78400500D01*
X143344582Y-78400500D01*
X143402773Y-78419407D01*
G37*
%TD.AperFunction*%
%TA.AperFunction,Conductor*%
G36*
X129745501Y-79373116D02*
G01*
X129773281Y-79427632D01*
X129774500Y-79443122D01*
X129774500Y-80047694D01*
X129755593Y-80105885D01*
X129745509Y-80117691D01*
X129643456Y-80219746D01*
X129586626Y-80276576D01*
X129532109Y-80304353D01*
X129471677Y-80294782D01*
X129428412Y-80251517D01*
X129418841Y-80191085D01*
X129434307Y-80151570D01*
X129439846Y-80143279D01*
X129448455Y-80100000D01*
X128749000Y-80100000D01*
X128690809Y-80081093D01*
X128654845Y-80031593D01*
X128650000Y-80001000D01*
X128650000Y-79999000D01*
X128668907Y-79940809D01*
X128718407Y-79904845D01*
X128749000Y-79900000D01*
X129448454Y-79900000D01*
X129448454Y-79899999D01*
X129439846Y-79856720D01*
X129405589Y-79805450D01*
X129388981Y-79746562D01*
X129405590Y-79695448D01*
X129440317Y-79643477D01*
X129450500Y-79592284D01*
X129450500Y-79472574D01*
X129469407Y-79414383D01*
X129518907Y-79378419D01*
X129534004Y-79374795D01*
X129617482Y-79361574D01*
X129630553Y-79354913D01*
X129690984Y-79345340D01*
X129745501Y-79373116D01*
G37*
%TD.AperFunction*%
%TD*%
%TA.AperFunction,Conductor*%
%TO.N,GND*%
G36*
X143500000Y-56300619D02*
G01*
X143500000Y-61000000D01*
X126500000Y-61000000D01*
X126500000Y-56300619D01*
X126502431Y-56300500D01*
X126547595Y-56300500D01*
X143452405Y-56300500D01*
X143497569Y-56300500D01*
X143500000Y-56300619D01*
G37*
%TD.AperFunction*%
%TD*%
M02*
