%TF.GenerationSoftware,KiCad,Pcbnew,7.0.8-7.0.8~ubuntu22.04.1*%
%TF.CreationDate,2023-11-12T23:56:43-08:00*%
%TF.ProjectId,driver-tmc2160,64726976-6572-42d7-946d-63323136302e,rev?*%
%TF.SameCoordinates,Original*%
%TF.FileFunction,Copper,L4,Bot*%
%TF.FilePolarity,Positive*%
%FSLAX46Y46*%
G04 Gerber Fmt 4.6, Leading zero omitted, Abs format (unit mm)*
G04 Created by KiCad (PCBNEW 7.0.8-7.0.8~ubuntu22.04.1) date 2023-11-12 23:56:43*
%MOMM*%
%LPD*%
G01*
G04 APERTURE LIST*
G04 Aperture macros list*
%AMRoundRect*
0 Rectangle with rounded corners*
0 $1 Rounding radius*
0 $2 $3 $4 $5 $6 $7 $8 $9 X,Y pos of 4 corners*
0 Add a 4 corners polygon primitive as box body*
4,1,4,$2,$3,$4,$5,$6,$7,$8,$9,$2,$3,0*
0 Add four circle primitives for the rounded corners*
1,1,$1+$1,$2,$3*
1,1,$1+$1,$4,$5*
1,1,$1+$1,$6,$7*
1,1,$1+$1,$8,$9*
0 Add four rect primitives between the rounded corners*
20,1,$1+$1,$2,$3,$4,$5,0*
20,1,$1+$1,$4,$5,$6,$7,0*
20,1,$1+$1,$6,$7,$8,$9,0*
20,1,$1+$1,$8,$9,$2,$3,0*%
%AMFreePoly0*
4,1,31,3.000000,0.000000,2.979715,-0.348279,2.919135,-0.691848,2.819078,-1.026060,2.680898,-1.346398,2.506463,-1.648527,2.298133,-1.928363,2.058725,-2.182121,1.791476,-2.406370,1.500000,-2.598076,1.188239,-2.754648,0.860410,-2.873969,0.520945,-2.954423,0.174434,-2.994924,-0.174434,-2.994924,-0.520945,-2.954423,-0.860410,-2.873969,-1.188239,-2.754648,-1.500000,-2.598076,-1.791476,-2.406370,
-2.058725,-2.182121,-2.298133,-1.928363,-2.506463,-1.648527,-2.680898,-1.346398,-2.819078,-1.026060,-2.919135,-0.691848,-2.979715,-0.348279,-3.000000,0.000000,-3.000000,3.000000,3.000000,3.000000,3.000000,0.000000,3.000000,0.000000,$1*%
G04 Aperture macros list end*
%TA.AperFunction,ComponentPad*%
%ADD10C,0.800000*%
%TD*%
%TA.AperFunction,ComponentPad*%
%ADD11FreePoly0,270.000000*%
%TD*%
%TA.AperFunction,ComponentPad*%
%ADD12FreePoly0,90.000000*%
%TD*%
%TA.AperFunction,ComponentPad*%
%ADD13C,0.500000*%
%TD*%
%TA.AperFunction,SMDPad,CuDef*%
%ADD14RoundRect,0.250000X-1.000000X0.250000X-1.000000X-0.250000X1.000000X-0.250000X1.000000X0.250000X0*%
%TD*%
%TA.AperFunction,SMDPad,CuDef*%
%ADD15RoundRect,0.250000X-0.250000X-1.000000X0.250000X-1.000000X0.250000X1.000000X-0.250000X1.000000X0*%
%TD*%
%TA.AperFunction,SMDPad,CuDef*%
%ADD16RoundRect,0.250000X1.000000X-0.250000X1.000000X0.250000X-1.000000X0.250000X-1.000000X-0.250000X0*%
%TD*%
%TA.AperFunction,ViaPad*%
%ADD17C,0.500000*%
%TD*%
%TA.AperFunction,ViaPad*%
%ADD18C,0.600000*%
%TD*%
%TA.AperFunction,Conductor*%
%ADD19C,0.100000*%
%TD*%
%TA.AperFunction,Conductor*%
%ADD20C,0.300000*%
%TD*%
%TA.AperFunction,Conductor*%
%ADD21C,0.250000*%
%TD*%
G04 APERTURE END LIST*
D10*
%TO.P,H2,1,1*%
%TO.N,GND*%
X147000000Y-62100000D03*
X148697056Y-62802944D03*
X145302944Y-62802944D03*
X149400000Y-64500000D03*
D11*
X147000000Y-64500000D03*
D10*
X144600000Y-64500000D03*
X148697056Y-66197056D03*
X145302944Y-66197056D03*
X147000000Y-66900000D03*
%TD*%
%TO.P,H1,1,1*%
%TO.N,+48V*%
X123000000Y-66900000D03*
X121302944Y-66197056D03*
X124697056Y-66197056D03*
X120600000Y-64500000D03*
D12*
X123000000Y-64500000D03*
D10*
X125400000Y-64500000D03*
X121302944Y-62802944D03*
X124697056Y-62802944D03*
X123000000Y-62100000D03*
%TD*%
D13*
%TO.P,U1,49,EP*%
%TO.N,GND*%
X130750000Y-78000000D03*
X130750000Y-79125000D03*
X130750000Y-80250000D03*
X130750000Y-81375000D03*
X131875000Y-78000000D03*
X131875000Y-79125000D03*
X131875000Y-80250000D03*
X131875000Y-81375000D03*
X133000000Y-78000000D03*
X133000000Y-79125000D03*
X133000000Y-80250000D03*
X133000000Y-81375000D03*
X134125000Y-78000000D03*
X134125000Y-79125000D03*
X134125000Y-80250000D03*
X134125000Y-81375000D03*
X135250000Y-78000000D03*
X135250000Y-79125000D03*
X135250000Y-80250000D03*
X135250000Y-81375000D03*
%TD*%
D14*
%TO.P,T17,1,1*%
%TO.N,/Diag0*%
X145250000Y-77500000D03*
%TD*%
D15*
%TO.P,T8,1,1*%
%TO.N,VCC*%
X137250000Y-84500000D03*
%TD*%
D16*
%TO.P,T10,1,1*%
%TO.N,/~{CS}*%
X142250000Y-76000000D03*
%TD*%
D15*
%TO.P,T7,1,1*%
%TO.N,/SDO*%
X135750000Y-84500000D03*
%TD*%
D16*
%TO.P,T14,1,1*%
%TO.N,/~{En}*%
X142250000Y-77500001D03*
%TD*%
D14*
%TO.P,T18,1,1*%
%TO.N,/Diag1*%
X145250000Y-76000000D03*
%TD*%
D15*
%TO.P,T6,1,1*%
%TO.N,/SDI*%
X132750000Y-84500000D03*
%TD*%
D16*
%TO.P,T13,1,1*%
%TO.N,/Dir*%
X142250000Y-79000000D03*
%TD*%
D15*
%TO.P,T3,1,1*%
%TO.N,+12V*%
X129750000Y-84500000D03*
%TD*%
%TO.P,T2,1,1*%
%TO.N,/Clk*%
X128250000Y-84500000D03*
%TD*%
D16*
%TO.P,T11,1,1*%
%TO.N,/Step*%
X142250000Y-82000000D03*
%TD*%
D15*
%TO.P,T4,1,1*%
%TO.N,/SCK*%
X131250000Y-84500000D03*
%TD*%
%TO.P,T5,1,1*%
%TO.N,GND*%
X134250000Y-84500000D03*
%TD*%
D16*
%TO.P,T12,1,1*%
%TO.N,GND*%
X142250000Y-80500000D03*
%TD*%
D17*
%TO.N,GND*%
X143200000Y-80500000D03*
%TO.N,/Diag0*%
X143750000Y-76750000D03*
%TO.N,/Dir*%
X143200000Y-79000000D03*
%TO.N,/Step*%
X143200000Y-82000000D03*
%TO.N,/Diag1*%
X143750000Y-78250000D03*
%TO.N,VCC*%
X139850000Y-83000000D03*
%TO.N,/Clk*%
X127800000Y-82750000D03*
%TO.N,/SRBL*%
X127000000Y-77450000D03*
%TO.N,GND*%
X138150000Y-84550000D03*
%TO.N,/~{En}*%
X140700000Y-78300000D03*
%TO.N,/~{CS}*%
X129950000Y-82700000D03*
D18*
%TO.N,GND*%
X149300000Y-72500000D03*
D17*
X139800000Y-79000000D03*
X129500000Y-79975000D03*
D18*
X149300000Y-68300000D03*
X120700000Y-72500000D03*
X120700000Y-68300000D03*
X120700000Y-69500000D03*
X120700000Y-70700000D03*
X149300000Y-73700000D03*
X149300000Y-70700000D03*
X149300000Y-69500000D03*
X120700000Y-68900000D03*
X120700000Y-70100000D03*
X120700000Y-73700000D03*
X149300000Y-68900000D03*
D17*
X129725000Y-81250000D03*
D18*
X149300000Y-74900000D03*
D17*
X139025000Y-80650000D03*
D18*
X149300000Y-71300000D03*
X120700000Y-71300000D03*
X120700000Y-71900000D03*
X149300000Y-70100000D03*
X149300000Y-71900000D03*
X149300000Y-74300000D03*
X120700000Y-74900000D03*
X120700000Y-73100000D03*
X149300000Y-73100000D03*
X120700000Y-74300000D03*
D17*
%TO.N,+12V*%
X129500000Y-79000000D03*
D18*
%TO.N,+48V*%
X140100000Y-73300000D03*
X133900000Y-72700000D03*
X129300000Y-73900000D03*
X137900000Y-73300000D03*
X129300000Y-72700000D03*
X137900000Y-73900000D03*
X132100000Y-73900000D03*
X128700000Y-73300000D03*
X128100000Y-73300000D03*
X128700000Y-72700000D03*
X137900000Y-72700000D03*
X137300000Y-73300000D03*
X136700000Y-72700000D03*
X141300000Y-73300000D03*
X129300000Y-73300000D03*
X136100000Y-72700000D03*
X133300000Y-73300000D03*
X129900000Y-73900000D03*
X129900000Y-72700000D03*
X128700000Y-73900000D03*
X137300000Y-72700000D03*
X141300000Y-72700000D03*
X133300000Y-73900000D03*
X141900000Y-72700000D03*
X136100000Y-73300000D03*
X132700000Y-73900000D03*
X132700000Y-72700000D03*
X140700000Y-73900000D03*
X129900000Y-73300000D03*
X136100000Y-73900000D03*
X133900000Y-73900000D03*
X128100000Y-73900000D03*
X140100000Y-72700000D03*
X137300000Y-73900000D03*
X140100000Y-73900000D03*
X132700000Y-73300000D03*
X132100000Y-73300000D03*
X141900000Y-73300000D03*
X133300000Y-72700000D03*
X132100000Y-72700000D03*
X136700000Y-73900000D03*
X140700000Y-73300000D03*
X140700000Y-72700000D03*
X141900000Y-73900000D03*
X141300000Y-73900000D03*
X136700000Y-73300000D03*
X128100000Y-72700000D03*
X133900000Y-73300000D03*
D17*
%TO.N,/SCK*%
X130750000Y-83825000D03*
%TO.N,/SDI*%
X132500000Y-83125000D03*
%TO.N,/SDO*%
X135850000Y-82675000D03*
%TO.N,VCC*%
X136850000Y-84550000D03*
D18*
%TO.N,Net-(Q2-S-Pad1)*%
X127600500Y-68600000D03*
X127600000Y-69200000D03*
X131600500Y-68600000D03*
X131600000Y-69800000D03*
X127600000Y-68000000D03*
X131600000Y-68000000D03*
X131600000Y-69200000D03*
X127600000Y-69800000D03*
D17*
%TO.N,/LB1*%
X129650000Y-75150000D03*
X126950000Y-75150000D03*
D18*
%TO.N,Net-(Q6-S-Pad1)*%
X135600500Y-68600000D03*
X139600000Y-68000000D03*
X143200000Y-68600000D03*
X139600000Y-69800000D03*
X143200000Y-69800000D03*
X135600000Y-69200000D03*
X135600000Y-68000000D03*
X139600500Y-68600000D03*
X143200000Y-69200000D03*
X143200000Y-70400000D03*
X139600000Y-69200000D03*
X135600000Y-69800000D03*
D17*
%TO.N,/LA1*%
X135400000Y-74800000D03*
X134650000Y-73900000D03*
%TO.N,/SRBL*%
X128075000Y-82000000D03*
%TO.N,/SRAH*%
X136250000Y-78100000D03*
X139200000Y-76600000D03*
%TO.N,/SRAL*%
X136250000Y-77400000D03*
X139200000Y-77300000D03*
%TD*%
D19*
%TO.N,/Diag1*%
X143750000Y-78250000D02*
X146315688Y-78250000D01*
X146315688Y-78250000D02*
X146650000Y-77915688D01*
X146650000Y-77915688D02*
X146650000Y-76650000D01*
X146650000Y-76650000D02*
X146000000Y-76000000D01*
%TO.N,/Diag0*%
X143750000Y-76750000D02*
X144150000Y-77150000D01*
%TO.N,/~{En}*%
X140700000Y-78300000D02*
X141150000Y-77850000D01*
%TO.N,VCC*%
X139850000Y-83000000D02*
X138000000Y-83000000D01*
X138000000Y-83000000D02*
X137400000Y-83600000D01*
%TO.N,/~{CS}*%
X129950000Y-82700000D02*
X130325000Y-82325000D01*
X130325000Y-82325000D02*
X130325000Y-81198959D01*
X130573959Y-80950000D02*
X136600000Y-80950000D01*
X130325000Y-81198959D02*
X130573959Y-80950000D01*
X136600000Y-80950000D02*
X141200000Y-76350000D01*
%TO.N,/Clk*%
X127800000Y-82750000D02*
X127800000Y-83300000D01*
X127800000Y-83300000D02*
X127900000Y-83400000D01*
D20*
%TO.N,/SDO*%
X135850000Y-84400000D02*
X135750000Y-84500000D01*
X135850000Y-82675000D02*
X135850000Y-84400000D01*
D21*
%TO.N,+12V*%
X129500000Y-79000000D02*
X129000000Y-79500000D01*
X129000000Y-79500000D02*
X129000000Y-83000000D01*
X129000000Y-83000000D02*
X129500000Y-83500000D01*
%TD*%
%TA.AperFunction,Conductor*%
%TO.N,GND*%
G36*
X120776812Y-68013487D02*
G01*
X120806262Y-68023055D01*
X120861590Y-68051247D01*
X120886634Y-68069442D01*
X120930550Y-68113357D01*
X120948754Y-68138413D01*
X120976941Y-68193733D01*
X120986512Y-68223191D01*
X120996224Y-68284512D01*
X120996224Y-68315486D01*
X120986512Y-68376807D01*
X120976941Y-68406264D01*
X120931316Y-68495809D01*
X120931316Y-68495810D01*
X120923481Y-68514726D01*
X120923480Y-68514727D01*
X120913908Y-68544183D01*
X120913908Y-68544187D01*
X120909128Y-68604928D01*
X120918700Y-68665365D01*
X120931314Y-68704186D01*
X120931317Y-68704192D01*
X120976939Y-68793729D01*
X120986511Y-68823188D01*
X120996224Y-68884512D01*
X120996224Y-68915486D01*
X120986512Y-68976807D01*
X120976941Y-69006264D01*
X120931316Y-69095809D01*
X120931316Y-69095810D01*
X120923481Y-69114726D01*
X120923480Y-69114727D01*
X120913908Y-69144183D01*
X120913908Y-69144187D01*
X120909128Y-69204928D01*
X120918700Y-69265365D01*
X120931314Y-69304186D01*
X120931317Y-69304192D01*
X120976939Y-69393729D01*
X120986511Y-69423188D01*
X120996224Y-69484512D01*
X120996224Y-69515486D01*
X120986512Y-69576807D01*
X120976941Y-69606264D01*
X120931316Y-69695809D01*
X120931316Y-69695810D01*
X120923481Y-69714726D01*
X120923480Y-69714727D01*
X120913908Y-69744183D01*
X120913907Y-69744187D01*
X120910025Y-69793524D01*
X120909904Y-69795073D01*
X120909459Y-69800723D01*
X120909128Y-69804930D01*
X120912508Y-69826267D01*
X120918698Y-69865356D01*
X120931317Y-69904192D01*
X120976939Y-69993729D01*
X120986511Y-70023188D01*
X120996224Y-70084512D01*
X120996224Y-70115486D01*
X120986512Y-70176807D01*
X120976941Y-70206264D01*
X120931316Y-70295809D01*
X120931316Y-70295810D01*
X120923481Y-70314726D01*
X120923480Y-70314727D01*
X120913908Y-70344183D01*
X120913908Y-70344187D01*
X120909128Y-70404928D01*
X120918700Y-70465365D01*
X120931314Y-70504186D01*
X120931317Y-70504192D01*
X120976939Y-70593729D01*
X120986511Y-70623188D01*
X120996224Y-70684512D01*
X120996224Y-70715486D01*
X120986512Y-70776807D01*
X120976941Y-70806264D01*
X120931316Y-70895809D01*
X120931316Y-70895810D01*
X120923481Y-70914726D01*
X120923480Y-70914727D01*
X120913908Y-70944183D01*
X120913908Y-70944187D01*
X120909128Y-71004928D01*
X120918700Y-71065365D01*
X120931314Y-71104186D01*
X120931317Y-71104192D01*
X120976939Y-71193729D01*
X120986511Y-71223188D01*
X120996224Y-71284512D01*
X120996224Y-71315486D01*
X120986512Y-71376807D01*
X120976941Y-71406264D01*
X120931316Y-71495809D01*
X120931316Y-71495810D01*
X120923481Y-71514726D01*
X120923480Y-71514727D01*
X120913908Y-71544183D01*
X120913908Y-71544187D01*
X120909128Y-71604928D01*
X120918700Y-71665365D01*
X120931314Y-71704186D01*
X120931317Y-71704192D01*
X120976939Y-71793729D01*
X120986511Y-71823188D01*
X120996224Y-71884512D01*
X120996224Y-71915486D01*
X120986512Y-71976807D01*
X120976941Y-72006264D01*
X120931316Y-72095809D01*
X120931316Y-72095810D01*
X120923481Y-72114726D01*
X120923480Y-72114727D01*
X120913908Y-72144183D01*
X120913908Y-72144187D01*
X120909128Y-72204928D01*
X120918700Y-72265365D01*
X120931314Y-72304186D01*
X120931317Y-72304192D01*
X120976939Y-72393729D01*
X120986511Y-72423188D01*
X120996224Y-72484512D01*
X120996224Y-72515486D01*
X120986512Y-72576807D01*
X120976941Y-72606264D01*
X120931316Y-72695809D01*
X120931316Y-72695810D01*
X120923481Y-72714726D01*
X120923480Y-72714727D01*
X120913908Y-72744183D01*
X120913908Y-72744187D01*
X120909128Y-72804928D01*
X120918700Y-72865365D01*
X120931314Y-72904186D01*
X120931317Y-72904192D01*
X120976939Y-72993729D01*
X120986511Y-73023188D01*
X120996224Y-73084512D01*
X120996224Y-73115486D01*
X120986512Y-73176807D01*
X120976941Y-73206264D01*
X120931316Y-73295809D01*
X120931316Y-73295810D01*
X120923481Y-73314726D01*
X120923480Y-73314727D01*
X120913908Y-73344183D01*
X120913908Y-73344187D01*
X120909128Y-73404928D01*
X120918700Y-73465365D01*
X120931314Y-73504186D01*
X120931317Y-73504192D01*
X120976939Y-73593729D01*
X120986511Y-73623188D01*
X120996224Y-73684512D01*
X120996224Y-73715487D01*
X120986511Y-73776810D01*
X120976941Y-73806265D01*
X120959369Y-73840754D01*
X120931316Y-73895808D01*
X120930560Y-73897634D01*
X120929581Y-73899998D01*
X120924961Y-73911152D01*
X120923482Y-73914724D01*
X120923481Y-73914725D01*
X120923481Y-73914724D01*
X120913908Y-73944183D01*
X120913908Y-73944187D01*
X120909128Y-74004928D01*
X120918700Y-74065365D01*
X120931314Y-74104186D01*
X120931317Y-74104192D01*
X120976939Y-74193729D01*
X120986511Y-74223188D01*
X120996224Y-74284512D01*
X120996224Y-74315486D01*
X120986512Y-74376807D01*
X120976941Y-74406264D01*
X120931316Y-74495809D01*
X120931316Y-74495810D01*
X120923481Y-74514726D01*
X120923480Y-74514727D01*
X120913908Y-74544183D01*
X120913908Y-74544187D01*
X120909128Y-74604928D01*
X120918700Y-74665365D01*
X120931314Y-74704186D01*
X120931317Y-74704192D01*
X120976939Y-74793729D01*
X120986511Y-74823188D01*
X121001422Y-74917333D01*
X121001851Y-74920850D01*
X121001871Y-74921082D01*
X121001909Y-74921404D01*
X121001910Y-74921413D01*
X121004644Y-74938679D01*
X121006754Y-74952002D01*
X121006756Y-74952010D01*
X121026434Y-74999516D01*
X121030072Y-75008299D01*
X121066036Y-75057799D01*
X121070588Y-75063702D01*
X121131287Y-75105206D01*
X121189478Y-75124113D01*
X121205608Y-75126667D01*
X121229801Y-75130500D01*
X126482177Y-75130500D01*
X126540368Y-75149407D01*
X126576332Y-75198907D01*
X126579958Y-75214014D01*
X126588425Y-75267480D01*
X126588428Y-75267488D01*
X126642425Y-75373462D01*
X126642427Y-75373465D01*
X126726535Y-75457573D01*
X126726537Y-75457574D01*
X126832511Y-75511571D01*
X126832513Y-75511571D01*
X126832518Y-75511574D01*
X126950000Y-75530181D01*
X127067482Y-75511574D01*
X127173465Y-75457573D01*
X127257573Y-75373465D01*
X127311574Y-75267482D01*
X127320042Y-75214012D01*
X127347819Y-75159497D01*
X127402335Y-75131719D01*
X127417823Y-75130500D01*
X129182177Y-75130500D01*
X129240368Y-75149407D01*
X129276332Y-75198907D01*
X129279958Y-75214014D01*
X129288425Y-75267480D01*
X129288428Y-75267488D01*
X129342425Y-75373462D01*
X129342427Y-75373465D01*
X129426535Y-75457573D01*
X129426537Y-75457574D01*
X129532511Y-75511571D01*
X129532513Y-75511571D01*
X129532518Y-75511574D01*
X129650000Y-75530181D01*
X129767482Y-75511574D01*
X129873465Y-75457573D01*
X129957573Y-75373465D01*
X130011574Y-75267482D01*
X130020042Y-75214012D01*
X130047819Y-75159497D01*
X130102335Y-75131719D01*
X130117823Y-75130500D01*
X134935582Y-75130500D01*
X134966046Y-75126894D01*
X135010991Y-75116104D01*
X135057189Y-75090231D01*
X135117198Y-75078294D01*
X135172763Y-75103909D01*
X135175541Y-75106579D01*
X135176535Y-75107573D01*
X135176537Y-75107574D01*
X135282511Y-75161571D01*
X135282513Y-75161571D01*
X135282518Y-75161574D01*
X135400000Y-75180181D01*
X135517482Y-75161574D01*
X135623465Y-75107573D01*
X135624628Y-75106410D01*
X135626095Y-75105661D01*
X135629774Y-75102990D01*
X135630196Y-75103572D01*
X135679143Y-75078628D01*
X135739575Y-75088195D01*
X135750511Y-75094683D01*
X135765901Y-75105206D01*
X135824092Y-75124113D01*
X135840222Y-75126667D01*
X135864415Y-75130500D01*
X135864418Y-75130500D01*
X148770192Y-75130500D01*
X148770196Y-75130500D01*
X148783804Y-75129429D01*
X148790611Y-75128894D01*
X148790608Y-75128895D01*
X148810161Y-75125797D01*
X148821202Y-75124049D01*
X148877495Y-75100732D01*
X148905734Y-75080214D01*
X148926993Y-75064770D01*
X148929192Y-75063073D01*
X148932899Y-75060215D01*
X148974403Y-74999515D01*
X148990784Y-74949092D01*
X148994316Y-74944232D01*
X148994954Y-74940204D01*
X148998582Y-74925095D01*
X148998851Y-74924266D01*
X148998165Y-74919935D01*
X149013487Y-74823191D01*
X149023059Y-74793731D01*
X149068682Y-74704194D01*
X149068682Y-74704192D01*
X149068683Y-74704191D01*
X149076520Y-74685270D01*
X149086091Y-74655812D01*
X149090871Y-74595073D01*
X149082812Y-74544187D01*
X149081301Y-74534643D01*
X149068682Y-74495807D01*
X149067411Y-74493314D01*
X149023057Y-74406264D01*
X149013487Y-74376810D01*
X149013487Y-74376807D01*
X149003774Y-74315481D01*
X149003774Y-74284518D01*
X149013487Y-74223187D01*
X149023059Y-74193731D01*
X149068682Y-74104194D01*
X149068682Y-74104192D01*
X149068683Y-74104191D01*
X149076520Y-74085270D01*
X149086091Y-74055812D01*
X149090871Y-73995073D01*
X149082812Y-73944187D01*
X149081301Y-73934643D01*
X149074829Y-73914724D01*
X149068684Y-73895810D01*
X149023057Y-73806261D01*
X149013487Y-73776805D01*
X149003775Y-73715483D01*
X149003775Y-73684510D01*
X149013487Y-73623190D01*
X149023059Y-73593731D01*
X149068682Y-73504194D01*
X149068682Y-73504192D01*
X149068683Y-73504191D01*
X149076520Y-73485270D01*
X149086091Y-73455812D01*
X149090871Y-73395073D01*
X149082812Y-73344187D01*
X149081301Y-73334643D01*
X149074830Y-73314726D01*
X149068684Y-73295810D01*
X149023057Y-73206261D01*
X149013487Y-73176805D01*
X149003775Y-73115483D01*
X149003775Y-73084510D01*
X149013487Y-73023190D01*
X149023059Y-72993731D01*
X149068682Y-72904194D01*
X149068682Y-72904192D01*
X149068683Y-72904191D01*
X149076520Y-72885270D01*
X149086091Y-72855812D01*
X149090871Y-72795073D01*
X149082812Y-72744187D01*
X149081301Y-72734643D01*
X149074830Y-72714726D01*
X149068684Y-72695810D01*
X149023057Y-72606261D01*
X149013487Y-72576805D01*
X149003775Y-72515483D01*
X149003775Y-72484510D01*
X149013487Y-72423190D01*
X149023059Y-72393731D01*
X149068682Y-72304194D01*
X149068682Y-72304192D01*
X149068683Y-72304191D01*
X149076520Y-72285270D01*
X149086091Y-72255812D01*
X149090871Y-72195073D01*
X149082812Y-72144187D01*
X149081301Y-72134643D01*
X149074830Y-72114726D01*
X149068684Y-72095810D01*
X149023057Y-72006261D01*
X149013487Y-71976805D01*
X149003775Y-71915483D01*
X149003775Y-71884510D01*
X149013487Y-71823190D01*
X149023059Y-71793731D01*
X149068682Y-71704194D01*
X149068682Y-71704192D01*
X149068683Y-71704191D01*
X149076520Y-71685270D01*
X149086091Y-71655812D01*
X149090871Y-71595073D01*
X149082812Y-71544187D01*
X149081301Y-71534643D01*
X149074830Y-71514726D01*
X149068684Y-71495810D01*
X149023057Y-71406261D01*
X149013487Y-71376805D01*
X149003775Y-71315483D01*
X149003775Y-71284510D01*
X149013487Y-71223190D01*
X149023059Y-71193731D01*
X149068682Y-71104194D01*
X149068682Y-71104192D01*
X149068683Y-71104191D01*
X149076520Y-71085270D01*
X149086091Y-71055812D01*
X149090871Y-70995073D01*
X149082812Y-70944187D01*
X149081301Y-70934643D01*
X149074830Y-70914726D01*
X149068684Y-70895810D01*
X149023057Y-70806261D01*
X149013487Y-70776805D01*
X149003775Y-70715483D01*
X149003775Y-70684510D01*
X149013487Y-70623190D01*
X149023059Y-70593731D01*
X149068682Y-70504194D01*
X149068682Y-70504192D01*
X149068683Y-70504191D01*
X149076520Y-70485270D01*
X149086091Y-70455812D01*
X149090871Y-70395073D01*
X149082812Y-70344187D01*
X149081301Y-70334643D01*
X149068682Y-70295807D01*
X149067411Y-70293314D01*
X149023057Y-70206264D01*
X149013487Y-70176810D01*
X149013487Y-70176807D01*
X149003774Y-70115481D01*
X149003774Y-70084518D01*
X149013487Y-70023187D01*
X149023059Y-69993731D01*
X149068682Y-69904194D01*
X149068682Y-69904192D01*
X149068683Y-69904191D01*
X149076520Y-69885270D01*
X149086091Y-69855812D01*
X149090871Y-69795073D01*
X149082812Y-69744187D01*
X149081301Y-69734643D01*
X149074830Y-69714726D01*
X149068684Y-69695810D01*
X149023057Y-69606261D01*
X149013487Y-69576805D01*
X149003775Y-69515483D01*
X149003775Y-69484510D01*
X149013487Y-69423190D01*
X149023059Y-69393731D01*
X149068682Y-69304194D01*
X149068682Y-69304192D01*
X149068683Y-69304191D01*
X149076520Y-69285270D01*
X149086091Y-69255812D01*
X149090871Y-69195073D01*
X149082812Y-69144187D01*
X149081301Y-69134643D01*
X149074830Y-69114726D01*
X149068684Y-69095810D01*
X149023057Y-69006261D01*
X149013487Y-68976805D01*
X149003775Y-68915483D01*
X149003775Y-68884510D01*
X149013487Y-68823190D01*
X149023059Y-68793731D01*
X149068682Y-68704194D01*
X149068682Y-68704192D01*
X149068683Y-68704191D01*
X149076520Y-68685270D01*
X149086091Y-68655812D01*
X149090871Y-68595073D01*
X149082812Y-68544187D01*
X149081301Y-68534643D01*
X149068682Y-68495807D01*
X149067411Y-68493314D01*
X149023057Y-68406264D01*
X149013487Y-68376810D01*
X149013487Y-68376807D01*
X149003774Y-68315480D01*
X149003774Y-68284517D01*
X149013487Y-68223182D01*
X149023055Y-68193737D01*
X149051247Y-68138407D01*
X149069444Y-68113360D01*
X149113360Y-68069444D01*
X149138407Y-68051247D01*
X149193735Y-68023056D01*
X149223179Y-68013489D01*
X149284519Y-68003774D01*
X149315482Y-68003774D01*
X149376809Y-68013487D01*
X149406267Y-68023059D01*
X149490824Y-68066144D01*
X149498592Y-68070102D01*
X149503246Y-68072247D01*
X149519965Y-68079173D01*
X149569907Y-68089107D01*
X149569908Y-68089107D01*
X149600500Y-68089107D01*
X149658691Y-68108014D01*
X149694655Y-68157514D01*
X149699500Y-68188107D01*
X149699500Y-81997571D01*
X149699262Y-82002417D01*
X149687059Y-82126539D01*
X149683286Y-82145541D01*
X149649260Y-82257920D01*
X149641859Y-82275823D01*
X149589282Y-82374394D01*
X149579197Y-82389696D01*
X149533712Y-82446476D01*
X149533709Y-82446481D01*
X149424691Y-82619215D01*
X149424685Y-82619225D01*
X149335776Y-82803092D01*
X149268083Y-82995807D01*
X149268079Y-82995820D01*
X149222471Y-83194903D01*
X149222470Y-83194910D01*
X149199521Y-83397866D01*
X149199512Y-83435057D01*
X149199500Y-83435205D01*
X149199500Y-84497569D01*
X149199261Y-84502424D01*
X149187014Y-84626762D01*
X149183228Y-84645796D01*
X149149084Y-84758354D01*
X149141657Y-84776285D01*
X149086208Y-84880022D01*
X149075426Y-84896158D01*
X149000806Y-84987083D01*
X148987083Y-85000806D01*
X148896159Y-85075426D01*
X148880023Y-85086208D01*
X148776286Y-85141657D01*
X148758355Y-85149084D01*
X148645796Y-85183228D01*
X148626763Y-85187014D01*
X148502426Y-85199261D01*
X148497571Y-85199500D01*
X137949500Y-85199500D01*
X137891309Y-85180593D01*
X137855345Y-85131093D01*
X137850500Y-85100500D01*
X137850500Y-83466743D01*
X137850017Y-83463426D01*
X137844384Y-83424765D01*
X137854704Y-83364459D01*
X137872343Y-83340494D01*
X138033343Y-83179496D01*
X138087860Y-83151719D01*
X138103346Y-83150500D01*
X139444582Y-83150500D01*
X139502773Y-83169407D01*
X139532792Y-83204556D01*
X139542424Y-83223461D01*
X139542425Y-83223462D01*
X139542427Y-83223465D01*
X139626535Y-83307573D01*
X139626537Y-83307574D01*
X139732511Y-83361571D01*
X139732513Y-83361571D01*
X139732518Y-83361574D01*
X139850000Y-83380181D01*
X139967482Y-83361574D01*
X140073465Y-83307573D01*
X140157573Y-83223465D01*
X140211574Y-83117482D01*
X140230181Y-83000000D01*
X140211574Y-82882518D01*
X140211571Y-82882513D01*
X140211571Y-82882511D01*
X140157574Y-82776537D01*
X140157573Y-82776535D01*
X140073465Y-82692427D01*
X140073462Y-82692425D01*
X139967488Y-82638428D01*
X139967483Y-82638426D01*
X139967482Y-82638426D01*
X139850000Y-82619819D01*
X139732518Y-82638426D01*
X139732511Y-82638428D01*
X139626537Y-82692425D01*
X139542424Y-82776538D01*
X139532792Y-82795444D01*
X139489528Y-82838709D01*
X139444582Y-82849500D01*
X137959673Y-82849500D01*
X137953193Y-82853241D01*
X137929324Y-82863128D01*
X137922097Y-82865064D01*
X137922094Y-82865066D01*
X137865065Y-82922095D01*
X137865061Y-82922097D01*
X137659505Y-83127653D01*
X137604989Y-83155430D01*
X137575229Y-83155614D01*
X137533260Y-83149500D01*
X136966740Y-83149500D01*
X136932673Y-83154463D01*
X136898604Y-83159427D01*
X136793518Y-83210801D01*
X136710801Y-83293518D01*
X136659427Y-83398604D01*
X136658767Y-83403134D01*
X136650396Y-83460594D01*
X136649500Y-83466743D01*
X136649500Y-84178454D01*
X136630593Y-84236645D01*
X136620504Y-84248457D01*
X136542428Y-84326533D01*
X136542427Y-84326535D01*
X136537709Y-84335795D01*
X136494444Y-84379059D01*
X136434012Y-84388630D01*
X136379496Y-84360852D01*
X136351719Y-84306335D01*
X136350500Y-84290849D01*
X136350500Y-83466743D01*
X136350017Y-83463426D01*
X136340573Y-83398607D01*
X136340210Y-83397865D01*
X136315483Y-83347285D01*
X136289198Y-83293517D01*
X136206483Y-83210802D01*
X136156018Y-83186131D01*
X136112045Y-83143588D01*
X136100500Y-83097191D01*
X136100500Y-82996545D01*
X136119407Y-82938354D01*
X136129490Y-82926547D01*
X136157573Y-82898465D01*
X136211574Y-82792482D01*
X136230181Y-82675000D01*
X136211574Y-82557518D01*
X136211571Y-82557513D01*
X136211571Y-82557511D01*
X136157574Y-82451537D01*
X136157573Y-82451535D01*
X136073465Y-82367427D01*
X136073462Y-82367425D01*
X135967488Y-82313428D01*
X135967483Y-82313426D01*
X135967482Y-82313426D01*
X135850000Y-82294819D01*
X135732518Y-82313426D01*
X135732511Y-82313428D01*
X135626537Y-82367425D01*
X135542425Y-82451537D01*
X135488428Y-82557511D01*
X135488426Y-82557518D01*
X135469819Y-82675000D01*
X135483973Y-82764369D01*
X135488426Y-82792481D01*
X135488428Y-82792488D01*
X135542425Y-82898462D01*
X135542427Y-82898465D01*
X135570505Y-82926543D01*
X135598281Y-82981058D01*
X135599500Y-82996545D01*
X135599500Y-83050500D01*
X135580593Y-83108691D01*
X135531093Y-83144655D01*
X135500500Y-83149500D01*
X135466740Y-83149500D01*
X135432673Y-83154463D01*
X135398604Y-83159427D01*
X135293518Y-83210801D01*
X135210801Y-83293518D01*
X135159427Y-83398604D01*
X135158767Y-83403134D01*
X135150396Y-83460594D01*
X135149500Y-83466743D01*
X135149500Y-85100500D01*
X135130593Y-85158691D01*
X135081093Y-85194655D01*
X135050500Y-85199500D01*
X135000000Y-85199500D01*
X135000000Y-83000000D01*
X133500000Y-83000000D01*
X133500000Y-85199500D01*
X133449500Y-85199500D01*
X133391309Y-85180593D01*
X133355345Y-85131093D01*
X133350500Y-85100500D01*
X133350500Y-83466743D01*
X133350017Y-83463426D01*
X133340573Y-83398607D01*
X133340210Y-83397865D01*
X133315483Y-83347285D01*
X133289198Y-83293517D01*
X133206483Y-83210802D01*
X133193707Y-83204556D01*
X133101395Y-83159427D01*
X133073878Y-83155418D01*
X133033260Y-83149500D01*
X133033257Y-83149500D01*
X132968615Y-83149500D01*
X132910424Y-83130593D01*
X132874460Y-83081093D01*
X132870834Y-83065987D01*
X132861574Y-83007518D01*
X132861571Y-83007513D01*
X132861571Y-83007511D01*
X132807574Y-82901537D01*
X132807573Y-82901535D01*
X132723465Y-82817427D01*
X132723462Y-82817425D01*
X132617488Y-82763428D01*
X132617483Y-82763426D01*
X132617482Y-82763426D01*
X132500000Y-82744819D01*
X132382518Y-82763426D01*
X132382511Y-82763428D01*
X132276537Y-82817425D01*
X132192425Y-82901537D01*
X132138428Y-83007511D01*
X132138426Y-83007518D01*
X132119819Y-83124999D01*
X132119819Y-83125000D01*
X132138426Y-83242482D01*
X132165661Y-83295935D01*
X132175232Y-83356367D01*
X132166393Y-83384358D01*
X132159790Y-83397865D01*
X132159427Y-83398607D01*
X132150396Y-83460594D01*
X132149500Y-83466743D01*
X132149500Y-85100500D01*
X132130593Y-85158691D01*
X132081093Y-85194655D01*
X132050500Y-85199500D01*
X131949500Y-85199500D01*
X131891309Y-85180593D01*
X131855345Y-85131093D01*
X131850500Y-85100500D01*
X131850500Y-83466743D01*
X131850017Y-83463426D01*
X131840573Y-83398607D01*
X131840210Y-83397865D01*
X131815483Y-83347285D01*
X131789198Y-83293517D01*
X131706483Y-83210802D01*
X131693707Y-83204556D01*
X131601395Y-83159427D01*
X131573878Y-83155418D01*
X131533260Y-83149500D01*
X130966740Y-83149500D01*
X130932673Y-83154463D01*
X130898604Y-83159427D01*
X130793518Y-83210801D01*
X130710801Y-83293518D01*
X130659426Y-83398609D01*
X130658767Y-83403134D01*
X130631665Y-83457989D01*
X130605748Y-83477065D01*
X130526535Y-83517426D01*
X130526531Y-83517429D01*
X130518850Y-83525111D01*
X130464332Y-83552887D01*
X130403901Y-83543313D01*
X130360638Y-83500047D01*
X130350883Y-83469377D01*
X130350500Y-83466748D01*
X130350500Y-83466740D01*
X130340573Y-83398607D01*
X130340210Y-83397865D01*
X130315483Y-83347285D01*
X130289198Y-83293517D01*
X130206483Y-83210802D01*
X130164259Y-83190160D01*
X130120285Y-83147616D01*
X130109715Y-83087351D01*
X130136588Y-83032382D01*
X130162792Y-83013011D01*
X130173465Y-83007573D01*
X130257573Y-82923465D01*
X130311574Y-82817482D01*
X130330181Y-82700000D01*
X130315191Y-82605357D01*
X130324762Y-82544927D01*
X130342965Y-82519872D01*
X130445430Y-82417409D01*
X130459935Y-82402904D01*
X130461869Y-82395683D01*
X130471761Y-82371800D01*
X130475500Y-82365327D01*
X130475501Y-82284674D01*
X130475500Y-82284672D01*
X130475500Y-82283260D01*
X140899500Y-82283260D01*
X140904827Y-82319819D01*
X140909427Y-82351395D01*
X140953930Y-82442427D01*
X140960802Y-82456483D01*
X141043517Y-82539198D01*
X141089779Y-82561814D01*
X141148604Y-82590572D01*
X141148605Y-82590572D01*
X141148607Y-82590573D01*
X141216740Y-82600500D01*
X141216743Y-82600500D01*
X143283257Y-82600500D01*
X143283260Y-82600500D01*
X143351393Y-82590573D01*
X143456483Y-82539198D01*
X143539198Y-82456483D01*
X143590573Y-82351393D01*
X143600500Y-82283260D01*
X143600500Y-81716740D01*
X143590573Y-81648607D01*
X143539198Y-81543517D01*
X143456483Y-81460802D01*
X143455483Y-81460313D01*
X143351395Y-81409427D01*
X143324139Y-81405456D01*
X143283260Y-81399500D01*
X141216740Y-81399500D01*
X141182673Y-81404463D01*
X141148604Y-81409427D01*
X141043518Y-81460801D01*
X140960801Y-81543518D01*
X140909427Y-81648604D01*
X140909427Y-81648607D01*
X140899500Y-81716740D01*
X140899500Y-82283260D01*
X130475500Y-82283260D01*
X130475500Y-81800000D01*
X135675000Y-81800000D01*
X135675000Y-81100500D01*
X136640326Y-81100500D01*
X136640327Y-81100500D01*
X136646800Y-81096761D01*
X136670683Y-81086869D01*
X136677904Y-81084935D01*
X136734935Y-81027905D01*
X136734935Y-81027904D01*
X136748854Y-81013986D01*
X136748858Y-81013980D01*
X138012838Y-79750000D01*
X140750000Y-79750000D01*
X140750000Y-81250000D01*
X143750000Y-81250000D01*
X143750000Y-79750000D01*
X140750000Y-79750000D01*
X138012838Y-79750000D01*
X140772259Y-76990578D01*
X140826774Y-76962803D01*
X140887206Y-76972374D01*
X140930471Y-77015639D01*
X140940042Y-77076071D01*
X140931202Y-77104063D01*
X140909428Y-77148603D01*
X140909427Y-77148607D01*
X140909427Y-77148608D01*
X140899500Y-77216741D01*
X140899500Y-77783261D01*
X140903625Y-77811571D01*
X140905187Y-77822294D01*
X140894866Y-77882603D01*
X140851068Y-77925328D01*
X140791734Y-77934348D01*
X140700001Y-77919819D01*
X140700000Y-77919819D01*
X140582518Y-77938426D01*
X140582511Y-77938428D01*
X140476537Y-77992425D01*
X140392425Y-78076537D01*
X140338428Y-78182511D01*
X140338426Y-78182518D01*
X140322193Y-78285014D01*
X140319819Y-78300000D01*
X140337445Y-78411291D01*
X140338426Y-78417481D01*
X140338428Y-78417488D01*
X140392425Y-78523462D01*
X140392427Y-78523465D01*
X140476535Y-78607573D01*
X140476537Y-78607574D01*
X140582511Y-78661571D01*
X140582513Y-78661571D01*
X140582518Y-78661574D01*
X140675414Y-78676287D01*
X140699999Y-78680181D01*
X140699999Y-78680180D01*
X140700000Y-78680181D01*
X140785014Y-78666716D01*
X140845445Y-78676287D01*
X140888709Y-78719552D01*
X140899500Y-78764497D01*
X140899500Y-79283260D01*
X140903043Y-79307574D01*
X140909427Y-79351395D01*
X140944208Y-79422539D01*
X140960802Y-79456483D01*
X141043517Y-79539198D01*
X141095087Y-79564409D01*
X141148604Y-79590572D01*
X141148605Y-79590572D01*
X141148607Y-79590573D01*
X141216740Y-79600500D01*
X141216743Y-79600500D01*
X143283257Y-79600500D01*
X143283260Y-79600500D01*
X143351393Y-79590573D01*
X143456483Y-79539198D01*
X143539198Y-79456483D01*
X143590573Y-79351393D01*
X143600500Y-79283260D01*
X143600500Y-78722416D01*
X143619407Y-78664225D01*
X143668907Y-78628261D01*
X143714984Y-78624635D01*
X143750000Y-78630181D01*
X143867482Y-78611574D01*
X143973465Y-78557573D01*
X144057573Y-78473465D01*
X144063632Y-78461574D01*
X144067208Y-78454556D01*
X144110472Y-78411291D01*
X144155418Y-78400500D01*
X146356014Y-78400500D01*
X146356015Y-78400500D01*
X146362488Y-78396761D01*
X146386371Y-78386869D01*
X146393592Y-78384935D01*
X146450623Y-78327905D01*
X146450623Y-78327904D01*
X146464544Y-78313984D01*
X146464550Y-78313976D01*
X146770430Y-78008098D01*
X146778529Y-77999998D01*
X146784935Y-77993592D01*
X146786869Y-77986371D01*
X146796761Y-77962488D01*
X146800500Y-77956015D01*
X146800501Y-77875361D01*
X146800500Y-77875359D01*
X146800500Y-76630186D01*
X146800500Y-76609673D01*
X146796762Y-76603199D01*
X146786869Y-76579314D01*
X146784935Y-76572096D01*
X146722262Y-76509422D01*
X146622346Y-76409507D01*
X146594569Y-76354990D01*
X146594385Y-76325228D01*
X146599164Y-76292427D01*
X146600500Y-76283260D01*
X146600500Y-75716740D01*
X146590573Y-75648607D01*
X146539198Y-75543517D01*
X146456483Y-75460802D01*
X146449878Y-75457573D01*
X146351395Y-75409427D01*
X146324139Y-75405456D01*
X146283260Y-75399500D01*
X144216740Y-75399500D01*
X144182673Y-75404463D01*
X144148604Y-75409427D01*
X144043518Y-75460801D01*
X143960801Y-75543518D01*
X143909427Y-75648604D01*
X143899500Y-75716743D01*
X143899500Y-76277583D01*
X143880593Y-76335774D01*
X143831093Y-76371738D01*
X143785014Y-76375364D01*
X143750002Y-76369819D01*
X143749998Y-76369819D01*
X143714986Y-76375364D01*
X143654554Y-76365792D01*
X143611290Y-76322527D01*
X143600500Y-76277583D01*
X143600500Y-75716743D01*
X143600500Y-75716740D01*
X143590573Y-75648607D01*
X143539198Y-75543517D01*
X143456483Y-75460802D01*
X143449878Y-75457573D01*
X143351395Y-75409427D01*
X143324139Y-75405456D01*
X143283260Y-75399500D01*
X141216740Y-75399500D01*
X141182673Y-75404463D01*
X141148604Y-75409427D01*
X141043518Y-75460801D01*
X140960801Y-75543518D01*
X140909427Y-75648604D01*
X140909427Y-75648607D01*
X140899500Y-75716740D01*
X140899500Y-76283260D01*
X140900836Y-76292427D01*
X140909428Y-76351400D01*
X140909829Y-76352697D01*
X140909809Y-76354016D01*
X140910536Y-76359001D01*
X140909735Y-76359117D01*
X140908936Y-76413876D01*
X140885242Y-76451917D01*
X136566657Y-80770504D01*
X136512140Y-80798281D01*
X136496653Y-80799500D01*
X135675000Y-80799500D01*
X135675000Y-78100000D01*
X135869819Y-78100000D01*
X135886966Y-78208266D01*
X135888426Y-78217481D01*
X135888428Y-78217488D01*
X135937592Y-78313976D01*
X135942427Y-78323465D01*
X136026535Y-78407573D01*
X136026537Y-78407574D01*
X136132511Y-78461571D01*
X136132513Y-78461571D01*
X136132518Y-78461574D01*
X136250000Y-78480181D01*
X136367482Y-78461574D01*
X136473465Y-78407573D01*
X136557573Y-78323465D01*
X136611574Y-78217482D01*
X136630181Y-78100000D01*
X136629359Y-78094813D01*
X136622914Y-78054119D01*
X136611574Y-77982518D01*
X136611571Y-77982513D01*
X136611571Y-77982511D01*
X136557574Y-77876537D01*
X136557573Y-77876535D01*
X136501039Y-77820001D01*
X136473264Y-77765487D01*
X136482835Y-77705055D01*
X136501038Y-77679999D01*
X136557573Y-77623465D01*
X136611574Y-77517482D01*
X136630181Y-77400000D01*
X136614343Y-77300000D01*
X138819819Y-77300000D01*
X138838426Y-77417481D01*
X138838428Y-77417488D01*
X138892425Y-77523462D01*
X138892427Y-77523465D01*
X138976535Y-77607573D01*
X138976537Y-77607574D01*
X139082511Y-77661571D01*
X139082513Y-77661571D01*
X139082518Y-77661574D01*
X139200000Y-77680181D01*
X139317482Y-77661574D01*
X139423465Y-77607573D01*
X139507573Y-77523465D01*
X139561574Y-77417482D01*
X139580181Y-77300000D01*
X139561574Y-77182518D01*
X139561571Y-77182513D01*
X139561571Y-77182511D01*
X139507574Y-77076537D01*
X139507573Y-77076535D01*
X139451039Y-77020001D01*
X139423264Y-76965487D01*
X139432835Y-76905055D01*
X139451038Y-76879999D01*
X139507573Y-76823465D01*
X139561574Y-76717482D01*
X139580181Y-76600000D01*
X139561574Y-76482518D01*
X139561571Y-76482513D01*
X139561571Y-76482511D01*
X139507574Y-76376537D01*
X139507573Y-76376535D01*
X139423465Y-76292427D01*
X139423462Y-76292425D01*
X139317488Y-76238428D01*
X139317483Y-76238426D01*
X139317482Y-76238426D01*
X139200000Y-76219819D01*
X139082518Y-76238426D01*
X139082511Y-76238428D01*
X138976537Y-76292425D01*
X138892425Y-76376537D01*
X138838428Y-76482511D01*
X138838426Y-76482518D01*
X138819819Y-76600000D01*
X138837611Y-76712339D01*
X138838426Y-76717481D01*
X138838428Y-76717488D01*
X138892310Y-76823236D01*
X138892427Y-76823465D01*
X138948960Y-76879998D01*
X138976736Y-76934513D01*
X138967165Y-76994945D01*
X138948961Y-77020000D01*
X138899143Y-77069819D01*
X138892425Y-77076537D01*
X138838428Y-77182511D01*
X138838426Y-77182518D01*
X138819819Y-77299999D01*
X138819819Y-77300000D01*
X136614343Y-77300000D01*
X136611574Y-77282518D01*
X136611571Y-77282513D01*
X136611571Y-77282511D01*
X136557574Y-77176537D01*
X136557573Y-77176535D01*
X136473465Y-77092427D01*
X136473462Y-77092425D01*
X136367488Y-77038428D01*
X136367483Y-77038426D01*
X136367482Y-77038426D01*
X136250000Y-77019819D01*
X136132518Y-77038426D01*
X136132511Y-77038428D01*
X136026537Y-77092425D01*
X135942425Y-77176537D01*
X135888428Y-77282511D01*
X135888426Y-77282518D01*
X135869819Y-77399999D01*
X135869819Y-77400000D01*
X135888426Y-77517481D01*
X135888428Y-77517488D01*
X135934330Y-77607574D01*
X135942427Y-77623465D01*
X135998960Y-77679998D01*
X136026736Y-77734513D01*
X136017165Y-77794945D01*
X135998961Y-77820000D01*
X135967569Y-77851393D01*
X135942425Y-77876537D01*
X135888428Y-77982511D01*
X135888426Y-77982518D01*
X135870641Y-78094813D01*
X135869819Y-78100000D01*
X135675000Y-78100000D01*
X135675000Y-77600000D01*
X130350000Y-77600000D01*
X130350000Y-80961119D01*
X130247095Y-81064025D01*
X130190066Y-81121052D01*
X130190063Y-81121057D01*
X130188127Y-81128283D01*
X130178241Y-81152151D01*
X130174499Y-81158631D01*
X130174499Y-81258973D01*
X130174500Y-81258978D01*
X130174500Y-82221653D01*
X130155593Y-82279844D01*
X130145505Y-82291654D01*
X130130128Y-82307031D01*
X130075613Y-82334808D01*
X130044639Y-82334808D01*
X129950001Y-82319819D01*
X129950000Y-82319819D01*
X129832518Y-82338426D01*
X129832511Y-82338428D01*
X129726537Y-82392425D01*
X129642425Y-82476537D01*
X129588428Y-82582511D01*
X129588426Y-82582518D01*
X129573779Y-82675000D01*
X129569819Y-82700000D01*
X129584467Y-82792488D01*
X129588426Y-82817481D01*
X129588428Y-82817488D01*
X129642425Y-82923462D01*
X129642427Y-82923465D01*
X129699460Y-82980498D01*
X129727236Y-83035013D01*
X129717665Y-83095445D01*
X129674400Y-83138710D01*
X129629455Y-83149500D01*
X129509413Y-83149500D01*
X129451222Y-83130593D01*
X129439409Y-83120504D01*
X129254496Y-82935591D01*
X129226719Y-82881074D01*
X129225500Y-82865587D01*
X129225500Y-79634412D01*
X129244407Y-79576221D01*
X129254490Y-79564414D01*
X129411435Y-79407469D01*
X129465950Y-79379693D01*
X129496925Y-79379693D01*
X129500000Y-79380181D01*
X129617482Y-79361574D01*
X129723465Y-79307573D01*
X129807573Y-79223465D01*
X129861574Y-79117482D01*
X129880181Y-79000000D01*
X129861574Y-78882518D01*
X129861571Y-78882513D01*
X129861571Y-78882511D01*
X129807574Y-78776537D01*
X129807573Y-78776535D01*
X129723465Y-78692427D01*
X129723462Y-78692425D01*
X129617488Y-78638428D01*
X129617483Y-78638426D01*
X129617482Y-78638426D01*
X129500000Y-78619819D01*
X129382518Y-78638426D01*
X129382511Y-78638428D01*
X129276537Y-78692425D01*
X129192425Y-78776537D01*
X129138428Y-78882511D01*
X129138426Y-78882518D01*
X129119819Y-78999999D01*
X129119819Y-79000004D01*
X129120306Y-79003081D01*
X129119819Y-79006154D01*
X129119819Y-79007791D01*
X129119560Y-79007791D01*
X129110730Y-79063512D01*
X129092528Y-79088565D01*
X128845632Y-79335460D01*
X128843753Y-79337244D01*
X128813492Y-79364491D01*
X128813491Y-79364493D01*
X128804382Y-79384951D01*
X128796972Y-79398598D01*
X128784774Y-79417381D01*
X128783957Y-79422539D01*
X128776623Y-79447299D01*
X128774500Y-79452067D01*
X128774500Y-79474460D01*
X128773281Y-79489947D01*
X128769777Y-79512065D01*
X128771125Y-79517092D01*
X128774500Y-79542720D01*
X128774500Y-82992793D01*
X128774432Y-82995378D01*
X128774409Y-82995820D01*
X128772299Y-83036064D01*
X128779886Y-83055828D01*
X128783087Y-83116930D01*
X128749762Y-83168243D01*
X128692641Y-83190169D01*
X128643981Y-83180246D01*
X128601395Y-83159427D01*
X128573878Y-83155418D01*
X128533260Y-83149500D01*
X128170545Y-83149500D01*
X128112354Y-83130593D01*
X128076390Y-83081093D01*
X128076390Y-83019907D01*
X128100539Y-82980498D01*
X128107573Y-82973465D01*
X128161574Y-82867482D01*
X128180181Y-82750000D01*
X128179360Y-82744819D01*
X128172262Y-82700000D01*
X128161574Y-82632518D01*
X128161571Y-82632513D01*
X128161571Y-82632511D01*
X128107574Y-82526537D01*
X128103810Y-82521356D01*
X128084903Y-82463165D01*
X128103811Y-82404975D01*
X128153311Y-82369011D01*
X128168411Y-82365386D01*
X128192482Y-82361574D01*
X128298465Y-82307573D01*
X128382573Y-82223465D01*
X128436574Y-82117482D01*
X128455181Y-82000000D01*
X128436574Y-81882518D01*
X128436571Y-81882513D01*
X128436571Y-81882511D01*
X128382574Y-81776537D01*
X128382573Y-81776535D01*
X128298465Y-81692427D01*
X128298462Y-81692425D01*
X128192488Y-81638428D01*
X128192483Y-81638426D01*
X128192482Y-81638426D01*
X128075000Y-81619819D01*
X127957518Y-81638426D01*
X127957511Y-81638428D01*
X127851537Y-81692425D01*
X127767425Y-81776537D01*
X127713428Y-81882511D01*
X127713426Y-81882518D01*
X127694819Y-81999999D01*
X127694819Y-82000000D01*
X127713426Y-82117481D01*
X127713428Y-82117488D01*
X127767425Y-82223462D01*
X127771190Y-82228644D01*
X127790096Y-82286835D01*
X127771187Y-82345026D01*
X127721686Y-82380988D01*
X127706585Y-82384614D01*
X127682517Y-82388426D01*
X127682511Y-82388428D01*
X127576537Y-82442425D01*
X127492425Y-82526537D01*
X127438428Y-82632511D01*
X127438426Y-82632518D01*
X127420640Y-82744819D01*
X127419819Y-82750000D01*
X127438043Y-82865066D01*
X127438426Y-82867481D01*
X127438428Y-82867488D01*
X127492425Y-82973462D01*
X127492427Y-82973465D01*
X127576535Y-83057573D01*
X127576537Y-83057574D01*
X127576538Y-83057575D01*
X127595444Y-83067208D01*
X127638709Y-83110472D01*
X127649500Y-83155418D01*
X127649500Y-83340326D01*
X127652874Y-83352918D01*
X127650732Y-83353491D01*
X127659744Y-83395880D01*
X127659252Y-83399802D01*
X127650396Y-83460594D01*
X127649500Y-83466742D01*
X127649500Y-85100500D01*
X127630593Y-85158691D01*
X127581093Y-85194655D01*
X127550500Y-85199500D01*
X121502430Y-85199500D01*
X121497575Y-85199261D01*
X121373237Y-85187014D01*
X121354203Y-85183228D01*
X121241645Y-85149084D01*
X121223714Y-85141657D01*
X121119977Y-85086208D01*
X121103841Y-85075426D01*
X121012916Y-85000806D01*
X120999193Y-84987083D01*
X120924573Y-84896158D01*
X120913791Y-84880022D01*
X120858342Y-84776285D01*
X120850915Y-84758354D01*
X120816771Y-84645796D01*
X120812985Y-84626762D01*
X120810581Y-84602351D01*
X120800737Y-84502409D01*
X120800500Y-84497568D01*
X120800500Y-83469918D01*
X120800491Y-83469738D01*
X120800477Y-83397872D01*
X120777527Y-83194911D01*
X120777527Y-83194910D01*
X120777526Y-83194904D01*
X120731918Y-82995821D01*
X120731915Y-82995812D01*
X120664224Y-82803101D01*
X120630011Y-82732346D01*
X120575308Y-82619216D01*
X120485256Y-82476535D01*
X120466290Y-82446485D01*
X120420805Y-82389704D01*
X120410730Y-82374417D01*
X120358140Y-82275820D01*
X120350740Y-82257920D01*
X120316714Y-82145541D01*
X120312942Y-82126543D01*
X120306024Y-82056173D01*
X120300738Y-82002406D01*
X120300500Y-81997560D01*
X120300500Y-77450000D01*
X126619819Y-77450000D01*
X126638426Y-77567481D01*
X126638428Y-77567488D01*
X126692425Y-77673462D01*
X126692427Y-77673465D01*
X126776535Y-77757573D01*
X126776537Y-77757574D01*
X126882511Y-77811571D01*
X126882513Y-77811571D01*
X126882518Y-77811574D01*
X127000000Y-77830181D01*
X127117482Y-77811574D01*
X127223465Y-77757573D01*
X127307573Y-77673465D01*
X127361574Y-77567482D01*
X127380181Y-77450000D01*
X127361574Y-77332518D01*
X127361571Y-77332513D01*
X127361571Y-77332511D01*
X127307574Y-77226537D01*
X127307573Y-77226535D01*
X127223465Y-77142427D01*
X127223462Y-77142425D01*
X127117488Y-77088428D01*
X127117483Y-77088426D01*
X127117482Y-77088426D01*
X127000000Y-77069819D01*
X126882518Y-77088426D01*
X126882511Y-77088428D01*
X126776537Y-77142425D01*
X126692425Y-77226537D01*
X126638428Y-77332511D01*
X126638426Y-77332518D01*
X126619819Y-77449999D01*
X126619819Y-77450000D01*
X120300500Y-77450000D01*
X120300500Y-68190206D01*
X120319407Y-68132015D01*
X120368907Y-68096051D01*
X120398091Y-68091216D01*
X120404420Y-68091125D01*
X120404427Y-68091126D01*
X120464859Y-68081555D01*
X120503691Y-68068938D01*
X120593732Y-68023058D01*
X120623187Y-68013487D01*
X120684518Y-68003774D01*
X120715482Y-68003774D01*
X120776812Y-68013487D01*
G37*
%TD.AperFunction*%
%TD*%
%TA.AperFunction,Conductor*%
%TO.N,Net-(Q2-S-Pad1)*%
G36*
X131825500Y-67719962D02*
G01*
X131880038Y-67774500D01*
X131900000Y-67849000D01*
X131900000Y-69951000D01*
X131880038Y-70025500D01*
X131825500Y-70080038D01*
X131751000Y-70100000D01*
X127449000Y-70100000D01*
X127374500Y-70080038D01*
X127319962Y-70025500D01*
X127300000Y-69951000D01*
X127300000Y-67849000D01*
X127319962Y-67774500D01*
X127374500Y-67719962D01*
X127449000Y-67700000D01*
X131751000Y-67700000D01*
X131825500Y-67719962D01*
G37*
%TD.AperFunction*%
%TD*%
%TA.AperFunction,Conductor*%
%TO.N,+48V*%
G36*
X143502424Y-56300739D02*
G01*
X143568798Y-56307276D01*
X143626764Y-56312985D01*
X143645794Y-56316770D01*
X143719273Y-56339059D01*
X143758354Y-56350915D01*
X143776285Y-56358342D01*
X143880022Y-56413791D01*
X143896158Y-56424573D01*
X143992735Y-56503831D01*
X143996335Y-56507094D01*
X144027833Y-56538590D01*
X148692279Y-61203037D01*
X148720056Y-61257554D01*
X148710485Y-61317986D01*
X148667220Y-61361251D01*
X148622275Y-61372041D01*
X147092469Y-61372041D01*
X147089591Y-61371957D01*
X147028430Y-61368395D01*
X147003723Y-61366957D01*
X146996277Y-61366957D01*
X146639974Y-61387709D01*
X146632578Y-61388573D01*
X146281093Y-61450550D01*
X146281089Y-61450551D01*
X146281088Y-61450551D01*
X146273853Y-61452265D01*
X146273848Y-61452267D01*
X146119657Y-61498429D01*
X145931943Y-61554627D01*
X145931944Y-61554627D01*
X145931939Y-61554628D01*
X145931935Y-61554630D01*
X145924938Y-61557176D01*
X145924934Y-61557177D01*
X145924925Y-61557181D01*
X145924924Y-61557182D01*
X145597226Y-61698537D01*
X145597227Y-61698537D01*
X145597220Y-61698540D01*
X145590566Y-61701882D01*
X145281475Y-61880335D01*
X145275254Y-61884427D01*
X145275250Y-61884430D01*
X145275249Y-61884430D01*
X144988977Y-62097551D01*
X144988974Y-62097553D01*
X144988971Y-62097556D01*
X144983266Y-62102343D01*
X144723662Y-62347267D01*
X144718552Y-62352683D01*
X144489136Y-62626090D01*
X144489131Y-62626096D01*
X144489130Y-62626098D01*
X144484693Y-62632058D01*
X144484690Y-62632063D01*
X144288567Y-62930254D01*
X144284844Y-62936703D01*
X144124664Y-63255646D01*
X144121714Y-63262484D01*
X143999645Y-63597865D01*
X143997509Y-63605002D01*
X143997510Y-63605001D01*
X143915203Y-63952283D01*
X143915202Y-63952285D01*
X143913909Y-63959613D01*
X143872474Y-64314113D01*
X143872041Y-64321549D01*
X143872041Y-64678451D01*
X143872474Y-64685889D01*
X143913909Y-65040389D01*
X143915202Y-65047713D01*
X143997510Y-65394999D01*
X143997509Y-65394998D01*
X143997510Y-65395000D01*
X143999645Y-65402134D01*
X144121714Y-65737516D01*
X144124664Y-65744354D01*
X144284842Y-66063293D01*
X144284842Y-66063294D01*
X144288563Y-66069739D01*
X144288562Y-66069738D01*
X144484694Y-66367944D01*
X144489130Y-66373902D01*
X144489131Y-66373904D01*
X144489135Y-66373909D01*
X144489136Y-66373910D01*
X144718552Y-66647317D01*
X144723662Y-66652733D01*
X144983266Y-66897657D01*
X144983274Y-66897664D01*
X144988975Y-66902447D01*
X144988977Y-66902449D01*
X145275249Y-67115570D01*
X145275250Y-67115570D01*
X145275254Y-67115573D01*
X145281475Y-67119665D01*
X145590566Y-67298118D01*
X145597220Y-67301460D01*
X145597227Y-67301463D01*
X145597226Y-67301463D01*
X145924924Y-67442818D01*
X145924925Y-67442819D01*
X145924934Y-67442822D01*
X145924938Y-67442824D01*
X145931935Y-67445370D01*
X145931939Y-67445371D01*
X145931944Y-67445373D01*
X145931943Y-67445373D01*
X146119657Y-67501570D01*
X146273848Y-67547733D01*
X146273853Y-67547734D01*
X146273853Y-67547735D01*
X146281088Y-67549449D01*
X146281089Y-67549449D01*
X146281093Y-67549450D01*
X146632578Y-67611427D01*
X146639974Y-67612291D01*
X146996277Y-67633043D01*
X146996281Y-67633043D01*
X147003718Y-67633043D01*
X147003723Y-67633043D01*
X147028430Y-67631604D01*
X147089591Y-67628043D01*
X147092469Y-67627959D01*
X149600500Y-67627959D01*
X149658691Y-67646866D01*
X149694655Y-67696366D01*
X149699500Y-67726959D01*
X149699500Y-67864452D01*
X149680593Y-67922643D01*
X149631093Y-67958607D01*
X149569907Y-67958607D01*
X149555555Y-67952662D01*
X149553220Y-67951472D01*
X149433126Y-67890281D01*
X149300000Y-67869196D01*
X149166872Y-67890281D01*
X149166870Y-67890282D01*
X149046782Y-67951470D01*
X148951470Y-68046782D01*
X148890282Y-68166870D01*
X148890281Y-68166872D01*
X148870605Y-68291105D01*
X148869196Y-68300000D01*
X148890281Y-68433126D01*
X148902673Y-68457446D01*
X148952407Y-68555055D01*
X148961978Y-68615487D01*
X148952407Y-68644945D01*
X148951472Y-68646779D01*
X148951472Y-68646780D01*
X148890281Y-68766874D01*
X148869196Y-68900000D01*
X148890281Y-69033126D01*
X148890282Y-69033127D01*
X148952407Y-69155055D01*
X148961978Y-69215487D01*
X148952407Y-69244945D01*
X148951472Y-69246779D01*
X148951472Y-69246780D01*
X148890281Y-69366874D01*
X148869196Y-69500000D01*
X148890281Y-69633126D01*
X148890282Y-69633127D01*
X148952407Y-69755055D01*
X148961978Y-69815487D01*
X148952407Y-69844945D01*
X148951472Y-69846779D01*
X148951472Y-69846780D01*
X148890281Y-69966874D01*
X148869196Y-70100000D01*
X148890281Y-70233126D01*
X148951472Y-70353220D01*
X148952407Y-70355055D01*
X148961978Y-70415487D01*
X148952407Y-70444945D01*
X148951472Y-70446779D01*
X148951472Y-70446780D01*
X148890281Y-70566874D01*
X148869196Y-70700000D01*
X148890281Y-70833126D01*
X148890282Y-70833127D01*
X148952407Y-70955055D01*
X148961978Y-71015487D01*
X148952407Y-71044945D01*
X148951472Y-71046779D01*
X148951472Y-71046780D01*
X148890281Y-71166874D01*
X148869196Y-71300000D01*
X148890281Y-71433126D01*
X148890282Y-71433127D01*
X148952407Y-71555055D01*
X148961978Y-71615487D01*
X148952407Y-71644945D01*
X148951472Y-71646779D01*
X148951472Y-71646780D01*
X148890281Y-71766874D01*
X148869196Y-71900000D01*
X148890281Y-72033126D01*
X148890282Y-72033127D01*
X148952407Y-72155055D01*
X148961978Y-72215487D01*
X148952407Y-72244945D01*
X148951472Y-72246779D01*
X148951472Y-72246780D01*
X148890281Y-72366874D01*
X148869196Y-72500000D01*
X148890281Y-72633126D01*
X148890282Y-72633127D01*
X148952407Y-72755055D01*
X148961978Y-72815487D01*
X148952407Y-72844945D01*
X148951472Y-72846779D01*
X148951472Y-72846780D01*
X148890281Y-72966874D01*
X148869196Y-73100000D01*
X148890281Y-73233126D01*
X148890282Y-73233127D01*
X148952407Y-73355055D01*
X148961978Y-73415487D01*
X148952407Y-73444945D01*
X148951472Y-73446779D01*
X148951472Y-73446780D01*
X148890281Y-73566874D01*
X148869196Y-73700000D01*
X148890281Y-73833126D01*
X148890282Y-73833127D01*
X148952407Y-73955055D01*
X148961978Y-74015487D01*
X148952407Y-74044945D01*
X148890281Y-74166874D01*
X148875283Y-74261571D01*
X148869196Y-74300000D01*
X148890281Y-74433126D01*
X148951472Y-74553220D01*
X148952407Y-74555055D01*
X148961978Y-74615487D01*
X148952407Y-74644945D01*
X148890281Y-74766874D01*
X148869196Y-74899998D01*
X148869196Y-74901000D01*
X148868886Y-74901952D01*
X148867977Y-74907695D01*
X148867067Y-74907550D01*
X148850289Y-74959191D01*
X148800789Y-74995155D01*
X148770196Y-75000000D01*
X135864418Y-75000000D01*
X135806227Y-74981093D01*
X135770263Y-74931593D01*
X135766637Y-74885513D01*
X135780181Y-74800000D01*
X135780181Y-74799999D01*
X135771758Y-74746818D01*
X135761574Y-74682518D01*
X135761571Y-74682513D01*
X135761571Y-74682511D01*
X135707574Y-74576537D01*
X135707573Y-74576535D01*
X135623465Y-74492427D01*
X135623462Y-74492425D01*
X135517488Y-74438428D01*
X135517483Y-74438426D01*
X135517482Y-74438426D01*
X135400000Y-74419819D01*
X135282518Y-74438426D01*
X135282511Y-74438428D01*
X135176537Y-74492425D01*
X135092425Y-74576537D01*
X135038428Y-74682511D01*
X135038426Y-74682518D01*
X135019819Y-74799999D01*
X135019819Y-74800000D01*
X135033363Y-74885513D01*
X135023792Y-74945945D01*
X134980527Y-74989210D01*
X134935582Y-75000000D01*
X130055673Y-75000000D01*
X129997482Y-74981093D01*
X129967463Y-74945945D01*
X129957574Y-74926537D01*
X129957573Y-74926535D01*
X129873465Y-74842427D01*
X129873462Y-74842425D01*
X129767488Y-74788428D01*
X129767483Y-74788426D01*
X129767482Y-74788426D01*
X129650000Y-74769819D01*
X129532518Y-74788426D01*
X129532511Y-74788428D01*
X129426537Y-74842425D01*
X129342425Y-74926537D01*
X129332537Y-74945945D01*
X129289272Y-74989210D01*
X129244327Y-75000000D01*
X127355673Y-75000000D01*
X127297482Y-74981093D01*
X127267463Y-74945945D01*
X127257574Y-74926537D01*
X127257573Y-74926535D01*
X127173465Y-74842427D01*
X127173462Y-74842425D01*
X127067488Y-74788428D01*
X127067483Y-74788426D01*
X127067482Y-74788426D01*
X126950000Y-74769819D01*
X126832518Y-74788426D01*
X126832511Y-74788428D01*
X126726537Y-74842425D01*
X126642425Y-74926537D01*
X126632537Y-74945945D01*
X126589272Y-74989210D01*
X126544327Y-75000000D01*
X121229804Y-75000000D01*
X121171613Y-74981093D01*
X121135649Y-74931593D01*
X121130804Y-74901000D01*
X121130804Y-74899998D01*
X121121685Y-74842425D01*
X121109719Y-74766874D01*
X121048528Y-74646780D01*
X121048526Y-74646778D01*
X121047593Y-74644946D01*
X121038021Y-74584514D01*
X121047593Y-74555054D01*
X121048526Y-74553221D01*
X121048528Y-74553220D01*
X121109719Y-74433126D01*
X121130804Y-74300000D01*
X121109719Y-74166874D01*
X121048528Y-74046780D01*
X121048526Y-74046778D01*
X121047593Y-74044946D01*
X121038021Y-73984514D01*
X121047593Y-73955054D01*
X121048526Y-73953221D01*
X121048528Y-73953220D01*
X121075645Y-73900000D01*
X134269819Y-73900000D01*
X134283204Y-73984514D01*
X134288426Y-74017481D01*
X134288428Y-74017488D01*
X134342425Y-74123462D01*
X134342427Y-74123465D01*
X134426535Y-74207573D01*
X134426537Y-74207574D01*
X134532511Y-74261571D01*
X134532513Y-74261571D01*
X134532518Y-74261574D01*
X134650000Y-74280181D01*
X134767482Y-74261574D01*
X134873465Y-74207573D01*
X134957573Y-74123465D01*
X135011574Y-74017482D01*
X135030181Y-73900000D01*
X135011574Y-73782518D01*
X135011571Y-73782513D01*
X135011571Y-73782511D01*
X134957574Y-73676537D01*
X134957573Y-73676535D01*
X134873465Y-73592427D01*
X134873462Y-73592425D01*
X134767488Y-73538428D01*
X134767483Y-73538426D01*
X134767482Y-73538426D01*
X134650000Y-73519819D01*
X134532518Y-73538426D01*
X134532511Y-73538428D01*
X134426537Y-73592425D01*
X134342425Y-73676537D01*
X134288428Y-73782511D01*
X134288426Y-73782518D01*
X134269819Y-73900000D01*
X121075645Y-73900000D01*
X121109719Y-73833126D01*
X121130804Y-73700000D01*
X121109719Y-73566874D01*
X121048528Y-73446780D01*
X121048526Y-73446778D01*
X121047593Y-73444946D01*
X121038021Y-73384514D01*
X121047593Y-73355054D01*
X121048526Y-73353221D01*
X121048528Y-73353220D01*
X121109719Y-73233126D01*
X121130804Y-73100000D01*
X121109719Y-72966874D01*
X121048528Y-72846780D01*
X121048526Y-72846778D01*
X121047593Y-72844946D01*
X121038021Y-72784514D01*
X121047593Y-72755054D01*
X121048526Y-72753221D01*
X121048528Y-72753220D01*
X121109719Y-72633126D01*
X121130804Y-72500000D01*
X121109719Y-72366874D01*
X121048528Y-72246780D01*
X121048526Y-72246778D01*
X121047593Y-72244946D01*
X121038021Y-72184514D01*
X121047593Y-72155054D01*
X121048526Y-72153221D01*
X121048528Y-72153220D01*
X121109719Y-72033126D01*
X121130804Y-71900000D01*
X121109719Y-71766874D01*
X121048528Y-71646780D01*
X121048526Y-71646778D01*
X121047593Y-71644946D01*
X121038021Y-71584514D01*
X121047593Y-71555054D01*
X121048526Y-71553221D01*
X121048528Y-71553220D01*
X121109719Y-71433126D01*
X121130804Y-71300000D01*
X121109719Y-71166874D01*
X121048528Y-71046780D01*
X121048526Y-71046778D01*
X121047593Y-71044946D01*
X121038021Y-70984514D01*
X121047593Y-70955054D01*
X121048526Y-70953221D01*
X121048528Y-70953220D01*
X121109719Y-70833126D01*
X121130804Y-70700000D01*
X121109719Y-70566874D01*
X121048528Y-70446780D01*
X121048526Y-70446778D01*
X121047593Y-70444946D01*
X121038021Y-70384514D01*
X121047593Y-70355054D01*
X121048526Y-70353221D01*
X121048528Y-70353220D01*
X121109719Y-70233126D01*
X121130804Y-70100000D01*
X121109719Y-69966874D01*
X121048528Y-69846780D01*
X121048526Y-69846778D01*
X121047593Y-69844946D01*
X121041401Y-69805851D01*
X127169196Y-69805851D01*
X127169500Y-69809714D01*
X127169500Y-69951000D01*
X127173947Y-69984776D01*
X127193909Y-70059276D01*
X127227685Y-70117777D01*
X127282223Y-70172315D01*
X127340724Y-70206091D01*
X127415224Y-70226053D01*
X127449000Y-70230500D01*
X127590288Y-70230500D01*
X127594151Y-70230804D01*
X127600000Y-70230804D01*
X127605849Y-70230804D01*
X127609712Y-70230500D01*
X131590288Y-70230500D01*
X131594151Y-70230804D01*
X131600000Y-70230804D01*
X131605849Y-70230804D01*
X131609712Y-70230500D01*
X131750999Y-70230500D01*
X131751000Y-70230500D01*
X131784776Y-70226053D01*
X131859276Y-70206091D01*
X131917777Y-70172315D01*
X131972315Y-70117777D01*
X132006091Y-70059276D01*
X132026053Y-69984776D01*
X132030500Y-69951000D01*
X132030500Y-69809714D01*
X132030804Y-69805851D01*
X135169196Y-69805851D01*
X135169500Y-69809714D01*
X135169500Y-69951000D01*
X135173947Y-69984776D01*
X135193909Y-70059276D01*
X135227685Y-70117777D01*
X135282223Y-70172315D01*
X135340724Y-70206091D01*
X135415224Y-70226053D01*
X135449000Y-70230500D01*
X135590288Y-70230500D01*
X135594151Y-70230804D01*
X135600000Y-70230804D01*
X135605849Y-70230804D01*
X135609712Y-70230500D01*
X139204938Y-70230500D01*
X139263129Y-70249407D01*
X139274942Y-70259496D01*
X139767099Y-70751655D01*
X139773528Y-70757293D01*
X139773529Y-70757293D01*
X139807775Y-70783571D01*
X139853442Y-70806091D01*
X139927942Y-70826053D01*
X139961718Y-70830500D01*
X143190288Y-70830500D01*
X143194151Y-70830804D01*
X143200000Y-70830804D01*
X143205849Y-70830804D01*
X143209712Y-70830500D01*
X143350999Y-70830500D01*
X143351000Y-70830500D01*
X143384776Y-70826053D01*
X143459276Y-70806091D01*
X143517777Y-70772315D01*
X143572315Y-70717777D01*
X143606091Y-70659276D01*
X143626053Y-70584776D01*
X143630500Y-70551000D01*
X143630500Y-70409714D01*
X143630804Y-70405851D01*
X143630804Y-70394157D01*
X143630500Y-70390292D01*
X143630500Y-69809714D01*
X143630804Y-69805851D01*
X143630804Y-69794157D01*
X143630500Y-69790292D01*
X143630500Y-69209714D01*
X143630804Y-69205851D01*
X143630804Y-69194157D01*
X143630500Y-69190292D01*
X143630500Y-68609714D01*
X143630804Y-68605851D01*
X143630804Y-68594157D01*
X143630500Y-68590292D01*
X143630500Y-68457445D01*
X143629941Y-68448916D01*
X143627862Y-68433125D01*
X143624307Y-68406120D01*
X143607939Y-68357904D01*
X143569375Y-68291109D01*
X143548636Y-68264082D01*
X143431372Y-68146818D01*
X142932900Y-67648344D01*
X142926472Y-67642707D01*
X142926471Y-67642707D01*
X142892225Y-67616429D01*
X142882082Y-67611427D01*
X142846557Y-67593908D01*
X142772054Y-67573946D01*
X142738282Y-67569500D01*
X139609712Y-67569500D01*
X139605849Y-67569196D01*
X139594151Y-67569196D01*
X139590288Y-67569500D01*
X135609712Y-67569500D01*
X135605849Y-67569196D01*
X135594151Y-67569196D01*
X135590288Y-67569500D01*
X135449000Y-67569500D01*
X135415229Y-67573946D01*
X135415226Y-67573946D01*
X135415224Y-67573947D01*
X135340724Y-67593909D01*
X135340723Y-67593909D01*
X135340721Y-67593910D01*
X135282225Y-67627683D01*
X135227683Y-67682225D01*
X135193910Y-67740721D01*
X135173946Y-67815229D01*
X135169500Y-67849000D01*
X135169500Y-67990292D01*
X135169196Y-67994157D01*
X135169196Y-68005851D01*
X135169500Y-68009714D01*
X135169500Y-69190292D01*
X135169196Y-69194157D01*
X135169196Y-69205851D01*
X135169500Y-69209714D01*
X135169500Y-69790292D01*
X135169196Y-69794157D01*
X135169196Y-69805851D01*
X132030804Y-69805851D01*
X132030804Y-69794157D01*
X132030500Y-69790292D01*
X132030500Y-69209714D01*
X132030804Y-69205851D01*
X132030804Y-69194157D01*
X132030500Y-69190292D01*
X132030500Y-68612868D01*
X132031304Y-68602650D01*
X132031304Y-68597349D01*
X132030500Y-68587134D01*
X132030500Y-68009714D01*
X132030804Y-68005851D01*
X132030804Y-67994157D01*
X132030500Y-67990292D01*
X132030500Y-67849000D01*
X132026053Y-67815224D01*
X132006091Y-67740724D01*
X131972315Y-67682223D01*
X131917777Y-67627685D01*
X131898281Y-67616429D01*
X131859278Y-67593910D01*
X131859277Y-67593909D01*
X131859276Y-67593909D01*
X131784776Y-67573947D01*
X131784771Y-67573946D01*
X131784770Y-67573946D01*
X131751000Y-67569500D01*
X131609712Y-67569500D01*
X131605849Y-67569196D01*
X131594151Y-67569196D01*
X131590288Y-67569500D01*
X127609712Y-67569500D01*
X127605849Y-67569196D01*
X127594151Y-67569196D01*
X127590288Y-67569500D01*
X127449000Y-67569500D01*
X127415229Y-67573946D01*
X127415226Y-67573946D01*
X127415224Y-67573947D01*
X127340724Y-67593909D01*
X127340723Y-67593909D01*
X127340721Y-67593910D01*
X127282225Y-67627683D01*
X127227683Y-67682225D01*
X127193910Y-67740721D01*
X127173946Y-67815229D01*
X127169500Y-67849000D01*
X127169500Y-67990292D01*
X127169196Y-67994157D01*
X127169196Y-68005851D01*
X127169500Y-68009714D01*
X127169500Y-69190292D01*
X127169196Y-69194157D01*
X127169196Y-69205851D01*
X127169500Y-69209714D01*
X127169500Y-69790292D01*
X127169196Y-69794157D01*
X127169196Y-69805851D01*
X121041401Y-69805851D01*
X121038021Y-69784514D01*
X121047593Y-69755054D01*
X121048526Y-69753221D01*
X121048528Y-69753220D01*
X121109719Y-69633126D01*
X121130804Y-69500000D01*
X121109719Y-69366874D01*
X121048528Y-69246780D01*
X121048526Y-69246778D01*
X121047593Y-69244946D01*
X121038021Y-69184514D01*
X121047593Y-69155054D01*
X121048526Y-69153221D01*
X121048528Y-69153220D01*
X121109719Y-69033126D01*
X121130804Y-68900000D01*
X121109719Y-68766874D01*
X121048528Y-68646780D01*
X121048526Y-68646778D01*
X121047593Y-68644946D01*
X121038021Y-68584514D01*
X121047593Y-68555054D01*
X121048526Y-68553221D01*
X121048528Y-68553220D01*
X121109719Y-68433126D01*
X121130804Y-68300000D01*
X121109719Y-68166874D01*
X121048528Y-68046780D01*
X120953220Y-67951472D01*
X120953217Y-67951470D01*
X120833129Y-67890282D01*
X120833127Y-67890281D01*
X120700000Y-67869196D01*
X120566874Y-67890281D01*
X120444445Y-67952662D01*
X120384013Y-67962233D01*
X120329497Y-67934456D01*
X120301719Y-67879939D01*
X120300500Y-67864452D01*
X120300500Y-62502431D01*
X120300737Y-62497591D01*
X120312985Y-62373233D01*
X120316771Y-62354203D01*
X120317233Y-62352683D01*
X120350915Y-62241643D01*
X120358342Y-62223714D01*
X120413791Y-62119977D01*
X120424573Y-62103841D01*
X120503841Y-62007252D01*
X120507095Y-62003663D01*
X120539032Y-61971725D01*
X126003663Y-56507095D01*
X126007265Y-56503831D01*
X126103841Y-56424573D01*
X126119977Y-56413791D01*
X126223716Y-56358340D01*
X126241643Y-56350915D01*
X126354207Y-56316770D01*
X126373233Y-56312985D01*
X126497591Y-56300737D01*
X126502431Y-56300500D01*
X126547595Y-56300500D01*
X143452405Y-56300500D01*
X143497569Y-56300500D01*
X143502424Y-56300739D01*
G37*
%TD.AperFunction*%
%TD*%
%TA.AperFunction,Conductor*%
%TO.N,Net-(Q6-S-Pad1)*%
G36*
X142812782Y-67719962D02*
G01*
X142843641Y-67743641D01*
X143456359Y-68356359D01*
X143494923Y-68423154D01*
X143500000Y-68461718D01*
X143500000Y-70551000D01*
X143480038Y-70625500D01*
X143425500Y-70680038D01*
X143351000Y-70700000D01*
X139961718Y-70700000D01*
X139887218Y-70680038D01*
X139856359Y-70656359D01*
X139300000Y-70100000D01*
X135449000Y-70100000D01*
X135374500Y-70080038D01*
X135319962Y-70025500D01*
X135300000Y-69951000D01*
X135300000Y-67849000D01*
X135319962Y-67774500D01*
X135374500Y-67719962D01*
X135449000Y-67700000D01*
X142738282Y-67700000D01*
X142812782Y-67719962D01*
G37*
%TD.AperFunction*%
%TD*%
%TA.AperFunction,Conductor*%
%TO.N,GND*%
G36*
X135675000Y-81800000D02*
G01*
X130475500Y-81800000D01*
X130475500Y-81302306D01*
X130494407Y-81244115D01*
X130504496Y-81232302D01*
X130607302Y-81129496D01*
X130661819Y-81101719D01*
X130677306Y-81100500D01*
X135675000Y-81100500D01*
X135675000Y-81800000D01*
G37*
%TD.AperFunction*%
%TA.AperFunction,Conductor*%
G36*
X135675000Y-80799500D02*
G01*
X130533632Y-80799500D01*
X130527152Y-80803241D01*
X130503283Y-80813128D01*
X130496056Y-80815064D01*
X130496053Y-80815066D01*
X130439024Y-80872095D01*
X130439023Y-80872096D01*
X130350000Y-80961119D01*
X130350000Y-77600000D01*
X135675000Y-77600000D01*
X135675000Y-80799500D01*
G37*
%TD.AperFunction*%
%TD*%
%TA.AperFunction,Conductor*%
%TO.N,GND*%
G36*
X135000000Y-85199500D02*
G01*
X133500000Y-85199500D01*
X133500000Y-83000000D01*
X135000000Y-83000000D01*
X135000000Y-85199500D01*
G37*
%TD.AperFunction*%
%TD*%
%TA.AperFunction,Conductor*%
%TO.N,GND*%
G36*
X143750000Y-81250000D02*
G01*
X140750000Y-81250000D01*
X140750000Y-79750000D01*
X143750000Y-79750000D01*
X143750000Y-81250000D01*
G37*
%TD.AperFunction*%
%TD*%
M02*
