%TF.GenerationSoftware,KiCad,Pcbnew,7.0.8-7.0.8~ubuntu22.04.1*%
%TF.CreationDate,2023-11-12T23:56:44-08:00*%
%TF.ProjectId,driver-tmc2160,64726976-6572-42d7-946d-63323136302e,rev?*%
%TF.SameCoordinates,Original*%
%TF.FileFunction,AssemblyDrawing,Bot*%
%FSLAX46Y46*%
G04 Gerber Fmt 4.6, Leading zero omitted, Abs format (unit mm)*
G04 Created by KiCad (PCBNEW 7.0.8-7.0.8~ubuntu22.04.1) date 2023-11-12 23:56:44*
%MOMM*%
%LPD*%
G01*
G04 APERTURE LIST*
%ADD10C,0.050000*%
%ADD11C,0.100000*%
G04 APERTURE END LIST*
D10*
X146019486Y-77682447D02*
X146019486Y-77282447D01*
X146019486Y-77282447D02*
X145971867Y-77282447D01*
X145971867Y-77282447D02*
X145943296Y-77301495D01*
X145943296Y-77301495D02*
X145924248Y-77339590D01*
X145924248Y-77339590D02*
X145914725Y-77377685D01*
X145914725Y-77377685D02*
X145905201Y-77453876D01*
X145905201Y-77453876D02*
X145905201Y-77511019D01*
X145905201Y-77511019D02*
X145914725Y-77587209D01*
X145914725Y-77587209D02*
X145924248Y-77625304D01*
X145924248Y-77625304D02*
X145943296Y-77663400D01*
X145943296Y-77663400D02*
X145971867Y-77682447D01*
X145971867Y-77682447D02*
X146019486Y-77682447D01*
X145819486Y-77682447D02*
X145819486Y-77282447D01*
X145733772Y-77568161D02*
X145638534Y-77568161D01*
X145752820Y-77682447D02*
X145686153Y-77282447D01*
X145686153Y-77282447D02*
X145619487Y-77682447D01*
X145448058Y-77301495D02*
X145467105Y-77282447D01*
X145467105Y-77282447D02*
X145495677Y-77282447D01*
X145495677Y-77282447D02*
X145524248Y-77301495D01*
X145524248Y-77301495D02*
X145543296Y-77339590D01*
X145543296Y-77339590D02*
X145552819Y-77377685D01*
X145552819Y-77377685D02*
X145562343Y-77453876D01*
X145562343Y-77453876D02*
X145562343Y-77511019D01*
X145562343Y-77511019D02*
X145552819Y-77587209D01*
X145552819Y-77587209D02*
X145543296Y-77625304D01*
X145543296Y-77625304D02*
X145524248Y-77663400D01*
X145524248Y-77663400D02*
X145495677Y-77682447D01*
X145495677Y-77682447D02*
X145476629Y-77682447D01*
X145476629Y-77682447D02*
X145448058Y-77663400D01*
X145448058Y-77663400D02*
X145438534Y-77644352D01*
X145438534Y-77644352D02*
X145438534Y-77511019D01*
X145438534Y-77511019D02*
X145476629Y-77511019D01*
X145314724Y-77282447D02*
X145295677Y-77282447D01*
X145295677Y-77282447D02*
X145276629Y-77301495D01*
X145276629Y-77301495D02*
X145267105Y-77320542D01*
X145267105Y-77320542D02*
X145257581Y-77358638D01*
X145257581Y-77358638D02*
X145248058Y-77434828D01*
X145248058Y-77434828D02*
X145248058Y-77530066D01*
X145248058Y-77530066D02*
X145257581Y-77606257D01*
X145257581Y-77606257D02*
X145267105Y-77644352D01*
X145267105Y-77644352D02*
X145276629Y-77663400D01*
X145276629Y-77663400D02*
X145295677Y-77682447D01*
X145295677Y-77682447D02*
X145314724Y-77682447D01*
X145314724Y-77682447D02*
X145333772Y-77663400D01*
X145333772Y-77663400D02*
X145343296Y-77644352D01*
X145343296Y-77644352D02*
X145352819Y-77606257D01*
X145352819Y-77606257D02*
X145362343Y-77530066D01*
X145362343Y-77530066D02*
X145362343Y-77434828D01*
X145362343Y-77434828D02*
X145352819Y-77358638D01*
X145352819Y-77358638D02*
X145343296Y-77320542D01*
X145343296Y-77320542D02*
X145333772Y-77301495D01*
X145333772Y-77301495D02*
X145314724Y-77282447D01*
X143482447Y-77252381D02*
X143482447Y-77366667D01*
X143882447Y-77309524D02*
X143482447Y-77309524D01*
X143882447Y-77538095D02*
X143882447Y-77423810D01*
X143882447Y-77480953D02*
X143482447Y-77480953D01*
X143482447Y-77480953D02*
X143539590Y-77461905D01*
X143539590Y-77461905D02*
X143577685Y-77442857D01*
X143577685Y-77442857D02*
X143596733Y-77423810D01*
X143482447Y-77604762D02*
X143482447Y-77738095D01*
X143482447Y-77738095D02*
X143882447Y-77652381D01*
X137032447Y-83701941D02*
X137432447Y-83768608D01*
X137432447Y-83768608D02*
X137032447Y-83835274D01*
X137394352Y-84016227D02*
X137413400Y-84006703D01*
X137413400Y-84006703D02*
X137432447Y-83978132D01*
X137432447Y-83978132D02*
X137432447Y-83959084D01*
X137432447Y-83959084D02*
X137413400Y-83930513D01*
X137413400Y-83930513D02*
X137375304Y-83911465D01*
X137375304Y-83911465D02*
X137337209Y-83901942D01*
X137337209Y-83901942D02*
X137261019Y-83892418D01*
X137261019Y-83892418D02*
X137203876Y-83892418D01*
X137203876Y-83892418D02*
X137127685Y-83901942D01*
X137127685Y-83901942D02*
X137089590Y-83911465D01*
X137089590Y-83911465D02*
X137051495Y-83930513D01*
X137051495Y-83930513D02*
X137032447Y-83959084D01*
X137032447Y-83959084D02*
X137032447Y-83978132D01*
X137032447Y-83978132D02*
X137051495Y-84006703D01*
X137051495Y-84006703D02*
X137070542Y-84016227D01*
X137394352Y-84216227D02*
X137413400Y-84206703D01*
X137413400Y-84206703D02*
X137432447Y-84178132D01*
X137432447Y-84178132D02*
X137432447Y-84159084D01*
X137432447Y-84159084D02*
X137413400Y-84130513D01*
X137413400Y-84130513D02*
X137375304Y-84111465D01*
X137375304Y-84111465D02*
X137337209Y-84101942D01*
X137337209Y-84101942D02*
X137261019Y-84092418D01*
X137261019Y-84092418D02*
X137203876Y-84092418D01*
X137203876Y-84092418D02*
X137127685Y-84101942D01*
X137127685Y-84101942D02*
X137089590Y-84111465D01*
X137089590Y-84111465D02*
X137051495Y-84130513D01*
X137051495Y-84130513D02*
X137032447Y-84159084D01*
X137032447Y-84159084D02*
X137032447Y-84178132D01*
X137032447Y-84178132D02*
X137051495Y-84206703D01*
X137051495Y-84206703D02*
X137070542Y-84216227D01*
X137097619Y-86267552D02*
X137211905Y-86267552D01*
X137154762Y-85867552D02*
X137154762Y-86267552D01*
X137307143Y-86096123D02*
X137288095Y-86115171D01*
X137288095Y-86115171D02*
X137278572Y-86134219D01*
X137278572Y-86134219D02*
X137269048Y-86172314D01*
X137269048Y-86172314D02*
X137269048Y-86191361D01*
X137269048Y-86191361D02*
X137278572Y-86229457D01*
X137278572Y-86229457D02*
X137288095Y-86248504D01*
X137288095Y-86248504D02*
X137307143Y-86267552D01*
X137307143Y-86267552D02*
X137345238Y-86267552D01*
X137345238Y-86267552D02*
X137364286Y-86248504D01*
X137364286Y-86248504D02*
X137373810Y-86229457D01*
X137373810Y-86229457D02*
X137383333Y-86191361D01*
X137383333Y-86191361D02*
X137383333Y-86172314D01*
X137383333Y-86172314D02*
X137373810Y-86134219D01*
X137373810Y-86134219D02*
X137364286Y-86115171D01*
X137364286Y-86115171D02*
X137345238Y-86096123D01*
X137345238Y-86096123D02*
X137307143Y-86096123D01*
X137307143Y-86096123D02*
X137288095Y-86077076D01*
X137288095Y-86077076D02*
X137278572Y-86058028D01*
X137278572Y-86058028D02*
X137269048Y-86019933D01*
X137269048Y-86019933D02*
X137269048Y-85943742D01*
X137269048Y-85943742D02*
X137278572Y-85905647D01*
X137278572Y-85905647D02*
X137288095Y-85886600D01*
X137288095Y-85886600D02*
X137307143Y-85867552D01*
X137307143Y-85867552D02*
X137345238Y-85867552D01*
X137345238Y-85867552D02*
X137364286Y-85886600D01*
X137364286Y-85886600D02*
X137373810Y-85905647D01*
X137373810Y-85905647D02*
X137383333Y-85943742D01*
X137383333Y-85943742D02*
X137383333Y-86019933D01*
X137383333Y-86019933D02*
X137373810Y-86058028D01*
X137373810Y-86058028D02*
X137364286Y-86077076D01*
X137364286Y-86077076D02*
X137345238Y-86096123D01*
X141594798Y-75855647D02*
X141585274Y-75836600D01*
X141585274Y-75836600D02*
X141556703Y-75817552D01*
X141556703Y-75817552D02*
X141537655Y-75817552D01*
X141537655Y-75817552D02*
X141509084Y-75836600D01*
X141509084Y-75836600D02*
X141490036Y-75874695D01*
X141490036Y-75874695D02*
X141480513Y-75912790D01*
X141480513Y-75912790D02*
X141470989Y-75988980D01*
X141470989Y-75988980D02*
X141470989Y-76046123D01*
X141470989Y-76046123D02*
X141480513Y-76122314D01*
X141480513Y-76122314D02*
X141490036Y-76160409D01*
X141490036Y-76160409D02*
X141509084Y-76198504D01*
X141509084Y-76198504D02*
X141537655Y-76217552D01*
X141537655Y-76217552D02*
X141556703Y-76217552D01*
X141556703Y-76217552D02*
X141585274Y-76198504D01*
X141585274Y-76198504D02*
X141594798Y-76179457D01*
X141670989Y-75836600D02*
X141699560Y-75817552D01*
X141699560Y-75817552D02*
X141747179Y-75817552D01*
X141747179Y-75817552D02*
X141766227Y-75836600D01*
X141766227Y-75836600D02*
X141775751Y-75855647D01*
X141775751Y-75855647D02*
X141785274Y-75893742D01*
X141785274Y-75893742D02*
X141785274Y-75931838D01*
X141785274Y-75931838D02*
X141775751Y-75969933D01*
X141775751Y-75969933D02*
X141766227Y-75988980D01*
X141766227Y-75988980D02*
X141747179Y-76008028D01*
X141747179Y-76008028D02*
X141709084Y-76027076D01*
X141709084Y-76027076D02*
X141690036Y-76046123D01*
X141690036Y-76046123D02*
X141680513Y-76065171D01*
X141680513Y-76065171D02*
X141670989Y-76103266D01*
X141670989Y-76103266D02*
X141670989Y-76141361D01*
X141670989Y-76141361D02*
X141680513Y-76179457D01*
X141680513Y-76179457D02*
X141690036Y-76198504D01*
X141690036Y-76198504D02*
X141709084Y-76217552D01*
X141709084Y-76217552D02*
X141756703Y-76217552D01*
X141756703Y-76217552D02*
X141785274Y-76198504D01*
X141909084Y-76217552D02*
X141928131Y-76217552D01*
X141928131Y-76217552D02*
X141947179Y-76198504D01*
X141947179Y-76198504D02*
X141956703Y-76179457D01*
X141956703Y-76179457D02*
X141966227Y-76141361D01*
X141966227Y-76141361D02*
X141975750Y-76065171D01*
X141975750Y-76065171D02*
X141975750Y-75969933D01*
X141975750Y-75969933D02*
X141966227Y-75893742D01*
X141966227Y-75893742D02*
X141956703Y-75855647D01*
X141956703Y-75855647D02*
X141947179Y-75836600D01*
X141947179Y-75836600D02*
X141928131Y-75817552D01*
X141928131Y-75817552D02*
X141909084Y-75817552D01*
X141909084Y-75817552D02*
X141890036Y-75836600D01*
X141890036Y-75836600D02*
X141880512Y-75855647D01*
X141880512Y-75855647D02*
X141870989Y-75893742D01*
X141870989Y-75893742D02*
X141861465Y-75969933D01*
X141861465Y-75969933D02*
X141861465Y-76065171D01*
X141861465Y-76065171D02*
X141870989Y-76141361D01*
X141870989Y-76141361D02*
X141880512Y-76179457D01*
X141880512Y-76179457D02*
X141890036Y-76198504D01*
X141890036Y-76198504D02*
X141909084Y-76217552D01*
X144017552Y-76247618D02*
X144017552Y-76133332D01*
X143617552Y-76190475D02*
X144017552Y-76190475D01*
X143617552Y-75961904D02*
X143617552Y-76076189D01*
X143617552Y-76019046D02*
X144017552Y-76019046D01*
X144017552Y-76019046D02*
X143960409Y-76038094D01*
X143960409Y-76038094D02*
X143922314Y-76057142D01*
X143922314Y-76057142D02*
X143903266Y-76076189D01*
X144017552Y-75838094D02*
X144017552Y-75819047D01*
X144017552Y-75819047D02*
X143998504Y-75799999D01*
X143998504Y-75799999D02*
X143979457Y-75790475D01*
X143979457Y-75790475D02*
X143941361Y-75780951D01*
X143941361Y-75780951D02*
X143865171Y-75771428D01*
X143865171Y-75771428D02*
X143769933Y-75771428D01*
X143769933Y-75771428D02*
X143693742Y-75780951D01*
X143693742Y-75780951D02*
X143655647Y-75790475D01*
X143655647Y-75790475D02*
X143636600Y-75799999D01*
X143636600Y-75799999D02*
X143617552Y-75819047D01*
X143617552Y-75819047D02*
X143617552Y-75838094D01*
X143617552Y-75838094D02*
X143636600Y-75857142D01*
X143636600Y-75857142D02*
X143655647Y-75866666D01*
X143655647Y-75866666D02*
X143693742Y-75876189D01*
X143693742Y-75876189D02*
X143769933Y-75885713D01*
X143769933Y-75885713D02*
X143865171Y-75885713D01*
X143865171Y-75885713D02*
X143941361Y-75876189D01*
X143941361Y-75876189D02*
X143979457Y-75866666D01*
X143979457Y-75866666D02*
X143998504Y-75857142D01*
X143998504Y-75857142D02*
X144017552Y-75838094D01*
X135913400Y-83720989D02*
X135932447Y-83749560D01*
X135932447Y-83749560D02*
X135932447Y-83797179D01*
X135932447Y-83797179D02*
X135913400Y-83816227D01*
X135913400Y-83816227D02*
X135894352Y-83825751D01*
X135894352Y-83825751D02*
X135856257Y-83835274D01*
X135856257Y-83835274D02*
X135818161Y-83835274D01*
X135818161Y-83835274D02*
X135780066Y-83825751D01*
X135780066Y-83825751D02*
X135761019Y-83816227D01*
X135761019Y-83816227D02*
X135741971Y-83797179D01*
X135741971Y-83797179D02*
X135722923Y-83759084D01*
X135722923Y-83759084D02*
X135703876Y-83740036D01*
X135703876Y-83740036D02*
X135684828Y-83730513D01*
X135684828Y-83730513D02*
X135646733Y-83720989D01*
X135646733Y-83720989D02*
X135608638Y-83720989D01*
X135608638Y-83720989D02*
X135570542Y-83730513D01*
X135570542Y-83730513D02*
X135551495Y-83740036D01*
X135551495Y-83740036D02*
X135532447Y-83759084D01*
X135532447Y-83759084D02*
X135532447Y-83806703D01*
X135532447Y-83806703D02*
X135551495Y-83835274D01*
X135932447Y-83920989D02*
X135532447Y-83920989D01*
X135532447Y-83920989D02*
X135532447Y-83968608D01*
X135532447Y-83968608D02*
X135551495Y-83997179D01*
X135551495Y-83997179D02*
X135589590Y-84016227D01*
X135589590Y-84016227D02*
X135627685Y-84025750D01*
X135627685Y-84025750D02*
X135703876Y-84035274D01*
X135703876Y-84035274D02*
X135761019Y-84035274D01*
X135761019Y-84035274D02*
X135837209Y-84025750D01*
X135837209Y-84025750D02*
X135875304Y-84016227D01*
X135875304Y-84016227D02*
X135913400Y-83997179D01*
X135913400Y-83997179D02*
X135932447Y-83968608D01*
X135932447Y-83968608D02*
X135932447Y-83920989D01*
X135532447Y-84159084D02*
X135532447Y-84197179D01*
X135532447Y-84197179D02*
X135551495Y-84216227D01*
X135551495Y-84216227D02*
X135589590Y-84235274D01*
X135589590Y-84235274D02*
X135665780Y-84244798D01*
X135665780Y-84244798D02*
X135799114Y-84244798D01*
X135799114Y-84244798D02*
X135875304Y-84235274D01*
X135875304Y-84235274D02*
X135913400Y-84216227D01*
X135913400Y-84216227D02*
X135932447Y-84197179D01*
X135932447Y-84197179D02*
X135932447Y-84159084D01*
X135932447Y-84159084D02*
X135913400Y-84140036D01*
X135913400Y-84140036D02*
X135875304Y-84120989D01*
X135875304Y-84120989D02*
X135799114Y-84111465D01*
X135799114Y-84111465D02*
X135665780Y-84111465D01*
X135665780Y-84111465D02*
X135589590Y-84120989D01*
X135589590Y-84120989D02*
X135551495Y-84140036D01*
X135551495Y-84140036D02*
X135532447Y-84159084D01*
X135597619Y-86267552D02*
X135711905Y-86267552D01*
X135654762Y-85867552D02*
X135654762Y-86267552D01*
X135759524Y-86267552D02*
X135892857Y-86267552D01*
X135892857Y-86267552D02*
X135807143Y-85867552D01*
X141480513Y-77527077D02*
X141547179Y-77527077D01*
X141575751Y-77317553D02*
X141480513Y-77317553D01*
X141480513Y-77317553D02*
X141480513Y-77717553D01*
X141480513Y-77717553D02*
X141575751Y-77717553D01*
X141661465Y-77317553D02*
X141661465Y-77717553D01*
X141661465Y-77717553D02*
X141775750Y-77317553D01*
X141775750Y-77317553D02*
X141775750Y-77717553D01*
X144017552Y-77747619D02*
X144017552Y-77633333D01*
X143617552Y-77690476D02*
X144017552Y-77690476D01*
X143617552Y-77461905D02*
X143617552Y-77576190D01*
X143617552Y-77519047D02*
X144017552Y-77519047D01*
X144017552Y-77519047D02*
X143960409Y-77538095D01*
X143960409Y-77538095D02*
X143922314Y-77557143D01*
X143922314Y-77557143D02*
X143903266Y-77576190D01*
X143884219Y-77290476D02*
X143617552Y-77290476D01*
X144036600Y-77338095D02*
X143750885Y-77385714D01*
X143750885Y-77385714D02*
X143750885Y-77261905D01*
X146019486Y-76182447D02*
X146019486Y-75782447D01*
X146019486Y-75782447D02*
X145971867Y-75782447D01*
X145971867Y-75782447D02*
X145943296Y-75801495D01*
X145943296Y-75801495D02*
X145924248Y-75839590D01*
X145924248Y-75839590D02*
X145914725Y-75877685D01*
X145914725Y-75877685D02*
X145905201Y-75953876D01*
X145905201Y-75953876D02*
X145905201Y-76011019D01*
X145905201Y-76011019D02*
X145914725Y-76087209D01*
X145914725Y-76087209D02*
X145924248Y-76125304D01*
X145924248Y-76125304D02*
X145943296Y-76163400D01*
X145943296Y-76163400D02*
X145971867Y-76182447D01*
X145971867Y-76182447D02*
X146019486Y-76182447D01*
X145819486Y-76182447D02*
X145819486Y-75782447D01*
X145733772Y-76068161D02*
X145638534Y-76068161D01*
X145752820Y-76182447D02*
X145686153Y-75782447D01*
X145686153Y-75782447D02*
X145619487Y-76182447D01*
X145448058Y-75801495D02*
X145467105Y-75782447D01*
X145467105Y-75782447D02*
X145495677Y-75782447D01*
X145495677Y-75782447D02*
X145524248Y-75801495D01*
X145524248Y-75801495D02*
X145543296Y-75839590D01*
X145543296Y-75839590D02*
X145552819Y-75877685D01*
X145552819Y-75877685D02*
X145562343Y-75953876D01*
X145562343Y-75953876D02*
X145562343Y-76011019D01*
X145562343Y-76011019D02*
X145552819Y-76087209D01*
X145552819Y-76087209D02*
X145543296Y-76125304D01*
X145543296Y-76125304D02*
X145524248Y-76163400D01*
X145524248Y-76163400D02*
X145495677Y-76182447D01*
X145495677Y-76182447D02*
X145476629Y-76182447D01*
X145476629Y-76182447D02*
X145448058Y-76163400D01*
X145448058Y-76163400D02*
X145438534Y-76144352D01*
X145438534Y-76144352D02*
X145438534Y-76011019D01*
X145438534Y-76011019D02*
X145476629Y-76011019D01*
X145248058Y-76182447D02*
X145362343Y-76182447D01*
X145305200Y-76182447D02*
X145305200Y-75782447D01*
X145305200Y-75782447D02*
X145324248Y-75839590D01*
X145324248Y-75839590D02*
X145343296Y-75877685D01*
X145343296Y-75877685D02*
X145362343Y-75896733D01*
X143482447Y-75752381D02*
X143482447Y-75866667D01*
X143882447Y-75809524D02*
X143482447Y-75809524D01*
X143882447Y-76038095D02*
X143882447Y-75923810D01*
X143882447Y-75980953D02*
X143482447Y-75980953D01*
X143482447Y-75980953D02*
X143539590Y-75961905D01*
X143539590Y-75961905D02*
X143577685Y-75942857D01*
X143577685Y-75942857D02*
X143596733Y-75923810D01*
X143653876Y-76152381D02*
X143634828Y-76133333D01*
X143634828Y-76133333D02*
X143615780Y-76123810D01*
X143615780Y-76123810D02*
X143577685Y-76114286D01*
X143577685Y-76114286D02*
X143558638Y-76114286D01*
X143558638Y-76114286D02*
X143520542Y-76123810D01*
X143520542Y-76123810D02*
X143501495Y-76133333D01*
X143501495Y-76133333D02*
X143482447Y-76152381D01*
X143482447Y-76152381D02*
X143482447Y-76190476D01*
X143482447Y-76190476D02*
X143501495Y-76209524D01*
X143501495Y-76209524D02*
X143520542Y-76219048D01*
X143520542Y-76219048D02*
X143558638Y-76228571D01*
X143558638Y-76228571D02*
X143577685Y-76228571D01*
X143577685Y-76228571D02*
X143615780Y-76219048D01*
X143615780Y-76219048D02*
X143634828Y-76209524D01*
X143634828Y-76209524D02*
X143653876Y-76190476D01*
X143653876Y-76190476D02*
X143653876Y-76152381D01*
X143653876Y-76152381D02*
X143672923Y-76133333D01*
X143672923Y-76133333D02*
X143691971Y-76123810D01*
X143691971Y-76123810D02*
X143730066Y-76114286D01*
X143730066Y-76114286D02*
X143806257Y-76114286D01*
X143806257Y-76114286D02*
X143844352Y-76123810D01*
X143844352Y-76123810D02*
X143863400Y-76133333D01*
X143863400Y-76133333D02*
X143882447Y-76152381D01*
X143882447Y-76152381D02*
X143882447Y-76190476D01*
X143882447Y-76190476D02*
X143863400Y-76209524D01*
X143863400Y-76209524D02*
X143844352Y-76219048D01*
X143844352Y-76219048D02*
X143806257Y-76228571D01*
X143806257Y-76228571D02*
X143730066Y-76228571D01*
X143730066Y-76228571D02*
X143691971Y-76219048D01*
X143691971Y-76219048D02*
X143672923Y-76209524D01*
X143672923Y-76209524D02*
X143653876Y-76190476D01*
X132913400Y-83720989D02*
X132932447Y-83749560D01*
X132932447Y-83749560D02*
X132932447Y-83797179D01*
X132932447Y-83797179D02*
X132913400Y-83816227D01*
X132913400Y-83816227D02*
X132894352Y-83825751D01*
X132894352Y-83825751D02*
X132856257Y-83835274D01*
X132856257Y-83835274D02*
X132818161Y-83835274D01*
X132818161Y-83835274D02*
X132780066Y-83825751D01*
X132780066Y-83825751D02*
X132761019Y-83816227D01*
X132761019Y-83816227D02*
X132741971Y-83797179D01*
X132741971Y-83797179D02*
X132722923Y-83759084D01*
X132722923Y-83759084D02*
X132703876Y-83740036D01*
X132703876Y-83740036D02*
X132684828Y-83730513D01*
X132684828Y-83730513D02*
X132646733Y-83720989D01*
X132646733Y-83720989D02*
X132608638Y-83720989D01*
X132608638Y-83720989D02*
X132570542Y-83730513D01*
X132570542Y-83730513D02*
X132551495Y-83740036D01*
X132551495Y-83740036D02*
X132532447Y-83759084D01*
X132532447Y-83759084D02*
X132532447Y-83806703D01*
X132532447Y-83806703D02*
X132551495Y-83835274D01*
X132932447Y-83920989D02*
X132532447Y-83920989D01*
X132532447Y-83920989D02*
X132532447Y-83968608D01*
X132532447Y-83968608D02*
X132551495Y-83997179D01*
X132551495Y-83997179D02*
X132589590Y-84016227D01*
X132589590Y-84016227D02*
X132627685Y-84025750D01*
X132627685Y-84025750D02*
X132703876Y-84035274D01*
X132703876Y-84035274D02*
X132761019Y-84035274D01*
X132761019Y-84035274D02*
X132837209Y-84025750D01*
X132837209Y-84025750D02*
X132875304Y-84016227D01*
X132875304Y-84016227D02*
X132913400Y-83997179D01*
X132913400Y-83997179D02*
X132932447Y-83968608D01*
X132932447Y-83968608D02*
X132932447Y-83920989D01*
X132932447Y-84120989D02*
X132532447Y-84120989D01*
X132597619Y-86267552D02*
X132711905Y-86267552D01*
X132654762Y-85867552D02*
X132654762Y-86267552D01*
X132864286Y-86267552D02*
X132826191Y-86267552D01*
X132826191Y-86267552D02*
X132807143Y-86248504D01*
X132807143Y-86248504D02*
X132797619Y-86229457D01*
X132797619Y-86229457D02*
X132778572Y-86172314D01*
X132778572Y-86172314D02*
X132769048Y-86096123D01*
X132769048Y-86096123D02*
X132769048Y-85943742D01*
X132769048Y-85943742D02*
X132778572Y-85905647D01*
X132778572Y-85905647D02*
X132788095Y-85886600D01*
X132788095Y-85886600D02*
X132807143Y-85867552D01*
X132807143Y-85867552D02*
X132845238Y-85867552D01*
X132845238Y-85867552D02*
X132864286Y-85886600D01*
X132864286Y-85886600D02*
X132873810Y-85905647D01*
X132873810Y-85905647D02*
X132883333Y-85943742D01*
X132883333Y-85943742D02*
X132883333Y-86038980D01*
X132883333Y-86038980D02*
X132873810Y-86077076D01*
X132873810Y-86077076D02*
X132864286Y-86096123D01*
X132864286Y-86096123D02*
X132845238Y-86115171D01*
X132845238Y-86115171D02*
X132807143Y-86115171D01*
X132807143Y-86115171D02*
X132788095Y-86096123D01*
X132788095Y-86096123D02*
X132778572Y-86077076D01*
X132778572Y-86077076D02*
X132769048Y-86038980D01*
X141480513Y-78817552D02*
X141480513Y-79217552D01*
X141480513Y-79217552D02*
X141528132Y-79217552D01*
X141528132Y-79217552D02*
X141556703Y-79198504D01*
X141556703Y-79198504D02*
X141575751Y-79160409D01*
X141575751Y-79160409D02*
X141585274Y-79122314D01*
X141585274Y-79122314D02*
X141594798Y-79046123D01*
X141594798Y-79046123D02*
X141594798Y-78988980D01*
X141594798Y-78988980D02*
X141585274Y-78912790D01*
X141585274Y-78912790D02*
X141575751Y-78874695D01*
X141575751Y-78874695D02*
X141556703Y-78836600D01*
X141556703Y-78836600D02*
X141528132Y-78817552D01*
X141528132Y-78817552D02*
X141480513Y-78817552D01*
X141680513Y-78817552D02*
X141680513Y-79217552D01*
X141890036Y-78817552D02*
X141823370Y-79008028D01*
X141775751Y-78817552D02*
X141775751Y-79217552D01*
X141775751Y-79217552D02*
X141851941Y-79217552D01*
X141851941Y-79217552D02*
X141870989Y-79198504D01*
X141870989Y-79198504D02*
X141880512Y-79179457D01*
X141880512Y-79179457D02*
X141890036Y-79141361D01*
X141890036Y-79141361D02*
X141890036Y-79084219D01*
X141890036Y-79084219D02*
X141880512Y-79046123D01*
X141880512Y-79046123D02*
X141870989Y-79027076D01*
X141870989Y-79027076D02*
X141851941Y-79008028D01*
X141851941Y-79008028D02*
X141775751Y-79008028D01*
X144017552Y-79247618D02*
X144017552Y-79133332D01*
X143617552Y-79190475D02*
X144017552Y-79190475D01*
X143617552Y-78961904D02*
X143617552Y-79076189D01*
X143617552Y-79019046D02*
X144017552Y-79019046D01*
X144017552Y-79019046D02*
X143960409Y-79038094D01*
X143960409Y-79038094D02*
X143922314Y-79057142D01*
X143922314Y-79057142D02*
X143903266Y-79076189D01*
X144017552Y-78895237D02*
X144017552Y-78771428D01*
X144017552Y-78771428D02*
X143865171Y-78838094D01*
X143865171Y-78838094D02*
X143865171Y-78809523D01*
X143865171Y-78809523D02*
X143846123Y-78790475D01*
X143846123Y-78790475D02*
X143827076Y-78780951D01*
X143827076Y-78780951D02*
X143788980Y-78771428D01*
X143788980Y-78771428D02*
X143693742Y-78771428D01*
X143693742Y-78771428D02*
X143655647Y-78780951D01*
X143655647Y-78780951D02*
X143636600Y-78790475D01*
X143636600Y-78790475D02*
X143617552Y-78809523D01*
X143617552Y-78809523D02*
X143617552Y-78866666D01*
X143617552Y-78866666D02*
X143636600Y-78885713D01*
X143636600Y-78885713D02*
X143655647Y-78895237D01*
X129932447Y-83835274D02*
X129932447Y-83720989D01*
X129932447Y-83778132D02*
X129532447Y-83778132D01*
X129532447Y-83778132D02*
X129589590Y-83759084D01*
X129589590Y-83759084D02*
X129627685Y-83740036D01*
X129627685Y-83740036D02*
X129646733Y-83720989D01*
X129570542Y-83911465D02*
X129551495Y-83920989D01*
X129551495Y-83920989D02*
X129532447Y-83940036D01*
X129532447Y-83940036D02*
X129532447Y-83987655D01*
X129532447Y-83987655D02*
X129551495Y-84006703D01*
X129551495Y-84006703D02*
X129570542Y-84016227D01*
X129570542Y-84016227D02*
X129608638Y-84025750D01*
X129608638Y-84025750D02*
X129646733Y-84025750D01*
X129646733Y-84025750D02*
X129703876Y-84016227D01*
X129703876Y-84016227D02*
X129932447Y-83901941D01*
X129932447Y-83901941D02*
X129932447Y-84025750D01*
X129532447Y-84082893D02*
X129932447Y-84149560D01*
X129932447Y-84149560D02*
X129532447Y-84216226D01*
X129597619Y-86267552D02*
X129711905Y-86267552D01*
X129654762Y-85867552D02*
X129654762Y-86267552D01*
X129759524Y-86267552D02*
X129883333Y-86267552D01*
X129883333Y-86267552D02*
X129816667Y-86115171D01*
X129816667Y-86115171D02*
X129845238Y-86115171D01*
X129845238Y-86115171D02*
X129864286Y-86096123D01*
X129864286Y-86096123D02*
X129873810Y-86077076D01*
X129873810Y-86077076D02*
X129883333Y-86038980D01*
X129883333Y-86038980D02*
X129883333Y-85943742D01*
X129883333Y-85943742D02*
X129873810Y-85905647D01*
X129873810Y-85905647D02*
X129864286Y-85886600D01*
X129864286Y-85886600D02*
X129845238Y-85867552D01*
X129845238Y-85867552D02*
X129788095Y-85867552D01*
X129788095Y-85867552D02*
X129769048Y-85886600D01*
X129769048Y-85886600D02*
X129759524Y-85905647D01*
X128394352Y-83844798D02*
X128413400Y-83835274D01*
X128413400Y-83835274D02*
X128432447Y-83806703D01*
X128432447Y-83806703D02*
X128432447Y-83787655D01*
X128432447Y-83787655D02*
X128413400Y-83759084D01*
X128413400Y-83759084D02*
X128375304Y-83740036D01*
X128375304Y-83740036D02*
X128337209Y-83730513D01*
X128337209Y-83730513D02*
X128261019Y-83720989D01*
X128261019Y-83720989D02*
X128203876Y-83720989D01*
X128203876Y-83720989D02*
X128127685Y-83730513D01*
X128127685Y-83730513D02*
X128089590Y-83740036D01*
X128089590Y-83740036D02*
X128051495Y-83759084D01*
X128051495Y-83759084D02*
X128032447Y-83787655D01*
X128032447Y-83787655D02*
X128032447Y-83806703D01*
X128032447Y-83806703D02*
X128051495Y-83835274D01*
X128051495Y-83835274D02*
X128070542Y-83844798D01*
X128432447Y-84025751D02*
X128432447Y-83930513D01*
X128432447Y-83930513D02*
X128032447Y-83930513D01*
X128432447Y-84092418D02*
X128032447Y-84092418D01*
X128432447Y-84206703D02*
X128203876Y-84120989D01*
X128032447Y-84206703D02*
X128261019Y-84092418D01*
X128097619Y-86267552D02*
X128211905Y-86267552D01*
X128154762Y-85867552D02*
X128154762Y-86267552D01*
X128269048Y-86229457D02*
X128278572Y-86248504D01*
X128278572Y-86248504D02*
X128297619Y-86267552D01*
X128297619Y-86267552D02*
X128345238Y-86267552D01*
X128345238Y-86267552D02*
X128364286Y-86248504D01*
X128364286Y-86248504D02*
X128373810Y-86229457D01*
X128373810Y-86229457D02*
X128383333Y-86191361D01*
X128383333Y-86191361D02*
X128383333Y-86153266D01*
X128383333Y-86153266D02*
X128373810Y-86096123D01*
X128373810Y-86096123D02*
X128259524Y-85867552D01*
X128259524Y-85867552D02*
X128383333Y-85867552D01*
X141470989Y-81836600D02*
X141499560Y-81817552D01*
X141499560Y-81817552D02*
X141547179Y-81817552D01*
X141547179Y-81817552D02*
X141566227Y-81836600D01*
X141566227Y-81836600D02*
X141575751Y-81855647D01*
X141575751Y-81855647D02*
X141585274Y-81893742D01*
X141585274Y-81893742D02*
X141585274Y-81931838D01*
X141585274Y-81931838D02*
X141575751Y-81969933D01*
X141575751Y-81969933D02*
X141566227Y-81988980D01*
X141566227Y-81988980D02*
X141547179Y-82008028D01*
X141547179Y-82008028D02*
X141509084Y-82027076D01*
X141509084Y-82027076D02*
X141490036Y-82046123D01*
X141490036Y-82046123D02*
X141480513Y-82065171D01*
X141480513Y-82065171D02*
X141470989Y-82103266D01*
X141470989Y-82103266D02*
X141470989Y-82141361D01*
X141470989Y-82141361D02*
X141480513Y-82179457D01*
X141480513Y-82179457D02*
X141490036Y-82198504D01*
X141490036Y-82198504D02*
X141509084Y-82217552D01*
X141509084Y-82217552D02*
X141556703Y-82217552D01*
X141556703Y-82217552D02*
X141585274Y-82198504D01*
X141642417Y-82217552D02*
X141756703Y-82217552D01*
X141699560Y-81817552D02*
X141699560Y-82217552D01*
X141823370Y-82027076D02*
X141890036Y-82027076D01*
X141918608Y-81817552D02*
X141823370Y-81817552D01*
X141823370Y-81817552D02*
X141823370Y-82217552D01*
X141823370Y-82217552D02*
X141918608Y-82217552D01*
X142004322Y-81817552D02*
X142004322Y-82217552D01*
X142004322Y-82217552D02*
X142080512Y-82217552D01*
X142080512Y-82217552D02*
X142099560Y-82198504D01*
X142099560Y-82198504D02*
X142109083Y-82179457D01*
X142109083Y-82179457D02*
X142118607Y-82141361D01*
X142118607Y-82141361D02*
X142118607Y-82084219D01*
X142118607Y-82084219D02*
X142109083Y-82046123D01*
X142109083Y-82046123D02*
X142099560Y-82027076D01*
X142099560Y-82027076D02*
X142080512Y-82008028D01*
X142080512Y-82008028D02*
X142004322Y-82008028D01*
X144017552Y-82247618D02*
X144017552Y-82133332D01*
X143617552Y-82190475D02*
X144017552Y-82190475D01*
X143617552Y-81961904D02*
X143617552Y-82076189D01*
X143617552Y-82019046D02*
X144017552Y-82019046D01*
X144017552Y-82019046D02*
X143960409Y-82038094D01*
X143960409Y-82038094D02*
X143922314Y-82057142D01*
X143922314Y-82057142D02*
X143903266Y-82076189D01*
X143617552Y-81771428D02*
X143617552Y-81885713D01*
X143617552Y-81828570D02*
X144017552Y-81828570D01*
X144017552Y-81828570D02*
X143960409Y-81847618D01*
X143960409Y-81847618D02*
X143922314Y-81866666D01*
X143922314Y-81866666D02*
X143903266Y-81885713D01*
X131413400Y-83720989D02*
X131432447Y-83749560D01*
X131432447Y-83749560D02*
X131432447Y-83797179D01*
X131432447Y-83797179D02*
X131413400Y-83816227D01*
X131413400Y-83816227D02*
X131394352Y-83825751D01*
X131394352Y-83825751D02*
X131356257Y-83835274D01*
X131356257Y-83835274D02*
X131318161Y-83835274D01*
X131318161Y-83835274D02*
X131280066Y-83825751D01*
X131280066Y-83825751D02*
X131261019Y-83816227D01*
X131261019Y-83816227D02*
X131241971Y-83797179D01*
X131241971Y-83797179D02*
X131222923Y-83759084D01*
X131222923Y-83759084D02*
X131203876Y-83740036D01*
X131203876Y-83740036D02*
X131184828Y-83730513D01*
X131184828Y-83730513D02*
X131146733Y-83720989D01*
X131146733Y-83720989D02*
X131108638Y-83720989D01*
X131108638Y-83720989D02*
X131070542Y-83730513D01*
X131070542Y-83730513D02*
X131051495Y-83740036D01*
X131051495Y-83740036D02*
X131032447Y-83759084D01*
X131032447Y-83759084D02*
X131032447Y-83806703D01*
X131032447Y-83806703D02*
X131051495Y-83835274D01*
X131394352Y-84035274D02*
X131413400Y-84025750D01*
X131413400Y-84025750D02*
X131432447Y-83997179D01*
X131432447Y-83997179D02*
X131432447Y-83978131D01*
X131432447Y-83978131D02*
X131413400Y-83949560D01*
X131413400Y-83949560D02*
X131375304Y-83930512D01*
X131375304Y-83930512D02*
X131337209Y-83920989D01*
X131337209Y-83920989D02*
X131261019Y-83911465D01*
X131261019Y-83911465D02*
X131203876Y-83911465D01*
X131203876Y-83911465D02*
X131127685Y-83920989D01*
X131127685Y-83920989D02*
X131089590Y-83930512D01*
X131089590Y-83930512D02*
X131051495Y-83949560D01*
X131051495Y-83949560D02*
X131032447Y-83978131D01*
X131032447Y-83978131D02*
X131032447Y-83997179D01*
X131032447Y-83997179D02*
X131051495Y-84025750D01*
X131051495Y-84025750D02*
X131070542Y-84035274D01*
X131432447Y-84120989D02*
X131032447Y-84120989D01*
X131432447Y-84235274D02*
X131203876Y-84149560D01*
X131032447Y-84235274D02*
X131261019Y-84120989D01*
X131097619Y-86267552D02*
X131211905Y-86267552D01*
X131154762Y-85867552D02*
X131154762Y-86267552D01*
X131364286Y-86134219D02*
X131364286Y-85867552D01*
X131316667Y-86286600D02*
X131269048Y-86000885D01*
X131269048Y-86000885D02*
X131392857Y-86000885D01*
X134051495Y-83835274D02*
X134032447Y-83816227D01*
X134032447Y-83816227D02*
X134032447Y-83787655D01*
X134032447Y-83787655D02*
X134051495Y-83759084D01*
X134051495Y-83759084D02*
X134089590Y-83740036D01*
X134089590Y-83740036D02*
X134127685Y-83730513D01*
X134127685Y-83730513D02*
X134203876Y-83720989D01*
X134203876Y-83720989D02*
X134261019Y-83720989D01*
X134261019Y-83720989D02*
X134337209Y-83730513D01*
X134337209Y-83730513D02*
X134375304Y-83740036D01*
X134375304Y-83740036D02*
X134413400Y-83759084D01*
X134413400Y-83759084D02*
X134432447Y-83787655D01*
X134432447Y-83787655D02*
X134432447Y-83806703D01*
X134432447Y-83806703D02*
X134413400Y-83835274D01*
X134413400Y-83835274D02*
X134394352Y-83844798D01*
X134394352Y-83844798D02*
X134261019Y-83844798D01*
X134261019Y-83844798D02*
X134261019Y-83806703D01*
X134432447Y-83930513D02*
X134032447Y-83930513D01*
X134032447Y-83930513D02*
X134432447Y-84044798D01*
X134432447Y-84044798D02*
X134032447Y-84044798D01*
X134432447Y-84140037D02*
X134032447Y-84140037D01*
X134032447Y-84140037D02*
X134032447Y-84187656D01*
X134032447Y-84187656D02*
X134051495Y-84216227D01*
X134051495Y-84216227D02*
X134089590Y-84235275D01*
X134089590Y-84235275D02*
X134127685Y-84244798D01*
X134127685Y-84244798D02*
X134203876Y-84254322D01*
X134203876Y-84254322D02*
X134261019Y-84254322D01*
X134261019Y-84254322D02*
X134337209Y-84244798D01*
X134337209Y-84244798D02*
X134375304Y-84235275D01*
X134375304Y-84235275D02*
X134413400Y-84216227D01*
X134413400Y-84216227D02*
X134432447Y-84187656D01*
X134432447Y-84187656D02*
X134432447Y-84140037D01*
X134097619Y-86267552D02*
X134211905Y-86267552D01*
X134154762Y-85867552D02*
X134154762Y-86267552D01*
X134373810Y-86267552D02*
X134278572Y-86267552D01*
X134278572Y-86267552D02*
X134269048Y-86077076D01*
X134269048Y-86077076D02*
X134278572Y-86096123D01*
X134278572Y-86096123D02*
X134297619Y-86115171D01*
X134297619Y-86115171D02*
X134345238Y-86115171D01*
X134345238Y-86115171D02*
X134364286Y-86096123D01*
X134364286Y-86096123D02*
X134373810Y-86077076D01*
X134373810Y-86077076D02*
X134383333Y-86038980D01*
X134383333Y-86038980D02*
X134383333Y-85943742D01*
X134383333Y-85943742D02*
X134373810Y-85905647D01*
X134373810Y-85905647D02*
X134364286Y-85886600D01*
X134364286Y-85886600D02*
X134345238Y-85867552D01*
X134345238Y-85867552D02*
X134297619Y-85867552D01*
X134297619Y-85867552D02*
X134278572Y-85886600D01*
X134278572Y-85886600D02*
X134269048Y-85905647D01*
X141585274Y-80698504D02*
X141566227Y-80717552D01*
X141566227Y-80717552D02*
X141537655Y-80717552D01*
X141537655Y-80717552D02*
X141509084Y-80698504D01*
X141509084Y-80698504D02*
X141490036Y-80660409D01*
X141490036Y-80660409D02*
X141480513Y-80622314D01*
X141480513Y-80622314D02*
X141470989Y-80546123D01*
X141470989Y-80546123D02*
X141470989Y-80488980D01*
X141470989Y-80488980D02*
X141480513Y-80412790D01*
X141480513Y-80412790D02*
X141490036Y-80374695D01*
X141490036Y-80374695D02*
X141509084Y-80336600D01*
X141509084Y-80336600D02*
X141537655Y-80317552D01*
X141537655Y-80317552D02*
X141556703Y-80317552D01*
X141556703Y-80317552D02*
X141585274Y-80336600D01*
X141585274Y-80336600D02*
X141594798Y-80355647D01*
X141594798Y-80355647D02*
X141594798Y-80488980D01*
X141594798Y-80488980D02*
X141556703Y-80488980D01*
X141680513Y-80317552D02*
X141680513Y-80717552D01*
X141680513Y-80717552D02*
X141794798Y-80317552D01*
X141794798Y-80317552D02*
X141794798Y-80717552D01*
X141890037Y-80317552D02*
X141890037Y-80717552D01*
X141890037Y-80717552D02*
X141937656Y-80717552D01*
X141937656Y-80717552D02*
X141966227Y-80698504D01*
X141966227Y-80698504D02*
X141985275Y-80660409D01*
X141985275Y-80660409D02*
X141994798Y-80622314D01*
X141994798Y-80622314D02*
X142004322Y-80546123D01*
X142004322Y-80546123D02*
X142004322Y-80488980D01*
X142004322Y-80488980D02*
X141994798Y-80412790D01*
X141994798Y-80412790D02*
X141985275Y-80374695D01*
X141985275Y-80374695D02*
X141966227Y-80336600D01*
X141966227Y-80336600D02*
X141937656Y-80317552D01*
X141937656Y-80317552D02*
X141890037Y-80317552D01*
X144017552Y-80747618D02*
X144017552Y-80633332D01*
X143617552Y-80690475D02*
X144017552Y-80690475D01*
X143617552Y-80461904D02*
X143617552Y-80576189D01*
X143617552Y-80519046D02*
X144017552Y-80519046D01*
X144017552Y-80519046D02*
X143960409Y-80538094D01*
X143960409Y-80538094D02*
X143922314Y-80557142D01*
X143922314Y-80557142D02*
X143903266Y-80576189D01*
X143979457Y-80385713D02*
X143998504Y-80376189D01*
X143998504Y-80376189D02*
X144017552Y-80357142D01*
X144017552Y-80357142D02*
X144017552Y-80309523D01*
X144017552Y-80309523D02*
X143998504Y-80290475D01*
X143998504Y-80290475D02*
X143979457Y-80280951D01*
X143979457Y-80280951D02*
X143941361Y-80271428D01*
X143941361Y-80271428D02*
X143903266Y-80271428D01*
X143903266Y-80271428D02*
X143846123Y-80280951D01*
X143846123Y-80280951D02*
X143617552Y-80395237D01*
X143617552Y-80395237D02*
X143617552Y-80271428D01*
%TO.C,T17*%
X145426777Y-77323223D02*
X145073223Y-77676777D01*
X145073223Y-77323223D02*
X145426777Y-77676777D01*
D11*
X144750000Y-77000000D02*
X148250000Y-77000000D01*
X148250000Y-77000000D02*
X148250000Y-78000000D01*
X148250000Y-78000000D02*
X144750000Y-78000000D01*
X144750000Y-78000000D02*
X144750000Y-77000000D01*
D10*
X145500000Y-77500000D02*
G75*
G03*
X145500000Y-77500000I-250000J0D01*
G01*
%TO.C,T8*%
X137073223Y-84323223D02*
X137426777Y-84676777D01*
X137073223Y-84676777D02*
X137426777Y-84323223D01*
D11*
X136750000Y-85000000D02*
X137750000Y-85000000D01*
X137750000Y-85000000D02*
X137750000Y-81500000D01*
X137750000Y-81500000D02*
X136750000Y-81500000D01*
X136750000Y-81500000D02*
X136750000Y-85000000D01*
D10*
X137500000Y-84500000D02*
G75*
G03*
X137500000Y-84500000I-250000J0D01*
G01*
%TO.C,T10*%
X142073223Y-76176777D02*
X142426777Y-75823223D01*
X142426777Y-76176777D02*
X142073223Y-75823223D01*
D11*
X142750000Y-76500000D02*
X139250000Y-76500000D01*
X139250000Y-76500000D02*
X139250000Y-75500000D01*
X139250000Y-75500000D02*
X142750000Y-75500000D01*
X142750000Y-75500000D02*
X142750000Y-76500000D01*
D10*
X142500000Y-76000000D02*
G75*
G03*
X142500000Y-76000000I-250000J0D01*
G01*
%TO.C,T7*%
X135573223Y-84323223D02*
X135926777Y-84676777D01*
X135573223Y-84676777D02*
X135926777Y-84323223D01*
D11*
X135250000Y-85000000D02*
X136250000Y-85000000D01*
X136250000Y-85000000D02*
X136250000Y-81500000D01*
X136250000Y-81500000D02*
X135250000Y-81500000D01*
X135250000Y-81500000D02*
X135250000Y-85000000D01*
D10*
X136000000Y-84500000D02*
G75*
G03*
X136000000Y-84500000I-250000J0D01*
G01*
%TO.C,T14*%
X142073223Y-77676778D02*
X142426777Y-77323224D01*
X142426777Y-77676778D02*
X142073223Y-77323224D01*
D11*
X142750000Y-78000001D02*
X139250000Y-78000001D01*
X139250000Y-78000001D02*
X139250000Y-77000001D01*
X139250000Y-77000001D02*
X142750000Y-77000001D01*
X142750000Y-77000001D02*
X142750000Y-78000001D01*
D10*
X142500000Y-77500001D02*
G75*
G03*
X142500000Y-77500001I-250000J0D01*
G01*
%TO.C,T18*%
X145426777Y-75823223D02*
X145073223Y-76176777D01*
X145073223Y-75823223D02*
X145426777Y-76176777D01*
D11*
X144750000Y-75500000D02*
X148250000Y-75500000D01*
X148250000Y-75500000D02*
X148250000Y-76500000D01*
X148250000Y-76500000D02*
X144750000Y-76500000D01*
X144750000Y-76500000D02*
X144750000Y-75500000D01*
D10*
X145500000Y-76000000D02*
G75*
G03*
X145500000Y-76000000I-250000J0D01*
G01*
%TO.C,T6*%
X132573223Y-84323223D02*
X132926777Y-84676777D01*
X132573223Y-84676777D02*
X132926777Y-84323223D01*
D11*
X132250000Y-85000000D02*
X133250000Y-85000000D01*
X133250000Y-85000000D02*
X133250000Y-81500000D01*
X133250000Y-81500000D02*
X132250000Y-81500000D01*
X132250000Y-81500000D02*
X132250000Y-85000000D01*
D10*
X133000000Y-84500000D02*
G75*
G03*
X133000000Y-84500000I-250000J0D01*
G01*
%TO.C,T13*%
X142073223Y-79176777D02*
X142426777Y-78823223D01*
X142426777Y-79176777D02*
X142073223Y-78823223D01*
D11*
X142750000Y-79500000D02*
X139250000Y-79500000D01*
X139250000Y-79500000D02*
X139250000Y-78500000D01*
X139250000Y-78500000D02*
X142750000Y-78500000D01*
X142750000Y-78500000D02*
X142750000Y-79500000D01*
D10*
X142500000Y-79000000D02*
G75*
G03*
X142500000Y-79000000I-250000J0D01*
G01*
%TO.C,T3*%
X129573223Y-84323223D02*
X129926777Y-84676777D01*
X129573223Y-84676777D02*
X129926777Y-84323223D01*
D11*
X129250000Y-85000000D02*
X130250000Y-85000000D01*
X130250000Y-85000000D02*
X130250000Y-81500000D01*
X130250000Y-81500000D02*
X129250000Y-81500000D01*
X129250000Y-81500000D02*
X129250000Y-85000000D01*
D10*
X130000000Y-84500000D02*
G75*
G03*
X130000000Y-84500000I-250000J0D01*
G01*
%TO.C,T2*%
X128073223Y-84323223D02*
X128426777Y-84676777D01*
X128073223Y-84676777D02*
X128426777Y-84323223D01*
D11*
X127750000Y-85000000D02*
X128750000Y-85000000D01*
X128750000Y-85000000D02*
X128750000Y-81500000D01*
X128750000Y-81500000D02*
X127750000Y-81500000D01*
X127750000Y-81500000D02*
X127750000Y-85000000D01*
D10*
X128500000Y-84500000D02*
G75*
G03*
X128500000Y-84500000I-250000J0D01*
G01*
%TO.C,T11*%
X142073223Y-82176777D02*
X142426777Y-81823223D01*
X142426777Y-82176777D02*
X142073223Y-81823223D01*
D11*
X142750000Y-82500000D02*
X139250000Y-82500000D01*
X139250000Y-82500000D02*
X139250000Y-81500000D01*
X139250000Y-81500000D02*
X142750000Y-81500000D01*
X142750000Y-81500000D02*
X142750000Y-82500000D01*
D10*
X142500000Y-82000000D02*
G75*
G03*
X142500000Y-82000000I-250000J0D01*
G01*
%TO.C,T4*%
X131073223Y-84323223D02*
X131426777Y-84676777D01*
X131073223Y-84676777D02*
X131426777Y-84323223D01*
D11*
X130750000Y-85000000D02*
X131750000Y-85000000D01*
X131750000Y-85000000D02*
X131750000Y-81500000D01*
X131750000Y-81500000D02*
X130750000Y-81500000D01*
X130750000Y-81500000D02*
X130750000Y-85000000D01*
D10*
X131500000Y-84500000D02*
G75*
G03*
X131500000Y-84500000I-250000J0D01*
G01*
%TO.C,T5*%
X134073223Y-84323223D02*
X134426777Y-84676777D01*
X134073223Y-84676777D02*
X134426777Y-84323223D01*
D11*
X133750000Y-85000000D02*
X134750000Y-85000000D01*
X134750000Y-85000000D02*
X134750000Y-81500000D01*
X134750000Y-81500000D02*
X133750000Y-81500000D01*
X133750000Y-81500000D02*
X133750000Y-85000000D01*
D10*
X134500000Y-84500000D02*
G75*
G03*
X134500000Y-84500000I-250000J0D01*
G01*
%TO.C,T12*%
X142073223Y-80676777D02*
X142426777Y-80323223D01*
X142426777Y-80676777D02*
X142073223Y-80323223D01*
D11*
X142750000Y-81000000D02*
X139250000Y-81000000D01*
X139250000Y-81000000D02*
X139250000Y-80000000D01*
X139250000Y-80000000D02*
X142750000Y-80000000D01*
X142750000Y-80000000D02*
X142750000Y-81000000D01*
D10*
X142500000Y-80500000D02*
G75*
G03*
X142500000Y-80500000I-250000J0D01*
G01*
%TD*%
M02*
