%TF.GenerationSoftware,KiCad,Pcbnew,7.0.8-7.0.8~ubuntu22.04.1*%
%TF.CreationDate,2023-11-12T23:56:44-08:00*%
%TF.ProjectId,driver-tmc2160,64726976-6572-42d7-946d-63323136302e,rev?*%
%TF.SameCoordinates,Original*%
%TF.FileFunction,Soldermask,Top*%
%TF.FilePolarity,Negative*%
%FSLAX46Y46*%
G04 Gerber Fmt 4.6, Leading zero omitted, Abs format (unit mm)*
G04 Created by KiCad (PCBNEW 7.0.8-7.0.8~ubuntu22.04.1) date 2023-11-12 23:56:44*
%MOMM*%
%LPD*%
G01*
G04 APERTURE LIST*
G04 Aperture macros list*
%AMRoundRect*
0 Rectangle with rounded corners*
0 $1 Rounding radius*
0 $2 $3 $4 $5 $6 $7 $8 $9 X,Y pos of 4 corners*
0 Add a 4 corners polygon primitive as box body*
4,1,4,$2,$3,$4,$5,$6,$7,$8,$9,$2,$3,0*
0 Add four circle primitives for the rounded corners*
1,1,$1+$1,$2,$3*
1,1,$1+$1,$4,$5*
1,1,$1+$1,$6,$7*
1,1,$1+$1,$8,$9*
0 Add four rect primitives between the rounded corners*
20,1,$1+$1,$2,$3,$4,$5,0*
20,1,$1+$1,$4,$5,$6,$7,0*
20,1,$1+$1,$6,$7,$8,$9,0*
20,1,$1+$1,$8,$9,$2,$3,0*%
%AMFreePoly0*
4,1,31,3.000000,0.000000,2.979715,-0.348279,2.919135,-0.691848,2.819078,-1.026060,2.680898,-1.346398,2.506463,-1.648527,2.298133,-1.928363,2.058725,-2.182121,1.791476,-2.406370,1.500000,-2.598076,1.188239,-2.754648,0.860410,-2.873969,0.520945,-2.954423,0.174434,-2.994924,-0.174434,-2.994924,-0.520945,-2.954423,-0.860410,-2.873969,-1.188239,-2.754648,-1.500000,-2.598076,-1.791476,-2.406370,
-2.058725,-2.182121,-2.298133,-1.928363,-2.506463,-1.648527,-2.680898,-1.346398,-2.819078,-1.026060,-2.919135,-0.691848,-2.979715,-0.348279,-3.000000,0.000000,-3.000000,3.000000,3.000000,3.000000,3.000000,0.000000,3.000000,0.000000,$1*%
%AMFreePoly1*
4,1,18,-0.150000,0.475000,-0.144291,0.503701,-0.128033,0.528033,-0.103701,0.544291,-0.075000,0.550000,0.075000,0.550000,0.150000,0.475000,0.150000,-0.475000,0.144291,-0.503701,0.128033,-0.528033,0.103701,-0.544291,0.075000,-0.550000,-0.075000,-0.550000,-0.103701,-0.544291,-0.128033,-0.528033,-0.144291,-0.503701,-0.150000,-0.475000,-0.150000,0.475000,-0.150000,0.475000,$1*%
%AMFreePoly2*
4,1,18,-0.550000,0.075000,-0.544291,0.103701,-0.528033,0.128033,-0.503701,0.144291,-0.475000,0.150000,0.475000,0.150000,0.503701,0.144291,0.528033,0.128033,0.544291,0.103701,0.550000,0.075000,0.550000,-0.075000,0.544291,-0.103701,0.528033,-0.128033,0.503701,-0.144291,0.475000,-0.150000,-0.475000,-0.150000,-0.550000,-0.075000,-0.550000,0.075000,-0.550000,0.075000,$1*%
G04 Aperture macros list end*
%ADD10RoundRect,0.500000X0.125000X1.500000X-0.125000X1.500000X-0.125000X-1.500000X0.125000X-1.500000X0*%
%ADD11RoundRect,0.500000X0.400000X1.500000X-0.400000X1.500000X-0.400000X-1.500000X0.400000X-1.500000X0*%
%ADD12RoundRect,0.450000X0.450000X1.500000X-0.450000X1.500000X-0.450000X-1.500000X0.450000X-1.500000X0*%
%ADD13RoundRect,0.100000X-0.175000X-0.200000X0.175000X-0.200000X0.175000X0.200000X-0.175000X0.200000X0*%
%ADD14RoundRect,0.050000X-0.250000X0.150000X-0.250000X-0.150000X0.250000X-0.150000X0.250000X0.150000X0*%
%ADD15RoundRect,0.055714X-0.819286X1.169286X-0.819286X-1.169286X0.819286X-1.169286X0.819286X1.169286X0*%
%ADD16C,0.800000*%
%ADD17FreePoly0,270.000000*%
%ADD18RoundRect,0.100000X-0.400000X0.350000X-0.400000X-0.350000X0.400000X-0.350000X0.400000X0.350000X0*%
%ADD19RoundRect,0.100000X-0.200000X0.175000X-0.200000X-0.175000X0.200000X-0.175000X0.200000X0.175000X0*%
%ADD20RoundRect,0.100000X0.175000X0.200000X-0.175000X0.200000X-0.175000X-0.200000X0.175000X-0.200000X0*%
%ADD21RoundRect,0.100000X0.200000X-0.175000X0.200000X0.175000X-0.200000X0.175000X-0.200000X-0.175000X0*%
%ADD22RoundRect,0.050000X0.150000X0.250000X-0.150000X0.250000X-0.150000X-0.250000X0.150000X-0.250000X0*%
%ADD23RoundRect,0.055714X1.169286X0.819286X-1.169286X0.819286X-1.169286X-0.819286X1.169286X-0.819286X0*%
%ADD24FreePoly0,90.000000*%
%ADD25RoundRect,0.075000X-0.525000X-0.075000X0.525000X-0.075000X0.525000X0.075000X-0.525000X0.075000X0*%
%ADD26RoundRect,0.075000X-0.075000X-0.525000X0.075000X-0.525000X0.075000X0.525000X-0.075000X0.525000X0*%
%ADD27FreePoly1,0.000000*%
%ADD28FreePoly2,0.000000*%
%ADD29RoundRect,0.250000X-2.250000X-2.250000X2.250000X-2.250000X2.250000X2.250000X-2.250000X2.250000X0*%
%ADD30RoundRect,0.250000X-0.625000X0.312500X-0.625000X-0.312500X0.625000X-0.312500X0.625000X0.312500X0*%
G04 APERTURE END LIST*
D10*
%TO.C,M1*%
X138750000Y-65250000D03*
X136250000Y-65250000D03*
X133750000Y-65250000D03*
X131250000Y-65250000D03*
D11*
X128500000Y-58250000D03*
D12*
X141500000Y-58250000D03*
%TD*%
D13*
%TO.C,C7*%
X138400000Y-79000000D03*
X139400000Y-79000000D03*
%TD*%
D14*
%TO.C,Q8*%
X139550000Y-68525000D03*
X139550000Y-69175000D03*
X139550000Y-69825000D03*
X139550000Y-70475000D03*
X142450000Y-70475000D03*
X142450000Y-69825000D03*
X142450000Y-69175000D03*
X142450000Y-68525000D03*
D15*
X141300000Y-69500000D03*
%TD*%
D14*
%TO.C,Q4*%
X131550000Y-68525000D03*
X131550000Y-69175000D03*
X131550000Y-69825000D03*
X131550000Y-70475000D03*
X134450000Y-70475000D03*
X134450000Y-69825000D03*
X134450000Y-69175000D03*
X134450000Y-68525000D03*
D15*
X133300000Y-69500000D03*
%TD*%
D16*
%TO.C,H2*%
X147000000Y-62100000D03*
X148697056Y-62802944D03*
X145302944Y-62802944D03*
X149400000Y-64500000D03*
D17*
X147000000Y-64500000D03*
D16*
X144600000Y-64500000D03*
X148697056Y-66197056D03*
X145302944Y-66197056D03*
X147000000Y-66900000D03*
%TD*%
D18*
%TO.C,D1*%
X140500000Y-82850000D03*
X140500000Y-81350000D03*
%TD*%
D19*
%TO.C,R12*%
X144500000Y-73500000D03*
X144500000Y-74500000D03*
%TD*%
D20*
%TO.C,C5*%
X139400000Y-81000000D03*
X138400000Y-81000000D03*
%TD*%
D19*
%TO.C,R8*%
X126500000Y-73500000D03*
X126500000Y-74500000D03*
%TD*%
D21*
%TO.C,C8*%
X127750000Y-76750000D03*
X127750000Y-75750000D03*
%TD*%
D22*
%TO.C,Q5*%
X137975000Y-71550000D03*
X137325000Y-71550000D03*
X136675000Y-71550000D03*
X136025000Y-71550000D03*
X136025000Y-74450000D03*
X136675000Y-74450000D03*
X137325000Y-74450000D03*
X137975000Y-74450000D03*
D23*
X137000000Y-73300000D03*
%TD*%
D22*
%TO.C,Q1*%
X129975000Y-71550000D03*
X129325000Y-71550000D03*
X128675000Y-71550000D03*
X128025000Y-71550000D03*
X128025000Y-74450000D03*
X128675000Y-74450000D03*
X129325000Y-74450000D03*
X129975000Y-74450000D03*
D23*
X129000000Y-73300000D03*
%TD*%
D19*
%TO.C,R9*%
X125500000Y-73500000D03*
X125500000Y-74500000D03*
%TD*%
D13*
%TO.C,C2*%
X138400000Y-80000000D03*
X139400000Y-80000000D03*
%TD*%
D20*
%TO.C,R4*%
X127550000Y-80250000D03*
X126550000Y-80250000D03*
%TD*%
%TO.C,C6*%
X127550000Y-78250000D03*
X126550000Y-78250000D03*
%TD*%
%TO.C,R3*%
X127550000Y-81250000D03*
X126550000Y-81250000D03*
%TD*%
D13*
%TO.C,C4*%
X126550000Y-79250000D03*
X127550000Y-79250000D03*
%TD*%
D16*
%TO.C,H1*%
X123000000Y-66900000D03*
X121302944Y-66197056D03*
X124697056Y-66197056D03*
X120600000Y-64500000D03*
D24*
X123000000Y-64500000D03*
D16*
X125400000Y-64500000D03*
X121302944Y-62802944D03*
X124697056Y-62802944D03*
X123000000Y-62100000D03*
%TD*%
D21*
%TO.C,C11*%
X138250000Y-76750000D03*
X138250000Y-75750000D03*
%TD*%
D14*
%TO.C,Q2*%
X127550000Y-68525000D03*
X127550000Y-69175000D03*
X127550000Y-69825000D03*
X127550000Y-70475000D03*
X130450000Y-70475000D03*
X130450000Y-69825000D03*
X130450000Y-69175000D03*
X130450000Y-68525000D03*
D15*
X129300000Y-69500000D03*
%TD*%
D18*
%TO.C,D2*%
X141900000Y-81350000D03*
X141900000Y-82850000D03*
%TD*%
D21*
%TO.C,R16*%
X141700000Y-80300000D03*
X141700000Y-79300000D03*
%TD*%
D25*
%TO.C,U1*%
X128750000Y-77500000D03*
X128750000Y-78000000D03*
X128750000Y-78500000D03*
X128750000Y-79000000D03*
X128750000Y-79500000D03*
X128750000Y-80000000D03*
X128750000Y-80500000D03*
X128750000Y-81000000D03*
X128750000Y-81500000D03*
X128750000Y-82000000D03*
X128750000Y-82500000D03*
X128750000Y-83000000D03*
D26*
X130250000Y-84500000D03*
X130750000Y-84500000D03*
X131250000Y-84500000D03*
X131750000Y-84500000D03*
X132250000Y-84500000D03*
X132750000Y-84500000D03*
X133250000Y-84500000D03*
X133750000Y-84500000D03*
X134250000Y-84500000D03*
X134750000Y-84500000D03*
X135250000Y-84500000D03*
D27*
X135750000Y-84550000D03*
D28*
X137300000Y-83000000D03*
D25*
X137250000Y-82500000D03*
X137250000Y-82000000D03*
X137250000Y-81500000D03*
X137250000Y-81000000D03*
X137250000Y-80500000D03*
X137250000Y-80000000D03*
X137250000Y-79500000D03*
X137250000Y-79000000D03*
X137250000Y-78500000D03*
X137250000Y-78000000D03*
X137250000Y-77500000D03*
D26*
X135750000Y-76000000D03*
X135250000Y-76000000D03*
X134750000Y-76000000D03*
X134250000Y-76000000D03*
X133750000Y-76000000D03*
X133250000Y-76000000D03*
X132750000Y-76000000D03*
X132250000Y-76000000D03*
X131750000Y-76000000D03*
X131250000Y-76000000D03*
X130750000Y-76000000D03*
X130250000Y-76000000D03*
D29*
X133000000Y-80250000D03*
%TD*%
D21*
%TO.C,C9*%
X128750000Y-76750000D03*
X128750000Y-75750000D03*
%TD*%
D22*
%TO.C,Q3*%
X133975000Y-71550000D03*
X133325000Y-71550000D03*
X132675000Y-71550000D03*
X132025000Y-71550000D03*
X132025000Y-74450000D03*
X132675000Y-74450000D03*
X133325000Y-74450000D03*
X133975000Y-74450000D03*
D23*
X133000000Y-73300000D03*
%TD*%
D19*
%TO.C,R11*%
X143500000Y-73500000D03*
X143500000Y-74500000D03*
%TD*%
D22*
%TO.C,Q7*%
X141975000Y-71550000D03*
X141325000Y-71550000D03*
X140675000Y-71550000D03*
X140025000Y-71550000D03*
X140025000Y-74450000D03*
X140675000Y-74450000D03*
X141325000Y-74450000D03*
X141975000Y-74450000D03*
D23*
X141000000Y-73300000D03*
%TD*%
D30*
%TO.C,R13*%
X144250000Y-69537500D03*
X144250000Y-72462500D03*
%TD*%
D14*
%TO.C,Q6*%
X135550000Y-68525000D03*
X135550000Y-69175000D03*
X135550000Y-69825000D03*
X135550000Y-70475000D03*
X138450000Y-70475000D03*
X138450000Y-69825000D03*
X138450000Y-69175000D03*
X138450000Y-68525000D03*
D15*
X137300000Y-69500000D03*
%TD*%
D20*
%TO.C,C3*%
X137500000Y-84550000D03*
X136500000Y-84550000D03*
%TD*%
%TO.C,R1*%
X139400000Y-82000000D03*
X138400000Y-82000000D03*
%TD*%
D21*
%TO.C,C10*%
X137250000Y-76750000D03*
X137250000Y-75750000D03*
%TD*%
D20*
%TO.C,R2*%
X139400000Y-83000000D03*
X138400000Y-83000000D03*
%TD*%
D30*
%TO.C,R10*%
X125750000Y-69537500D03*
X125750000Y-72462500D03*
%TD*%
D13*
%TO.C,C1*%
X138400000Y-78000000D03*
X139400000Y-78000000D03*
%TD*%
M02*
