%TF.GenerationSoftware,KiCad,Pcbnew,7.0.7-7.0.7~ubuntu22.04.1*%
%TF.CreationDate,2023-08-30T01:26:55-07:00*%
%TF.ProjectId,mainboard,6d61696e-626f-4617-9264-2e6b69636164,rev?*%
%TF.SameCoordinates,Original*%
%TF.FileFunction,Paste,Top*%
%TF.FilePolarity,Positive*%
%FSLAX46Y46*%
G04 Gerber Fmt 4.6, Leading zero omitted, Abs format (unit mm)*
G04 Created by KiCad (PCBNEW 7.0.7-7.0.7~ubuntu22.04.1) date 2023-08-30 01:26:55*
%MOMM*%
%LPD*%
G01*
G04 APERTURE LIST*
G04 Aperture macros list*
%AMRoundRect*
0 Rectangle with rounded corners*
0 $1 Rounding radius*
0 $2 $3 $4 $5 $6 $7 $8 $9 X,Y pos of 4 corners*
0 Add a 4 corners polygon primitive as box body*
4,1,4,$2,$3,$4,$5,$6,$7,$8,$9,$2,$3,0*
0 Add four circle primitives for the rounded corners*
1,1,$1+$1,$2,$3*
1,1,$1+$1,$4,$5*
1,1,$1+$1,$6,$7*
1,1,$1+$1,$8,$9*
0 Add four rect primitives between the rounded corners*
20,1,$1+$1,$2,$3,$4,$5,0*
20,1,$1+$1,$4,$5,$6,$7,0*
20,1,$1+$1,$6,$7,$8,$9,0*
20,1,$1+$1,$8,$9,$2,$3,0*%
%AMFreePoly0*
4,1,57,0.310454,0.500914,0.314650,0.501215,0.316895,0.499988,0.322751,0.499147,0.347130,0.483479,0.372568,0.469589,0.469589,0.372568,0.482119,0.355828,0.485300,0.353073,0.486021,0.350617,0.489565,0.345883,0.495723,0.317573,0.503891,0.289756,0.503891,-0.289756,0.500914,-0.310455,0.501215,-0.314651,0.499988,-0.316896,0.499147,-0.322751,0.483480,-0.347128,0.469589,-0.372568,
0.372568,-0.469589,0.355826,-0.482121,0.353073,-0.485300,0.350618,-0.486020,0.345883,-0.489566,0.317566,-0.495725,0.289756,-0.503891,-0.289756,-0.503891,-0.310455,-0.500914,-0.314651,-0.501215,-0.316896,-0.499988,-0.322751,-0.499147,-0.347128,-0.483480,-0.372568,-0.469589,-0.469589,-0.372568,-0.482121,-0.355826,-0.485300,-0.353073,-0.486020,-0.350618,-0.489566,-0.345883,-0.495725,-0.317566,
-0.503891,-0.289756,-0.503891,0.289756,-0.500914,0.310454,-0.501215,0.314650,-0.499988,0.316895,-0.499147,0.322751,-0.483479,0.347130,-0.469589,0.372568,-0.372568,0.469589,-0.355828,0.482119,-0.353073,0.485300,-0.350617,0.486021,-0.345883,0.489565,-0.317573,0.495723,-0.289756,0.503891,0.289756,0.503891,0.310454,0.500914,0.310454,0.500914,$1*%
G04 Aperture macros list end*
%ADD10C,0.500000*%
%ADD11R,2.000000X1.600000*%
%ADD12R,0.300000X1.300000*%
%ADD13RoundRect,0.100000X0.175000X0.200000X-0.175000X0.200000X-0.175000X-0.200000X0.175000X-0.200000X0*%
%ADD14RoundRect,0.250000X0.650000X-0.325000X0.650000X0.325000X-0.650000X0.325000X-0.650000X-0.325000X0*%
%ADD15RoundRect,0.200000X0.250000X0.250000X-0.250000X0.250000X-0.250000X-0.250000X0.250000X-0.250000X0*%
%ADD16RoundRect,0.100000X-0.350000X-0.400000X0.350000X-0.400000X0.350000X0.400000X-0.350000X0.400000X0*%
%ADD17RoundRect,0.200000X-0.250000X0.250000X-0.250000X-0.250000X0.250000X-0.250000X0.250000X0.250000X0*%
%ADD18RoundRect,0.100000X-0.175000X-0.200000X0.175000X-0.200000X0.175000X0.200000X-0.175000X0.200000X0*%
%ADD19RoundRect,0.100000X0.350000X0.400000X-0.350000X0.400000X-0.350000X-0.400000X0.350000X-0.400000X0*%
%ADD20RoundRect,0.200000X-0.250000X-0.250000X0.250000X-0.250000X0.250000X0.250000X-0.250000X0.250000X0*%
%ADD21RoundRect,0.100000X-0.200000X0.175000X-0.200000X-0.175000X0.200000X-0.175000X0.200000X0.175000X0*%
%ADD22RoundRect,0.250000X-0.450000X0.262500X-0.450000X-0.262500X0.450000X-0.262500X0.450000X0.262500X0*%
%ADD23RoundRect,0.225000X0.250000X-0.225000X0.250000X0.225000X-0.250000X0.225000X-0.250000X-0.225000X0*%
%ADD24RoundRect,0.100000X-0.400000X0.200000X-0.400000X-0.200000X0.400000X-0.200000X0.400000X0.200000X0*%
%ADD25RoundRect,0.016667X0.133333X0.183333X-0.133333X0.183333X-0.133333X-0.183333X0.133333X-0.183333X0*%
%ADD26RoundRect,0.000000X0.360000X0.740000X-0.360000X0.740000X-0.360000X-0.740000X0.360000X-0.740000X0*%
%ADD27RoundRect,0.016666X0.133333X0.183333X-0.133333X0.183333X-0.133333X-0.183333X0.133333X-0.183333X0*%
%ADD28RoundRect,0.250000X-1.000000X1.950000X-1.000000X-1.950000X1.000000X-1.950000X1.000000X1.950000X0*%
%ADD29RoundRect,0.100000X0.200000X-0.175000X0.200000X0.175000X-0.200000X0.175000X-0.200000X-0.175000X0*%
%ADD30RoundRect,0.100000X0.400000X-0.350000X0.400000X0.350000X-0.400000X0.350000X-0.400000X-0.350000X0*%
%ADD31RoundRect,0.250000X0.625000X-0.312500X0.625000X0.312500X-0.625000X0.312500X-0.625000X-0.312500X0*%
%ADD32RoundRect,0.250000X-0.455000X-0.455000X0.455000X-0.455000X0.455000X0.455000X-0.455000X0.455000X0*%
%ADD33RoundRect,0.062500X-0.425000X-0.062500X0.425000X-0.062500X0.425000X0.062500X-0.425000X0.062500X0*%
%ADD34RoundRect,0.062500X-0.062500X-0.425000X0.062500X-0.425000X0.062500X0.425000X-0.062500X0.425000X0*%
%ADD35R,1.150000X0.300000*%
%ADD36RoundRect,0.100000X-0.250000X0.100000X-0.250000X-0.100000X0.250000X-0.100000X0.250000X0.100000X0*%
%ADD37RoundRect,0.100000X-1.200000X0.800000X-1.200000X-0.800000X1.200000X-0.800000X1.200000X0.800000X0*%
%ADD38RoundRect,0.100000X-0.450000X1.000000X-0.450000X-1.000000X0.450000X-1.000000X0.450000X1.000000X0*%
%ADD39RoundRect,0.200000X0.500000X0.400000X-0.500000X0.400000X-0.500000X-0.400000X0.500000X-0.400000X0*%
%ADD40RoundRect,0.250000X-0.400000X0.315000X-0.400000X-0.315000X0.400000X-0.315000X0.400000X0.315000X0*%
%ADD41RoundRect,0.062500X-0.062500X0.375000X-0.062500X-0.375000X0.062500X-0.375000X0.062500X0.375000X0*%
%ADD42R,2.350000X3.500000*%
%ADD43RoundRect,0.250000X-0.250000X-0.475000X0.250000X-0.475000X0.250000X0.475000X-0.250000X0.475000X0*%
%ADD44RoundRect,0.250000X-0.650000X0.325000X-0.650000X-0.325000X0.650000X-0.325000X0.650000X0.325000X0*%
%ADD45R,1.000000X0.750000*%
%ADD46RoundRect,0.100000X-0.300000X-0.300000X0.300000X-0.300000X0.300000X0.300000X-0.300000X0.300000X0*%
%ADD47RoundRect,0.075000X-0.225000X-0.575000X0.225000X-0.575000X0.225000X0.575000X-0.225000X0.575000X0*%
%ADD48RoundRect,0.100000X-0.300000X0.300000X-0.300000X-0.300000X0.300000X-0.300000X0.300000X0.300000X0*%
%ADD49RoundRect,0.075000X-0.575000X0.225000X-0.575000X-0.225000X0.575000X-0.225000X0.575000X0.225000X0*%
%ADD50RoundRect,0.100000X-0.400000X0.350000X-0.400000X-0.350000X0.400000X-0.350000X0.400000X0.350000X0*%
%ADD51RoundRect,0.100000X0.400000X-0.200000X0.400000X0.200000X-0.400000X0.200000X-0.400000X-0.200000X0*%
%ADD52RoundRect,0.016667X-0.133333X-0.183333X0.133333X-0.183333X0.133333X0.183333X-0.133333X0.183333X0*%
%ADD53RoundRect,0.000000X-0.360000X-0.740000X0.360000X-0.740000X0.360000X0.740000X-0.360000X0.740000X0*%
%ADD54RoundRect,0.016666X-0.133333X-0.183333X0.133333X-0.183333X0.133333X0.183333X-0.133333X0.183333X0*%
%ADD55R,1.400000X1.200000*%
%ADD56RoundRect,0.200000X0.250000X-0.250000X0.250000X0.250000X-0.250000X0.250000X-0.250000X-0.250000X0*%
%ADD57R,1.200000X0.400000*%
%ADD58RoundRect,0.100000X0.100000X-0.637500X0.100000X0.637500X-0.100000X0.637500X-0.100000X-0.637500X0*%
%ADD59R,1.500000X2.000000*%
%ADD60R,3.800000X2.000000*%
%ADD61RoundRect,0.075000X-0.725000X-0.075000X0.725000X-0.075000X0.725000X0.075000X-0.725000X0.075000X0*%
%ADD62RoundRect,0.075000X-0.075000X-0.725000X0.075000X-0.725000X0.075000X0.725000X-0.075000X0.725000X0*%
%ADD63RoundRect,0.225000X-0.250000X0.225000X-0.250000X-0.225000X0.250000X-0.225000X0.250000X0.225000X0*%
%ADD64FreePoly0,0.000000*%
%ADD65RoundRect,0.075000X-0.662500X-0.075000X0.662500X-0.075000X0.662500X0.075000X-0.662500X0.075000X0*%
%ADD66RoundRect,0.075000X-0.075000X-0.662500X0.075000X-0.662500X0.075000X0.662500X-0.075000X0.662500X0*%
%ADD67RoundRect,0.100000X0.300000X-0.300000X0.300000X0.300000X-0.300000X0.300000X-0.300000X-0.300000X0*%
%ADD68RoundRect,0.075000X0.575000X-0.225000X0.575000X0.225000X-0.575000X0.225000X-0.575000X-0.225000X0*%
%ADD69RoundRect,0.250000X0.250000X0.475000X-0.250000X0.475000X-0.250000X-0.475000X0.250000X-0.475000X0*%
%ADD70R,0.640000X2.000000*%
G04 APERTURE END LIST*
%TO.C,H11*%
D10*
X173650000Y-113500000D02*
G75*
G03*
X173650000Y-113500000I-250000J0D01*
G01*
X173998334Y-112200000D02*
G75*
G03*
X173998334Y-112200000I-250000J0D01*
G01*
X173998334Y-114800000D02*
G75*
G03*
X173998334Y-114800000I-250000J0D01*
G01*
X174950000Y-111248334D02*
G75*
G03*
X174950000Y-111248334I-250000J0D01*
G01*
X174950000Y-115751666D02*
G75*
G03*
X174950000Y-115751666I-250000J0D01*
G01*
X176250000Y-110900000D02*
G75*
G03*
X176250000Y-110900000I-250000J0D01*
G01*
X176250000Y-116100000D02*
G75*
G03*
X176250000Y-116100000I-250000J0D01*
G01*
X177550000Y-111248334D02*
G75*
G03*
X177550000Y-111248334I-250000J0D01*
G01*
X177550000Y-115751666D02*
G75*
G03*
X177550000Y-115751666I-250000J0D01*
G01*
X178501666Y-112200000D02*
G75*
G03*
X178501666Y-112200000I-250000J0D01*
G01*
X178501666Y-114800000D02*
G75*
G03*
X178501666Y-114800000I-250000J0D01*
G01*
X178850000Y-113500000D02*
G75*
G03*
X178850000Y-113500000I-250000J0D01*
G01*
%TO.C,H10*%
X145650000Y-64000000D02*
G75*
G03*
X145650000Y-64000000I-250000J0D01*
G01*
X145998334Y-62700000D02*
G75*
G03*
X145998334Y-62700000I-250000J0D01*
G01*
X145998334Y-65300000D02*
G75*
G03*
X145998334Y-65300000I-250000J0D01*
G01*
X146950000Y-61748334D02*
G75*
G03*
X146950000Y-61748334I-250000J0D01*
G01*
X146950000Y-66251666D02*
G75*
G03*
X146950000Y-66251666I-250000J0D01*
G01*
X148250000Y-61400000D02*
G75*
G03*
X148250000Y-61400000I-250000J0D01*
G01*
X148250000Y-66600000D02*
G75*
G03*
X148250000Y-66600000I-250000J0D01*
G01*
X149550000Y-61748334D02*
G75*
G03*
X149550000Y-61748334I-250000J0D01*
G01*
X149550000Y-66251666D02*
G75*
G03*
X149550000Y-66251666I-250000J0D01*
G01*
X150501666Y-62700000D02*
G75*
G03*
X150501666Y-62700000I-250000J0D01*
G01*
X150501666Y-65300000D02*
G75*
G03*
X150501666Y-65300000I-250000J0D01*
G01*
X150850000Y-64000000D02*
G75*
G03*
X150850000Y-64000000I-250000J0D01*
G01*
%TO.C,H8*%
X231650000Y-136500000D02*
G75*
G03*
X231650000Y-136500000I-250000J0D01*
G01*
X231998334Y-135200000D02*
G75*
G03*
X231998334Y-135200000I-250000J0D01*
G01*
X231998334Y-137800000D02*
G75*
G03*
X231998334Y-137800000I-250000J0D01*
G01*
X232950000Y-134248334D02*
G75*
G03*
X232950000Y-134248334I-250000J0D01*
G01*
X232950000Y-138751666D02*
G75*
G03*
X232950000Y-138751666I-250000J0D01*
G01*
X234250000Y-133900000D02*
G75*
G03*
X234250000Y-133900000I-250000J0D01*
G01*
X234250000Y-139100000D02*
G75*
G03*
X234250000Y-139100000I-250000J0D01*
G01*
X235550000Y-134248334D02*
G75*
G03*
X235550000Y-134248334I-250000J0D01*
G01*
X235550000Y-138751666D02*
G75*
G03*
X235550000Y-138751666I-250000J0D01*
G01*
X236501666Y-135200000D02*
G75*
G03*
X236501666Y-135200000I-250000J0D01*
G01*
X236501666Y-137800000D02*
G75*
G03*
X236501666Y-137800000I-250000J0D01*
G01*
X236850000Y-136500000D02*
G75*
G03*
X236850000Y-136500000I-250000J0D01*
G01*
%TO.C,H12*%
X173650000Y-136500000D02*
G75*
G03*
X173650000Y-136500000I-250000J0D01*
G01*
X173998334Y-135200000D02*
G75*
G03*
X173998334Y-135200000I-250000J0D01*
G01*
X173998334Y-137800000D02*
G75*
G03*
X173998334Y-137800000I-250000J0D01*
G01*
X174950000Y-134248334D02*
G75*
G03*
X174950000Y-134248334I-250000J0D01*
G01*
X174950000Y-138751666D02*
G75*
G03*
X174950000Y-138751666I-250000J0D01*
G01*
X176250000Y-133900000D02*
G75*
G03*
X176250000Y-133900000I-250000J0D01*
G01*
X176250000Y-139100000D02*
G75*
G03*
X176250000Y-139100000I-250000J0D01*
G01*
X177550000Y-134248334D02*
G75*
G03*
X177550000Y-134248334I-250000J0D01*
G01*
X177550000Y-138751666D02*
G75*
G03*
X177550000Y-138751666I-250000J0D01*
G01*
X178501666Y-135200000D02*
G75*
G03*
X178501666Y-135200000I-250000J0D01*
G01*
X178501666Y-137800000D02*
G75*
G03*
X178501666Y-137800000I-250000J0D01*
G01*
X178850000Y-136500000D02*
G75*
G03*
X178850000Y-136500000I-250000J0D01*
G01*
%TO.C,H9*%
X121650000Y-64000000D02*
G75*
G03*
X121650000Y-64000000I-250000J0D01*
G01*
X121998334Y-62700000D02*
G75*
G03*
X121998334Y-62700000I-250000J0D01*
G01*
X121998334Y-65300000D02*
G75*
G03*
X121998334Y-65300000I-250000J0D01*
G01*
X122950000Y-61748334D02*
G75*
G03*
X122950000Y-61748334I-250000J0D01*
G01*
X122950000Y-66251666D02*
G75*
G03*
X122950000Y-66251666I-250000J0D01*
G01*
X124250000Y-61400000D02*
G75*
G03*
X124250000Y-61400000I-250000J0D01*
G01*
X124250000Y-66600000D02*
G75*
G03*
X124250000Y-66600000I-250000J0D01*
G01*
X125550000Y-61748334D02*
G75*
G03*
X125550000Y-61748334I-250000J0D01*
G01*
X125550000Y-66251666D02*
G75*
G03*
X125550000Y-66251666I-250000J0D01*
G01*
X126501666Y-62700000D02*
G75*
G03*
X126501666Y-62700000I-250000J0D01*
G01*
X126501666Y-65300000D02*
G75*
G03*
X126501666Y-65300000I-250000J0D01*
G01*
X126850000Y-64000000D02*
G75*
G03*
X126850000Y-64000000I-250000J0D01*
G01*
%TO.C,H7*%
X231650000Y-113500000D02*
G75*
G03*
X231650000Y-113500000I-250000J0D01*
G01*
X231998334Y-112200000D02*
G75*
G03*
X231998334Y-112200000I-250000J0D01*
G01*
X231998334Y-114800000D02*
G75*
G03*
X231998334Y-114800000I-250000J0D01*
G01*
X232950000Y-111248334D02*
G75*
G03*
X232950000Y-111248334I-250000J0D01*
G01*
X232950000Y-115751666D02*
G75*
G03*
X232950000Y-115751666I-250000J0D01*
G01*
X234250000Y-110900000D02*
G75*
G03*
X234250000Y-110900000I-250000J0D01*
G01*
X234250000Y-116100000D02*
G75*
G03*
X234250000Y-116100000I-250000J0D01*
G01*
X235550000Y-111248334D02*
G75*
G03*
X235550000Y-111248334I-250000J0D01*
G01*
X235550000Y-115751666D02*
G75*
G03*
X235550000Y-115751666I-250000J0D01*
G01*
X236501666Y-112200000D02*
G75*
G03*
X236501666Y-112200000I-250000J0D01*
G01*
X236501666Y-114800000D02*
G75*
G03*
X236501666Y-114800000I-250000J0D01*
G01*
X236850000Y-113500000D02*
G75*
G03*
X236850000Y-113500000I-250000J0D01*
G01*
%TO.C,H6*%
X113650000Y-64000000D02*
G75*
G03*
X113650000Y-64000000I-250000J0D01*
G01*
X113998334Y-62700000D02*
G75*
G03*
X113998334Y-62700000I-250000J0D01*
G01*
X113998334Y-65300000D02*
G75*
G03*
X113998334Y-65300000I-250000J0D01*
G01*
X114950000Y-61748334D02*
G75*
G03*
X114950000Y-61748334I-250000J0D01*
G01*
X114950000Y-66251666D02*
G75*
G03*
X114950000Y-66251666I-250000J0D01*
G01*
X116250000Y-61400000D02*
G75*
G03*
X116250000Y-61400000I-250000J0D01*
G01*
X116250000Y-66600000D02*
G75*
G03*
X116250000Y-66600000I-250000J0D01*
G01*
X117550000Y-61748334D02*
G75*
G03*
X117550000Y-61748334I-250000J0D01*
G01*
X117550000Y-66251666D02*
G75*
G03*
X117550000Y-66251666I-250000J0D01*
G01*
X118501666Y-62700000D02*
G75*
G03*
X118501666Y-62700000I-250000J0D01*
G01*
X118501666Y-65300000D02*
G75*
G03*
X118501666Y-65300000I-250000J0D01*
G01*
X118850000Y-64000000D02*
G75*
G03*
X118850000Y-64000000I-250000J0D01*
G01*
%TO.C,H5*%
X89650000Y-64000000D02*
G75*
G03*
X89650000Y-64000000I-250000J0D01*
G01*
X89998334Y-62700000D02*
G75*
G03*
X89998334Y-62700000I-250000J0D01*
G01*
X89998334Y-65300000D02*
G75*
G03*
X89998334Y-65300000I-250000J0D01*
G01*
X90950000Y-61748334D02*
G75*
G03*
X90950000Y-61748334I-250000J0D01*
G01*
X90950000Y-66251666D02*
G75*
G03*
X90950000Y-66251666I-250000J0D01*
G01*
X92250000Y-61400000D02*
G75*
G03*
X92250000Y-61400000I-250000J0D01*
G01*
X92250000Y-66600000D02*
G75*
G03*
X92250000Y-66600000I-250000J0D01*
G01*
X93550000Y-61748334D02*
G75*
G03*
X93550000Y-61748334I-250000J0D01*
G01*
X93550000Y-66251666D02*
G75*
G03*
X93550000Y-66251666I-250000J0D01*
G01*
X94501666Y-62700000D02*
G75*
G03*
X94501666Y-62700000I-250000J0D01*
G01*
X94501666Y-65300000D02*
G75*
G03*
X94501666Y-65300000I-250000J0D01*
G01*
X94850000Y-64000000D02*
G75*
G03*
X94850000Y-64000000I-250000J0D01*
G01*
%TD*%
D11*
%TO.C,J22*%
X187950000Y-137050000D03*
D12*
X182750000Y-134400000D03*
X183250000Y-134400000D03*
X183750000Y-134400000D03*
X184250000Y-134400000D03*
X184750000Y-134400000D03*
X185250000Y-134400000D03*
X185750000Y-134400000D03*
X186250000Y-134400000D03*
D11*
X181050000Y-137050000D03*
%TD*%
D13*
%TO.C,R108*%
X96050000Y-115050000D03*
X95050000Y-115050000D03*
%TD*%
D14*
%TO.C,C64*%
X84000000Y-64475000D03*
X84000000Y-61525000D03*
%TD*%
D15*
%TO.C,T17*%
X214600000Y-138350000D03*
X214600000Y-137250000D03*
%TD*%
D16*
%TO.C,C86*%
X115600000Y-108700000D03*
X117100000Y-108700000D03*
%TD*%
D17*
%TO.C,T11*%
X147250000Y-74000000D03*
X146150000Y-74000000D03*
%TD*%
D18*
%TO.C,C95*%
X229150000Y-122800000D03*
X230150000Y-122800000D03*
%TD*%
D19*
%TO.C,D14*%
X101110000Y-125000000D03*
X99610000Y-125000000D03*
%TD*%
D17*
%TO.C,T47*%
X99250000Y-77000000D03*
X98150000Y-77000000D03*
%TD*%
D13*
%TO.C,C15*%
X183050000Y-86400000D03*
X182050000Y-86400000D03*
%TD*%
D20*
%TO.C,T22*%
X201200000Y-114925000D03*
X201200000Y-116025000D03*
%TD*%
D18*
%TO.C,R90*%
X194500000Y-96000000D03*
X195500000Y-96000000D03*
%TD*%
D17*
%TO.C,T41*%
X115250000Y-80000000D03*
X114150000Y-80000000D03*
%TD*%
D21*
%TO.C,R44*%
X153850000Y-73450000D03*
X153850000Y-74450000D03*
%TD*%
D22*
%TO.C,R15*%
X210500000Y-66837500D03*
X210500000Y-68662500D03*
%TD*%
D13*
%TO.C,C72*%
X96050000Y-121050000D03*
X95050000Y-121050000D03*
%TD*%
D23*
%TO.C,C32*%
X200000000Y-67775000D03*
X200000000Y-66225000D03*
%TD*%
D21*
%TO.C,R45*%
X152850000Y-73450000D03*
X152850000Y-74450000D03*
%TD*%
D24*
%TO.C,SW5*%
X141599999Y-122300000D03*
X146599999Y-122300000D03*
X141599999Y-124800000D03*
X146599999Y-124800000D03*
X141599999Y-127300000D03*
X146599999Y-127300000D03*
%TD*%
D21*
%TO.C,C37*%
X172850000Y-81950000D03*
X172850000Y-82950000D03*
%TD*%
D25*
%TO.C,Q4*%
X101475000Y-129025000D03*
X100825000Y-129025000D03*
X100175000Y-129025000D03*
X99525000Y-129025000D03*
D26*
X99815000Y-130850000D03*
D25*
X99525000Y-131975000D03*
X100175000Y-131975000D03*
D27*
X100824999Y-131974999D03*
D25*
X101475000Y-131975000D03*
D26*
X101185000Y-130850000D03*
%TD*%
D13*
%TO.C,R86*%
X240000000Y-124000000D03*
X239000000Y-124000000D03*
%TD*%
D28*
%TO.C,C6*%
X233500000Y-78300000D03*
X233500000Y-85700000D03*
%TD*%
D29*
%TO.C,R33*%
X174800000Y-76250000D03*
X174800000Y-75250000D03*
%TD*%
D30*
%TO.C,C78*%
X219250000Y-112000000D03*
X219250000Y-110500000D03*
%TD*%
D29*
%TO.C,R73*%
X122220000Y-127000000D03*
X122220000Y-126000000D03*
%TD*%
D14*
%TO.C,C63*%
X120000000Y-70475000D03*
X120000000Y-67525000D03*
%TD*%
D16*
%TO.C,D24*%
X120750000Y-117000000D03*
X122250000Y-117000000D03*
%TD*%
D18*
%TO.C,R101*%
X190900000Y-96999999D03*
X191900000Y-96999999D03*
%TD*%
D20*
%TO.C,T18*%
X191000000Y-112350000D03*
X191000000Y-113450000D03*
%TD*%
D17*
%TO.C,T12*%
X147250000Y-77000000D03*
X146150000Y-77000000D03*
%TD*%
D22*
%TO.C,R16*%
X202500000Y-66837500D03*
X202500000Y-68662500D03*
%TD*%
D31*
%TO.C,R39*%
X167700000Y-72212500D03*
X167700000Y-69287500D03*
%TD*%
D18*
%TO.C,R5*%
X240800000Y-84500000D03*
X241800000Y-84500000D03*
%TD*%
D29*
%TO.C,C53*%
X154800000Y-76250000D03*
X154800000Y-75250000D03*
%TD*%
D17*
%TO.C,T48*%
X115250000Y-77000000D03*
X114150000Y-77000000D03*
%TD*%
D18*
%TO.C,R98*%
X228000000Y-73000000D03*
X229000000Y-73000000D03*
%TD*%
%TO.C,R107*%
X113550000Y-108500000D03*
X114550000Y-108500000D03*
%TD*%
D22*
%TO.C,R18*%
X189500000Y-66837500D03*
X189500000Y-68662500D03*
%TD*%
D19*
%TO.C,D11*%
X123970000Y-125000000D03*
X122470000Y-125000000D03*
%TD*%
D32*
%TO.C,U2*%
X231690000Y-68690000D03*
X231690000Y-70310000D03*
X233310000Y-68690000D03*
X233310000Y-70310000D03*
D33*
X230137500Y-68000000D03*
X230137500Y-68500000D03*
X230137500Y-69000000D03*
X230137500Y-69500000D03*
X230137500Y-70000000D03*
X230137500Y-70500000D03*
X230137500Y-71000000D03*
D34*
X231000000Y-71862500D03*
X231500000Y-71862500D03*
X232000000Y-71862500D03*
X232500000Y-71862500D03*
X233000000Y-71862500D03*
X233500000Y-71862500D03*
X234000000Y-71862500D03*
D33*
X234862500Y-71000000D03*
X234862500Y-70500000D03*
X234862500Y-70000000D03*
X234862500Y-69500000D03*
X234862500Y-69000000D03*
X234862500Y-68500000D03*
X234862500Y-68000000D03*
D34*
X234000000Y-67137500D03*
X233500000Y-67137500D03*
X233000000Y-67137500D03*
X232500000Y-67137500D03*
X232000000Y-67137500D03*
X231500000Y-67137500D03*
X231000000Y-67137500D03*
%TD*%
D15*
%TO.C,T38*%
X104750000Y-84000000D03*
X104750000Y-82900000D03*
%TD*%
D29*
%TO.C,R40*%
X162200000Y-76250000D03*
X162200000Y-75250000D03*
%TD*%
D18*
%TO.C,C69*%
X95050000Y-116050000D03*
X96050000Y-116050000D03*
%TD*%
D35*
%TO.C,J1*%
X243330000Y-88350000D03*
X243330000Y-87550000D03*
X243330000Y-86250000D03*
X243330000Y-85250000D03*
X243330000Y-84750000D03*
X243330000Y-83750000D03*
X243330000Y-82450000D03*
X243330000Y-81650000D03*
X243330000Y-81950000D03*
X243330000Y-82750000D03*
X243330000Y-83250000D03*
X243330000Y-84250000D03*
X243330000Y-85750000D03*
X243330000Y-86750000D03*
X243330000Y-87250000D03*
X243330000Y-88050000D03*
%TD*%
D29*
%TO.C,R79*%
X234750000Y-131000000D03*
X234750000Y-130000000D03*
%TD*%
D13*
%TO.C,R87*%
X240000000Y-125000000D03*
X239000000Y-125000000D03*
%TD*%
D21*
%TO.C,C54*%
X166200000Y-75250000D03*
X166200000Y-76250000D03*
%TD*%
D13*
%TO.C,R94*%
X96050000Y-120050000D03*
X95050000Y-120050000D03*
%TD*%
D21*
%TO.C,C47*%
X166150000Y-81950000D03*
X166150000Y-82950000D03*
%TD*%
D18*
%TO.C,R57*%
X144799998Y-131000000D03*
X145799998Y-131000000D03*
%TD*%
D16*
%TO.C,C66*%
X98900000Y-112825000D03*
X100400000Y-112825000D03*
%TD*%
D29*
%TO.C,R20*%
X183200000Y-76250000D03*
X183200000Y-75250000D03*
%TD*%
D17*
%TO.C,T43*%
X115250000Y-75500000D03*
X114150000Y-75500000D03*
%TD*%
D13*
%TO.C,C83*%
X112750000Y-115500000D03*
X111750000Y-115500000D03*
%TD*%
D21*
%TO.C,R83*%
X238900000Y-119550000D03*
X238900000Y-120550000D03*
%TD*%
D28*
%TO.C,C8*%
X223500000Y-78300000D03*
X223500000Y-85700000D03*
%TD*%
D18*
%TO.C,R116*%
X189000000Y-73000000D03*
X190000000Y-73000000D03*
%TD*%
D25*
%TO.C,Q6*%
X116725000Y-129025000D03*
X116075000Y-129025000D03*
X115425000Y-129025000D03*
X114775000Y-129025000D03*
D26*
X115065000Y-130850000D03*
D25*
X114775000Y-131975000D03*
X115425000Y-131975000D03*
D27*
X116074999Y-131974999D03*
D25*
X116725000Y-131975000D03*
D26*
X116435000Y-130850000D03*
%TD*%
D36*
%TO.C,QB2*%
X159350000Y-74100000D03*
X159350000Y-73300000D03*
X159350000Y-72500000D03*
X159350000Y-71700000D03*
X159350000Y-70900000D03*
X159350000Y-70100000D03*
X155250000Y-70100000D03*
X155250000Y-70900000D03*
X155250000Y-71700000D03*
X155250000Y-72500000D03*
X155250000Y-73300000D03*
X155250000Y-74100000D03*
D37*
X157300000Y-73400000D03*
D38*
X158050000Y-71000000D03*
X156550000Y-71000000D03*
%TD*%
D13*
%TO.C,C18*%
X216000000Y-71000000D03*
X215000000Y-71000000D03*
%TD*%
D29*
%TO.C,R66*%
X114610000Y-127000000D03*
X114610000Y-126000000D03*
%TD*%
%TO.C,R26*%
X181200000Y-76250000D03*
X181200000Y-75250000D03*
%TD*%
D21*
%TO.C,R82*%
X238950000Y-117750000D03*
X238950000Y-118750000D03*
%TD*%
D16*
%TO.C,D1*%
X103750000Y-122500000D03*
X105250000Y-122500000D03*
%TD*%
D18*
%TO.C,R4*%
X240800000Y-85500000D03*
X241800000Y-85500000D03*
%TD*%
D29*
%TO.C,C41*%
X172800000Y-76250000D03*
X172800000Y-75250000D03*
%TD*%
D14*
%TO.C,C56*%
X166800000Y-80425000D03*
X166800000Y-77475000D03*
%TD*%
D25*
%TO.C,Q2*%
X148974999Y-128257500D03*
X148324999Y-128257500D03*
X147674999Y-128257500D03*
X147024999Y-128257500D03*
D26*
X147314999Y-130082500D03*
D25*
X147024999Y-131207500D03*
X147674999Y-131207500D03*
D27*
X148324998Y-131207499D03*
D25*
X148974999Y-131207500D03*
D26*
X148684999Y-130082500D03*
%TD*%
D39*
%TO.C,Y1*%
X196100000Y-97650000D03*
X193900000Y-97650000D03*
X193900000Y-99350000D03*
X196100000Y-99350000D03*
%TD*%
D13*
%TO.C,R69*%
X90500000Y-135100000D03*
X89500000Y-135100000D03*
%TD*%
%TO.C,C28*%
X198000000Y-70000000D03*
X197000000Y-70000000D03*
%TD*%
%TO.C,R56*%
X165199997Y-129500000D03*
X164199997Y-129500000D03*
%TD*%
D18*
%TO.C,R3*%
X197500000Y-98500000D03*
X198500000Y-98500000D03*
%TD*%
D17*
%TO.C,T42*%
X99250000Y-80000000D03*
X98150000Y-80000000D03*
%TD*%
D21*
%TO.C,R67*%
X124220000Y-126000000D03*
X124220000Y-127000000D03*
%TD*%
D18*
%TO.C,C88*%
X214600000Y-106300000D03*
X215600000Y-106300000D03*
%TD*%
%TO.C,R106*%
X111750000Y-108500000D03*
X112750000Y-108500000D03*
%TD*%
D31*
%TO.C,R46*%
X153300000Y-72212500D03*
X153300000Y-69287500D03*
%TD*%
D18*
%TO.C,C80*%
X113600000Y-115500000D03*
X114600000Y-115500000D03*
%TD*%
D17*
%TO.C,T9*%
X147250000Y-80000000D03*
X146150000Y-80000000D03*
%TD*%
D18*
%TO.C,C70*%
X96900000Y-121050000D03*
X97900000Y-121050000D03*
%TD*%
D29*
%TO.C,R68*%
X123220000Y-127000000D03*
X123220000Y-126000000D03*
%TD*%
D18*
%TO.C,C17*%
X215000000Y-72000000D03*
X216000000Y-72000000D03*
%TD*%
%TO.C,R58*%
X144799998Y-129500000D03*
X145799998Y-129500000D03*
%TD*%
D21*
%TO.C,R19*%
X172850000Y-83750000D03*
X172850000Y-84750000D03*
%TD*%
%TO.C,R37*%
X167150000Y-73450000D03*
X167150000Y-74450000D03*
%TD*%
D25*
%TO.C,Q1*%
X134974999Y-128257500D03*
X134324999Y-128257500D03*
X133674999Y-128257500D03*
X133024999Y-128257500D03*
D26*
X133314999Y-130082500D03*
D25*
X133024999Y-131207500D03*
X133674999Y-131207500D03*
D27*
X134324998Y-131207499D03*
D25*
X134974999Y-131207500D03*
D26*
X134684999Y-130082500D03*
%TD*%
D13*
%TO.C,R2*%
X190100000Y-102000000D03*
X189100000Y-102000000D03*
%TD*%
%TO.C,R109*%
X112750000Y-113500000D03*
X111750000Y-113500000D03*
%TD*%
D21*
%TO.C,C43*%
X177800000Y-75250000D03*
X177800000Y-76250000D03*
%TD*%
D17*
%TO.C,T27*%
X131250000Y-74000000D03*
X130150000Y-74000000D03*
%TD*%
D29*
%TO.C,R64*%
X99360000Y-127000000D03*
X99360000Y-126000000D03*
%TD*%
%TO.C,R32*%
X173800000Y-76250000D03*
X173800000Y-75250000D03*
%TD*%
D16*
%TO.C,D23*%
X196550000Y-96100000D03*
X198050000Y-96100000D03*
%TD*%
D13*
%TO.C,C21*%
X165050000Y-86400000D03*
X164050000Y-86400000D03*
%TD*%
%TO.C,R85*%
X240000000Y-123000000D03*
X239000000Y-123000000D03*
%TD*%
D29*
%TO.C,C52*%
X161200000Y-76250000D03*
X161200000Y-75250000D03*
%TD*%
D16*
%TO.C,C68*%
X98900000Y-114250000D03*
X100400000Y-114250000D03*
%TD*%
D40*
%TO.C,U8*%
X116250000Y-111350000D03*
X114750000Y-111350000D03*
X116250000Y-112650000D03*
X114750000Y-112650000D03*
D41*
X116750000Y-110062500D03*
X116250000Y-110062500D03*
X115750000Y-110062500D03*
X115250000Y-110062500D03*
X114750000Y-110062500D03*
X114250000Y-110062500D03*
X114250000Y-113937500D03*
X114750000Y-113937500D03*
X115250000Y-113937500D03*
X115750000Y-113937500D03*
X116250000Y-113937500D03*
X116750000Y-113937500D03*
%TD*%
D29*
%TO.C,R50*%
X107980000Y-127000000D03*
X107980000Y-126000000D03*
%TD*%
%TO.C,R43*%
X157800000Y-76250000D03*
X157800000Y-75250000D03*
%TD*%
%TO.C,R63*%
X100360000Y-127000000D03*
X100360000Y-126000000D03*
%TD*%
D18*
%TO.C,C79*%
X189100000Y-99999999D03*
X190100000Y-99999999D03*
%TD*%
D21*
%TO.C,C42*%
X184200000Y-75250000D03*
X184200000Y-76250000D03*
%TD*%
D14*
%TO.C,C45*%
X172200000Y-80425000D03*
X172200000Y-77475000D03*
%TD*%
D13*
%TO.C,R88*%
X240000000Y-126000000D03*
X239000000Y-126000000D03*
%TD*%
D15*
%TO.C,T15*%
X211100000Y-138650000D03*
X211100000Y-137550000D03*
%TD*%
D13*
%TO.C,R80*%
X237000000Y-132750000D03*
X236000000Y-132750000D03*
%TD*%
D42*
%TO.C,L1*%
X102475000Y-118000000D03*
X108525000Y-118000000D03*
%TD*%
D18*
%TO.C,C23*%
X202000000Y-72000000D03*
X203000000Y-72000000D03*
%TD*%
D13*
%TO.C,C30*%
X190000000Y-71000000D03*
X189000000Y-71000000D03*
%TD*%
%TO.C,C10*%
X237000000Y-70000000D03*
X236000000Y-70000000D03*
%TD*%
D18*
%TO.C,C5*%
X115400000Y-115500000D03*
X116400000Y-115500000D03*
%TD*%
D19*
%TO.C,D22*%
X239750000Y-136000000D03*
X238250000Y-136000000D03*
%TD*%
D17*
%TO.C,T49*%
X99250000Y-78500000D03*
X98150000Y-78500000D03*
%TD*%
D31*
%TO.C,R24*%
X185700000Y-72212500D03*
X185700000Y-69287500D03*
%TD*%
D17*
%TO.C,T13*%
X147250000Y-78500000D03*
X146150000Y-78500000D03*
%TD*%
D19*
%TO.C,D13*%
X108730000Y-125000000D03*
X107230000Y-125000000D03*
%TD*%
D13*
%TO.C,R53*%
X137199998Y-131000000D03*
X136199998Y-131000000D03*
%TD*%
%TO.C,R118*%
X168150000Y-85650000D03*
X167150000Y-85650000D03*
%TD*%
D18*
%TO.C,R102*%
X190900001Y-97999999D03*
X191900001Y-97999999D03*
%TD*%
D21*
%TO.C,C87*%
X238000000Y-69750000D03*
X238000000Y-70750000D03*
%TD*%
D43*
%TO.C,C84*%
X124100000Y-117000000D03*
X126000000Y-117000000D03*
%TD*%
D25*
%TO.C,Q5*%
X109095000Y-129025000D03*
X108445000Y-129025000D03*
X107795000Y-129025000D03*
X107145000Y-129025000D03*
D26*
X107435000Y-130850000D03*
D25*
X107145000Y-131975000D03*
X107795000Y-131975000D03*
D27*
X108444999Y-131974999D03*
D25*
X109095000Y-131975000D03*
D26*
X108805000Y-130850000D03*
%TD*%
D44*
%TO.C,C59*%
X87000000Y-66525000D03*
X87000000Y-69475000D03*
%TD*%
D18*
%TO.C,C81*%
X111750000Y-110500000D03*
X112750000Y-110500000D03*
%TD*%
D21*
%TO.C,R71*%
X101360000Y-126000000D03*
X101360000Y-127000000D03*
%TD*%
D45*
%TO.C,SW2*%
X197750000Y-105225000D03*
X191750000Y-105225000D03*
X197750000Y-101475000D03*
X191750000Y-101475000D03*
%TD*%
D15*
%TO.C,T1*%
X132250000Y-84000000D03*
X132250000Y-82900000D03*
%TD*%
D17*
%TO.C,T29*%
X131250000Y-78500000D03*
X130150000Y-78500000D03*
%TD*%
D18*
%TO.C,C19*%
X215000000Y-70000000D03*
X216000000Y-70000000D03*
%TD*%
D30*
%TO.C,C77*%
X217800000Y-106650000D03*
X217800000Y-105150000D03*
%TD*%
D44*
%TO.C,C61*%
X84000000Y-66525000D03*
X84000000Y-69475000D03*
%TD*%
D15*
%TO.C,T4*%
X133750000Y-84000000D03*
X133750000Y-82900000D03*
%TD*%
D46*
%TO.C,SW14*%
X191050000Y-92500000D03*
X191050000Y-94700000D03*
X198350000Y-92500000D03*
X198350000Y-94700000D03*
D47*
X192450000Y-91800000D03*
X195450000Y-91800000D03*
X196950000Y-91800000D03*
%TD*%
D15*
%TO.C,T39*%
X106250000Y-84000000D03*
X106250000Y-82900000D03*
%TD*%
D13*
%TO.C,R93*%
X112750000Y-109500000D03*
X111750000Y-109500000D03*
%TD*%
D32*
%TO.C,U4*%
X205690000Y-68690000D03*
X205690000Y-70310000D03*
X207310000Y-68690000D03*
X207310000Y-70310000D03*
D33*
X204137500Y-68000000D03*
X204137500Y-68500000D03*
X204137500Y-69000000D03*
X204137500Y-69500000D03*
X204137500Y-70000000D03*
X204137500Y-70500000D03*
X204137500Y-71000000D03*
D34*
X205000000Y-71862500D03*
X205500000Y-71862500D03*
X206000000Y-71862500D03*
X206500000Y-71862500D03*
X207000000Y-71862500D03*
X207500000Y-71862500D03*
X208000000Y-71862500D03*
D33*
X208862500Y-71000000D03*
X208862500Y-70500000D03*
X208862500Y-70000000D03*
X208862500Y-69500000D03*
X208862500Y-69000000D03*
X208862500Y-68500000D03*
X208862500Y-68000000D03*
D34*
X208000000Y-67137500D03*
X207500000Y-67137500D03*
X207000000Y-67137500D03*
X206500000Y-67137500D03*
X206000000Y-67137500D03*
X205500000Y-67137500D03*
X205000000Y-67137500D03*
%TD*%
D13*
%TO.C,R75*%
X230150000Y-120800000D03*
X229150000Y-120800000D03*
%TD*%
D30*
%TO.C,D7*%
X157699997Y-131000000D03*
X157699997Y-129500000D03*
%TD*%
D21*
%TO.C,R81*%
X237950000Y-117750000D03*
X237950000Y-118750000D03*
%TD*%
%TO.C,R84*%
X239900000Y-119550000D03*
X239900000Y-120550000D03*
%TD*%
D25*
%TO.C,Q7*%
X124335000Y-129025000D03*
X123685000Y-129025000D03*
X123035000Y-129025000D03*
X122385000Y-129025000D03*
D26*
X122675000Y-130850000D03*
D25*
X122385000Y-131975000D03*
X123035000Y-131975000D03*
D27*
X123684999Y-131974999D03*
D25*
X124335000Y-131975000D03*
D26*
X124045000Y-130850000D03*
%TD*%
D21*
%TO.C,C39*%
X185150000Y-83750000D03*
X185150000Y-84750000D03*
%TD*%
D48*
%TO.C,SW12*%
X112560000Y-124650000D03*
X110360000Y-124650000D03*
X112560000Y-131950000D03*
X110360000Y-131950000D03*
D49*
X113260000Y-126050000D03*
X113260000Y-129050000D03*
X113260000Y-130550000D03*
%TD*%
D44*
%TO.C,C58*%
X120000000Y-81025000D03*
X120000000Y-83975000D03*
%TD*%
D24*
%TO.C,SW7*%
X155599998Y-122300000D03*
X160599998Y-122300000D03*
X155599998Y-124800000D03*
X160599998Y-124800000D03*
X155599998Y-127300000D03*
X160599998Y-127300000D03*
%TD*%
D30*
%TO.C,D18*%
X88450000Y-134850000D03*
X88450000Y-133350000D03*
%TD*%
D14*
%TO.C,C65*%
X87000000Y-64475000D03*
X87000000Y-61525000D03*
%TD*%
D50*
%TO.C,D19*%
X239750000Y-133000000D03*
X239750000Y-134500000D03*
%TD*%
D18*
%TO.C,R77*%
X89500000Y-133100000D03*
X90500000Y-133100000D03*
%TD*%
%TO.C,R8*%
X240800000Y-83500000D03*
X241800000Y-83500000D03*
%TD*%
D15*
%TO.C,T7*%
X138250000Y-84000000D03*
X138250000Y-82900000D03*
%TD*%
D18*
%TO.C,C25*%
X202000000Y-70000000D03*
X203000000Y-70000000D03*
%TD*%
D13*
%TO.C,R95*%
X112750000Y-114500000D03*
X111750000Y-114500000D03*
%TD*%
D29*
%TO.C,C38*%
X184150000Y-84750000D03*
X184150000Y-83750000D03*
%TD*%
D13*
%TO.C,C24*%
X203000000Y-71000000D03*
X202000000Y-71000000D03*
%TD*%
%TO.C,R10*%
X230150000Y-119800000D03*
X229150000Y-119800000D03*
%TD*%
D17*
%TO.C,T44*%
X99250000Y-75500000D03*
X98150000Y-75500000D03*
%TD*%
%TO.C,T45*%
X99250000Y-74000000D03*
X98150000Y-74000000D03*
%TD*%
D20*
%TO.C,T3*%
X180900000Y-112350000D03*
X180900000Y-113450000D03*
%TD*%
D13*
%TO.C,R55*%
X165199997Y-131000000D03*
X164199997Y-131000000D03*
%TD*%
D21*
%TO.C,R70*%
X108980000Y-126000000D03*
X108980000Y-127000000D03*
%TD*%
D32*
%TO.C,U5*%
X192690000Y-68690000D03*
X192690000Y-70310000D03*
X194310000Y-68690000D03*
X194310000Y-70310000D03*
D33*
X191137500Y-68000000D03*
X191137500Y-68500000D03*
X191137500Y-69000000D03*
X191137500Y-69500000D03*
X191137500Y-70000000D03*
X191137500Y-70500000D03*
X191137500Y-71000000D03*
D34*
X192000000Y-71862500D03*
X192500000Y-71862500D03*
X193000000Y-71862500D03*
X193500000Y-71862500D03*
X194000000Y-71862500D03*
X194500000Y-71862500D03*
X195000000Y-71862500D03*
D33*
X195862500Y-71000000D03*
X195862500Y-70500000D03*
X195862500Y-70000000D03*
X195862500Y-69500000D03*
X195862500Y-69000000D03*
X195862500Y-68500000D03*
X195862500Y-68000000D03*
D34*
X195000000Y-67137500D03*
X194500000Y-67137500D03*
X194000000Y-67137500D03*
X193500000Y-67137500D03*
X193000000Y-67137500D03*
X192500000Y-67137500D03*
X192000000Y-67137500D03*
%TD*%
D18*
%TO.C,C1*%
X190900000Y-96000000D03*
X191900000Y-96000000D03*
%TD*%
D29*
%TO.C,C50*%
X166150000Y-84750000D03*
X166150000Y-83750000D03*
%TD*%
D20*
%TO.C,T14*%
X185950000Y-112350000D03*
X185950000Y-113450000D03*
%TD*%
D15*
%TO.C,T36*%
X101750000Y-84000000D03*
X101750000Y-82900000D03*
%TD*%
D19*
%TO.C,D9*%
X101110000Y-128000000D03*
X99610000Y-128000000D03*
%TD*%
D51*
%TO.C,SW6*%
X154399998Y-127300000D03*
X149399998Y-127300000D03*
X154399998Y-124800000D03*
X149399998Y-124800000D03*
X154399998Y-122300000D03*
X149399998Y-122300000D03*
%TD*%
D20*
%TO.C,T30*%
X208800000Y-114775000D03*
X208800000Y-115875000D03*
%TD*%
D29*
%TO.C,R35*%
X165200000Y-76250000D03*
X165200000Y-75250000D03*
%TD*%
D18*
%TO.C,R62*%
X158799997Y-129500000D03*
X159799997Y-129500000D03*
%TD*%
D52*
%TO.C,Q8*%
X77025000Y-132975000D03*
X77675000Y-132975000D03*
X78325000Y-132975000D03*
X78975000Y-132975000D03*
D53*
X78685000Y-131150000D03*
D52*
X78975000Y-130025000D03*
X78325000Y-130025000D03*
D54*
X77675001Y-130025001D03*
D52*
X77025000Y-130025000D03*
D53*
X77315000Y-131150000D03*
%TD*%
D18*
%TO.C,C76*%
X189100000Y-99000000D03*
X190100000Y-99000000D03*
%TD*%
%TO.C,R100*%
X95000000Y-82750000D03*
X96000000Y-82750000D03*
%TD*%
D15*
%TO.C,T24*%
X203725000Y-112325000D03*
X203725000Y-111225000D03*
%TD*%
D30*
%TO.C,D2*%
X152299998Y-131000000D03*
X152299998Y-129500000D03*
%TD*%
D18*
%TO.C,R91*%
X95050000Y-114050000D03*
X96050000Y-114050000D03*
%TD*%
D15*
%TO.C,T8*%
X139750000Y-84000000D03*
X139750000Y-82900000D03*
%TD*%
D55*
%TO.C,Y2*%
X236400000Y-131350000D03*
X238600000Y-131350000D03*
X238600000Y-129650000D03*
X236400000Y-129650000D03*
%TD*%
D56*
%TO.C,T20*%
X226050000Y-133900000D03*
X227150000Y-133900000D03*
%TD*%
D18*
%TO.C,R61*%
X158799997Y-131000000D03*
X159799997Y-131000000D03*
%TD*%
D51*
%TO.C,SW8*%
X168399997Y-127300000D03*
X163399997Y-127300000D03*
X168399997Y-124800000D03*
X163399997Y-124800000D03*
X168399997Y-122300000D03*
X163399997Y-122300000D03*
%TD*%
D29*
%TO.C,C48*%
X153850000Y-82950000D03*
X153850000Y-81950000D03*
%TD*%
D21*
%TO.C,C35*%
X184150000Y-81950000D03*
X184150000Y-82950000D03*
%TD*%
D18*
%TO.C,C75*%
X189100000Y-97999999D03*
X190100000Y-97999999D03*
%TD*%
D15*
%TO.C,T33*%
X100250000Y-84000000D03*
X100250000Y-82900000D03*
%TD*%
D20*
%TO.C,T16*%
X188500000Y-112350000D03*
X188500000Y-113450000D03*
%TD*%
D22*
%TO.C,R17*%
X197500000Y-66837500D03*
X197500000Y-68662500D03*
%TD*%
D31*
%TO.C,R31*%
X171300000Y-72212500D03*
X171300000Y-69287500D03*
%TD*%
D30*
%TO.C,D3*%
X138299998Y-131000000D03*
X138299998Y-129500000D03*
%TD*%
D18*
%TO.C,R97*%
X118500000Y-117000000D03*
X119500000Y-117000000D03*
%TD*%
D57*
%TO.C,U16*%
X236600000Y-127627500D03*
X236600000Y-126992500D03*
X236600000Y-126357500D03*
X236600000Y-125722500D03*
X236600000Y-125087500D03*
X236600000Y-124452500D03*
X236600000Y-123817500D03*
X236600000Y-123182500D03*
X236600000Y-122547500D03*
X236600000Y-121912500D03*
X236600000Y-121277500D03*
X236600000Y-120642500D03*
X236600000Y-120007500D03*
X236600000Y-119372500D03*
X231400000Y-119372500D03*
X231400000Y-120007500D03*
X231400000Y-120642500D03*
X231400000Y-121277500D03*
X231400000Y-121912500D03*
X231400000Y-122547500D03*
X231400000Y-123182500D03*
X231400000Y-123817500D03*
X231400000Y-124452500D03*
X231400000Y-125087500D03*
X231400000Y-125722500D03*
X231400000Y-126357500D03*
X231400000Y-126992500D03*
X231400000Y-127627500D03*
%TD*%
D29*
%TO.C,R28*%
X175800000Y-76250000D03*
X175800000Y-75250000D03*
%TD*%
%TO.C,C36*%
X171850000Y-82950000D03*
X171850000Y-81950000D03*
%TD*%
D14*
%TO.C,C57*%
X154200000Y-80425000D03*
X154200000Y-77475000D03*
%TD*%
D13*
%TO.C,C16*%
X224000000Y-70000000D03*
X223000000Y-70000000D03*
%TD*%
D50*
%TO.C,D17*%
X239750000Y-137500000D03*
X239750000Y-139000000D03*
%TD*%
D21*
%TO.C,R30*%
X170850000Y-73450000D03*
X170850000Y-74450000D03*
%TD*%
D14*
%TO.C,C44*%
X184800000Y-80425000D03*
X184800000Y-77475000D03*
%TD*%
D23*
%TO.C,C26*%
X213000000Y-67775000D03*
X213000000Y-66225000D03*
%TD*%
D19*
%TO.C,D15*%
X116360000Y-125000000D03*
X114860000Y-125000000D03*
%TD*%
D18*
%TO.C,R115*%
X202000000Y-73000000D03*
X203000000Y-73000000D03*
%TD*%
D29*
%TO.C,C40*%
X179200000Y-76250000D03*
X179200000Y-75250000D03*
%TD*%
D18*
%TO.C,C11*%
X228000000Y-72000000D03*
X229000000Y-72000000D03*
%TD*%
D58*
%TO.C,U12*%
X161975000Y-119862500D03*
X162625000Y-119862500D03*
X163275000Y-119862500D03*
X163925000Y-119862500D03*
X164575000Y-119862500D03*
X165225000Y-119862500D03*
X165875000Y-119862500D03*
X166525000Y-119862500D03*
X166525000Y-114137500D03*
X165875000Y-114137500D03*
X165225000Y-114137500D03*
X164575000Y-114137500D03*
X163925000Y-114137500D03*
X163275000Y-114137500D03*
X162625000Y-114137500D03*
X161975000Y-114137500D03*
%TD*%
D13*
%TO.C,R96*%
X112750000Y-111500000D03*
X111750000Y-111500000D03*
%TD*%
D29*
%TO.C,R42*%
X158800000Y-76250000D03*
X158800000Y-75250000D03*
%TD*%
D52*
%TO.C,Q10*%
X85025000Y-132975000D03*
X85675000Y-132975000D03*
X86325000Y-132975000D03*
X86975000Y-132975000D03*
D53*
X86685000Y-131150000D03*
D52*
X86975000Y-130025000D03*
X86325000Y-130025000D03*
D54*
X85675001Y-130025001D03*
D52*
X85025000Y-130025000D03*
D53*
X85315000Y-131150000D03*
%TD*%
D13*
%TO.C,R78*%
X237000000Y-117750000D03*
X236000000Y-117750000D03*
%TD*%
D29*
%TO.C,C94*%
X167150000Y-82950000D03*
X167150000Y-81950000D03*
%TD*%
D18*
%TO.C,C89*%
X217100000Y-93300000D03*
X218100000Y-93300000D03*
%TD*%
D17*
%TO.C,T32*%
X131250000Y-80000000D03*
X130150000Y-80000000D03*
%TD*%
D21*
%TO.C,R22*%
X185150000Y-73450000D03*
X185150000Y-74450000D03*
%TD*%
D13*
%TO.C,C22*%
X211000000Y-70000000D03*
X210000000Y-70000000D03*
%TD*%
D21*
%TO.C,C55*%
X159800000Y-75250000D03*
X159800000Y-76250000D03*
%TD*%
D18*
%TO.C,C31*%
X189000000Y-70000000D03*
X190000000Y-70000000D03*
%TD*%
D48*
%TO.C,SW11*%
X97310000Y-124650000D03*
X95110000Y-124650000D03*
X97310000Y-131950000D03*
X95110000Y-131950000D03*
D49*
X98010000Y-126050000D03*
X98010000Y-129050000D03*
X98010000Y-130550000D03*
%TD*%
D13*
%TO.C,C92*%
X200900000Y-90700000D03*
X199900000Y-90700000D03*
%TD*%
D15*
%TO.C,T31*%
X208800000Y-112275000D03*
X208800000Y-111175000D03*
%TD*%
D29*
%TO.C,R41*%
X163200000Y-76250000D03*
X163200000Y-75250000D03*
%TD*%
D21*
%TO.C,R72*%
X116610000Y-126000000D03*
X116610000Y-127000000D03*
%TD*%
D44*
%TO.C,C62*%
X120000000Y-72025000D03*
X120000000Y-74975000D03*
%TD*%
D30*
%TO.C,D5*%
X143699998Y-131000000D03*
X143699998Y-129500000D03*
%TD*%
D18*
%TO.C,R104*%
X190900000Y-100000000D03*
X191900000Y-100000000D03*
%TD*%
%TO.C,C67*%
X189100000Y-96999999D03*
X190100000Y-96999999D03*
%TD*%
D15*
%TO.C,T5*%
X135250000Y-84000000D03*
X135250000Y-82900000D03*
%TD*%
D58*
%TO.C,U13*%
X167475000Y-119862500D03*
X168125000Y-119862500D03*
X168775000Y-119862500D03*
X169425000Y-119862500D03*
X170075000Y-119862500D03*
X170725000Y-119862500D03*
X171375000Y-119862500D03*
X172025000Y-119862500D03*
X172025000Y-114137500D03*
X171375000Y-114137500D03*
X170725000Y-114137500D03*
X170075000Y-114137500D03*
X169425000Y-114137500D03*
X168775000Y-114137500D03*
X168125000Y-114137500D03*
X167475000Y-114137500D03*
%TD*%
D29*
%TO.C,C49*%
X154850000Y-82950000D03*
X154850000Y-81950000D03*
%TD*%
D18*
%TO.C,R99*%
X95050000Y-113050000D03*
X96050000Y-113050000D03*
%TD*%
D21*
%TO.C,R89*%
X241000000Y-135500000D03*
X241000000Y-136500000D03*
%TD*%
D30*
%TO.C,D6*%
X129699998Y-131000000D03*
X129699998Y-129500000D03*
%TD*%
D52*
%TO.C,Q9*%
X81025000Y-132975000D03*
X81675000Y-132975000D03*
X82325000Y-132975000D03*
X82975000Y-132975000D03*
D53*
X82685000Y-131150000D03*
D52*
X82975000Y-130025000D03*
X82325000Y-130025000D03*
D54*
X81675001Y-130025001D03*
D52*
X81025000Y-130025000D03*
D53*
X81315000Y-131150000D03*
%TD*%
D22*
%TO.C,R13*%
X223500000Y-66837500D03*
X223500000Y-68662500D03*
%TD*%
D13*
%TO.C,R112*%
X239750000Y-84500000D03*
X238750000Y-84500000D03*
%TD*%
%TO.C,R119*%
X235000000Y-117750000D03*
X234000000Y-117750000D03*
%TD*%
D18*
%TO.C,R59*%
X130799998Y-131000000D03*
X131799998Y-131000000D03*
%TD*%
D15*
%TO.C,T6*%
X136750000Y-84000000D03*
X136750000Y-82900000D03*
%TD*%
D21*
%TO.C,C51*%
X167150000Y-83750000D03*
X167150000Y-84750000D03*
%TD*%
%TO.C,R23*%
X186150000Y-73450000D03*
X186150000Y-74450000D03*
%TD*%
%TO.C,C90*%
X200000000Y-105300000D03*
X200000000Y-106300000D03*
%TD*%
D59*
%TO.C,U15*%
X212450000Y-114900000D03*
X214750000Y-114900000D03*
D60*
X214750000Y-108600000D03*
D59*
X217050000Y-114900000D03*
%TD*%
D19*
%TO.C,D10*%
X116360000Y-128000000D03*
X114860000Y-128000000D03*
%TD*%
D58*
%TO.C,U9*%
X156475000Y-119862500D03*
X157125000Y-119862500D03*
X157775000Y-119862500D03*
X158425000Y-119862500D03*
X159075000Y-119862500D03*
X159725000Y-119862500D03*
X160375000Y-119862500D03*
X161025000Y-119862500D03*
X161025000Y-114137500D03*
X160375000Y-114137500D03*
X159725000Y-114137500D03*
X159075000Y-114137500D03*
X158425000Y-114137500D03*
X157775000Y-114137500D03*
X157125000Y-114137500D03*
X156475000Y-114137500D03*
%TD*%
D18*
%TO.C,R110*%
X101500000Y-122500000D03*
X102500000Y-122500000D03*
%TD*%
D32*
%TO.C,U3*%
X218690000Y-68690000D03*
X218690000Y-70310000D03*
X220310000Y-68690000D03*
X220310000Y-70310000D03*
D33*
X217137500Y-68000000D03*
X217137500Y-68500000D03*
X217137500Y-69000000D03*
X217137500Y-69500000D03*
X217137500Y-70000000D03*
X217137500Y-70500000D03*
X217137500Y-71000000D03*
D34*
X218000000Y-71862500D03*
X218500000Y-71862500D03*
X219000000Y-71862500D03*
X219500000Y-71862500D03*
X220000000Y-71862500D03*
X220500000Y-71862500D03*
X221000000Y-71862500D03*
D33*
X221862500Y-71000000D03*
X221862500Y-70500000D03*
X221862500Y-70000000D03*
X221862500Y-69500000D03*
X221862500Y-69000000D03*
X221862500Y-68500000D03*
X221862500Y-68000000D03*
D34*
X221000000Y-67137500D03*
X220500000Y-67137500D03*
X220000000Y-67137500D03*
X219500000Y-67137500D03*
X219000000Y-67137500D03*
X218500000Y-67137500D03*
X218000000Y-67137500D03*
%TD*%
D13*
%TO.C,R54*%
X137199998Y-129500000D03*
X136199998Y-129500000D03*
%TD*%
D17*
%TO.C,T10*%
X131250000Y-75500000D03*
X130150000Y-75500000D03*
%TD*%
D42*
%TO.C,L2*%
X119175000Y-112450000D03*
X125225000Y-112450000D03*
%TD*%
D17*
%TO.C,T46*%
X115250000Y-74000000D03*
X114150000Y-74000000D03*
%TD*%
D36*
%TO.C,QB1*%
X177350000Y-74100000D03*
X177350000Y-73300000D03*
X177350000Y-72500000D03*
X177350000Y-71700000D03*
X177350000Y-70900000D03*
X177350000Y-70100000D03*
X173250000Y-70100000D03*
X173250000Y-70900000D03*
X173250000Y-71700000D03*
X173250000Y-72500000D03*
X173250000Y-73300000D03*
X173250000Y-74100000D03*
D37*
X175300000Y-73400000D03*
D38*
X176050000Y-71000000D03*
X174550000Y-71000000D03*
%TD*%
D18*
%TO.C,R9*%
X229150000Y-121800000D03*
X230150000Y-121800000D03*
%TD*%
D17*
%TO.C,T50*%
X115250000Y-78500000D03*
X114150000Y-78500000D03*
%TD*%
D61*
%TO.C,U1*%
X200075000Y-92500000D03*
X200075000Y-93000000D03*
X200075000Y-93500000D03*
X200075000Y-94000000D03*
X200075000Y-94500000D03*
X200075000Y-95000000D03*
X200075000Y-95500000D03*
X200075000Y-96000000D03*
X200075000Y-96500000D03*
X200075000Y-97000000D03*
X200075000Y-97500000D03*
X200075000Y-98000000D03*
X200075000Y-98500000D03*
X200075000Y-99000000D03*
X200075000Y-99500000D03*
X200075000Y-100000000D03*
X200075000Y-100500000D03*
X200075000Y-101000000D03*
X200075000Y-101500000D03*
X200075000Y-102000000D03*
X200075000Y-102500000D03*
X200075000Y-103000000D03*
X200075000Y-103500000D03*
X200075000Y-104000000D03*
X200075000Y-104500000D03*
D62*
X201750000Y-106175000D03*
X202250000Y-106175000D03*
X202750000Y-106175000D03*
X203250000Y-106175000D03*
X203750000Y-106175000D03*
X204250000Y-106175000D03*
X204750000Y-106175000D03*
X205250000Y-106175000D03*
X205750000Y-106175000D03*
X206250000Y-106175000D03*
X206750000Y-106175000D03*
X207250000Y-106175000D03*
X207750000Y-106175000D03*
X208250000Y-106175000D03*
X208750000Y-106175000D03*
X209250000Y-106175000D03*
X209750000Y-106175000D03*
X210250000Y-106175000D03*
X210750000Y-106175000D03*
X211250000Y-106175000D03*
X211750000Y-106175000D03*
X212250000Y-106175000D03*
X212750000Y-106175000D03*
X213250000Y-106175000D03*
X213750000Y-106175000D03*
D61*
X215425000Y-104500000D03*
X215425000Y-104000000D03*
X215425000Y-103500000D03*
X215425000Y-103000000D03*
X215425000Y-102500000D03*
X215425000Y-102000000D03*
X215425000Y-101500000D03*
X215425000Y-101000000D03*
X215425000Y-100500000D03*
X215425000Y-100000000D03*
X215425000Y-99500000D03*
X215425000Y-99000000D03*
X215425000Y-98500000D03*
X215425000Y-98000000D03*
X215425000Y-97500000D03*
X215425000Y-97000000D03*
X215425000Y-96500000D03*
X215425000Y-96000000D03*
X215425000Y-95500000D03*
X215425000Y-95000000D03*
X215425000Y-94500000D03*
X215425000Y-94000000D03*
X215425000Y-93500000D03*
X215425000Y-93000000D03*
X215425000Y-92500000D03*
D62*
X213750000Y-90825000D03*
X213250000Y-90825000D03*
X212750000Y-90825000D03*
X212250000Y-90825000D03*
X211750000Y-90825000D03*
X211250000Y-90825000D03*
X210750000Y-90825000D03*
X210250000Y-90825000D03*
X209750000Y-90825000D03*
X209250000Y-90825000D03*
X208750000Y-90825000D03*
X208250000Y-90825000D03*
X207750000Y-90825000D03*
X207250000Y-90825000D03*
X206750000Y-90825000D03*
X206250000Y-90825000D03*
X205750000Y-90825000D03*
X205250000Y-90825000D03*
X204750000Y-90825000D03*
X204250000Y-90825000D03*
X203750000Y-90825000D03*
X203250000Y-90825000D03*
X202750000Y-90825000D03*
X202250000Y-90825000D03*
X201750000Y-90825000D03*
%TD*%
D13*
%TO.C,R74*%
X230150000Y-118800000D03*
X229150000Y-118800000D03*
%TD*%
D18*
%TO.C,R114*%
X215000000Y-73000000D03*
X216000000Y-73000000D03*
%TD*%
D29*
%TO.C,C96*%
X186150000Y-84750000D03*
X186150000Y-83750000D03*
%TD*%
D13*
%TO.C,R111*%
X243750000Y-79000000D03*
X242750000Y-79000000D03*
%TD*%
D48*
%TO.C,SW1*%
X120170000Y-124650000D03*
X117970000Y-124650000D03*
X120170000Y-131950000D03*
X117970000Y-131950000D03*
D49*
X120870000Y-126050000D03*
X120870000Y-129050000D03*
X120870000Y-130550000D03*
%TD*%
D22*
%TO.C,R12*%
X228500000Y-66837500D03*
X228500000Y-68662500D03*
%TD*%
D29*
%TO.C,R65*%
X115610000Y-127000000D03*
X115610000Y-126000000D03*
%TD*%
D17*
%TO.C,T28*%
X131250000Y-77000000D03*
X130150000Y-77000000D03*
%TD*%
D20*
%TO.C,T23*%
X203725000Y-114875000D03*
X203725000Y-115975000D03*
%TD*%
D18*
%TO.C,C13*%
X228000000Y-70000000D03*
X229000000Y-70000000D03*
%TD*%
D13*
%TO.C,C2*%
X198500000Y-97500000D03*
X197500000Y-97500000D03*
%TD*%
D16*
%TO.C,C85*%
X115600000Y-107275000D03*
X117100000Y-107275000D03*
%TD*%
D18*
%TO.C,C29*%
X189000000Y-72000000D03*
X190000000Y-72000000D03*
%TD*%
D40*
%TO.C,U11*%
X99550000Y-116900000D03*
X98050000Y-116900000D03*
X99550000Y-118200000D03*
X98050000Y-118200000D03*
D41*
X100050000Y-115612500D03*
X99550000Y-115612500D03*
X99050000Y-115612500D03*
X98550000Y-115612500D03*
X98050000Y-115612500D03*
X97550000Y-115612500D03*
X97550000Y-119487500D03*
X98050000Y-119487500D03*
X98550000Y-119487500D03*
X99050000Y-119487500D03*
X99550000Y-119487500D03*
X100050000Y-119487500D03*
%TD*%
D13*
%TO.C,C82*%
X112750000Y-112500000D03*
X111750000Y-112500000D03*
%TD*%
%TO.C,R49*%
X151199998Y-131000000D03*
X150199998Y-131000000D03*
%TD*%
D18*
%TO.C,R60*%
X130799998Y-129500000D03*
X131799998Y-129500000D03*
%TD*%
D50*
%TO.C,D21*%
X238250000Y-133000000D03*
X238250000Y-134500000D03*
%TD*%
D63*
%TO.C,C14*%
X240200000Y-62275000D03*
X240200000Y-63825000D03*
%TD*%
D21*
%TO.C,R117*%
X171850000Y-83750000D03*
X171850000Y-84750000D03*
%TD*%
D23*
%TO.C,C20*%
X226000000Y-67775000D03*
X226000000Y-66225000D03*
%TD*%
D30*
%TO.C,D4*%
X166299997Y-131000000D03*
X166299997Y-129500000D03*
%TD*%
D18*
%TO.C,R113*%
X238750000Y-83500000D03*
X239750000Y-83500000D03*
%TD*%
D24*
%TO.C,SW3*%
X127599999Y-122300000D03*
X132599999Y-122300000D03*
X127599999Y-124800000D03*
X132599999Y-124800000D03*
X127599999Y-127300000D03*
X132599999Y-127300000D03*
%TD*%
D15*
%TO.C,T37*%
X103250000Y-84000000D03*
X103250000Y-82900000D03*
%TD*%
D22*
%TO.C,R11*%
X236500000Y-66837500D03*
X236500000Y-68662500D03*
%TD*%
D13*
%TO.C,C73*%
X96050000Y-118050000D03*
X95050000Y-118050000D03*
%TD*%
D36*
%TO.C,QA1*%
X183750000Y-74100000D03*
X183750000Y-73300000D03*
X183750000Y-72500000D03*
X183750000Y-71700000D03*
X183750000Y-70900000D03*
X183750000Y-70100000D03*
X179650000Y-70100000D03*
X179650000Y-70900000D03*
X179650000Y-71700000D03*
X179650000Y-72500000D03*
X179650000Y-73300000D03*
X179650000Y-74100000D03*
D37*
X181700000Y-73400000D03*
D38*
X182450000Y-71000000D03*
X180950000Y-71000000D03*
%TD*%
D29*
%TO.C,R52*%
X106980000Y-127000000D03*
X106980000Y-126000000D03*
%TD*%
%TO.C,C97*%
X168150000Y-84750000D03*
X168150000Y-83750000D03*
%TD*%
D17*
%TO.C,T26*%
X147250000Y-75500000D03*
X146150000Y-75500000D03*
%TD*%
D48*
%TO.C,SW9*%
X91100000Y-124600000D03*
X88900000Y-124600000D03*
X91100000Y-131900000D03*
X88900000Y-131900000D03*
D49*
X91800000Y-126000000D03*
X91800000Y-129000000D03*
X91800000Y-130500000D03*
%TD*%
D29*
%TO.C,R47*%
X155800000Y-76250000D03*
X155800000Y-75250000D03*
%TD*%
D21*
%TO.C,C34*%
X186150000Y-81950000D03*
X186150000Y-82950000D03*
%TD*%
D13*
%TO.C,R51*%
X151199998Y-129500000D03*
X150199998Y-129500000D03*
%TD*%
D29*
%TO.C,R25*%
X180200000Y-76250000D03*
X180200000Y-75250000D03*
%TD*%
D48*
%TO.C,SW10*%
X104930000Y-124650000D03*
X102730000Y-124650000D03*
X104930000Y-131950000D03*
X102730000Y-131950000D03*
D49*
X105630000Y-126050000D03*
X105630000Y-129050000D03*
X105630000Y-130550000D03*
%TD*%
D18*
%TO.C,R1*%
X192700000Y-96000000D03*
X193700000Y-96000000D03*
%TD*%
D21*
%TO.C,R29*%
X171850000Y-73450000D03*
X171850000Y-74450000D03*
%TD*%
D64*
%TO.C,U6*%
X176812500Y-80312500D03*
X176812500Y-81437500D03*
X176812500Y-82562500D03*
X176812500Y-83687500D03*
X177937500Y-80312500D03*
X177937500Y-81437500D03*
X177937500Y-82562500D03*
X177937500Y-83687500D03*
X179062500Y-80312500D03*
X179062500Y-81437500D03*
X179062500Y-82562500D03*
X179062500Y-83687500D03*
X180187500Y-80312500D03*
X180187500Y-81437500D03*
X180187500Y-82562500D03*
X180187500Y-83687500D03*
D65*
X174337500Y-79250000D03*
X174337500Y-79750000D03*
X174337500Y-80250000D03*
X174337500Y-80750000D03*
X174337500Y-81250000D03*
X174337500Y-81750000D03*
X174337500Y-82250000D03*
X174337500Y-82750000D03*
X174337500Y-83250000D03*
X174337500Y-83750000D03*
X174337500Y-84250000D03*
X174337500Y-84750000D03*
D66*
X175750000Y-86162500D03*
X176250000Y-86162500D03*
X176750000Y-86162500D03*
X177250000Y-86162500D03*
X177750000Y-86162500D03*
X178250000Y-86162500D03*
X178750000Y-86162500D03*
X179250000Y-86162500D03*
X179750000Y-86162500D03*
X180250000Y-86162500D03*
X180750000Y-86162500D03*
X181250000Y-86162500D03*
D65*
X182662500Y-84750000D03*
X182662500Y-84250000D03*
X182662500Y-83750000D03*
X182662500Y-83250000D03*
X182662500Y-82750000D03*
X182662500Y-82250000D03*
X182662500Y-81750000D03*
X182662500Y-81250000D03*
X182662500Y-80750000D03*
X182662500Y-80250000D03*
X182662500Y-79750000D03*
X182662500Y-79250000D03*
D66*
X181250000Y-77837500D03*
X180750000Y-77837500D03*
X180250000Y-77837500D03*
X179750000Y-77837500D03*
X179250000Y-77837500D03*
X178750000Y-77837500D03*
X178250000Y-77837500D03*
X177750000Y-77837500D03*
X177250000Y-77837500D03*
X176750000Y-77837500D03*
X176250000Y-77837500D03*
X175750000Y-77837500D03*
%TD*%
D50*
%TO.C,D20*%
X238250000Y-137500000D03*
X238250000Y-139000000D03*
%TD*%
D18*
%TO.C,C4*%
X189100000Y-101000000D03*
X190100000Y-101000000D03*
%TD*%
D36*
%TO.C,QA2*%
X165750000Y-74100000D03*
X165750000Y-73300000D03*
X165750000Y-72500000D03*
X165750000Y-71700000D03*
X165750000Y-70900000D03*
X165750000Y-70100000D03*
X161650000Y-70100000D03*
X161650000Y-70900000D03*
X161650000Y-71700000D03*
X161650000Y-72500000D03*
X161650000Y-73300000D03*
X161650000Y-74100000D03*
D37*
X163700000Y-73400000D03*
D38*
X164450000Y-71000000D03*
X162950000Y-71000000D03*
%TD*%
D22*
%TO.C,R14*%
X215500000Y-66837500D03*
X215500000Y-68662500D03*
%TD*%
D18*
%TO.C,R103*%
X190900000Y-98999999D03*
X191900000Y-98999999D03*
%TD*%
D13*
%TO.C,C12*%
X229000000Y-71000000D03*
X228000000Y-71000000D03*
%TD*%
D19*
%TO.C,D16*%
X123970000Y-128000000D03*
X122470000Y-128000000D03*
%TD*%
%TO.C,D8*%
X108730000Y-128000000D03*
X107230000Y-128000000D03*
%TD*%
D29*
%TO.C,C93*%
X185150000Y-82950000D03*
X185150000Y-81950000D03*
%TD*%
D18*
%TO.C,R7*%
X240800000Y-86500000D03*
X241800000Y-86500000D03*
%TD*%
D15*
%TO.C,T19*%
X212800000Y-138350000D03*
X212800000Y-137250000D03*
%TD*%
D20*
%TO.C,T2*%
X183400000Y-112350000D03*
X183400000Y-113450000D03*
%TD*%
D51*
%TO.C,SW4*%
X140399998Y-127300000D03*
X135399998Y-127300000D03*
X140399998Y-124800000D03*
X135399998Y-124800000D03*
X140399998Y-122300000D03*
X135399998Y-122300000D03*
%TD*%
D64*
%TO.C,U7*%
X158812500Y-80312500D03*
X158812500Y-81437500D03*
X158812500Y-82562500D03*
X158812500Y-83687500D03*
X159937500Y-80312500D03*
X159937500Y-81437500D03*
X159937500Y-82562500D03*
X159937500Y-83687500D03*
X161062500Y-80312500D03*
X161062500Y-81437500D03*
X161062500Y-82562500D03*
X161062500Y-83687500D03*
X162187500Y-80312500D03*
X162187500Y-81437500D03*
X162187500Y-82562500D03*
X162187500Y-83687500D03*
D65*
X156337500Y-79250000D03*
X156337500Y-79750000D03*
X156337500Y-80250000D03*
X156337500Y-80750000D03*
X156337500Y-81250000D03*
X156337500Y-81750000D03*
X156337500Y-82250000D03*
X156337500Y-82750000D03*
X156337500Y-83250000D03*
X156337500Y-83750000D03*
X156337500Y-84250000D03*
X156337500Y-84750000D03*
D66*
X157750000Y-86162500D03*
X158250000Y-86162500D03*
X158750000Y-86162500D03*
X159250000Y-86162500D03*
X159750000Y-86162500D03*
X160250000Y-86162500D03*
X160750000Y-86162500D03*
X161250000Y-86162500D03*
X161750000Y-86162500D03*
X162250000Y-86162500D03*
X162750000Y-86162500D03*
X163250000Y-86162500D03*
D65*
X164662500Y-84750000D03*
X164662500Y-84250000D03*
X164662500Y-83750000D03*
X164662500Y-83250000D03*
X164662500Y-82750000D03*
X164662500Y-82250000D03*
X164662500Y-81750000D03*
X164662500Y-81250000D03*
X164662500Y-80750000D03*
X164662500Y-80250000D03*
X164662500Y-79750000D03*
X164662500Y-79250000D03*
D66*
X163250000Y-77837500D03*
X162750000Y-77837500D03*
X162250000Y-77837500D03*
X161750000Y-77837500D03*
X161250000Y-77837500D03*
X160750000Y-77837500D03*
X160250000Y-77837500D03*
X159750000Y-77837500D03*
X159250000Y-77837500D03*
X158750000Y-77837500D03*
X158250000Y-77837500D03*
X157750000Y-77837500D03*
%TD*%
D29*
%TO.C,R36*%
X164200000Y-76250000D03*
X164200000Y-75250000D03*
%TD*%
D67*
%TO.C,SW13*%
X239400000Y-73150000D03*
X241600000Y-73150000D03*
X239400000Y-65850000D03*
X241600000Y-65850000D03*
D68*
X238700000Y-71750000D03*
X238700000Y-68750000D03*
X238700000Y-67250000D03*
%TD*%
D13*
%TO.C,R6*%
X96050000Y-119050000D03*
X95050000Y-119050000D03*
%TD*%
D21*
%TO.C,C46*%
X168150000Y-81950000D03*
X168150000Y-82950000D03*
%TD*%
D15*
%TO.C,T40*%
X107750000Y-84000000D03*
X107750000Y-82900000D03*
%TD*%
D18*
%TO.C,R92*%
X96850000Y-114050000D03*
X97850000Y-114050000D03*
%TD*%
D14*
%TO.C,C60*%
X120000000Y-79475000D03*
X120000000Y-76525000D03*
%TD*%
D18*
%TO.C,C3*%
X197500000Y-99500000D03*
X198500000Y-99500000D03*
%TD*%
D21*
%TO.C,R38*%
X168150000Y-73450000D03*
X168150000Y-74450000D03*
%TD*%
D30*
%TO.C,D12*%
X91550000Y-134850000D03*
X91550000Y-133350000D03*
%TD*%
D13*
%TO.C,R105*%
X96050000Y-117050000D03*
X95050000Y-117050000D03*
%TD*%
D18*
%TO.C,C71*%
X98700000Y-121050000D03*
X99700000Y-121050000D03*
%TD*%
%TO.C,R34*%
X153850000Y-83850000D03*
X154850000Y-83850000D03*
%TD*%
D69*
%TO.C,C74*%
X108950000Y-122500000D03*
X107050000Y-122500000D03*
%TD*%
D18*
%TO.C,R76*%
X89500000Y-134100000D03*
X90500000Y-134100000D03*
%TD*%
%TO.C,C91*%
X217000000Y-91600000D03*
X218000000Y-91600000D03*
%TD*%
D20*
%TO.C,T25*%
X206275000Y-114825000D03*
X206275000Y-115925000D03*
%TD*%
D29*
%TO.C,R48*%
X156800000Y-76250000D03*
X156800000Y-75250000D03*
%TD*%
D70*
%TO.C,U14*%
X241520000Y-75100000D03*
X238980000Y-75100000D03*
X238980000Y-81400000D03*
X241520000Y-81400000D03*
%TD*%
D29*
%TO.C,R21*%
X182200000Y-76250000D03*
X182200000Y-75250000D03*
%TD*%
%TO.C,R27*%
X176800000Y-76250000D03*
X176800000Y-75250000D03*
%TD*%
D25*
%TO.C,Q3*%
X162974998Y-128257500D03*
X162324998Y-128257500D03*
X161674998Y-128257500D03*
X161024998Y-128257500D03*
D26*
X161314998Y-130082500D03*
D25*
X161024998Y-131207500D03*
X161674998Y-131207500D03*
D27*
X162324997Y-131207499D03*
D25*
X162974998Y-131207500D03*
D26*
X162684998Y-130082500D03*
%TD*%
M02*
