M48
; DRILL file {KiCad 7.0.7-7.0.7~ubuntu22.04.1} date Wed 30 Aug 2023 01:26:55 AM PDT
; FORMAT={-:-/ absolute / inch / decimal}
; #@! TF.CreationDate,2023-08-30T01:26:55-07:00
; #@! TF.GenerationSoftware,Kicad,Pcbnew,7.0.7-7.0.7~ubuntu22.04.1
; #@! TF.FileFunction,Plated,1,4,PTH
FMAT,2
INCH
; #@! TA.AperFunction,Plated,PTH,ComponentDrill
T1C0.0079
; #@! TA.AperFunction,Plated,PTH,ViaDrill
T2C0.0098
; #@! TA.AperFunction,Plated,PTH,ViaDrill
T3C0.0118
; #@! TA.AperFunction,Plated,PTH,ComponentDrill
T4C0.0197
; #@! TA.AperFunction,Plated,PTH,ComponentDrill
T5C0.0236
; #@! TA.AperFunction,Plated,PTH,ComponentDrill
T6C0.0362
; #@! TA.AperFunction,Plated,PTH,ComponentDrill
T7C0.0374
; #@! TA.AperFunction,Plated,PTH,ComponentDrill
T8C0.0394
; #@! TA.AperFunction,Plated,PTH,ComponentDrill
T9C0.0402
; #@! TA.AperFunction,Plated,PTH,ComponentDrill
T10C0.0472
; #@! TA.AperFunction,Plated,PTH,ComponentDrill
T11C0.0787
; #@! TA.AperFunction,Plated,PTH,ComponentDrill
T12C0.0906
; #@! TA.AperFunction,Plated,PTH,ComponentDrill
T13C0.1260
; #@! TA.AperFunction,Plated,PTH,ComponentDrill
T14C0.1654
%
G90
G05
T1
X3.8406Y-4.5866
X3.8406Y-4.628
X3.8406Y-4.6693
X3.8898Y-4.5866
X3.8898Y-4.628
X3.8898Y-4.6693
X3.939Y-4.5866
X3.939Y-4.628
X3.939Y-4.6693
X4.498Y-4.3681
X4.498Y-4.4094
X4.498Y-4.4508
X4.5472Y-4.3681
X4.5472Y-4.4094
X4.5472Y-4.4508
X4.5965Y-4.3681
X4.5965Y-4.4094
X4.5965Y-4.4508
X6.2303Y-3.1398
X6.2303Y-3.2283
X6.2303Y-3.3169
X6.2746Y-3.1841
X6.2746Y-3.2726
X6.3189Y-3.1398
X6.3189Y-3.2283
X6.3189Y-3.3169
X6.3632Y-3.1841
X6.3632Y-3.2726
X6.4075Y-3.1398
X6.4075Y-3.2283
X6.4075Y-3.3169
X6.939Y-3.1398
X6.939Y-3.2283
X6.939Y-3.3169
X6.9833Y-3.1841
X6.9833Y-3.2726
X7.0276Y-3.1398
X7.0276Y-3.2283
X7.0276Y-3.3169
X7.0719Y-3.1841
X7.0719Y-3.2726
X7.1161Y-3.1398
X7.1161Y-3.2283
X7.1161Y-3.3169
X7.564Y-2.6821
X7.564Y-2.7362
X7.564Y-2.7904
X7.6181Y-2.6821
X7.6181Y-2.7362
X7.6181Y-2.7904
X7.6722Y-2.6821
X7.6722Y-2.7362
X7.6722Y-2.7904
X8.0758Y-2.6821
X8.0758Y-2.7362
X8.0758Y-2.7904
X8.1299Y-2.6821
X8.1299Y-2.7362
X8.1299Y-2.7904
X8.1841Y-2.6821
X8.1841Y-2.7362
X8.1841Y-2.7904
X8.5876Y-2.6821
X8.5876Y-2.7362
X8.5876Y-2.7904
X8.6417Y-2.6821
X8.6417Y-2.7362
X8.6417Y-2.7904
X8.6959Y-2.6821
X8.6959Y-2.7362
X8.6959Y-2.7904
X9.0994Y-2.6821
X9.0994Y-2.7362
X9.0994Y-2.7904
X9.1535Y-2.6821
X9.1535Y-2.7362
X9.1535Y-2.7904
X9.2077Y-2.6821
X9.2077Y-2.7362
X9.2077Y-2.7904
T2
X2.874Y-4.9213
X2.9921Y-3.4252
X3.0315Y-5.2657
X3.0709Y-5.2657
X3.1102Y-2.8346
X3.1102Y-3.2283
X3.1102Y-4.2126
X3.1102Y-5.2657
X3.1496Y-5.2657
X3.189Y-5.2657
X3.2283Y-5.2657
X3.2677Y-5.2657
X3.3071Y-5.2657
X3.3465Y-5.2657
X3.3858Y-3.1102
X3.3858Y-5.2657
X3.4252Y-5.2657
X3.5Y-5.0197
X3.5039Y-5.1437
X3.5453Y-5.187
X3.622Y-4.7638
X3.7205Y-4.5492
X3.7205Y-4.5886
X3.8287Y-2.9724
X3.8799Y-4.7382
X3.8957Y-5.0984
X3.9508Y-5.0984
X3.9882Y-5.0984
X4.0118Y-5.0787
X4.0118Y-5.0984
X4.0551Y-4.0748
X4.0551Y-4.1142
X4.0551Y-4.1535
X4.0551Y-4.1929
X4.065Y-3.2283
X4.0945Y-4.1535
X4.0945Y-4.1929
X4.1957Y-5.0984
X4.2508Y-5.0984
X4.2882Y-5.0984
X4.3118Y-5.0787
X4.3118Y-5.0984
X4.4587Y-2.9724
X4.4961Y-5.0984
X4.5374Y-4.5197
X4.5512Y-5.0984
X4.5886Y-5.0984
X4.6122Y-5.0787
X4.6122Y-5.0984
X4.6181Y-4.3189
X4.6181Y-4.3425
X4.6417Y-4.2224
X4.6417Y-4.252
X4.6417Y-4.2795
X4.6417Y-4.5906
X4.7957Y-5.0984
X4.8508Y-5.0984
X4.8882Y-5.0984
X4.9118Y-5.0787
X4.9118Y-5.0984
X4.9232Y-4.5984
X4.9232Y-4.624
X5.0Y-3.8976
X5.0787Y-4.1732
X5.0807Y-3.3327
X5.0846Y-3.5098
X5.1457Y-3.4961
X5.1693Y-3.3425
X5.1713Y-3.4715
X5.2067Y-3.4636
X5.2087Y-3.3465
X5.2205Y-5.0709
X5.2402Y-3.4557
X5.25Y-3.3465
X5.2628Y-4.8051
X5.2638Y-5.0236
X5.2677Y-5.0689
X5.2717Y-3.4478
X5.2874Y-5.0236
X5.3012Y-3.3524
X5.3071Y-5.0689
X5.3287Y-3.3681
X5.3307Y-5.0512
X5.3346Y-5.0748
X5.3524Y-3.2283
X5.5512Y-4.2126
X5.5748Y-3.2618
X5.5846Y-3.3287
X5.7717Y-5.0709
X5.7717Y-3.3524
X5.813Y-3.2461
X5.815Y-5.0236
X5.8189Y-5.0689
X5.8386Y-5.0236
X5.8583Y-5.0689
X5.876Y-3.3169
X5.8819Y-5.0512
X5.8858Y-5.0748
X6.0197Y-3.0315
X6.0197Y-3.0512
X6.0197Y-3.0709
X6.0433Y-3.5354
X6.0433Y-3.6339
X6.0551Y-4.7047
X6.0571Y-2.9508
X6.0571Y-2.9803
X6.0768Y-3.2657
X6.0787Y-3.5492
X6.0827Y-4.6811
X6.0925Y-3.7992
X6.0945Y-2.9429
X6.1024Y-3.5728
X6.1063Y-4.6575
X6.1093Y-4.7549
X6.1102Y-4.4311
X6.1201Y-3.6122
X6.122Y-4.4882
X6.1457Y-2.8583
X6.1457Y-2.8957
X6.1457Y-2.9331
X6.1535Y-3.0246
X6.1555Y-3.1693
X6.1594Y-3.065
X6.1594Y-3.0945
X6.1604Y-4.4213
X6.1604Y-4.6024
X6.1614Y-3.6909
X6.1614Y-4.3406
X6.1693Y-2.877
X6.1693Y-2.9144
X6.186Y-4.5276
X6.186Y-4.7539
X6.189Y-3.065
X6.189Y-3.4213
X6.1929Y-2.8583
X6.1929Y-2.9331
X6.1929Y-2.8957
X6.2047Y-4.4173
X6.2116Y-4.685
X6.2165Y-2.877
X6.2165Y-2.9144
X6.2165Y-4.6496
X6.2205Y-3.6368
X6.2224Y-3.1122
X6.2303Y-3.4272
X6.2402Y-2.8583
X6.2402Y-2.8957
X6.2402Y-2.9331
X6.2441Y-4.622
X6.25Y-3.4508
X6.2598Y-3.6447
X6.2697Y-3.0965
X6.2697Y-3.4272
X6.2717Y-4.5945
X6.2884Y-4.685
X6.2913Y-2.9429
X6.2992Y-3.6614
X6.3228Y-5.0709
X6.3258Y-3.6289
X6.3287Y-3.3602
X6.3396Y-4.5276
X6.3465Y-2.9429
X6.3543Y-4.7185
X6.3661Y-5.0236
X6.3681Y-3.0965
X6.3681Y-3.3602
X6.3701Y-5.0689
X6.377Y-4.5276
X6.377Y-4.7539
X6.3898Y-5.0236
X6.3898Y-4.8425
X6.3976Y-2.8583
X6.3976Y-2.8957
X6.3976Y-2.9331
X6.4094Y-5.0689
X6.4213Y-2.877
X6.4213Y-2.9144
X6.4281Y-4.685
X6.4331Y-5.0512
X6.437Y-5.0748
X6.4449Y-2.8583
X6.4449Y-2.8957
X6.4449Y-2.9331
X6.4685Y-2.877
X6.4685Y-2.9144
X6.4843Y-3.0236
X6.4921Y-2.8583
X6.4921Y-2.8957
X6.4921Y-2.9331
X6.5049Y-4.685
X6.5413Y-3.3622
X6.5433Y-2.9429
X6.5551Y-3.4429
X6.5561Y-4.5276
X6.5709Y-4.7195
X6.5807Y-2.9508
X6.5807Y-2.9803
X6.5866Y-4.1358
X6.5935Y-4.5276
X6.5935Y-4.7539
X6.6181Y-3.0315
X6.6181Y-3.0512
X6.6181Y-3.0709
X6.6447Y-4.685
X6.6811Y-4.4104
X6.6929Y-2.5197
X6.7215Y-4.685
X6.7283Y-3.0315
X6.7283Y-3.0512
X6.7283Y-3.0709
X6.747Y-4.7539
X6.7657Y-2.9508
X6.7657Y-2.9803
X6.7726Y-4.5276
X6.8012Y-4.2224
X6.8031Y-2.9429
X6.811Y-4.626
X6.811Y-4.6654
X6.811Y-4.7047
X6.814Y-4.2992
X6.8406Y-4.1831
X6.8504Y-4.626
X6.8504Y-4.6654
X6.8504Y-4.7047
X6.8543Y-2.8583
X6.8543Y-2.8957
X6.8543Y-2.9331
X6.8602Y-4.1634
X6.8622Y-3.0246
X6.8681Y-3.065
X6.8681Y-3.0945
X6.878Y-2.877
X6.878Y-2.9144
X6.8799Y-4.1437
X6.8976Y-3.065
X6.8996Y-4.124
X6.9016Y-2.8583
X6.9016Y-2.9331
X6.9016Y-2.8957
X6.9252Y-2.877
X6.9252Y-2.9144
X6.9291Y-3.6368
X6.9291Y-4.2913
X6.9311Y-3.1122
X6.939Y-3.4272
X6.9488Y-2.8583
X6.9488Y-2.8957
X6.9488Y-2.9331
X6.9587Y-3.3602
X6.9587Y-4.3012
X6.9685Y-3.6447
X6.9783Y-3.0965
X6.9783Y-3.4272
X6.9783Y-4.1437
X6.9882Y-4.311
X6.998Y-4.124
X7.0Y-2.9429
X7.0079Y-3.6614
X7.0177Y-4.1043
X7.0177Y-4.3209
X7.0374Y-3.3602
X7.0374Y-4.0846
X7.0423Y-3.628
X7.0472Y-4.3307
X7.0551Y-2.9429
X7.0768Y-3.0965
X7.0768Y-3.3602
X7.0768Y-4.3406
X7.1063Y-2.8583
X7.1063Y-2.8957
X7.1063Y-2.9331
X7.122Y-4.498
X7.126Y-3.9961
X7.1299Y-2.877
X7.1299Y-2.9144
X7.1535Y-2.8583
X7.1535Y-2.8957
X7.1535Y-2.9331
X7.1772Y-2.877
X7.1772Y-2.9144
X7.1929Y-3.0236
X7.2008Y-2.8583
X7.2008Y-2.8957
X7.2008Y-2.9331
X7.2205Y-4.498
X7.2323Y-3.4016
X7.252Y-2.9429
X7.2638Y-4.7441
X7.2638Y-5.1969
X7.2697Y-3.3583
X7.2894Y-2.9508
X7.2894Y-2.9803
X7.3228Y-3.7008
X7.3268Y-3.0315
X7.3268Y-3.0512
X7.3268Y-3.0709
X7.3622Y-2.4409
X7.3622Y-2.4803
X7.3622Y-2.5197
X7.3622Y-2.5591
X7.3622Y-2.5984
X7.3622Y-3.9961
X7.3622Y-4.3307
X7.3642Y-3.2953
X7.3839Y-3.628
X7.4134Y-3.622
X7.4173Y-2.7953
X7.4213Y-3.8189
X7.4213Y-3.8583
X7.4213Y-3.8976
X7.4213Y-3.937
X7.4213Y-3.9764
X7.4213Y-4.0157
X7.435Y-3.6004
X7.4409Y-2.4508
X7.4409Y-2.4902
X7.4685Y-3.5827
X7.4685Y-3.6378
X7.4921Y-3.565
X7.4921Y-3.6594
X7.4941Y-3.3169
X7.5039Y-2.6969
X7.5157Y-3.5354
X7.5157Y-3.5827
X7.5335Y-3.5591
X7.5512Y-3.5354
X7.5591Y-3.6614
X7.5701Y-3.9478
X7.5748Y-3.8189
X7.5748Y-3.8583
X7.5748Y-3.8976
X7.5886Y-2.8307
X7.5984Y-4.1634
X7.6083Y-3.6122
X7.6181Y-4.0157
X7.628Y-3.5925
X7.6378Y-5.1378
X7.6378Y-5.2165
X7.6378Y-5.2953
X7.6378Y-5.374
X7.6378Y-5.4528
X7.6417Y-3.7795
X7.6476Y-3.6122
X7.6476Y-3.7205
X7.6476Y-4.3898
X7.6535Y-4.8543
X7.6673Y-3.5925
X7.6752Y-3.8169
X7.6772Y-2.874
X7.6772Y-5.0787
X7.7087Y-3.3563
X7.7185Y-2.811
X7.7362Y-3.311
X7.7362Y-4.1339
X7.7362Y-5.0394
X7.7421Y-3.9961
X7.7461Y-3.3563
X7.7717Y-3.6535
X7.7726Y-3.7746
X7.7756Y-3.3563
X7.7776Y-2.7756
X7.7874Y-3.6043
X7.7953Y-2.4508
X7.7953Y-2.4902
X7.7963Y-3.8179
X7.8051Y-3.3563
X7.815Y-4.0354
X7.815Y-5.0394
X7.8346Y-3.3563
X7.8406Y-3.7795
X7.8406Y-3.8386
X7.8406Y-3.8976
X7.8937Y-5.0394
X7.9134Y-3.7402
X7.9134Y-3.7992
X7.9134Y-4.0453
X7.9144Y-4.1339
X7.9232Y-3.6516
X7.9232Y-3.6811
X7.9232Y-3.7106
X7.9291Y-2.7953
X7.9409Y-4.0709
X7.9429Y-3.5394
X7.9528Y-2.4508
X7.9528Y-2.4902
X7.9528Y-3.6516
X7.9528Y-3.8583
X7.9528Y-4.0157
X7.9626Y-3.6122
X7.9724Y-5.0394
X7.9803Y-4.1102
X7.9823Y-3.5394
X7.9823Y-4.1437
X8.002Y-3.6122
X8.0157Y-2.6969
X8.0157Y-2.874
X8.0217Y-3.5394
X8.0413Y-3.6122
X8.0512Y-5.0394
X8.0709Y-4.6063
X8.0807Y-3.6122
X8.1004Y-2.8307
X8.1004Y-3.5394
X8.1299Y-5.0394
X8.1496Y-4.1339
X8.189Y-3.7795
X8.189Y-3.8976
X8.2087Y-5.0394
X8.2303Y-2.811
X8.2677Y-3.8583
X8.2677Y-5.0787
X8.2874Y-2.7815
X8.3031Y-4.5256
X8.3071Y-2.4508
X8.3071Y-2.4902
X8.3071Y-3.7008
X8.3071Y-4.0551
X8.3071Y-5.1378
X8.3071Y-5.2165
X8.3071Y-5.2953
X8.3071Y-5.374
X8.3465Y-3.9764
X8.3661Y-4.5886
X8.374Y-3.6457
X8.376Y-4.4469
X8.3917Y-3.6693
X8.4094Y-3.6457
X8.4094Y-4.5256
X8.4154Y-4.2165
X8.4272Y-3.6693
X8.437Y-4.7795
X8.4409Y-2.7953
X8.4449Y-3.7795
X8.4488Y-3.5914
X8.4646Y-2.4508
X8.4646Y-2.4902
X8.4724Y-3.5748
X8.4961Y-3.5531
X8.5177Y-3.6417
X8.5177Y-3.7598
X8.5177Y-3.7992
X8.5236Y-4.1969
X8.5276Y-2.6969
X8.5276Y-2.874
X8.5276Y-4.1496
X8.5374Y-4.2362
X8.5433Y-3.4252
X8.5551Y-4.2185
X8.563Y-3.6378
X8.5709Y-4.4764
X8.6102Y-4.437
X8.6122Y-2.8307
X8.6417Y-3.5827
X8.6535Y-5.2992
X8.689Y-4.0236
X8.6969Y-3.8268
X8.7303Y-3.376
X8.7303Y-3.4449
X8.7421Y-2.811
X8.7598Y-2.9528
X8.7992Y-2.7815
X8.7992Y-2.9528
X8.8189Y-2.4508
X8.8189Y-2.4902
X8.8386Y-2.9528
X8.8819Y-4.5
X8.8882Y-4.3685
X8.9075Y-4.6929
X8.937Y-3.3071
X8.937Y-3.3465
X8.937Y-3.3858
X8.937Y-3.4252
X8.9488Y-5.0157
X8.9528Y-2.7953
X8.9547Y-3.9528
X8.9764Y-2.4508
X8.9764Y-2.4902
X8.9961Y-4.0453
X9.0362Y-4.7417
X9.0394Y-2.6969
X9.0394Y-2.8524
X9.0551Y-3.563
X9.0768Y-4.8496
X9.0846Y-3.563
X9.1142Y-3.563
X9.1181Y-5.1732
X9.124Y-2.8307
X9.124Y-3.3071
X9.124Y-3.376
X9.124Y-3.4449
X9.1535Y-2.9528
X9.1929Y-2.9528
X9.1969Y-4.252
X9.2323Y-2.9528
X9.2539Y-2.811
X9.2913Y-3.2677
X9.2913Y-3.3071
X9.2913Y-3.3465
X9.2992Y-2.9134
X9.311Y-2.7815
X9.311Y-3.4154
X9.3169Y-5.0571
X9.3307Y-2.4508
X9.3307Y-2.4902
X9.3307Y-5.2756
X9.3504Y-5.1713
X9.3661Y-2.9724
X9.3799Y-5.3248
X9.4094Y-5.2657
X9.4094Y-5.4429
X9.4528Y-2.9764
X9.6063Y-3.5827
X9.7638Y-3.1102
X9.7638Y-3.5827
T3
X3.2835Y-2.5787
X3.3071Y-2.5787
X3.3307Y-2.5787
X3.4016Y-2.5787
X3.4252Y-2.5787
X3.4488Y-2.5787
X3.7008Y-2.8031
X3.752Y-3.0984
X3.8159Y-4.6959
X3.8318Y-4.746
X3.8524Y-4.4626
X3.8996Y-4.5256
X3.9193Y-4.4705
X3.9606Y-4.5512
X3.9764Y-4.4075
X3.9862Y-4.4409
X3.9862Y-4.4705
X3.9862Y-4.498
X4.0728Y-4.3346
X4.0984Y-2.811
X4.1083Y-4.4291
X4.2795Y-4.3051
X4.2835Y-4.4213
X4.4764Y-4.4764
X4.4803Y-4.2421
X4.49Y-4.5265
X4.5138Y-4.2126
X4.5335Y-4.252
X4.5571Y-4.3071
X4.5768Y-4.1535
X4.5768Y-4.252
X4.6654Y-2.6575
X4.6654Y-2.9528
X4.6654Y-3.0118
X4.6654Y-3.3071
X4.7008Y-2.8051
X4.7008Y-3.1594
X4.7244Y-2.8051
X4.7244Y-3.1594
X4.748Y-2.8051
X4.748Y-3.1594
X4.7835Y-2.6575
X4.7835Y-2.9528
X4.7835Y-3.0118
X4.7835Y-3.3071
X4.874Y-3.2677
X4.935Y-4.8386
X4.9764Y-4.8169
X4.9843Y-3.2953
X5.0236Y-4.8386
X5.0236Y-4.9882
X5.0276Y-3.5512
X5.0531Y-4.2618
X5.0538Y-4.8097
X5.0591Y-2.9724
X5.0866Y-3.7126
X5.0866Y-4.0906
X5.2205Y-4.8386
X5.2205Y-4.9882
X5.3307Y-4.8386
X5.3307Y-4.9882
X5.5276Y-4.8386
X5.5276Y-4.9882
X5.5748Y-4.8386
X5.5748Y-4.9882
X5.7717Y-4.8386
X5.7717Y-4.9882
X5.8819Y-4.8386
X5.8819Y-4.9882
X6.0118Y-2.6929
X6.0354Y-2.6929
X6.0472Y-3.1339
X6.0591Y-2.6929
X6.0787Y-4.8386
X6.0787Y-4.9882
X6.0827Y-2.7559
X6.0827Y-2.7795
X6.0827Y-2.8031
X6.0945Y-3.1339
X6.126Y-4.8386
X6.126Y-4.9882
X6.3031Y-2.7559
X6.3031Y-2.7795
X6.3031Y-2.8031
X6.3228Y-4.8386
X6.3228Y-4.9882
X6.3346Y-2.7559
X6.3346Y-2.7795
X6.3346Y-2.8031
X6.4331Y-4.8386
X6.4331Y-4.9882
X6.5394Y-3.1142
X6.5433Y-3.1949
X6.5551Y-2.7559
X6.5551Y-2.7795
X6.5551Y-2.8031
X6.5787Y-2.6929
X6.5906Y-3.1949
X6.6024Y-2.6929
X6.626Y-2.6929
X6.6299Y-4.8386
X6.6299Y-4.9882
X6.7205Y-2.6929
X6.7441Y-2.6929
X6.7559Y-3.1339
X6.7677Y-2.6929
X6.7913Y-2.7559
X6.7913Y-2.7795
X6.7913Y-2.8031
X6.8031Y-3.1339
X7.0118Y-2.7559
X7.0118Y-2.7795
X7.0118Y-2.8031
X7.0433Y-2.7559
X7.0433Y-2.7795
X7.0433Y-2.8031
X7.1102Y-5.2441
X7.1417Y-5.1614
X7.1772Y-5.1969
X7.252Y-3.1949
X7.252Y-5.3583
X7.2638Y-2.7559
X7.2638Y-2.7795
X7.2638Y-2.8031
X7.2874Y-2.6929
X7.2992Y-3.1949
X7.311Y-2.6929
X7.3346Y-2.6929
X7.4488Y-2.6024
X7.4488Y-2.6732
X7.4606Y-5.1417
X7.4724Y-2.6024
X7.4724Y-2.6732
X7.5394Y-4.3504
X7.5433Y-2.6299
X7.5433Y-2.6535
X7.5591Y-2.6024
X7.5787Y-2.6181
X7.6575Y-2.6181
X7.6772Y-2.6024
X7.6772Y-3.8465
X7.6772Y-3.9094
X7.6929Y-2.6299
X7.6929Y-2.6535
X7.7638Y-2.6024
X7.7638Y-2.6732
X7.7874Y-2.6024
X7.7874Y-2.6732
X7.874Y-2.5807
X7.9429Y-3.3563
X7.9606Y-2.6024
X7.9606Y-2.6732
X7.9606Y-4.3898
X7.9724Y-3.3563
X7.9843Y-2.6024
X7.9843Y-2.6732
X8.002Y-3.3563
X8.0217Y-3.6516
X8.0315Y-3.3563
X8.0551Y-2.6299
X8.0551Y-2.6535
X8.061Y-3.3563
X8.061Y-3.6516
X8.0709Y-2.6024
X8.0787Y-4.3976
X8.0906Y-2.6181
X8.0906Y-3.3563
X8.1004Y-2.9705
X8.1004Y-3.6516
X8.1201Y-3.3563
X8.1496Y-3.3563
X8.1693Y-2.6181
X8.189Y-2.6024
X8.2047Y-2.6299
X8.2047Y-2.6535
X8.2756Y-2.6024
X8.2756Y-2.6732
X8.2992Y-2.6024
X8.2992Y-2.6732
X8.3169Y-3.3366
X8.3661Y-3.4154
X8.3858Y-2.5807
X8.3858Y-3.435
X8.4055Y-3.4547
X8.4252Y-3.4744
X8.4724Y-2.6024
X8.4724Y-2.6732
X8.4961Y-2.6024
X8.4961Y-2.6732
X8.5039Y-2.9724
X8.5669Y-2.6299
X8.5669Y-2.6535
X8.5827Y-2.6024
X8.6024Y-2.6181
X8.6122Y-3.0118
X8.6811Y-2.6181
X8.7008Y-2.6024
X8.7165Y-2.6299
X8.7165Y-2.6535
X8.7303Y-3.3071
X8.7874Y-2.6024
X8.7874Y-2.6732
X8.811Y-2.6024
X8.811Y-2.6732
X8.8976Y-2.5807
X8.9843Y-2.6024
X8.9843Y-2.6732
X9.0079Y-2.6024
X9.0079Y-2.6732
X9.065Y-2.8839
X9.0787Y-2.6299
X9.0787Y-2.6535
X9.0945Y-2.6024
X9.1142Y-2.6181
X9.124Y-2.9705
X9.1929Y-2.6181
X9.2126Y-2.6024
X9.2283Y-2.6299
X9.2283Y-2.6535
X9.2992Y-2.6024
X9.2992Y-2.6732
X9.3228Y-2.6024
X9.3228Y-2.6732
X9.3996Y-2.6772
X9.4567Y-2.5394
T4
X2.8189Y-2.5197
X2.8189Y-5.3543
X2.8466Y-2.4529
X2.8466Y-2.5865
X2.8466Y-5.2875
X2.8466Y-5.4211
X2.9134Y-2.4252
X2.9134Y-2.6142
X2.9134Y-5.2598
X2.9134Y-5.4488
X2.9802Y-2.4529
X2.9802Y-2.5865
X2.9802Y-5.2875
X2.9802Y-5.4211
X3.0079Y-2.5197
X3.0079Y-5.3543
X9.5906Y-2.5197
X9.5906Y-5.3543
X9.6182Y-2.4529
X9.6182Y-2.5865
X9.6182Y-5.2875
X9.6182Y-5.4211
X9.685Y-2.4252
X9.685Y-2.6142
X9.685Y-5.2598
X9.685Y-5.4488
X9.7519Y-2.4529
X9.7519Y-2.5865
X9.7519Y-5.2875
X9.7519Y-5.4211
X9.7795Y-2.5197
X9.7795Y-5.3543
T6
X9.5369Y-4.0354
X9.5369Y-4.1339
X9.5369Y-4.2126
X9.5369Y-4.311
X9.5369Y-4.7441
X9.5369Y-4.8425
X9.5369Y-4.9213
X9.5369Y-5.0197
X9.6401Y-4.0354
X9.6401Y-4.1339
X9.6401Y-4.2126
X9.6401Y-4.311
X9.6401Y-4.7441
X9.6401Y-4.8425
X9.6401Y-4.9213
X9.6401Y-5.0197
T7
X6.2392Y-3.7008
X6.2392Y-3.7992
X6.2392Y-3.8976
X6.2392Y-4.1339
X6.2392Y-4.2323
X6.2392Y-4.3307
X6.5148Y-3.7008
X6.5148Y-3.7992
X6.5148Y-3.8976
X6.5148Y-4.1339
X6.5148Y-4.2323
X6.5148Y-4.3307
X9.6959Y-2.7756
X9.6959Y-2.874
X9.6959Y-2.9724
T8
X5.1585Y-4.4193
X5.1585Y-4.5177
X5.1585Y-5.3051
X5.1585Y-5.4035
X5.4341Y-5.3051
X5.4341Y-5.4035
X5.4341Y-4.4193
X5.4341Y-4.5177
X5.7096Y-4.4193
X5.7096Y-4.5177
X5.7096Y-5.3051
X5.7096Y-5.4035
X5.9852Y-5.3051
X5.9852Y-5.4035
X5.9852Y-4.4193
X5.9852Y-4.5177
X6.2608Y-5.3051
X6.2608Y-5.4035
X6.5364Y-5.3051
X6.5364Y-5.4035
X7.1209Y-4.2717
X7.2209Y-4.2717
X7.3209Y-4.2717
X7.4209Y-4.2717
X7.4705Y-2.5494
X7.5209Y-4.2717
X7.5689Y-2.5494
X7.6673Y-2.5494
X7.7657Y-2.5494
X7.9823Y-2.5494
X8.0807Y-2.5494
X8.1791Y-2.5494
X8.2776Y-2.5494
X8.4941Y-2.5494
X8.5925Y-2.5494
X8.6909Y-2.5494
X8.7499Y-3.6976
X8.7499Y-3.7976
X8.7499Y-3.8976
X8.7499Y-3.9976
X8.7499Y-4.0976
X8.7894Y-2.5494
X8.8499Y-3.6976
X8.8499Y-3.7976
X8.8499Y-3.8976
X8.8499Y-3.9976
X8.8499Y-4.0976
X9.0059Y-2.5494
X9.1043Y-2.5494
X9.1436Y-3.6976
X9.1436Y-3.7976
X9.1436Y-3.8976
X9.1436Y-3.9976
X9.1436Y-4.0976
X9.2028Y-2.5494
X9.2436Y-3.6976
X9.2436Y-3.7976
X9.2436Y-3.8976
X9.2436Y-3.9976
X9.2436Y-4.0976
X9.3012Y-2.5494
T9
X6.1417Y-2.6366
X6.2598Y-2.6366
X6.378Y-2.6366
X6.4961Y-2.6366
X6.8504Y-2.6366
X6.9685Y-2.6366
X7.0866Y-2.6366
X7.2047Y-2.6366
T10
X3.803Y-5.374
X3.9567Y-5.374
X4.103Y-5.374
X4.2567Y-5.374
X4.3209Y-3.9046
X4.3209Y-4.1014
X4.4033Y-5.374
X4.5571Y-5.374
X4.703Y-5.374
X4.8327Y-3.9046
X4.8327Y-4.1014
X4.8567Y-5.374
X5.3445Y-3.9046
X5.3445Y-4.1014
X5.8563Y-3.9046
X5.8563Y-4.1014
T11
X3.2776Y-3.002
X3.2776Y-3.376
X3.2776Y-3.75
X3.2776Y-4.124
X3.2776Y-4.498
X3.2776Y-4.872
T12
X9.5231Y-3.9146
X9.5231Y-4.4319
X9.5231Y-4.6232
X9.5231Y-5.1406
X9.7468Y-3.9146
X9.7468Y-4.4319
X9.7468Y-4.6232
X9.7468Y-5.1406
T13
X2.9134Y-2.5197
X2.9134Y-5.3543
X9.685Y-2.5197
X9.685Y-5.3543
T14
X3.622Y-2.5197
X4.5669Y-2.5197
X4.8819Y-2.5197
X5.8268Y-2.5197
X6.9291Y-4.4685
X6.9291Y-5.374
X9.2126Y-4.4685
X9.2126Y-5.374
T5
G00X3.5453Y-3.8681
M15
G01X3.5453Y-3.9154
M16
G05
G00X3.5453Y-4.2539
M15
G01X3.5453Y-4.3012
M16
G05
G00X3.6201Y-3.5354
M15
G01X3.5728Y-3.5354
M16
G05
G00X3.6201Y-3.6693
M15
G01X3.5728Y-3.6693
M16
G05
G00X3.6791Y-3.8681
M15
G01X3.6791Y-3.9154
M16
G05
G00X3.6791Y-4.2539
M15
G01X3.6791Y-4.3012
M16
G05
G00X3.8406Y-3.9154
M15
G01X3.8406Y-3.8681
M16
G05
G00X3.8406Y-4.3012
M15
G01X3.8406Y-4.2539
M16
G05
G00X3.9744Y-3.9154
M15
G01X3.9744Y-3.8681
M16
G05
G00X3.9744Y-4.3012
M15
G01X3.9744Y-4.2539
M16
G05
G00X4.0059Y-3.5354
M15
G01X3.9587Y-3.5354
M16
G05
G00X4.0059Y-3.6693
M15
G01X3.9587Y-3.6693
M16
G05
G00X4.2795Y-3.5354
M15
G01X4.2323Y-3.5354
M16
G05
G00X4.2795Y-3.6693
M15
G01X4.2323Y-3.6693
M16
G05
G00X4.6654Y-3.5354
M15
G01X4.6181Y-3.5354
M16
G05
G00X4.6654Y-3.6693
M15
G01X4.6181Y-3.6693
M16
G05
G00X4.939Y-3.5354
M15
G01X4.8917Y-3.5354
M16
G05
G00X4.939Y-3.6693
M15
G01X4.8917Y-3.6693
M16
G05
G00X5.3248Y-3.5354
M15
G01X5.2776Y-3.5354
M16
G05
G00X5.3248Y-3.6693
M15
G01X5.2776Y-3.6693
M16
G05
G00X5.5984Y-3.5354
M15
G01X5.5512Y-3.5354
M16
G05
G00X5.5984Y-3.6693
M15
G01X5.5512Y-3.6693
M16
G05
G00X5.9843Y-3.5354
M15
G01X5.937Y-3.5354
M16
G05
G00X5.9843Y-3.6693
M15
G01X5.937Y-3.6693
M16
G05
G00X9.5805Y-3.1764
M15
G01X9.6238Y-3.1764
M16
G05
G00X9.5805Y-3.5165
M15
G01X9.6238Y-3.5165
M16
G05
G00X9.7549Y-3.1764
M15
G01X9.7785Y-3.1764
M16
G05
G00X9.7549Y-3.5165
M15
G01X9.7785Y-3.5165
M16
G05
T0
M30
