M48
; DRILL file {KiCad 7.0.7-7.0.7~ubuntu22.04.1} date Wed 30 Aug 2023 09:12:01 PM PDT
; FORMAT={-:-/ absolute / inch / decimal}
; #@! TF.CreationDate,2023-08-30T21:12:01-07:00
; #@! TF.GenerationSoftware,Kicad,Pcbnew,7.0.7-7.0.7~ubuntu22.04.1
; #@! TF.FileFunction,NonPlated,1,4,NPTH
FMAT,2
INCH
; #@! TA.AperFunction,NonPlated,NPTH,ComponentDrill
T1C0.0256
; #@! TA.AperFunction,NonPlated,NPTH,ComponentDrill
T2C0.0315
; #@! TA.AperFunction,NonPlated,NPTH,ComponentDrill
T3C0.0354
; #@! TA.AperFunction,NonPlated,NPTH,ComponentDrill
T4C0.1181
%
G90
G05
T1
X9.6219Y-3.2327
X9.6219Y-3.4602
T2
X3.5433Y-4.9902
X3.5433Y-5.1083
X3.7878Y-4.9921
X3.7878Y-5.1102
X4.0878Y-4.9921
X4.0878Y-5.1102
X4.3882Y-4.9921
X4.3882Y-5.1102
X4.6878Y-4.9921
X4.6878Y-5.1102
X7.6063Y-3.685
X7.7244Y-3.685
X9.4685Y-2.6772
X9.4685Y-2.7953
T3
X5.122Y-4.8543
X5.122Y-4.9724
X5.4291Y-4.8543
X5.4291Y-4.9724
X5.6732Y-4.8543
X5.6732Y-4.9724
X5.9803Y-4.8543
X5.9803Y-4.9724
X6.2244Y-4.8543
X6.2244Y-4.9724
X6.5315Y-4.8543
X6.5315Y-4.9724
T4
X6.2264Y-2.4665
X6.4114Y-2.4665
X6.935Y-2.4665
X7.1201Y-2.4665
T0
M30
