%TF.GenerationSoftware,KiCad,Pcbnew,7.0.7-7.0.7~ubuntu22.04.1*%
%TF.CreationDate,2023-08-30T01:26:55-07:00*%
%TF.ProjectId,mainboard,6d61696e-626f-4617-9264-2e6b69636164,rev?*%
%TF.SameCoordinates,Original*%
%TF.FileFunction,Legend,Bot*%
%TF.FilePolarity,Positive*%
%FSLAX46Y46*%
G04 Gerber Fmt 4.6, Leading zero omitted, Abs format (unit mm)*
G04 Created by KiCad (PCBNEW 7.0.7-7.0.7~ubuntu22.04.1) date 2023-08-30 01:26:55*
%MOMM*%
%LPD*%
G01*
G04 APERTURE LIST*
G04 Aperture macros list*
%AMRoundRect*
0 Rectangle with rounded corners*
0 $1 Rounding radius*
0 $2 $3 $4 $5 $6 $7 $8 $9 X,Y pos of 4 corners*
0 Add a 4 corners polygon primitive as box body*
4,1,4,$2,$3,$4,$5,$6,$7,$8,$9,$2,$3,0*
0 Add four circle primitives for the rounded corners*
1,1,$1+$1,$2,$3*
1,1,$1+$1,$4,$5*
1,1,$1+$1,$6,$7*
1,1,$1+$1,$8,$9*
0 Add four rect primitives between the rounded corners*
20,1,$1+$1,$2,$3,$4,$5,0*
20,1,$1+$1,$4,$5,$6,$7,0*
20,1,$1+$1,$6,$7,$8,$9,0*
20,1,$1+$1,$8,$9,$2,$3,0*%
G04 Aperture macros list end*
%ADD10C,2.950000*%
%ADD11C,1.000000*%
%ADD12O,2.700000X1.500000*%
%ADD13O,1.500000X2.700000*%
%ADD14C,1.500000*%
%ADD15C,3.000000*%
%ADD16RoundRect,0.250001X-0.499999X-0.759999X0.499999X-0.759999X0.499999X0.759999X-0.499999X0.759999X0*%
%ADD17O,1.500000X2.020000*%
%ADD18RoundRect,0.250000X-0.750000X0.600000X-0.750000X-0.600000X0.750000X-0.600000X0.750000X0.600000X0*%
%ADD19O,2.000000X1.700000*%
%ADD20C,0.650000*%
%ADD21O,2.100000X1.000000*%
%ADD22O,1.600000X1.000000*%
%ADD23RoundRect,0.250000X0.725000X-0.600000X0.725000X0.600000X-0.725000X0.600000X-0.725000X-0.600000X0*%
%ADD24O,1.950000X1.700000*%
%ADD25C,0.800000*%
%ADD26C,6.400000*%
%ADD27C,4.200000*%
%ADD28C,5.000000*%
%ADD29C,0.900000*%
%ADD30RoundRect,0.250000X-0.600000X-0.600000X0.600000X-0.600000X0.600000X0.600000X-0.600000X0.600000X0*%
%ADD31C,1.700000*%
%ADD32R,2.400000X2.400000*%
%ADD33C,2.400000*%
%ADD34RoundRect,0.250000X-0.725000X0.600000X-0.725000X-0.600000X0.725000X-0.600000X0.725000X0.600000X0*%
%ADD35R,1.500000X1.500000*%
%ADD36C,3.500000*%
%ADD37R,1.700000X1.700000*%
%ADD38O,1.700000X1.700000*%
G04 APERTURE END LIST*
%LPC*%
D10*
%TO.C,J17*%
X104215000Y-136500000D03*
X108120000Y-136500000D03*
%TD*%
D11*
%TO.C,SW5*%
X144099999Y-123300000D03*
X144099999Y-126300000D03*
%TD*%
D12*
%TO.C,F4*%
X108100000Y-89800000D03*
X108100000Y-93200000D03*
X117900000Y-89800000D03*
X117900000Y-93200000D03*
%TD*%
D13*
%TO.C,F6*%
X90050000Y-108650000D03*
X93450000Y-108650000D03*
X90050000Y-98850000D03*
X93450000Y-98850000D03*
%TD*%
D14*
%TO.C,M4*%
X197250000Y-64755000D03*
X194750000Y-64755000D03*
X192250000Y-64755000D03*
X189750000Y-64755000D03*
%TD*%
%TO.C,M2*%
X223250000Y-64755000D03*
X220750000Y-64755000D03*
X218250000Y-64755000D03*
X215750000Y-64755000D03*
%TD*%
D15*
%TO.C,M6*%
X158150000Y-62650000D03*
X162850000Y-62650000D03*
D16*
X156000000Y-66970000D03*
D17*
X159000000Y-66970000D03*
X162000000Y-66970000D03*
X165000000Y-66970000D03*
%TD*%
D18*
%TO.C,J25*%
X138025000Y-112250000D03*
D19*
X138025000Y-114750000D03*
%TD*%
D20*
%TO.C,J1*%
X244395000Y-87890000D03*
X244395000Y-82110000D03*
D21*
X243895000Y-89320000D03*
D22*
X248075000Y-89320000D03*
D21*
X243895000Y-80680000D03*
D22*
X248075000Y-80680000D03*
%TD*%
D18*
%TO.C,J23*%
X131025000Y-112250000D03*
D19*
X131025000Y-114750000D03*
%TD*%
D23*
%TO.C,J3*%
X165475000Y-99000000D03*
D24*
X165475000Y-96500000D03*
X165475000Y-94000000D03*
%TD*%
D18*
%TO.C,J15*%
X138024998Y-134750000D03*
D19*
X138024998Y-137250000D03*
%TD*%
D12*
%TO.C,F5*%
X91350000Y-89800000D03*
X91350000Y-93200000D03*
X101150000Y-89800000D03*
X101150000Y-93200000D03*
%TD*%
D23*
%TO.C,J4*%
X158475000Y-99000000D03*
D24*
X158475000Y-96500000D03*
X158475000Y-94000000D03*
%TD*%
D25*
%TO.C,H4*%
X243600000Y-136000000D03*
X244302944Y-134302944D03*
X244302944Y-137697056D03*
X246000000Y-133600000D03*
D26*
X246000000Y-136000000D03*
D25*
X246000000Y-138400000D03*
X247697056Y-134302944D03*
X247697056Y-137697056D03*
X248400000Y-136000000D03*
%TD*%
D14*
%TO.C,M3*%
X210250000Y-64755000D03*
X207750000Y-64755000D03*
X205250000Y-64755000D03*
X202750000Y-64755000D03*
%TD*%
%TO.C,M1*%
X236250000Y-64755000D03*
X233750000Y-64755000D03*
X231250000Y-64755000D03*
X228750000Y-64755000D03*
%TD*%
D27*
%TO.C,H11*%
X176000000Y-113500000D03*
%TD*%
D10*
%TO.C,J18*%
X96595000Y-136500000D03*
X100500000Y-136500000D03*
%TD*%
D27*
%TO.C,H10*%
X148000000Y-64000000D03*
%TD*%
D10*
%TO.C,J19*%
X111845000Y-136500000D03*
X115750000Y-136500000D03*
%TD*%
D28*
%TO.C,J9*%
X83250000Y-76250000D03*
X83250000Y-85750000D03*
X83250000Y-95250000D03*
X83250000Y-104750000D03*
X83250000Y-114250000D03*
X83250000Y-123750000D03*
%TD*%
D29*
%TO.C,SW14*%
X193200000Y-93600000D03*
X196200000Y-93600000D03*
%TD*%
D27*
%TO.C,H8*%
X234000000Y-136500000D03*
%TD*%
D18*
%TO.C,J8*%
X131025000Y-134750000D03*
D19*
X131025000Y-137250000D03*
%TD*%
D27*
%TO.C,H12*%
X176000000Y-136500000D03*
%TD*%
D29*
%TO.C,SW12*%
X111460000Y-126800000D03*
X111460000Y-129800000D03*
%TD*%
D27*
%TO.C,H9*%
X124000000Y-64000000D03*
%TD*%
D11*
%TO.C,SW7*%
X158099998Y-123300000D03*
X158099998Y-126300000D03*
%TD*%
D18*
%TO.C,J27*%
X152025000Y-112250000D03*
D19*
X152025000Y-114750000D03*
%TD*%
D15*
%TO.C,M5*%
X176150000Y-62650000D03*
X180850000Y-62650000D03*
D16*
X174000000Y-66970000D03*
D17*
X177000000Y-66970000D03*
X180000000Y-66970000D03*
X183000000Y-66970000D03*
%TD*%
D18*
%TO.C,J7*%
X145025000Y-134750000D03*
D19*
X145025000Y-137250000D03*
%TD*%
D11*
%TO.C,SW6*%
X151899998Y-126300000D03*
X151899998Y-123300000D03*
%TD*%
D18*
%TO.C,J14*%
X152024998Y-134750000D03*
D19*
X152024998Y-137250000D03*
%TD*%
D12*
%TO.C,F3*%
X124850000Y-89800000D03*
X124850000Y-93200000D03*
X134650000Y-89800000D03*
X134650000Y-93200000D03*
%TD*%
D30*
%TO.C,J11*%
X232247500Y-93920000D03*
D31*
X234787500Y-93920000D03*
X232247500Y-96460000D03*
X234787500Y-96460000D03*
X232247500Y-99000000D03*
X234787500Y-99000000D03*
X232247500Y-101540000D03*
X234787500Y-101540000D03*
X232247500Y-104080000D03*
X234787500Y-104080000D03*
%TD*%
D11*
%TO.C,SW8*%
X165899997Y-126300000D03*
X165899997Y-123300000D03*
%TD*%
D23*
%TO.C,J6*%
X158475000Y-110000000D03*
D24*
X158475000Y-107500000D03*
X158475000Y-105000000D03*
%TD*%
D27*
%TO.C,H7*%
X234000000Y-113500000D03*
%TD*%
D10*
%TO.C,J20*%
X119455000Y-136500000D03*
X123360000Y-136500000D03*
%TD*%
D32*
%TO.C,C9*%
X122750000Y-99176041D03*
D33*
X122750000Y-104176041D03*
%TD*%
D23*
%TO.C,J5*%
X165475000Y-110000000D03*
D24*
X165475000Y-107500000D03*
X165475000Y-105000000D03*
%TD*%
D27*
%TO.C,H6*%
X116000000Y-64000000D03*
%TD*%
D29*
%TO.C,SW11*%
X96210000Y-126800000D03*
X96210000Y-129800000D03*
%TD*%
D30*
%TO.C,J10*%
X222247500Y-93920000D03*
D31*
X224787500Y-93920000D03*
X222247500Y-96460000D03*
X224787500Y-96460000D03*
X222247500Y-99000000D03*
X224787500Y-99000000D03*
X222247500Y-101540000D03*
X224787500Y-101540000D03*
X222247500Y-104080000D03*
X224787500Y-104080000D03*
%TD*%
D32*
%TO.C,C33*%
X135750000Y-99176041D03*
D33*
X135750000Y-104176041D03*
%TD*%
D34*
%TO.C,J24*%
X246275000Y-70500000D03*
D24*
X246275000Y-73000000D03*
X246275000Y-75500000D03*
%TD*%
D27*
%TO.C,H5*%
X92000000Y-64000000D03*
%TD*%
D18*
%TO.C,J16*%
X166024997Y-134750000D03*
D19*
X166024997Y-137250000D03*
%TD*%
D13*
%TO.C,F1*%
X100950000Y-98850000D03*
X97550000Y-98850000D03*
X100950000Y-108650000D03*
X97550000Y-108650000D03*
%TD*%
D35*
%TO.C,J13*%
X244857685Y-109500002D03*
D14*
X244857685Y-107000002D03*
X244857685Y-105000002D03*
X244857685Y-102500002D03*
X242237685Y-109500002D03*
X242237685Y-107000002D03*
X242237685Y-105000002D03*
X242237685Y-102500002D03*
D36*
X247567685Y-112570002D03*
X247567685Y-99430002D03*
X241887685Y-112570002D03*
X241887685Y-99430002D03*
%TD*%
D29*
%TO.C,SW1*%
X119070000Y-126800000D03*
X119070000Y-129800000D03*
%TD*%
D18*
%TO.C,J12*%
X159024999Y-134750000D03*
D19*
X159024999Y-137250000D03*
%TD*%
D32*
%TO.C,C27*%
X148750000Y-99176041D03*
D33*
X148750000Y-104176041D03*
%TD*%
D11*
%TO.C,SW3*%
X130099999Y-123300000D03*
X130099999Y-126300000D03*
%TD*%
D18*
%TO.C,J26*%
X145025000Y-112250000D03*
D19*
X145025000Y-114750000D03*
%TD*%
D25*
%TO.C,H1*%
X71600000Y-64000000D03*
X72302944Y-62302944D03*
X72302944Y-65697056D03*
X74000000Y-61600000D03*
D26*
X74000000Y-64000000D03*
D25*
X74000000Y-66400000D03*
X75697056Y-62302944D03*
X75697056Y-65697056D03*
X76400000Y-64000000D03*
%TD*%
D29*
%TO.C,SW9*%
X90000000Y-126750000D03*
X90000000Y-129750000D03*
%TD*%
D12*
%TO.C,F2*%
X141600000Y-89800000D03*
X141600000Y-93200000D03*
X151400000Y-89800000D03*
X151400000Y-93200000D03*
%TD*%
D37*
%TO.C,J2*%
X180870001Y-108500000D03*
D38*
X183410001Y-108500000D03*
X185950001Y-108500000D03*
X188490001Y-108500000D03*
X191030001Y-108500000D03*
%TD*%
D29*
%TO.C,SW10*%
X103830000Y-126800000D03*
X103830000Y-129800000D03*
%TD*%
D25*
%TO.C,H2*%
X71600000Y-136000000D03*
X72302944Y-134302944D03*
X72302944Y-137697056D03*
X74000000Y-133600000D03*
D26*
X74000000Y-136000000D03*
D25*
X74000000Y-138400000D03*
X75697056Y-134302944D03*
X75697056Y-137697056D03*
X76400000Y-136000000D03*
%TD*%
%TO.C,H3*%
X243600000Y-64000000D03*
X244302944Y-62302944D03*
X244302944Y-65697056D03*
X246000000Y-61600000D03*
D26*
X246000000Y-64000000D03*
D25*
X246000000Y-66400000D03*
X247697056Y-62302944D03*
X247697056Y-65697056D03*
X248400000Y-64000000D03*
%TD*%
D11*
%TO.C,SW4*%
X137899998Y-126300000D03*
X137899998Y-123300000D03*
%TD*%
D29*
%TO.C,SW13*%
X240500000Y-71000000D03*
X240500000Y-68000000D03*
%TD*%
D35*
%TO.C,J21*%
X244857685Y-127500002D03*
D14*
X244857685Y-125000002D03*
X244857685Y-123000002D03*
X244857685Y-120500002D03*
X242237685Y-127500002D03*
X242237685Y-125000002D03*
X242237685Y-123000002D03*
X242237685Y-120500002D03*
D36*
X247567685Y-130570002D03*
X247567685Y-117430002D03*
X241887685Y-130570002D03*
X241887685Y-117430002D03*
%TD*%
D32*
%TO.C,C7*%
X109750000Y-99176041D03*
D33*
X109750000Y-104176041D03*
%TD*%
%LPD*%
M02*
