%TF.GenerationSoftware,KiCad,Pcbnew,7.0.8-7.0.8~ubuntu22.04.1*%
%TF.CreationDate,2023-11-12T23:59:41-08:00*%
%TF.ProjectId,corevus-g,636f7265-7675-4732-9d67-2e6b69636164,rev?*%
%TF.SameCoordinates,Original*%
%TF.FileFunction,Soldermask,Bot*%
%TF.FilePolarity,Negative*%
%FSLAX46Y46*%
G04 Gerber Fmt 4.6, Leading zero omitted, Abs format (unit mm)*
G04 Created by KiCad (PCBNEW 7.0.8-7.0.8~ubuntu22.04.1) date 2023-11-12 23:59:41*
%MOMM*%
%LPD*%
G01*
G04 APERTURE LIST*
G04 Aperture macros list*
%AMRoundRect*
0 Rectangle with rounded corners*
0 $1 Rounding radius*
0 $2 $3 $4 $5 $6 $7 $8 $9 X,Y pos of 4 corners*
0 Add a 4 corners polygon primitive as box body*
4,1,4,$2,$3,$4,$5,$6,$7,$8,$9,$2,$3,0*
0 Add four circle primitives for the rounded corners*
1,1,$1+$1,$2,$3*
1,1,$1+$1,$4,$5*
1,1,$1+$1,$6,$7*
1,1,$1+$1,$8,$9*
0 Add four rect primitives between the rounded corners*
20,1,$1+$1,$2,$3,$4,$5,0*
20,1,$1+$1,$4,$5,$6,$7,0*
20,1,$1+$1,$6,$7,$8,$9,0*
20,1,$1+$1,$8,$9,$2,$3,0*%
G04 Aperture macros list end*
%ADD10C,0.900000*%
%ADD11C,1.000000*%
%ADD12O,2.500000X1.200000*%
%ADD13O,1.600000X1.600000*%
%ADD14C,1.800000*%
%ADD15C,1.500000*%
%ADD16RoundRect,1.000000X-0.500000X0.500000X-0.500000X-0.500000X0.500000X-0.500000X0.500000X0.500000X0*%
%ADD17O,1.800000X1.800000*%
%ADD18C,3.200000*%
%ADD19RoundRect,0.250000X-0.600000X-0.600000X0.600000X-0.600000X0.600000X0.600000X-0.600000X0.600000X0*%
%ADD20C,1.700000*%
%ADD21C,0.650000*%
%ADD22O,1.000000X2.100000*%
%ADD23O,1.000000X1.600000*%
%ADD24C,4.200000*%
%ADD25RoundRect,0.500000X-0.500000X-0.500000X0.500000X-0.500000X0.500000X0.500000X-0.500000X0.500000X0*%
%ADD26C,2.000000*%
%ADD27C,2.950000*%
%ADD28O,1.200000X2.500000*%
%ADD29O,2.100000X1.000000*%
%ADD30O,1.600000X1.000000*%
G04 APERTURE END LIST*
D10*
%TO.C,SW9*%
X51500000Y-109750000D03*
X48500000Y-109750000D03*
%TD*%
D11*
%TO.C,J38*%
X198200000Y-101900000D03*
X198200000Y-103300000D03*
X198200000Y-104700000D03*
X198200000Y-106100000D03*
D12*
X200800000Y-106700000D03*
D13*
X203800000Y-104010000D03*
D12*
X200800000Y-101300000D03*
%TD*%
D14*
%TO.C,M4*%
X163750000Y-44250000D03*
X161250000Y-44250000D03*
X158750000Y-44250000D03*
X156250000Y-44250000D03*
%TD*%
D15*
%TO.C,J30*%
X86220000Y-95570000D03*
X88760000Y-95570000D03*
X91300000Y-95570000D03*
X93840000Y-95570000D03*
X96380000Y-95570000D03*
X98920000Y-95570000D03*
X101460000Y-95570000D03*
X104000000Y-95570000D03*
%TD*%
D14*
%TO.C,M3*%
X176250000Y-44250000D03*
X173750000Y-44250000D03*
X171250000Y-44250000D03*
X168750000Y-44250000D03*
%TD*%
D16*
%TO.C,J36*%
X52000000Y-73250000D03*
X52000000Y-81750000D03*
%TD*%
D17*
%TO.C,J32*%
X124750000Y-111500000D03*
X127250000Y-111500000D03*
%TD*%
D18*
%TO.C,H3*%
X202000000Y-57000000D03*
%TD*%
D19*
%TO.C,J13*%
X176500000Y-69920000D03*
D20*
X179040000Y-69920000D03*
X176500000Y-72460000D03*
X179040000Y-72460000D03*
X176500000Y-75000000D03*
X179040000Y-75000000D03*
X176500000Y-77540000D03*
X179040000Y-77540000D03*
X176500000Y-80080000D03*
X179040000Y-80080000D03*
%TD*%
D17*
%TO.C,J7*%
X132250000Y-70500000D03*
X129750000Y-70500000D03*
%TD*%
D14*
%TO.C,M2*%
X188750000Y-44250000D03*
X186250000Y-44250000D03*
X183750000Y-44250000D03*
X181250000Y-44250000D03*
%TD*%
%TO.C,M6*%
X130750000Y-44250000D03*
X128250000Y-44250000D03*
X125750000Y-44250000D03*
X123250000Y-44250000D03*
%TD*%
D17*
%TO.C,J40*%
X136250000Y-99500000D03*
X138750000Y-99500000D03*
%TD*%
%TO.C,J14*%
X96750000Y-111500000D03*
X99250000Y-111500000D03*
X101750000Y-111500000D03*
X104250000Y-111500000D03*
%TD*%
%TO.C,J10*%
X124750000Y-76500000D03*
X122250000Y-76500000D03*
%TD*%
D14*
%TO.C,M1*%
X201250000Y-44245000D03*
X198750000Y-44245000D03*
X196250000Y-44245000D03*
X193750000Y-44245000D03*
%TD*%
D12*
%TO.C,F6*%
X61000000Y-85450000D03*
X61000000Y-89100000D03*
X61000000Y-93400000D03*
X61000000Y-97050000D03*
%TD*%
D21*
%TO.C,J24*%
X190610000Y-109395000D03*
X196390000Y-109395000D03*
D22*
X189180000Y-108895000D03*
D23*
X189180000Y-113075000D03*
D22*
X197820000Y-108895000D03*
D23*
X197820000Y-113075000D03*
%TD*%
D24*
%TO.C,H13*%
X85500000Y-62000000D03*
%TD*%
D17*
%TO.C,J2*%
X137250000Y-89500000D03*
X134750000Y-89500000D03*
X132250000Y-89500000D03*
%TD*%
%TO.C,J4*%
X127250000Y-83500000D03*
X124750000Y-83500000D03*
X122250000Y-83500000D03*
%TD*%
D12*
%TO.C,F3*%
X56000000Y-85450000D03*
X56000000Y-89100000D03*
X56000000Y-93400000D03*
X56000000Y-97050000D03*
%TD*%
D17*
%TO.C,J17*%
X113250000Y-111500000D03*
X115750000Y-111500000D03*
%TD*%
D25*
%TO.C,C13*%
X100000000Y-74500000D03*
D26*
X100000000Y-79500000D03*
%TD*%
D27*
%TO.C,J21*%
X56095000Y-111500000D03*
X60000000Y-111500000D03*
%TD*%
D25*
%TO.C,C14*%
X87000000Y-74500000D03*
D26*
X87000000Y-79500000D03*
%TD*%
D15*
%TO.C,J42*%
X172200000Y-62750000D03*
X174740000Y-62750000D03*
X177280000Y-62750000D03*
X179820000Y-62750000D03*
X182360000Y-62750000D03*
X184900000Y-62750000D03*
%TD*%
D17*
%TO.C,J34*%
X124750000Y-99500000D03*
X127250000Y-99500000D03*
%TD*%
D18*
%TO.C,H2*%
X43000000Y-112000000D03*
%TD*%
D17*
%TO.C,J39*%
X136250000Y-105500000D03*
X138750000Y-105500000D03*
%TD*%
%TO.C,J33*%
X124750000Y-105500000D03*
X127250000Y-105500000D03*
%TD*%
%TO.C,J16*%
X96750000Y-105500000D03*
X99250000Y-105500000D03*
X101750000Y-105500000D03*
X104250000Y-105500000D03*
%TD*%
%TO.C,J8*%
X124750000Y-70500000D03*
X122250000Y-70500000D03*
%TD*%
%TO.C,J18*%
X113250000Y-105500000D03*
X115750000Y-105500000D03*
%TD*%
D25*
%TO.C,C16*%
X74000000Y-74500000D03*
D26*
X74000000Y-79500000D03*
%TD*%
D18*
%TO.C,H1*%
X43000000Y-43000000D03*
%TD*%
D11*
%TO.C,J27*%
X198200000Y-93400000D03*
X198200000Y-94800000D03*
X198200000Y-96200000D03*
X198200000Y-97600000D03*
D12*
X200800000Y-98200000D03*
D13*
X203800000Y-95510000D03*
D12*
X200800000Y-92800000D03*
%TD*%
D24*
%TO.C,H8*%
X81500000Y-43000000D03*
%TD*%
D28*
%TO.C,F5*%
X103200000Y-68500000D03*
X106850000Y-68500000D03*
X111150000Y-68500000D03*
X114800000Y-68500000D03*
%TD*%
%TO.C,F1*%
X56200000Y-68500000D03*
X59850000Y-68500000D03*
X64150000Y-68500000D03*
X67800000Y-68500000D03*
%TD*%
D27*
%TO.C,J23*%
X78955000Y-111500000D03*
X82860000Y-111500000D03*
%TD*%
D25*
%TO.C,C12*%
X113000000Y-74500000D03*
D26*
X113000000Y-79500000D03*
%TD*%
D17*
%TO.C,J6*%
X127250000Y-89500000D03*
X124750000Y-89500000D03*
X122250000Y-89500000D03*
%TD*%
D11*
%TO.C,J26*%
X198200000Y-84900000D03*
X198200000Y-86300000D03*
X198200000Y-87700000D03*
X198200000Y-89100000D03*
D12*
X200800000Y-89700000D03*
D13*
X203800000Y-87010000D03*
D12*
X200800000Y-84300000D03*
%TD*%
D17*
%TO.C,J19*%
X113250000Y-99500000D03*
X115750000Y-99500000D03*
%TD*%
D15*
%TO.C,J25*%
X86220000Y-98110000D03*
X88760000Y-98110000D03*
X91300000Y-98110000D03*
X93840000Y-98110000D03*
X96380000Y-98110000D03*
X98920000Y-98110000D03*
X101460000Y-98110000D03*
X104000000Y-98110000D03*
%TD*%
D27*
%TO.C,J22*%
X71335000Y-111500000D03*
X75240000Y-111500000D03*
%TD*%
%TO.C,J20*%
X63715000Y-111500000D03*
X67620000Y-111500000D03*
%TD*%
%TO.C,J15*%
X86575000Y-111500000D03*
X90480000Y-111500000D03*
%TD*%
D18*
%TO.C,H4*%
X202000000Y-112000000D03*
%TD*%
D28*
%TO.C,F4*%
X87700000Y-68500000D03*
X91350000Y-68500000D03*
X95650000Y-68500000D03*
X99300000Y-68500000D03*
%TD*%
D17*
%TO.C,J9*%
X139750000Y-70500000D03*
X137250000Y-70500000D03*
%TD*%
D15*
%TO.C,J29*%
X86220000Y-100650000D03*
X88760000Y-100650000D03*
X91300000Y-100650000D03*
X93840000Y-100650000D03*
X96380000Y-100650000D03*
X98920000Y-100650000D03*
X101460000Y-100650000D03*
X104000000Y-100650000D03*
%TD*%
%TO.C,J41*%
X149640000Y-88250000D03*
X152180000Y-88250000D03*
X154720000Y-88250000D03*
X157260000Y-88250000D03*
%TD*%
D17*
%TO.C,J35*%
X136250000Y-111500000D03*
X138750000Y-111500000D03*
%TD*%
D16*
%TO.C,J31*%
X52000000Y-56250000D03*
X52000000Y-64750000D03*
%TD*%
D24*
%TO.C,H6*%
X113500000Y-43000000D03*
%TD*%
D19*
%TO.C,J28*%
X186000000Y-69920000D03*
D20*
X188540000Y-69920000D03*
X186000000Y-72460000D03*
X188540000Y-72460000D03*
X186000000Y-75000000D03*
X188540000Y-75000000D03*
X186000000Y-77540000D03*
X188540000Y-77540000D03*
X186000000Y-80080000D03*
X188540000Y-80080000D03*
%TD*%
D11*
%TO.C,J3*%
X198200000Y-76400000D03*
X198200000Y-77800000D03*
X198200000Y-79200000D03*
X198200000Y-80600000D03*
D12*
X200800000Y-81200000D03*
D13*
X203800000Y-78510000D03*
D12*
X200800000Y-75800000D03*
%TD*%
D17*
%TO.C,J5*%
X137250000Y-83500000D03*
X134750000Y-83500000D03*
X132250000Y-83500000D03*
%TD*%
D24*
%TO.C,H7*%
X57500000Y-43000000D03*
%TD*%
D17*
%TO.C,J12*%
X139750000Y-76500000D03*
X137250000Y-76500000D03*
%TD*%
D25*
%TO.C,C17*%
X61000000Y-74500000D03*
D26*
X61000000Y-79500000D03*
%TD*%
D24*
%TO.C,H5*%
X89500000Y-43000000D03*
%TD*%
D10*
%TO.C,SW2*%
X114400000Y-89400000D03*
X114400000Y-86400000D03*
%TD*%
D14*
%TO.C,M5*%
X149250000Y-44250000D03*
X146750000Y-44250000D03*
X144250000Y-44250000D03*
X141750000Y-44250000D03*
%TD*%
D28*
%TO.C,F2*%
X71700000Y-68500000D03*
X75350000Y-68500000D03*
X79650000Y-68500000D03*
X83300000Y-68500000D03*
%TD*%
D10*
%TO.C,SW1*%
X155300000Y-60450000D03*
X158300000Y-60450000D03*
%TD*%
D16*
%TO.C,J37*%
X52000000Y-90250000D03*
X52000000Y-98750000D03*
%TD*%
D21*
%TO.C,J1*%
X200145000Y-69890000D03*
X200145000Y-64110000D03*
D29*
X199645000Y-71320000D03*
D30*
X203825000Y-71320000D03*
D29*
X199645000Y-62680000D03*
D30*
X203825000Y-62680000D03*
%TD*%
D17*
%TO.C,J11*%
X132250000Y-76500000D03*
X129750000Y-76500000D03*
%TD*%
M02*
