M48
; DRILL file {KiCad 7.0.8-7.0.8~ubuntu22.04.1} date Sun 12 Nov 2023 11:57:19 PM PST
; FORMAT={-:-/ absolute / metric / decimal}
; #@! TF.CreationDate,2023-11-12T23:57:19-08:00
; #@! TF.GenerationSoftware,Kicad,Pcbnew,7.0.8-7.0.8~ubuntu22.04.1
; #@! TF.FileFunction,Plated,1,4,PTH
FMAT,2
METRIC
; #@! TA.AperFunction,Plated,PTH,ViaDrill
T1C0.250
; #@! TA.AperFunction,Plated,PTH,ComponentDrill
T2C0.250
; #@! TA.AperFunction,Plated,PTH,ViaDrill
T3C0.300
; #@! TA.AperFunction,Plated,PTH,ComponentDrill
T4C0.500
; #@! TA.AperFunction,Plated,PTH,ComponentDrill
T5C0.600
; #@! TA.AperFunction,Plated,PTH,ComponentDrill
T6C0.800
; #@! TA.AperFunction,Plated,PTH,ComponentDrill
T7C0.900
; #@! TA.AperFunction,Plated,PTH,ComponentDrill
T8C1.000
; #@! TA.AperFunction,Plated,PTH,ComponentDrill
T9C1.200
; #@! TA.AperFunction,Plated,PTH,ComponentDrill
T10C1.350
; #@! TA.AperFunction,Plated,PTH,ComponentDrill
T11C4.100
%
G90
G05
T1
X43.6Y-106.5
X43.6Y-107.45
X44.1Y-106.5
X44.1Y-107.45
X44.6Y-106.5
X44.6Y-107.45
X44.7Y-108.85
X45.1Y-106.5
X45.1Y-107.45
X46.75Y-44.5
X46.75Y-45.0
X46.75Y-45.5
X46.75Y-49.5
X46.75Y-50.0
X46.75Y-50.5
X47.35Y-106.5
X47.35Y-107.45
X47.85Y-106.5
X47.85Y-107.45
X48.35Y-106.5
X48.35Y-107.45
X48.4Y-111.55
X48.85Y-106.5
X48.85Y-107.45
X49.25Y-44.5
X49.25Y-45.0
X49.25Y-45.5
X49.25Y-49.5
X49.25Y-50.0
X49.25Y-50.5
X50.0Y-109.75
X51.1Y-106.5
X51.1Y-107.45
X51.6Y-106.5
X51.6Y-107.45
X51.75Y-44.5
X51.75Y-45.0
X51.75Y-45.5
X51.75Y-49.5
X51.75Y-50.0
X51.75Y-50.5
X52.1Y-106.5
X52.1Y-107.45
X52.6Y-106.5
X52.6Y-107.45
X59.75Y-103.6
X59.75Y-104.5
X60.25Y-59.0
X60.25Y-103.6
X60.25Y-104.5
X60.75Y-103.6
X60.75Y-104.5
X65.65Y-86.85
X66.4Y-86.85
X66.9Y-100.45
X67.35Y-87.55
X67.37Y-103.6
X67.37Y-104.5
X67.55Y-101.3
X67.87Y-103.6
X67.87Y-104.5
X68.0Y-86.85
X68.25Y-102.0
X68.37Y-103.6
X68.37Y-104.5
X68.75Y-63.0
X74.45Y-95.75
X74.99Y-103.6
X74.99Y-104.5
X75.49Y-103.6
X75.49Y-104.5
X75.99Y-103.6
X75.99Y-104.5
X76.75Y-59.0
X77.15Y-103.05
X79.7Y-98.15
X80.6Y-95.05
X80.6Y-100.05
X81.35Y-97.3
X82.25Y-91.0
X82.61Y-103.6
X82.61Y-104.5
X83.11Y-103.6
X83.11Y-104.5
X83.2Y-88.9
X83.4Y-89.825
X83.475Y-59.3
X83.61Y-103.6
X83.61Y-104.5
X84.75Y-50.25
X85.0Y-45.75
X85.0Y-53.25
X85.15Y-100.25
X85.25Y-50.25
X85.5Y-45.75
X85.5Y-53.25
X85.75Y-50.25
X86.0Y-45.75
X86.0Y-53.25
X86.25Y-50.25
X87.65Y-104.35
X88.75Y-103.6
X88.85Y-62.45
X90.23Y-103.6
X90.23Y-104.5
X90.73Y-103.6
X90.73Y-104.5
X91.23Y-103.6
X91.23Y-104.5
X92.25Y-59.0
X93.5Y-85.0
X93.5Y-90.0
X93.75Y-57.5
X94.5Y-85.0
X94.5Y-90.0
X94.6Y-108.4
X94.6Y-114.4
X95.5Y-85.0
X95.5Y-90.0
X96.5Y-85.0
X96.5Y-90.0
X97.5Y-85.0
X97.5Y-90.0
X100.75Y-63.0
X104.8Y-62.95
X105.5Y-42.5
X105.5Y-45.0
X105.5Y-47.5
X105.5Y-50.0
X108.0Y-42.5
X108.0Y-45.0
X108.0Y-47.5
X108.0Y-50.0
X108.75Y-59.0
X109.225Y-94.7
X110.25Y-95.175
X113.35Y-90.15
X117.1Y-85.65
X117.25Y-66.5
X117.25Y-98.6
X117.55Y-91.1
X118.2Y-59.95
X118.65Y-65.95
X118.95Y-54.15
X118.95Y-55.45
X118.95Y-56.2
X118.95Y-61.05
X119.2Y-66.8
X119.55Y-67.45
X119.75Y-59.4
X120.0Y-68.15
X120.75Y-61.75
X121.0Y-78.8
X121.2Y-62.75
X121.65Y-54.15
X121.7Y-63.25
X121.75Y-60.25
X121.75Y-61.0
X122.75Y-62.8
X122.9Y-79.475
X123.25Y-64.2
X123.75Y-62.8
X125.25Y-62.8
X126.85Y-52.7
X127.4Y-53.81
X128.25Y-56.35
X128.25Y-57.1
X128.55Y-58.0
X128.55Y-59.5
X129.15Y-63.15
X129.9Y-63.6
X130.0Y-60.5
X130.0Y-62.5
X130.1Y-79.475
X130.2Y-57.25
X130.35Y-96.5
X130.45Y-56.4
X131.1Y-60.5
X131.1Y-61.5
X131.1Y-62.5
X132.75Y-62.0
X132.95Y-60.8
X133.4Y-96.5
X134.3Y-62.9
X135.6Y-68.375
X136.25Y-57.25
X136.35Y-68.175
X137.1Y-67.975
X137.2Y-55.75
X137.2Y-56.55
X137.3Y-79.475
X137.45Y-54.15
X137.85Y-67.775
X138.25Y-59.4
X139.25Y-61.75
X139.95Y-90.8
X140.15Y-54.15
X140.25Y-60.25
X140.25Y-61.0
X140.4Y-82.05
X140.6Y-87.1
X140.75Y-75.6
X140.75Y-83.55
X141.25Y-62.8
X141.7Y-83.4
X141.75Y-62.25
X142.2Y-83.4
X142.25Y-62.8
X142.7Y-83.4
X142.75Y-87.05
X143.0Y-62.55
X143.75Y-62.8
X144.1Y-90.9
X145.1Y-89.15
X145.35Y-52.7
X145.6Y-73.45
X145.6Y-89.15
X145.65Y-83.4
X145.65Y-84.15
X145.65Y-84.9
X145.9Y-53.81
X146.5Y-79.5
X146.75Y-56.35
X146.75Y-57.1
X146.75Y-62.0
X147.0Y-63.1
X147.05Y-58.0
X147.05Y-59.5
X147.25Y-79.5
X147.4Y-74.45
X147.65Y-78.6
X147.95Y-83.5
X148.0Y-79.5
X148.05Y-74.85
X148.1Y-67.725
X148.2Y-89.45
X148.3Y-82.2
X148.7Y-57.25
X148.7Y-75.3
X148.725Y-73.425
X148.95Y-56.4
X149.0Y-84.0
X149.05Y-89.3
X149.3Y-85.6
X149.6Y-60.5
X149.6Y-61.5
X149.6Y-62.5
X149.8Y-85.6
X150.55Y-63.6
X150.65Y-81.25
X150.95Y-66.85
X150.95Y-75.0
X151.15Y-86.25
X151.5Y-76.25
X151.5Y-77.0
X151.5Y-77.75
X151.5Y-84.35
X151.65Y-67.5
X152.0Y-64.337
X152.25Y-86.55
X152.45Y-62.6
X152.5Y-73.0
X152.5Y-75.0
X152.5Y-79.0
X152.5Y-81.0
X152.5Y-83.0
X153.3Y-79.25
X154.5Y-71.0
X154.5Y-73.0
X154.5Y-75.0
X154.5Y-77.0
X154.6Y-79.25
X154.95Y-61.95
X156.5Y-69.0
X156.5Y-71.0
X156.5Y-73.0
X156.5Y-75.0
X156.5Y-77.0
X156.5Y-79.0
X156.5Y-81.0
X156.5Y-83.0
X156.8Y-51.9
X157.05Y-49.0
X157.25Y-62.05
X157.3Y-63.2
X158.5Y-67.0
X158.5Y-69.0
X158.5Y-71.0
X158.5Y-73.0
X158.5Y-75.0
X158.5Y-77.0
X158.5Y-79.0
X158.5Y-81.0
X158.5Y-83.0
X158.75Y-65.2
X158.75Y-86.5
X159.25Y-84.8
X159.25Y-87.7
X159.5Y-65.45
X160.5Y-67.0
X160.5Y-69.0
X160.5Y-71.0
X160.5Y-73.0
X160.5Y-75.0
X160.5Y-77.0
X160.5Y-79.0
X160.5Y-81.0
X160.5Y-83.0
X162.0Y-51.8
X162.0Y-52.9
X162.3Y-61.8
X162.5Y-67.0
X162.5Y-69.0
X162.5Y-71.0
X162.5Y-73.0
X162.5Y-75.0
X162.5Y-77.0
X162.5Y-79.0
X162.5Y-81.0
X162.5Y-83.0
X162.6Y-52.25
X162.9Y-88.05
X163.0Y-49.5
X163.1Y-56.2
X163.15Y-60.85
X163.25Y-65.15
X163.65Y-51.7
X163.75Y-49.7
X164.0Y-65.45
X164.25Y-84.8
X164.3Y-51.2
X164.5Y-67.0
X164.5Y-69.0
X164.5Y-71.0
X164.5Y-73.0
X164.5Y-75.0
X164.5Y-77.0
X164.5Y-79.0
X164.5Y-81.0
X164.5Y-83.0
X166.5Y-67.0
X166.5Y-69.0
X166.5Y-71.0
X166.5Y-73.0
X166.5Y-75.0
X166.5Y-77.0
X166.5Y-79.0
X166.5Y-81.0
X166.5Y-83.0
X167.7Y-62.3
X167.9Y-60.85
X168.3Y-89.05
X168.5Y-67.0
X168.5Y-69.0
X168.5Y-71.0
X168.5Y-73.0
X168.5Y-75.0
X168.5Y-77.0
X168.5Y-79.0
X168.5Y-81.0
X168.5Y-83.0
X169.1Y-62.95
X169.25Y-84.8
X169.3Y-51.9
X169.5Y-66.25
X169.55Y-49.0
X170.05Y-77.25
X170.2Y-63.65
X170.3Y-72.75
X170.3Y-78.25
X171.05Y-86.15
X171.75Y-64.5
X172.0Y-78.75
X172.05Y-66.75
X172.05Y-73.25
X172.55Y-63.85
X172.65Y-77.25
X174.5Y-51.8
X174.5Y-52.95
X175.1Y-52.25
X175.5Y-49.5
X176.15Y-52.9
X176.25Y-49.7
X176.8Y-51.2
X181.8Y-51.9
X182.05Y-49.0
X187.0Y-51.8
X187.0Y-52.9
X187.6Y-52.25
X188.0Y-49.5
X188.65Y-52.9
X188.75Y-49.7
X189.3Y-51.2
X189.3Y-105.6
X190.1Y-103.3
X191.25Y-51.15
X194.3Y-51.895
X194.55Y-48.995
X194.8Y-102.5
X197.1Y-68.2
X199.5Y-51.795
X199.5Y-52.9
X200.1Y-52.245
X200.5Y-49.495
X201.15Y-52.9
X201.25Y-49.7
X201.8Y-51.2
T2
X122.75Y-57.0
X122.75Y-59.25
X122.75Y-61.5
X123.875Y-58.125
X123.875Y-60.375
X125.0Y-57.0
X125.0Y-59.25
X125.0Y-61.5
X126.125Y-58.125
X126.125Y-60.375
X127.25Y-57.0
X127.25Y-59.25
X127.25Y-61.5
X141.25Y-57.0
X141.25Y-59.25
X141.25Y-61.5
X142.375Y-58.125
X142.375Y-60.375
X143.5Y-57.0
X143.5Y-59.25
X143.5Y-61.5
X144.625Y-58.125
X144.625Y-60.375
X145.75Y-57.0
X145.75Y-59.25
X145.75Y-61.5
X158.625Y-48.625
X158.625Y-50.0
X158.625Y-51.375
X160.0Y-48.625
X160.0Y-50.0
X160.0Y-51.375
X161.375Y-48.625
X161.375Y-50.0
X161.375Y-51.375
X171.125Y-48.625
X171.125Y-50.0
X171.125Y-51.375
X172.5Y-48.625
X172.5Y-50.0
X172.5Y-51.375
X173.875Y-48.625
X173.875Y-50.0
X173.875Y-51.375
X183.625Y-48.625
X183.625Y-50.0
X183.625Y-51.375
X185.0Y-48.625
X185.0Y-50.0
X185.0Y-51.375
X186.375Y-48.625
X186.375Y-50.0
X186.375Y-51.375
X196.125Y-48.62
X196.125Y-49.995
X196.125Y-51.37
X197.5Y-48.62
X197.5Y-49.995
X197.5Y-51.37
X198.875Y-48.62
X198.875Y-49.995
X198.875Y-51.37
T3
X54.6Y-98.45
X64.15Y-98.5
X64.15Y-99.1
X64.3Y-88.1
X64.3Y-88.7
X64.3Y-89.3
X65.2Y-88.1
X65.2Y-88.7
X65.2Y-89.3
X66.35Y-92.1
X66.35Y-92.7
X66.35Y-93.3
X66.35Y-93.9
X66.45Y-95.5
X66.45Y-96.1
X66.45Y-98.5
X66.45Y-99.1
X66.95Y-92.1
X66.95Y-92.7
X66.95Y-93.3
X66.95Y-93.9
X67.55Y-92.1
X67.55Y-92.7
X67.55Y-93.3
X67.55Y-93.9
X67.624Y-84.9
X82.9Y-84.15
X82.9Y-84.75
X82.9Y-85.35
X85.7Y-88.3
X85.7Y-88.9
X85.7Y-89.5
X85.85Y-84.15
X85.85Y-84.75
X85.85Y-85.35
X86.45Y-88.0
X86.45Y-88.6
X86.45Y-89.2
X86.45Y-89.8
X87.35Y-84.6
X87.35Y-85.2
X87.35Y-85.8
X87.35Y-86.4
X87.95Y-84.6
X87.95Y-85.2
X87.95Y-85.8
X87.95Y-86.4
X88.55Y-84.6
X88.55Y-85.2
X88.55Y-85.8
X88.55Y-86.4
X90.15Y-92.1
X90.15Y-92.7
X90.15Y-93.3
X102.9Y-93.8
X103.5Y-93.8
X104.1Y-93.8
X105.2Y-93.8
X105.8Y-93.8
X106.4Y-93.8
X107.3Y-110.7
X107.3Y-111.3
X107.8Y-100.05
X107.8Y-106.05
X107.8Y-112.05
X108.35Y-98.75
X108.35Y-99.35
X108.35Y-104.75
X108.35Y-105.35
X117.15Y-52.4
X117.45Y-53.95
X117.75Y-52.4
X118.05Y-53.95
X118.35Y-52.4
X119.3Y-100.05
X119.3Y-106.05
X119.3Y-112.05
X119.6Y-47.0
X119.6Y-48.2
X119.6Y-48.8
X119.6Y-47.6
X119.85Y-98.75
X119.85Y-99.35
X119.85Y-104.75
X119.85Y-105.35
X119.85Y-110.75
X119.85Y-111.35
X120.1Y-51.7
X120.1Y-52.3
X120.1Y-52.9
X120.7Y-51.7
X120.7Y-52.3
X120.7Y-52.9
X121.3Y-51.7
X121.3Y-52.3
X121.3Y-52.9
X121.9Y-51.7
X121.9Y-52.3
X121.9Y-52.9
X123.6Y-47.0
X123.6Y-48.2
X123.6Y-48.8
X123.6Y-47.6
X124.1Y-51.7
X124.1Y-52.3
X124.1Y-52.9
X124.7Y-51.7
X124.7Y-52.3
X124.7Y-52.9
X125.3Y-51.7
X125.3Y-52.3
X125.3Y-52.9
X125.9Y-51.7
X125.9Y-52.3
X125.9Y-52.9
X127.6Y-47.0
X127.6Y-48.2
X127.6Y-48.8
X127.6Y-47.6
X128.1Y-51.7
X128.1Y-52.3
X128.1Y-52.9
X128.7Y-51.7
X128.7Y-52.3
X128.7Y-52.9
X129.3Y-51.7
X129.3Y-52.3
X129.3Y-52.9
X129.9Y-51.7
X129.9Y-52.3
X129.9Y-52.9
X130.8Y-100.05
X130.8Y-106.05
X130.8Y-112.05
X131.35Y-98.75
X131.35Y-99.35
X131.35Y-104.75
X131.35Y-105.35
X131.35Y-110.75
X131.35Y-111.35
X131.6Y-47.0
X131.6Y-48.2
X131.6Y-48.8
X131.6Y-47.6
X131.8Y-54.1
X132.1Y-51.7
X132.1Y-52.3
X132.1Y-52.9
X132.4Y-54.1
X132.7Y-51.7
X132.7Y-52.3
X132.7Y-52.9
X133.0Y-54.1
X133.0Y-57.4
X133.0Y-58.0
X133.0Y-58.6
X133.3Y-51.7
X133.3Y-52.3
X133.3Y-52.9
X133.6Y-54.1
X133.9Y-51.7
X133.9Y-52.3
X133.9Y-52.9
X134.2Y-54.1
X135.65Y-44.75
X135.65Y-46.3
X135.65Y-49.55
X135.65Y-52.35
X135.95Y-54.05
X136.25Y-44.75
X136.25Y-46.3
X136.25Y-49.55
X136.25Y-52.35
X136.55Y-54.05
X136.85Y-44.75
X136.85Y-46.3
X136.85Y-49.55
X136.85Y-52.35
X138.1Y-47.0
X138.1Y-48.2
X138.1Y-48.8
X138.1Y-47.6
X138.6Y-51.7
X138.6Y-52.3
X138.6Y-52.9
X139.2Y-51.7
X139.2Y-52.3
X139.2Y-52.9
X139.8Y-51.7
X139.8Y-52.3
X139.8Y-52.9
X140.4Y-51.7
X140.4Y-52.3
X140.4Y-52.9
X142.1Y-47.0
X142.1Y-48.2
X142.1Y-48.8
X142.1Y-47.6
X142.6Y-51.7
X142.6Y-52.3
X142.6Y-52.9
X143.2Y-51.7
X143.2Y-52.3
X143.2Y-52.9
X143.8Y-51.7
X143.8Y-52.3
X143.8Y-52.9
X144.1Y-88.3
X144.1Y-88.9
X144.1Y-89.5
X144.4Y-51.7
X144.4Y-52.3
X144.4Y-52.9
X146.1Y-47.0
X146.1Y-48.2
X146.1Y-48.8
X146.1Y-47.6
X146.6Y-51.7
X146.6Y-52.3
X146.6Y-52.9
X146.85Y-86.3
X147.2Y-51.7
X147.2Y-52.3
X147.2Y-52.9
X147.45Y-86.3
X147.8Y-51.7
X147.8Y-52.3
X147.8Y-52.9
X148.4Y-51.7
X148.4Y-52.3
X148.4Y-52.9
X149.15Y-58.1
X149.55Y-57.05
X149.55Y-57.65
X150.002Y-54.102
X150.1Y-47.0
X150.1Y-48.2
X150.1Y-48.8
X150.1Y-47.6
X150.6Y-51.7
X150.6Y-52.3
X150.6Y-52.9
X150.6Y-54.1
X151.2Y-51.7
X151.2Y-52.3
X151.2Y-52.9
X151.2Y-54.1
X151.8Y-51.7
X151.8Y-52.3
X151.8Y-52.9
X152.4Y-51.7
X152.4Y-52.3
X152.4Y-52.9
X154.15Y-49.55
X154.15Y-52.4
X154.45Y-53.95
X154.75Y-49.55
X154.75Y-52.4
X154.8Y-84.5
X155.0Y-47.6
X155.0Y-48.2
X155.05Y-53.95
X155.35Y-49.55
X155.35Y-52.4
X155.4Y-84.5
X155.7Y-46.8
X156.3Y-46.8
X158.1Y-47.3
X158.1Y-47.9
X158.6Y-46.6
X159.0Y-47.0
X161.0Y-47.0
X161.4Y-46.6
X161.9Y-47.3
X161.9Y-47.9
X163.7Y-46.8
X164.3Y-46.8
X165.0Y-47.595
X165.0Y-48.195
X166.25Y-45.495
X167.5Y-47.6
X167.5Y-48.2
X168.2Y-46.8
X168.8Y-46.8
X170.45Y-65.05
X170.45Y-65.65
X170.6Y-47.3
X170.6Y-47.9
X171.1Y-46.6
X171.5Y-47.0
X173.5Y-47.0
X173.9Y-46.6
X174.4Y-47.3
X174.4Y-47.9
X176.2Y-46.8
X176.8Y-46.8
X177.5Y-47.6
X177.5Y-48.2
X178.75Y-45.5
X180.0Y-47.6
X180.0Y-48.2
X180.7Y-46.8
X181.3Y-46.8
X183.1Y-47.3
X183.1Y-47.9
X183.6Y-46.6
X184.0Y-47.0
X186.0Y-47.0
X186.4Y-46.6
X186.9Y-47.3
X186.9Y-47.9
X188.7Y-46.8
X189.3Y-46.8
X190.0Y-47.6
X190.0Y-48.2
X190.3Y-107.95
X190.3Y-108.6
X191.1Y-108.05
X191.1Y-108.6
X191.25Y-45.5
X192.5Y-47.595
X192.5Y-48.195
X193.2Y-46.795
X193.8Y-46.795
X195.6Y-47.295
X195.6Y-47.895
X195.65Y-83.45
X195.9Y-108.05
X195.9Y-108.6
X196.1Y-46.595
X196.25Y-83.45
X196.5Y-46.995
X196.7Y-107.95
X196.7Y-108.6
X196.85Y-83.45
X198.5Y-46.995
X198.7Y-63.8
X198.7Y-70.2
X198.9Y-46.595
X199.35Y-70.2
X199.35Y-63.8
X199.4Y-47.295
X199.4Y-47.895
X201.2Y-46.795
X201.8Y-46.795
X202.5Y-47.595
X202.5Y-48.195
T5
X198.2Y-76.4
X198.2Y-77.8
X198.2Y-79.2
X198.2Y-80.6
X198.2Y-84.9
X198.2Y-86.3
X198.2Y-87.7
X198.2Y-89.1
X198.2Y-93.4
X198.2Y-94.8
X198.2Y-96.2
X198.2Y-97.6
X198.2Y-101.9
X198.2Y-103.3
X198.2Y-104.7
X198.2Y-106.1
T6
X86.22Y-95.57
X86.22Y-98.11
X86.22Y-100.65
X88.76Y-95.57
X88.76Y-98.11
X88.76Y-100.65
X91.3Y-95.57
X91.3Y-98.11
X91.3Y-100.65
X93.84Y-95.57
X93.84Y-98.11
X93.84Y-100.65
X96.38Y-95.57
X96.38Y-98.11
X96.38Y-100.65
X96.75Y-105.5
X96.75Y-111.5
X98.92Y-95.57
X98.92Y-98.11
X98.92Y-100.65
X99.25Y-105.5
X99.25Y-111.5
X101.46Y-95.57
X101.46Y-98.11
X101.46Y-100.65
X101.75Y-105.5
X101.75Y-111.5
X104.0Y-95.57
X104.0Y-98.11
X104.0Y-100.65
X104.25Y-105.5
X104.25Y-111.5
X113.25Y-99.5
X113.25Y-105.5
X113.25Y-111.5
X115.75Y-99.5
X115.75Y-105.5
X115.75Y-111.5
X122.25Y-70.5
X122.25Y-76.5
X122.25Y-83.5
X122.25Y-89.5
X123.25Y-44.25
X124.75Y-70.5
X124.75Y-76.5
X124.75Y-83.5
X124.75Y-89.5
X124.75Y-99.5
X124.75Y-105.5
X124.75Y-111.5
X125.75Y-44.25
X127.25Y-83.5
X127.25Y-89.5
X127.25Y-99.5
X127.25Y-105.5
X127.25Y-111.5
X128.25Y-44.25
X129.75Y-70.5
X129.75Y-76.5
X130.75Y-44.25
X132.25Y-70.5
X132.25Y-76.5
X132.25Y-83.5
X132.25Y-89.5
X134.75Y-83.5
X134.75Y-89.5
X136.25Y-99.5
X136.25Y-105.5
X136.25Y-111.5
X137.25Y-70.5
X137.25Y-76.5
X137.25Y-83.5
X137.25Y-89.5
X138.75Y-99.5
X138.75Y-105.5
X138.75Y-111.5
X139.75Y-70.5
X139.75Y-76.5
X141.75Y-44.25
X144.25Y-44.25
X146.75Y-44.25
X149.25Y-44.25
X149.64Y-88.25
X152.18Y-88.25
X154.72Y-88.25
X156.25Y-44.25
X157.26Y-88.25
X158.75Y-44.25
X161.25Y-44.25
X163.75Y-44.25
X168.75Y-44.25
X171.25Y-44.25
X172.2Y-62.75
X173.75Y-44.25
X174.74Y-62.75
X176.25Y-44.25
X177.28Y-62.75
X179.82Y-62.75
X181.25Y-44.25
X182.36Y-62.75
X183.75Y-44.25
X184.9Y-62.75
X186.25Y-44.25
X188.75Y-44.25
X193.75Y-44.245
X196.25Y-44.245
X198.75Y-44.245
X201.25Y-44.245
T7
X61.0Y-74.5
X61.0Y-79.5
X74.0Y-74.5
X74.0Y-79.5
X87.0Y-74.5
X87.0Y-79.5
X100.0Y-74.5
X100.0Y-79.5
X113.0Y-74.5
X113.0Y-79.5
X203.8Y-78.51
X203.8Y-87.01
X203.8Y-95.51
X203.8Y-104.01
T8
X176.5Y-69.92
X176.5Y-72.46
X176.5Y-75.0
X176.5Y-77.54
X176.5Y-80.08
X179.04Y-69.92
X179.04Y-72.46
X179.04Y-75.0
X179.04Y-77.54
X179.04Y-80.08
X186.0Y-69.92
X186.0Y-72.46
X186.0Y-75.0
X186.0Y-77.54
X186.0Y-80.08
X188.54Y-69.92
X188.54Y-72.46
X188.54Y-75.0
X188.54Y-77.54
X188.54Y-80.08
T9
X56.095Y-111.5
X60.0Y-111.5
X63.715Y-111.5
X67.62Y-111.5
X71.335Y-111.5
X75.24Y-111.5
X78.955Y-111.5
X82.86Y-111.5
X86.575Y-111.5
X90.48Y-111.5
T10
X52.0Y-56.25
X52.0Y-64.75
X52.0Y-73.25
X52.0Y-81.75
X52.0Y-90.25
X52.0Y-98.75
T11
X57.5Y-43.0
X81.5Y-43.0
X85.5Y-62.0
X89.5Y-43.0
X113.5Y-43.0
T4
G00X55.35Y-85.45
M15
G01X56.65Y-85.45
M16
G05
G00X55.35Y-89.1
M15
G01X56.65Y-89.1
M16
G05
G00X55.35Y-93.4
M15
G01X56.65Y-93.4
M16
G05
G00X55.35Y-97.05
M15
G01X56.65Y-97.05
M16
G05
G00X56.2Y-69.15
M15
G01X56.2Y-67.85
M16
G05
G00X59.85Y-69.15
M15
G01X59.85Y-67.85
M16
G05
G00X60.35Y-85.45
M15
G01X61.65Y-85.45
M16
G05
G00X60.35Y-89.1
M15
G01X61.65Y-89.1
M16
G05
G00X60.35Y-93.4
M15
G01X61.65Y-93.4
M16
G05
G00X60.35Y-97.05
M15
G01X61.65Y-97.05
M16
G05
G00X64.15Y-69.15
M15
G01X64.15Y-67.85
M16
G05
G00X67.8Y-69.15
M15
G01X67.8Y-67.85
M16
G05
G00X71.7Y-69.15
M15
G01X71.7Y-67.85
M16
G05
G00X75.35Y-69.15
M15
G01X75.35Y-67.85
M16
G05
G00X79.65Y-69.15
M15
G01X79.65Y-67.85
M16
G05
G00X83.3Y-69.15
M15
G01X83.3Y-67.85
M16
G05
G00X87.7Y-69.15
M15
G01X87.7Y-67.85
M16
G05
G00X91.35Y-69.15
M15
G01X91.35Y-67.85
M16
G05
G00X95.65Y-69.15
M15
G01X95.65Y-67.85
M16
G05
G00X99.3Y-69.15
M15
G01X99.3Y-67.85
M16
G05
G00X103.2Y-69.15
M15
G01X103.2Y-67.85
M16
G05
G00X106.85Y-69.15
M15
G01X106.85Y-67.85
M16
G05
G00X111.15Y-69.15
M15
G01X111.15Y-67.85
M16
G05
G00X114.8Y-69.15
M15
G01X114.8Y-67.85
M16
G05
G00X201.4Y-75.8
M15
G01X200.2Y-75.8
M16
G05
G00X201.4Y-81.2
M15
G01X200.2Y-81.2
M16
G05
G00X201.4Y-84.3
M15
G01X200.2Y-84.3
M16
G05
G00X201.4Y-89.7
M15
G01X200.2Y-89.7
M16
G05
G00X201.4Y-92.8
M15
G01X200.2Y-92.8
M16
G05
G00X201.4Y-98.2
M15
G01X200.2Y-98.2
M16
G05
G00X201.4Y-101.3
M15
G01X200.2Y-101.3
M16
G05
G00X201.4Y-106.7
M15
G01X200.2Y-106.7
M16
G05
T5
G00X189.18Y-108.345
M15
G01X189.18Y-109.445
M16
G05
G00X189.18Y-112.775
M15
G01X189.18Y-113.375
M16
G05
G00X197.82Y-108.345
M15
G01X197.82Y-109.445
M16
G05
G00X197.82Y-112.775
M15
G01X197.82Y-113.375
M16
G05
G00X199.095Y-62.68
M15
G01X200.195Y-62.68
M16
G05
G00X199.095Y-71.32
M15
G01X200.195Y-71.32
M16
G05
G00X203.525Y-62.68
M15
G01X204.125Y-62.68
M16
G05
G00X203.525Y-71.32
M15
G01X204.125Y-71.32
M16
G05
T0
M30
