%TF.GenerationSoftware,KiCad,Pcbnew,7.0.8-7.0.8~ubuntu22.04.1*%
%TF.CreationDate,2023-11-12T23:59:41-08:00*%
%TF.ProjectId,corevus-g,636f7265-7675-4732-9d67-2e6b69636164,rev?*%
%TF.SameCoordinates,Original*%
%TF.FileFunction,Soldermask,Top*%
%TF.FilePolarity,Negative*%
%FSLAX46Y46*%
G04 Gerber Fmt 4.6, Leading zero omitted, Abs format (unit mm)*
G04 Created by KiCad (PCBNEW 7.0.8-7.0.8~ubuntu22.04.1) date 2023-11-12 23:59:41*
%MOMM*%
%LPD*%
G01*
G04 APERTURE LIST*
G04 Aperture macros list*
%AMRoundRect*
0 Rectangle with rounded corners*
0 $1 Rounding radius*
0 $2 $3 $4 $5 $6 $7 $8 $9 X,Y pos of 4 corners*
0 Add a 4 corners polygon primitive as box body*
4,1,4,$2,$3,$4,$5,$6,$7,$8,$9,$2,$3,0*
0 Add four circle primitives for the rounded corners*
1,1,$1+$1,$2,$3*
1,1,$1+$1,$4,$5*
1,1,$1+$1,$6,$7*
1,1,$1+$1,$8,$9*
0 Add four rect primitives between the rounded corners*
20,1,$1+$1,$2,$3,$4,$5,0*
20,1,$1+$1,$4,$5,$6,$7,0*
20,1,$1+$1,$6,$7,$8,$9,0*
20,1,$1+$1,$8,$9,$2,$3,0*%
G04 Aperture macros list end*
%ADD10RoundRect,0.100000X-1.025000X0.400000X-1.025000X-0.400000X1.025000X-0.400000X1.025000X0.400000X0*%
%ADD11RoundRect,0.100000X0.400000X1.025000X-0.400000X1.025000X-0.400000X-1.025000X0.400000X-1.025000X0*%
%ADD12RoundRect,0.100000X-0.175000X-0.200000X0.175000X-0.200000X0.175000X0.200000X-0.175000X0.200000X0*%
%ADD13RoundRect,0.100000X0.200000X-0.175000X0.200000X0.175000X-0.200000X0.175000X-0.200000X-0.175000X0*%
%ADD14RoundRect,0.100000X0.175000X0.200000X-0.175000X0.200000X-0.175000X-0.200000X0.175000X-0.200000X0*%
%ADD15RoundRect,0.100000X0.350000X0.400000X-0.350000X0.400000X-0.350000X-0.400000X0.350000X-0.400000X0*%
%ADD16RoundRect,0.100000X-0.200000X0.175000X-0.200000X-0.175000X0.200000X-0.175000X0.200000X0.175000X0*%
%ADD17RoundRect,0.100000X0.300000X0.300000X-0.300000X0.300000X-0.300000X-0.300000X0.300000X-0.300000X0*%
%ADD18C,0.900000*%
%ADD19RoundRect,0.075000X0.225000X0.575000X-0.225000X0.575000X-0.225000X-0.575000X0.225000X-0.575000X0*%
%ADD20C,1.000000*%
%ADD21O,2.500000X1.200000*%
%ADD22O,1.600000X1.600000*%
%ADD23RoundRect,0.250000X-0.650000X0.325000X-0.650000X-0.325000X0.650000X-0.325000X0.650000X0.325000X0*%
%ADD24RoundRect,0.225000X-0.375000X0.225000X-0.375000X-0.225000X0.375000X-0.225000X0.375000X0.225000X0*%
%ADD25RoundRect,0.050000X0.150000X0.250000X-0.150000X0.250000X-0.150000X-0.250000X0.150000X-0.250000X0*%
%ADD26RoundRect,0.055714X1.169286X0.819286X-1.169286X0.819286X-1.169286X-0.819286X1.169286X-0.819286X0*%
%ADD27RoundRect,0.250000X-0.450000X0.262500X-0.450000X-0.262500X0.450000X-0.262500X0.450000X0.262500X0*%
%ADD28C,1.800000*%
%ADD29C,1.500000*%
%ADD30RoundRect,1.000000X-0.500000X0.500000X-0.500000X-0.500000X0.500000X-0.500000X0.500000X0.500000X0*%
%ADD31O,1.800000X1.800000*%
%ADD32C,3.200000*%
%ADD33RoundRect,0.250000X-0.600000X-0.600000X0.600000X-0.600000X0.600000X0.600000X-0.600000X0.600000X0*%
%ADD34C,1.700000*%
%ADD35RoundRect,0.150000X-0.150000X0.587500X-0.150000X-0.587500X0.150000X-0.587500X0.150000X0.587500X0*%
%ADD36RoundRect,0.250000X0.625000X-0.312500X0.625000X0.312500X-0.625000X0.312500X-0.625000X-0.312500X0*%
%ADD37RoundRect,0.050000X-0.150000X-0.250000X0.150000X-0.250000X0.150000X0.250000X-0.150000X0.250000X0*%
%ADD38RoundRect,0.055714X-1.169286X-0.819286X1.169286X-0.819286X1.169286X0.819286X-1.169286X0.819286X0*%
%ADD39RoundRect,0.050000X-0.250000X0.150000X-0.250000X-0.150000X0.250000X-0.150000X0.250000X0.150000X0*%
%ADD40RoundRect,0.055714X-0.819286X1.169286X-0.819286X-1.169286X0.819286X-1.169286X0.819286X1.169286X0*%
%ADD41RoundRect,0.250000X0.650000X-0.325000X0.650000X0.325000X-0.650000X0.325000X-0.650000X-0.325000X0*%
%ADD42RoundRect,0.100000X-0.400000X0.350000X-0.400000X-0.350000X0.400000X-0.350000X0.400000X0.350000X0*%
%ADD43RoundRect,0.050000X0.250000X-0.150000X0.250000X0.150000X-0.250000X0.150000X-0.250000X-0.150000X0*%
%ADD44RoundRect,0.055714X0.819286X-1.169286X0.819286X1.169286X-0.819286X1.169286X-0.819286X-1.169286X0*%
%ADD45RoundRect,0.225000X0.225000X0.375000X-0.225000X0.375000X-0.225000X-0.375000X0.225000X-0.375000X0*%
%ADD46RoundRect,0.062500X-0.425000X-0.062500X0.425000X-0.062500X0.425000X0.062500X-0.425000X0.062500X0*%
%ADD47RoundRect,0.062500X-0.062500X-0.425000X0.062500X-0.425000X0.062500X0.425000X-0.062500X0.425000X0*%
%ADD48RoundRect,0.250000X-1.375000X-1.375000X1.375000X-1.375000X1.375000X1.375000X-1.375000X1.375000X0*%
%ADD49RoundRect,0.112500X-0.187500X-0.112500X0.187500X-0.112500X0.187500X0.112500X-0.187500X0.112500X0*%
%ADD50C,0.650000*%
%ADD51R,0.300000X1.150000*%
%ADD52O,1.000000X2.100000*%
%ADD53O,1.000000X1.600000*%
%ADD54C,4.200000*%
%ADD55C,5.800000*%
%ADD56RoundRect,0.100000X0.400000X-0.350000X0.400000X0.350000X-0.400000X0.350000X-0.400000X-0.350000X0*%
%ADD57RoundRect,0.500000X-0.500000X-0.500000X0.500000X-0.500000X0.500000X0.500000X-0.500000X0.500000X0*%
%ADD58C,2.000000*%
%ADD59C,2.950000*%
%ADD60RoundRect,0.250000X-0.625000X0.312500X-0.625000X-0.312500X0.625000X-0.312500X0.625000X0.312500X0*%
%ADD61RoundRect,0.075000X-0.662500X-0.075000X0.662500X-0.075000X0.662500X0.075000X-0.662500X0.075000X0*%
%ADD62RoundRect,0.075000X-0.075000X-0.662500X0.075000X-0.662500X0.075000X0.662500X-0.075000X0.662500X0*%
%ADD63RoundRect,0.250000X-1.250000X-1.500000X1.250000X-1.500000X1.250000X1.500000X-1.250000X1.500000X0*%
%ADD64RoundRect,0.300000X0.300000X-0.400000X0.300000X0.400000X-0.300000X0.400000X-0.300000X-0.400000X0*%
%ADD65RoundRect,0.125000X0.537500X0.125000X-0.537500X0.125000X-0.537500X-0.125000X0.537500X-0.125000X0*%
%ADD66RoundRect,0.100000X-0.265165X-0.017678X-0.017678X-0.265165X0.265165X0.017678X0.017678X0.265165X0*%
%ADD67RoundRect,0.225000X0.375000X-0.225000X0.375000X0.225000X-0.375000X0.225000X-0.375000X-0.225000X0*%
%ADD68RoundRect,0.300000X0.400000X0.300000X-0.400000X0.300000X-0.400000X-0.300000X0.400000X-0.300000X0*%
%ADD69O,1.200000X2.500000*%
%ADD70RoundRect,0.250000X-0.325000X-0.650000X0.325000X-0.650000X0.325000X0.650000X-0.325000X0.650000X0*%
%ADD71RoundRect,0.150000X0.150000X-0.850000X0.150000X0.850000X-0.150000X0.850000X-0.150000X-0.850000X0*%
%ADD72RoundRect,0.100000X-0.017678X0.265165X-0.265165X0.017678X0.017678X-0.265165X0.265165X-0.017678X0*%
%ADD73RoundRect,0.250000X0.325000X0.650000X-0.325000X0.650000X-0.325000X-0.650000X0.325000X-0.650000X0*%
%ADD74RoundRect,0.150000X-0.150000X0.662500X-0.150000X-0.662500X0.150000X-0.662500X0.150000X0.662500X0*%
%ADD75RoundRect,0.100000X0.265165X0.017678X0.017678X0.265165X-0.265165X-0.017678X-0.017678X-0.265165X0*%
%ADD76RoundRect,0.100000X0.300000X-0.300000X0.300000X0.300000X-0.300000X0.300000X-0.300000X-0.300000X0*%
%ADD77RoundRect,0.075000X0.575000X-0.225000X0.575000X0.225000X-0.575000X0.225000X-0.575000X-0.225000X0*%
%ADD78RoundRect,0.100000X-0.300000X-0.300000X0.300000X-0.300000X0.300000X0.300000X-0.300000X0.300000X0*%
%ADD79RoundRect,0.075000X-0.225000X-0.575000X0.225000X-0.575000X0.225000X0.575000X-0.225000X0.575000X0*%
%ADD80RoundRect,0.300000X-0.200000X-0.150000X0.200000X-0.150000X0.200000X0.150000X-0.200000X0.150000X0*%
%ADD81R,1.150000X0.300000*%
%ADD82O,2.100000X1.000000*%
%ADD83O,1.600000X1.000000*%
%ADD84R,1.500000X2.000000*%
%ADD85R,3.800000X2.000000*%
%ADD86RoundRect,0.100000X-0.400000X-0.050000X0.400000X-0.050000X0.400000X0.050000X-0.400000X0.050000X0*%
%ADD87RoundRect,0.075000X-0.525000X-0.075000X0.525000X-0.075000X0.525000X0.075000X-0.525000X0.075000X0*%
%ADD88RoundRect,0.075000X-0.075000X-0.525000X0.075000X-0.525000X0.075000X0.525000X-0.075000X0.525000X0*%
%ADD89RoundRect,0.250000X-2.250000X-2.250000X2.250000X-2.250000X2.250000X2.250000X-2.250000X2.250000X0*%
G04 APERTURE END LIST*
D10*
%TO.C,T10*%
X108125000Y-59000000D03*
%TD*%
%TO.C,T27*%
X59625000Y-60500000D03*
%TD*%
%TO.C,T14*%
X108125000Y-57500000D03*
%TD*%
%TO.C,T13*%
X91625000Y-57500000D03*
%TD*%
%TO.C,T32*%
X76125000Y-56000000D03*
%TD*%
%TO.C,T12*%
X108125000Y-60500000D03*
%TD*%
%TO.C,T29*%
X59625000Y-57500000D03*
%TD*%
%TO.C,T31*%
X59625000Y-56000000D03*
%TD*%
%TO.C,T15*%
X91625000Y-56000000D03*
%TD*%
%TO.C,T23*%
X59625000Y-54500000D03*
%TD*%
D11*
%TO.C,T2*%
X97750000Y-62375000D03*
%TD*%
%TO.C,T19*%
X68750000Y-62375000D03*
%TD*%
%TO.C,T21*%
X70250000Y-62375000D03*
%TD*%
%TO.C,T6*%
X103750000Y-62375000D03*
%TD*%
%TO.C,T5*%
X102250000Y-62375000D03*
%TD*%
%TO.C,T18*%
X65750000Y-62375000D03*
%TD*%
D10*
%TO.C,T16*%
X108125000Y-56000000D03*
%TD*%
%TO.C,T8*%
X108125000Y-54500000D03*
%TD*%
%TO.C,T26*%
X76125000Y-59000000D03*
%TD*%
D11*
%TO.C,T4*%
X99250000Y-62375000D03*
%TD*%
%TO.C,T1*%
X96250000Y-62375000D03*
%TD*%
%TO.C,T17*%
X64250000Y-62375000D03*
%TD*%
D10*
%TO.C,T28*%
X76125000Y-60500000D03*
%TD*%
D11*
%TO.C,T20*%
X67250000Y-62375000D03*
%TD*%
D10*
%TO.C,T7*%
X91625000Y-54500000D03*
%TD*%
%TO.C,T30*%
X76125000Y-57500000D03*
%TD*%
%TO.C,T24*%
X76125000Y-54500000D03*
%TD*%
%TO.C,T9*%
X91625000Y-59000000D03*
%TD*%
%TO.C,T25*%
X59625000Y-59000000D03*
%TD*%
%TO.C,T11*%
X91625000Y-60500000D03*
%TD*%
D11*
%TO.C,T3*%
X100750000Y-62375000D03*
%TD*%
%TO.C,T22*%
X71750000Y-62375000D03*
%TD*%
D12*
%TO.C,D29*%
X109150000Y-103550000D03*
X110150000Y-103550000D03*
%TD*%
D13*
%TO.C,C95*%
X81500000Y-87250000D03*
X81500000Y-86250000D03*
%TD*%
D12*
%TO.C,C18*%
X201150000Y-51195000D03*
X202150000Y-51195000D03*
%TD*%
D14*
%TO.C,C9*%
X126100000Y-79475000D03*
X125100000Y-79475000D03*
%TD*%
D15*
%TO.C,C11*%
X145250000Y-75950000D03*
X143750000Y-75950000D03*
%TD*%
D12*
%TO.C,D12*%
X77580000Y-104200000D03*
X78580000Y-104200000D03*
%TD*%
D14*
%TO.C,R101*%
X177150000Y-49200000D03*
X176150000Y-49200000D03*
%TD*%
D12*
%TO.C,C5*%
X66900000Y-101000000D03*
X67900000Y-101000000D03*
%TD*%
D16*
%TO.C,C31*%
X168900000Y-49100000D03*
X168900000Y-50100000D03*
%TD*%
D17*
%TO.C,SW9*%
X53650000Y-110850000D03*
X53650000Y-108650000D03*
D18*
X51500000Y-109750000D03*
X48500000Y-109750000D03*
D17*
X46350000Y-110850000D03*
X46350000Y-108650000D03*
D19*
X52250000Y-111550000D03*
X49250000Y-111550000D03*
X47750000Y-111550000D03*
%TD*%
D20*
%TO.C,J38*%
X198200000Y-101900000D03*
X198200000Y-103300000D03*
X198200000Y-104700000D03*
X198200000Y-106100000D03*
D21*
X200800000Y-106700000D03*
D22*
X203800000Y-104010000D03*
D21*
X200800000Y-101300000D03*
%TD*%
D23*
%TO.C,C71*%
X53000000Y-47025000D03*
X53000000Y-49975000D03*
%TD*%
D24*
%TO.C,D36*%
X147150000Y-86050000D03*
X147150000Y-89350000D03*
%TD*%
D25*
%TO.C,Q6*%
X152475000Y-50550000D03*
X151825000Y-50550000D03*
X151175000Y-50550000D03*
X150525000Y-50550000D03*
X150525000Y-53450000D03*
X151175000Y-53450000D03*
X151825000Y-53450000D03*
X152475000Y-53450000D03*
D26*
X151500000Y-52300000D03*
%TD*%
D27*
%TO.C,R27*%
X168500000Y-46092500D03*
X168500000Y-47917500D03*
%TD*%
D12*
%TO.C,D32*%
X109150000Y-97550000D03*
X110150000Y-97550000D03*
%TD*%
D16*
%TO.C,R83*%
X131750000Y-95500000D03*
X131750000Y-96500000D03*
%TD*%
D28*
%TO.C,M4*%
X163750000Y-44250000D03*
X161250000Y-44250000D03*
X158750000Y-44250000D03*
X156250000Y-44250000D03*
%TD*%
D12*
%TO.C,R7*%
X196750000Y-65500000D03*
X197750000Y-65500000D03*
%TD*%
D29*
%TO.C,J30*%
X86220000Y-95570000D03*
X88760000Y-95570000D03*
X91300000Y-95570000D03*
X93840000Y-95570000D03*
X96380000Y-95570000D03*
X98920000Y-95570000D03*
X101460000Y-95570000D03*
X104000000Y-95570000D03*
%TD*%
D13*
%TO.C,D5*%
X93600000Y-112600000D03*
X93600000Y-111600000D03*
%TD*%
%TO.C,R37*%
X136750000Y-57550000D03*
X136750000Y-56550000D03*
%TD*%
D27*
%TO.C,R23*%
X189000000Y-46092500D03*
X189000000Y-47917500D03*
%TD*%
D13*
%TO.C,C42*%
X138000000Y-59750000D03*
X138000000Y-58750000D03*
%TD*%
D16*
%TO.C,R40*%
X119500000Y-60550000D03*
X119500000Y-61550000D03*
%TD*%
D28*
%TO.C,M3*%
X176250000Y-44250000D03*
X173750000Y-44250000D03*
X171250000Y-44250000D03*
X168750000Y-44250000D03*
%TD*%
D16*
%TO.C,C30*%
X168900000Y-50900000D03*
X168900000Y-51900000D03*
%TD*%
D25*
%TO.C,Q25*%
X76315000Y-104050000D03*
X75665000Y-104050000D03*
X75015000Y-104050000D03*
X74365000Y-104050000D03*
X74365000Y-106950000D03*
X75015000Y-106950000D03*
X75665000Y-106950000D03*
X76315000Y-106950000D03*
D26*
X75340000Y-105800000D03*
%TD*%
D12*
%TO.C,R52*%
X140600000Y-85800000D03*
X141600000Y-85800000D03*
%TD*%
%TO.C,C24*%
X181350000Y-53050000D03*
X182350000Y-53050000D03*
%TD*%
D30*
%TO.C,J36*%
X52000000Y-73250000D03*
X52000000Y-81750000D03*
%TD*%
D31*
%TO.C,J32*%
X124750000Y-111500000D03*
X127250000Y-111500000D03*
%TD*%
D14*
%TO.C,R50*%
X119850000Y-109550000D03*
X118850000Y-109550000D03*
%TD*%
D27*
%TO.C,R26*%
X176500000Y-46092500D03*
X176500000Y-47917500D03*
%TD*%
D14*
%TO.C,R81*%
X197000000Y-103000000D03*
X196000000Y-103000000D03*
%TD*%
D23*
%TO.C,C96*%
X103500000Y-90025000D03*
X103500000Y-92975000D03*
%TD*%
D16*
%TO.C,C1*%
X145600000Y-73850000D03*
X145600000Y-74850000D03*
%TD*%
D32*
%TO.C,H3*%
X202000000Y-57000000D03*
%TD*%
D23*
%TO.C,C97*%
X105800000Y-90025000D03*
X105800000Y-92975000D03*
%TD*%
D33*
%TO.C,J13*%
X176500000Y-69920000D03*
D34*
X179040000Y-69920000D03*
X176500000Y-72460000D03*
X179040000Y-72460000D03*
X176500000Y-75000000D03*
X179040000Y-75000000D03*
X176500000Y-77540000D03*
X179040000Y-77540000D03*
X176500000Y-80080000D03*
X179040000Y-80080000D03*
%TD*%
D20*
%TO.C,FID3*%
X49000000Y-95750000D03*
%TD*%
D14*
%TO.C,D19*%
X149950000Y-62500000D03*
X148950000Y-62500000D03*
%TD*%
D35*
%TO.C,Q29*%
X121200000Y-111062500D03*
X119300000Y-111062500D03*
X120250000Y-112937500D03*
%TD*%
D14*
%TO.C,C78*%
X140500000Y-79475000D03*
X139500000Y-79475000D03*
%TD*%
D36*
%TO.C,R35*%
X136250000Y-48462500D03*
X136250000Y-45537500D03*
%TD*%
D12*
%TO.C,C76*%
X194200000Y-102000000D03*
X195200000Y-102000000D03*
%TD*%
D37*
%TO.C,Q2*%
X51275000Y-106950000D03*
X51925000Y-106950000D03*
X52575000Y-106950000D03*
X53225000Y-106950000D03*
X53225000Y-104050000D03*
X52575000Y-104050000D03*
X51925000Y-104050000D03*
X51275000Y-104050000D03*
D38*
X52250000Y-105200000D03*
%TD*%
D35*
%TO.C,Q33*%
X132700000Y-99062500D03*
X130800000Y-99062500D03*
X131750000Y-100937500D03*
%TD*%
D20*
%TO.C,FID4*%
X175350000Y-83150000D03*
%TD*%
D14*
%TO.C,R103*%
X164650000Y-49200000D03*
X163650000Y-49200000D03*
%TD*%
D39*
%TO.C,Q9*%
X146050000Y-47525000D03*
X146050000Y-48175000D03*
X146050000Y-48825000D03*
X146050000Y-49475000D03*
X148950000Y-49475000D03*
X148950000Y-48825000D03*
X148950000Y-48175000D03*
X148950000Y-47525000D03*
D40*
X147800000Y-48500000D03*
%TD*%
D31*
%TO.C,J7*%
X132250000Y-70500000D03*
X129750000Y-70500000D03*
%TD*%
D25*
%TO.C,Q4*%
X144475000Y-50550000D03*
X143825000Y-50550000D03*
X143175000Y-50550000D03*
X142525000Y-50550000D03*
X142525000Y-53450000D03*
X143175000Y-53450000D03*
X143825000Y-53450000D03*
X144475000Y-53450000D03*
D26*
X143500000Y-52300000D03*
%TD*%
D12*
%TO.C,D15*%
X85200000Y-104200000D03*
X86200000Y-104200000D03*
%TD*%
D13*
%TO.C,C50*%
X148750000Y-55750000D03*
X148750000Y-54750000D03*
%TD*%
D28*
%TO.C,M2*%
X188750000Y-44250000D03*
X186250000Y-44250000D03*
X183750000Y-44250000D03*
X181250000Y-44250000D03*
%TD*%
%TO.C,M6*%
X130750000Y-44250000D03*
X128250000Y-44250000D03*
X125750000Y-44250000D03*
X123250000Y-44250000D03*
%TD*%
D12*
%TO.C,R9*%
X135750000Y-58450000D03*
X136750000Y-58450000D03*
%TD*%
D14*
%TO.C,C43*%
X151750000Y-60500000D03*
X150750000Y-60500000D03*
%TD*%
D13*
%TO.C,C90*%
X68800000Y-101000000D03*
X68800000Y-100000000D03*
%TD*%
D16*
%TO.C,R42*%
X135750000Y-54750000D03*
X135750000Y-55750000D03*
%TD*%
%TO.C,TH1*%
X138000000Y-45000000D03*
X138000000Y-46000000D03*
%TD*%
D35*
%TO.C,Q31*%
X121200000Y-99062500D03*
X119300000Y-99062500D03*
X120250000Y-100937500D03*
%TD*%
D16*
%TO.C,C36*%
X156400000Y-49100000D03*
X156400000Y-50100000D03*
%TD*%
D23*
%TO.C,C51*%
X150350000Y-55025000D03*
X150350000Y-57975000D03*
%TD*%
D12*
%TO.C,R17*%
X135900000Y-79475000D03*
X136900000Y-79475000D03*
%TD*%
D31*
%TO.C,J40*%
X136250000Y-99500000D03*
X138750000Y-99500000D03*
%TD*%
D16*
%TO.C,C98*%
X189300000Y-106000000D03*
X189300000Y-107000000D03*
%TD*%
D12*
%TO.C,D9*%
X62340000Y-104200000D03*
X63340000Y-104200000D03*
%TD*%
D41*
%TO.C,C99*%
X196250000Y-84225000D03*
X196250000Y-81275000D03*
%TD*%
D14*
%TO.C,R57*%
X119850000Y-97550000D03*
X118850000Y-97550000D03*
%TD*%
D42*
%TO.C,C10*%
X145350000Y-87850000D03*
X145350000Y-89350000D03*
%TD*%
D12*
%TO.C,R6*%
X196750000Y-68500000D03*
X197750000Y-68500000D03*
%TD*%
D16*
%TO.C,C107*%
X130500000Y-113250000D03*
X130500000Y-114250000D03*
%TD*%
D14*
%TO.C,R75*%
X197000000Y-79000000D03*
X196000000Y-79000000D03*
%TD*%
D13*
%TO.C,C84*%
X148400000Y-84500000D03*
X148400000Y-83500000D03*
%TD*%
D37*
%TO.C,Q19*%
X43775000Y-106950000D03*
X44425000Y-106950000D03*
X45075000Y-106950000D03*
X45725000Y-106950000D03*
X45725000Y-104050000D03*
X45075000Y-104050000D03*
X44425000Y-104050000D03*
X43775000Y-104050000D03*
D38*
X44750000Y-105200000D03*
%TD*%
D12*
%TO.C,R91*%
X147150000Y-78050000D03*
X148150000Y-78050000D03*
%TD*%
D31*
%TO.C,J14*%
X96750000Y-111500000D03*
X99250000Y-111500000D03*
X101750000Y-111500000D03*
X104250000Y-111500000D03*
%TD*%
D16*
%TO.C,R93*%
X64750000Y-85750000D03*
X64750000Y-86750000D03*
%TD*%
D14*
%TO.C,R61*%
X55720000Y-103200000D03*
X54720000Y-103200000D03*
%TD*%
D31*
%TO.C,J10*%
X124750000Y-76500000D03*
X122250000Y-76500000D03*
%TD*%
D14*
%TO.C,C58*%
X133250000Y-60500000D03*
X132250000Y-60500000D03*
%TD*%
D43*
%TO.C,Q37*%
X89700000Y-86475000D03*
X89700000Y-85825000D03*
X89700000Y-85175000D03*
X89700000Y-84525000D03*
X86800000Y-84525000D03*
X86800000Y-85175000D03*
X86800000Y-85825000D03*
X86800000Y-86475000D03*
D44*
X87950000Y-85500000D03*
%TD*%
D45*
%TO.C,D31*%
X58050000Y-100150000D03*
X54750000Y-100150000D03*
%TD*%
D13*
%TO.C,R90*%
X81100000Y-96050000D03*
X81100000Y-95050000D03*
%TD*%
D12*
%TO.C,R15*%
X121500000Y-79475000D03*
X122500000Y-79475000D03*
%TD*%
D28*
%TO.C,M1*%
X201250000Y-44245000D03*
X198750000Y-44245000D03*
X196250000Y-44245000D03*
X193750000Y-44245000D03*
%TD*%
D16*
%TO.C,R41*%
X118250000Y-54750000D03*
X118250000Y-55750000D03*
%TD*%
%TO.C,C3*%
X172250000Y-64500000D03*
X172250000Y-65500000D03*
%TD*%
D46*
%TO.C,U8*%
X182637500Y-48500000D03*
X182637500Y-49000000D03*
X182637500Y-49500000D03*
X182637500Y-50000000D03*
X182637500Y-50500000D03*
X182637500Y-51000000D03*
X182637500Y-51500000D03*
D47*
X183500000Y-52362500D03*
X184000000Y-52362500D03*
X184500000Y-52362500D03*
X185000000Y-52362500D03*
X185500000Y-52362500D03*
X186000000Y-52362500D03*
X186500000Y-52362500D03*
D46*
X187362500Y-51500000D03*
X187362500Y-51000000D03*
X187362500Y-50500000D03*
X187362500Y-50000000D03*
X187362500Y-49500000D03*
X187362500Y-49000000D03*
X187362500Y-48500000D03*
D47*
X186500000Y-47637500D03*
X186000000Y-47637500D03*
X185500000Y-47637500D03*
X185000000Y-47637500D03*
X184500000Y-47637500D03*
X184000000Y-47637500D03*
X183500000Y-47637500D03*
D48*
X185000000Y-50000000D03*
%TD*%
D21*
%TO.C,F6*%
X61000000Y-85450000D03*
X61000000Y-89100000D03*
X61000000Y-93400000D03*
X61000000Y-97050000D03*
%TD*%
D14*
%TO.C,R65*%
X78580000Y-103200000D03*
X77580000Y-103200000D03*
%TD*%
D12*
%TO.C,C34*%
X156350000Y-53050000D03*
X157350000Y-53050000D03*
%TD*%
D49*
%TO.C,D46*%
X66450000Y-82650000D03*
X68550000Y-82650000D03*
%TD*%
D25*
%TO.C,Q23*%
X68695000Y-104050000D03*
X68045000Y-104050000D03*
X67395000Y-104050000D03*
X66745000Y-104050000D03*
X66745000Y-106950000D03*
X67395000Y-106950000D03*
X68045000Y-106950000D03*
X68695000Y-106950000D03*
D26*
X67720000Y-105800000D03*
%TD*%
D23*
%TO.C,C52*%
X152650000Y-55025000D03*
X152650000Y-57975000D03*
%TD*%
D39*
%TO.C,Q18*%
X131550000Y-47525000D03*
X131550000Y-48175000D03*
X131550000Y-48825000D03*
X131550000Y-49475000D03*
X134450000Y-49475000D03*
X134450000Y-48825000D03*
X134450000Y-48175000D03*
X134450000Y-47525000D03*
D40*
X133300000Y-48500000D03*
%TD*%
D16*
%TO.C,R12*%
X142000000Y-96500000D03*
X142000000Y-97500000D03*
%TD*%
D50*
%TO.C,J24*%
X190610000Y-109395000D03*
X196390000Y-109395000D03*
D51*
X190150000Y-108330000D03*
X190950000Y-108330000D03*
X192250000Y-108330000D03*
X193250000Y-108330000D03*
X193750000Y-108330000D03*
X194750000Y-108330000D03*
X196050000Y-108330000D03*
X196850000Y-108330000D03*
X196550000Y-108330000D03*
X195750000Y-108330000D03*
X195250000Y-108330000D03*
X194250000Y-108330000D03*
X192750000Y-108330000D03*
X191750000Y-108330000D03*
X191250000Y-108330000D03*
X190450000Y-108330000D03*
D52*
X189180000Y-108895000D03*
D53*
X189180000Y-113075000D03*
D52*
X197820000Y-108895000D03*
D53*
X197820000Y-113075000D03*
%TD*%
D16*
%TO.C,R13*%
X41250000Y-103900000D03*
X41250000Y-104900000D03*
%TD*%
D14*
%TO.C,R11*%
X86200000Y-103200000D03*
X85200000Y-103200000D03*
%TD*%
%TO.C,D4*%
X151750000Y-62500000D03*
X150750000Y-62500000D03*
%TD*%
D54*
%TO.C,H13*%
X85500000Y-62000000D03*
D55*
X85500000Y-62000000D03*
%TD*%
D14*
%TO.C,D37*%
X148150000Y-77050000D03*
X147150000Y-77050000D03*
%TD*%
%TO.C,R54*%
X119850000Y-103550000D03*
X118850000Y-103550000D03*
%TD*%
D12*
%TO.C,R107*%
X128550000Y-63800000D03*
X129550000Y-63800000D03*
%TD*%
D31*
%TO.C,J2*%
X137250000Y-89500000D03*
X134750000Y-89500000D03*
X132250000Y-89500000D03*
%TD*%
D25*
%TO.C,Q3*%
X140475000Y-50550000D03*
X139825000Y-50550000D03*
X139175000Y-50550000D03*
X138525000Y-50550000D03*
X138525000Y-53450000D03*
X139175000Y-53450000D03*
X139825000Y-53450000D03*
X140475000Y-53450000D03*
D26*
X139500000Y-52300000D03*
%TD*%
D31*
%TO.C,J4*%
X127250000Y-83500000D03*
X124750000Y-83500000D03*
X122250000Y-83500000D03*
%TD*%
D16*
%TO.C,C25*%
X181400000Y-50900000D03*
X181400000Y-51900000D03*
%TD*%
D20*
%TO.C,FID2*%
X197500000Y-41995000D03*
%TD*%
D12*
%TO.C,C29*%
X168850000Y-53050000D03*
X169850000Y-53050000D03*
%TD*%
D21*
%TO.C,F3*%
X56000000Y-85450000D03*
X56000000Y-89100000D03*
X56000000Y-93400000D03*
X56000000Y-97050000D03*
%TD*%
D49*
%TO.C,D48*%
X82450000Y-86750000D03*
X84550000Y-86750000D03*
%TD*%
D14*
%TO.C,R98*%
X149950000Y-60500000D03*
X148950000Y-60500000D03*
%TD*%
D16*
%TO.C,D2*%
X42250000Y-103900000D03*
X42250000Y-104900000D03*
%TD*%
%TO.C,C59*%
X159250000Y-87050000D03*
X159250000Y-88050000D03*
%TD*%
D12*
%TO.C,D40*%
X132150000Y-109550000D03*
X133150000Y-109550000D03*
%TD*%
D14*
%TO.C,R10*%
X118600000Y-83200000D03*
X117600000Y-83200000D03*
%TD*%
D56*
%TO.C,C37*%
X166250000Y-47745000D03*
X166250000Y-46245000D03*
%TD*%
D23*
%TO.C,C67*%
X134150000Y-55025000D03*
X134150000Y-57975000D03*
%TD*%
D31*
%TO.C,J17*%
X113250000Y-111500000D03*
X115750000Y-111500000D03*
%TD*%
D57*
%TO.C,C13*%
X100000000Y-74500000D03*
D58*
X100000000Y-79500000D03*
%TD*%
D16*
%TO.C,C45*%
X138000000Y-56950000D03*
X138000000Y-57950000D03*
%TD*%
%TO.C,R49*%
X93600000Y-113400000D03*
X93600000Y-114400000D03*
%TD*%
%TO.C,C20*%
X193900000Y-50895000D03*
X193900000Y-51895000D03*
%TD*%
D12*
%TO.C,C88*%
X69300000Y-83050000D03*
X70300000Y-83050000D03*
%TD*%
D59*
%TO.C,J21*%
X56095000Y-111500000D03*
X60000000Y-111500000D03*
%TD*%
D57*
%TO.C,C14*%
X87000000Y-74500000D03*
D58*
X87000000Y-79500000D03*
%TD*%
D14*
%TO.C,R19*%
X170500000Y-62950000D03*
X169500000Y-62950000D03*
%TD*%
D29*
%TO.C,J42*%
X172200000Y-62750000D03*
X174740000Y-62750000D03*
X177280000Y-62750000D03*
X179820000Y-62750000D03*
X182360000Y-62750000D03*
X184900000Y-62750000D03*
%TD*%
D14*
%TO.C,R119*%
X133250000Y-61500000D03*
X132250000Y-61500000D03*
%TD*%
D16*
%TO.C,R73*%
X119200000Y-95500000D03*
X119200000Y-96500000D03*
%TD*%
%TO.C,R86*%
X191250000Y-106000000D03*
X191250000Y-107000000D03*
%TD*%
D60*
%TO.C,R36*%
X154750000Y-50287500D03*
X154750000Y-53212500D03*
%TD*%
D16*
%TO.C,R38*%
X155250000Y-54700000D03*
X155250000Y-55700000D03*
%TD*%
D31*
%TO.C,J34*%
X124750000Y-99500000D03*
X127250000Y-99500000D03*
%TD*%
D13*
%TO.C,C57*%
X119500000Y-59750000D03*
X119500000Y-58750000D03*
%TD*%
D12*
%TO.C,C83*%
X163350000Y-62950000D03*
X164350000Y-62950000D03*
%TD*%
D32*
%TO.C,H2*%
X43000000Y-112000000D03*
%TD*%
D35*
%TO.C,Q30*%
X121200000Y-105062500D03*
X119300000Y-105062500D03*
X120250000Y-106937500D03*
%TD*%
D31*
%TO.C,J39*%
X136250000Y-105500000D03*
X138750000Y-105500000D03*
%TD*%
D61*
%TO.C,U1*%
X149837500Y-66250000D03*
X149837500Y-66750000D03*
X149837500Y-67250000D03*
X149837500Y-67750000D03*
X149837500Y-68250000D03*
X149837500Y-68750000D03*
X149837500Y-69250000D03*
X149837500Y-69750000D03*
X149837500Y-70250000D03*
X149837500Y-70750000D03*
X149837500Y-71250000D03*
X149837500Y-71750000D03*
X149837500Y-72250000D03*
X149837500Y-72750000D03*
X149837500Y-73250000D03*
X149837500Y-73750000D03*
X149837500Y-74250000D03*
X149837500Y-74750000D03*
X149837500Y-75250000D03*
X149837500Y-75750000D03*
X149837500Y-76250000D03*
X149837500Y-76750000D03*
X149837500Y-77250000D03*
X149837500Y-77750000D03*
X149837500Y-78250000D03*
X149837500Y-78750000D03*
X149837500Y-79250000D03*
X149837500Y-79750000D03*
X149837500Y-80250000D03*
X149837500Y-80750000D03*
X149837500Y-81250000D03*
X149837500Y-81750000D03*
X149837500Y-82250000D03*
X149837500Y-82750000D03*
X149837500Y-83250000D03*
X149837500Y-83750000D03*
D62*
X151750000Y-85662500D03*
X152250000Y-85662500D03*
X152750000Y-85662500D03*
X153250000Y-85662500D03*
X153750000Y-85662500D03*
X154250000Y-85662500D03*
X154750000Y-85662500D03*
X155250000Y-85662500D03*
X155750000Y-85662500D03*
X156250000Y-85662500D03*
X156750000Y-85662500D03*
X157250000Y-85662500D03*
X157750000Y-85662500D03*
X158250000Y-85662500D03*
X158750000Y-85662500D03*
X159250000Y-85662500D03*
X159750000Y-85662500D03*
X160250000Y-85662500D03*
X160750000Y-85662500D03*
X161250000Y-85662500D03*
X161750000Y-85662500D03*
X162250000Y-85662500D03*
X162750000Y-85662500D03*
X163250000Y-85662500D03*
X163750000Y-85662500D03*
X164250000Y-85662500D03*
X164750000Y-85662500D03*
X165250000Y-85662500D03*
X165750000Y-85662500D03*
X166250000Y-85662500D03*
X166750000Y-85662500D03*
X167250000Y-85662500D03*
X167750000Y-85662500D03*
X168250000Y-85662500D03*
X168750000Y-85662500D03*
X169250000Y-85662500D03*
D61*
X171162500Y-83750000D03*
X171162500Y-83250000D03*
X171162500Y-82750000D03*
X171162500Y-82250000D03*
X171162500Y-81750000D03*
X171162500Y-81250000D03*
X171162500Y-80750000D03*
X171162500Y-80250000D03*
X171162500Y-79750000D03*
X171162500Y-79250000D03*
X171162500Y-78750000D03*
X171162500Y-78250000D03*
X171162500Y-77750000D03*
X171162500Y-77250000D03*
X171162500Y-76750000D03*
X171162500Y-76250000D03*
X171162500Y-75750000D03*
X171162500Y-75250000D03*
X171162500Y-74750000D03*
X171162500Y-74250000D03*
X171162500Y-73750000D03*
X171162500Y-73250000D03*
X171162500Y-72750000D03*
X171162500Y-72250000D03*
X171162500Y-71750000D03*
X171162500Y-71250000D03*
X171162500Y-70750000D03*
X171162500Y-70250000D03*
X171162500Y-69750000D03*
X171162500Y-69250000D03*
X171162500Y-68750000D03*
X171162500Y-68250000D03*
X171162500Y-67750000D03*
X171162500Y-67250000D03*
X171162500Y-66750000D03*
X171162500Y-66250000D03*
D62*
X169250000Y-64337500D03*
X168750000Y-64337500D03*
X168250000Y-64337500D03*
X167750000Y-64337500D03*
X167250000Y-64337500D03*
X166750000Y-64337500D03*
X166250000Y-64337500D03*
X165750000Y-64337500D03*
X165250000Y-64337500D03*
X164750000Y-64337500D03*
X164250000Y-64337500D03*
X163750000Y-64337500D03*
X163250000Y-64337500D03*
X162750000Y-64337500D03*
X162250000Y-64337500D03*
X161750000Y-64337500D03*
X161250000Y-64337500D03*
X160750000Y-64337500D03*
X160250000Y-64337500D03*
X159750000Y-64337500D03*
X159250000Y-64337500D03*
X158750000Y-64337500D03*
X158250000Y-64337500D03*
X157750000Y-64337500D03*
X157250000Y-64337500D03*
X156750000Y-64337500D03*
X156250000Y-64337500D03*
X155750000Y-64337500D03*
X155250000Y-64337500D03*
X154750000Y-64337500D03*
X154250000Y-64337500D03*
X153750000Y-64337500D03*
X153250000Y-64337500D03*
X152750000Y-64337500D03*
X152250000Y-64337500D03*
X151750000Y-64337500D03*
%TD*%
D31*
%TO.C,J33*%
X124750000Y-105500000D03*
X127250000Y-105500000D03*
%TD*%
D12*
%TO.C,D35*%
X120650000Y-97550000D03*
X121650000Y-97550000D03*
%TD*%
D31*
%TO.C,J16*%
X96750000Y-105500000D03*
X99250000Y-105500000D03*
X101750000Y-105500000D03*
X104250000Y-105500000D03*
%TD*%
D23*
%TO.C,C73*%
X53000000Y-42025000D03*
X53000000Y-44975000D03*
%TD*%
D31*
%TO.C,J8*%
X124750000Y-70500000D03*
X122250000Y-70500000D03*
%TD*%
D63*
%TO.C,L2*%
X91250000Y-89000000D03*
X100250000Y-89000000D03*
%TD*%
D14*
%TO.C,R78*%
X197000000Y-86500000D03*
X196000000Y-86500000D03*
%TD*%
D64*
%TO.C,Y2*%
X196350000Y-106600000D03*
X196350000Y-104400000D03*
X194650000Y-104400000D03*
X194650000Y-106600000D03*
%TD*%
D12*
%TO.C,C79*%
X170050000Y-85650000D03*
X171050000Y-85650000D03*
%TD*%
D16*
%TO.C,R31*%
X93600000Y-107400000D03*
X93600000Y-108400000D03*
%TD*%
D46*
%TO.C,U9*%
X170137500Y-48500000D03*
X170137500Y-49000000D03*
X170137500Y-49500000D03*
X170137500Y-50000000D03*
X170137500Y-50500000D03*
X170137500Y-51000000D03*
X170137500Y-51500000D03*
D47*
X171000000Y-52362500D03*
X171500000Y-52362500D03*
X172000000Y-52362500D03*
X172500000Y-52362500D03*
X173000000Y-52362500D03*
X173500000Y-52362500D03*
X174000000Y-52362500D03*
D46*
X174862500Y-51500000D03*
X174862500Y-51000000D03*
X174862500Y-50500000D03*
X174862500Y-50000000D03*
X174862500Y-49500000D03*
X174862500Y-49000000D03*
X174862500Y-48500000D03*
D47*
X174000000Y-47637500D03*
X173500000Y-47637500D03*
X173000000Y-47637500D03*
X172500000Y-47637500D03*
X172000000Y-47637500D03*
X171500000Y-47637500D03*
X171000000Y-47637500D03*
D48*
X172500000Y-50000000D03*
%TD*%
D12*
%TO.C,C7*%
X126900000Y-79475000D03*
X127900000Y-79475000D03*
%TD*%
D31*
%TO.C,J18*%
X113250000Y-105500000D03*
X115750000Y-105500000D03*
%TD*%
D27*
%TO.C,R29*%
X164000000Y-46092500D03*
X164000000Y-47917500D03*
%TD*%
D12*
%TO.C,R16*%
X128700000Y-79475000D03*
X129700000Y-79475000D03*
%TD*%
D35*
%TO.C,Q22*%
X109700000Y-111062500D03*
X107800000Y-111062500D03*
X108750000Y-112937500D03*
%TD*%
D12*
%TO.C,D33*%
X120650000Y-109550000D03*
X121650000Y-109550000D03*
%TD*%
D13*
%TO.C,C82*%
X171250000Y-65500000D03*
X171250000Y-64500000D03*
%TD*%
%TO.C,C63*%
X120750000Y-55750000D03*
X120750000Y-54750000D03*
%TD*%
%TO.C,R46*%
X135750000Y-57550000D03*
X135750000Y-56550000D03*
%TD*%
D14*
%TO.C,R47*%
X108350000Y-103550000D03*
X107350000Y-103550000D03*
%TD*%
D65*
%TO.C,U5*%
X84637500Y-90225000D03*
X84637500Y-89575000D03*
X84637500Y-88925000D03*
X84637500Y-88275000D03*
X82362500Y-88275000D03*
X82362500Y-88925000D03*
X82362500Y-89575000D03*
X82362500Y-90225000D03*
%TD*%
D14*
%TO.C,C38*%
X168700000Y-62950000D03*
X167700000Y-62950000D03*
%TD*%
D16*
%TO.C,C109*%
X130500000Y-101250000D03*
X130500000Y-102250000D03*
%TD*%
D12*
%TO.C,C6*%
X119700000Y-79475000D03*
X120700000Y-79475000D03*
%TD*%
D14*
%TO.C,R22*%
X202150000Y-49195000D03*
X201150000Y-49195000D03*
%TD*%
%TO.C,R94*%
X83200000Y-91500000D03*
X82200000Y-91500000D03*
%TD*%
D16*
%TO.C,R32*%
X138000000Y-60550000D03*
X138000000Y-61550000D03*
%TD*%
D14*
%TO.C,R80*%
X197000000Y-95000000D03*
X196000000Y-95000000D03*
%TD*%
%TO.C,R79*%
X197000000Y-96000000D03*
X196000000Y-96000000D03*
%TD*%
D12*
%TO.C,D49*%
X142400000Y-90800000D03*
X143400000Y-90800000D03*
%TD*%
D60*
%TO.C,R44*%
X136250000Y-50287500D03*
X136250000Y-53212500D03*
%TD*%
D12*
%TO.C,D6*%
X140600000Y-86700000D03*
X141600000Y-86700000D03*
%TD*%
D16*
%TO.C,C102*%
X107500000Y-107250000D03*
X107500000Y-108250000D03*
%TD*%
D37*
%TO.C,Q1*%
X47525000Y-106950000D03*
X48175000Y-106950000D03*
X48825000Y-106950000D03*
X49475000Y-106950000D03*
X49475000Y-104050000D03*
X48825000Y-104050000D03*
X48175000Y-104050000D03*
X47525000Y-104050000D03*
D38*
X48500000Y-105200000D03*
%TD*%
D16*
%TO.C,C106*%
X119000000Y-101249999D03*
X119000000Y-102249999D03*
%TD*%
%TO.C,R71*%
X121200001Y-95500000D03*
X121200001Y-96500000D03*
%TD*%
D46*
%TO.C,U7*%
X195137500Y-48495000D03*
X195137500Y-48995000D03*
X195137500Y-49495000D03*
X195137500Y-49995000D03*
X195137500Y-50495000D03*
X195137500Y-50995000D03*
X195137500Y-51495000D03*
D47*
X196000000Y-52357500D03*
X196500000Y-52357500D03*
X197000000Y-52357500D03*
X197500000Y-52357500D03*
X198000000Y-52357500D03*
X198500000Y-52357500D03*
X199000000Y-52357500D03*
D46*
X199862500Y-51495000D03*
X199862500Y-50995000D03*
X199862500Y-50495000D03*
X199862500Y-49995000D03*
X199862500Y-49495000D03*
X199862500Y-48995000D03*
X199862500Y-48495000D03*
D47*
X199000000Y-47632500D03*
X198500000Y-47632500D03*
X198000000Y-47632500D03*
X197500000Y-47632500D03*
X197000000Y-47632500D03*
X196500000Y-47632500D03*
X196000000Y-47632500D03*
D48*
X197500000Y-49995000D03*
%TD*%
D56*
%TO.C,FB1*%
X149550000Y-86300000D03*
X149550000Y-84800000D03*
%TD*%
D13*
%TO.C,C65*%
X130250000Y-55750000D03*
X130250000Y-54750000D03*
%TD*%
%TO.C,C94*%
X85500000Y-87250000D03*
X85500000Y-86250000D03*
%TD*%
D14*
%TO.C,C77*%
X133300000Y-79475000D03*
X132300000Y-79475000D03*
%TD*%
D57*
%TO.C,C16*%
X74000000Y-74500000D03*
D58*
X74000000Y-79500000D03*
%TD*%
D12*
%TO.C,D16*%
X132150000Y-103550000D03*
X133150000Y-103550000D03*
%TD*%
D14*
%TO.C,C89*%
X65700000Y-83050000D03*
X64700000Y-83050000D03*
%TD*%
D66*
%TO.C,C44*%
X147846447Y-72496447D03*
X148553553Y-73203553D03*
%TD*%
D12*
%TO.C,R5*%
X196750000Y-66500000D03*
X197750000Y-66500000D03*
%TD*%
D16*
%TO.C,C26*%
X181400000Y-49100000D03*
X181400000Y-50100000D03*
%TD*%
D32*
%TO.C,H1*%
X43000000Y-43000000D03*
%TD*%
D39*
%TO.C,Q10*%
X150050000Y-47525000D03*
X150050000Y-48175000D03*
X150050000Y-48825000D03*
X150050000Y-49475000D03*
X152950000Y-49475000D03*
X152950000Y-48825000D03*
X152950000Y-48175000D03*
X152950000Y-47525000D03*
D40*
X151800000Y-48500000D03*
%TD*%
D65*
%TO.C,U15*%
X68387500Y-86225000D03*
X68387500Y-85575000D03*
X68387500Y-84925000D03*
X68387500Y-84275000D03*
X66112500Y-84275000D03*
X66112500Y-84925000D03*
X66112500Y-85575000D03*
X66112500Y-86225000D03*
%TD*%
D67*
%TO.C,D27*%
X72490000Y-106800000D03*
X72490000Y-103500000D03*
%TD*%
D39*
%TO.C,Q7*%
X138050000Y-47525000D03*
X138050000Y-48175000D03*
X138050000Y-48825000D03*
X138050000Y-49475000D03*
X140950000Y-49475000D03*
X140950000Y-48825000D03*
X140950000Y-48175000D03*
X140950000Y-47525000D03*
D40*
X139800000Y-48500000D03*
%TD*%
D16*
%TO.C,C108*%
X130500000Y-107250000D03*
X130500000Y-108250000D03*
%TD*%
D39*
%TO.C,Q16*%
X123550000Y-47525000D03*
X123550000Y-48175000D03*
X123550000Y-48825000D03*
X123550000Y-49475000D03*
X126450000Y-49475000D03*
X126450000Y-48825000D03*
X126450000Y-48175000D03*
X126450000Y-47525000D03*
D40*
X125300000Y-48500000D03*
%TD*%
D12*
%TO.C,D17*%
X132150000Y-97550000D03*
X133150000Y-97550000D03*
%TD*%
D16*
%TO.C,C53*%
X150750000Y-85600000D03*
X150750000Y-86600000D03*
%TD*%
D20*
%TO.C,J27*%
X198200000Y-93400000D03*
X198200000Y-94800000D03*
X198200000Y-96200000D03*
X198200000Y-97600000D03*
D21*
X200800000Y-98200000D03*
D22*
X203800000Y-95510000D03*
D21*
X200800000Y-92800000D03*
%TD*%
D25*
%TO.C,Q20*%
X91555000Y-104050000D03*
X90905000Y-104050000D03*
X90255000Y-104050000D03*
X89605000Y-104050000D03*
X89605000Y-106950000D03*
X90255000Y-106950000D03*
X90905000Y-106950000D03*
X91555000Y-106950000D03*
D26*
X90580000Y-105800000D03*
%TD*%
D16*
%TO.C,R45*%
X117250000Y-54750000D03*
X117250000Y-55750000D03*
%TD*%
D14*
%TO.C,C56*%
X131450000Y-61500000D03*
X130450000Y-61500000D03*
%TD*%
D13*
%TO.C,C48*%
X139250000Y-55750000D03*
X139250000Y-54750000D03*
%TD*%
D35*
%TO.C,Q21*%
X132700000Y-105062500D03*
X130800000Y-105062500D03*
X131750000Y-106937500D03*
%TD*%
D14*
%TO.C,C54*%
X133250000Y-59500000D03*
X132250000Y-59500000D03*
%TD*%
D60*
%TO.C,R43*%
X117750000Y-50287500D03*
X117750000Y-53212500D03*
%TD*%
D14*
%TO.C,R25*%
X131350000Y-103550000D03*
X130350000Y-103550000D03*
%TD*%
D12*
%TO.C,D34*%
X120650000Y-103550000D03*
X121650000Y-103550000D03*
%TD*%
D23*
%TO.C,C87*%
X67600000Y-95825000D03*
X67600000Y-98775000D03*
%TD*%
D68*
%TO.C,Y1*%
X145650000Y-71000000D03*
X143450000Y-71000000D03*
X143450000Y-72700000D03*
X145650000Y-72700000D03*
%TD*%
D16*
%TO.C,R66*%
X80100000Y-97150000D03*
X80100000Y-98150000D03*
%TD*%
D14*
%TO.C,R105*%
X164650000Y-50200000D03*
X163650000Y-50200000D03*
%TD*%
D54*
%TO.C,H8*%
X81500000Y-43000000D03*
D55*
X81500000Y-43000000D03*
%TD*%
D16*
%TO.C,C80*%
X172600000Y-78000000D03*
X172600000Y-79000000D03*
%TD*%
D69*
%TO.C,F5*%
X103200000Y-68500000D03*
X106850000Y-68500000D03*
X111150000Y-68500000D03*
X114800000Y-68500000D03*
%TD*%
D12*
%TO.C,C93*%
X194200000Y-103000000D03*
X195200000Y-103000000D03*
%TD*%
D69*
%TO.C,F1*%
X56200000Y-68500000D03*
X59850000Y-68500000D03*
X64150000Y-68500000D03*
X67800000Y-68500000D03*
%TD*%
D16*
%TO.C,R34*%
X154250000Y-54700000D03*
X154250000Y-55700000D03*
%TD*%
D59*
%TO.C,J23*%
X78955000Y-111500000D03*
X82860000Y-111500000D03*
%TD*%
D43*
%TO.C,Q35*%
X68700000Y-93975000D03*
X68700000Y-93325000D03*
X68700000Y-92675000D03*
X68700000Y-92025000D03*
X65800000Y-92025000D03*
X65800000Y-92675000D03*
X65800000Y-93325000D03*
X65800000Y-93975000D03*
D44*
X66950000Y-93000000D03*
%TD*%
D57*
%TO.C,C12*%
X113000000Y-74500000D03*
D58*
X113000000Y-79500000D03*
%TD*%
D13*
%TO.C,C2*%
X143600000Y-74850000D03*
X143600000Y-73850000D03*
%TD*%
D25*
%TO.C,Q24*%
X61075000Y-104050000D03*
X60425000Y-104050000D03*
X59775000Y-104050000D03*
X59125000Y-104050000D03*
X59125000Y-106950000D03*
X59775000Y-106950000D03*
X60425000Y-106950000D03*
X61075000Y-106950000D03*
D26*
X60100000Y-105800000D03*
%TD*%
D31*
%TO.C,J6*%
X127250000Y-89500000D03*
X124750000Y-89500000D03*
X122250000Y-89500000D03*
%TD*%
D12*
%TO.C,D8*%
X140600000Y-90800000D03*
X141600000Y-90800000D03*
%TD*%
D14*
%TO.C,R99*%
X131450000Y-60500000D03*
X130450000Y-60500000D03*
%TD*%
D16*
%TO.C,R109*%
X140400000Y-83900000D03*
X140400000Y-84900000D03*
%TD*%
D14*
%TO.C,R51*%
X131500000Y-79475000D03*
X130500000Y-79475000D03*
%TD*%
D39*
%TO.C,Q8*%
X142050000Y-47525000D03*
X142050000Y-48175000D03*
X142050000Y-48825000D03*
X142050000Y-49475000D03*
X144950000Y-49475000D03*
X144950000Y-48825000D03*
X144950000Y-48175000D03*
X144950000Y-47525000D03*
D40*
X143800000Y-48500000D03*
%TD*%
D14*
%TO.C,D21*%
X202150000Y-52195000D03*
X201150000Y-52195000D03*
%TD*%
%TO.C,R48*%
X108350000Y-97550000D03*
X107350000Y-97550000D03*
%TD*%
D16*
%TO.C,R62*%
X81100000Y-99050000D03*
X81100000Y-100050000D03*
%TD*%
D27*
%TO.C,R20*%
X201500000Y-46087500D03*
X201500000Y-47912500D03*
%TD*%
D13*
%TO.C,C49*%
X147750000Y-55750000D03*
X147750000Y-54750000D03*
%TD*%
D16*
%TO.C,R60*%
X80100000Y-99050000D03*
X80100000Y-100050000D03*
%TD*%
%TO.C,R69*%
X193250000Y-106000000D03*
X193250000Y-107000000D03*
%TD*%
D67*
%TO.C,D30*%
X80110000Y-106800000D03*
X80110000Y-103500000D03*
%TD*%
D12*
%TO.C,R106*%
X147050000Y-63800000D03*
X148050000Y-63800000D03*
%TD*%
D13*
%TO.C,R64*%
X80100000Y-96050000D03*
X80100000Y-95050000D03*
%TD*%
D12*
%TO.C,D1*%
X155550000Y-58300000D03*
X156550000Y-58300000D03*
%TD*%
D14*
%TO.C,R63*%
X70960000Y-103200000D03*
X69960000Y-103200000D03*
%TD*%
D70*
%TO.C,C91*%
X86375000Y-92710000D03*
X89325000Y-92710000D03*
%TD*%
D25*
%TO.C,Q5*%
X148475000Y-50550000D03*
X147825000Y-50550000D03*
X147175000Y-50550000D03*
X146525000Y-50550000D03*
X146525000Y-53450000D03*
X147175000Y-53450000D03*
X147825000Y-53450000D03*
X148475000Y-53450000D03*
D26*
X147500000Y-52300000D03*
%TD*%
D20*
%TO.C,J26*%
X198200000Y-84900000D03*
X198200000Y-86300000D03*
X198200000Y-87700000D03*
X198200000Y-89100000D03*
D21*
X200800000Y-89700000D03*
D22*
X203800000Y-87010000D03*
D21*
X200800000Y-84300000D03*
%TD*%
D12*
%TO.C,C40*%
X148950000Y-59500000D03*
X149950000Y-59500000D03*
%TD*%
D14*
%TO.C,D24*%
X164650000Y-52200000D03*
X163650000Y-52200000D03*
%TD*%
D31*
%TO.C,J19*%
X113250000Y-99500000D03*
X115750000Y-99500000D03*
%TD*%
D16*
%TO.C,C103*%
X107500000Y-101250000D03*
X107500000Y-102250000D03*
%TD*%
D29*
%TO.C,J25*%
X86220000Y-98110000D03*
X88760000Y-98110000D03*
X91300000Y-98110000D03*
X93840000Y-98110000D03*
X96380000Y-98110000D03*
X98920000Y-98110000D03*
X101460000Y-98110000D03*
X104000000Y-98110000D03*
%TD*%
D12*
%TO.C,C23*%
X188650000Y-51200000D03*
X189650000Y-51200000D03*
%TD*%
D42*
%TO.C,C22*%
X191250000Y-49050000D03*
X191250000Y-50550000D03*
%TD*%
D12*
%TO.C,C33*%
X163650000Y-51200000D03*
X164650000Y-51200000D03*
%TD*%
D14*
%TO.C,R58*%
X131350000Y-109550000D03*
X130350000Y-109550000D03*
%TD*%
D59*
%TO.C,J22*%
X71335000Y-111500000D03*
X75240000Y-111500000D03*
%TD*%
D14*
%TO.C,D22*%
X189650000Y-52200000D03*
X188650000Y-52200000D03*
%TD*%
D59*
%TO.C,J20*%
X63715000Y-111500000D03*
X67620000Y-111500000D03*
%TD*%
D14*
%TO.C,C39*%
X151750000Y-59500000D03*
X150750000Y-59500000D03*
%TD*%
D71*
%TO.C,U14*%
X70055000Y-100750000D03*
X71325000Y-100750000D03*
X72595000Y-100750000D03*
X73865000Y-100750000D03*
X75135000Y-100750000D03*
X76405000Y-100750000D03*
X77675000Y-100750000D03*
X78945000Y-100750000D03*
X78945000Y-95750000D03*
X77675000Y-95750000D03*
X76405000Y-95750000D03*
X75135000Y-95750000D03*
X73865000Y-95750000D03*
X72595000Y-95750000D03*
X71325000Y-95750000D03*
X70055000Y-95750000D03*
%TD*%
D39*
%TO.C,Q34*%
X64800000Y-88025000D03*
X64800000Y-88675000D03*
X64800000Y-89325000D03*
X64800000Y-89975000D03*
X67700000Y-89975000D03*
X67700000Y-89325000D03*
X67700000Y-88675000D03*
X67700000Y-88025000D03*
D40*
X66550000Y-89000000D03*
%TD*%
D23*
%TO.C,C68*%
X50500000Y-47025000D03*
X50500000Y-49975000D03*
%TD*%
D59*
%TO.C,J15*%
X86575000Y-111500000D03*
X90480000Y-111500000D03*
%TD*%
D12*
%TO.C,R4*%
X196750000Y-67500000D03*
X197750000Y-67500000D03*
%TD*%
D32*
%TO.C,H4*%
X202000000Y-112000000D03*
%TD*%
D12*
%TO.C,R96*%
X142400000Y-91700000D03*
X143400000Y-91700000D03*
%TD*%
D69*
%TO.C,F4*%
X87700000Y-68500000D03*
X91350000Y-68500000D03*
X95650000Y-68500000D03*
X99300000Y-68500000D03*
%TD*%
D31*
%TO.C,J9*%
X139750000Y-70500000D03*
X137250000Y-70500000D03*
%TD*%
D56*
%TO.C,C32*%
X178750000Y-47750000D03*
X178750000Y-46250000D03*
%TD*%
D27*
%TO.C,R21*%
X193500000Y-46087500D03*
X193500000Y-47912500D03*
%TD*%
D39*
%TO.C,Q36*%
X86050000Y-88525000D03*
X86050000Y-89175000D03*
X86050000Y-89825000D03*
X86050000Y-90475000D03*
X88950000Y-90475000D03*
X88950000Y-89825000D03*
X88950000Y-89175000D03*
X88950000Y-88525000D03*
D40*
X87800000Y-89500000D03*
%TD*%
D23*
%TO.C,C70*%
X85500000Y-51025000D03*
X85500000Y-53975000D03*
%TD*%
D14*
%TO.C,R18*%
X124300000Y-79475000D03*
X123300000Y-79475000D03*
%TD*%
%TO.C,R1*%
X155950000Y-62600000D03*
X154950000Y-62600000D03*
%TD*%
D12*
%TO.C,C4*%
X170050000Y-86650000D03*
X171050000Y-86650000D03*
%TD*%
D25*
%TO.C,Q13*%
X129975000Y-50550000D03*
X129325000Y-50550000D03*
X128675000Y-50550000D03*
X128025000Y-50550000D03*
X128025000Y-53450000D03*
X128675000Y-53450000D03*
X129325000Y-53450000D03*
X129975000Y-53450000D03*
D26*
X129000000Y-52300000D03*
%TD*%
D13*
%TO.C,R92*%
X64750000Y-85000000D03*
X64750000Y-84000000D03*
%TD*%
D25*
%TO.C,Q12*%
X125975000Y-50550000D03*
X125325000Y-50550000D03*
X124675000Y-50550000D03*
X124025000Y-50550000D03*
X124025000Y-53450000D03*
X124675000Y-53450000D03*
X125325000Y-53450000D03*
X125975000Y-53450000D03*
D26*
X125000000Y-52300000D03*
%TD*%
D20*
%TO.C,FID1*%
X47500000Y-53250000D03*
%TD*%
D63*
%TO.C,L1*%
X70250000Y-89000000D03*
X79250000Y-89000000D03*
%TD*%
D72*
%TO.C,C61*%
X163903553Y-87046447D03*
X163196447Y-87753553D03*
%TD*%
D13*
%TO.C,R53*%
X45250000Y-109350000D03*
X45250000Y-108350000D03*
%TD*%
D29*
%TO.C,J29*%
X86220000Y-100650000D03*
X88760000Y-100650000D03*
X91300000Y-100650000D03*
X93840000Y-100650000D03*
X96380000Y-100650000D03*
X98920000Y-100650000D03*
X101460000Y-100650000D03*
X104000000Y-100650000D03*
%TD*%
D12*
%TO.C,R104*%
X140600000Y-91700000D03*
X141600000Y-91700000D03*
%TD*%
D29*
%TO.C,J41*%
X149640000Y-88250000D03*
X152180000Y-88250000D03*
X154720000Y-88250000D03*
X157260000Y-88250000D03*
%TD*%
D16*
%TO.C,R33*%
X136750000Y-54750000D03*
X136750000Y-55750000D03*
%TD*%
D12*
%TO.C,R2*%
X153150000Y-62600000D03*
X154150000Y-62600000D03*
%TD*%
D16*
%TO.C,R74*%
X132750000Y-95500000D03*
X132750000Y-96500000D03*
%TD*%
D67*
%TO.C,D3*%
X87730000Y-106800000D03*
X87730000Y-103500000D03*
%TD*%
D31*
%TO.C,J35*%
X136250000Y-111500000D03*
X138750000Y-111500000D03*
%TD*%
D14*
%TO.C,D20*%
X131450000Y-62500000D03*
X130450000Y-62500000D03*
%TD*%
D16*
%TO.C,R72*%
X120200000Y-95500000D03*
X120200000Y-96500000D03*
%TD*%
%TO.C,R8*%
X46250000Y-47000000D03*
X46250000Y-48000000D03*
%TD*%
D14*
%TO.C,R56*%
X138700000Y-79475000D03*
X137700000Y-79475000D03*
%TD*%
D39*
%TO.C,Q17*%
X127550000Y-47525000D03*
X127550000Y-48175000D03*
X127550000Y-48825000D03*
X127550000Y-49475000D03*
X130450000Y-49475000D03*
X130450000Y-48825000D03*
X130450000Y-48175000D03*
X130450000Y-47525000D03*
D40*
X129300000Y-48500000D03*
%TD*%
D46*
%TO.C,U10*%
X157637500Y-48500000D03*
X157637500Y-49000000D03*
X157637500Y-49500000D03*
X157637500Y-50000000D03*
X157637500Y-50500000D03*
X157637500Y-51000000D03*
X157637500Y-51500000D03*
D47*
X158500000Y-52362500D03*
X159000000Y-52362500D03*
X159500000Y-52362500D03*
X160000000Y-52362500D03*
X160500000Y-52362500D03*
X161000000Y-52362500D03*
X161500000Y-52362500D03*
D46*
X162362500Y-51500000D03*
X162362500Y-51000000D03*
X162362500Y-50500000D03*
X162362500Y-50000000D03*
X162362500Y-49500000D03*
X162362500Y-49000000D03*
X162362500Y-48500000D03*
D47*
X161500000Y-47637500D03*
X161000000Y-47637500D03*
X160500000Y-47637500D03*
X160000000Y-47637500D03*
X159500000Y-47637500D03*
X159000000Y-47637500D03*
X158500000Y-47637500D03*
D48*
X160000000Y-50000000D03*
%TD*%
D16*
%TO.C,C60*%
X119500000Y-56950000D03*
X119500000Y-57950000D03*
%TD*%
%TO.C,R87*%
X190250000Y-106000000D03*
X190250000Y-107000000D03*
%TD*%
%TO.C,R70*%
X192250000Y-106000000D03*
X192250000Y-107000000D03*
%TD*%
D12*
%TO.C,C28*%
X176150000Y-51200000D03*
X177150000Y-51200000D03*
%TD*%
D14*
%TO.C,R102*%
X177150000Y-50200000D03*
X176150000Y-50200000D03*
%TD*%
D12*
%TO.C,R88*%
X140000000Y-96500000D03*
X141000000Y-96500000D03*
%TD*%
D16*
%TO.C,R68*%
X110150000Y-95550000D03*
X110150000Y-96550000D03*
%TD*%
%TO.C,C104*%
X119000000Y-113250000D03*
X119000000Y-114250000D03*
%TD*%
D13*
%TO.C,C64*%
X129250000Y-55750000D03*
X129250000Y-54750000D03*
%TD*%
D14*
%TO.C,R76*%
X197000000Y-78000000D03*
X196000000Y-78000000D03*
%TD*%
%TO.C,R89*%
X131350000Y-97550000D03*
X130350000Y-97550000D03*
%TD*%
D16*
%TO.C,C105*%
X119000000Y-107250000D03*
X119000000Y-108250000D03*
%TD*%
D39*
%TO.C,Q15*%
X119550000Y-47525000D03*
X119550000Y-48175000D03*
X119550000Y-48825000D03*
X119550000Y-49475000D03*
X122450000Y-49475000D03*
X122450000Y-48825000D03*
X122450000Y-48175000D03*
X122450000Y-47525000D03*
D40*
X121300000Y-48500000D03*
%TD*%
D30*
%TO.C,J31*%
X52000000Y-56250000D03*
X52000000Y-64750000D03*
%TD*%
D54*
%TO.C,H6*%
X113500000Y-43000000D03*
D55*
X113500000Y-43000000D03*
%TD*%
D14*
%TO.C,R39*%
X108350000Y-109550000D03*
X107350000Y-109550000D03*
%TD*%
D12*
%TO.C,D18*%
X50250000Y-111900000D03*
X51250000Y-111900000D03*
%TD*%
D14*
%TO.C,D13*%
X133250000Y-62500000D03*
X132250000Y-62500000D03*
%TD*%
D33*
%TO.C,J28*%
X186000000Y-69920000D03*
D34*
X188540000Y-69920000D03*
X186000000Y-72460000D03*
X188540000Y-72460000D03*
X186000000Y-75000000D03*
X188540000Y-75000000D03*
X186000000Y-77540000D03*
X188540000Y-77540000D03*
X186000000Y-80080000D03*
X188540000Y-80080000D03*
%TD*%
D23*
%TO.C,C86*%
X65300000Y-95825000D03*
X65300000Y-98775000D03*
%TD*%
D14*
%TO.C,R100*%
X189650000Y-50200000D03*
X188650000Y-50200000D03*
%TD*%
D20*
%TO.C,J3*%
X198200000Y-76400000D03*
X198200000Y-77800000D03*
X198200000Y-79200000D03*
X198200000Y-80600000D03*
D21*
X200800000Y-81200000D03*
D22*
X203800000Y-78510000D03*
D21*
X200800000Y-75800000D03*
%TD*%
D12*
%TO.C,R95*%
X84000000Y-91500000D03*
X85000000Y-91500000D03*
%TD*%
D31*
%TO.C,J5*%
X137250000Y-83500000D03*
X134750000Y-83500000D03*
X132250000Y-83500000D03*
%TD*%
D12*
%TO.C,C8*%
X134100000Y-79475000D03*
X135100000Y-79475000D03*
%TD*%
D54*
%TO.C,H7*%
X57500000Y-43000000D03*
D55*
X57500000Y-43000000D03*
%TD*%
D31*
%TO.C,J12*%
X139750000Y-76500000D03*
X137250000Y-76500000D03*
%TD*%
D23*
%TO.C,C75*%
X50500000Y-42025000D03*
X50500000Y-44975000D03*
%TD*%
D12*
%TO.C,C55*%
X130450000Y-59500000D03*
X131450000Y-59500000D03*
%TD*%
D73*
%TO.C,C92*%
X84975000Y-84750000D03*
X82025000Y-84750000D03*
%TD*%
D14*
%TO.C,C46*%
X157750000Y-62600000D03*
X156750000Y-62600000D03*
%TD*%
%TO.C,R77*%
X197000000Y-87500000D03*
X196000000Y-87500000D03*
%TD*%
%TO.C,R28*%
X189650000Y-49200000D03*
X188650000Y-49200000D03*
%TD*%
D25*
%TO.C,Q11*%
X121975000Y-50550000D03*
X121325000Y-50550000D03*
X120675000Y-50550000D03*
X120025000Y-50550000D03*
X120025000Y-53450000D03*
X120675000Y-53450000D03*
X121325000Y-53450000D03*
X121975000Y-53450000D03*
D26*
X121000000Y-52300000D03*
%TD*%
D57*
%TO.C,C17*%
X61000000Y-74500000D03*
D58*
X61000000Y-79500000D03*
%TD*%
D14*
%TO.C,TH2*%
X82600000Y-83200000D03*
X81600000Y-83200000D03*
%TD*%
D54*
%TO.C,H5*%
X89500000Y-43000000D03*
D55*
X89500000Y-43000000D03*
%TD*%
D35*
%TO.C,Q32*%
X132700000Y-111062500D03*
X130800000Y-111062500D03*
X131750000Y-112937500D03*
%TD*%
D12*
%TO.C,D10*%
X54720000Y-104200000D03*
X55720000Y-104200000D03*
%TD*%
D74*
%TO.C,OC1*%
X118385000Y-84712500D03*
X117115000Y-84712500D03*
X117115000Y-91087500D03*
X118385000Y-91087500D03*
%TD*%
D20*
%TO.C,FID6*%
X117000000Y-75500000D03*
%TD*%
D16*
%TO.C,C35*%
X156400000Y-50900000D03*
X156400000Y-51900000D03*
%TD*%
D27*
%TO.C,R24*%
X181000000Y-46092500D03*
X181000000Y-47917500D03*
%TD*%
D12*
%TO.C,D7*%
X142400000Y-86700000D03*
X143400000Y-86700000D03*
%TD*%
D25*
%TO.C,Q14*%
X133975000Y-50550000D03*
X133325000Y-50550000D03*
X132675000Y-50550000D03*
X132025000Y-50550000D03*
X132025000Y-53450000D03*
X132675000Y-53450000D03*
X133325000Y-53450000D03*
X133975000Y-53450000D03*
D26*
X133000000Y-52300000D03*
%TD*%
D13*
%TO.C,D26*%
X93600000Y-106600000D03*
X93600000Y-105600000D03*
%TD*%
D75*
%TO.C,C15*%
X148553553Y-68203553D03*
X147846447Y-67496447D03*
%TD*%
D23*
%TO.C,C66*%
X131850000Y-55025000D03*
X131850000Y-57975000D03*
%TD*%
D16*
%TO.C,R85*%
X143000000Y-96500000D03*
X143000000Y-97500000D03*
%TD*%
D35*
%TO.C,Q28*%
X109700000Y-99062500D03*
X107800000Y-99062500D03*
X108750000Y-100937500D03*
%TD*%
D12*
%TO.C,D11*%
X69960000Y-104200000D03*
X70960000Y-104200000D03*
%TD*%
D16*
%TO.C,R84*%
X130750000Y-95500000D03*
X130750000Y-96500000D03*
%TD*%
D12*
%TO.C,R55*%
X142400000Y-85800000D03*
X143400000Y-85800000D03*
%TD*%
D76*
%TO.C,SW2*%
X113300000Y-91550000D03*
X115500000Y-91550000D03*
D18*
X114400000Y-89400000D03*
X114400000Y-86400000D03*
D76*
X113300000Y-84250000D03*
X115500000Y-84250000D03*
D77*
X112600000Y-90150000D03*
X112600000Y-87150000D03*
X112600000Y-85650000D03*
%TD*%
D28*
%TO.C,M5*%
X149250000Y-44250000D03*
X146750000Y-44250000D03*
X144250000Y-44250000D03*
X141750000Y-44250000D03*
%TD*%
D14*
%TO.C,C41*%
X149950000Y-61500000D03*
X148950000Y-61500000D03*
%TD*%
D69*
%TO.C,F2*%
X71700000Y-68500000D03*
X75350000Y-68500000D03*
X79650000Y-68500000D03*
X83300000Y-68500000D03*
%TD*%
D13*
%TO.C,C62*%
X119750000Y-55750000D03*
X119750000Y-54750000D03*
%TD*%
D78*
%TO.C,SW1*%
X153150000Y-59350000D03*
X153150000Y-61550000D03*
D18*
X155300000Y-60450000D03*
X158300000Y-60450000D03*
D78*
X160450000Y-59350000D03*
X160450000Y-61550000D03*
D79*
X154550000Y-58650000D03*
X157550000Y-58650000D03*
X159050000Y-58650000D03*
%TD*%
D20*
%TO.C,FID5*%
X200750000Y-104000000D03*
%TD*%
D14*
%TO.C,D23*%
X177150000Y-52200000D03*
X176150000Y-52200000D03*
%TD*%
D16*
%TO.C,R108*%
X156250000Y-54700000D03*
X156250000Y-55700000D03*
%TD*%
D67*
%TO.C,D14*%
X64870000Y-106800000D03*
X64870000Y-103500000D03*
%TD*%
D30*
%TO.C,J37*%
X52000000Y-90250000D03*
X52000000Y-98750000D03*
%TD*%
D56*
%TO.C,C27*%
X191250000Y-47750000D03*
X191250000Y-46250000D03*
%TD*%
D13*
%TO.C,R14*%
X81100000Y-98150000D03*
X81100000Y-97150000D03*
%TD*%
%TO.C,C47*%
X138250000Y-55750000D03*
X138250000Y-54750000D03*
%TD*%
D80*
%TO.C,SW3*%
X162500000Y-57125000D03*
X168500000Y-57125000D03*
X162500000Y-60875000D03*
X168500000Y-60875000D03*
%TD*%
D14*
%TO.C,R97*%
X202150000Y-50195000D03*
X201150000Y-50195000D03*
%TD*%
D12*
%TO.C,D28*%
X109150000Y-109550000D03*
X110150000Y-109550000D03*
%TD*%
D16*
%TO.C,R67*%
X109150000Y-95550000D03*
X109150000Y-96550000D03*
%TD*%
%TO.C,C21*%
X193900000Y-49095000D03*
X193900000Y-50095000D03*
%TD*%
%TO.C,C101*%
X107500000Y-113250000D03*
X107500000Y-114250000D03*
%TD*%
D50*
%TO.C,J1*%
X200145000Y-69890000D03*
X200145000Y-64110000D03*
D81*
X199080000Y-70350000D03*
X199080000Y-69550000D03*
X199080000Y-68250000D03*
X199080000Y-67250000D03*
X199080000Y-66750000D03*
X199080000Y-65750000D03*
X199080000Y-64450000D03*
X199080000Y-63650000D03*
X199080000Y-63950000D03*
X199080000Y-64750000D03*
X199080000Y-65250000D03*
X199080000Y-66250000D03*
X199080000Y-67750000D03*
X199080000Y-68750000D03*
X199080000Y-69250000D03*
X199080000Y-70050000D03*
D82*
X199645000Y-71320000D03*
D83*
X203825000Y-71320000D03*
D82*
X199645000Y-62680000D03*
D83*
X203825000Y-62680000D03*
%TD*%
D16*
%TO.C,R3*%
X144600000Y-73850000D03*
X144600000Y-74850000D03*
%TD*%
D67*
%TO.C,D25*%
X57250000Y-106800000D03*
X57250000Y-103500000D03*
%TD*%
D14*
%TO.C,R82*%
X197000000Y-102000000D03*
X196000000Y-102000000D03*
%TD*%
D31*
%TO.C,J11*%
X132250000Y-76500000D03*
X129750000Y-76500000D03*
%TD*%
D84*
%TO.C,U6*%
X142200000Y-84150000D03*
X144500000Y-84150000D03*
D85*
X144500000Y-77850000D03*
D84*
X146800000Y-84150000D03*
%TD*%
D25*
%TO.C,Q26*%
X83935000Y-104050000D03*
X83285000Y-104050000D03*
X82635000Y-104050000D03*
X81985000Y-104050000D03*
X81985000Y-106950000D03*
X82635000Y-106950000D03*
X83285000Y-106950000D03*
X83935000Y-106950000D03*
D26*
X82960000Y-105800000D03*
%TD*%
D16*
%TO.C,C81*%
X172600000Y-72500000D03*
X172600000Y-73500000D03*
%TD*%
D12*
%TO.C,C19*%
X193850000Y-53045000D03*
X194850000Y-53045000D03*
%TD*%
D86*
%TO.C,U13*%
X189550000Y-100150000D03*
X189550000Y-100680000D03*
X189550000Y-101200000D03*
X189550000Y-101740000D03*
X189550000Y-102260000D03*
X189550000Y-102800000D03*
X189550000Y-103330000D03*
X189550000Y-103850000D03*
X193050000Y-103850000D03*
X193050000Y-103330000D03*
X193050000Y-102800000D03*
X193050000Y-102260000D03*
X193050000Y-101740000D03*
X193050000Y-101200000D03*
X193050000Y-100680000D03*
X193050000Y-100150000D03*
%TD*%
D35*
%TO.C,Q27*%
X109700000Y-105062500D03*
X107800000Y-105062500D03*
X108750000Y-106937500D03*
%TD*%
D23*
%TO.C,C74*%
X48000000Y-42025000D03*
X48000000Y-44975000D03*
%TD*%
D14*
%TO.C,R118*%
X151750000Y-61500000D03*
X150750000Y-61500000D03*
%TD*%
D23*
%TO.C,C72*%
X48000000Y-47025000D03*
X48000000Y-49975000D03*
%TD*%
D41*
%TO.C,C69*%
X85500000Y-49475000D03*
X85500000Y-46525000D03*
%TD*%
D87*
%TO.C,U11*%
X139250000Y-56500000D03*
X139250000Y-57000000D03*
X139250000Y-57500000D03*
X139250000Y-58000000D03*
X139250000Y-58500000D03*
X139250000Y-59000000D03*
X139250000Y-59500000D03*
X139250000Y-60000000D03*
X139250000Y-60500000D03*
X139250000Y-61000000D03*
X139250000Y-61500000D03*
X139250000Y-62000000D03*
D88*
X140750000Y-63500000D03*
X141250000Y-63500000D03*
X141750000Y-63500000D03*
X142250000Y-63500000D03*
X142750000Y-63500000D03*
X143250000Y-63500000D03*
X143750000Y-63500000D03*
X144250000Y-63500000D03*
X144750000Y-63500000D03*
X145250000Y-63500000D03*
X145750000Y-63500000D03*
X146250000Y-63500000D03*
D87*
X147750000Y-62000000D03*
X147750000Y-61500000D03*
X147750000Y-61000000D03*
X147750000Y-60500000D03*
X147750000Y-60000000D03*
X147750000Y-59500000D03*
X147750000Y-59000000D03*
X147750000Y-58500000D03*
X147750000Y-58000000D03*
X147750000Y-57500000D03*
X147750000Y-57000000D03*
X147750000Y-56500000D03*
D88*
X146250000Y-55000000D03*
X145750000Y-55000000D03*
X145250000Y-55000000D03*
X144750000Y-55000000D03*
X144250000Y-55000000D03*
X143750000Y-55000000D03*
X143250000Y-55000000D03*
X142750000Y-55000000D03*
X142250000Y-55000000D03*
X141750000Y-55000000D03*
X141250000Y-55000000D03*
X140750000Y-55000000D03*
D89*
X143500000Y-59250000D03*
%TD*%
D14*
%TO.C,R59*%
X63340000Y-103200000D03*
X62340000Y-103200000D03*
%TD*%
D87*
%TO.C,U12*%
X120750000Y-56500000D03*
X120750000Y-57000000D03*
X120750000Y-57500000D03*
X120750000Y-58000000D03*
X120750000Y-58500000D03*
X120750000Y-59000000D03*
X120750000Y-59500000D03*
X120750000Y-60000000D03*
X120750000Y-60500000D03*
X120750000Y-61000000D03*
X120750000Y-61500000D03*
X120750000Y-62000000D03*
D88*
X122250000Y-63500000D03*
X122750000Y-63500000D03*
X123250000Y-63500000D03*
X123750000Y-63500000D03*
X124250000Y-63500000D03*
X124750000Y-63500000D03*
X125250000Y-63500000D03*
X125750000Y-63500000D03*
X126250000Y-63500000D03*
X126750000Y-63500000D03*
X127250000Y-63500000D03*
X127750000Y-63500000D03*
D87*
X129250000Y-62000000D03*
X129250000Y-61500000D03*
X129250000Y-61000000D03*
X129250000Y-60500000D03*
X129250000Y-60000000D03*
X129250000Y-59500000D03*
X129250000Y-59000000D03*
X129250000Y-58500000D03*
X129250000Y-58000000D03*
X129250000Y-57500000D03*
X129250000Y-57000000D03*
X129250000Y-56500000D03*
D88*
X127750000Y-55000000D03*
X127250000Y-55000000D03*
X126750000Y-55000000D03*
X126250000Y-55000000D03*
X125750000Y-55000000D03*
X125250000Y-55000000D03*
X124750000Y-55000000D03*
X124250000Y-55000000D03*
X123750000Y-55000000D03*
X123250000Y-55000000D03*
X122750000Y-55000000D03*
X122250000Y-55000000D03*
D89*
X125000000Y-59250000D03*
%TD*%
D27*
%TO.C,R30*%
X156000000Y-46092500D03*
X156000000Y-47917500D03*
%TD*%
M02*
